<svg xmlns="http://www.w3.org/2000/svg" xmlns:xlink="http://www.w3.org/1999/xlink" width="125" zoomAndPan="magnify" viewBox="0 0 94.079994 101.04" height="125" preserveAspectRatio="xMidYMid meet" version="1.0"><defs><clipPath id="7bfedc2227"><path d="M 32.261719 28 L 42 28 L 42 50 L 32.261719 50 Z M 32.261719 28 " clip-rule="nonzero"/></clipPath><clipPath id="8f16022ad7"><path d="M 36 61 L 56 61 L 56 65.003906 L 36 65.003906 Z M 36 61 " clip-rule="nonzero"/></clipPath><clipPath id="940e667dd5"><path d="M 52 49 L 60.488281 49 L 60.488281 58 L 52 58 Z M 52 49 " clip-rule="nonzero"/></clipPath></defs><g clip-path="url(#7bfedc2227)"><path fill="#000000" d="M 40.707031 44.824219 C 40.003906 45.089844 39.410156 45.589844 38.839844 46.066406 C 38.238281 46.574219 37.667969 47.101562 37.113281 47.65625 C 36.800781 47.96875 36.492188 48.285156 36.199219 48.609375 C 36.332031 48.648438 36.464844 48.675781 36.597656 48.714844 C 36.339844 47.578125 36.085938 46.449219 35.835938 45.3125 C 35.578125 44.117188 35.359375 42.921875 35.121094 41.714844 C 34.625 39.160156 34.121094 36.597656 33.625 34.042969 C 33.339844 32.601562 33.0625 31.15625 32.777344 29.710938 C 32.777344 29.75 32.777344 29.796875 32.777344 29.835938 C 32.957031 29.347656 33.375 28.945312 33.863281 28.746094 C 34.398438 28.527344 34.949219 28.59375 35.453125 28.871094 C 36.007812 29.1875 36.457031 29.675781 36.886719 30.152344 C 37.332031 30.648438 37.742188 31.183594 38.105469 31.75 C 38.847656 32.90625 39.390625 34.160156 39.765625 35.488281 C 39.964844 36.214844 40.125 36.953125 40.269531 37.699219 C 40.410156 38.433594 40.546875 39.171875 40.648438 39.90625 C 40.898438 41.589844 40.871094 43.3125 40.535156 44.984375 C 40.507812 45.109375 40.574219 45.246094 40.699219 45.28125 C 40.8125 45.3125 40.964844 45.246094 40.992188 45.121094 C 41.28125 43.703125 41.355469 42.25 41.230469 40.804688 C 41.164062 40.078125 41.042969 39.363281 40.917969 38.644531 C 40.792969 37.957031 40.667969 37.277344 40.515625 36.597656 C 40.222656 35.269531 39.820312 33.96875 39.203125 32.746094 C 38.628906 31.617188 37.894531 30.5625 37.039062 29.636719 C 36.238281 28.773438 35.1875 27.867188 33.929688 28.210938 C 33.414062 28.363281 32.9375 28.707031 32.605469 29.15625 C 32.527344 29.253906 32.472656 29.359375 32.414062 29.472656 C 32.386719 29.539062 32.355469 29.605469 32.328125 29.664062 C 32.289062 29.769531 32.320312 29.875 32.335938 29.980469 C 32.40625 30.34375 32.480469 30.699219 32.546875 31.0625 C 33.121094 33.957031 33.683594 36.855469 34.253906 39.753906 C 34.539062 41.207031 34.824219 42.660156 35.113281 44.117188 C 35.359375 45.378906 35.644531 46.621094 35.921875 47.875 C 36 48.199219 36.066406 48.515625 36.140625 48.839844 C 36.179688 49.011719 36.417969 49.078125 36.542969 48.945312 C 37.054688 48.382812 37.589844 47.84375 38.144531 47.328125 C 38.675781 46.832031 39.230469 46.335938 39.820312 45.894531 C 40.136719 45.65625 40.480469 45.425781 40.839844 45.28125 C 40.964844 45.234375 41.042969 45.121094 41.003906 44.984375 C 40.972656 44.871094 40.832031 44.777344 40.707031 44.824219 Z M 40.707031 44.824219 " fill-opacity="1" fill-rule="nonzero"/></g><path fill="#000000" d="M 56.027344 48.238281 C 55.828125 48.851562 55.539062 49.414062 55.167969 49.941406 C 55.234375 49.902344 55.300781 49.863281 55.378906 49.824219 C 52.949219 49.789062 50.527344 50.160156 48.09375 50.101562 C 45.65625 50.054688 43.214844 49.949219 40.773438 49.875 C 39.390625 49.824219 38.011719 49.789062 36.636719 49.738281 C 36.714844 49.796875 36.789062 49.855469 36.867188 49.910156 C 36.78125 49.507812 36.695312 49.109375 36.609375 48.707031 C 36.589844 48.78125 36.570312 48.859375 36.550781 48.9375 C 37.054688 48.382812 37.589844 47.84375 38.132812 47.328125 C 38.667969 46.832031 39.21875 46.335938 39.800781 45.894531 C 40.085938 45.683594 40.382812 45.484375 40.699219 45.332031 C 41.023438 45.175781 41.375 45.082031 41.738281 45.015625 C 42.5 44.871094 43.289062 44.832031 44.0625 44.804688 C 45.664062 44.738281 47.265625 44.8125 48.867188 44.878906 C 50.421875 44.949219 51.992188 45.023438 53.519531 45.40625 C 54.195312 45.578125 54.910156 45.789062 55.511719 46.171875 C 55.757812 46.324219 55.988281 46.535156 56.101562 46.8125 C 56.21875 47.101562 56.21875 47.433594 56.160156 47.730469 C 56.121094 47.914062 56.074219 48.074219 56.027344 48.238281 C 55.929688 48.535156 56.398438 48.660156 56.484375 48.363281 C 56.710938 47.636719 56.78125 46.8125 56.265625 46.199219 C 56.035156 45.921875 55.722656 45.730469 55.40625 45.578125 C 55.042969 45.398438 54.652344 45.253906 54.273438 45.128906 C 52.625 44.601562 50.878906 44.5 49.164062 44.421875 C 47.410156 44.34375 45.65625 44.257812 43.890625 44.335938 C 43.035156 44.375 42.136719 44.421875 41.296875 44.621094 C 40.507812 44.8125 39.839844 45.246094 39.210938 45.75 C 38.570312 46.265625 37.960938 46.8125 37.371094 47.386719 C 37.074219 47.671875 36.789062 47.96875 36.503906 48.265625 C 36.371094 48.410156 36.101562 48.601562 36.140625 48.820312 C 36.179688 49.03125 36.238281 49.230469 36.273438 49.441406 C 36.3125 49.632812 36.359375 49.835938 36.398438 50.027344 C 36.417969 50.132812 36.53125 50.199219 36.628906 50.199219 C 39.402344 50.285156 42.175781 50.378906 44.960938 50.464844 C 46.332031 50.515625 47.703125 50.589844 49.078125 50.5625 C 50.449219 50.53125 51.8125 50.410156 53.175781 50.332031 C 53.566406 50.3125 53.957031 50.292969 54.347656 50.285156 C 54.539062 50.285156 54.71875 50.273438 54.910156 50.273438 C 55.007812 50.273438 55.101562 50.273438 55.1875 50.273438 C 55.28125 50.273438 55.40625 50.292969 55.492188 50.246094 C 55.578125 50.199219 55.636719 50.082031 55.683594 50.007812 C 55.730469 49.929688 55.777344 49.855469 55.828125 49.777344 C 55.910156 49.632812 55.996094 49.492188 56.074219 49.335938 C 56.234375 49.023438 56.371094 48.6875 56.484375 48.34375 C 56.578125 48.074219 56.121094 47.949219 56.027344 48.238281 Z M 56.027344 48.238281 " fill-opacity="1" fill-rule="nonzero"/><path fill="#000000" d="M 48.667969 50.351562 C 48.667969 50.886719 48.601562 51.480469 48.171875 51.84375 C 47.742188 52.214844 47.074219 52.082031 46.570312 52.054688 C 45.894531 52.015625 45.226562 51.976562 44.550781 51.9375 C 44.226562 51.917969 43.902344 51.902344 43.578125 51.882812 C 43.308594 51.863281 43.023438 51.871094 42.785156 51.730469 C 42.242188 51.414062 42.164062 50.707031 42.164062 50.140625 C 42.089844 50.21875 42.003906 50.304688 41.925781 50.378906 C 43.738281 50.4375 45.550781 50.496094 47.359375 50.550781 C 47.875 50.570312 48.390625 50.582031 48.90625 50.570312 C 49.210938 50.570312 49.210938 50.09375 48.90625 50.09375 C 48.007812 50.101562 47.105469 50.066406 46.207031 50.035156 C 45.300781 50.007812 44.398438 49.976562 43.492188 49.949219 C 42.964844 49.929688 42.453125 49.921875 41.925781 49.902344 C 41.804688 49.902344 41.6875 50.015625 41.6875 50.140625 C 41.699219 50.78125 41.804688 51.488281 42.289062 51.949219 C 42.539062 52.179688 42.824219 52.285156 43.148438 52.332031 C 43.5 52.378906 43.863281 52.378906 44.214844 52.398438 C 44.949219 52.4375 45.683594 52.472656 46.425781 52.523438 C 47.066406 52.5625 47.820312 52.683594 48.371094 52.285156 C 48.980469 51.832031 49.132812 51.070312 49.132812 50.351562 C 49.144531 50.046875 48.667969 50.035156 48.667969 50.351562 Z M 48.667969 50.351562 " fill-opacity="1" fill-rule="nonzero"/><path fill="#000000" d="M 46.578125 59.78125 C 45.84375 59.582031 45.0625 59.589844 44.339844 59.800781 C 44.445312 59.878906 44.539062 59.953125 44.644531 60.03125 C 44.445312 57.992188 44.53125 55.945312 44.566406 53.898438 C 44.578125 53.324219 44.597656 52.75 44.605469 52.179688 C 44.53125 52.253906 44.445312 52.339844 44.367188 52.417969 C 45.074219 52.457031 45.777344 52.492188 46.484375 52.53125 C 46.40625 52.457031 46.320312 52.371094 46.246094 52.292969 C 46.199219 54.300781 46.113281 56.308594 46.179688 58.316406 C 46.199219 58.882812 46.226562 59.445312 46.285156 60.011719 C 46.292969 60.136719 46.390625 60.25 46.523438 60.25 C 46.644531 60.25 46.769531 60.144531 46.761719 60.011719 C 46.570312 58.011719 46.644531 56.003906 46.683594 54.003906 C 46.695312 53.429688 46.714844 52.855469 46.722656 52.285156 C 46.722656 52.148438 46.609375 52.054688 46.484375 52.042969 C 45.777344 52.007812 45.074219 51.96875 44.367188 51.929688 C 44.234375 51.917969 44.128906 52.042969 44.128906 52.167969 C 44.082031 54.207031 43.996094 56.253906 44.0625 58.300781 C 44.082031 58.871094 44.109375 59.445312 44.167969 60.019531 C 44.1875 60.171875 44.3125 60.296875 44.472656 60.25 C 45.121094 60.058594 45.808594 60.050781 46.464844 60.230469 C 46.75 60.328125 46.875 59.859375 46.578125 59.78125 Z M 46.578125 59.78125 " fill-opacity="1" fill-rule="nonzero"/><g clip-path="url(#8f16022ad7)"><path fill="#000000" d="M 55.359375 64.429688 C 53.117188 64.523438 50.871094 64.507812 48.628906 64.46875 C 46.121094 64.421875 43.613281 64.371094 41.109375 64.351562 C 39.792969 64.34375 38.476562 64.324219 37.160156 64.316406 C 37.238281 64.390625 37.324219 64.476562 37.398438 64.554688 C 37.449219 64.027344 37.675781 63.484375 38 63.070312 C 38.316406 62.667969 38.800781 62.410156 39.238281 62.183594 C 39.203125 62.191406 39.164062 62.199219 39.117188 62.210938 C 41.023438 62.25 42.917969 62.277344 44.824219 62.304688 C 46.730469 62.335938 48.648438 62.390625 50.554688 62.402344 C 51.621094 62.410156 52.691406 62.390625 53.757812 62.316406 C 53.71875 62.304688 53.679688 62.296875 53.632812 62.289062 C 53.871094 62.390625 54.082031 62.535156 54.292969 62.6875 C 54.480469 62.832031 54.703125 62.984375 54.835938 63.175781 C 54.976562 63.367188 54.996094 63.605469 55.027344 63.835938 C 55.054688 64.113281 55.101562 64.402344 55.109375 64.679688 C 55.121094 64.800781 55.214844 64.917969 55.347656 64.917969 C 55.472656 64.917969 55.597656 64.8125 55.585938 64.679688 C 55.570312 64.316406 55.519531 63.960938 55.472656 63.605469 C 55.425781 63.261719 55.3125 62.957031 55.0625 62.71875 C 54.835938 62.496094 54.578125 62.296875 54.308594 62.125 C 54.175781 62.039062 54.035156 61.953125 53.890625 61.894531 C 53.710938 61.820312 53.472656 61.875 53.28125 61.886719 C 51.804688 61.960938 50.324219 61.941406 48.847656 61.921875 C 45.875 61.867188 42.890625 61.820312 39.917969 61.769531 C 39.707031 61.769531 39.507812 61.761719 39.296875 61.761719 C 39.183594 61.761719 39.078125 61.75 38.964844 61.800781 C 38.894531 61.835938 38.828125 61.875 38.761719 61.914062 C 38.4375 62.097656 38.125 62.289062 37.847656 62.535156 C 37.304688 63.042969 36.972656 63.847656 36.902344 64.582031 C 36.894531 64.714844 37.019531 64.820312 37.140625 64.820312 C 39.324219 64.839844 41.507812 64.851562 43.683594 64.886719 C 46.253906 64.9375 48.820312 64.992188 51.394531 65.003906 C 52.710938 65.003906 54.023438 65.003906 55.347656 64.945312 C 55.664062 64.886719 55.664062 64.410156 55.359375 64.429688 Z M 55.359375 64.429688 " fill-opacity="1" fill-rule="nonzero"/></g><path fill="#000000" d="M 48.238281 61.886719 C 46.304688 61.847656 44.367188 61.820312 42.433594 61.78125 C 42.507812 61.855469 42.59375 61.941406 42.671875 62.019531 C 42.632812 61.558594 42.917969 61.179688 43.253906 60.890625 C 43.625 60.566406 44.089844 60.347656 44.566406 60.222656 C 45.082031 60.085938 45.636719 60.058594 46.152344 60.164062 C 46.628906 60.257812 47.113281 60.433594 47.445312 60.804688 C 47.769531 61.160156 47.933594 61.644531 47.992188 62.113281 C 48.007812 62.238281 48.085938 62.355469 48.230469 62.355469 C 48.34375 62.355469 48.484375 62.25 48.46875 62.113281 C 48.410156 61.589844 48.257812 61.074219 47.933594 60.652344 C 47.570312 60.171875 47.054688 59.894531 46.484375 59.753906 C 45.292969 59.445312 43.96875 59.703125 43.003906 60.46875 C 42.539062 60.832031 42.128906 61.398438 42.183594 62.019531 C 42.195312 62.152344 42.28125 62.257812 42.421875 62.257812 C 44.359375 62.289062 46.292969 62.324219 48.230469 62.363281 C 48.542969 62.363281 48.542969 61.886719 48.238281 61.886719 Z M 48.238281 61.886719 " fill-opacity="1" fill-rule="nonzero"/><path fill="#000000" d="M 53.917969 40.433594 C 53.546875 40.585938 53.148438 40.617188 52.746094 40.605469 C 52.335938 40.605469 51.9375 40.578125 51.527344 40.566406 C 50.679688 40.539062 49.839844 40.527344 48.992188 40.527344 C 47.292969 40.527344 45.597656 40.578125 43.902344 40.671875 C 42.9375 40.730469 41.976562 40.796875 41.023438 40.882812 C 41.097656 40.960938 41.183594 41.046875 41.261719 41.121094 C 41.183594 40.078125 41.003906 39.046875 40.8125 38.015625 C 40.734375 38.117188 40.660156 38.214844 40.582031 38.320312 C 42.824219 38.339844 45.0625 38.347656 47.304688 38.367188 C 48.410156 38.378906 49.515625 38.378906 50.621094 38.394531 C 51.183594 38.40625 51.746094 38.414062 52.308594 38.425781 C 52.824219 38.445312 53.355469 38.425781 53.851562 38.585938 C 54.242188 38.722656 54.644531 39.054688 54.632812 39.507812 C 54.625 39.945312 54.234375 40.289062 53.863281 40.453125 C 53.75 40.5 53.71875 40.683594 53.777344 40.777344 C 53.851562 40.902344 53.988281 40.910156 54.101562 40.863281 C 54.53125 40.683594 54.890625 40.320312 55.042969 39.871094 C 55.195312 39.410156 55.054688 38.933594 54.730469 38.585938 C 54.367188 38.207031 53.851562 38.050781 53.347656 37.996094 C 52.777344 37.929688 52.195312 37.9375 51.621094 37.929688 C 49.277344 37.878906 46.921875 37.878906 44.578125 37.871094 C 43.253906 37.859375 41.917969 37.851562 40.59375 37.839844 C 40.429688 37.839844 40.335938 37.996094 40.363281 38.148438 C 40.546875 39.132812 40.726562 40.128906 40.792969 41.132812 C 40.804688 41.257812 40.898438 41.378906 41.03125 41.371094 C 42.738281 41.21875 44.445312 41.113281 46.160156 41.054688 C 47.875 40.996094 49.582031 40.996094 51.296875 41.046875 C 51.753906 41.054688 52.203125 41.082031 52.660156 41.09375 C 53.128906 41.101562 53.605469 41.074219 54.042969 40.902344 C 54.167969 40.855469 54.242188 40.738281 54.207031 40.605469 C 54.175781 40.480469 54.035156 40.386719 53.917969 40.433594 Z M 53.917969 40.433594 " fill-opacity="1" fill-rule="nonzero"/><path fill="#000000" d="M 53.269531 40.796875 C 53.234375 42.242188 53.195312 43.695312 53.15625 45.140625 C 53.261719 45.0625 53.355469 44.984375 53.460938 44.910156 C 53.015625 44.804688 52.566406 44.726562 52.117188 44.660156 C 52.175781 44.738281 52.230469 44.8125 52.289062 44.890625 C 52.222656 43.53125 52.195312 42.175781 52.195312 40.816406 C 52.117188 40.894531 52.03125 40.980469 51.957031 41.054688 C 52.5 41.066406 53.03125 41.113281 53.578125 41.015625 C 53.699219 40.996094 53.777344 40.835938 53.738281 40.71875 C 53.699219 40.585938 53.578125 40.527344 53.441406 40.558594 C 52.949219 40.644531 52.441406 40.585938 51.957031 40.578125 C 51.824219 40.578125 51.71875 40.691406 51.71875 40.816406 C 51.707031 42.175781 51.738281 43.53125 51.8125 44.890625 C 51.824219 44.984375 51.878906 45.109375 51.984375 45.121094 C 52.441406 45.175781 52.890625 45.261719 53.328125 45.367188 C 53.480469 45.40625 53.625 45.300781 53.632812 45.140625 C 53.671875 43.695312 53.710938 42.242188 53.75 40.796875 C 53.757812 40.492188 53.28125 40.492188 53.269531 40.796875 Z M 53.269531 40.796875 " fill-opacity="1" fill-rule="nonzero"/><g clip-path="url(#940e667dd5)"><path fill="#000000" d="M 52.539062 50.351562 C 53.300781 51.757812 54.070312 53.152344 54.863281 54.539062 C 55.253906 55.230469 55.644531 55.90625 56.046875 56.597656 C 56.207031 56.882812 56.371094 57.265625 56.683594 57.417969 C 57.054688 57.601562 57.425781 57.382812 57.75 57.207031 C 58.5625 56.789062 59.371094 56.367188 60.183594 55.945312 C 60.460938 55.804688 60.210938 55.390625 59.945312 55.535156 C 59.257812 55.890625 58.5625 56.253906 57.875 56.605469 C 57.703125 56.691406 57.542969 56.777344 57.371094 56.875 C 57.257812 56.929688 57.113281 57.027344 56.980469 57.015625 C 56.867188 57.007812 56.78125 56.882812 56.722656 56.796875 C 56.625 56.644531 56.542969 56.492188 56.457031 56.339844 C 55.691406 55.027344 54.941406 53.707031 54.195312 52.378906 C 53.777344 51.625 53.367188 50.867188 52.957031 50.113281 C 52.804688 49.835938 52.394531 50.082031 52.539062 50.351562 Z M 52.539062 50.351562 " fill-opacity="1" fill-rule="nonzero"/></g><path fill="#000000" d="M 35.683594 30.667969 C 35.285156 30.457031 34.824219 30.648438 34.570312 30.992188 C 34.273438 31.394531 34.347656 31.929688 34.445312 32.390625 C 34.671875 33.460938 34.929688 34.53125 35.179688 35.605469 C 35.320312 36.207031 35.464844 36.808594 35.609375 37.410156 C 35.675781 37.707031 36.140625 37.582031 36.066406 37.285156 C 35.835938 36.320312 35.609375 35.355469 35.386719 34.390625 C 35.273438 33.910156 35.167969 33.433594 35.0625 32.945312 C 35.007812 32.707031 34.960938 32.476562 34.902344 32.238281 C 34.855469 32.035156 34.824219 31.824219 34.84375 31.605469 C 34.863281 31.425781 34.929688 31.253906 35.082031 31.136719 C 35.199219 31.050781 35.332031 31.011719 35.445312 31.070312 C 35.722656 31.222656 35.960938 30.8125 35.683594 30.667969 Z M 35.683594 30.667969 " fill-opacity="1" fill-rule="nonzero"/><path fill="#000000" d="M 36.007812 38.988281 C 36.027344 39.601562 36.121094 40.203125 36.292969 40.789062 C 36.332031 40.910156 36.464844 40.988281 36.589844 40.949219 C 36.714844 40.910156 36.789062 40.777344 36.75 40.652344 C 36.589844 40.109375 36.503906 39.554688 36.484375 38.988281 C 36.484375 38.863281 36.378906 38.75 36.246094 38.75 C 36.121094 38.75 36 38.855469 36.007812 38.988281 Z M 36.007812 38.988281 " fill-opacity="1" fill-rule="nonzero"/><path fill="#000000" d="M 40.003906 48.09375 C 40.46875 47.550781 41.058594 47.128906 41.726562 46.878906 C 42.460938 46.601562 43.261719 46.488281 44.035156 46.382812 C 44.492188 46.316406 44.960938 46.285156 45.425781 46.316406 C 45.550781 46.324219 45.664062 46.199219 45.664062 46.078125 C 45.664062 45.941406 45.558594 45.847656 45.425781 45.835938 C 44.578125 45.78125 43.710938 45.933594 42.871094 46.085938 C 42.082031 46.230469 41.296875 46.457031 40.621094 46.910156 C 40.257812 47.148438 39.933594 47.433594 39.660156 47.757812 C 39.574219 47.855469 39.5625 48 39.660156 48.09375 C 39.746094 48.179688 39.917969 48.191406 40.003906 48.09375 Z M 40.003906 48.09375 " fill-opacity="1" fill-rule="nonzero"/><path fill="#000000" d="M 47.617188 46.707031 C 47.648438 46.699219 47.667969 46.699219 47.695312 46.699219 C 47.703125 46.699219 47.761719 46.679688 47.703125 46.699219 C 47.742188 46.6875 47.789062 46.6875 47.828125 46.6875 C 47.914062 46.6875 48.007812 46.679688 48.085938 46.699219 C 48.027344 46.679688 48.078125 46.699219 48.09375 46.699219 C 48.125 46.699219 48.144531 46.707031 48.171875 46.707031 C 48.210938 46.71875 48.257812 46.726562 48.296875 46.734375 C 48.332031 46.746094 48.382812 46.765625 48.417969 46.773438 C 48.46875 46.792969 48.382812 46.753906 48.429688 46.773438 C 48.449219 46.785156 48.476562 46.792969 48.496094 46.804688 C 48.609375 46.859375 48.761719 46.839844 48.820312 46.71875 C 48.875 46.613281 48.859375 46.449219 48.734375 46.390625 C 48.351562 46.199219 47.914062 46.144531 47.496094 46.230469 C 47.371094 46.257812 47.292969 46.402344 47.332031 46.527344 C 47.371094 46.667969 47.484375 46.734375 47.617188 46.707031 Z M 47.617188 46.707031 " fill-opacity="1" fill-rule="nonzero"/><path fill="#000000" d="M 42.832031 54.015625 C 42.691406 54.722656 42.632812 55.4375 42.652344 56.167969 C 42.660156 56.472656 43.136719 56.472656 43.128906 56.167969 C 43.109375 55.488281 43.15625 54.808594 43.289062 54.148438 C 43.320312 54.023438 43.253906 53.890625 43.128906 53.851562 C 43.015625 53.8125 42.863281 53.890625 42.832031 54.015625 Z M 42.832031 54.015625 " fill-opacity="1" fill-rule="nonzero"/><path fill="#000000" d="M 42.796875 57.542969 C 42.796875 57.675781 42.796875 57.8125 42.796875 57.945312 C 42.796875 58.003906 42.824219 58.070312 42.863281 58.117188 C 42.898438 58.15625 42.964844 58.195312 43.035156 58.183594 C 43.089844 58.183594 43.15625 58.164062 43.203125 58.117188 C 43.242188 58.070312 43.273438 58.011719 43.273438 57.945312 C 43.273438 57.8125 43.273438 57.675781 43.273438 57.542969 C 43.273438 57.484375 43.242188 57.417969 43.203125 57.371094 C 43.167969 57.332031 43.101562 57.292969 43.035156 57.304688 C 42.976562 57.304688 42.910156 57.324219 42.863281 57.371094 C 42.824219 57.417969 42.796875 57.476562 42.796875 57.542969 Z M 42.796875 57.542969 " fill-opacity="1" fill-rule="nonzero"/><path fill="#000000" d="M 43.558594 36.683594 C 45.453125 36.683594 47.351562 36.683594 49.25 36.683594 C 49.554688 36.683594 49.554688 36.207031 49.25 36.207031 C 47.351562 36.207031 45.453125 36.207031 43.558594 36.207031 C 43.253906 36.207031 43.253906 36.683594 43.558594 36.683594 Z M 43.558594 36.683594 " fill-opacity="1" fill-rule="nonzero"/><path fill="#000000" d="M 50.726562 36.683594 C 50.90625 36.683594 51.097656 36.683594 51.277344 36.683594 C 51.335938 36.683594 51.402344 36.65625 51.449219 36.617188 C 51.488281 36.578125 51.527344 36.511719 51.515625 36.445312 C 51.507812 36.3125 51.414062 36.207031 51.277344 36.207031 C 51.097656 36.207031 50.90625 36.207031 50.726562 36.207031 C 50.667969 36.207031 50.601562 36.234375 50.554688 36.273438 C 50.515625 36.3125 50.476562 36.378906 50.488281 36.445312 C 50.488281 36.578125 50.59375 36.683594 50.726562 36.683594 Z M 50.726562 36.683594 " fill-opacity="1" fill-rule="nonzero"/></svg>