<svg xmlns="http://www.w3.org/2000/svg" xmlns:xlink="http://www.w3.org/1999/xlink" width="250" zoomAndPan="magnify" viewBox="0 0 187.5 187.499992" height="250" preserveAspectRatio="xMidYMid meet" version="1.0"><defs><clipPath id="c184028023"><path d="M 65 56.101562 L 84 56.101562 L 84 99 L 65 99 Z M 65 56.101562 " clip-rule="nonzero"/></clipPath><clipPath id="8bcdea5945"><path d="M 74 124 L 112 124 L 112 130.902344 L 74 130.902344 Z M 74 124 " clip-rule="nonzero"/></clipPath><clipPath id="33c5e8c92b"><path d="M 105 100 L 121.832031 100 L 121.832031 116 L 105 116 Z M 105 100 " clip-rule="nonzero"/></clipPath></defs><g clip-path="url(#c184028023)"><path fill="#000000" d="M 81.992188 90.253906 C 80.570312 90.792969 79.382812 91.796875 78.230469 92.757812 C 77.019531 93.78125 75.867188 94.839844 74.753906 95.957031 C 74.121094 96.59375 73.507812 97.226562 72.910156 97.882812 C 73.179688 97.960938 73.449219 98.019531 73.71875 98.09375 C 73.199219 95.800781 72.679688 93.53125 72.179688 91.238281 C 71.664062 88.828125 71.222656 86.421875 70.742188 83.992188 C 69.742188 78.851562 68.726562 73.6875 67.726562 68.542969 C 67.152344 65.636719 66.59375 62.726562 66.019531 59.816406 C 66.019531 59.894531 66.019531 59.992188 66.019531 60.070312 C 66.382812 59.085938 67.226562 58.277344 68.207031 57.871094 C 69.28125 57.429688 70.394531 57.5625 71.414062 58.125 C 72.527344 58.757812 73.429688 59.742188 74.292969 60.703125 C 75.195312 61.707031 76.019531 62.785156 76.75 63.921875 C 78.25 66.253906 79.34375 68.777344 80.089844 71.453125 C 80.496094 72.917969 80.820312 74.402344 81.109375 75.902344 C 81.398438 77.386719 81.667969 78.871094 81.878906 80.351562 C 82.375 83.742188 82.320312 87.210938 81.648438 90.582031 C 81.589844 90.832031 81.722656 91.101562 81.972656 91.179688 C 82.203125 91.238281 82.511719 91.101562 82.570312 90.851562 C 83.144531 88 83.296875 85.074219 83.046875 82.164062 C 82.914062 80.699219 82.664062 79.253906 82.414062 77.808594 C 82.164062 76.421875 81.914062 75.054688 81.609375 73.6875 C 81.011719 71.011719 80.207031 68.390625 78.957031 65.925781 C 77.808594 63.652344 76.328125 61.53125 74.601562 59.664062 C 72.988281 57.929688 70.875 56.101562 68.339844 56.792969 C 67.304688 57.101562 66.34375 57.796875 65.671875 58.699219 C 65.519531 58.894531 65.402344 59.105469 65.289062 59.335938 C 65.230469 59.472656 65.171875 59.605469 65.117188 59.722656 C 65.039062 59.933594 65.097656 60.144531 65.132812 60.359375 C 65.269531 61.089844 65.421875 61.800781 65.558594 62.535156 C 66.707031 68.371094 67.839844 74.207031 68.992188 80.046875 C 69.570312 82.972656 70.144531 85.902344 70.722656 88.828125 C 71.222656 91.371094 71.796875 93.875 72.355469 96.398438 C 72.507812 97.054688 72.640625 97.691406 72.796875 98.34375 C 72.871094 98.691406 73.351562 98.828125 73.601562 98.558594 C 74.640625 97.421875 75.714844 96.34375 76.828125 95.300781 C 77.902344 94.300781 79.015625 93.296875 80.207031 92.414062 C 80.839844 91.929688 81.53125 91.46875 82.261719 91.179688 C 82.511719 91.082031 82.664062 90.851562 82.585938 90.582031 C 82.53125 90.351562 82.242188 90.160156 81.992188 90.253906 Z M 81.992188 90.253906 " fill-opacity="1" fill-rule="nonzero"/></g><path fill="#000000" d="M 112.847656 97.132812 C 112.445312 98.363281 111.867188 99.5 111.121094 100.5625 C 111.253906 100.484375 111.386719 100.40625 111.542969 100.328125 C 106.644531 100.253906 101.769531 101.003906 96.871094 100.886719 C 91.957031 100.792969 87.042969 100.578125 82.125 100.425781 C 79.34375 100.328125 76.558594 100.253906 73.792969 100.15625 C 73.949219 100.273438 74.101562 100.386719 74.253906 100.503906 C 74.082031 99.695312 73.910156 98.886719 73.734375 98.074219 C 73.699219 98.230469 73.660156 98.382812 73.621094 98.539062 C 74.640625 97.421875 75.714844 96.34375 76.808594 95.300781 C 77.882812 94.300781 78.996094 93.296875 80.167969 92.414062 C 80.746094 91.988281 81.339844 91.582031 81.972656 91.277344 C 82.625 90.96875 83.335938 90.773438 84.066406 90.640625 C 85.601562 90.351562 87.195312 90.273438 88.75 90.214844 C 91.976562 90.082031 95.203125 90.234375 98.429688 90.371094 C 101.558594 90.503906 104.726562 90.660156 107.796875 91.429688 C 109.160156 91.777344 110.601562 92.199219 111.8125 92.972656 C 112.308594 93.277344 112.769531 93.703125 113 94.261719 C 113.230469 94.839844 113.230469 95.515625 113.117188 96.109375 C 113.039062 96.476562 112.945312 96.804688 112.847656 97.132812 C 112.65625 97.730469 113.597656 97.980469 113.769531 97.382812 C 114.230469 95.917969 114.363281 94.261719 113.328125 93.027344 C 112.867188 92.46875 112.234375 92.085938 111.597656 91.777344 C 110.871094 91.410156 110.082031 91.121094 109.316406 90.871094 C 105.992188 89.8125 102.480469 89.601562 99.023438 89.445312 C 95.492188 89.292969 91.957031 89.117188 88.40625 89.273438 C 86.675781 89.347656 84.871094 89.445312 83.183594 89.851562 C 81.589844 90.234375 80.246094 91.101562 78.976562 92.125 C 77.691406 93.164062 76.460938 94.261719 75.273438 95.417969 C 74.675781 95.996094 74.101562 96.59375 73.523438 97.191406 C 73.257812 97.480469 72.71875 97.863281 72.796875 98.308594 C 72.871094 98.730469 72.988281 99.136719 73.0625 99.558594 C 73.140625 99.945312 73.238281 100.347656 73.3125 100.734375 C 73.351562 100.945312 73.582031 101.082031 73.773438 101.082031 C 79.363281 101.253906 84.949219 101.445312 90.554688 101.621094 C 93.320312 101.714844 96.085938 101.871094 98.851562 101.8125 C 101.617188 101.753906 104.359375 101.503906 107.105469 101.351562 C 107.894531 101.3125 108.679688 101.273438 109.46875 101.253906 C 109.851562 101.253906 110.21875 101.234375 110.601562 101.234375 C 110.792969 101.234375 110.984375 101.234375 111.15625 101.234375 C 111.351562 101.234375 111.597656 101.273438 111.773438 101.175781 C 111.945312 101.082031 112.058594 100.851562 112.15625 100.695312 C 112.253906 100.542969 112.347656 100.386719 112.445312 100.234375 C 112.617188 99.945312 112.789062 99.65625 112.945312 99.347656 C 113.269531 98.710938 113.539062 98.039062 113.769531 97.34375 C 113.960938 96.804688 113.039062 96.554688 112.847656 97.132812 Z M 112.847656 97.132812 " fill-opacity="1" fill-rule="nonzero"/><path fill="#000000" d="M 98.023438 101.390625 C 98.023438 102.46875 97.890625 103.664062 97.027344 104.394531 C 96.164062 105.144531 94.820312 104.875 93.800781 104.816406 C 92.4375 104.742188 91.09375 104.664062 89.730469 104.585938 C 89.078125 104.546875 88.425781 104.511719 87.773438 104.472656 C 87.234375 104.433594 86.660156 104.453125 86.179688 104.164062 C 85.082031 103.527344 84.929688 102.101562 84.929688 100.964844 C 84.777344 101.121094 84.605469 101.292969 84.449219 101.445312 C 88.097656 101.5625 91.746094 101.679688 95.394531 101.792969 C 96.429688 101.832031 97.46875 101.851562 98.503906 101.832031 C 99.121094 101.832031 99.121094 100.867188 98.503906 100.867188 C 96.699219 100.886719 94.875 100.8125 93.070312 100.753906 C 91.246094 100.695312 89.421875 100.636719 87.597656 100.578125 C 86.542969 100.542969 85.507812 100.523438 84.449219 100.484375 C 84.199219 100.484375 83.96875 100.714844 83.96875 100.964844 C 83.988281 102.257812 84.199219 103.679688 85.179688 104.605469 C 85.679688 105.070312 86.253906 105.28125 86.90625 105.375 C 87.617188 105.472656 88.347656 105.472656 89.058594 105.511719 C 90.535156 105.589844 92.015625 105.664062 93.511719 105.761719 C 94.800781 105.839844 96.316406 106.089844 97.429688 105.28125 C 98.660156 104.375 98.964844 102.832031 98.964844 101.390625 C 98.984375 100.773438 98.023438 100.753906 98.023438 101.390625 Z M 98.023438 101.390625 " fill-opacity="1" fill-rule="nonzero"/><path fill="#000000" d="M 93.820312 120.382812 C 92.339844 119.976562 90.765625 119.996094 89.308594 120.421875 C 89.519531 120.574219 89.710938 120.730469 89.921875 120.882812 C 89.519531 116.78125 89.691406 112.660156 89.769531 108.535156 C 89.789062 107.378906 89.828125 106.222656 89.84375 105.070312 C 89.691406 105.222656 89.519531 105.394531 89.367188 105.550781 C 90.785156 105.628906 92.207031 105.703125 93.628906 105.78125 C 93.472656 105.628906 93.300781 105.453125 93.148438 105.300781 C 93.050781 109.34375 92.878906 113.390625 93.011719 117.4375 C 93.050781 118.570312 93.109375 119.707031 93.226562 120.84375 C 93.242188 121.097656 93.4375 121.328125 93.703125 121.328125 C 93.953125 121.328125 94.203125 121.113281 94.183594 120.84375 C 93.800781 116.820312 93.953125 112.773438 94.03125 108.746094 C 94.050781 107.59375 94.089844 106.4375 94.109375 105.28125 C 94.109375 105.011719 93.878906 104.816406 93.628906 104.796875 C 92.207031 104.722656 90.785156 104.644531 89.367188 104.566406 C 89.097656 104.546875 88.886719 104.796875 88.886719 105.050781 C 88.789062 109.152344 88.617188 113.273438 88.75 117.398438 C 88.789062 118.554688 88.847656 119.707031 88.960938 120.863281 C 89 121.171875 89.25 121.421875 89.578125 121.328125 C 90.882812 120.941406 92.265625 120.921875 93.589844 121.289062 C 94.164062 121.480469 94.414062 120.539062 93.820312 120.382812 Z M 93.820312 120.382812 " fill-opacity="1" fill-rule="nonzero"/><g clip-path="url(#8bcdea5945)"><path fill="#000000" d="M 111.503906 129.746094 C 106.992188 129.9375 102.460938 129.898438 97.949219 129.820312 C 92.898438 129.726562 87.847656 129.628906 82.800781 129.589844 C 80.148438 129.570312 77.5 129.535156 74.851562 129.515625 C 75.003906 129.667969 75.175781 129.839844 75.328125 129.996094 C 75.425781 128.9375 75.886719 127.839844 76.539062 127.007812 C 77.171875 126.199219 78.152344 125.679688 79.035156 125.21875 C 78.957031 125.238281 78.882812 125.257812 78.785156 125.277344 C 82.625 125.351562 86.445312 125.410156 90.285156 125.46875 C 94.128906 125.527344 97.988281 125.640625 101.828125 125.660156 C 103.976562 125.679688 106.128906 125.640625 108.277344 125.488281 C 108.199219 125.46875 108.125 125.449219 108.027344 125.429688 C 108.507812 125.640625 108.929688 125.929688 109.351562 126.238281 C 109.738281 126.527344 110.179688 126.835938 110.449219 127.222656 C 110.734375 127.605469 110.773438 128.089844 110.832031 128.550781 C 110.890625 129.109375 110.984375 129.6875 111.003906 130.246094 C 111.023438 130.496094 111.214844 130.726562 111.484375 130.726562 C 111.734375 130.726562 111.984375 130.515625 111.964844 130.246094 C 111.925781 129.515625 111.828125 128.800781 111.734375 128.089844 C 111.636719 127.394531 111.40625 126.777344 110.910156 126.296875 C 110.449219 125.855469 109.929688 125.449219 109.390625 125.101562 C 109.121094 124.929688 108.835938 124.753906 108.546875 124.640625 C 108.183594 124.484375 107.703125 124.601562 107.316406 124.621094 C 104.34375 124.773438 101.367188 124.738281 98.390625 124.699219 C 92.398438 124.582031 86.390625 124.484375 80.398438 124.390625 C 79.976562 124.390625 79.574219 124.371094 79.152344 124.371094 C 78.921875 124.371094 78.710938 124.351562 78.480469 124.449219 C 78.34375 124.523438 78.210938 124.601562 78.074219 124.679688 C 77.421875 125.042969 76.789062 125.429688 76.230469 125.929688 C 75.136719 126.953125 74.464844 128.570312 74.332031 130.054688 C 74.3125 130.324219 74.5625 130.535156 74.8125 130.535156 C 79.207031 130.574219 83.605469 130.59375 87.984375 130.667969 C 93.167969 130.765625 98.332031 130.882812 103.515625 130.902344 C 106.164062 130.902344 108.816406 130.902344 111.484375 130.785156 C 112.117188 130.667969 112.117188 129.707031 111.503906 129.746094 Z M 111.503906 129.746094 " fill-opacity="1" fill-rule="nonzero"/></g><path fill="#000000" d="M 97.160156 124.621094 C 93.261719 124.542969 89.367188 124.484375 85.46875 124.410156 C 85.621094 124.5625 85.792969 124.738281 85.949219 124.890625 C 85.871094 123.964844 86.445312 123.195312 87.117188 122.617188 C 87.867188 121.960938 88.808594 121.519531 89.769531 121.269531 C 90.804688 121 91.917969 120.941406 92.957031 121.152344 C 93.914062 121.347656 94.894531 121.691406 95.566406 122.445312 C 96.21875 123.15625 96.546875 124.140625 96.660156 125.082031 C 96.699219 125.332031 96.855469 125.566406 97.140625 125.566406 C 97.371094 125.566406 97.660156 125.351562 97.621094 125.082031 C 97.507812 124.023438 97.199219 122.984375 96.546875 122.136719 C 95.816406 121.171875 94.78125 120.613281 93.628906 120.324219 C 91.226562 119.707031 88.558594 120.230469 86.621094 121.769531 C 85.679688 122.503906 84.851562 123.636719 84.96875 124.890625 C 84.988281 125.160156 85.160156 125.371094 85.449219 125.371094 C 89.347656 125.429688 93.242188 125.507812 97.140625 125.585938 C 97.773438 125.585938 97.773438 124.621094 97.160156 124.621094 Z M 97.160156 124.621094 " fill-opacity="1" fill-rule="nonzero"/><path fill="#000000" d="M 108.605469 81.414062 C 107.855469 81.722656 107.050781 81.777344 106.242188 81.757812 C 105.417969 81.757812 104.609375 81.703125 103.785156 81.683594 C 102.074219 81.625 100.386719 81.605469 98.675781 81.605469 C 95.261719 81.605469 91.84375 81.703125 88.425781 81.894531 C 86.484375 82.011719 84.546875 82.144531 82.625 82.316406 C 82.78125 82.472656 82.953125 82.644531 83.105469 82.800781 C 82.953125 80.699219 82.585938 78.621094 82.203125 76.539062 C 82.050781 76.75 81.898438 76.945312 81.742188 77.15625 C 86.253906 77.195312 90.765625 77.214844 95.277344 77.25 C 97.507812 77.269531 99.734375 77.269531 101.960938 77.308594 C 103.09375 77.328125 104.226562 77.347656 105.359375 77.367188 C 106.394531 77.40625 107.472656 77.367188 108.46875 77.695312 C 109.257812 77.964844 110.0625 78.640625 110.042969 79.542969 C 110.023438 80.429688 109.238281 81.125 108.488281 81.453125 C 108.257812 81.546875 108.199219 81.914062 108.316406 82.105469 C 108.46875 82.355469 108.738281 82.375 108.96875 82.28125 C 109.832031 81.914062 110.5625 81.179688 110.871094 80.277344 C 111.175781 79.351562 110.890625 78.386719 110.238281 77.695312 C 109.507812 76.925781 108.46875 76.617188 107.453125 76.5 C 106.300781 76.367188 105.128906 76.386719 103.976562 76.367188 C 99.253906 76.269531 94.511719 76.269531 89.789062 76.25 C 87.117188 76.230469 84.429688 76.210938 81.761719 76.191406 C 81.4375 76.191406 81.242188 76.5 81.300781 76.808594 C 81.667969 78.792969 82.03125 80.796875 82.164062 82.820312 C 82.183594 83.070312 82.375 83.320312 82.644531 83.300781 C 86.082031 82.992188 89.519531 82.78125 92.976562 82.664062 C 96.429688 82.550781 99.867188 82.550781 103.324219 82.644531 C 104.246094 82.664062 105.148438 82.722656 106.070312 82.742188 C 107.011719 82.761719 107.96875 82.703125 108.855469 82.355469 C 109.101562 82.261719 109.257812 82.027344 109.179688 81.757812 C 109.121094 81.507812 108.835938 81.316406 108.605469 81.414062 Z M 108.605469 81.414062 " fill-opacity="1" fill-rule="nonzero"/><path fill="#000000" d="M 107.296875 82.144531 C 107.222656 85.054688 107.144531 87.980469 107.066406 90.890625 C 107.28125 90.738281 107.472656 90.582031 107.683594 90.429688 C 106.78125 90.214844 105.878906 90.0625 104.976562 89.925781 C 105.089844 90.082031 105.207031 90.234375 105.320312 90.390625 C 105.1875 87.652344 105.128906 84.917969 105.128906 82.183594 C 104.976562 82.335938 104.800781 82.511719 104.648438 82.664062 C 105.742188 82.683594 106.820312 82.78125 107.914062 82.585938 C 108.164062 82.550781 108.316406 82.222656 108.238281 81.992188 C 108.164062 81.722656 107.914062 81.605469 107.644531 81.664062 C 106.644531 81.835938 105.628906 81.722656 104.648438 81.703125 C 104.378906 81.703125 104.167969 81.933594 104.167969 82.183594 C 104.148438 84.917969 104.207031 87.652344 104.359375 90.390625 C 104.378906 90.582031 104.496094 90.832031 104.707031 90.851562 C 105.628906 90.96875 106.53125 91.140625 107.414062 91.351562 C 107.722656 91.429688 108.007812 91.21875 108.027344 90.890625 C 108.105469 87.980469 108.183594 85.054688 108.257812 82.144531 C 108.277344 81.527344 107.316406 81.527344 107.296875 82.144531 Z M 107.296875 82.144531 " fill-opacity="1" fill-rule="nonzero"/><g clip-path="url(#33c5e8c92b)"><path fill="#000000" d="M 105.820312 101.390625 C 107.355469 104.222656 108.910156 107.035156 110.503906 109.828125 C 111.292969 111.214844 112.078125 112.582031 112.886719 113.96875 C 113.210938 114.546875 113.539062 115.316406 114.171875 115.625 C 114.921875 115.992188 115.671875 115.546875 116.324219 115.199219 C 117.953125 114.351562 119.585938 113.507812 121.21875 112.660156 C 121.777344 112.371094 121.277344 111.539062 120.738281 111.828125 C 119.355469 112.542969 117.953125 113.273438 116.574219 113.988281 C 116.226562 114.160156 115.902344 114.335938 115.554688 114.527344 C 115.324219 114.640625 115.035156 114.835938 114.769531 114.816406 C 114.539062 114.796875 114.363281 114.546875 114.25 114.371094 C 114.058594 114.066406 113.882812 113.757812 113.710938 113.449219 C 112.175781 110.808594 110.660156 108.152344 109.160156 105.472656 C 108.316406 103.949219 107.492188 102.429688 106.664062 100.90625 C 106.359375 100.347656 105.53125 100.851562 105.820312 101.390625 Z M 105.820312 101.390625 " fill-opacity="1" fill-rule="nonzero"/></g><path fill="#000000" d="M 71.875 61.746094 C 71.066406 61.320312 70.144531 61.707031 69.628906 62.398438 C 69.03125 63.207031 69.1875 64.289062 69.378906 65.210938 C 69.839844 67.371094 70.355469 69.527344 70.855469 71.683594 C 71.144531 72.898438 71.433594 74.113281 71.71875 75.324219 C 71.855469 75.921875 72.796875 75.671875 72.640625 75.074219 C 72.179688 73.128906 71.71875 71.183594 71.277344 69.238281 C 71.046875 68.273438 70.835938 67.3125 70.625 66.328125 C 70.511719 65.847656 70.414062 65.386719 70.300781 64.902344 C 70.203125 64.5 70.144531 64.074219 70.183594 63.632812 C 70.222656 63.265625 70.355469 62.917969 70.664062 62.6875 C 70.894531 62.515625 71.164062 62.4375 71.394531 62.554688 C 71.949219 62.863281 72.429688 62.035156 71.875 61.746094 Z M 71.875 61.746094 " fill-opacity="1" fill-rule="nonzero"/><path fill="#000000" d="M 72.527344 78.503906 C 72.566406 79.738281 72.757812 80.949219 73.101562 82.125 C 73.179688 82.375 73.449219 82.53125 73.699219 82.453125 C 73.949219 82.375 74.101562 82.105469 74.023438 81.855469 C 73.699219 80.757812 73.523438 79.640625 73.488281 78.503906 C 73.488281 78.253906 73.277344 78.023438 73.007812 78.023438 C 72.757812 78.023438 72.507812 78.234375 72.527344 78.503906 Z M 72.527344 78.503906 " fill-opacity="1" fill-rule="nonzero"/><path fill="#000000" d="M 80.570312 96.84375 C 81.511719 95.746094 82.703125 94.898438 84.046875 94.394531 C 85.523438 93.835938 87.136719 93.605469 88.695312 93.394531 C 89.613281 93.261719 90.554688 93.203125 91.496094 93.261719 C 91.746094 93.277344 91.976562 93.027344 91.976562 92.777344 C 91.976562 92.507812 91.765625 92.316406 91.496094 92.296875 C 89.789062 92.179688 88.039062 92.488281 86.351562 92.796875 C 84.757812 93.085938 83.183594 93.546875 81.820312 94.453125 C 81.089844 94.9375 80.4375 95.515625 79.878906 96.167969 C 79.707031 96.359375 79.6875 96.648438 79.878906 96.84375 C 80.054688 97.015625 80.398438 97.035156 80.570312 96.84375 Z M 80.570312 96.84375 " fill-opacity="1" fill-rule="nonzero"/><path fill="#000000" d="M 95.914062 94.050781 C 95.96875 94.03125 96.007812 94.03125 96.066406 94.03125 C 96.085938 94.03125 96.199219 93.992188 96.085938 94.03125 C 96.164062 94.011719 96.257812 94.011719 96.335938 94.011719 C 96.507812 94.011719 96.699219 93.992188 96.855469 94.03125 C 96.738281 93.992188 96.835938 94.03125 96.871094 94.03125 C 96.929688 94.03125 96.96875 94.050781 97.027344 94.050781 C 97.101562 94.070312 97.199219 94.089844 97.277344 94.109375 C 97.351562 94.125 97.449219 94.164062 97.527344 94.183594 C 97.621094 94.222656 97.449219 94.144531 97.542969 94.183594 C 97.582031 94.203125 97.640625 94.222656 97.679688 94.242188 C 97.910156 94.359375 98.21875 94.320312 98.332031 94.070312 C 98.449219 93.855469 98.410156 93.53125 98.160156 93.414062 C 97.390625 93.027344 96.507812 92.914062 95.664062 93.085938 C 95.414062 93.144531 95.261719 93.433594 95.335938 93.683594 C 95.414062 93.972656 95.644531 94.109375 95.914062 94.050781 Z M 95.914062 94.050781 " fill-opacity="1" fill-rule="nonzero"/><path fill="#000000" d="M 86.273438 108.765625 C 85.984375 110.191406 85.871094 111.636719 85.910156 113.101562 C 85.929688 113.71875 86.886719 113.71875 86.871094 113.101562 C 86.832031 111.734375 86.925781 110.367188 87.195312 109.035156 C 87.253906 108.785156 87.117188 108.515625 86.871094 108.441406 C 86.640625 108.363281 86.332031 108.515625 86.273438 108.765625 Z M 86.273438 108.765625 " fill-opacity="1" fill-rule="nonzero"/><path fill="#000000" d="M 86.199219 115.875 C 86.199219 116.144531 86.199219 116.414062 86.199219 116.683594 C 86.199219 116.800781 86.253906 116.933594 86.332031 117.03125 C 86.410156 117.109375 86.542969 117.183594 86.675781 117.164062 C 86.792969 117.164062 86.925781 117.128906 87.023438 117.03125 C 87.101562 116.933594 87.15625 116.820312 87.15625 116.683594 C 87.15625 116.414062 87.15625 116.144531 87.15625 115.875 C 87.15625 115.757812 87.101562 115.625 87.023438 115.527344 C 86.945312 115.453125 86.8125 115.375 86.675781 115.394531 C 86.5625 115.394531 86.429688 115.433594 86.332031 115.527344 C 86.253906 115.625 86.199219 115.742188 86.199219 115.875 Z M 86.199219 115.875 " fill-opacity="1" fill-rule="nonzero"/><path fill="#000000" d="M 87.734375 73.863281 C 91.554688 73.863281 95.375 73.863281 99.195312 73.863281 C 99.808594 73.863281 99.808594 72.898438 99.195312 72.898438 C 95.375 72.898438 91.554688 72.898438 87.734375 72.898438 C 87.117188 72.898438 87.117188 73.863281 87.734375 73.863281 Z M 87.734375 73.863281 " fill-opacity="1" fill-rule="nonzero"/><path fill="#000000" d="M 102.171875 73.863281 C 102.535156 73.863281 102.921875 73.863281 103.285156 73.863281 C 103.402344 73.863281 103.535156 73.804688 103.632812 73.726562 C 103.707031 73.648438 103.785156 73.515625 103.765625 73.378906 C 103.746094 73.109375 103.554688 72.898438 103.285156 72.898438 C 102.921875 72.898438 102.535156 72.898438 102.171875 72.898438 C 102.058594 72.898438 101.921875 72.957031 101.828125 73.03125 C 101.75 73.109375 101.671875 73.246094 101.691406 73.378906 C 101.691406 73.648438 101.902344 73.863281 102.171875 73.863281 Z M 102.171875 73.863281 " fill-opacity="1" fill-rule="nonzero"/></svg>