<svg xmlns="http://www.w3.org/2000/svg" xmlns:xlink="http://www.w3.org/1999/xlink" width="250" zoomAndPan="magnify" viewBox="0 0 187.5 187.499992" height="250" preserveAspectRatio="xMidYMid meet" version="1.0"><defs><clipPath id="eb27299ecf"><path d="M 43.59375 29 L 76 29 L 76 103 L 43.59375 103 Z M 43.59375 29 " clip-rule="nonzero"/></clipPath><clipPath id="dc0f83993a"><path d="M 59 147 L 126 147 L 126 158.949219 L 59 158.949219 Z M 59 147 " clip-rule="nonzero"/></clipPath></defs><g clip-path="url(#eb27299ecf)"><path fill="#000000" d="M 73.363281 87.820312 C 70.875 88.765625 68.792969 90.515625 66.777344 92.203125 C 64.660156 93.988281 62.644531 95.84375 60.695312 97.800781 C 59.585938 98.910156 58.511719 100.023438 57.46875 101.171875 C 57.9375 101.304688 58.410156 101.40625 58.878906 101.539062 C 57.972656 97.527344 57.066406 93.550781 56.191406 89.539062 C 55.285156 85.324219 54.511719 81.113281 53.671875 76.863281 C 51.925781 67.863281 50.144531 58.828125 48.394531 49.828125 C 47.386719 44.738281 46.414062 39.648438 45.40625 34.554688 C 45.40625 34.691406 45.40625 34.859375 45.40625 34.996094 C 46.042969 33.277344 47.523438 31.859375 49.234375 31.152344 C 51.117188 30.375 53.066406 30.613281 54.847656 31.589844 C 56.796875 32.703125 58.375 34.421875 59.886719 36.105469 C 61.464844 37.859375 62.910156 39.746094 64.1875 41.738281 C 66.808594 45.816406 68.722656 50.230469 70.035156 54.917969 C 70.742188 57.480469 71.3125 60.074219 71.816406 62.707031 C 72.320312 65.300781 72.789062 67.898438 73.160156 70.492188 C 74.035156 76.425781 73.933594 82.492188 72.757812 88.394531 C 72.65625 88.832031 72.890625 89.304688 73.328125 89.4375 C 73.730469 89.539062 74.269531 89.304688 74.371094 88.867188 C 75.378906 83.875 75.644531 78.753906 75.210938 73.660156 C 74.972656 71.097656 74.539062 68.570312 74.101562 66.042969 C 73.664062 63.617188 73.226562 61.222656 72.6875 58.828125 C 71.648438 54.144531 70.238281 49.558594 68.050781 45.242188 C 66.035156 41.265625 63.449219 37.558594 60.425781 34.285156 C 57.601562 31.253906 53.90625 28.050781 49.472656 29.265625 C 47.65625 29.804688 45.976562 31.015625 44.800781 32.601562 C 44.53125 32.9375 44.332031 33.308594 44.128906 33.714844 C 44.027344 33.949219 43.925781 34.1875 43.828125 34.386719 C 43.691406 34.757812 43.792969 35.128906 43.859375 35.5 C 44.09375 36.78125 44.363281 38.027344 44.597656 39.308594 C 46.613281 49.523438 48.597656 59.738281 50.613281 69.953125 C 51.621094 75.078125 52.628906 80.203125 53.636719 85.324219 C 54.511719 89.777344 55.519531 94.15625 56.492188 98.574219 C 56.761719 99.71875 56.996094 100.832031 57.265625 101.980469 C 57.402344 102.585938 58.242188 102.820312 58.679688 102.351562 C 60.492188 100.359375 62.375 98.472656 64.324219 96.652344 C 66.203125 94.898438 68.152344 93.148438 70.238281 91.597656 C 71.34375 90.753906 72.554688 89.945312 73.832031 89.4375 C 74.269531 89.269531 74.539062 88.867188 74.402344 88.394531 C 74.300781 87.988281 73.796875 87.652344 73.363281 87.820312 Z M 73.363281 87.820312 " fill-opacity="1" fill-rule="nonzero"/></g><path fill="#000000" d="M 127.359375 99.855469 C 126.652344 102.011719 125.644531 104 124.332031 105.855469 C 124.570312 105.722656 124.804688 105.585938 125.074219 105.453125 C 116.503906 105.316406 107.96875 106.632812 99.402344 106.429688 C 90.800781 106.261719 82.199219 105.890625 73.597656 105.621094 C 68.722656 105.453125 63.851562 105.316406 59.015625 105.148438 C 59.28125 105.351562 59.550781 105.550781 59.820312 105.753906 C 59.519531 104.339844 59.214844 102.921875 58.914062 101.507812 C 58.847656 101.777344 58.777344 102.046875 58.710938 102.316406 C 60.492188 100.359375 62.375 98.472656 64.289062 96.652344 C 66.171875 94.898438 68.121094 93.148438 70.167969 91.597656 C 71.175781 90.855469 72.21875 90.144531 73.328125 89.605469 C 74.46875 89.066406 75.714844 88.730469 76.992188 88.496094 C 79.679688 87.988281 82.46875 87.855469 85.1875 87.753906 C 90.832031 87.515625 96.480469 87.785156 102.125 88.023438 C 107.601562 88.257812 113.144531 88.527344 118.519531 89.875 C 120.90625 90.484375 123.425781 91.226562 125.542969 92.574219 C 126.417969 93.113281 127.222656 93.855469 127.625 94.832031 C 128.03125 95.84375 128.03125 97.023438 127.828125 98.070312 C 127.695312 98.710938 127.527344 99.28125 127.359375 99.855469 C 127.023438 100.898438 128.667969 101.339844 128.96875 100.292969 C 129.777344 97.730469 130.011719 94.832031 128.199219 92.675781 C 127.390625 91.695312 126.28125 91.023438 125.171875 90.484375 C 123.898438 89.84375 122.519531 89.335938 121.175781 88.898438 C 115.363281 87.046875 109.214844 86.675781 103.164062 86.40625 C 96.984375 86.132812 90.800781 85.832031 84.585938 86.101562 C 81.558594 86.234375 78.402344 86.40625 75.445312 87.113281 C 72.65625 87.785156 70.304688 89.304688 68.085938 91.089844 C 65.835938 92.910156 63.683594 94.832031 61.601562 96.855469 C 60.558594 97.867188 59.550781 98.910156 58.542969 99.957031 C 58.074219 100.460938 57.132812 101.136719 57.265625 101.910156 C 57.402344 102.652344 57.601562 103.359375 57.738281 104.101562 C 57.871094 104.777344 58.039062 105.484375 58.175781 106.160156 C 58.242188 106.53125 58.644531 106.765625 58.980469 106.765625 C 68.757812 107.070312 78.535156 107.40625 88.347656 107.710938 C 93.1875 107.878906 98.023438 108.148438 102.863281 108.046875 C 107.703125 107.945312 112.507812 107.507812 117.3125 107.238281 C 118.6875 107.171875 120.066406 107.101562 121.445312 107.070312 C 122.117188 107.070312 122.753906 107.035156 123.425781 107.035156 C 123.761719 107.035156 124.097656 107.035156 124.402344 107.035156 C 124.738281 107.035156 125.171875 107.101562 125.476562 106.933594 C 125.777344 106.765625 125.980469 106.363281 126.148438 106.09375 C 126.316406 105.820312 126.484375 105.550781 126.652344 105.28125 C 126.953125 104.777344 127.257812 104.269531 127.527344 103.730469 C 128.097656 102.621094 128.566406 101.441406 128.96875 100.226562 C 129.308594 99.28125 127.695312 98.84375 127.359375 99.855469 Z M 127.359375 99.855469 " fill-opacity="1" fill-rule="nonzero"/><path fill="#000000" d="M 101.417969 107.304688 C 101.417969 109.191406 101.183594 111.285156 99.671875 112.5625 C 98.160156 113.878906 95.808594 113.40625 94.027344 113.304688 C 91.640625 113.171875 89.289062 113.035156 86.902344 112.902344 C 85.761719 112.835938 84.617188 112.765625 83.476562 112.699219 C 82.535156 112.632812 81.527344 112.664062 80.6875 112.160156 C 78.769531 111.046875 78.503906 108.554688 78.503906 106.5625 C 78.234375 106.832031 77.929688 107.136719 77.664062 107.40625 C 84.046875 107.609375 90.429688 107.8125 96.816406 108.011719 C 98.628906 108.082031 100.445312 108.113281 102.257812 108.082031 C 103.332031 108.082031 103.332031 106.394531 102.257812 106.394531 C 99.097656 106.429688 95.90625 106.292969 92.75 106.191406 C 89.558594 106.09375 86.363281 105.992188 83.171875 105.890625 C 81.324219 105.820312 79.511719 105.789062 77.664062 105.722656 C 77.226562 105.722656 76.820312 106.125 76.820312 106.5625 C 76.855469 108.824219 77.226562 111.316406 78.9375 112.933594 C 79.8125 113.746094 80.820312 114.113281 81.964844 114.285156 C 83.207031 114.453125 84.484375 114.453125 85.726562 114.519531 C 88.3125 114.65625 90.902344 114.789062 93.523438 114.957031 C 95.773438 115.09375 98.425781 115.53125 100.375 114.113281 C 102.527344 112.53125 103.066406 109.832031 103.066406 107.304688 C 103.097656 106.226562 101.417969 106.191406 101.417969 107.304688 Z M 101.417969 107.304688 " fill-opacity="1" fill-rule="nonzero"/><path fill="#000000" d="M 94.058594 140.542969 C 91.472656 139.835938 88.71875 139.871094 86.164062 140.613281 C 86.53125 140.882812 86.867188 141.152344 87.238281 141.421875 C 86.53125 134.242188 86.835938 127.027344 86.96875 119.8125 C 87.003906 117.789062 87.070312 115.765625 87.105469 113.746094 C 86.835938 114.015625 86.53125 114.316406 86.265625 114.585938 C 88.75 114.722656 91.238281 114.855469 93.722656 114.992188 C 93.453125 114.722656 93.152344 114.417969 92.882812 114.148438 C 92.714844 121.226562 92.414062 128.308594 92.648438 135.386719 C 92.714844 137.375 92.816406 139.363281 93.019531 141.355469 C 93.050781 141.792969 93.386719 142.195312 93.859375 142.195312 C 94.292969 142.195312 94.730469 141.824219 94.699219 141.355469 C 94.027344 134.308594 94.292969 127.230469 94.429688 120.183594 C 94.460938 118.160156 94.53125 116.136719 94.5625 114.113281 C 94.5625 113.644531 94.160156 113.304688 93.722656 113.273438 C 91.238281 113.136719 88.75 113.003906 86.265625 112.867188 C 85.792969 112.835938 85.425781 113.273438 85.425781 113.710938 C 85.257812 120.890625 84.953125 128.105469 85.1875 135.320312 C 85.257812 137.34375 85.355469 139.363281 85.558594 141.386719 C 85.625 141.925781 86.0625 142.363281 86.632812 142.195312 C 88.917969 141.523438 91.335938 141.488281 93.65625 142.128906 C 94.664062 142.464844 95.101562 140.816406 94.058594 140.542969 Z M 94.058594 140.542969 " fill-opacity="1" fill-rule="nonzero"/><g clip-path="url(#dc0f83993a)"><path fill="#000000" d="M 125.003906 156.929688 C 117.109375 157.265625 109.179688 157.199219 101.285156 157.0625 C 92.445312 156.894531 83.609375 156.726562 74.773438 156.660156 C 70.136719 156.625 65.5 156.558594 60.863281 156.523438 C 61.128906 156.792969 61.433594 157.097656 61.703125 157.367188 C 61.871094 155.511719 62.675781 153.589844 63.820312 152.140625 C 64.925781 150.726562 66.640625 149.816406 68.1875 149.007812 C 68.050781 149.039062 67.917969 149.074219 67.75 149.109375 C 74.46875 149.242188 81.15625 149.34375 87.875 149.445312 C 94.597656 149.546875 101.351562 149.746094 108.070312 149.78125 C 111.835938 149.816406 115.597656 149.746094 119.359375 149.476562 C 119.226562 149.445312 119.09375 149.410156 118.925781 149.378906 C 119.765625 149.746094 120.503906 150.253906 121.242188 150.792969 C 121.914062 151.296875 122.6875 151.839844 123.15625 152.511719 C 123.660156 153.1875 123.730469 154.027344 123.828125 154.839844 C 123.929688 155.816406 124.097656 156.828125 124.132812 157.804688 C 124.164062 158.242188 124.5 158.648438 124.972656 158.648438 C 125.410156 158.648438 125.847656 158.277344 125.8125 157.804688 C 125.746094 156.523438 125.578125 155.277344 125.410156 154.027344 C 125.242188 152.816406 124.835938 151.738281 123.964844 150.894531 C 123.15625 150.117188 122.25 149.410156 121.308594 148.804688 C 120.839844 148.5 120.335938 148.195312 119.832031 147.996094 C 119.191406 147.726562 118.351562 147.925781 117.679688 147.960938 C 112.472656 148.230469 107.265625 148.164062 102.054688 148.097656 C 91.574219 147.894531 81.054688 147.726562 70.574219 147.558594 C 69.832031 147.558594 69.128906 147.523438 68.386719 147.523438 C 67.984375 147.523438 67.617188 147.488281 67.210938 147.65625 C 66.976562 147.792969 66.742188 147.925781 66.507812 148.0625 C 65.363281 148.703125 64.253906 149.378906 63.28125 150.253906 C 61.367188 152.039062 60.191406 154.871094 59.953125 157.46875 C 59.921875 157.941406 60.359375 158.3125 60.792969 158.3125 C 68.488281 158.378906 76.183594 158.410156 83.84375 158.546875 C 92.917969 158.714844 101.957031 158.917969 111.027344 158.949219 C 115.664062 158.949219 120.300781 158.949219 124.972656 158.75 C 126.082031 158.546875 126.082031 156.859375 125.003906 156.929688 Z M 125.003906 156.929688 " fill-opacity="1" fill-rule="nonzero"/></g><path fill="#000000" d="M 99.90625 147.960938 C 93.085938 147.828125 86.265625 147.726562 79.441406 147.589844 C 79.710938 147.859375 80.015625 148.164062 80.28125 148.433594 C 80.148438 146.816406 81.15625 145.464844 82.332031 144.457031 C 83.644531 143.308594 85.289062 142.535156 86.96875 142.09375 C 88.785156 141.625 90.734375 141.523438 92.546875 141.894531 C 94.226562 142.230469 95.941406 142.835938 97.117188 144.152344 C 98.257812 145.398438 98.832031 147.117188 99.03125 148.769531 C 99.097656 149.207031 99.367188 149.613281 99.871094 149.613281 C 100.277344 149.613281 100.78125 149.242188 100.710938 148.769531 C 100.511719 146.917969 99.972656 145.097656 98.832031 143.613281 C 97.554688 141.925781 95.738281 140.949219 93.722656 140.445312 C 89.523438 139.363281 84.851562 140.273438 81.460938 142.972656 C 79.8125 144.253906 78.367188 146.242188 78.570312 148.433594 C 78.601562 148.90625 78.90625 149.277344 79.410156 149.277344 C 86.230469 149.378906 93.050781 149.511719 99.871094 149.648438 C 100.980469 149.648438 100.980469 147.960938 99.90625 147.960938 Z M 99.90625 147.960938 " fill-opacity="1" fill-rule="nonzero"/><path fill="#000000" d="M 119.933594 72.347656 C 118.621094 72.886719 117.210938 72.988281 115.800781 72.953125 C 114.355469 72.953125 112.941406 72.851562 111.5 72.820312 C 108.507812 72.71875 105.550781 72.683594 102.558594 72.683594 C 96.578125 72.683594 90.597656 72.851562 84.617188 73.191406 C 81.222656 73.390625 77.832031 73.628906 74.46875 73.929688 C 74.738281 74.199219 75.042969 74.503906 75.308594 74.773438 C 75.042969 71.097656 74.402344 67.457031 73.730469 63.816406 C 73.460938 64.1875 73.195312 64.527344 72.925781 64.898438 C 80.820312 64.964844 88.71875 64.996094 96.613281 65.066406 C 100.511719 65.097656 104.410156 65.097656 108.304688 65.167969 C 110.289062 65.199219 112.269531 65.234375 114.253906 65.265625 C 116.066406 65.335938 117.949219 65.265625 119.695312 65.839844 C 121.074219 66.3125 122.484375 67.492188 122.453125 69.078125 C 122.417969 70.628906 121.039062 71.839844 119.730469 72.414062 C 119.328125 72.582031 119.226562 73.222656 119.429688 73.558594 C 119.695312 74 120.167969 74.03125 120.570312 73.863281 C 122.082031 73.222656 123.359375 71.941406 123.898438 70.359375 C 124.433594 68.738281 123.929688 67.054688 122.789062 65.839844 C 121.511719 64.492188 119.695312 63.953125 117.914062 63.75 C 115.898438 63.515625 113.851562 63.546875 111.835938 63.515625 C 103.570312 63.347656 95.269531 63.347656 87.003906 63.3125 C 82.332031 63.277344 77.628906 63.246094 72.957031 63.210938 C 72.386719 63.210938 72.050781 63.75 72.152344 64.289062 C 72.789062 67.761719 73.429688 71.269531 73.664062 74.808594 C 73.699219 75.246094 74.035156 75.683594 74.503906 75.652344 C 80.519531 75.109375 86.53125 74.742188 92.582031 74.539062 C 98.628906 74.335938 104.644531 74.335938 110.691406 74.503906 C 112.304688 74.539062 113.882812 74.640625 115.496094 74.671875 C 117.144531 74.707031 118.824219 74.605469 120.367188 74 C 120.804688 73.832031 121.074219 73.425781 120.941406 72.953125 C 120.839844 72.515625 120.335938 72.179688 119.933594 72.347656 Z M 119.933594 72.347656 " fill-opacity="1" fill-rule="nonzero"/><path fill="#000000" d="M 117.648438 73.628906 C 117.511719 78.71875 117.378906 83.84375 117.242188 88.933594 C 117.613281 88.664062 117.949219 88.394531 118.320312 88.125 C 116.738281 87.753906 115.160156 87.484375 113.582031 87.246094 C 113.78125 87.515625 113.984375 87.785156 114.1875 88.054688 C 113.949219 83.269531 113.851562 78.480469 113.851562 73.695312 C 113.582031 73.964844 113.277344 74.269531 113.011719 74.539062 C 114.925781 74.570312 116.808594 74.742188 118.722656 74.402344 C 119.160156 74.335938 119.429688 73.761719 119.292969 73.359375 C 119.160156 72.886719 118.722656 72.683594 118.253906 72.785156 C 116.503906 73.089844 114.722656 72.886719 113.011719 72.851562 C 112.539062 72.851562 112.171875 73.257812 112.171875 73.695312 C 112.136719 78.480469 112.238281 83.269531 112.507812 88.054688 C 112.539062 88.394531 112.742188 88.832031 113.109375 88.867188 C 114.722656 89.066406 116.304688 89.371094 117.847656 89.742188 C 118.386719 89.875 118.890625 89.507812 118.925781 88.933594 C 119.058594 83.84375 119.191406 78.71875 119.328125 73.628906 C 119.359375 72.550781 117.679688 72.550781 117.648438 73.628906 Z M 117.648438 73.628906 " fill-opacity="1" fill-rule="nonzero"/><path fill="#000000" d="M 115.058594 107.304688 C 117.746094 112.261719 120.46875 117.183594 123.257812 122.070312 C 124.636719 124.5 126.015625 126.890625 127.425781 129.320312 C 127.996094 130.332031 128.566406 131.679688 129.675781 132.21875 C 130.988281 132.859375 132.296875 132.082031 133.441406 131.476562 C 136.296875 129.992188 139.152344 128.511719 142.007812 127.027344 C 142.980469 126.519531 142.109375 125.070312 141.167969 125.578125 C 138.75 126.824219 136.296875 128.105469 133.875 129.351562 C 133.273438 129.65625 132.699219 129.960938 132.09375 130.296875 C 131.691406 130.5 131.1875 130.835938 130.71875 130.800781 C 130.316406 130.769531 130.011719 130.332031 129.8125 130.027344 C 129.476562 129.488281 129.171875 128.949219 128.871094 128.410156 C 126.183594 123.789062 123.527344 119.136719 120.90625 114.453125 C 119.429688 111.789062 117.984375 109.125 116.539062 106.460938 C 116 105.484375 114.554688 106.363281 115.058594 107.304688 Z M 115.058594 107.304688 " fill-opacity="1" fill-rule="nonzero"/><path fill="#000000" d="M 55.652344 37.925781 C 54.242188 37.1875 52.628906 37.859375 51.722656 39.074219 C 50.679688 40.488281 50.949219 42.378906 51.285156 43.996094 C 52.09375 47.769531 53 51.546875 53.871094 55.324219 C 54.378906 57.445312 54.882812 59.570312 55.386719 61.695312 C 55.621094 62.738281 57.265625 62.300781 56.996094 61.253906 C 56.191406 57.851562 55.386719 54.445312 54.613281 51.042969 C 54.207031 49.355469 53.839844 47.671875 53.46875 45.949219 C 53.269531 45.109375 53.101562 44.300781 52.898438 43.457031 C 52.730469 42.75 52.628906 42.007812 52.695312 41.230469 C 52.765625 40.589844 53 39.984375 53.535156 39.578125 C 53.941406 39.277344 54.410156 39.140625 54.8125 39.34375 C 55.789062 39.882812 56.628906 38.433594 55.652344 37.925781 Z M 55.652344 37.925781 " fill-opacity="1" fill-rule="nonzero"/><path fill="#000000" d="M 56.796875 67.257812 C 56.863281 69.414062 57.199219 71.539062 57.804688 73.59375 C 57.9375 74.03125 58.410156 74.300781 58.847656 74.167969 C 59.28125 74.03125 59.550781 73.558594 59.417969 73.121094 C 58.847656 71.199219 58.542969 69.246094 58.476562 67.257812 C 58.476562 66.816406 58.105469 66.414062 57.636719 66.414062 C 57.199219 66.414062 56.761719 66.785156 56.796875 67.257812 Z M 56.796875 67.257812 " fill-opacity="1" fill-rule="nonzero"/><path fill="#000000" d="M 70.875 99.347656 C 72.519531 97.429688 74.605469 95.945312 76.957031 95.066406 C 79.542969 94.089844 82.367188 93.6875 85.089844 93.316406 C 86.699219 93.078125 88.347656 92.976562 89.992188 93.078125 C 90.429688 93.113281 90.832031 92.675781 90.832031 92.238281 C 90.832031 91.765625 90.464844 91.425781 89.992188 91.394531 C 87.003906 91.191406 83.945312 91.730469 80.988281 92.269531 C 78.199219 92.777344 75.445312 93.585938 73.058594 95.167969 C 71.78125 96.011719 70.640625 97.023438 69.664062 98.167969 C 69.363281 98.507812 69.328125 99.011719 69.664062 99.347656 C 69.96875 99.652344 70.574219 99.6875 70.875 99.347656 Z M 70.875 99.347656 " fill-opacity="1" fill-rule="nonzero"/><path fill="#000000" d="M 97.722656 94.460938 C 97.824219 94.425781 97.890625 94.425781 97.992188 94.425781 C 98.023438 94.425781 98.226562 94.359375 98.023438 94.425781 C 98.160156 94.394531 98.328125 94.394531 98.460938 94.394531 C 98.761719 94.394531 99.097656 94.359375 99.367188 94.425781 C 99.167969 94.359375 99.335938 94.425781 99.402344 94.425781 C 99.503906 94.425781 99.570312 94.460938 99.671875 94.460938 C 99.804688 94.496094 99.972656 94.527344 100.109375 94.5625 C 100.242188 94.597656 100.410156 94.664062 100.542969 94.699219 C 100.710938 94.765625 100.410156 94.628906 100.578125 94.699219 C 100.644531 94.730469 100.746094 94.765625 100.8125 94.796875 C 101.214844 95 101.753906 94.933594 101.957031 94.496094 C 102.15625 94.125 102.089844 93.550781 101.652344 93.347656 C 100.308594 92.675781 98.761719 92.472656 97.285156 92.777344 C 96.847656 92.878906 96.578125 93.382812 96.714844 93.820312 C 96.847656 94.328125 97.25 94.5625 97.722656 94.460938 Z M 97.722656 94.460938 " fill-opacity="1" fill-rule="nonzero"/><path fill="#000000" d="M 80.855469 120.21875 C 80.351562 122.710938 80.148438 125.238281 80.214844 127.800781 C 80.25 128.878906 81.929688 128.878906 81.894531 127.800781 C 81.828125 125.410156 81.996094 123.015625 82.46875 120.6875 C 82.566406 120.25 82.332031 119.777344 81.894531 119.644531 C 81.492188 119.507812 80.957031 119.777344 80.855469 120.21875 Z M 80.855469 120.21875 " fill-opacity="1" fill-rule="nonzero"/><path fill="#000000" d="M 80.71875 132.65625 C 80.71875 133.128906 80.71875 133.601562 80.71875 134.070312 C 80.71875 134.273438 80.820312 134.511719 80.957031 134.679688 C 81.089844 134.8125 81.324219 134.949219 81.558594 134.914062 C 81.761719 134.914062 81.996094 134.847656 82.164062 134.679688 C 82.300781 134.511719 82.398438 134.308594 82.398438 134.070312 C 82.398438 133.601562 82.398438 133.128906 82.398438 132.65625 C 82.398438 132.453125 82.300781 132.21875 82.164062 132.050781 C 82.03125 131.914062 81.796875 131.78125 81.558594 131.8125 C 81.359375 131.8125 81.125 131.882812 80.957031 132.050781 C 80.820312 132.21875 80.71875 132.421875 80.71875 132.65625 Z M 80.71875 132.65625 " fill-opacity="1" fill-rule="nonzero"/><path fill="#000000" d="M 83.40625 59.132812 C 90.09375 59.132812 96.78125 59.132812 103.46875 59.132812 C 104.542969 59.132812 104.542969 57.445312 103.46875 57.445312 C 96.78125 57.445312 90.09375 57.445312 83.40625 57.445312 C 82.332031 57.445312 82.332031 59.132812 83.40625 59.132812 Z M 83.40625 59.132812 " fill-opacity="1" fill-rule="nonzero"/><path fill="#000000" d="M 108.675781 59.132812 C 109.3125 59.132812 109.984375 59.132812 110.625 59.132812 C 110.828125 59.132812 111.0625 59.03125 111.230469 58.894531 C 111.363281 58.761719 111.5 58.523438 111.464844 58.289062 C 111.429688 57.816406 111.09375 57.445312 110.625 57.445312 C 109.984375 57.445312 109.3125 57.445312 108.675781 57.445312 C 108.472656 57.445312 108.238281 57.546875 108.070312 57.683594 C 107.9375 57.816406 107.800781 58.054688 107.835938 58.289062 C 107.835938 58.761719 108.207031 59.132812 108.675781 59.132812 Z M 108.675781 59.132812 " fill-opacity="1" fill-rule="nonzero"/></svg>