<svg xmlns="http://www.w3.org/2000/svg" xmlns:xlink="http://www.w3.org/1999/xlink" width="250" zoomAndPan="magnify" viewBox="0 0 187.5 187.499992" height="250" preserveAspectRatio="xMidYMid meet" version="1.0"><defs><clipPath id="a5d98cf40e"><path d="M 28.050781 66.175781 L 158.949219 66.175781 L 158.949219 88 L 28.050781 88 Z M 28.050781 66.175781 " clip-rule="nonzero"/></clipPath><clipPath id="9bd68c0e13"><path d="M 36 91 L 151 91 L 151 120.78125 L 36 120.78125 Z M 36 91 " clip-rule="nonzero"/></clipPath></defs><g clip-path="url(#a5d98cf40e)"><path fill="#231f20" d="M 158.9375 82.207031 C 158.9375 82.207031 158.949219 82.351562 158.9375 82.628906 C 158.921875 82.90625 158.875 83.328125 158.695312 83.847656 C 158.519531 84.363281 158.203125 84.988281 157.640625 85.578125 C 157.085938 86.171875 156.277344 86.691406 155.289062 87.035156 C 154.300781 87.378906 153.152344 87.585938 151.90625 87.621094 C 151.589844 87.644531 151.277344 87.621094 150.953125 87.621094 C 150.628906 87.617188 150.296875 87.613281 149.964844 87.574219 C 149.632812 87.542969 149.292969 87.515625 148.949219 87.484375 C 148.605469 87.441406 148.257812 87.382812 147.90625 87.332031 C 146.492188 87.128906 145.015625 86.777344 143.472656 86.375 C 142.707031 86.160156 141.925781 85.914062 141.128906 85.667969 C 140.339844 85.394531 139.535156 85.113281 138.710938 84.828125 C 135.433594 83.636719 131.980469 82.121094 128.417969 80.363281 C 124.851562 78.601562 121.152344 76.636719 117.414062 74.457031 C 116.941406 74.183594 116.464844 73.910156 115.988281 73.636719 C 115.523438 73.355469 115.058594 73.074219 114.589844 72.792969 C 114.136719 72.539062 113.679688 72.285156 113.222656 72.03125 C 112.75 71.796875 112.285156 71.542969 111.804688 71.320312 C 109.902344 70.425781 107.902344 69.699219 105.929688 69.492188 C 104.945312 69.390625 103.980469 69.4375 103.058594 69.652344 C 102.136719 69.855469 101.257812 70.257812 100.371094 70.773438 C 99.484375 71.304688 98.605469 71.972656 97.554688 72.652344 C 97.023438 72.988281 96.433594 73.324219 95.753906 73.589844 C 95.074219 73.855469 94.292969 74.035156 93.496094 74.035156 L 93.1875 74.019531 L 92.972656 74.011719 C 92.921875 74.011719 92.785156 73.992188 92.679688 73.976562 L 92.347656 73.921875 C 92.113281 73.886719 91.960938 73.828125 91.769531 73.777344 C 91.582031 73.726562 91.410156 73.664062 91.242188 73.59375 C 90.5625 73.332031 89.96875 72.992188 89.441406 72.65625 C 88.386719 71.976562 87.511719 71.304688 86.621094 70.78125 C 85.738281 70.261719 84.859375 69.863281 83.933594 69.660156 C 83.015625 69.445312 82.050781 69.398438 81.066406 69.5 C 79.09375 69.707031 77.09375 70.433594 75.1875 71.324219 C 74.710938 71.546875 74.242188 71.800781 73.769531 72.035156 C 73.308594 72.296875 72.84375 72.554688 72.386719 72.8125 C 71.929688 73.085938 71.476562 73.359375 71.027344 73.632812 C 70.542969 73.910156 70.058594 74.1875 69.578125 74.464844 C 68.640625 75 67.714844 75.53125 66.796875 76.054688 C 65.859375 76.566406 64.933594 77.074219 64.019531 77.574219 C 63.105469 78.082031 62.179688 78.539062 61.277344 79.011719 C 60.828125 79.246094 60.375 79.480469 59.929688 79.710938 C 59.476562 79.933594 59.027344 80.152344 58.582031 80.371094 C 55.015625 82.128906 51.5625 83.644531 48.289062 84.835938 C 47.464844 85.121094 46.65625 85.402344 45.871094 85.675781 C 45.070312 85.917969 44.292969 86.164062 43.527344 86.378906 C 41.980469 86.78125 40.507812 87.132812 39.09375 87.339844 C 38.738281 87.390625 38.390625 87.449219 38.050781 87.488281 C 37.703125 87.519531 37.367188 87.550781 37.03125 87.578125 C 36.699219 87.617188 36.371094 87.621094 36.042969 87.625 C 35.71875 87.625 35.40625 87.648438 35.09375 87.625 C 33.847656 87.589844 32.695312 87.382812 31.710938 87.039062 C 30.722656 86.695312 29.910156 86.171875 29.355469 85.578125 C 28.792969 84.988281 28.480469 84.363281 28.300781 83.847656 C 28.125 83.328125 28.074219 82.90625 28.0625 82.628906 C 28.046875 82.347656 28.0625 82.207031 28.0625 82.207031 C 28.0625 82.207031 28.0625 82.351562 28.109375 82.625 C 28.15625 82.894531 28.253906 83.296875 28.472656 83.777344 C 28.695312 84.253906 29.054688 84.8125 29.625 85.296875 C 30.191406 85.785156 30.96875 86.191406 31.902344 86.429688 C 32.835938 86.664062 33.914062 86.765625 35.089844 86.695312 C 36.261719 86.605469 37.53125 86.460938 38.867188 86.132812 C 41.539062 85.519531 44.480469 84.464844 47.609375 83.121094 C 48.386719 82.773438 49.175781 82.414062 49.988281 82.050781 C 50.785156 81.664062 51.597656 81.269531 52.425781 80.867188 C 54.066406 80.03125 55.761719 79.175781 57.476562 78.222656 C 57.90625 77.988281 58.339844 77.753906 58.773438 77.519531 C 59.207031 77.273438 59.644531 77.027344 60.078125 76.777344 C 60.949219 76.277344 61.847656 75.792969 62.722656 75.261719 C 63.605469 74.742188 64.5 74.210938 65.402344 73.679688 C 66.304688 73.128906 67.214844 72.574219 68.132812 72.015625 C 68.574219 71.742188 69.019531 71.46875 69.46875 71.195312 C 69.9375 70.894531 70.410156 70.59375 70.882812 70.289062 C 71.371094 70.003906 71.863281 69.71875 72.351562 69.429688 C 72.859375 69.164062 73.359375 68.882812 73.878906 68.625 C 74.40625 68.375 74.921875 68.109375 75.46875 67.890625 C 75.746094 67.777344 76.011719 67.652344 76.289062 67.546875 L 77.136719 67.242188 C 78.277344 66.859375 79.476562 66.546875 80.738281 66.402344 C 82 66.257812 83.332031 66.292969 84.632812 66.578125 C 85.941406 66.847656 87.167969 67.40625 88.25 68.042969 C 89.332031 68.683594 90.28125 69.398438 91.15625 69.957031 C 91.597656 70.234375 92.011719 70.457031 92.402344 70.605469 C 92.496094 70.648438 92.59375 70.683594 92.6875 70.703125 C 92.773438 70.726562 92.890625 70.769531 92.9375 70.769531 C 92.96875 70.773438 93.003906 70.78125 93.035156 70.789062 C 93.070312 70.796875 93.074219 70.808594 93.164062 70.8125 L 93.382812 70.824219 L 93.488281 70.828125 L 93.542969 70.832031 C 93.519531 70.832031 93.671875 70.839844 93.503906 70.832031 C 93.859375 70.828125 94.214844 70.757812 94.605469 70.605469 C 94.996094 70.457031 95.410156 70.234375 95.847656 69.957031 C 96.722656 69.398438 97.675781 68.683594 98.753906 68.042969 C 99.300781 67.726562 99.871094 67.421875 100.480469 67.171875 C 101.085938 66.925781 101.722656 66.714844 102.371094 66.578125 C 103.671875 66.292969 105.003906 66.257812 106.265625 66.402344 C 107.527344 66.546875 108.726562 66.859375 109.867188 67.242188 L 110.710938 67.550781 C 110.988281 67.65625 111.257812 67.777344 111.53125 67.890625 C 112.082031 68.109375 112.597656 68.378906 113.121094 68.628906 C 113.640625 68.882812 114.140625 69.164062 114.648438 69.433594 C 115.144531 69.726562 115.644531 70.015625 116.136719 70.304688 C 116.59375 70.601562 117.054688 70.894531 117.511719 71.183594 C 117.964844 71.464844 118.417969 71.742188 118.871094 72.019531 C 122.507812 74.277344 126.085938 76.347656 129.523438 78.226562 C 131.234375 79.175781 132.933594 80.035156 134.574219 80.871094 C 135.402344 81.273438 136.214844 81.667969 137.011719 82.054688 C 137.820312 82.417969 138.613281 82.773438 139.390625 83.125 C 142.519531 84.46875 145.460938 85.523438 148.136719 86.132812 C 149.46875 86.464844 150.742188 86.609375 151.914062 86.695312 C 153.089844 86.765625 154.167969 86.664062 155.101562 86.429688 C 156.035156 86.191406 156.8125 85.785156 157.378906 85.296875 C 157.953125 84.8125 158.308594 84.253906 158.53125 83.777344 C 158.75 83.296875 158.847656 82.894531 158.894531 82.625 C 158.9375 82.351562 158.9375 82.207031 158.9375 82.207031 Z M 158.9375 82.207031 " fill-opacity="1" fill-rule="nonzero"/></g><g clip-path="url(#9bd68c0e13)"><path fill="#231f20" d="M 150.894531 91.492188 C 150.894531 91.492188 150.453125 91.742188 149.621094 92.214844 C 149.214844 92.464844 148.71875 92.769531 148.128906 93.132812 C 147.550781 93.515625 146.878906 93.929688 146.148438 94.433594 C 144.671875 95.417969 142.921875 96.675781 140.933594 98.144531 C 138.949219 99.617188 136.746094 101.324219 134.347656 103.199219 C 131.957031 105.078125 129.394531 107.15625 126.683594 109.351562 C 126.511719 109.488281 126.34375 109.628906 126.171875 109.765625 C 125.988281 109.910156 125.808594 110.050781 125.625 110.191406 C 125.273438 110.460938 124.917969 110.730469 124.5625 111.003906 C 123.875 111.558594 123.066406 112.082031 122.289062 112.621094 C 120.714844 113.699219 119.050781 114.648438 117.304688 115.558594 C 116.875 115.796875 116.417969 115.984375 115.972656 116.199219 C 115.523438 116.40625 115.078125 116.632812 114.617188 116.824219 C 114.152344 117.007812 113.6875 117.195312 113.21875 117.386719 C 112.984375 117.476562 112.753906 117.578125 112.515625 117.664062 L 111.800781 117.910156 C 109.894531 118.609375 107.902344 119.125 105.882812 119.5625 C 101.832031 120.417969 97.625 120.699219 93.503906 120.695312 L 91.964844 120.683594 L 90.402344 120.648438 C 89.363281 120.605469 88.328125 120.558594 87.289062 120.46875 C 85.210938 120.300781 83.144531 120.007812 81.117188 119.585938 C 79.097656 119.140625 77.105469 118.613281 75.199219 117.90625 C 74.71875 117.75 74.25 117.558594 73.785156 117.367188 C 73.316406 117.179688 72.851562 116.988281 72.390625 116.804688 C 71.9375 116.59375 71.484375 116.382812 71.035156 116.175781 C 70.585938 115.964844 70.136719 115.761719 69.710938 115.523438 C 68.847656 115.054688 67.972656 114.628906 67.15625 114.117188 C 66.746094 113.871094 66.335938 113.625 65.925781 113.378906 C 65.515625 113.144531 65.136719 112.859375 64.742188 112.601562 C 63.964844 112.078125 63.183594 111.570312 62.460938 111.007812 C 61.738281 110.457031 60.988281 109.921875 60.316406 109.375 C 57.582031 107.199219 55 105.148438 52.613281 103.25 C 51.410156 102.316406 50.257812 101.421875 49.164062 100.570312 C 48.070312 99.71875 47.023438 98.921875 46.035156 98.179688 C 44.050781 96.707031 42.308594 95.441406 40.835938 94.445312 C 40.105469 93.941406 39.433594 93.523438 38.859375 93.140625 C 38.277344 92.769531 37.773438 92.46875 37.367188 92.21875 C 36.539062 91.742188 36.097656 91.492188 36.097656 91.492188 C 36.097656 91.492188 36.566406 91.6875 37.453125 92.054688 C 37.886719 92.253906 38.421875 92.5 39.050781 92.800781 C 39.667969 93.113281 40.386719 93.464844 41.167969 93.898438 C 42.742188 94.75 44.628906 95.832031 46.730469 97.167969 C 47.78125 97.828125 48.898438 98.542969 50.066406 99.308594 C 51.234375 100.074219 52.441406 100.902344 53.703125 101.765625 C 54.960938 102.640625 56.265625 103.550781 57.621094 104.488281 C 58.960938 105.441406 60.347656 106.429688 61.769531 107.445312 C 61.949219 107.570312 62.128906 107.699219 62.308594 107.828125 C 62.484375 107.949219 62.664062 108.074219 62.84375 108.195312 C 63.199219 108.441406 63.5625 108.6875 63.921875 108.9375 C 64.636719 109.449219 65.402344 109.898438 66.164062 110.371094 C 66.917969 110.855469 67.71875 111.277344 68.511719 111.722656 C 69.300781 112.183594 70.140625 112.558594 70.96875 112.972656 C 74.304688 114.589844 77.949219 115.769531 81.738281 116.539062 C 83.632812 116.910156 85.578125 117.140625 87.539062 117.300781 C 88.519531 117.378906 89.511719 117.421875 90.5 117.457031 L 91.988281 117.484375 L 93.503906 117.492188 C 97.511719 117.511719 101.460938 117.25 105.269531 116.519531 C 109.070312 115.773438 112.714844 114.589844 116.058594 113.011719 C 117.722656 112.214844 119.34375 111.34375 120.84375 110.414062 C 121.589844 109.941406 122.332031 109.511719 123.066406 108.96875 C 123.433594 108.710938 123.800781 108.457031 124.160156 108.203125 C 124.332031 108.082031 124.507812 107.960938 124.675781 107.84375 C 124.855469 107.710938 125.03125 107.582031 125.210938 107.453125 C 126.621094 106.417969 128 105.414062 129.34375 104.457031 C 130.691406 103.507812 131.996094 102.59375 133.257812 101.726562 C 134.519531 100.859375 135.730469 100.027344 136.898438 99.269531 C 138.070312 98.507812 139.1875 97.796875 140.242188 97.136719 C 142.351562 95.8125 144.242188 94.738281 145.816406 93.894531 C 146.597656 93.460938 147.320312 93.109375 147.941406 92.800781 C 148.566406 92.5 149.105469 92.257812 149.539062 92.054688 C 150.425781 91.6875 150.894531 91.492188 150.894531 91.492188 Z M 150.894531 91.492188 " fill-opacity="1" fill-rule="nonzero"/></g><path fill="#231f20" d="M 150.894531 89.046875 C 150.894531 89.046875 150.453125 89.144531 149.621094 89.324219 C 148.785156 89.496094 147.570312 89.769531 146.011719 90.078125 C 145.234375 90.234375 144.375 90.410156 143.4375 90.597656 C 142.96875 90.6875 142.480469 90.785156 141.972656 90.886719 C 141.46875 90.988281 140.9375 91.070312 140.390625 91.152344 C 138.203125 91.492188 135.730469 91.875 133.023438 92.261719 C 132.851562 92.289062 132.683594 92.3125 132.511719 92.335938 C 132.339844 92.355469 132.171875 92.375 131.996094 92.394531 C 131.648438 92.429688 131.300781 92.46875 130.949219 92.507812 C 130.242188 92.582031 129.523438 92.660156 128.792969 92.738281 C 127.328125 92.890625 125.816406 93.050781 124.257812 93.195312 C 122.699219 93.300781 121.09375 93.410156 119.453125 93.519531 C 118.632812 93.566406 117.804688 93.644531 116.96875 93.660156 C 116.128906 93.691406 115.28125 93.71875 114.429688 93.75 C 113.574219 93.777344 112.714844 93.804688 111.847656 93.835938 C 110.980469 93.851562 110.105469 93.847656 109.226562 93.855469 C 108.347656 93.859375 107.464844 93.863281 106.574219 93.867188 C 105.6875 93.855469 104.796875 93.84375 103.902344 93.832031 C 103.460938 93.824219 103.019531 93.820312 102.578125 93.8125 L 101.917969 93.804688 L 101.589844 93.796875 L 101.425781 93.796875 C 101.359375 93.796875 101.472656 93.796875 101.445312 93.796875 L 101.40625 93.796875 L 101.320312 93.800781 L 100.816406 93.824219 L 100.695312 93.84375 C 100.53125 93.867188 100.382812 93.875 100.1875 93.917969 C 100.003906 93.953125 99.820312 93.984375 99.636719 94.035156 C 99.453125 94.078125 99.265625 94.132812 99.078125 94.191406 C 98.332031 94.421875 97.574219 94.761719 96.726562 95.132812 C 96.296875 95.320312 95.855469 95.515625 95.328125 95.6875 C 95.207031 95.730469 95.066406 95.773438 94.925781 95.8125 C 94.78125 95.847656 94.648438 95.890625 94.488281 95.917969 C 94.332031 95.945312 94.183594 95.976562 94.015625 95.992188 L 93.757812 96.011719 L 93.628906 96.019531 L 93.5625 96.023438 C 93.5 96.023438 93.621094 96.027344 93.398438 96.023438 L 93.0625 96 L 93.019531 95.996094 L 92.953125 95.988281 L 92.8125 95.96875 L 92.539062 95.921875 C 92.335938 95.890625 92.222656 95.851562 92.074219 95.8125 C 91.929688 95.773438 91.792969 95.734375 91.667969 95.691406 C 91.144531 95.515625 90.703125 95.320312 90.273438 95.136719 C 89.425781 94.761719 88.667969 94.421875 87.921875 94.195312 C 87.175781 93.960938 86.445312 93.828125 85.714844 93.808594 L 85.59375 93.800781 L 85.425781 93.800781 L 85.089844 93.808594 L 84.417969 93.816406 C 83.972656 93.824219 83.523438 93.828125 83.078125 93.835938 C 82.191406 93.847656 81.304688 93.859375 80.421875 93.875 C 79.535156 93.871094 78.648438 93.867188 77.773438 93.863281 C 76.890625 93.851562 76.019531 93.855469 75.152344 93.839844 C 74.28125 93.8125 73.421875 93.785156 72.570312 93.757812 C 70.859375 93.695312 69.183594 93.65625 67.542969 93.527344 C 65.902344 93.414062 64.300781 93.308594 62.738281 93.203125 C 59.625 92.898438 56.683594 92.601562 53.976562 92.273438 C 51.273438 91.882812 48.800781 91.5 46.617188 91.164062 C 46.066406 91.082031 45.539062 91 45.03125 90.894531 C 44.523438 90.796875 44.035156 90.699219 43.566406 90.601562 C 42.625 90.414062 41.761719 90.238281 40.984375 90.082031 C 39.425781 89.773438 38.207031 89.5 37.375 89.328125 C 36.546875 89.148438 36.101562 89.050781 36.101562 89.050781 C 36.101562 89.050781 36.554688 89.082031 37.40625 89.144531 C 38.253906 89.21875 39.5 89.300781 41.078125 89.449219 C 41.867188 89.519531 42.738281 89.597656 43.691406 89.683594 C 44.640625 89.753906 45.664062 89.894531 46.765625 89.941406 C 48.96875 90.074219 51.449219 90.226562 54.148438 90.417969 C 55.5 90.5 56.910156 90.535156 58.367188 90.601562 C 59.824219 90.65625 61.328125 90.742188 62.875 90.792969 C 64.425781 90.820312 66.015625 90.847656 67.640625 90.878906 C 68.046875 90.886719 68.457031 90.894531 68.867188 90.902344 C 69.277344 90.914062 69.691406 90.921875 70.105469 90.917969 C 70.933594 90.917969 71.769531 90.914062 72.613281 90.910156 C 73.457031 90.910156 74.308594 90.910156 75.164062 90.90625 C 76.023438 90.902344 76.886719 90.875 77.753906 90.863281 C 78.621094 90.84375 79.496094 90.824219 80.371094 90.804688 C 81.257812 90.777344 82.144531 90.75 83.039062 90.722656 C 83.484375 90.710938 83.929688 90.695312 84.378906 90.683594 L 85.050781 90.664062 L 85.386719 90.65625 L 85.554688 90.648438 L 85.621094 90.648438 L 85.671875 90.652344 L 85.769531 90.65625 C 86.835938 90.660156 87.890625 90.855469 88.867188 91.15625 C 89.84375 91.453125 90.742188 91.855469 91.550781 92.207031 C 91.953125 92.378906 92.34375 92.546875 92.675781 92.648438 C 92.765625 92.683594 92.847656 92.703125 92.921875 92.722656 C 92.996094 92.742188 93.097656 92.773438 93.117188 92.769531 C 93.136719 92.773438 93.160156 92.777344 93.175781 92.785156 L 93.207031 92.796875 C 93.210938 92.796875 93.214844 92.796875 93.222656 92.800781 L 93.265625 92.804688 L 93.605469 92.824219 C 93.414062 92.820312 93.5625 92.824219 93.527344 92.820312 L 93.546875 92.820312 L 93.589844 92.816406 L 93.671875 92.8125 C 93.726562 92.808594 93.800781 92.789062 93.863281 92.78125 C 93.929688 92.773438 94.011719 92.746094 94.085938 92.726562 C 94.164062 92.707031 94.242188 92.6875 94.332031 92.652344 C 94.667969 92.546875 95.058594 92.382812 95.457031 92.210938 C 96.265625 91.859375 97.164062 91.457031 98.140625 91.160156 C 98.382812 91.085938 98.628906 91.011719 98.886719 90.957031 C 99.136719 90.890625 99.394531 90.84375 99.65625 90.800781 C 99.902344 90.75 100.203125 90.726562 100.488281 90.695312 L 100.699219 90.675781 L 100.867188 90.671875 L 101.207031 90.660156 L 101.433594 90.65625 L 101.605469 90.660156 L 101.949219 90.671875 L 102.632812 90.691406 C 103.085938 90.703125 103.539062 90.71875 103.988281 90.730469 C 104.875 90.757812 105.757812 90.785156 106.636719 90.8125 C 107.515625 90.832031 108.386719 90.851562 109.253906 90.871094 C 110.121094 90.886719 110.984375 90.910156 111.84375 90.917969 C 112.699219 90.917969 113.550781 90.917969 114.394531 90.917969 C 115.238281 90.921875 116.074219 90.921875 116.902344 90.925781 C 117.316406 90.929688 117.730469 90.921875 118.140625 90.914062 C 118.550781 90.902344 118.960938 90.898438 119.367188 90.890625 C 120.992188 90.859375 122.582031 90.828125 124.132812 90.800781 C 125.679688 90.75 127.183594 90.664062 128.640625 90.613281 C 130.097656 90.546875 131.511719 90.511719 132.859375 90.429688 C 135.554688 90.234375 138.03125 90.085938 140.230469 89.953125 C 141.332031 89.902344 142.359375 89.761719 143.3125 89.691406 C 144.265625 89.605469 145.140625 89.527344 145.929688 89.457031 C 147.507812 89.308594 148.753906 89.222656 149.601562 89.148438 C 150.445312 89.082031 150.894531 89.046875 150.894531 89.046875 Z M 150.894531 89.046875 " fill-opacity="1" fill-rule="nonzero"/></svg>