<svg xmlns="http://www.w3.org/2000/svg" xmlns:xlink="http://www.w3.org/1999/xlink" width="125" zoomAndPan="magnify" viewBox="0 0 94.079994 101.04" height="125" preserveAspectRatio="xMidYMid meet" version="1.0"><defs><clipPath id="20b4efc514"><path d="M 27.851562 38.683594 L 64.988281 38.683594 L 64.988281 45 L 27.851562 45 Z M 27.851562 38.683594 " clip-rule="nonzero"/></clipPath><clipPath id="58598edd11"><path d="M 30 45 L 63 45 L 63 54.28125 L 30 54.28125 Z M 30 45 " clip-rule="nonzero"/></clipPath></defs><g clip-path="url(#20b4efc514)"><path fill="#231f20" d="M 64.984375 43.261719 C 64.984375 43.261719 64.988281 43.304688 64.984375 43.382812 C 64.980469 43.460938 64.96875 43.582031 64.917969 43.730469 C 64.867188 43.878906 64.777344 44.054688 64.617188 44.226562 C 64.460938 44.394531 64.230469 44.542969 63.949219 44.640625 C 63.671875 44.738281 63.34375 44.800781 62.992188 44.808594 C 62.902344 44.816406 62.8125 44.808594 62.71875 44.808594 C 62.628906 44.808594 62.535156 44.804688 62.441406 44.796875 C 62.347656 44.785156 62.25 44.777344 62.152344 44.769531 C 62.054688 44.757812 61.957031 44.742188 61.855469 44.726562 C 61.453125 44.667969 61.035156 44.566406 60.597656 44.453125 C 60.378906 44.390625 60.160156 44.320312 59.933594 44.25 C 59.710938 44.171875 59.480469 44.09375 59.246094 44.011719 C 58.316406 43.667969 57.339844 43.238281 56.328125 42.734375 C 55.316406 42.234375 54.265625 41.671875 53.207031 41.046875 C 53.070312 40.96875 52.9375 40.890625 52.800781 40.8125 C 52.667969 40.734375 52.535156 40.652344 52.402344 40.574219 C 52.273438 40.5 52.144531 40.425781 52.015625 40.355469 C 51.882812 40.289062 51.75 40.214844 51.613281 40.152344 C 51.074219 39.894531 50.507812 39.691406 49.945312 39.628906 C 49.667969 39.601562 49.394531 39.613281 49.132812 39.675781 C 48.871094 39.734375 48.621094 39.847656 48.371094 39.996094 C 48.117188 40.148438 47.871094 40.339844 47.570312 40.53125 C 47.421875 40.628906 47.253906 40.726562 47.058594 40.800781 C 46.867188 40.878906 46.644531 40.925781 46.421875 40.929688 L 46.332031 40.925781 L 46.273438 40.921875 C 46.257812 40.921875 46.21875 40.914062 46.1875 40.910156 L 46.09375 40.894531 C 46.027344 40.886719 45.984375 40.867188 45.929688 40.855469 C 45.875 40.839844 45.828125 40.820312 45.78125 40.800781 C 45.585938 40.726562 45.417969 40.628906 45.269531 40.535156 C 44.96875 40.339844 44.722656 40.148438 44.46875 39.996094 C 44.21875 39.847656 43.96875 39.734375 43.707031 39.675781 C 43.445312 39.617188 43.171875 39.601562 42.894531 39.632812 C 42.332031 39.691406 41.765625 39.898438 41.226562 40.152344 C 41.089844 40.21875 40.957031 40.289062 40.824219 40.355469 C 40.691406 40.429688 40.5625 40.503906 40.429688 40.578125 C 40.300781 40.65625 40.171875 40.734375 40.046875 40.8125 C 39.90625 40.890625 39.769531 40.972656 39.632812 41.050781 C 39.367188 41.203125 39.105469 41.355469 38.84375 41.503906 C 38.578125 41.652344 38.316406 41.796875 38.058594 41.9375 C 37.796875 42.082031 37.535156 42.214844 37.28125 42.351562 C 37.152344 42.417969 37.023438 42.484375 36.898438 42.550781 C 36.769531 42.613281 36.640625 42.675781 36.515625 42.738281 C 35.503906 43.238281 34.523438 43.671875 33.59375 44.011719 C 33.359375 44.09375 33.132812 44.175781 32.90625 44.253906 C 32.679688 44.324219 32.460938 44.394531 32.242188 44.453125 C 31.804688 44.570312 31.386719 44.667969 30.984375 44.726562 C 30.882812 44.742188 30.785156 44.757812 30.691406 44.769531 C 30.589844 44.78125 30.496094 44.789062 30.402344 44.796875 C 30.304688 44.808594 30.210938 44.808594 30.121094 44.808594 C 30.027344 44.808594 29.9375 44.816406 29.851562 44.808594 C 29.496094 44.800781 29.171875 44.742188 28.890625 44.644531 C 28.609375 44.542969 28.378906 44.394531 28.222656 44.226562 C 28.0625 44.058594 27.972656 43.878906 27.925781 43.730469 C 27.875 43.582031 27.859375 43.460938 27.855469 43.382812 C 27.851562 43.300781 27.855469 43.261719 27.855469 43.261719 C 27.855469 43.261719 27.855469 43.304688 27.871094 43.382812 C 27.882812 43.457031 27.910156 43.574219 27.972656 43.710938 C 28.035156 43.847656 28.136719 44.007812 28.300781 44.144531 C 28.460938 44.285156 28.679688 44.398438 28.945312 44.46875 C 29.210938 44.535156 29.515625 44.5625 29.847656 44.542969 C 30.183594 44.519531 30.542969 44.476562 30.921875 44.382812 C 31.679688 44.207031 32.515625 43.90625 33.402344 43.523438 C 33.621094 43.421875 33.847656 43.320312 34.074219 43.21875 C 34.300781 43.105469 34.53125 42.992188 34.769531 42.878906 C 35.234375 42.640625 35.714844 42.394531 36.199219 42.125 C 36.324219 42.058594 36.445312 41.992188 36.570312 41.921875 C 36.691406 41.851562 36.816406 41.78125 36.9375 41.710938 C 37.1875 41.570312 37.441406 41.429688 37.691406 41.277344 C 37.941406 41.128906 38.195312 40.980469 38.449219 40.828125 C 38.707031 40.667969 38.964844 40.511719 39.222656 40.351562 C 39.347656 40.273438 39.476562 40.195312 39.601562 40.117188 C 39.738281 40.03125 39.871094 39.945312 40.003906 39.859375 C 40.144531 39.777344 40.28125 39.695312 40.421875 39.613281 C 40.566406 39.535156 40.707031 39.457031 40.855469 39.382812 C 41.003906 39.3125 41.148438 39.234375 41.304688 39.171875 C 41.382812 39.140625 41.460938 39.105469 41.539062 39.074219 L 41.777344 38.988281 C 42.101562 38.878906 42.441406 38.789062 42.800781 38.746094 C 43.160156 38.707031 43.535156 38.714844 43.90625 38.796875 C 44.277344 38.875 44.625 39.035156 44.933594 39.214844 C 45.238281 39.398438 45.507812 39.605469 45.757812 39.761719 C 45.878906 39.84375 46 39.90625 46.109375 39.949219 C 46.136719 39.960938 46.164062 39.96875 46.191406 39.976562 C 46.214844 39.980469 46.246094 39.996094 46.261719 39.996094 C 46.269531 39.996094 46.28125 39.996094 46.289062 40 C 46.300781 40.003906 46.300781 40.007812 46.324219 40.007812 L 46.386719 40.011719 L 46.433594 40.011719 C 46.425781 40.011719 46.46875 40.015625 46.421875 40.011719 C 46.523438 40.011719 46.625 39.992188 46.734375 39.949219 C 46.84375 39.90625 46.960938 39.84375 47.085938 39.761719 C 47.335938 39.605469 47.605469 39.398438 47.910156 39.214844 C 48.066406 39.125 48.226562 39.039062 48.402344 38.96875 C 48.574219 38.898438 48.753906 38.835938 48.9375 38.796875 C 49.304688 38.714844 49.683594 38.707031 50.042969 38.746094 C 50.402344 38.789062 50.742188 38.878906 51.0625 38.988281 L 51.304688 39.074219 C 51.382812 39.105469 51.457031 39.140625 51.535156 39.171875 C 51.691406 39.234375 51.839844 39.3125 51.988281 39.382812 C 52.136719 39.457031 52.277344 39.535156 52.421875 39.613281 C 52.5625 39.695312 52.703125 39.78125 52.84375 39.863281 C 52.972656 39.945312 53.101562 40.03125 53.234375 40.113281 C 53.363281 40.191406 53.492188 40.273438 53.617188 40.351562 C 54.652344 40.996094 55.664062 41.589844 56.640625 42.125 C 57.125 42.398438 57.609375 42.640625 58.074219 42.878906 C 58.308594 42.996094 58.539062 43.109375 58.765625 43.21875 C 58.996094 43.324219 59.21875 43.425781 59.441406 43.523438 C 60.328125 43.90625 61.164062 44.210938 61.921875 44.382812 C 62.300781 44.476562 62.660156 44.519531 62.992188 44.542969 C 63.328125 44.566406 63.632812 44.535156 63.898438 44.46875 C 64.164062 44.398438 64.382812 44.285156 64.542969 44.144531 C 64.707031 44.007812 64.808594 43.847656 64.871094 43.710938 C 64.933594 43.574219 64.960938 43.457031 64.972656 43.382812 C 64.984375 43.304688 64.984375 43.261719 64.984375 43.261719 Z M 64.984375 43.261719 " fill-opacity="1" fill-rule="nonzero"/></g><g clip-path="url(#58598edd11)"><path fill="#231f20" d="M 62.703125 45.914062 C 62.703125 45.914062 62.578125 45.984375 62.34375 46.121094 C 62.226562 46.191406 62.085938 46.28125 61.917969 46.382812 C 61.753906 46.492188 61.566406 46.609375 61.355469 46.753906 C 60.9375 47.035156 60.441406 47.394531 59.878906 47.8125 C 59.316406 48.234375 58.6875 48.722656 58.007812 49.257812 C 57.332031 49.796875 56.605469 50.390625 55.835938 51.015625 C 55.785156 51.054688 55.738281 51.09375 55.691406 51.132812 C 55.636719 51.175781 55.585938 51.214844 55.535156 51.253906 C 55.433594 51.332031 55.335938 51.410156 55.234375 51.488281 C 55.039062 51.644531 54.808594 51.796875 54.589844 51.949219 C 54.140625 52.257812 53.667969 52.527344 53.175781 52.789062 C 53.050781 52.855469 52.921875 52.910156 52.796875 52.972656 C 52.667969 53.03125 52.542969 53.09375 52.410156 53.148438 C 52.28125 53.203125 52.148438 53.257812 52.015625 53.308594 C 51.949219 53.335938 51.882812 53.363281 51.816406 53.390625 L 51.613281 53.460938 C 51.070312 53.660156 50.507812 53.808594 49.933594 53.933594 C 48.785156 54.175781 47.589844 54.257812 46.421875 54.257812 L 45.984375 54.253906 L 45.542969 54.242188 C 45.246094 54.230469 44.953125 54.21875 44.660156 54.191406 C 44.070312 54.144531 43.484375 54.058594 42.90625 53.9375 C 42.335938 53.8125 41.769531 53.660156 41.230469 53.460938 C 41.09375 53.414062 40.960938 53.359375 40.828125 53.304688 C 40.695312 53.25 40.5625 53.199219 40.429688 53.144531 C 40.304688 53.085938 40.175781 53.023438 40.046875 52.964844 C 39.921875 52.90625 39.792969 52.847656 39.671875 52.777344 C 39.425781 52.644531 39.179688 52.523438 38.949219 52.375 C 38.832031 52.304688 38.714844 52.234375 38.597656 52.167969 C 38.480469 52.097656 38.375 52.019531 38.261719 51.945312 C 38.042969 51.792969 37.820312 51.648438 37.617188 51.488281 C 37.410156 51.332031 37.195312 51.179688 37.007812 51.023438 C 36.230469 50.402344 35.496094 49.816406 34.820312 49.273438 C 34.480469 49.007812 34.152344 48.75 33.84375 48.507812 C 33.53125 48.265625 33.234375 48.035156 32.953125 47.824219 C 32.390625 47.402344 31.898438 47.042969 31.480469 46.757812 C 31.273438 46.613281 31.082031 46.496094 30.917969 46.382812 C 30.753906 46.28125 30.609375 46.191406 30.496094 46.121094 C 30.261719 45.984375 30.136719 45.914062 30.136719 45.914062 C 30.136719 45.914062 30.269531 45.96875 30.519531 46.074219 C 30.644531 46.132812 30.796875 46.203125 30.972656 46.289062 C 31.148438 46.378906 31.351562 46.476562 31.574219 46.601562 C 32.019531 46.84375 32.554688 47.15625 33.152344 47.535156 C 33.449219 47.722656 33.765625 47.929688 34.097656 48.148438 C 34.429688 48.367188 34.773438 48.601562 35.128906 48.847656 C 35.488281 49.097656 35.859375 49.359375 36.242188 49.625 C 36.621094 49.898438 37.015625 50.179688 37.417969 50.472656 C 37.46875 50.507812 37.519531 50.542969 37.570312 50.582031 C 37.621094 50.617188 37.671875 50.652344 37.722656 50.6875 C 37.824219 50.753906 37.925781 50.828125 38.03125 50.898438 C 38.230469 51.042969 38.449219 51.171875 38.664062 51.308594 C 38.878906 51.445312 39.105469 51.566406 39.332031 51.691406 C 39.554688 51.824219 39.792969 51.933594 40.027344 52.050781 C 40.976562 52.511719 42.007812 52.847656 43.082031 53.070312 C 43.621094 53.175781 44.171875 53.242188 44.730469 53.285156 C 45.007812 53.308594 45.289062 53.320312 45.570312 53.332031 L 45.992188 53.339844 L 46.421875 53.339844 C 47.558594 53.347656 48.679688 53.273438 49.761719 53.0625 C 50.839844 52.851562 51.871094 52.511719 52.820312 52.0625 C 53.292969 51.832031 53.753906 51.585938 54.179688 51.320312 C 54.390625 51.183594 54.601562 51.0625 54.808594 50.90625 C 54.914062 50.832031 55.015625 50.761719 55.121094 50.6875 C 55.167969 50.652344 55.21875 50.617188 55.265625 50.585938 C 55.316406 50.546875 55.367188 50.511719 55.417969 50.472656 C 55.816406 50.179688 56.207031 49.890625 56.589844 49.617188 C 56.972656 49.347656 57.34375 49.085938 57.699219 48.835938 C 58.058594 48.589844 58.402344 48.351562 58.734375 48.136719 C 59.066406 47.917969 59.382812 47.714844 59.683594 47.527344 C 60.28125 47.148438 60.816406 46.839844 61.261719 46.601562 C 61.484375 46.476562 61.691406 46.375 61.867188 46.289062 C 62.042969 46.203125 62.195312 46.132812 62.320312 46.074219 C 62.570312 45.96875 62.703125 45.914062 62.703125 45.914062 Z M 62.703125 45.914062 " fill-opacity="1" fill-rule="nonzero"/></g><path fill="#231f20" d="M 62.703125 45.214844 C 62.703125 45.214844 62.578125 45.242188 62.34375 45.296875 C 62.105469 45.34375 61.761719 45.421875 61.320312 45.511719 C 61.097656 45.554688 60.855469 45.605469 60.589844 45.660156 C 60.453125 45.683594 60.316406 45.710938 60.171875 45.742188 C 60.03125 45.769531 59.878906 45.792969 59.722656 45.816406 C 59.101562 45.914062 58.402344 46.023438 57.632812 46.132812 C 57.585938 46.140625 57.539062 46.148438 57.488281 46.15625 C 57.441406 46.160156 57.390625 46.167969 57.34375 46.171875 C 57.242188 46.183594 57.144531 46.191406 57.046875 46.203125 C 56.84375 46.226562 56.640625 46.246094 56.433594 46.269531 C 56.019531 46.3125 55.589844 46.359375 55.148438 46.402344 C 54.703125 46.429688 54.25 46.460938 53.785156 46.492188 C 53.550781 46.507812 53.316406 46.527344 53.078125 46.535156 C 52.839844 46.542969 52.601562 46.550781 52.359375 46.558594 C 52.117188 46.566406 51.871094 46.574219 51.625 46.582031 C 51.378906 46.589844 51.132812 46.585938 50.882812 46.589844 C 50.632812 46.589844 50.382812 46.589844 50.128906 46.59375 C 49.878906 46.589844 49.625 46.585938 49.371094 46.582031 C 49.246094 46.582031 49.121094 46.578125 48.996094 46.578125 L 48.808594 46.574219 L 48.667969 46.574219 C 48.652344 46.574219 48.683594 46.570312 48.675781 46.574219 L 48.640625 46.574219 L 48.542969 46.578125 L 48.496094 46.582031 L 48.460938 46.585938 C 48.414062 46.59375 48.375 46.59375 48.320312 46.605469 C 48.265625 46.617188 48.214844 46.625 48.160156 46.640625 C 48.109375 46.652344 48.054688 46.667969 48.003906 46.683594 C 47.792969 46.75 47.578125 46.847656 47.335938 46.953125 C 47.214844 47.007812 47.089844 47.0625 46.941406 47.113281 C 46.90625 47.125 46.867188 47.136719 46.824219 47.148438 C 46.785156 47.160156 46.746094 47.171875 46.699219 47.179688 C 46.65625 47.1875 46.613281 47.195312 46.566406 47.199219 L 46.492188 47.207031 L 46.4375 47.207031 C 46.421875 47.207031 46.453125 47.210938 46.390625 47.207031 L 46.296875 47.203125 L 46.285156 47.203125 L 46.226562 47.191406 L 46.148438 47.179688 C 46.089844 47.171875 46.058594 47.160156 46.015625 47.148438 C 45.976562 47.136719 45.9375 47.125 45.902344 47.113281 C 45.753906 47.0625 45.625 47.007812 45.503906 46.953125 C 45.265625 46.847656 45.050781 46.75 44.839844 46.6875 C 44.625 46.621094 44.417969 46.582031 44.210938 46.574219 L 44.035156 46.574219 L 43.84375 46.578125 C 43.71875 46.578125 43.589844 46.582031 43.464844 46.582031 C 43.210938 46.585938 42.960938 46.589844 42.710938 46.59375 C 42.457031 46.59375 42.207031 46.59375 41.957031 46.589844 C 41.710938 46.589844 41.460938 46.589844 41.214844 46.585938 C 40.96875 46.578125 40.726562 46.570312 40.484375 46.5625 C 40 46.542969 39.523438 46.53125 39.058594 46.496094 C 38.589844 46.464844 38.136719 46.433594 37.695312 46.402344 C 36.8125 46.316406 35.976562 46.230469 35.207031 46.136719 C 34.441406 46.027344 33.738281 45.917969 33.121094 45.820312 C 32.964844 45.796875 32.8125 45.773438 32.671875 45.742188 C 32.527344 45.714844 32.386719 45.6875 32.253906 45.660156 C 31.988281 45.605469 31.742188 45.554688 31.523438 45.511719 C 31.078125 45.421875 30.734375 45.34375 30.5 45.296875 C 30.261719 45.246094 30.136719 45.214844 30.136719 45.214844 C 30.136719 45.214844 30.265625 45.226562 30.507812 45.242188 C 30.746094 45.265625 31.101562 45.289062 31.546875 45.332031 C 31.773438 45.351562 32.019531 45.375 32.289062 45.398438 C 32.558594 45.417969 32.847656 45.457031 33.164062 45.472656 C 33.785156 45.507812 34.492188 45.550781 35.257812 45.609375 C 35.640625 45.632812 36.039062 45.640625 36.453125 45.660156 C 36.867188 45.675781 37.292969 45.699219 37.734375 45.714844 C 38.171875 45.722656 38.625 45.730469 39.085938 45.738281 C 39.199219 45.742188 39.316406 45.742188 39.433594 45.746094 C 39.550781 45.75 39.667969 45.75 39.785156 45.75 C 40.019531 45.75 40.253906 45.75 40.496094 45.75 C 40.734375 45.746094 40.976562 45.746094 41.21875 45.746094 C 41.460938 45.746094 41.707031 45.738281 41.953125 45.734375 C 42.199219 45.730469 42.449219 45.722656 42.695312 45.71875 C 42.949219 45.710938 43.199219 45.703125 43.453125 45.695312 C 43.578125 45.691406 43.707031 45.6875 43.832031 45.683594 L 44.023438 45.679688 L 44.117188 45.675781 L 44.167969 45.671875 L 44.1875 45.671875 L 44.199219 45.675781 L 44.226562 45.675781 C 44.53125 45.675781 44.828125 45.734375 45.105469 45.820312 C 45.382812 45.902344 45.636719 46.019531 45.867188 46.117188 C 45.980469 46.167969 46.09375 46.214844 46.1875 46.246094 C 46.210938 46.253906 46.234375 46.261719 46.257812 46.265625 C 46.277344 46.269531 46.304688 46.28125 46.3125 46.28125 C 46.316406 46.28125 46.324219 46.28125 46.328125 46.285156 L 46.335938 46.285156 C 46.339844 46.285156 46.339844 46.289062 46.34375 46.289062 L 46.355469 46.289062 L 46.449219 46.296875 C 46.394531 46.292969 46.4375 46.292969 46.429688 46.292969 L 46.46875 46.292969 C 46.484375 46.289062 46.507812 46.285156 46.523438 46.28125 C 46.542969 46.28125 46.566406 46.273438 46.585938 46.265625 C 46.609375 46.261719 46.632812 46.253906 46.65625 46.246094 C 46.753906 46.214844 46.863281 46.167969 46.976562 46.121094 C 47.207031 46.019531 47.460938 45.90625 47.738281 45.820312 C 47.804688 45.796875 47.875 45.777344 47.949219 45.761719 C 48.019531 45.742188 48.09375 45.730469 48.167969 45.714844 C 48.238281 45.703125 48.324219 45.695312 48.402344 45.6875 L 48.464844 45.679688 L 48.511719 45.679688 L 48.605469 45.675781 L 48.71875 45.675781 L 48.816406 45.679688 L 49.011719 45.683594 C 49.140625 45.6875 49.269531 45.691406 49.394531 45.695312 C 49.648438 45.703125 49.898438 45.710938 50.148438 45.71875 C 50.398438 45.726562 50.644531 45.730469 50.890625 45.738281 C 51.136719 45.742188 51.382812 45.746094 51.625 45.75 C 51.867188 45.75 52.109375 45.75 52.347656 45.75 C 52.585938 45.75 52.824219 45.75 53.058594 45.753906 C 53.179688 45.753906 53.296875 45.75 53.410156 45.75 C 53.527344 45.746094 53.644531 45.746094 53.757812 45.742188 C 54.21875 45.734375 54.671875 45.726562 55.109375 45.71875 C 55.550781 45.703125 55.976562 45.679688 56.390625 45.664062 C 56.804688 45.644531 57.203125 45.632812 57.585938 45.609375 C 58.351562 45.554688 59.054688 45.511719 59.679688 45.472656 C 59.992188 45.460938 60.28125 45.421875 60.550781 45.398438 C 60.824219 45.375 61.070312 45.351562 61.296875 45.332031 C 61.742188 45.289062 62.097656 45.265625 62.335938 45.246094 C 62.574219 45.226562 62.703125 45.214844 62.703125 45.214844 Z M 62.703125 45.214844 " fill-opacity="1" fill-rule="nonzero"/></svg>