<svg xmlns="http://www.w3.org/2000/svg" xmlns:xlink="http://www.w3.org/1999/xlink" width="250" zoomAndPan="magnify" viewBox="0 0 187.5 187.499992" height="250" preserveAspectRatio="xMidYMid meet" version="1.0"><defs><clipPath id="b952c03c58"><path d="M 56.101562 77.886719 L 130.902344 77.886719 L 130.902344 91 L 56.101562 91 Z M 56.101562 77.886719 " clip-rule="nonzero"/></clipPath><clipPath id="d9913514ce"><path d="M 60 92 L 127 92 L 127 109.300781 L 60 109.300781 Z M 60 92 " clip-rule="nonzero"/></clipPath></defs><g clip-path="url(#b952c03c58)"><path fill="#231f20" d="M 130.894531 87.109375 C 130.894531 87.109375 130.902344 87.191406 130.894531 87.351562 C 130.886719 87.511719 130.859375 87.753906 130.753906 88.054688 C 130.652344 88.351562 130.472656 88.710938 130.152344 89.046875 C 129.835938 89.390625 129.371094 89.691406 128.808594 89.890625 C 128.246094 90.085938 127.585938 90.207031 126.875 90.226562 C 126.695312 90.238281 126.515625 90.226562 126.332031 90.226562 C 126.144531 90.222656 125.957031 90.21875 125.765625 90.199219 C 125.574219 90.179688 125.382812 90.164062 125.183594 90.144531 C 124.988281 90.121094 124.789062 90.085938 124.589844 90.058594 C 123.78125 89.941406 122.9375 89.738281 122.054688 89.507812 C 121.617188 89.382812 121.171875 89.242188 120.714844 89.101562 C 120.265625 88.945312 119.804688 88.78125 119.335938 88.617188 C 117.464844 87.929688 115.488281 87.058594 113.453125 86.050781 C 111.414062 85.035156 109.300781 83.90625 107.167969 82.648438 C 106.894531 82.492188 106.625 82.335938 106.351562 82.179688 C 106.085938 82.015625 105.820312 81.855469 105.550781 81.691406 C 105.292969 81.546875 105.03125 81.402344 104.769531 81.253906 C 104.5 81.121094 104.234375 80.972656 103.960938 80.84375 C 102.871094 80.332031 101.730469 79.914062 100.601562 79.792969 C 100.039062 79.738281 99.488281 79.761719 98.960938 79.886719 C 98.433594 80.003906 97.933594 80.234375 97.425781 80.53125 C 96.921875 80.835938 96.417969 81.222656 95.816406 81.613281 C 95.515625 81.804688 95.175781 82 94.789062 82.152344 C 94.398438 82.304688 93.953125 82.40625 93.5 82.410156 L 93.320312 82.398438 L 93.199219 82.394531 C 93.167969 82.394531 93.089844 82.382812 93.03125 82.375 L 92.84375 82.34375 C 92.707031 82.324219 92.621094 82.289062 92.511719 82.257812 C 92.40625 82.230469 92.308594 82.195312 92.210938 82.15625 C 91.820312 82.003906 91.484375 81.808594 91.179688 81.617188 C 90.578125 81.222656 90.078125 80.839844 89.570312 80.535156 C 89.066406 80.238281 88.5625 80.007812 88.035156 79.890625 C 87.507812 79.765625 86.957031 79.742188 86.394531 79.796875 C 85.269531 79.917969 84.125 80.335938 83.035156 80.847656 C 82.761719 80.976562 82.496094 81.121094 82.226562 81.257812 C 81.960938 81.40625 81.699219 81.554688 81.433594 81.703125 C 81.175781 81.859375 80.917969 82.019531 80.660156 82.175781 C 80.382812 82.335938 80.105469 82.496094 79.832031 82.65625 C 79.296875 82.964844 78.765625 83.269531 78.242188 83.570312 C 77.707031 83.863281 77.175781 84.15625 76.652344 84.445312 C 76.132812 84.738281 75.601562 85 75.089844 85.273438 C 74.828125 85.40625 74.574219 85.542969 74.316406 85.675781 C 74.058594 85.804688 73.800781 85.929688 73.546875 86.054688 C 71.507812 87.066406 69.535156 87.9375 67.664062 88.621094 C 67.195312 88.785156 66.734375 88.949219 66.28125 89.105469 C 65.824219 89.246094 65.382812 89.386719 64.945312 89.511719 C 64.058594 89.742188 63.21875 89.945312 62.410156 90.0625 C 62.207031 90.089844 62.011719 90.125 61.816406 90.148438 C 61.617188 90.167969 61.421875 90.183594 61.234375 90.199219 C 61.042969 90.222656 60.855469 90.226562 60.667969 90.226562 C 60.484375 90.226562 60.304688 90.242188 60.125 90.226562 C 59.414062 90.207031 58.753906 90.089844 58.191406 89.890625 C 57.628906 89.691406 57.164062 89.390625 56.847656 89.050781 C 56.527344 88.710938 56.347656 88.351562 56.242188 88.054688 C 56.140625 87.753906 56.113281 87.511719 56.105469 87.351562 C 56.097656 87.191406 56.105469 87.109375 56.105469 87.109375 C 56.105469 87.109375 56.109375 87.191406 56.132812 87.351562 C 56.160156 87.507812 56.214844 87.738281 56.34375 88.015625 C 56.46875 88.289062 56.675781 88.609375 57 88.886719 C 57.324219 89.167969 57.769531 89.402344 58.300781 89.539062 C 58.835938 89.675781 59.453125 89.730469 60.121094 89.691406 C 60.792969 89.640625 61.519531 89.558594 62.28125 89.367188 C 63.808594 89.015625 65.488281 88.410156 67.277344 87.636719 C 67.71875 87.4375 68.171875 87.230469 68.636719 87.019531 C 69.089844 86.796875 69.554688 86.570312 70.027344 86.339844 C 70.964844 85.859375 71.9375 85.367188 72.914062 84.816406 C 73.160156 84.683594 73.40625 84.546875 73.65625 84.410156 C 73.90625 84.269531 74.152344 84.128906 74.402344 83.988281 C 74.898438 83.699219 75.414062 83.421875 75.914062 83.113281 C 76.417969 82.8125 76.929688 82.511719 77.445312 82.203125 C 77.960938 81.886719 78.480469 81.566406 79.003906 81.246094 C 79.257812 81.089844 79.511719 80.933594 79.769531 80.773438 C 80.035156 80.601562 80.304688 80.429688 80.578125 80.253906 C 80.855469 80.089844 81.136719 79.925781 81.417969 79.757812 C 81.707031 79.605469 81.992188 79.445312 82.289062 79.296875 C 82.589844 79.152344 82.882812 79 83.199219 78.871094 C 83.355469 78.808594 83.507812 78.734375 83.667969 78.675781 L 84.148438 78.5 C 84.800781 78.28125 85.488281 78.101562 86.207031 78.015625 C 86.929688 77.933594 87.691406 77.953125 88.433594 78.117188 C 89.179688 78.273438 89.882812 78.59375 90.5 78.960938 C 91.117188 79.328125 91.660156 79.742188 92.160156 80.0625 C 92.414062 80.222656 92.648438 80.351562 92.871094 80.4375 C 92.925781 80.457031 92.984375 80.480469 93.035156 80.492188 C 93.085938 80.503906 93.152344 80.53125 93.179688 80.53125 C 93.199219 80.53125 93.214844 80.535156 93.234375 80.539062 C 93.253906 80.542969 93.257812 80.550781 93.308594 80.554688 L 93.433594 80.558594 L 93.492188 80.5625 L 93.523438 80.566406 C 93.511719 80.566406 93.597656 80.570312 93.5 80.566406 C 93.707031 80.5625 93.910156 80.523438 94.132812 80.4375 C 94.355469 80.351562 94.59375 80.222656 94.839844 80.0625 C 95.34375 79.742188 95.886719 79.328125 96.503906 78.960938 C 96.8125 78.777344 97.140625 78.605469 97.488281 78.460938 C 97.835938 78.316406 98.199219 78.195312 98.570312 78.117188 C 99.3125 77.953125 100.074219 77.933594 100.792969 78.015625 C 101.515625 78.101562 102.199219 78.277344 102.851562 78.5 L 103.335938 78.675781 C 103.496094 78.738281 103.648438 78.808594 103.804688 78.871094 C 104.117188 79 104.414062 79.152344 104.714844 79.296875 C 105.011719 79.445312 105.296875 79.605469 105.585938 79.761719 C 105.871094 79.929688 106.152344 80.09375 106.433594 80.261719 C 106.699219 80.433594 106.960938 80.601562 107.222656 80.769531 C 107.480469 80.929688 107.738281 81.089844 108 81.25 C 110.078125 82.546875 112.121094 83.738281 114.085938 84.820312 C 115.0625 85.367188 116.035156 85.859375 116.972656 86.339844 C 117.445312 86.570312 117.90625 86.800781 118.363281 87.023438 C 118.828125 87.230469 119.28125 87.4375 119.722656 87.636719 C 121.511719 88.410156 123.191406 89.015625 124.71875 89.367188 C 125.484375 89.558594 126.210938 89.644531 126.878906 89.691406 C 127.550781 89.734375 128.167969 89.675781 128.703125 89.539062 C 129.234375 89.402344 129.679688 89.167969 130.003906 88.886719 C 130.328125 88.609375 130.535156 88.289062 130.660156 88.015625 C 130.785156 87.738281 130.84375 87.507812 130.867188 87.351562 C 130.890625 87.195312 130.894531 87.109375 130.894531 87.109375 Z M 130.894531 87.109375 " fill-opacity="1" fill-rule="nonzero"/></g><g clip-path="url(#d9913514ce)"><path fill="#231f20" d="M 126.296875 92.449219 C 126.296875 92.449219 126.042969 92.597656 125.570312 92.867188 C 125.339844 93.011719 125.054688 93.1875 124.714844 93.394531 C 124.386719 93.617188 124.003906 93.855469 123.585938 94.144531 C 122.742188 94.710938 121.742188 95.433594 120.605469 96.277344 C 119.46875 97.125 118.210938 98.109375 116.839844 99.1875 C 115.476562 100.269531 114.011719 101.464844 112.460938 102.726562 C 112.363281 102.808594 112.269531 102.886719 112.171875 102.964844 C 112.066406 103.046875 111.960938 103.128906 111.855469 103.210938 C 111.65625 103.363281 111.453125 103.519531 111.25 103.679688 C 110.855469 103.996094 110.394531 104.296875 109.949219 104.609375 C 109.050781 105.226562 108.101562 105.773438 107.105469 106.296875 C 106.855469 106.433594 106.597656 106.542969 106.34375 106.667969 C 106.085938 106.785156 105.832031 106.914062 105.566406 107.027344 C 105.300781 107.132812 105.035156 107.242188 104.769531 107.347656 C 104.632812 107.402344 104.5 107.460938 104.367188 107.507812 L 103.957031 107.652344 C 102.867188 108.054688 101.730469 108.351562 100.574219 108.601562 C 98.261719 109.09375 95.855469 109.257812 93.5 109.253906 L 92.625 109.246094 L 91.730469 109.226562 C 91.136719 109.203125 90.542969 109.175781 89.949219 109.125 C 88.765625 109.027344 87.582031 108.859375 86.425781 108.617188 C 85.269531 108.359375 84.132812 108.054688 83.042969 107.648438 C 82.765625 107.558594 82.5 107.449219 82.234375 107.339844 C 81.96875 107.230469 81.703125 107.121094 81.4375 107.015625 C 81.179688 106.894531 80.921875 106.773438 80.664062 106.652344 C 80.40625 106.53125 80.148438 106.414062 79.90625 106.277344 C 79.414062 106.007812 78.914062 105.765625 78.449219 105.46875 C 78.210938 105.328125 77.976562 105.183594 77.746094 105.042969 C 77.507812 104.910156 77.292969 104.746094 77.066406 104.597656 C 76.625 104.296875 76.175781 104.003906 75.765625 103.679688 C 75.351562 103.363281 74.921875 103.054688 74.539062 102.738281 C 72.976562 101.488281 71.5 100.308594 70.136719 99.21875 C 69.449219 98.679688 68.792969 98.164062 68.164062 97.675781 C 67.539062 97.183594 66.941406 96.726562 66.375 96.300781 C 65.246094 95.453125 64.246094 94.722656 63.40625 94.152344 C 62.988281 93.859375 62.605469 93.621094 62.277344 93.398438 C 61.945312 93.1875 61.65625 93.011719 61.425781 92.871094 C 60.953125 92.597656 60.699219 92.453125 60.699219 92.453125 C 60.699219 92.453125 60.96875 92.5625 61.472656 92.773438 C 61.722656 92.890625 62.027344 93.03125 62.386719 93.203125 C 62.738281 93.382812 63.148438 93.585938 63.597656 93.835938 C 64.496094 94.324219 65.574219 94.949219 66.773438 95.71875 C 67.375 96.097656 68.015625 96.507812 68.679688 96.949219 C 69.347656 97.390625 70.039062 97.867188 70.757812 98.363281 C 71.476562 98.867188 72.222656 99.390625 72.996094 99.929688 C 73.765625 100.480469 74.554688 101.046875 75.371094 101.628906 C 75.472656 101.703125 75.574219 101.777344 75.675781 101.851562 C 75.777344 101.921875 75.878906 101.992188 75.980469 102.0625 C 76.1875 102.203125 76.390625 102.34375 76.597656 102.488281 C 77.007812 102.785156 77.445312 103.042969 77.878906 103.3125 C 78.3125 103.59375 78.765625 103.835938 79.222656 104.089844 C 79.671875 104.355469 80.152344 104.574219 80.625 104.8125 C 82.53125 105.738281 84.613281 106.421875 86.777344 106.863281 C 87.863281 107.078125 88.972656 107.210938 90.09375 107.300781 C 90.652344 107.347656 91.21875 107.371094 91.785156 107.390625 L 92.636719 107.40625 L 93.5 107.410156 C 95.792969 107.421875 98.050781 107.273438 100.226562 106.851562 C 102.398438 106.421875 104.480469 105.742188 106.390625 104.832031 C 107.339844 104.375 108.265625 103.875 109.125 103.339844 C 109.550781 103.066406 109.976562 102.820312 110.394531 102.507812 C 110.605469 102.359375 110.8125 102.210938 111.019531 102.066406 C 111.121094 101.996094 111.21875 101.925781 111.316406 101.859375 C 111.417969 101.785156 111.519531 101.710938 111.621094 101.632812 C 112.425781 101.039062 113.214844 100.460938 113.980469 99.910156 C 114.75 99.363281 115.496094 98.839844 116.21875 98.339844 C 116.941406 97.839844 117.632812 97.363281 118.300781 96.925781 C 118.96875 96.488281 119.609375 96.078125 120.210938 95.699219 C 121.414062 94.9375 122.496094 94.320312 123.394531 93.832031 C 123.84375 93.585938 124.253906 93.382812 124.609375 93.203125 C 124.96875 93.03125 125.277344 92.890625 125.523438 92.777344 C 126.027344 92.5625 126.296875 92.449219 126.296875 92.449219 Z M 126.296875 92.449219 " fill-opacity="1" fill-rule="nonzero"/></g><path fill="#231f20" d="M 126.296875 91.046875 C 126.296875 91.046875 126.042969 91.101562 125.570312 91.203125 C 125.09375 91.304688 124.398438 91.460938 123.507812 91.636719 C 123.0625 91.726562 122.570312 91.828125 122.035156 91.9375 C 121.765625 91.988281 121.488281 92.046875 121.199219 92.101562 C 120.910156 92.164062 120.609375 92.210938 120.296875 92.257812 C 119.046875 92.449219 117.632812 92.671875 116.085938 92.894531 C 115.988281 92.910156 115.890625 92.921875 115.792969 92.9375 C 115.695312 92.949219 115.597656 92.960938 115.496094 92.96875 C 115.300781 92.992188 115.101562 93.015625 114.898438 93.035156 C 114.496094 93.078125 114.085938 93.121094 113.667969 93.167969 C 112.832031 93.257812 111.964844 93.347656 111.078125 93.433594 C 110.183594 93.492188 109.265625 93.554688 108.332031 93.617188 C 107.863281 93.644531 107.390625 93.691406 106.910156 93.699219 C 106.429688 93.71875 105.945312 93.734375 105.460938 93.75 C 104.972656 93.765625 104.480469 93.78125 103.984375 93.800781 C 103.488281 93.808594 102.988281 93.808594 102.488281 93.8125 C 101.984375 93.816406 101.480469 93.816406 100.972656 93.820312 C 100.464844 93.8125 99.953125 93.804688 99.445312 93.796875 C 99.191406 93.792969 98.941406 93.789062 98.6875 93.785156 L 98.3125 93.78125 L 98.125 93.777344 L 98.03125 93.777344 C 97.992188 93.777344 98.054688 93.777344 98.039062 93.777344 L 98.015625 93.777344 L 97.96875 93.78125 L 97.777344 93.789062 L 97.679688 93.792969 L 97.609375 93.804688 C 97.515625 93.820312 97.433594 93.824219 97.324219 93.847656 C 97.21875 93.867188 97.113281 93.886719 97.007812 93.914062 C 96.902344 93.9375 96.792969 93.972656 96.6875 94.003906 C 96.261719 94.136719 95.828125 94.332031 95.34375 94.546875 C 95.097656 94.652344 94.847656 94.765625 94.546875 94.867188 C 94.476562 94.890625 94.394531 94.914062 94.3125 94.9375 C 94.230469 94.957031 94.15625 94.980469 94.066406 94.996094 C 93.976562 95.011719 93.890625 95.03125 93.792969 95.042969 L 93.648438 95.054688 L 93.574219 95.058594 L 93.535156 95.058594 C 93.5 95.058594 93.570312 95.0625 93.441406 95.058594 L 93.25 95.046875 L 93.226562 95.042969 L 93.1875 95.039062 L 93.109375 95.027344 L 92.949219 95 C 92.835938 94.980469 92.769531 94.960938 92.6875 94.9375 C 92.605469 94.917969 92.527344 94.890625 92.453125 94.867188 C 92.152344 94.769531 91.902344 94.65625 91.65625 94.546875 C 91.171875 94.332031 90.738281 94.136719 90.3125 94.007812 C 89.886719 93.871094 89.46875 93.796875 89.050781 93.785156 L 88.980469 93.78125 L 88.886719 93.78125 L 88.695312 93.785156 L 88.3125 93.789062 C 88.054688 93.792969 87.800781 93.796875 87.546875 93.800781 C 87.039062 93.808594 86.53125 93.816406 86.027344 93.824219 C 85.519531 93.820312 85.015625 93.816406 84.511719 93.816406 C 84.011719 93.8125 83.511719 93.8125 83.015625 93.800781 C 82.519531 93.785156 82.027344 93.769531 81.539062 93.753906 C 80.5625 93.71875 79.605469 93.699219 78.667969 93.621094 C 77.730469 93.558594 76.816406 93.496094 75.921875 93.4375 C 74.144531 93.261719 72.460938 93.089844 70.914062 92.902344 C 69.371094 92.675781 67.957031 92.457031 66.710938 92.261719 C 66.394531 92.214844 66.09375 92.167969 65.804688 92.109375 C 65.515625 92.054688 65.234375 91.996094 64.964844 91.941406 C 64.429688 91.832031 63.9375 91.730469 63.492188 91.640625 C 62.601562 91.460938 61.90625 91.304688 61.429688 91.207031 C 60.957031 91.101562 60.703125 91.046875 60.703125 91.046875 C 60.703125 91.046875 60.960938 91.066406 61.445312 91.101562 C 61.929688 91.144531 62.644531 91.191406 63.542969 91.277344 C 63.996094 91.316406 64.492188 91.363281 65.039062 91.410156 C 65.582031 91.453125 66.164062 91.535156 66.796875 91.558594 C 68.054688 91.636719 69.46875 91.722656 71.011719 91.835938 C 71.785156 91.882812 72.589844 91.902344 73.421875 91.941406 C 74.257812 91.972656 75.117188 92.019531 76 92.050781 C 76.886719 92.066406 77.792969 92.082031 78.722656 92.097656 C 78.957031 92.105469 79.191406 92.109375 79.425781 92.113281 C 79.660156 92.121094 79.894531 92.125 80.132812 92.121094 C 80.605469 92.121094 81.082031 92.117188 81.566406 92.117188 C 82.046875 92.117188 82.535156 92.117188 83.023438 92.117188 C 83.511719 92.113281 84.007812 92.097656 84.503906 92.089844 C 85 92.078125 85.496094 92.066406 86 92.058594 C 86.503906 92.039062 87.011719 92.023438 87.523438 92.007812 C 87.777344 92 88.03125 91.992188 88.289062 91.988281 L 88.671875 91.976562 L 88.863281 91.96875 L 89.082031 91.96875 C 89.691406 91.972656 90.296875 92.085938 90.851562 92.257812 C 91.414062 92.429688 91.921875 92.660156 92.386719 92.863281 C 92.617188 92.960938 92.839844 93.058594 93.03125 93.117188 C 93.082031 93.136719 93.128906 93.148438 93.171875 93.160156 C 93.210938 93.171875 93.269531 93.191406 93.28125 93.1875 C 93.292969 93.191406 93.304688 93.191406 93.316406 93.195312 L 93.332031 93.203125 C 93.335938 93.203125 93.335938 93.203125 93.34375 93.203125 L 93.367188 93.207031 L 93.558594 93.21875 C 93.449219 93.214844 93.535156 93.21875 93.515625 93.214844 L 93.550781 93.214844 L 93.597656 93.210938 C 93.628906 93.210938 93.671875 93.199219 93.707031 93.191406 C 93.746094 93.191406 93.792969 93.171875 93.835938 93.164062 C 93.878906 93.152344 93.925781 93.140625 93.976562 93.121094 C 94.167969 93.058594 94.390625 92.964844 94.621094 92.867188 C 95.082031 92.664062 95.59375 92.433594 96.152344 92.261719 C 96.292969 92.21875 96.433594 92.175781 96.578125 92.144531 C 96.722656 92.105469 96.867188 92.078125 97.019531 92.054688 C 97.160156 92.023438 97.332031 92.011719 97.492188 91.992188 L 97.613281 91.980469 L 97.710938 91.980469 L 97.902344 91.972656 L 98.035156 91.96875 L 98.328125 91.980469 L 98.71875 91.992188 C 98.976562 92 99.238281 92.007812 99.492188 92.011719 C 100 92.027344 100.503906 92.046875 101.007812 92.0625 C 101.507812 92.074219 102.007812 92.082031 102.503906 92.09375 C 103 92.101562 103.492188 92.117188 103.980469 92.121094 C 104.472656 92.121094 104.957031 92.121094 105.4375 92.121094 C 105.921875 92.125 106.402344 92.125 106.875 92.125 C 107.109375 92.128906 107.347656 92.125 107.582031 92.117188 C 107.816406 92.113281 108.050781 92.109375 108.28125 92.105469 C 109.210938 92.085938 110.117188 92.070312 111.003906 92.054688 C 111.890625 92.023438 112.75 91.976562 113.582031 91.945312 C 114.414062 91.90625 115.222656 91.886719 115.992188 91.839844 C 117.53125 91.730469 118.945312 91.644531 120.203125 91.566406 C 120.832031 91.539062 121.417969 91.457031 121.964844 91.414062 C 122.507812 91.367188 123.007812 91.320312 123.460938 91.28125 C 124.363281 91.195312 125.074219 91.144531 125.558594 91.105469 C 126.039062 91.066406 126.296875 91.046875 126.296875 91.046875 Z M 126.296875 91.046875 " fill-opacity="1" fill-rule="nonzero"/></svg>