<svg xmlns="http://www.w3.org/2000/svg" xmlns:xlink="http://www.w3.org/1999/xlink" width="250" zoomAndPan="magnify" viewBox="0 0 187.5 187.499992" height="250" preserveAspectRatio="xMidYMid meet" version="1.0"><defs><clipPath id="0453e40c12"><path d="M 36.476562 28.050781 L 150.171875 28.050781 L 150.171875 158.949219 L 36.476562 158.949219 Z M 36.476562 28.050781 " clip-rule="nonzero"/></clipPath></defs><g clip-path="url(#0453e40c12)"><path fill="#000000" d="M 148.574219 56.234375 C 148.433594 56.234375 148.292969 56.234375 148.152344 56.234375 C 140.589844 56.109375 131.808594 48.941406 131.042969 38.554688 C 130.980469 37.707031 130.277344 37.046875 129.425781 37.046875 C 128.578125 37.046875 127.875 37.703125 127.8125 38.554688 C 127.507812 42.648438 125.957031 46.242188 123.730469 49.101562 C 121.285156 48.304688 118.742188 47.875 116.152344 47.824219 C 116.132812 47.824219 116.109375 47.824219 116.089844 47.824219 C 111.425781 47.902344 106.871094 48.816406 102.554688 50.542969 C 95.308594 53.441406 88.265625 53.441406 81.019531 50.542969 C 76.703125 48.816406 72.148438 47.898438 67.480469 47.824219 C 67.464844 47.824219 67.441406 47.824219 67.421875 47.824219 C 60.484375 47.960938 53.972656 50.789062 49.085938 55.785156 C 44.191406 60.785156 41.496094 67.378906 41.496094 74.359375 L 41.496094 74.863281 C 41.496094 83.210938 44.773438 91.105469 50.511719 96.628906 C 50.960938 100.265625 51.28125 104.234375 51.621094 108.429688 C 52.066406 113.996094 52.535156 119.742188 53.355469 125.425781 C 50.753906 129.027344 46.765625 131.226562 43.140625 131.285156 C 43.027344 131.28125 42.917969 131.28125 42.804688 131.285156 C 41.921875 131.300781 41.210938 132.023438 41.210938 132.910156 C 41.210938 133.800781 41.921875 134.523438 42.804688 134.539062 C 42.917969 134.539062 43.03125 134.539062 43.140625 134.539062 C 48.882812 134.636719 55.546875 140.089844 56.132812 147.996094 C 56.195312 148.84375 56.898438 149.503906 57.746094 149.503906 C 58.597656 149.503906 59.300781 148.847656 59.363281 147.996094 C 59.386719 147.675781 59.425781 147.363281 59.464844 147.050781 C 61.59375 151.207031 64.199219 154.527344 67.367188 157.117188 C 69.003906 158.457031 70.964844 158.949219 73.039062 158.542969 C 75.109375 158.136719 76.742188 156.941406 77.753906 155.082031 C 80.6875 149.710938 82.40625 143.5 82.71875 137.132812 C 82.984375 131.753906 83.992188 127.183594 85.984375 122.316406 C 86.96875 119.914062 89.191406 118.421875 91.78125 118.421875 C 94.375 118.421875 96.59375 119.914062 97.582031 122.316406 C 99.574219 127.183594 100.582031 131.757812 100.847656 137.132812 C 101.160156 143.5 102.875 149.710938 105.808594 155.082031 C 106.824219 156.941406 108.457031 158.136719 110.527344 158.542969 C 111 158.636719 111.464844 158.683594 111.921875 158.683594 C 113.476562 158.683594 114.933594 158.15625 116.195312 157.117188 C 128.851562 146.769531 130.496094 126.398438 131.949219 108.429688 C 132.285156 104.234375 132.605469 100.261719 133.054688 96.628906 C 138.792969 91.109375 142.070312 83.210938 142.070312 74.863281 L 142.070312 74.359375 C 142.070312 70.28125 141.125 66.246094 139.324219 62.605469 C 142.089844 60.652344 145.214844 59.535156 148.152344 59.484375 C 148.292969 59.488281 148.433594 59.488281 148.574219 59.484375 C 149.460938 59.472656 150.171875 58.75 150.171875 57.859375 C 150.171875 56.96875 149.460938 56.246094 148.574219 56.234375 Z M 53.550781 135.769531 C 52.285156 134.601562 50.894531 133.640625 49.449219 132.910156 C 50.894531 132.183594 52.285156 131.222656 53.550781 130.050781 C 55.335938 128.40625 56.75 126.449219 57.746094 124.308594 C 58.738281 126.449219 60.15625 128.40625 61.941406 130.050781 C 63.207031 131.222656 64.59375 132.183594 66.042969 132.910156 C 64.59375 133.640625 63.207031 134.601562 61.941406 135.769531 C 60.15625 137.417969 58.738281 139.371094 57.746094 141.515625 C 56.753906 139.371094 55.335938 137.417969 53.550781 135.769531 Z M 138.828125 74.359375 L 138.828125 74.863281 C 138.828125 82.511719 135.765625 89.722656 130.425781 94.644531 C 130.144531 94.90625 129.960938 95.253906 129.914062 95.632812 C 129.417969 99.5 129.074219 103.710938 128.714844 108.164062 C 127.316406 125.488281 125.734375 145.121094 114.148438 154.597656 C 113.269531 155.316406 112.261719 155.570312 111.152344 155.351562 C 110.042969 155.136719 109.203125 154.515625 108.660156 153.523438 C 105.960938 148.578125 104.378906 142.851562 104.089844 136.972656 C 103.804688 131.207031 102.726562 126.308594 100.582031 121.082031 C 99.089844 117.433594 95.714844 115.167969 91.785156 115.167969 C 87.855469 115.167969 84.480469 117.433594 82.988281 121.082031 C 80.847656 126.308594 79.765625 131.210938 79.480469 136.972656 C 79.191406 142.851562 77.613281 148.578125 74.914062 153.523438 C 74.371094 154.519531 73.527344 155.136719 72.417969 155.351562 C 71.304688 155.570312 70.296875 155.316406 69.421875 154.597656 C 65.863281 151.6875 63.078125 147.695312 60.914062 142.417969 C 63.328125 137.636719 68.09375 134.609375 72.355469 134.539062 C 72.464844 134.539062 72.578125 134.539062 72.6875 134.539062 C 73.574219 134.523438 74.285156 133.800781 74.285156 132.910156 C 74.285156 132.023438 73.574219 131.300781 72.6875 131.285156 C 72.578125 131.28125 72.464844 131.28125 72.355469 131.285156 C 66.613281 131.1875 59.949219 125.734375 59.363281 117.828125 C 59.300781 116.980469 58.597656 116.320312 57.746094 116.320312 C 56.898438 116.320312 56.195312 116.976562 56.132812 117.828125 C 56.085938 118.433594 56.003906 119.023438 55.890625 119.597656 C 55.46875 115.765625 55.15625 111.925781 54.851562 108.164062 C 54.492188 103.710938 54.152344 99.503906 53.65625 95.636719 C 53.605469 95.257812 53.425781 94.90625 53.144531 94.648438 C 47.800781 89.726562 44.738281 82.511719 44.738281 74.867188 L 44.738281 74.363281 C 44.738281 61.785156 54.925781 51.347656 67.457031 51.082031 C 71.714844 51.15625 75.875 51.992188 79.8125 53.570312 C 87.757812 56.75 95.8125 56.75 103.75 53.570312 C 107.691406 51.992188 111.847656 51.15625 116.109375 51.082031 C 117.847656 51.117188 119.558594 51.351562 121.230469 51.773438 C 118.089844 54.558594 114.257812 56.183594 110.695312 56.238281 C 110.554688 56.234375 110.414062 56.234375 110.273438 56.238281 C 109.386719 56.253906 108.675781 56.976562 108.675781 57.863281 C 108.675781 58.753906 109.386719 59.476562 110.273438 59.492188 C 110.414062 59.492188 110.554688 59.492188 110.695312 59.492188 C 118.257812 59.617188 127.039062 66.785156 127.804688 77.171875 C 127.867188 78.019531 128.574219 78.679688 129.421875 78.679688 C 130.269531 78.679688 130.976562 78.023438 131.039062 77.171875 C 131.410156 72.136719 133.667969 67.859375 136.753906 64.773438 C 138.117188 67.769531 138.828125 71.046875 138.828125 74.359375 Z M 135.113281 61.863281 C 132.605469 64.179688 130.679688 66.972656 129.425781 70.042969 C 128.171875 66.972656 126.242188 64.179688 123.734375 61.863281 C 121.894531 60.167969 119.847656 58.816406 117.722656 57.863281 C 119.847656 56.90625 121.898438 55.554688 123.734375 53.859375 C 126.242188 51.542969 128.171875 48.753906 129.425781 45.683594 C 130.679688 48.753906 132.605469 51.542969 135.113281 53.859375 C 136.953125 55.554688 139 56.90625 141.125 57.863281 C 139 58.8125 136.953125 60.164062 135.113281 61.863281 Z M 43.664062 44.152344 C 43.726562 45 44.433594 45.65625 45.28125 45.65625 C 46.128906 45.65625 46.835938 45.003906 46.898438 44.152344 C 47.15625 40.65625 50.175781 38.523438 52.296875 38.480469 C 52.351562 38.480469 52.40625 38.480469 52.460938 38.480469 C 53.347656 38.464844 54.058594 37.742188 54.058594 36.851562 C 54.058594 35.964844 53.347656 35.242188 52.460938 35.226562 C 52.40625 35.226562 52.351562 35.226562 52.296875 35.226562 C 50.175781 35.179688 47.15625 33.054688 46.898438 29.554688 C 46.835938 28.707031 46.128906 28.050781 45.28125 28.050781 C 44.433594 28.050781 43.726562 28.707031 43.664062 29.558594 C 43.40625 33.054688 40.386719 35.183594 38.265625 35.230469 C 38.210938 35.230469 38.15625 35.230469 38.101562 35.230469 C 37.214844 35.242188 36.503906 35.964844 36.503906 36.855469 C 36.503906 37.746094 37.214844 38.46875 38.101562 38.480469 C 38.15625 38.480469 38.210938 38.480469 38.265625 38.480469 C 40.386719 38.523438 43.40625 40.65625 43.664062 44.152344 Z M 45.28125 34.457031 C 45.929688 35.410156 46.730469 36.21875 47.617188 36.855469 C 46.730469 37.492188 45.929688 38.300781 45.28125 39.253906 C 44.632812 38.300781 43.832031 37.492188 42.945312 36.855469 C 43.832031 36.21875 44.632812 35.410156 45.28125 34.457031 Z M 148.105469 129.949219 C 148.050781 129.949219 147.996094 129.949219 147.941406 129.949219 C 145.820312 129.902344 142.800781 127.777344 142.542969 124.277344 C 142.480469 123.429688 141.773438 122.769531 140.925781 122.769531 C 140.078125 122.769531 139.371094 123.425781 139.308594 124.277344 C 139.050781 127.773438 136.03125 129.902344 133.910156 129.949219 C 133.855469 129.949219 133.800781 129.949219 133.746094 129.949219 C 132.859375 129.964844 132.152344 130.6875 132.152344 131.574219 C 132.152344 132.464844 132.859375 133.1875 133.746094 133.203125 C 133.800781 133.203125 133.855469 133.203125 133.910156 133.203125 C 136.03125 133.246094 139.050781 135.375 139.308594 138.875 C 139.371094 139.722656 140.078125 140.382812 140.925781 140.382812 C 141.773438 140.382812 142.480469 139.726562 142.542969 138.875 C 142.800781 135.378906 145.820312 133.246094 147.941406 133.203125 C 147.996094 133.203125 148.050781 133.203125 148.105469 133.203125 C 148.992188 133.1875 149.703125 132.464844 149.703125 131.574219 C 149.703125 130.6875 148.992188 129.964844 148.105469 129.949219 Z M 140.925781 133.972656 C 140.277344 133.015625 139.476562 132.210938 138.589844 131.574219 C 139.476562 130.9375 140.277344 130.128906 140.925781 129.175781 C 141.574219 130.128906 142.378906 130.9375 143.261719 131.574219 C 142.378906 132.210938 141.574219 133.019531 140.925781 133.972656 Z M 140.925781 133.972656 " fill-opacity="1" fill-rule="nonzero"/></g></svg>