<svg xmlns="http://www.w3.org/2000/svg" xmlns:xlink="http://www.w3.org/1999/xlink" width="125" zoomAndPan="magnify" viewBox="0 0 94.079994 101.04" height="125" preserveAspectRatio="xMidYMid meet" version="1.0"><defs><clipPath id="d6bea0c82c"><path d="M 30.242188 27.867188 L 62.921875 27.867188 L 62.921875 65 L 30.242188 65 Z M 30.242188 27.867188 " clip-rule="nonzero"/></clipPath></defs><g clip-path="url(#d6bea0c82c)"><path fill="#000000" d="M 62.464844 35.863281 C 62.425781 35.863281 62.382812 35.863281 62.34375 35.863281 C 60.167969 35.828125 57.644531 33.792969 57.425781 30.847656 C 57.40625 30.605469 57.203125 30.417969 56.960938 30.417969 C 56.714844 30.417969 56.515625 30.605469 56.496094 30.847656 C 56.410156 32.007812 55.964844 33.027344 55.324219 33.839844 C 54.621094 33.613281 53.890625 33.492188 53.144531 33.476562 C 53.140625 33.476562 53.132812 33.476562 53.128906 33.476562 C 51.785156 33.5 50.476562 33.757812 49.238281 34.246094 C 47.152344 35.070312 45.128906 35.070312 43.046875 34.246094 C 41.804688 33.757812 40.496094 33.496094 39.15625 33.476562 C 39.148438 33.476562 39.144531 33.476562 39.136719 33.476562 C 37.144531 33.515625 35.273438 34.316406 33.867188 35.734375 C 32.460938 37.152344 31.6875 39.023438 31.6875 41.003906 L 31.6875 41.148438 C 31.6875 43.515625 32.628906 45.753906 34.277344 47.320312 C 34.40625 48.355469 34.5 49.480469 34.597656 50.671875 C 34.726562 52.25 34.859375 53.878906 35.09375 55.492188 C 34.347656 56.515625 33.199219 57.136719 32.160156 57.15625 C 32.125 57.152344 32.09375 57.152344 32.0625 57.15625 C 31.808594 57.160156 31.605469 57.363281 31.605469 57.617188 C 31.605469 57.867188 31.808594 58.074219 32.0625 58.078125 C 32.09375 58.078125 32.128906 58.078125 32.160156 58.078125 C 33.808594 58.105469 35.726562 59.652344 35.894531 61.894531 C 35.910156 62.136719 36.113281 62.324219 36.355469 62.324219 C 36.601562 62.324219 36.804688 62.136719 36.820312 61.894531 C 36.828125 61.804688 36.839844 61.714844 36.851562 61.628906 C 37.464844 62.808594 38.210938 63.75 39.121094 64.484375 C 39.59375 64.863281 40.15625 65.003906 40.753906 64.886719 C 41.347656 64.773438 41.816406 64.433594 42.109375 63.90625 C 42.953125 62.382812 43.445312 60.621094 43.535156 58.8125 C 43.609375 57.289062 43.898438 55.992188 44.472656 54.609375 C 44.757812 53.929688 45.394531 53.503906 46.140625 53.503906 C 46.886719 53.503906 47.523438 53.929688 47.808594 54.609375 C 48.378906 55.992188 48.667969 57.289062 48.746094 58.8125 C 48.835938 60.621094 49.328125 62.382812 50.171875 63.90625 C 50.464844 64.433594 50.933594 64.773438 51.527344 64.886719 C 51.664062 64.914062 51.796875 64.925781 51.929688 64.925781 C 52.375 64.925781 52.792969 64.777344 53.15625 64.484375 C 56.796875 61.546875 57.269531 55.769531 57.683594 50.671875 C 57.78125 49.480469 57.875 48.351562 58.003906 47.320312 C 59.652344 45.757812 60.59375 43.515625 60.59375 41.148438 L 60.59375 41.003906 C 60.59375 39.847656 60.324219 38.703125 59.804688 37.667969 C 60.601562 37.117188 61.5 36.796875 62.34375 36.785156 C 62.382812 36.785156 62.425781 36.785156 62.464844 36.785156 C 62.71875 36.78125 62.921875 36.574219 62.921875 36.324219 C 62.921875 36.070312 62.71875 35.867188 62.464844 35.863281 Z M 35.152344 58.425781 C 34.785156 58.097656 34.386719 57.824219 33.972656 57.617188 C 34.386719 57.410156 34.785156 57.136719 35.152344 56.804688 C 35.664062 56.335938 36.070312 55.78125 36.355469 55.175781 C 36.640625 55.78125 37.050781 56.335938 37.5625 56.804688 C 37.925781 57.136719 38.324219 57.410156 38.742188 57.617188 C 38.324219 57.824219 37.925781 58.097656 37.5625 58.425781 C 37.050781 58.894531 36.640625 59.449219 36.355469 60.058594 C 36.070312 59.449219 35.664062 58.894531 35.152344 58.425781 Z M 59.664062 41.003906 L 59.664062 41.148438 C 59.664062 43.316406 58.78125 45.363281 57.246094 46.757812 C 57.167969 46.832031 57.113281 46.933594 57.101562 47.039062 C 56.957031 48.136719 56.859375 49.332031 56.757812 50.59375 C 56.355469 55.511719 55.898438 61.078125 52.570312 63.769531 C 52.316406 63.972656 52.027344 64.042969 51.707031 63.980469 C 51.386719 63.921875 51.148438 63.746094 50.992188 63.464844 C 50.214844 62.058594 49.761719 60.4375 49.675781 58.769531 C 49.597656 57.132812 49.285156 55.742188 48.667969 54.261719 C 48.238281 53.226562 47.269531 52.582031 46.140625 52.582031 C 45.011719 52.582031 44.042969 53.226562 43.613281 54.261719 C 42.996094 55.742188 42.6875 57.132812 42.605469 58.769531 C 42.519531 60.4375 42.066406 62.058594 41.289062 63.464844 C 41.136719 63.746094 40.894531 63.921875 40.574219 63.980469 C 40.253906 64.042969 39.964844 63.972656 39.714844 63.769531 C 38.691406 62.941406 37.890625 61.808594 37.265625 60.3125 C 37.960938 58.957031 39.332031 58.097656 40.554688 58.078125 C 40.585938 58.078125 40.621094 58.078125 40.652344 58.078125 C 40.90625 58.074219 41.109375 57.867188 41.109375 57.617188 C 41.109375 57.363281 40.90625 57.160156 40.652344 57.15625 C 40.621094 57.152344 40.585938 57.152344 40.554688 57.15625 C 38.90625 57.128906 36.988281 55.578125 36.820312 53.335938 C 36.804688 53.097656 36.601562 52.910156 36.355469 52.910156 C 36.113281 52.910156 35.910156 53.09375 35.894531 53.335938 C 35.878906 53.507812 35.855469 53.675781 35.824219 53.839844 C 35.703125 52.753906 35.613281 51.660156 35.523438 50.59375 C 35.421875 49.332031 35.324219 48.136719 35.179688 47.039062 C 35.167969 46.933594 35.113281 46.832031 35.035156 46.761719 C 33.5 45.363281 32.617188 43.316406 32.617188 41.148438 L 32.617188 41.003906 C 32.617188 37.4375 35.546875 34.476562 39.148438 34.402344 C 40.371094 34.421875 41.566406 34.660156 42.699219 35.105469 C 44.984375 36.007812 47.296875 36.007812 49.582031 35.105469 C 50.710938 34.660156 51.90625 34.421875 53.132812 34.402344 C 53.632812 34.410156 54.125 34.476562 54.605469 34.597656 C 53.703125 35.386719 52.601562 35.847656 51.578125 35.863281 C 51.535156 35.863281 51.496094 35.863281 51.457031 35.863281 C 51.199219 35.867188 50.996094 36.074219 50.996094 36.324219 C 50.996094 36.578125 51.199219 36.78125 51.457031 36.785156 C 51.496094 36.785156 51.535156 36.785156 51.578125 36.785156 C 53.75 36.820312 56.273438 38.855469 56.496094 41.800781 C 56.511719 42.042969 56.714844 42.230469 56.957031 42.230469 C 57.203125 42.230469 57.40625 42.042969 57.421875 41.800781 C 57.53125 40.375 58.179688 39.160156 59.066406 38.285156 C 59.457031 39.136719 59.664062 40.066406 59.664062 41.003906 Z M 58.59375 37.460938 C 57.875 38.117188 57.320312 38.910156 56.960938 39.78125 C 56.597656 38.910156 56.042969 38.117188 55.324219 37.460938 C 54.796875 36.976562 54.207031 36.59375 53.597656 36.324219 C 54.207031 36.054688 54.796875 35.667969 55.324219 35.1875 C 56.042969 34.53125 56.597656 33.738281 56.960938 32.867188 C 57.320312 33.738281 57.875 34.53125 58.59375 35.1875 C 59.125 35.667969 59.710938 36.054688 60.324219 36.324219 C 59.710938 36.59375 59.125 36.976562 58.59375 37.460938 Z M 32.308594 32.433594 C 32.328125 32.675781 32.53125 32.863281 32.773438 32.863281 C 33.019531 32.863281 33.21875 32.675781 33.238281 32.433594 C 33.3125 31.441406 34.179688 30.839844 34.789062 30.824219 C 34.804688 30.824219 34.820312 30.824219 34.835938 30.824219 C 35.09375 30.820312 35.296875 30.617188 35.296875 30.363281 C 35.296875 30.113281 35.09375 29.90625 34.835938 29.902344 C 34.820312 29.902344 34.804688 29.902344 34.789062 29.902344 C 34.179688 29.890625 33.3125 29.285156 33.238281 28.292969 C 33.21875 28.050781 33.019531 27.867188 32.773438 27.867188 C 32.53125 27.867188 32.328125 28.050781 32.308594 28.292969 C 32.234375 29.285156 31.367188 29.890625 30.757812 29.902344 C 30.742188 29.902344 30.726562 29.902344 30.710938 29.902344 C 30.457031 29.90625 30.25 30.113281 30.25 30.363281 C 30.25 30.617188 30.457031 30.820312 30.710938 30.824219 C 30.726562 30.824219 30.742188 30.824219 30.757812 30.824219 C 31.367188 30.839844 32.234375 31.441406 32.308594 32.433594 Z M 32.773438 29.683594 C 32.960938 29.953125 33.191406 30.183594 33.445312 30.363281 C 33.191406 30.546875 32.960938 30.773438 32.773438 31.046875 C 32.585938 30.773438 32.355469 30.546875 32.101562 30.363281 C 32.355469 30.183594 32.585938 29.953125 32.773438 29.683594 Z M 62.328125 56.777344 C 62.3125 56.777344 62.296875 56.777344 62.28125 56.777344 C 61.671875 56.761719 60.804688 56.160156 60.730469 55.167969 C 60.710938 54.925781 60.507812 54.738281 60.265625 54.738281 C 60.023438 54.738281 59.820312 54.925781 59.800781 55.167969 C 59.726562 56.15625 58.859375 56.761719 58.25 56.777344 C 58.234375 56.777344 58.21875 56.777344 58.203125 56.777344 C 57.949219 56.78125 57.742188 56.984375 57.742188 57.238281 C 57.742188 57.488281 57.949219 57.695312 58.203125 57.699219 C 58.21875 57.699219 58.234375 57.699219 58.25 57.699219 C 58.859375 57.710938 59.726562 58.316406 59.800781 59.308594 C 59.820312 59.546875 60.023438 59.734375 60.265625 59.734375 C 60.507812 59.734375 60.710938 59.550781 60.730469 59.308594 C 60.804688 58.316406 61.671875 57.710938 62.28125 57.699219 C 62.296875 57.699219 62.3125 57.699219 62.328125 57.699219 C 62.582031 57.695312 62.789062 57.488281 62.789062 57.238281 C 62.789062 56.984375 62.582031 56.78125 62.328125 56.777344 Z M 60.265625 57.917969 C 60.078125 57.644531 59.847656 57.417969 59.59375 57.234375 C 59.847656 57.054688 60.078125 56.828125 60.265625 56.554688 C 60.453125 56.828125 60.683594 57.054688 60.9375 57.234375 C 60.683594 57.417969 60.453125 57.648438 60.265625 57.917969 Z M 60.265625 57.917969 " fill-opacity="1" fill-rule="nonzero"/></g></svg>