<svg xmlns="http://www.w3.org/2000/svg" xmlns:xlink="http://www.w3.org/1999/xlink" width="250" zoomAndPan="magnify" viewBox="0 0 187.5 187.499992" height="250" preserveAspectRatio="xMidYMid meet" version="1.0"><defs><clipPath id="0abdfb70de"><path d="M 60.914062 56.101562 L 125.992188 56.101562 L 125.992188 130.902344 L 60.914062 130.902344 Z M 60.914062 56.101562 " clip-rule="nonzero"/></clipPath></defs><g clip-path="url(#0abdfb70de)"><path fill="#000000" d="M 125.078125 72.207031 C 124.996094 72.203125 124.917969 72.203125 124.835938 72.207031 C 120.507812 72.136719 115.480469 68.039062 115.042969 62.101562 C 115.007812 61.617188 114.601562 61.242188 114.117188 61.242188 C 113.632812 61.242188 113.226562 61.617188 113.191406 62.101562 C 113.019531 64.441406 112.132812 66.496094 110.859375 68.128906 C 109.457031 67.675781 108 67.429688 106.519531 67.398438 C 106.507812 67.398438 106.496094 67.398438 106.484375 67.398438 C 103.8125 67.445312 101.207031 67.964844 98.738281 68.953125 C 94.589844 70.609375 90.558594 70.609375 86.410156 68.953125 C 83.941406 67.964844 81.332031 67.441406 78.664062 67.398438 C 78.652344 67.398438 78.640625 67.398438 78.628906 67.398438 C 74.65625 67.476562 70.929688 69.09375 68.132812 71.949219 C 65.332031 74.804688 63.789062 78.574219 63.789062 82.5625 L 63.789062 82.851562 C 63.789062 87.621094 65.664062 92.132812 68.949219 95.289062 C 69.207031 97.367188 69.390625 99.636719 69.582031 102.03125 C 69.839844 105.210938 70.105469 108.496094 70.574219 111.742188 C 69.089844 113.800781 66.804688 115.058594 64.730469 115.09375 C 64.664062 115.089844 64.601562 115.089844 64.539062 115.09375 C 64.03125 115.101562 63.625 115.511719 63.625 116.019531 C 63.625 116.53125 64.03125 116.941406 64.539062 116.949219 C 64.601562 116.953125 64.667969 116.953125 64.730469 116.949219 C 68.015625 117.007812 71.832031 120.125 72.164062 124.640625 C 72.199219 125.125 72.605469 125.503906 73.089844 125.503906 C 73.574219 125.503906 73.980469 125.128906 74.015625 124.640625 C 74.027344 124.457031 74.050781 124.277344 74.074219 124.101562 C 75.292969 126.476562 76.785156 128.375 78.597656 129.855469 C 79.53125 130.617188 80.65625 130.898438 81.839844 130.667969 C 83.027344 130.4375 83.960938 129.753906 84.542969 128.691406 C 86.222656 125.621094 87.203125 122.070312 87.382812 118.433594 C 87.535156 115.359375 88.109375 112.75 89.253906 109.96875 C 89.816406 108.59375 91.085938 107.742188 92.570312 107.742188 C 94.054688 107.742188 95.324219 108.59375 95.890625 109.96875 C 97.03125 112.75 97.609375 115.363281 97.757812 118.433594 C 97.9375 122.070312 98.921875 125.621094 100.601562 128.691406 C 101.179688 129.75 102.113281 130.4375 103.300781 130.667969 C 103.570312 130.722656 103.835938 130.746094 104.097656 130.746094 C 104.988281 130.746094 105.820312 130.445312 106.542969 129.855469 C 113.789062 123.941406 114.730469 112.300781 115.558594 102.03125 C 115.753906 99.636719 115.9375 97.363281 116.195312 95.289062 C 119.476562 92.132812 121.355469 87.621094 121.355469 82.851562 L 121.355469 82.5625 C 121.355469 80.230469 120.8125 77.925781 119.78125 75.847656 C 121.367188 74.730469 123.152344 74.089844 124.835938 74.0625 C 124.917969 74.066406 124.996094 74.066406 125.078125 74.0625 C 125.585938 74.054688 125.992188 73.640625 125.992188 73.132812 C 125.992188 72.625 125.585938 72.210938 125.078125 72.207031 Z M 70.6875 117.65625 C 69.964844 116.988281 69.167969 116.4375 68.339844 116.019531 C 69.167969 115.605469 69.964844 115.054688 70.6875 114.386719 C 71.710938 113.445312 72.519531 112.328125 73.089844 111.105469 C 73.65625 112.328125 74.46875 113.445312 75.492188 114.386719 C 76.214844 115.054688 77.007812 115.605469 77.839844 116.019531 C 77.007812 116.4375 76.214844 116.988281 75.492188 117.65625 C 74.46875 118.597656 73.65625 119.714844 73.089844 120.9375 C 72.519531 119.714844 71.710938 118.597656 70.6875 117.65625 Z M 119.5 82.5625 L 119.5 82.851562 C 119.5 87.222656 117.746094 91.34375 114.6875 94.152344 C 114.527344 94.304688 114.421875 94.503906 114.394531 94.71875 C 114.109375 96.929688 113.917969 99.335938 113.710938 101.878906 C 112.910156 111.78125 112.003906 123 105.371094 128.414062 C 104.871094 128.824219 104.292969 128.96875 103.65625 128.84375 C 103.023438 128.71875 102.539062 128.367188 102.230469 127.800781 C 100.683594 124.972656 99.78125 121.703125 99.613281 118.34375 C 99.453125 115.046875 98.835938 112.246094 97.609375 109.261719 C 96.753906 107.175781 94.824219 105.882812 92.574219 105.882812 C 90.324219 105.882812 88.390625 107.175781 87.539062 109.261719 C 86.3125 112.246094 85.691406 115.046875 85.53125 118.34375 C 85.363281 121.703125 84.460938 124.972656 82.914062 127.800781 C 82.605469 128.367188 82.125 128.71875 81.488281 128.84375 C 80.851562 128.96875 80.273438 128.824219 79.773438 128.414062 C 77.734375 126.75 76.140625 124.46875 74.902344 121.453125 C 76.285156 118.71875 79.011719 116.992188 81.449219 116.949219 C 81.515625 116.953125 81.578125 116.953125 81.640625 116.949219 C 82.148438 116.941406 82.554688 116.53125 82.554688 116.019531 C 82.554688 115.511719 82.148438 115.101562 81.640625 115.09375 C 81.578125 115.089844 81.515625 115.089844 81.449219 115.09375 C 78.164062 115.035156 74.351562 111.917969 74.015625 107.402344 C 73.980469 106.917969 73.574219 106.539062 73.089844 106.539062 C 72.605469 106.539062 72.199219 106.914062 72.164062 107.402344 C 72.140625 107.75 72.089844 108.085938 72.027344 108.414062 C 71.785156 106.222656 71.605469 104.027344 71.433594 101.878906 C 71.226562 99.335938 71.03125 96.929688 70.746094 94.722656 C 70.71875 94.503906 70.617188 94.304688 70.457031 94.15625 C 67.398438 91.34375 65.644531 87.222656 65.644531 82.851562 L 65.644531 82.5625 C 65.644531 75.375 71.476562 69.414062 78.648438 69.261719 C 81.085938 69.304688 83.464844 69.78125 85.71875 70.683594 C 90.265625 72.5 94.875 72.5 99.421875 70.683594 C 101.675781 69.78125 104.054688 69.304688 106.496094 69.261719 C 107.488281 69.28125 108.46875 69.414062 109.425781 69.65625 C 107.628906 71.246094 105.4375 72.175781 103.394531 72.207031 C 103.316406 72.207031 103.234375 72.207031 103.15625 72.207031 C 102.648438 72.214844 102.242188 72.628906 102.242188 73.136719 C 102.242188 73.644531 102.648438 74.058594 103.15625 74.066406 C 103.234375 74.066406 103.316406 74.066406 103.394531 74.066406 C 107.722656 74.136719 112.75 78.234375 113.191406 84.171875 C 113.226562 84.65625 113.628906 85.03125 114.113281 85.03125 C 114.601562 85.03125 115.003906 84.65625 115.039062 84.171875 C 115.253906 81.292969 116.542969 78.847656 118.3125 77.085938 C 119.089844 78.796875 119.5 80.671875 119.5 82.5625 Z M 117.371094 75.421875 C 115.9375 76.746094 114.832031 78.339844 114.117188 80.09375 C 113.398438 78.339844 112.292969 76.746094 110.859375 75.421875 C 109.804688 74.453125 108.636719 73.679688 107.417969 73.136719 C 108.636719 72.589844 109.808594 71.816406 110.859375 70.847656 C 112.292969 69.527344 113.398438 67.929688 114.117188 66.175781 C 114.832031 67.929688 115.9375 69.527344 117.371094 70.847656 C 118.425781 71.816406 119.597656 72.589844 120.8125 73.136719 C 119.597656 73.679688 118.425781 74.453125 117.371094 75.421875 Z M 65.03125 65.300781 C 65.066406 65.785156 65.46875 66.160156 65.953125 66.160156 C 66.441406 66.160156 66.84375 65.789062 66.878906 65.300781 C 67.027344 63.304688 68.753906 62.085938 69.972656 62.058594 C 70.003906 62.058594 70.03125 62.058594 70.0625 62.058594 C 70.570312 62.050781 70.976562 61.636719 70.976562 61.128906 C 70.976562 60.621094 70.570312 60.210938 70.0625 60.203125 C 70.03125 60.203125 70.003906 60.203125 69.972656 60.203125 C 68.757812 60.175781 67.027344 58.960938 66.878906 56.960938 C 66.84375 56.476562 66.441406 56.101562 65.953125 56.101562 C 65.46875 56.101562 65.066406 56.476562 65.03125 56.960938 C 64.882812 58.960938 63.152344 60.175781 61.9375 60.203125 C 61.90625 60.203125 61.878906 60.203125 61.847656 60.203125 C 61.339844 60.210938 60.933594 60.625 60.933594 61.132812 C 60.933594 61.640625 61.339844 62.054688 61.847656 62.0625 C 61.878906 62.0625 61.90625 62.0625 61.9375 62.0625 C 63.152344 62.085938 64.882812 63.304688 65.03125 65.300781 Z M 65.953125 59.761719 C 66.328125 60.304688 66.785156 60.769531 67.292969 61.132812 C 66.785156 61.496094 66.328125 61.957031 65.953125 62.503906 C 65.582031 61.957031 65.125 61.496094 64.617188 61.132812 C 65.125 60.769531 65.582031 60.304688 65.953125 59.761719 Z M 124.808594 114.328125 C 124.777344 114.328125 124.746094 114.328125 124.714844 114.328125 C 123.5 114.300781 121.773438 113.085938 121.625 111.085938 C 121.589844 110.601562 121.183594 110.226562 120.699219 110.226562 C 120.214844 110.226562 119.808594 110.601562 119.773438 111.085938 C 119.625 113.085938 117.898438 114.300781 116.683594 114.328125 C 116.652344 114.328125 116.621094 114.328125 116.589844 114.328125 C 116.082031 114.335938 115.675781 114.75 115.675781 115.257812 C 115.675781 115.765625 116.082031 116.179688 116.589844 116.1875 C 116.621094 116.1875 116.652344 116.1875 116.683594 116.1875 C 117.898438 116.214844 119.625 117.429688 119.773438 119.429688 C 119.808594 119.914062 120.214844 120.289062 120.699219 120.289062 C 121.183594 120.289062 121.589844 119.914062 121.625 119.429688 C 121.773438 117.429688 123.5 116.214844 124.714844 116.1875 C 124.746094 116.1875 124.777344 116.1875 124.808594 116.1875 C 125.316406 116.179688 125.722656 115.765625 125.722656 115.257812 C 125.722656 114.75 125.316406 114.335938 124.808594 114.328125 Z M 120.699219 116.625 C 120.328125 116.082031 119.867188 115.621094 119.363281 115.257812 C 119.867188 114.890625 120.328125 114.429688 120.699219 113.886719 C 121.070312 114.429688 121.53125 114.890625 122.035156 115.257812 C 121.53125 115.621094 121.070312 116.082031 120.699219 116.625 Z M 120.699219 116.625 " fill-opacity="1" fill-rule="nonzero"/></g></svg>