<svg xmlns="http://www.w3.org/2000/svg" xmlns:xlink="http://www.w3.org/1999/xlink" width="250" zoomAndPan="magnify" viewBox="0 0 187.5 187.499992" height="250" preserveAspectRatio="xMidYMid meet" version="1.0"><defs><clipPath id="730067baf4"><path d="M 56 38.113281 L 74 38.113281 L 74 65 L 56 65 Z M 56 38.113281 " clip-rule="nonzero"/></clipPath><clipPath id="aecf5e12c5"><path d="M 28.050781 68 L 50 68 L 50 88 L 28.050781 88 Z M 28.050781 68 " clip-rule="nonzero"/></clipPath><clipPath id="e61cc2caa7"><path d="M 140 110 L 158.675781 110 L 158.675781 130.855469 L 140 130.855469 Z M 140 110 " clip-rule="nonzero"/></clipPath><clipPath id="688ea9ef1c"><path d="M 100.523438 111.480469 L 139 111.480469 L 139 148.816406 L 100.523438 148.816406 Z M 100.523438 111.480469 " clip-rule="nonzero"/></clipPath></defs><path fill="#110f0d" d="M 87.117188 57.003906 C 85.742188 54.671875 83.988281 53.421875 81.886719 53.285156 C 79.730469 53.234375 77.878906 54.328125 76.375 56.554688 C 74.878906 58.84375 74.066406 61.582031 73.964844 64.691406 C 73.855469 67.875 74.53125 70.542969 75.949219 72.597656 C 76.683594 73.796875 77.503906 74.703125 78.464844 75.367188 C 79.328125 75.96875 80.28125 76.285156 81.296875 76.308594 L 81.371094 76.3125 C 83.433594 76.363281 85.253906 75.257812 86.773438 73.035156 C 88.328125 70.894531 89.144531 68.171875 89.199219 64.964844 C 89.351562 61.941406 88.648438 59.25 87.117188 57.003906 " fill-opacity="1" fill-rule="nonzero"/><path fill="#110f0d" d="M 76.65625 76.589844 C 71.539062 71.320312 66.519531 69.074219 61.785156 69.921875 L 61.707031 69.941406 C 61.089844 70.160156 60.480469 70.425781 59.898438 70.738281 C 55.851562 72.894531 52.722656 77.335938 50.597656 83.9375 C 49.878906 86.222656 49.253906 88.726562 48.742188 91.394531 C 48.152344 95.664062 48.214844 99.144531 48.941406 101.777344 C 50.089844 105.046875 52.082031 106.742188 54.863281 106.8125 C 57.421875 106.878906 60.691406 105.511719 64.605469 102.734375 C 66.488281 101.238281 68.539062 100.503906 70.714844 100.5625 C 70.988281 100.570312 71.265625 100.585938 71.566406 100.621094 C 72.207031 100.664062 72.839844 100.691406 73.441406 100.707031 C 77.003906 100.796875 79.902344 100.410156 82.050781 99.554688 C 84.226562 98.734375 85.648438 97.460938 86.273438 95.777344 C 87.113281 93.507812 86.535156 90.589844 84.476562 86.828125 C 81.820312 82.644531 79.191406 79.203125 76.65625 76.589844 " fill-opacity="1" fill-rule="nonzero"/><g clip-path="url(#730067baf4)"><path fill="#110f0d" d="M 58.515625 59.984375 C 60.105469 62.675781 62.136719 64.066406 64.542969 64.128906 L 64.5625 64.128906 C 66.925781 64.105469 68.988281 62.816406 70.683594 60.320312 C 72.535156 57.867188 73.480469 54.847656 73.492188 51.34375 C 73.53125 47.753906 72.777344 44.679688 71.253906 42.203125 C 69.648438 39.585938 67.636719 38.226562 65.269531 38.167969 L 65.195312 38.167969 C 62.898438 38.136719 60.792969 39.355469 58.941406 41.792969 L 58.910156 41.835938 C 57.324219 44.441406 56.496094 47.40625 56.386719 50.886719 C 56.3125 52.640625 56.492188 54.316406 56.910156 55.847656 C 57.230469 57.265625 57.769531 58.65625 58.515625 59.984375 " fill-opacity="1" fill-rule="nonzero"/></g><g clip-path="url(#aecf5e12c5)"><path fill="#110f0d" d="M 48.78125 78.453125 C 48.027344 76.257812 46.609375 74.316406 44.464844 72.53125 C 44.289062 72.375 44.097656 72.230469 43.90625 72.082031 C 43.796875 72 43.691406 71.921875 43.582031 71.835938 C 41.234375 69.976562 38.667969 69 35.957031 68.929688 L 35.878906 68.929688 C 33.195312 68.671875 31.175781 69.371094 29.847656 71.015625 C 28.5625 72.722656 28.386719 74.875 29.328125 77.421875 C 30.308594 79.945312 32.066406 82.1875 34.558594 84.082031 C 35.996094 85.160156 37.425781 85.945312 38.804688 86.417969 C 39.953125 86.796875 41.089844 87.003906 42.160156 87.027344 C 42.160156 87.03125 42.164062 87.03125 42.164062 87.03125 C 42.320312 87.039062 42.472656 87.046875 42.625 87.050781 C 43.824219 87.078125 44.917969 86.921875 45.882812 86.582031 C 46.878906 86.210938 47.695312 85.621094 48.304688 84.820312 C 49.5625 83.167969 49.71875 81.023438 48.78125 78.453125 " fill-opacity="1" fill-rule="nonzero"/></g><path fill="#110f0d" d="M 38.191406 60.648438 C 39.164062 62.214844 40.21875 63.472656 41.394531 64.472656 C 42.457031 65.511719 43.679688 66.367188 45.03125 67.019531 L 45.242188 67.113281 C 45.605469 67.273438 45.945312 67.425781 46.300781 67.546875 C 47.195312 67.855469 48.058594 68.019531 48.875 68.042969 C 50.136719 68.074219 51.304688 67.757812 52.363281 67.09375 C 54.320312 65.765625 55.304688 63.550781 55.304688 60.539062 C 55.484375 57.484375 54.59375 54.449219 52.652344 51.527344 C 51.824219 50.265625 50.90625 49.132812 49.929688 48.160156 C 48.605469 46.847656 47.234375 45.863281 45.722656 45.140625 C 42.933594 43.875 40.476562 43.890625 38.441406 45.183594 C 36.527344 46.414062 35.453125 48.59375 35.242188 51.660156 L 35.238281 51.683594 L 35.242188 51.714844 C 35.371094 54.707031 36.363281 57.714844 38.191406 60.648438 " fill-opacity="1" fill-rule="nonzero"/><g clip-path="url(#e61cc2caa7)"><path fill="#110f0d" d="M 156.640625 111.300781 C 154.949219 109.96875 152.804688 109.742188 150.269531 110.621094 C 147.703125 111.558594 145.414062 113.265625 143.464844 115.695312 C 141.472656 118.179688 140.414062 120.71875 140.316406 123.214844 C 140.183594 124.613281 140.300781 125.835938 140.671875 126.9375 C 141 127.933594 141.578125 128.761719 142.375 129.390625 L 142.433594 129.433594 C 144.054688 130.710938 146.175781 130.914062 148.726562 130.042969 C 151.253906 129.257812 153.535156 127.566406 155.503906 125.03125 C 157.4375 122.699219 158.484375 120.125 158.605469 117.414062 C 158.902344 114.722656 158.246094 112.671875 156.640625 111.300781 " fill-opacity="1" fill-rule="nonzero"/></g><g clip-path="url(#688ea9ef1c)"><path fill="#110f0d" d="M 130.578125 112.59375 L 130.5 112.566406 C 129.875 112.371094 129.226562 112.21875 128.574219 112.121094 C 124.042969 111.425781 118.875 113.109375 113.21875 117.125 C 111.273438 118.523438 109.273438 120.152344 107.265625 121.988281 C 104.234375 125.050781 102.199219 127.875 101.203125 130.421875 C 100.160156 133.726562 100.738281 136.277344 102.925781 137.996094 C 104.933594 139.582031 108.375 140.445312 113.171875 140.5625 C 115.574219 140.488281 117.660156 141.132812 119.367188 142.476562 C 119.582031 142.648438 119.792969 142.828125 120.011719 143.035156 C 120.503906 143.453125 120.988281 143.855469 121.460938 144.226562 C 124.261719 146.429688 126.816406 147.851562 129.046875 148.457031 C 131.285156 149.097656 133.183594 148.933594 134.691406 147.960938 C 136.726562 146.640625 138.011719 143.957031 138.621094 139.714844 C 138.996094 134.777344 138.953125 130.441406 138.492188 126.835938 C 137.550781 119.550781 134.878906 114.75 130.578125 112.59375 " fill-opacity="1" fill-rule="nonzero"/></g><path fill="#110f0d" d="M 136.257812 109.605469 L 136.265625 109.613281 L 136.273438 109.617188 C 138.175781 111.011719 140.601562 111.21875 143.457031 110.230469 C 146.410156 109.375 148.972656 107.523438 151.082031 104.722656 C 153.265625 101.871094 154.503906 98.957031 154.773438 96.0625 C 155.050781 93.007812 154.253906 90.714844 152.394531 89.25 L 152.335938 89.207031 C 150.515625 87.804688 148.097656 87.523438 145.15625 88.367188 L 145.105469 88.382812 C 142.273438 89.519531 139.835938 91.398438 137.65625 94.117188 C 136.550781 95.480469 135.691406 96.929688 135.105469 98.40625 C 134.511719 99.734375 134.113281 101.167969 133.910156 102.679688 C 133.574219 105.785156 134.363281 108.113281 136.257812 109.605469 " fill-opacity="1" fill-rule="nonzero"/><path fill="#110f0d" d="M 104.609375 114.550781 C 104.730469 114.65625 104.847656 114.75 104.96875 114.847656 C 105.910156 115.585938 106.878906 116.117188 107.855469 116.417969 C 108.878906 116.722656 109.886719 116.734375 110.851562 116.460938 C 112.847656 115.890625 114.261719 114.269531 115.050781 111.648438 C 115.761719 109.433594 115.789062 107.035156 115.144531 104.316406 C 115.09375 104.085938 115.027344 103.859375 114.960938 103.621094 C 114.925781 103.496094 114.886719 103.367188 114.851562 103.230469 C 114.085938 100.339844 112.621094 98.023438 110.488281 96.34375 L 110.425781 96.296875 C 108.429688 94.488281 106.394531 93.835938 104.34375 94.359375 C 102.292969 94.957031 100.863281 96.574219 100.089844 99.179688 C 99.359375 101.785156 99.425781 104.632812 100.285156 107.640625 C 100.792969 109.363281 101.464844 110.847656 102.289062 112.054688 C 102.980469 113.042969 103.765625 113.890625 104.609375 114.550781 " fill-opacity="1" fill-rule="nonzero"/><path fill="#110f0d" d="M 118.898438 100.242188 L 119.011719 100.445312 C 119.207031 100.792969 119.386719 101.117188 119.597656 101.425781 C 120.128906 102.207031 120.722656 102.859375 121.363281 103.363281 C 122.351562 104.144531 123.476562 104.589844 124.726562 104.695312 C 127.085938 104.800781 129.207031 103.617188 131.007812 101.203125 C 132.984375 98.863281 134.085938 95.902344 134.285156 92.398438 C 134.378906 90.890625 134.324219 89.433594 134.121094 88.070312 C 133.847656 86.230469 133.335938 84.621094 132.5625 83.136719 C 131.085938 80.453125 129.109375 78.992188 126.707031 78.8125 C 124.433594 78.652344 122.269531 79.753906 120.261719 82.082031 L 120.246094 82.101562 L 120.230469 82.128906 C 118.539062 84.601562 117.535156 87.605469 117.238281 91.046875 C 117.074219 92.882812 117.167969 94.523438 117.511719 96.027344 C 117.742188 97.5 118.207031 98.910156 118.898438 100.242188 " fill-opacity="1" fill-rule="nonzero"/></svg>