<svg xmlns="http://www.w3.org/2000/svg" xmlns:xlink="http://www.w3.org/1999/xlink" width="250" zoomAndPan="magnify" viewBox="0 0 187.5 187.499992" height="250" preserveAspectRatio="xMidYMid meet" version="1.0"><defs><clipPath id="92503e67cd"><path d="M 72 61.851562 L 83 61.851562 L 83 77 L 72 77 Z M 72 61.851562 " clip-rule="nonzero"/></clipPath><clipPath id="ef13eb6e40"><path d="M 56.101562 79 L 69 79 L 69 90 L 56.101562 90 Z M 56.101562 79 " clip-rule="nonzero"/></clipPath><clipPath id="c3d9cf5d38"><path d="M 120 103.085938 L 130.746094 103.085938 L 130.746094 115 L 120 115 Z M 120 103.085938 " clip-rule="nonzero"/></clipPath><clipPath id="9958842aa6"><path d="M 97.511719 104 L 119.671875 104 L 119.671875 125.429688 L 97.511719 125.429688 Z M 97.511719 104 " clip-rule="nonzero"/></clipPath></defs><path fill="#110f0d" d="M 89.851562 72.699219 C 89.066406 71.363281 88.066406 70.644531 86.863281 70.566406 C 85.632812 70.535156 84.574219 71.164062 83.714844 72.441406 C 82.859375 73.757812 82.394531 75.328125 82.335938 77.113281 C 82.277344 78.941406 82.660156 80.476562 83.472656 81.65625 C 83.890625 82.34375 84.359375 82.867188 84.90625 83.246094 C 85.402344 83.589844 85.949219 83.773438 86.527344 83.789062 L 86.570312 83.789062 C 87.75 83.820312 88.789062 83.183594 89.65625 81.90625 C 90.542969 80.675781 91.011719 79.113281 91.042969 77.273438 C 91.128906 75.535156 90.726562 73.992188 89.851562 72.699219 " fill-opacity="1" fill-rule="nonzero"/><path fill="#110f0d" d="M 83.875 83.949219 C 80.953125 80.921875 78.082031 79.632812 75.378906 80.117188 L 75.332031 80.128906 C 74.980469 80.257812 74.632812 80.410156 74.300781 80.585938 C 71.988281 81.828125 70.199219 84.378906 68.984375 88.167969 C 68.574219 89.480469 68.21875 90.917969 67.925781 92.453125 C 67.585938 94.902344 67.625 96.902344 68.039062 98.414062 C 68.695312 100.292969 69.832031 101.265625 71.421875 101.308594 C 72.882812 101.34375 74.753906 100.558594 76.988281 98.964844 C 78.0625 98.105469 79.238281 97.683594 80.480469 97.71875 C 80.636719 97.71875 80.792969 97.730469 80.964844 97.75 C 81.332031 97.773438 81.695312 97.789062 82.039062 97.800781 C 84.074219 97.851562 85.730469 97.628906 86.957031 97.140625 C 88.203125 96.667969 89.015625 95.9375 89.371094 94.96875 C 89.851562 93.664062 89.519531 91.988281 88.34375 89.828125 C 86.824219 87.425781 85.324219 85.449219 83.875 83.949219 " fill-opacity="1" fill-rule="nonzero"/><g clip-path="url(#92503e67cd)"><path fill="#110f0d" d="M 73.507812 74.414062 C 74.417969 75.957031 75.578125 76.757812 76.953125 76.792969 L 76.964844 76.792969 C 78.3125 76.777344 79.492188 76.039062 80.460938 74.605469 C 81.519531 73.195312 82.058594 71.460938 82.066406 69.449219 C 82.089844 67.386719 81.660156 65.621094 80.789062 64.199219 C 79.871094 62.695312 78.71875 61.914062 77.367188 61.882812 L 77.324219 61.882812 C 76.011719 61.863281 74.8125 62.566406 73.753906 63.964844 L 73.734375 63.988281 C 72.828125 65.484375 72.355469 67.1875 72.292969 69.1875 C 72.25 70.195312 72.351562 71.15625 72.589844 72.035156 C 72.773438 72.851562 73.082031 73.648438 73.507812 74.414062 " fill-opacity="1" fill-rule="nonzero"/></g><g clip-path="url(#ef13eb6e40)"><path fill="#110f0d" d="M 67.949219 85.019531 C 67.515625 83.757812 66.707031 82.644531 65.480469 81.617188 C 65.378906 81.527344 65.269531 81.445312 65.160156 81.359375 C 65.097656 81.3125 65.039062 81.265625 64.976562 81.21875 C 63.636719 80.148438 62.167969 79.589844 60.617188 79.550781 L 60.574219 79.550781 C 59.039062 79.402344 57.886719 79.804688 57.128906 80.746094 C 56.394531 81.726562 56.292969 82.964844 56.828125 84.425781 C 57.390625 85.875 58.394531 87.164062 59.820312 88.253906 C 60.640625 88.871094 61.457031 89.320312 62.246094 89.59375 C 62.902344 89.808594 63.550781 89.929688 64.164062 89.945312 C 64.253906 89.949219 64.34375 89.953125 64.429688 89.957031 C 65.113281 89.972656 65.738281 89.882812 66.289062 89.6875 C 66.859375 89.472656 67.324219 89.132812 67.675781 88.675781 C 68.390625 87.726562 68.484375 86.496094 67.949219 85.019531 " fill-opacity="1" fill-rule="nonzero"/></g><path fill="#110f0d" d="M 61.894531 74.792969 C 62.449219 75.691406 63.054688 76.414062 63.726562 76.988281 C 64.332031 77.585938 65.03125 78.078125 65.804688 78.453125 L 65.925781 78.507812 C 66.132812 78.597656 66.328125 78.6875 66.527344 78.753906 C 67.039062 78.933594 67.535156 79.027344 68 79.039062 C 68.722656 79.058594 69.386719 78.878906 69.996094 78.496094 C 71.113281 77.734375 71.675781 76.460938 71.675781 74.730469 C 71.777344 72.976562 71.265625 71.234375 70.160156 69.554688 C 69.683594 68.828125 69.160156 68.179688 68.601562 67.621094 C 67.847656 66.867188 67.0625 66.304688 66.199219 65.886719 C 64.605469 65.160156 63.203125 65.167969 62.039062 65.910156 C 60.945312 66.617188 60.328125 67.867188 60.210938 69.628906 L 60.207031 69.644531 L 60.210938 69.660156 C 60.285156 71.382812 60.851562 73.109375 61.894531 74.792969 " fill-opacity="1" fill-rule="nonzero"/><g clip-path="url(#c3d9cf5d38)"><path fill="#110f0d" d="M 129.582031 103.886719 C 128.613281 103.121094 127.390625 102.988281 125.941406 103.496094 C 124.472656 104.03125 123.164062 105.011719 122.050781 106.40625 C 120.914062 107.835938 120.308594 109.292969 120.253906 110.726562 C 120.175781 111.53125 120.242188 112.230469 120.453125 112.867188 C 120.644531 113.4375 120.972656 113.910156 121.429688 114.273438 L 121.460938 114.296875 C 122.386719 115.03125 123.601562 115.148438 125.058594 114.648438 C 126.5 114.199219 127.808594 113.226562 128.929688 111.769531 C 130.035156 110.429688 130.632812 108.953125 130.703125 107.394531 C 130.871094 105.847656 130.5 104.671875 129.582031 103.886719 " fill-opacity="1" fill-rule="nonzero"/></g><g clip-path="url(#9958842aa6)"><path fill="#110f0d" d="M 114.6875 104.628906 L 114.644531 104.609375 C 114.285156 104.5 113.917969 104.410156 113.542969 104.355469 C 110.953125 103.957031 108 104.921875 104.769531 107.226562 C 103.65625 108.03125 102.515625 108.96875 101.367188 110.023438 C 99.636719 111.78125 98.472656 113.402344 97.902344 114.863281 C 97.308594 116.761719 97.636719 118.226562 98.886719 119.214844 C 100.035156 120.125 102 120.621094 104.742188 120.691406 C 106.113281 120.648438 107.304688 121.015625 108.28125 121.789062 C 108.402344 121.886719 108.523438 121.992188 108.652344 122.109375 C 108.929688 122.351562 109.207031 122.578125 109.480469 122.792969 C 111.078125 124.058594 112.539062 124.875 113.8125 125.222656 C 115.09375 125.59375 116.175781 125.496094 117.039062 124.9375 C 118.203125 124.179688 118.9375 122.640625 119.28125 120.203125 C 119.496094 117.367188 119.472656 114.878906 119.210938 112.804688 C 118.671875 108.621094 117.144531 105.867188 114.6875 104.628906 " fill-opacity="1" fill-rule="nonzero"/></g><path fill="#110f0d" d="M 117.933594 102.910156 L 117.941406 102.917969 C 119.03125 103.71875 120.417969 103.835938 122.046875 103.269531 C 123.734375 102.777344 125.199219 101.714844 126.40625 100.105469 C 127.652344 98.46875 128.359375 96.792969 128.511719 95.132812 C 128.671875 93.378906 128.214844 92.058594 127.15625 91.21875 L 127.121094 91.195312 C 126.082031 90.390625 124.699219 90.226562 123.015625 90.710938 L 122.988281 90.722656 C 121.371094 91.375 119.976562 92.453125 118.734375 94.015625 C 118.101562 94.796875 117.609375 95.628906 117.273438 96.480469 C 116.9375 97.242188 116.707031 98.066406 116.589844 98.933594 C 116.398438 100.714844 116.851562 102.054688 117.933594 102.910156 " fill-opacity="1" fill-rule="nonzero"/><path fill="#110f0d" d="M 99.847656 105.75 C 99.917969 105.808594 99.984375 105.867188 100.054688 105.921875 C 100.59375 106.347656 101.144531 106.648438 101.703125 106.824219 C 102.289062 106.996094 102.863281 107.003906 103.417969 106.847656 C 104.558594 106.519531 105.363281 105.589844 105.816406 104.082031 C 106.222656 102.8125 106.238281 101.433594 105.867188 99.875 C 105.839844 99.742188 105.800781 99.609375 105.765625 99.472656 C 105.742188 99.402344 105.722656 99.328125 105.703125 99.25 C 105.265625 97.589844 104.425781 96.257812 103.207031 95.292969 L 103.171875 95.265625 C 102.03125 94.226562 100.867188 93.855469 99.695312 94.15625 C 98.523438 94.496094 97.707031 95.425781 97.265625 96.921875 C 96.847656 98.417969 96.886719 100.054688 97.378906 101.78125 C 97.667969 102.773438 98.050781 103.625 98.523438 104.316406 C 98.917969 104.886719 99.367188 105.371094 99.847656 105.75 " fill-opacity="1" fill-rule="nonzero"/><path fill="#110f0d" d="M 108.011719 97.535156 L 108.078125 97.648438 C 108.191406 97.847656 108.292969 98.035156 108.414062 98.210938 C 108.71875 98.660156 109.054688 99.035156 109.421875 99.328125 C 109.988281 99.773438 110.628906 100.03125 111.34375 100.089844 C 112.691406 100.148438 113.90625 99.472656 114.933594 98.085938 C 116.0625 96.742188 116.691406 95.039062 116.804688 93.027344 C 116.859375 92.164062 116.828125 91.324219 116.714844 90.542969 C 116.554688 89.484375 116.265625 88.5625 115.820312 87.707031 C 114.976562 86.167969 113.847656 85.328125 112.476562 85.226562 C 111.175781 85.132812 109.941406 85.765625 108.792969 87.101562 L 108.78125 87.113281 L 108.773438 87.128906 C 107.808594 88.550781 107.234375 90.273438 107.066406 92.25 C 106.972656 93.304688 107.023438 94.25 107.222656 95.113281 C 107.351562 95.957031 107.617188 96.769531 108.011719 97.535156 " fill-opacity="1" fill-rule="nonzero"/></svg>