<svg xmlns="http://www.w3.org/2000/svg" xmlns:xlink="http://www.w3.org/1999/xlink" width="125" zoomAndPan="magnify" viewBox="0 0 94.079994 101.04" height="125" preserveAspectRatio="xMidYMid meet" version="1.0"><defs><clipPath id="154fb092b3"><path d="M 35 30.722656 L 41 30.722656 L 41 39 L 35 39 Z M 35 30.722656 " clip-rule="nonzero"/></clipPath><clipPath id="fe33213b5f"><path d="M 59.5625 51 L 64.910156 51 L 64.910156 56.855469 L 59.5625 56.855469 Z M 59.5625 51 " clip-rule="nonzero"/></clipPath><clipPath id="757eef44f1"><path d="M 48.414062 51.394531 L 59.414062 51.394531 L 59.414062 61.917969 L 48.414062 61.917969 Z M 48.414062 51.394531 " clip-rule="nonzero"/></clipPath></defs><path fill="#110f0d" d="M 44.609375 36.042969 C 44.21875 35.386719 43.722656 35.035156 43.125 34.996094 C 42.515625 34.980469 41.988281 35.292969 41.5625 35.917969 C 41.136719 36.5625 40.90625 37.335938 40.878906 38.210938 C 40.847656 39.109375 41.039062 39.859375 41.441406 40.4375 C 41.648438 40.777344 41.882812 41.03125 42.15625 41.21875 C 42.398438 41.386719 42.671875 41.476562 42.960938 41.484375 L 42.980469 41.484375 C 43.566406 41.5 44.082031 41.1875 44.511719 40.5625 C 44.953125 39.957031 45.183594 39.191406 45.199219 38.289062 C 45.246094 37.433594 45.042969 36.679688 44.609375 36.042969 " fill-opacity="1" fill-rule="nonzero"/><path fill="#110f0d" d="M 41.640625 41.5625 C 40.191406 40.078125 38.765625 39.445312 37.421875 39.683594 L 37.402344 39.691406 C 37.226562 39.753906 37.050781 39.828125 36.886719 39.914062 C 35.738281 40.523438 34.851562 41.773438 34.25 43.632812 C 34.046875 44.277344 33.867188 44.984375 33.722656 45.734375 C 33.554688 46.9375 33.574219 47.917969 33.78125 48.660156 C 34.105469 49.582031 34.671875 50.058594 35.460938 50.082031 C 36.183594 50.097656 37.113281 49.714844 38.222656 48.929688 C 38.757812 48.507812 39.339844 48.300781 39.957031 48.320312 C 40.035156 48.320312 40.113281 48.324219 40.199219 48.335938 C 40.378906 48.347656 40.558594 48.355469 40.730469 48.359375 C 41.742188 48.386719 42.5625 48.277344 43.171875 48.035156 C 43.789062 47.804688 44.195312 47.445312 44.371094 46.96875 C 44.609375 46.332031 44.445312 45.507812 43.859375 44.449219 C 43.105469 43.269531 42.359375 42.300781 41.640625 41.5625 " fill-opacity="1" fill-rule="nonzero"/><g clip-path="url(#154fb092b3)"><path fill="#110f0d" d="M 36.496094 36.886719 C 36.945312 37.640625 37.523438 38.035156 38.207031 38.050781 L 38.210938 38.050781 C 38.882812 38.046875 39.464844 37.683594 39.949219 36.980469 C 40.472656 36.289062 40.742188 35.4375 40.746094 34.449219 C 40.753906 33.4375 40.542969 32.570312 40.109375 31.875 C 39.652344 31.136719 39.082031 30.753906 38.410156 30.738281 L 38.390625 30.738281 C 37.738281 30.726562 37.140625 31.070312 36.617188 31.757812 L 36.609375 31.769531 C 36.15625 32.503906 35.921875 33.339844 35.890625 34.320312 C 35.871094 34.816406 35.921875 35.285156 36.039062 35.71875 C 36.132812 36.117188 36.285156 36.507812 36.496094 36.886719 " fill-opacity="1" fill-rule="nonzero"/></g><path fill="#110f0d" d="M 33.734375 42.089844 C 33.519531 41.46875 33.117188 40.921875 32.511719 40.417969 C 32.460938 40.375 32.40625 40.335938 32.351562 40.292969 C 32.320312 40.269531 32.289062 40.246094 32.257812 40.222656 C 31.59375 39.699219 30.867188 39.425781 30.097656 39.40625 L 30.074219 39.40625 C 29.3125 39.332031 28.738281 39.53125 28.363281 39.992188 C 28 40.472656 27.949219 41.082031 28.214844 41.796875 C 28.492188 42.507812 28.992188 43.140625 29.699219 43.675781 C 30.105469 43.976562 30.511719 44.199219 30.902344 44.332031 C 31.230469 44.4375 31.550781 44.496094 31.855469 44.503906 C 31.902344 44.507812 31.945312 44.511719 31.988281 44.511719 C 32.328125 44.519531 32.636719 44.476562 32.910156 44.378906 C 33.195312 44.273438 33.425781 44.109375 33.597656 43.882812 C 33.957031 43.417969 34 42.8125 33.734375 42.089844 " fill-opacity="1" fill-rule="nonzero"/><path fill="#110f0d" d="M 30.730469 37.070312 C 31.003906 37.511719 31.304688 37.867188 31.636719 38.148438 C 31.941406 38.441406 32.285156 38.683594 32.671875 38.867188 L 32.730469 38.894531 C 32.832031 38.9375 32.929688 38.980469 33.03125 39.015625 C 33.285156 39.101562 33.53125 39.148438 33.761719 39.15625 C 34.117188 39.164062 34.449219 39.074219 34.75 38.886719 C 35.304688 38.515625 35.585938 37.890625 35.585938 37.042969 C 35.636719 36.179688 35.382812 35.324219 34.832031 34.5 C 34.597656 34.144531 34.335938 33.828125 34.058594 33.550781 C 33.683594 33.183594 33.296875 32.90625 32.867188 32.703125 C 32.074219 32.34375 31.378906 32.347656 30.800781 32.714844 C 30.257812 33.0625 29.953125 33.675781 29.890625 34.539062 L 29.890625 34.554688 C 29.929688 35.398438 30.210938 36.246094 30.730469 37.070312 " fill-opacity="1" fill-rule="nonzero"/><g clip-path="url(#fe33213b5f)"><path fill="#110f0d" d="M 64.335938 51.34375 C 63.855469 50.96875 63.246094 50.90625 62.527344 51.152344 C 61.796875 51.417969 61.148438 51.898438 60.597656 52.582031 C 60.03125 53.28125 59.730469 54 59.703125 54.703125 C 59.664062 55.097656 59.699219 55.441406 59.804688 55.75 C 59.898438 56.03125 60.058594 56.265625 60.285156 56.441406 L 60.304688 56.453125 C 60.761719 56.8125 61.363281 56.871094 62.089844 56.625 C 62.804688 56.40625 63.453125 55.929688 64.011719 55.214844 C 64.558594 54.558594 64.855469 53.832031 64.890625 53.066406 C 64.976562 52.308594 64.789062 51.730469 64.335938 51.34375 " fill-opacity="1" fill-rule="nonzero"/></g><g clip-path="url(#757eef44f1)"><path fill="#110f0d" d="M 56.941406 51.710938 L 56.917969 51.699219 C 56.742188 51.644531 56.558594 51.601562 56.371094 51.574219 C 55.085938 51.378906 53.621094 51.855469 52.015625 52.984375 C 51.464844 53.378906 50.894531 53.839844 50.324219 54.355469 C 49.464844 55.21875 48.890625 56.015625 48.605469 56.730469 C 48.3125 57.664062 48.476562 58.382812 49.09375 58.867188 C 49.664062 59.3125 50.640625 59.554688 52 59.589844 C 52.683594 59.570312 53.273438 59.75 53.757812 60.128906 C 53.820312 60.175781 53.878906 60.230469 53.941406 60.285156 C 54.082031 60.40625 54.21875 60.515625 54.355469 60.621094 C 55.148438 61.242188 55.871094 61.644531 56.503906 61.816406 C 57.140625 61.996094 57.679688 61.949219 58.109375 61.675781 C 58.683594 61.304688 59.050781 60.546875 59.222656 59.351562 C 59.328125 57.960938 59.316406 56.738281 59.183594 55.722656 C 58.917969 53.667969 58.160156 52.316406 56.941406 51.710938 " fill-opacity="1" fill-rule="nonzero"/></g><path fill="#110f0d" d="M 58.550781 50.867188 L 58.554688 50.867188 L 58.554688 50.871094 C 59.097656 51.261719 59.785156 51.320312 60.59375 51.042969 C 61.429688 50.800781 62.160156 50.28125 62.757812 49.492188 C 63.375 48.6875 63.726562 47.867188 63.804688 47.050781 C 63.882812 46.1875 63.65625 45.542969 63.128906 45.132812 L 63.113281 45.117188 C 62.597656 44.722656 61.910156 44.644531 61.074219 44.882812 L 61.0625 44.886719 C 60.257812 45.207031 59.566406 45.738281 58.949219 46.503906 C 58.632812 46.886719 58.390625 47.296875 58.222656 47.710938 C 58.054688 48.085938 57.941406 48.488281 57.886719 48.914062 C 57.789062 49.789062 58.015625 50.445312 58.550781 50.867188 " fill-opacity="1" fill-rule="nonzero"/><path fill="#110f0d" d="M 49.570312 52.261719 C 49.574219 52.261719 49.574219 52.261719 49.574219 52.261719 C 49.605469 52.289062 49.640625 52.316406 49.675781 52.34375 C 49.941406 52.550781 50.214844 52.703125 50.492188 52.785156 C 50.785156 52.871094 51.070312 52.875 51.34375 52.796875 C 51.910156 52.636719 52.3125 52.179688 52.535156 51.441406 C 52.738281 50.820312 52.746094 50.140625 52.5625 49.378906 C 52.546875 49.3125 52.527344 49.246094 52.507812 49.179688 C 52.5 49.144531 52.488281 49.109375 52.480469 49.070312 C 52.261719 48.257812 51.84375 47.601562 51.238281 47.128906 L 51.222656 47.117188 C 50.65625 46.605469 50.078125 46.421875 49.496094 46.570312 C 48.914062 46.738281 48.507812 47.195312 48.289062 47.929688 C 48.082031 48.664062 48.101562 49.464844 48.347656 50.3125 C 48.492188 50.800781 48.679688 51.21875 48.914062 51.554688 C 49.109375 51.835938 49.332031 52.074219 49.570312 52.261719 " fill-opacity="1" fill-rule="nonzero"/><path fill="#110f0d" d="M 53.625 48.230469 L 53.660156 48.285156 C 53.714844 48.382812 53.765625 48.476562 53.824219 48.5625 C 53.976562 48.78125 54.144531 48.964844 54.324219 49.109375 C 54.605469 49.328125 54.925781 49.453125 55.28125 49.484375 C 55.949219 49.511719 56.550781 49.179688 57.0625 48.5 C 57.621094 47.839844 57.9375 47.003906 57.992188 46.019531 C 58.019531 45.59375 58.003906 45.183594 57.945312 44.796875 C 57.867188 44.28125 57.722656 43.828125 57.503906 43.40625 C 57.085938 42.652344 56.523438 42.242188 55.839844 42.191406 C 55.195312 42.144531 54.582031 42.453125 54.011719 43.109375 L 54.003906 43.125 C 53.523438 43.820312 53.238281 44.667969 53.15625 45.636719 C 53.109375 46.15625 53.136719 46.617188 53.234375 47.039062 C 53.296875 47.457031 53.429688 47.855469 53.625 48.230469 " fill-opacity="1" fill-rule="nonzero"/></svg>