<svg xmlns="http://www.w3.org/2000/svg" xmlns:xlink="http://www.w3.org/1999/xlink" width="250" zoomAndPan="magnify" viewBox="0 0 187.5 187.499992" height="250" preserveAspectRatio="xMidYMid meet" version="1.0"><defs><clipPath id="dc2969da55"><path d="M 28.050781 63 L 143 63 L 143 111 L 28.050781 111 Z M 28.050781 63 " clip-rule="nonzero"/></clipPath><clipPath id="233b80a372"><path d="M 30 47.382812 L 158.917969 47.382812 L 158.917969 126.722656 L 30 126.722656 Z M 30 47.382812 " clip-rule="nonzero"/></clipPath><clipPath id="9eec25e848"><path d="M 39.164062 120.53125 L 146.269531 120.53125 L 146.269531 139.386719 L 39.164062 139.386719 Z M 39.164062 120.53125 " clip-rule="nonzero"/></clipPath></defs><g clip-path="url(#dc2969da55)"><path fill="#100f0d" d="M 28.082031 105.277344 C 28.082031 105.277344 28.148438 105.144531 28.277344 104.886719 C 28.410156 104.632812 28.605469 104.253906 28.875 103.765625 C 29.414062 102.792969 30.21875 101.371094 31.328125 99.613281 C 32.433594 97.851562 33.84375 95.753906 35.574219 93.421875 C 37.304688 91.089844 39.363281 88.535156 41.773438 85.886719 C 42.980469 84.5625 44.277344 83.21875 45.667969 81.875 C 47.058594 80.53125 48.546875 79.191406 50.128906 77.871094 C 53.292969 75.234375 56.855469 72.695312 60.8125 70.507812 C 62.789062 69.410156 64.867188 68.410156 67.027344 67.53125 C 67.296875 67.421875 67.570312 67.3125 67.839844 67.203125 C 67.976562 67.144531 68.113281 67.097656 68.25 67.046875 L 68.664062 66.894531 C 68.941406 66.792969 69.214844 66.691406 69.492188 66.589844 C 69.628906 66.539062 69.769531 66.492188 69.910156 66.445312 L 70.332031 66.308594 C 70.613281 66.214844 70.890625 66.125 71.175781 66.03125 L 71.386719 65.964844 L 72.027344 65.777344 C 72.3125 65.695312 72.597656 65.613281 72.882812 65.53125 L 73.097656 65.46875 L 73.316406 65.414062 L 73.75 65.304688 C 76.058594 64.714844 78.433594 64.269531 80.839844 64.019531 C 83.246094 63.769531 85.679688 63.691406 88.105469 63.792969 C 90.535156 63.898438 92.949219 64.195312 95.320312 64.644531 C 95.617188 64.699219 95.914062 64.75 96.210938 64.8125 C 96.503906 64.878906 96.796875 64.945312 97.089844 65.011719 C 97.382812 65.078125 97.675781 65.144531 97.96875 65.210938 L 98.191406 65.261719 C 98.261719 65.277344 98.335938 65.296875 98.40625 65.316406 L 98.84375 65.433594 C 99.421875 65.589844 100 65.742188 100.578125 65.90625 C 101.167969 66.082031 101.738281 66.273438 102.300781 66.472656 C 103.429688 66.878906 104.53125 67.320312 105.609375 67.792969 C 106.691406 68.269531 107.75 68.773438 108.785156 69.304688 C 110.855469 70.363281 112.847656 71.515625 114.734375 72.75 C 118.519531 75.210938 121.917969 77.96875 124.882812 80.84375 C 126.359375 82.28125 127.738281 83.738281 129.003906 85.207031 C 130.269531 86.675781 131.429688 88.144531 132.484375 89.597656 C 133.542969 91.046875 134.496094 92.480469 135.351562 93.871094 C 136.207031 95.261719 136.984375 96.601562 137.65625 97.890625 C 137.742188 98.050781 137.824219 98.210938 137.910156 98.367188 C 137.992188 98.523438 138.070312 98.683594 138.148438 98.839844 C 138.308594 99.15625 138.464844 99.460938 138.617188 99.765625 C 138.765625 100.070312 138.90625 100.371094 139.050781 100.667969 C 139.121094 100.8125 139.1875 100.960938 139.257812 101.105469 C 139.292969 101.175781 139.324219 101.25 139.359375 101.320312 C 139.390625 101.394531 139.425781 101.464844 139.457031 101.535156 C 139.976562 102.679688 140.429688 103.738281 140.816406 104.703125 C 141.597656 106.632812 142.105469 108.1875 142.464844 109.238281 C 142.796875 110.300781 142.972656 110.867188 142.972656 110.867188 C 142.972656 110.867188 142.753906 110.316406 142.34375 109.28125 C 142.238281 109.023438 142.117188 108.738281 141.988281 108.425781 C 141.921875 108.265625 141.851562 108.101562 141.78125 107.929688 C 141.710938 107.757812 141.636719 107.582031 141.550781 107.398438 C 141.390625 107.03125 141.214844 106.632812 141.027344 106.214844 C 140.839844 105.792969 140.625 105.351562 140.410156 104.882812 C 139.523438 103.011719 138.386719 100.769531 136.914062 98.304688 C 136.183594 97.066406 135.363281 95.777344 134.457031 94.449219 C 133.550781 93.117188 132.566406 91.746094 131.46875 90.363281 C 129.289062 87.597656 126.714844 84.761719 123.742188 82.042969 C 120.773438 79.320312 117.402344 76.714844 113.683594 74.390625 C 111.824219 73.230469 109.878906 72.136719 107.859375 71.136719 C 106.847656 70.636719 105.820312 70.167969 104.773438 69.722656 C 103.730469 69.273438 102.664062 68.859375 101.589844 68.480469 C 101.054688 68.296875 100.507812 68.117188 99.976562 67.964844 C 99.421875 67.8125 98.863281 67.671875 98.304688 67.527344 L 97.886719 67.417969 C 97.816406 67.398438 97.746094 67.378906 97.675781 67.363281 L 97.464844 67.316406 C 97.183594 67.253906 96.898438 67.191406 96.617188 67.128906 C 96.335938 67.066406 96.054688 67.003906 95.769531 66.941406 C 95.488281 66.882812 95.203125 66.835938 94.917969 66.785156 C 92.640625 66.359375 90.328125 66.082031 88.007812 65.984375 C 83.371094 65.777344 78.710938 66.265625 74.269531 67.367188 L 73.855469 67.46875 L 73.644531 67.519531 L 73.441406 67.578125 C 73.164062 67.652344 72.890625 67.730469 72.617188 67.808594 L 72.203125 67.921875 L 72 67.980469 L 71.796875 68.042969 C 71.523438 68.128906 71.253906 68.214844 70.984375 68.300781 L 70.578125 68.429688 C 70.441406 68.46875 70.308594 68.511719 70.175781 68.5625 C 69.90625 68.65625 69.640625 68.75 69.375 68.84375 L 68.972656 68.984375 C 68.839844 69.027344 68.707031 69.074219 68.578125 69.128906 C 68.3125 69.230469 68.050781 69.332031 67.789062 69.433594 C 65.695312 70.25 63.679688 71.191406 61.742188 72.214844 C 57.871094 74.265625 54.339844 76.65625 51.167969 79.148438 C 47.992188 81.640625 45.175781 84.238281 42.695312 86.757812 C 41.453125 88.015625 40.300781 89.257812 39.222656 90.460938 C 38.148438 91.660156 37.15625 92.828125 36.242188 93.9375 C 34.414062 96.164062 32.898438 98.171875 31.695312 99.855469 C 31.089844 100.699219 30.566406 101.457031 30.109375 102.125 C 29.660156 102.789062 29.285156 103.363281 28.984375 103.832031 C 28.382812 104.765625 28.082031 105.277344 28.082031 105.277344 " fill-opacity="1" fill-rule="nonzero"/></g><g clip-path="url(#233b80a372)"><path fill="#100f0d" d="M 158.914062 104.925781 C 158.640625 105.4375 146.167969 128.53125 127.769531 109.199219 C 127.769531 109.199219 122.867188 101.816406 114.175781 95.507812 C 115.316406 98.195312 115.949219 101.152344 115.949219 104.253906 C 115.949219 114.464844 109.105469 123.078125 99.742188 125.777344 C 100.210938 125.597656 100.699219 125.378906 101.195312 125.117188 C 102.132812 124.617188 103.097656 123.96875 104.027344 123.171875 C 104.953125 122.375 105.84375 121.433594 106.65625 120.382812 C 107.464844 119.332031 108.199219 118.171875 108.828125 116.9375 C 109.460938 115.703125 109.988281 114.398438 110.414062 113.066406 C 110.511719 112.730469 110.617188 112.398438 110.710938 112.0625 C 110.800781 111.726562 110.882812 111.386719 110.96875 111.050781 C 111.042969 110.710938 111.113281 110.371094 111.179688 110.035156 C 111.21875 109.867188 111.242188 109.695312 111.273438 109.527344 C 111.300781 109.355469 111.328125 109.1875 111.355469 109.019531 C 111.566406 107.664062 111.671875 106.328125 111.691406 105.027344 C 111.691406 104.699219 111.6875 104.371094 111.683594 104.046875 L 111.683594 103.925781 L 111.679688 103.8125 C 111.675781 103.734375 111.671875 103.660156 111.667969 103.585938 C 111.660156 103.433594 111.652344 103.285156 111.644531 103.136719 C 111.636719 102.976562 111.628906 102.820312 111.621094 102.664062 C 111.609375 102.511719 111.597656 102.359375 111.582031 102.210938 C 111.5625 101.90625 111.523438 101.609375 111.492188 101.316406 C 111.351562 100.144531 111.140625 99.046875 110.890625 98.054688 C 110.640625 97.058594 110.355469 96.164062 110.0625 95.390625 C 109.773438 94.613281 109.472656 93.957031 109.210938 93.425781 C 109.144531 93.292969 109.082031 93.167969 109.023438 93.050781 C 108.960938 92.933594 108.898438 92.824219 108.84375 92.726562 C 108.734375 92.523438 108.636719 92.351562 108.554688 92.21875 C 108.472656 92.085938 108.410156 91.980469 108.367188 91.914062 C 108.324219 91.84375 108.300781 91.808594 108.300781 91.804688 C 108.300781 91.808594 108.316406 91.976562 108.355469 92.289062 C 108.394531 92.601562 108.445312 93.054688 108.507812 93.632812 C 108.5625 94.207031 108.636719 94.898438 108.683594 95.691406 C 108.734375 96.484375 108.777344 97.371094 108.792969 98.335938 C 108.804688 99.296875 108.792969 100.332031 108.738281 101.421875 C 108.71875 101.695312 108.710938 101.96875 108.691406 102.25 C 108.679688 102.386719 108.671875 102.527344 108.660156 102.667969 L 108.660156 102.695312 C 108.660156 102.71875 108.660156 102.683594 108.660156 102.683594 L 108.65625 102.695312 L 108.652344 102.753906 L 108.644531 102.863281 C 108.636719 102.9375 108.628906 103.011719 108.621094 103.085938 C 108.609375 103.234375 108.597656 103.382812 108.585938 103.53125 C 108.578125 103.605469 108.574219 103.683594 108.566406 103.757812 L 108.558594 103.871094 L 108.542969 103.976562 C 108.511719 104.257812 108.476562 104.539062 108.445312 104.824219 C 108.296875 105.988281 108.101562 107.1875 107.851562 108.386719 C 107.785156 108.683594 107.726562 108.984375 107.65625 109.285156 C 107.578125 109.582031 107.503906 109.882812 107.433594 110.183594 C 107.351562 110.480469 107.265625 110.777344 107.183594 111.078125 C 107.101562 111.375 107.003906 111.667969 106.914062 111.964844 C 106.542969 113.140625 106.105469 114.292969 105.613281 115.398438 C 105.117188 116.5 104.570312 117.554688 103.972656 118.535156 C 103.378906 119.511719 102.734375 120.417969 102.066406 121.226562 C 101.394531 122.035156 100.695312 122.75 100 123.363281 C 99.300781 123.96875 98.605469 124.464844 97.953125 124.875 C 97.785156 124.976562 97.628906 125.074219 97.472656 125.167969 C 97.394531 125.214844 97.3125 125.25 97.238281 125.292969 C 97.160156 125.332031 97.085938 125.375 97.011719 125.414062 C 96.859375 125.492188 96.71875 125.574219 96.574219 125.632812 C 96.433594 125.695312 96.296875 125.761719 96.167969 125.820312 C 96.105469 125.851562 96.042969 125.882812 95.980469 125.90625 C 95.914062 125.933594 95.855469 125.957031 95.796875 125.980469 C 95.675781 126.027344 95.566406 126.074219 95.460938 126.113281 C 95.253906 126.203125 95.070312 126.257812 94.921875 126.308594 C 94.539062 126.445312 94.152344 126.574219 93.75 126.628906 C 93.328125 126.6875 92.90625 126.648438 92.484375 126.632812 C 91.777344 126.601562 91.074219 126.535156 90.371094 126.4375 C 89.683594 126.34375 89 126.214844 88.320312 126.058594 C 87.652344 125.898438 86.992188 125.710938 86.339844 125.492188 C 85.695312 125.277344 85.0625 125.03125 84.441406 124.757812 C 83.824219 124.484375 83.21875 124.1875 82.625 123.859375 C 82.039062 123.535156 81.464844 123.183594 80.910156 122.808594 C 80.355469 122.433594 79.820312 122.035156 79.300781 121.609375 C 78.785156 121.1875 78.285156 120.746094 77.808594 120.277344 C 77.328125 119.8125 76.871094 119.328125 76.4375 118.820312 C 76 118.3125 75.589844 117.789062 75.199219 117.242188 C 74.8125 116.699219 74.445312 116.136719 74.105469 115.558594 C 73.765625 114.980469 73.453125 114.382812 73.164062 113.773438 C 72.875 113.164062 72.617188 112.535156 72.382812 111.902344 C 72.152344 111.257812 71.945312 110.605469 71.773438 109.945312 C 71.597656 109.277344 71.453125 108.597656 71.339844 107.917969 C 71.226562 107.222656 71.144531 106.527344 71.097656 105.824219 C 71.058594 105.300781 71.042969 104.777344 71.042969 104.253906 C 71.042969 98.042969 73.578125 92.421875 77.667969 88.367188 C 75.558594 88.980469 73.398438 89.777344 71.1875 90.785156 C 71.1875 90.785156 67.476562 92.675781 62.296875 95.6875 C 62.1875 95.75 62.078125 95.816406 61.96875 95.878906 C 57.949219 98.234375 54.664062 101.535156 51.316406 104.691406 C 47.992188 107.824219 44.332031 110.296875 41.976562 114.34375 C 41.265625 115.574219 40.691406 116.882812 39.871094 118.042969 C 38.164062 120.46875 34.285156 123.472656 31.324219 121.59375 C 27.640625 119.253906 32.6875 115.121094 34.601562 113.585938 C 36.332031 112.195312 37.683594 110.648438 39.203125 109.070312 C 43.027344 105.101562 47.644531 102.03125 52 98.703125 C 54.988281 96.414062 58 94.15625 61.042969 91.941406 C 61.042969 91.941406 61.484375 81.621094 54.222656 73.054688 C 54.351562 73.15625 62.824219 79.710938 65.226562 88.648438 C 65.226562 88.648438 75.378906 76.589844 67.675781 62.757812 C 67.804688 62.941406 76.691406 75.554688 75.597656 83.835938 C 75.597656 83.835938 82.640625 70.007812 76.8125 59.246094 C 76.976562 59.496094 82.949219 68.648438 81.320312 81.859375 C 81.320312 81.859375 93.648438 64.074219 86.5 53.207031 C 86.660156 53.398438 93.65625 61.769531 88.730469 80.761719 C 88.730469 80.761719 101.023438 73.515625 94.089844 47.382812 C 94.171875 47.558594 101.867188 63.945312 94.859375 80.652344 C 94.859375 80.652344 108.179688 71.976562 105.425781 48.371094 C 105.425781 48.371094 109.597656 62.972656 100.027344 81.421875 C 100.027344 81.421875 111.261719 78.566406 110.160156 49.359375 C 110.160156 49.359375 113.242188 65.28125 104.328125 82.957031 C 104.328125 82.957031 116.652344 68.902344 116.433594 49.6875 C 116.433594 49.6875 118.746094 63.085938 108.070312 83.945312 C 108.210938 83.863281 128.089844 72.386719 124.910156 52.542969 C 124.910156 52.542969 129.203125 69.5625 112.582031 86.691406 C 112.582031 86.691406 130.523438 84.386719 130.742188 57.921875 C 130.742188 57.921875 132.835938 79.664062 116.546875 89.65625 C 116.785156 89.582031 144.042969 81 140.097656 60.117188 C 140.097656 60.117188 146.589844 77.796875 120.398438 92.949219 C 120.59375 92.878906 145.59375 83.902344 148.132812 71.550781 C 148.050781 72.027344 145.550781 86.183594 123.585938 95.6875 C 123.585938 95.6875 138.667969 98.878906 148.902344 80.214844 C 148.902344 80.214844 143.289062 96.574219 127.550781 99.210938 C 127.550781 99.210938 142.738281 103.382812 153.964844 85.925781 C 153.871094 86.15625 147.667969 100.875 130.414062 103.382812 C 130.414062 103.382812 147.359375 112.164062 158.917969 96.683594 C 158.8125 96.882812 151.621094 110.070312 132.613281 108.980469 C 132.613281 108.980469 147.796875 122.261719 158.914062 104.925781 " fill-opacity="1" fill-rule="nonzero"/></g><path fill="#ffffff" d="M 100.894531 104.019531 C 100.894531 105.597656 99.621094 106.875 98.054688 106.875 C 96.484375 106.875 95.214844 105.597656 95.214844 104.019531 C 95.214844 102.445312 96.484375 101.164062 98.054688 101.164062 C 99.621094 101.164062 100.894531 102.445312 100.894531 104.019531 " fill-opacity="1" fill-rule="nonzero"/><path fill="#ffffff" d="M 83.6875 92.496094 C 83.6875 92.496094 83.742188 92.429688 83.84375 92.304688 C 83.898438 92.246094 83.960938 92.167969 84.039062 92.082031 C 84.117188 91.996094 84.214844 91.898438 84.320312 91.792969 C 84.375 91.738281 84.429688 91.679688 84.492188 91.625 C 84.558594 91.570312 84.625 91.511719 84.691406 91.453125 C 84.761719 91.390625 84.835938 91.328125 84.910156 91.265625 C 84.988281 91.203125 85.070312 91.140625 85.152344 91.078125 C 85.238281 91.011719 85.324219 90.945312 85.417969 90.878906 C 85.511719 90.816406 85.609375 90.753906 85.707031 90.6875 C 85.902344 90.546875 86.125 90.425781 86.351562 90.292969 C 86.460938 90.222656 86.582031 90.164062 86.703125 90.105469 C 86.824219 90.042969 86.949219 89.980469 87.078125 89.914062 C 87.207031 89.855469 87.339844 89.796875 87.472656 89.738281 C 87.539062 89.710938 87.605469 89.679688 87.675781 89.648438 C 87.742188 89.621094 87.8125 89.59375 87.882812 89.566406 C 88.023438 89.511719 88.167969 89.460938 88.3125 89.40625 C 88.457031 89.355469 88.609375 89.308594 88.757812 89.257812 C 88.832031 89.234375 88.910156 89.207031 88.984375 89.183594 C 89.0625 89.160156 89.140625 89.140625 89.21875 89.121094 C 89.375 89.078125 89.53125 89.035156 89.691406 88.992188 C 89.851562 88.957031 90.015625 88.917969 90.175781 88.882812 C 90.261719 88.867188 90.34375 88.847656 90.425781 88.832031 C 90.507812 88.816406 90.589844 88.804688 90.675781 88.789062 C 90.839844 88.761719 91.007812 88.730469 91.179688 88.703125 C 91.347656 88.683594 91.519531 88.664062 91.691406 88.644531 C 91.777344 88.632812 91.863281 88.621094 91.949219 88.613281 C 92.035156 88.605469 92.125 88.601562 92.210938 88.59375 C 92.382812 88.582031 92.558594 88.566406 92.730469 88.558594 C 92.90625 88.554688 93.082031 88.550781 93.257812 88.542969 L 93.390625 88.542969 L 93.457031 88.53125 L 93.472656 88.523438 L 93.5 88.523438 L 93.53125 88.53125 L 93.789062 88.539062 L 94.300781 88.554688 C 94.476562 88.566406 94.65625 88.582031 94.832031 88.59375 L 95.097656 88.613281 C 95.183594 88.617188 95.269531 88.632812 95.359375 88.644531 C 95.53125 88.664062 95.703125 88.6875 95.875 88.707031 C 96.558594 88.8125 97.226562 88.945312 97.863281 89.132812 C 98.496094 89.304688 99.09375 89.535156 99.648438 89.769531 C 100.199219 90.023438 100.707031 90.28125 101.152344 90.566406 C 101.261719 90.636719 101.371094 90.707031 101.476562 90.773438 C 101.578125 90.847656 101.679688 90.921875 101.773438 90.992188 C 101.871094 91.0625 101.96875 91.125 102.054688 91.199219 C 102.140625 91.273438 102.226562 91.34375 102.308594 91.410156 C 102.386719 91.480469 102.46875 91.542969 102.539062 91.613281 C 102.613281 91.683594 102.679688 91.75 102.746094 91.8125 C 102.8125 91.875 102.875 91.9375 102.933594 91.996094 C 102.992188 92.058594 103.042969 92.121094 103.09375 92.175781 C 103.195312 92.289062 103.285156 92.390625 103.359375 92.480469 C 103.429688 92.578125 103.488281 92.65625 103.535156 92.722656 C 103.628906 92.851562 103.679688 92.921875 103.679688 92.921875 C 103.679688 92.921875 103.613281 92.867188 103.488281 92.765625 C 103.429688 92.714844 103.351562 92.648438 103.265625 92.574219 C 103.171875 92.503906 103.0625 92.429688 102.945312 92.339844 C 102.886719 92.296875 102.824219 92.25 102.757812 92.199219 C 102.691406 92.15625 102.621094 92.109375 102.542969 92.058594 C 102.46875 92.011719 102.394531 91.960938 102.3125 91.90625 C 102.234375 91.851562 102.144531 91.808594 102.058594 91.753906 C 101.972656 91.703125 101.878906 91.652344 101.785156 91.597656 C 101.695312 91.539062 101.59375 91.496094 101.492188 91.441406 C 101.390625 91.386719 101.289062 91.335938 101.179688 91.277344 C 101.074219 91.230469 100.960938 91.179688 100.847656 91.128906 C 100.730469 91.078125 100.621094 91.015625 100.5 90.972656 C 100.378906 90.921875 100.257812 90.875 100.132812 90.824219 C 100.070312 90.800781 100.007812 90.773438 99.941406 90.75 C 99.878906 90.726562 99.8125 90.703125 99.746094 90.679688 C 99.617188 90.636719 99.484375 90.589844 99.351562 90.542969 C 98.808594 90.371094 98.230469 90.199219 97.621094 90.078125 C 97.546875 90.058594 97.472656 90.042969 97.394531 90.027344 L 97.28125 90.003906 L 97.164062 89.980469 C 97.007812 89.953125 96.851562 89.925781 96.695312 89.898438 C 96.539062 89.867188 96.378906 89.851562 96.21875 89.828125 C 96.058594 89.808594 95.898438 89.78125 95.738281 89.765625 C 95.414062 89.734375 95.085938 89.695312 94.761719 89.679688 C 94.601562 89.671875 94.4375 89.660156 94.273438 89.652344 L 93.761719 89.640625 L 93.507812 89.636719 L 93.476562 89.632812 C 93.460938 89.632812 93.484375 89.632812 93.480469 89.632812 L 93.457031 89.632812 L 93.269531 89.636719 C 93.105469 89.640625 92.941406 89.640625 92.777344 89.644531 C 92.609375 89.652344 92.445312 89.660156 92.28125 89.667969 C 92.199219 89.671875 92.117188 89.675781 92.039062 89.679688 C 91.957031 89.6875 91.875 89.695312 91.792969 89.703125 C 91.144531 89.746094 90.507812 89.84375 89.894531 89.941406 C 89.742188 89.972656 89.59375 90.003906 89.441406 90.03125 C 89.367188 90.046875 89.292969 90.0625 89.21875 90.078125 C 89.144531 90.09375 89.070312 90.113281 89 90.128906 C 88.855469 90.164062 88.710938 90.195312 88.566406 90.230469 C 88.425781 90.273438 88.289062 90.3125 88.148438 90.347656 C 88.082031 90.367188 88.011719 90.386719 87.945312 90.402344 C 87.878906 90.425781 87.8125 90.445312 87.746094 90.46875 C 87.613281 90.511719 87.484375 90.550781 87.355469 90.59375 C 87.230469 90.636719 87.105469 90.683594 86.980469 90.726562 C 86.859375 90.773438 86.738281 90.816406 86.625 90.863281 C 86.394531 90.960938 86.171875 91.046875 85.964844 91.148438 C 85.859375 91.195312 85.761719 91.242188 85.660156 91.289062 C 85.566406 91.335938 85.472656 91.386719 85.382812 91.433594 C 85.289062 91.480469 85.203125 91.527344 85.117188 91.570312 C 85.035156 91.617188 84.953125 91.664062 84.878906 91.710938 C 84.800781 91.753906 84.726562 91.796875 84.65625 91.835938 C 84.585938 91.878906 84.523438 91.921875 84.460938 91.960938 C 84.335938 92.042969 84.222656 92.113281 84.128906 92.175781 C 84.03125 92.246094 83.953125 92.304688 83.886719 92.351562 C 83.757812 92.445312 83.6875 92.496094 83.6875 92.496094 " fill-opacity="1" fill-rule="nonzero"/><g clip-path="url(#9eec25e848)"><path fill="#100f0d" d="M 146.183594 133.242188 C 146.183594 133.242188 145.816406 130.148438 141.882812 126.65625 C 139.625 124.65625 136.191406 122.519531 130.976562 120.769531 C 130.679688 120.699219 130.375 120.648438 130.070312 120.621094 C 129.453125 120.574219 128.828125 120.636719 128.253906 120.859375 C 127.320312 121.21875 126.597656 121.960938 125.847656 122.621094 C 124.667969 123.660156 123.34375 124.535156 121.953125 125.265625 C 115.609375 128.585938 108.148438 129.0625 101.128906 129.40625 C 93.449219 129.785156 85.765625 129.304688 78.246094 127.679688 C 72.261719 126.382812 66.585938 124.132812 60.46875 123.4375 C 55.121094 122.824219 49.566406 123.078125 44.4375 124.816406 C 42.527344 125.46875 40.972656 126.539062 39.195312 127.386719 C 40.75 126.644531 42.382812 126.070312 44.050781 125.640625 C 50.605469 123.96875 57.609375 124.523438 64.136719 126.039062 C 70.535156 127.527344 76.335938 130.371094 82.921875 131.257812 C 92.871094 132.59375 103.152344 132.589844 113.164062 131.925781 C 116.683594 131.484375 118.300781 137.488281 118.300781 137.488281 C 118.445312 133.828125 115.21875 131.191406 115.21875 131.191406 C 121.382812 130.753906 122.703125 138.660156 122.703125 138.660156 C 122.703125 131.777344 117.710938 130.09375 117.710938 130.09375 C 127.398438 128.410156 129.597656 138.367188 129.597656 138.367188 C 129.597656 133.574219 123.242188 127.769531 123.144531 127.679688 C 131.066406 130.023438 132.386719 137.339844 132.386719 137.339844 C 132.683594 131.339844 124.757812 126.507812 124.757812 126.507812 C 134.738281 127.09375 136.789062 139.390625 136.789062 139.390625 C 136.496094 131.339844 128.574219 124.75 128.574219 124.75 C 140.3125 126.945312 141.929688 137.488281 141.929688 137.488281 C 141.046875 127.53125 130.921875 123.351562 130.921875 123.351562 C 130.921875 123.351562 130.925781 123.351562 130.9375 123.351562 C 131.4375 123.417969 142.171875 124.949219 146.183594 133.242188 " fill-opacity="1" fill-rule="nonzero"/></g></svg>