<svg xmlns="http://www.w3.org/2000/svg" xmlns:xlink="http://www.w3.org/1999/xlink" width="125" zoomAndPan="magnify" viewBox="0 0 94.079994 101.04" height="125" preserveAspectRatio="xMidYMid meet" version="1.0"><defs><clipPath id="8e6067fe78"><path d="M 27.851562 37 L 61 37 L 61 52 L 27.851562 52 Z M 27.851562 37 " clip-rule="nonzero"/></clipPath><clipPath id="23c2376112"><path d="M 28.394531 33.351562 L 64.976562 33.351562 L 64.976562 55.769531 L 28.394531 55.769531 Z M 28.394531 33.351562 " clip-rule="nonzero"/></clipPath><clipPath id="a0214ab90f"><path d="M 31.007812 54.019531 L 61.386719 54.019531 L 61.386719 59.347656 L 31.007812 59.347656 Z M 31.007812 54.019531 " clip-rule="nonzero"/></clipPath></defs><g clip-path="url(#8e6067fe78)"><path fill="#100f0d" d="M 27.867188 49.707031 C 27.867188 49.707031 27.886719 49.671875 27.921875 49.597656 C 27.960938 49.527344 28.015625 49.421875 28.089844 49.28125 C 28.242188 49.007812 28.472656 48.605469 28.789062 48.109375 C 29.101562 47.609375 29.5 47.019531 29.992188 46.359375 C 30.480469 45.699219 31.066406 44.980469 31.75 44.230469 C 32.089844 43.855469 32.460938 43.476562 32.855469 43.097656 C 33.25 42.71875 33.671875 42.339844 34.117188 41.964844 C 35.015625 41.222656 36.027344 40.503906 37.148438 39.886719 C 37.710938 39.574219 38.300781 39.292969 38.914062 39.042969 C 38.988281 39.011719 39.066406 38.980469 39.144531 38.953125 C 39.179688 38.933594 39.21875 38.921875 39.257812 38.90625 L 39.375 38.863281 C 39.453125 38.835938 39.53125 38.808594 39.613281 38.777344 C 39.652344 38.765625 39.691406 38.75 39.730469 38.738281 L 39.847656 38.699219 C 39.929688 38.671875 40.007812 38.648438 40.089844 38.621094 L 40.148438 38.601562 L 40.332031 38.550781 C 40.410156 38.527344 40.492188 38.503906 40.574219 38.480469 L 40.632812 38.460938 L 40.820312 38.414062 C 41.472656 38.25 42.148438 38.125 42.832031 38.050781 C 43.511719 37.980469 44.203125 37.960938 44.890625 37.988281 C 45.578125 38.015625 46.265625 38.101562 46.9375 38.230469 C 47.019531 38.246094 47.105469 38.257812 47.1875 38.277344 C 47.273438 38.292969 47.355469 38.3125 47.4375 38.332031 C 47.523438 38.351562 47.605469 38.371094 47.6875 38.386719 L 47.75 38.402344 C 47.773438 38.40625 47.792969 38.414062 47.8125 38.417969 L 47.9375 38.453125 C 48.101562 38.496094 48.265625 38.539062 48.429688 38.585938 C 48.597656 38.632812 48.757812 38.6875 48.917969 38.746094 C 49.238281 38.859375 49.550781 38.984375 49.855469 39.117188 C 50.160156 39.253906 50.460938 39.394531 50.757812 39.542969 C 51.34375 39.84375 51.910156 40.167969 52.445312 40.519531 C 53.519531 41.214844 54.480469 41.992188 55.320312 42.804688 C 55.742188 43.210938 56.132812 43.625 56.492188 44.039062 C 56.851562 44.453125 57.179688 44.867188 57.480469 45.277344 C 57.777344 45.6875 58.046875 46.09375 58.292969 46.484375 C 58.535156 46.878906 58.753906 47.257812 58.945312 47.621094 C 58.96875 47.667969 58.992188 47.710938 59.015625 47.757812 C 59.039062 47.800781 59.0625 47.847656 59.085938 47.890625 C 59.128906 47.980469 59.175781 48.066406 59.21875 48.152344 C 59.261719 48.238281 59.300781 48.324219 59.339844 48.40625 C 59.359375 48.449219 59.378906 48.488281 59.398438 48.53125 C 59.410156 48.550781 59.417969 48.570312 59.429688 48.589844 C 59.4375 48.613281 59.445312 48.632812 59.457031 48.652344 C 59.601562 48.976562 59.730469 49.273438 59.839844 49.546875 C 60.0625 50.09375 60.207031 50.53125 60.308594 50.828125 C 60.402344 51.128906 60.453125 51.289062 60.453125 51.289062 C 60.453125 51.289062 60.390625 51.132812 60.273438 50.839844 C 60.246094 50.769531 60.210938 50.6875 60.171875 50.597656 C 60.15625 50.554688 60.136719 50.507812 60.113281 50.457031 C 60.09375 50.410156 60.074219 50.359375 60.050781 50.308594 C 60.003906 50.203125 59.953125 50.09375 59.902344 49.972656 C 59.847656 49.855469 59.789062 49.730469 59.726562 49.597656 C 59.472656 49.070312 59.152344 48.4375 58.734375 47.738281 C 58.527344 47.390625 58.292969 47.023438 58.039062 46.648438 C 57.78125 46.273438 57.5 45.886719 57.191406 45.496094 C 56.570312 44.714844 55.84375 43.914062 55 43.144531 C 54.15625 42.375 53.199219 41.640625 52.144531 40.980469 C 51.617188 40.65625 51.066406 40.34375 50.492188 40.0625 C 50.207031 39.921875 49.914062 39.789062 49.617188 39.664062 C 49.320312 39.535156 49.019531 39.417969 48.714844 39.3125 C 48.5625 39.261719 48.410156 39.210938 48.257812 39.167969 C 48.101562 39.125 47.941406 39.085938 47.785156 39.042969 L 47.664062 39.011719 C 47.644531 39.007812 47.625 39 47.605469 38.996094 L 47.546875 38.984375 C 47.464844 38.964844 47.386719 38.949219 47.304688 38.929688 C 47.226562 38.914062 47.144531 38.894531 47.066406 38.878906 C 46.984375 38.863281 46.902344 38.847656 46.824219 38.832031 C 46.175781 38.714844 45.519531 38.636719 44.863281 38.605469 C 43.546875 38.546875 42.226562 38.6875 40.96875 38.996094 L 40.847656 39.027344 L 40.789062 39.039062 L 40.730469 39.058594 C 40.652344 39.078125 40.574219 39.101562 40.496094 39.121094 L 40.382812 39.15625 L 40.265625 39.1875 C 40.1875 39.214844 40.109375 39.238281 40.035156 39.261719 L 39.917969 39.296875 C 39.882812 39.308594 39.84375 39.320312 39.804688 39.335938 C 39.730469 39.363281 39.652344 39.386719 39.578125 39.414062 L 39.464844 39.453125 C 39.425781 39.46875 39.390625 39.480469 39.351562 39.496094 C 39.277344 39.523438 39.203125 39.554688 39.128906 39.582031 C 38.535156 39.8125 37.960938 40.078125 37.414062 40.367188 C 36.316406 40.945312 35.3125 41.621094 34.414062 42.328125 C 33.515625 43.03125 32.714844 43.765625 32.011719 44.476562 C 31.660156 44.832031 31.332031 45.183594 31.027344 45.523438 C 30.722656 45.863281 30.441406 46.191406 30.179688 46.503906 C 29.664062 47.132812 29.234375 47.703125 28.890625 48.175781 C 28.71875 48.414062 28.570312 48.628906 28.441406 48.816406 C 28.3125 49.007812 28.207031 49.167969 28.121094 49.300781 C 27.953125 49.5625 27.867188 49.707031 27.867188 49.707031 " fill-opacity="1" fill-rule="nonzero"/></g><g clip-path="url(#23c2376112)"><path fill="#100f0d" d="M 64.972656 49.609375 C 64.898438 49.753906 61.359375 56.277344 56.140625 50.816406 C 56.140625 50.816406 54.75 48.730469 52.285156 46.949219 C 52.609375 47.707031 52.789062 48.542969 52.789062 49.421875 C 52.789062 52.304688 50.847656 54.738281 48.191406 55.5 C 48.324219 55.449219 48.460938 55.390625 48.601562 55.316406 C 48.871094 55.175781 49.144531 54.988281 49.40625 54.765625 C 49.667969 54.539062 49.921875 54.273438 50.152344 53.976562 C 50.382812 53.679688 50.589844 53.351562 50.769531 53.003906 C 50.949219 52.65625 51.097656 52.285156 51.21875 51.910156 C 51.246094 51.816406 51.277344 51.722656 51.300781 51.625 C 51.328125 51.53125 51.351562 51.433594 51.375 51.339844 C 51.394531 51.246094 51.417969 51.148438 51.4375 51.054688 C 51.445312 51.003906 51.453125 50.957031 51.460938 50.910156 C 51.46875 50.863281 51.476562 50.8125 51.484375 50.765625 C 51.546875 50.382812 51.574219 50.007812 51.578125 49.640625 C 51.582031 49.546875 51.578125 49.453125 51.578125 49.359375 L 51.578125 49.292969 C 51.578125 49.273438 51.574219 49.253906 51.574219 49.230469 C 51.570312 49.1875 51.570312 49.144531 51.566406 49.105469 C 51.566406 49.058594 51.5625 49.015625 51.5625 48.972656 C 51.558594 48.929688 51.554688 48.886719 51.550781 48.84375 C 51.542969 48.757812 51.53125 48.671875 51.523438 48.589844 C 51.484375 48.257812 51.425781 47.949219 51.351562 47.667969 C 51.28125 47.386719 51.203125 47.132812 51.117188 46.914062 C 51.035156 46.695312 50.953125 46.511719 50.875 46.359375 C 50.859375 46.324219 50.839844 46.289062 50.824219 46.253906 C 50.804688 46.222656 50.789062 46.191406 50.773438 46.164062 C 50.742188 46.105469 50.714844 46.058594 50.691406 46.019531 C 50.667969 45.980469 50.648438 45.953125 50.636719 45.933594 C 50.625 45.914062 50.617188 45.902344 50.617188 45.902344 C 50.617188 45.902344 50.621094 45.949219 50.632812 46.039062 C 50.644531 46.128906 50.660156 46.253906 50.675781 46.417969 C 50.695312 46.582031 50.714844 46.777344 50.726562 47 C 50.742188 47.226562 50.753906 47.476562 50.757812 47.746094 C 50.761719 48.019531 50.757812 48.3125 50.742188 48.621094 C 50.738281 48.695312 50.734375 48.773438 50.730469 48.855469 C 50.726562 48.894531 50.722656 48.933594 50.722656 48.972656 L 50.71875 48.980469 C 50.71875 48.984375 50.71875 48.976562 50.71875 48.976562 L 50.71875 48.996094 L 50.714844 49.027344 C 50.714844 49.046875 50.710938 49.070312 50.710938 49.089844 C 50.707031 49.132812 50.703125 49.175781 50.699219 49.214844 C 50.699219 49.238281 50.695312 49.257812 50.695312 49.28125 L 50.691406 49.3125 L 50.6875 49.339844 C 50.679688 49.421875 50.667969 49.5 50.660156 49.582031 C 50.617188 49.910156 50.5625 50.25 50.492188 50.585938 C 50.472656 50.671875 50.457031 50.757812 50.433594 50.84375 C 50.414062 50.925781 50.394531 51.011719 50.371094 51.09375 C 50.347656 51.179688 50.324219 51.261719 50.300781 51.347656 C 50.277344 51.433594 50.25 51.515625 50.226562 51.597656 C 50.121094 51.929688 49.996094 52.257812 49.855469 52.570312 C 49.714844 52.878906 49.5625 53.179688 49.390625 53.453125 C 49.222656 53.730469 49.039062 53.988281 48.851562 54.214844 C 48.660156 54.445312 48.460938 54.644531 48.265625 54.820312 C 48.066406 54.992188 47.867188 55.132812 47.683594 55.246094 C 47.636719 55.277344 47.589844 55.300781 47.546875 55.328125 C 47.527344 55.34375 47.503906 55.351562 47.480469 55.363281 C 47.460938 55.375 47.4375 55.386719 47.417969 55.398438 C 47.375 55.421875 47.332031 55.445312 47.292969 55.460938 C 47.253906 55.480469 47.214844 55.496094 47.179688 55.515625 C 47.160156 55.523438 47.140625 55.53125 47.125 55.539062 C 47.105469 55.546875 47.089844 55.550781 47.070312 55.558594 C 47.039062 55.570312 47.007812 55.585938 46.976562 55.597656 C 46.917969 55.621094 46.867188 55.636719 46.824219 55.652344 C 46.714844 55.691406 46.605469 55.726562 46.492188 55.742188 C 46.371094 55.757812 46.25 55.75 46.132812 55.742188 C 45.933594 55.734375 45.734375 55.714844 45.535156 55.6875 C 45.339844 55.660156 45.144531 55.625 44.953125 55.582031 C 44.761719 55.535156 44.574219 55.484375 44.390625 55.421875 C 44.207031 55.359375 44.027344 55.289062 43.851562 55.214844 C 43.675781 55.136719 43.503906 55.050781 43.335938 54.960938 C 43.171875 54.867188 43.007812 54.769531 42.851562 54.664062 C 42.691406 54.554688 42.539062 54.445312 42.394531 54.324219 C 42.246094 54.207031 42.105469 54.078125 41.96875 53.949219 C 41.835938 53.816406 41.703125 53.679688 41.582031 53.535156 C 41.457031 53.390625 41.339844 53.242188 41.230469 53.089844 C 41.121094 52.9375 41.015625 52.777344 40.921875 52.613281 C 40.824219 52.449219 40.734375 52.28125 40.652344 52.109375 C 40.570312 51.9375 40.496094 51.761719 40.433594 51.582031 C 40.367188 51.398438 40.308594 51.214844 40.257812 51.027344 C 40.207031 50.839844 40.167969 50.648438 40.136719 50.453125 C 40.101562 50.257812 40.082031 50.0625 40.066406 49.863281 C 40.054688 49.714844 40.050781 49.566406 40.050781 49.421875 C 40.050781 47.664062 40.769531 46.078125 41.929688 44.929688 C 41.332031 45.105469 40.71875 45.328125 40.09375 45.613281 C 40.09375 45.613281 39.039062 46.148438 37.570312 47 C 37.539062 47.019531 37.507812 47.035156 37.476562 47.054688 C 36.335938 47.71875 35.40625 48.652344 34.457031 49.542969 C 33.511719 50.429688 32.476562 51.128906 31.808594 52.269531 C 31.605469 52.617188 31.441406 52.988281 31.210938 53.316406 C 30.726562 54 29.625 54.851562 28.785156 54.320312 C 27.742188 53.660156 29.171875 52.492188 29.714844 52.054688 C 30.207031 51.664062 30.589844 51.226562 31.019531 50.78125 C 32.105469 49.660156 33.414062 48.792969 34.648438 47.851562 C 35.5 47.207031 36.351562 46.566406 37.214844 45.941406 C 37.214844 45.941406 37.339844 43.023438 35.28125 40.605469 C 35.316406 40.632812 37.71875 42.484375 38.402344 45.011719 C 38.402344 45.011719 41.28125 41.605469 39.097656 37.695312 C 39.132812 37.746094 41.652344 41.3125 41.34375 43.652344 C 41.34375 43.652344 43.339844 39.742188 41.6875 36.703125 C 41.734375 36.773438 43.429688 39.359375 42.96875 43.09375 C 42.96875 43.09375 46.460938 38.066406 44.433594 34.996094 C 44.480469 35.050781 46.464844 37.417969 45.066406 42.78125 C 45.066406 42.78125 48.554688 40.734375 46.589844 33.351562 C 46.613281 33.402344 48.792969 38.03125 46.808594 42.75 C 46.808594 42.75 50.585938 40.300781 49.804688 33.628906 C 49.804688 33.628906 50.984375 37.757812 48.273438 42.96875 C 48.273438 42.96875 51.457031 42.160156 51.144531 33.910156 C 51.144531 33.910156 52.019531 38.40625 49.492188 43.402344 C 49.492188 43.402344 52.988281 39.433594 52.925781 34.003906 C 52.925781 34.003906 53.582031 37.789062 50.554688 43.683594 C 50.59375 43.660156 56.230469 40.417969 55.328125 34.808594 C 55.328125 34.808594 56.546875 39.617188 51.832031 44.457031 C 51.832031 44.457031 56.921875 43.804688 56.984375 36.328125 C 56.984375 36.328125 57.578125 42.472656 52.957031 45.296875 C 53.023438 45.273438 60.757812 42.851562 59.636719 36.949219 C 59.636719 36.949219 61.480469 41.945312 54.050781 46.226562 C 54.105469 46.207031 61.195312 43.671875 61.914062 40.179688 C 61.894531 40.316406 61.183594 44.3125 54.953125 47 C 54.953125 47 59.230469 47.902344 62.136719 42.628906 C 62.136719 42.628906 60.542969 47.25 56.078125 47.996094 C 56.078125 47.996094 60.386719 49.171875 63.570312 44.242188 C 63.542969 44.304688 61.785156 48.464844 56.890625 49.171875 C 56.890625 49.171875 61.699219 51.65625 64.976562 47.28125 C 64.945312 47.335938 62.90625 51.0625 57.515625 50.753906 C 57.515625 50.753906 61.820312 54.507812 64.972656 49.609375 " fill-opacity="1" fill-rule="nonzero"/></g><path fill="#ffffff" d="M 48.519531 49.355469 C 48.519531 49.800781 48.15625 50.160156 47.710938 50.160156 C 47.265625 50.160156 46.90625 49.800781 46.90625 49.355469 C 46.90625 48.910156 47.265625 48.546875 47.710938 48.546875 C 48.15625 48.546875 48.519531 48.910156 48.519531 49.355469 " fill-opacity="1" fill-rule="nonzero"/><path fill="#ffffff" d="M 43.636719 46.097656 C 43.636719 46.097656 43.652344 46.078125 43.683594 46.042969 C 43.695312 46.027344 43.714844 46.003906 43.738281 45.980469 C 43.757812 45.957031 43.785156 45.929688 43.816406 45.898438 C 43.832031 45.882812 43.847656 45.867188 43.867188 45.851562 C 43.882812 45.835938 43.902344 45.820312 43.921875 45.804688 C 43.941406 45.785156 43.964844 45.769531 43.984375 45.75 C 44.007812 45.734375 44.03125 45.714844 44.054688 45.695312 C 44.078125 45.679688 44.101562 45.660156 44.128906 45.640625 C 44.15625 45.625 44.183594 45.605469 44.210938 45.585938 C 44.265625 45.546875 44.328125 45.511719 44.394531 45.476562 C 44.425781 45.457031 44.457031 45.441406 44.492188 45.421875 C 44.527344 45.40625 44.5625 45.386719 44.597656 45.367188 C 44.636719 45.351562 44.671875 45.335938 44.710938 45.320312 C 44.730469 45.3125 44.75 45.300781 44.769531 45.292969 C 44.789062 45.285156 44.808594 45.277344 44.828125 45.269531 C 44.867188 45.253906 44.910156 45.238281 44.949219 45.222656 C 44.992188 45.210938 45.035156 45.195312 45.074219 45.183594 C 45.097656 45.175781 45.117188 45.167969 45.140625 45.160156 C 45.164062 45.15625 45.183594 45.148438 45.207031 45.144531 C 45.25 45.132812 45.296875 45.121094 45.339844 45.109375 C 45.386719 45.097656 45.433594 45.085938 45.480469 45.078125 C 45.5 45.074219 45.523438 45.066406 45.546875 45.0625 C 45.570312 45.058594 45.59375 45.054688 45.621094 45.050781 C 45.667969 45.042969 45.714844 45.035156 45.761719 45.027344 C 45.8125 45.019531 45.859375 45.015625 45.90625 45.007812 C 45.933594 45.007812 45.957031 45.003906 45.980469 45 C 46.003906 45 46.03125 44.996094 46.054688 44.996094 C 46.105469 44.992188 46.152344 44.988281 46.203125 44.984375 C 46.253906 44.984375 46.300781 44.984375 46.351562 44.980469 L 46.390625 44.980469 L 46.410156 44.976562 L 46.429688 44.976562 L 46.503906 44.980469 L 46.648438 44.984375 C 46.699219 44.988281 46.75 44.992188 46.796875 44.996094 L 46.875 45 C 46.898438 45.003906 46.921875 45.007812 46.949219 45.007812 C 46.996094 45.015625 47.046875 45.019531 47.09375 45.027344 C 47.289062 45.058594 47.476562 45.09375 47.65625 45.148438 C 47.839844 45.195312 48.007812 45.261719 48.164062 45.328125 C 48.320312 45.398438 48.464844 45.472656 48.589844 45.554688 C 48.621094 45.574219 48.652344 45.59375 48.683594 45.613281 C 48.710938 45.632812 48.742188 45.652344 48.769531 45.671875 C 48.796875 45.691406 48.824219 45.710938 48.847656 45.730469 C 48.871094 45.753906 48.894531 45.773438 48.917969 45.792969 C 48.941406 45.8125 48.964844 45.828125 48.984375 45.847656 C 49.003906 45.867188 49.023438 45.886719 49.042969 45.90625 C 49.0625 45.921875 49.078125 45.941406 49.097656 45.957031 C 49.113281 45.972656 49.128906 45.992188 49.140625 46.007812 C 49.171875 46.039062 49.195312 46.066406 49.21875 46.09375 C 49.238281 46.121094 49.253906 46.144531 49.265625 46.160156 C 49.292969 46.199219 49.308594 46.21875 49.308594 46.21875 C 49.308594 46.21875 49.289062 46.203125 49.253906 46.175781 C 49.238281 46.160156 49.214844 46.140625 49.191406 46.121094 C 49.164062 46.101562 49.132812 46.078125 49.101562 46.054688 C 49.082031 46.042969 49.066406 46.027344 49.046875 46.015625 C 49.027344 46 49.007812 45.988281 48.984375 45.976562 C 48.964844 45.960938 48.945312 45.945312 48.921875 45.933594 C 48.898438 45.917969 48.875 45.902344 48.847656 45.890625 C 48.824219 45.875 48.796875 45.859375 48.769531 45.84375 C 48.746094 45.828125 48.714844 45.816406 48.6875 45.800781 C 48.660156 45.785156 48.628906 45.769531 48.597656 45.753906 C 48.570312 45.738281 48.535156 45.726562 48.503906 45.710938 C 48.472656 45.695312 48.441406 45.679688 48.40625 45.667969 C 48.371094 45.652344 48.335938 45.640625 48.300781 45.625 C 48.285156 45.617188 48.265625 45.609375 48.25 45.605469 C 48.230469 45.597656 48.210938 45.589844 48.191406 45.585938 C 48.15625 45.570312 48.117188 45.558594 48.082031 45.546875 C 47.925781 45.496094 47.761719 45.449219 47.589844 45.414062 C 47.570312 45.410156 47.546875 45.40625 47.527344 45.398438 L 47.492188 45.394531 L 47.460938 45.386719 C 47.417969 45.378906 47.371094 45.371094 47.328125 45.363281 C 47.28125 45.355469 47.238281 45.351562 47.191406 45.34375 C 47.148438 45.339844 47.101562 45.332031 47.054688 45.324219 C 46.964844 45.316406 46.871094 45.304688 46.777344 45.300781 C 46.734375 45.300781 46.6875 45.296875 46.640625 45.292969 L 46.496094 45.292969 L 46.421875 45.289062 L 46.414062 45.289062 C 46.410156 45.289062 46.417969 45.289062 46.414062 45.289062 L 46.355469 45.289062 C 46.308594 45.289062 46.261719 45.292969 46.214844 45.292969 C 46.167969 45.292969 46.121094 45.296875 46.074219 45.300781 C 46.050781 45.300781 46.027344 45.300781 46.007812 45.300781 C 45.984375 45.304688 45.960938 45.304688 45.9375 45.308594 C 45.753906 45.320312 45.574219 45.347656 45.398438 45.375 C 45.355469 45.386719 45.3125 45.394531 45.269531 45.402344 C 45.25 45.40625 45.226562 45.410156 45.207031 45.414062 C 45.1875 45.417969 45.164062 45.425781 45.144531 45.429688 C 45.101562 45.4375 45.0625 45.449219 45.023438 45.457031 C 44.980469 45.46875 44.941406 45.480469 44.902344 45.492188 C 44.882812 45.496094 44.863281 45.5 44.84375 45.507812 C 44.828125 45.511719 44.808594 45.519531 44.789062 45.523438 C 44.75 45.535156 44.714844 45.546875 44.679688 45.558594 C 44.640625 45.574219 44.605469 45.585938 44.574219 45.597656 C 44.539062 45.609375 44.503906 45.621094 44.472656 45.636719 C 44.40625 45.664062 44.34375 45.6875 44.285156 45.71875 C 44.253906 45.730469 44.226562 45.742188 44.199219 45.757812 C 44.171875 45.769531 44.144531 45.785156 44.117188 45.796875 C 44.09375 45.8125 44.066406 45.824219 44.042969 45.835938 C 44.019531 45.851562 43.996094 45.863281 43.976562 45.875 C 43.953125 45.886719 43.933594 45.902344 43.914062 45.910156 C 43.890625 45.921875 43.875 45.9375 43.855469 45.945312 C 43.820312 45.96875 43.789062 45.988281 43.761719 46.007812 C 43.734375 46.027344 43.714844 46.042969 43.695312 46.058594 C 43.65625 46.082031 43.636719 46.097656 43.636719 46.097656 " fill-opacity="1" fill-rule="nonzero"/><g clip-path="url(#a0214ab90f)"><path fill="#100f0d" d="M 61.363281 57.609375 C 61.363281 57.609375 61.257812 56.734375 60.144531 55.75 C 59.503906 55.183594 58.527344 54.582031 57.050781 54.085938 C 56.964844 54.066406 56.878906 54.050781 56.792969 54.046875 C 56.617188 54.03125 56.441406 54.046875 56.277344 54.113281 C 56.011719 54.214844 55.808594 54.421875 55.597656 54.609375 C 55.261719 54.902344 54.886719 55.148438 54.492188 55.355469 C 52.691406 56.296875 50.574219 56.429688 48.585938 56.527344 C 46.40625 56.632812 44.226562 56.5 42.09375 56.039062 C 40.398438 55.671875 38.789062 55.039062 37.050781 54.839844 C 35.535156 54.667969 33.960938 54.738281 32.503906 55.230469 C 31.964844 55.414062 31.523438 55.714844 31.019531 55.957031 C 31.460938 55.746094 31.921875 55.582031 32.394531 55.464844 C 34.253906 54.992188 36.242188 55.148438 38.09375 55.574219 C 39.90625 55.996094 41.550781 56.800781 43.421875 57.050781 C 46.242188 57.425781 49.160156 57.425781 51.996094 57.238281 C 52.996094 57.113281 53.453125 58.808594 53.453125 58.808594 C 53.496094 57.777344 52.582031 57.03125 52.582031 57.03125 C 54.328125 56.90625 54.703125 59.140625 54.703125 59.140625 C 54.703125 57.195312 53.289062 56.722656 53.289062 56.722656 C 56.035156 56.246094 56.660156 59.058594 56.660156 59.058594 C 56.660156 57.703125 54.855469 56.066406 54.828125 56.039062 C 57.078125 56.699219 57.449219 58.769531 57.449219 58.769531 C 57.535156 57.074219 55.285156 55.707031 55.285156 55.707031 C 58.117188 55.875 58.699219 59.347656 58.699219 59.347656 C 58.617188 57.074219 56.367188 55.210938 56.367188 55.210938 C 59.699219 55.832031 60.15625 58.808594 60.15625 58.808594 C 59.90625 55.996094 57.035156 54.816406 57.035156 54.816406 C 57.035156 54.816406 57.035156 54.816406 57.039062 54.816406 C 57.179688 54.835938 60.226562 55.269531 61.363281 57.609375 " fill-opacity="1" fill-rule="nonzero"/></g></svg>