<svg xmlns="http://www.w3.org/2000/svg" xmlns:xlink="http://www.w3.org/1999/xlink" width="250" zoomAndPan="magnify" viewBox="0 0 187.5 187.499992" height="250" preserveAspectRatio="xMidYMid meet" version="1.0"><defs><clipPath id="9daecb2436"><path d="M 56.101562 76 L 122 76 L 122 104 L 56.101562 104 Z M 56.101562 76 " clip-rule="nonzero"/></clipPath><clipPath id="530e51c619"><path d="M 57.183594 67.148438 L 130.878906 67.148438 L 130.878906 112.300781 L 57.183594 112.300781 Z M 57.183594 67.148438 " clip-rule="nonzero"/></clipPath><clipPath id="1fa8de2738"><path d="M 62.453125 108.777344 L 123.652344 108.777344 L 123.652344 119.507812 L 62.453125 119.507812 Z M 62.453125 108.777344 " clip-rule="nonzero"/></clipPath></defs><g clip-path="url(#9daecb2436)"><path fill="#100f0d" d="M 56.121094 100.09375 C 56.121094 100.09375 56.15625 100.019531 56.230469 99.875 C 56.308594 99.726562 56.417969 99.511719 56.574219 99.234375 C 56.878906 98.679688 57.339844 97.871094 57.976562 96.871094 C 58.605469 95.871094 59.414062 94.675781 60.398438 93.347656 C 61.390625 92.023438 62.566406 90.566406 63.945312 89.0625 C 64.632812 88.308594 65.375 87.542969 66.167969 86.777344 C 66.960938 86.011719 67.8125 85.25 68.71875 84.5 C 70.527344 83 72.5625 81.550781 74.824219 80.308594 C 75.953125 79.683594 77.136719 79.113281 78.375 78.613281 C 78.527344 78.550781 78.683594 78.488281 78.839844 78.425781 C 78.914062 78.394531 78.992188 78.367188 79.074219 78.339844 L 79.308594 78.253906 C 79.464844 78.195312 79.625 78.136719 79.78125 78.078125 C 79.859375 78.050781 79.941406 78.023438 80.019531 77.996094 L 80.261719 77.917969 C 80.421875 77.867188 80.582031 77.8125 80.742188 77.761719 L 80.863281 77.722656 L 81.230469 77.617188 C 81.394531 77.570312 81.554688 77.523438 81.71875 77.476562 L 81.84375 77.441406 L 81.964844 77.410156 L 82.214844 77.347656 C 83.535156 77.011719 84.890625 76.757812 86.265625 76.617188 C 87.640625 76.472656 89.03125 76.429688 90.417969 76.484375 C 91.804688 76.546875 93.183594 76.714844 94.539062 76.972656 C 94.710938 77.003906 94.878906 77.03125 95.046875 77.066406 C 95.214844 77.105469 95.382812 77.140625 95.550781 77.179688 C 95.71875 77.21875 95.886719 77.253906 96.054688 77.292969 L 96.179688 77.320312 C 96.222656 77.332031 96.261719 77.34375 96.304688 77.355469 L 96.554688 77.421875 C 96.882812 77.511719 97.214844 77.597656 97.542969 77.6875 C 97.882812 77.789062 98.207031 77.898438 98.53125 78.011719 C 99.175781 78.242188 99.804688 78.496094 100.421875 78.761719 C 101.039062 79.035156 101.640625 79.320312 102.234375 79.621094 C 103.417969 80.226562 104.554688 80.882812 105.632812 81.582031 C 107.796875 82.984375 109.738281 84.554688 111.433594 86.191406 C 112.277344 87.007812 113.066406 87.839844 113.789062 88.671875 C 114.511719 89.511719 115.175781 90.347656 115.777344 91.171875 C 116.382812 91.996094 116.925781 92.8125 117.414062 93.605469 C 117.902344 94.394531 118.347656 95.15625 118.730469 95.890625 C 118.78125 95.984375 118.828125 96.074219 118.875 96.164062 C 118.925781 96.253906 118.96875 96.34375 119.015625 96.433594 C 119.105469 96.609375 119.191406 96.785156 119.28125 96.960938 C 119.367188 97.132812 119.445312 97.304688 119.527344 97.472656 C 119.566406 97.554688 119.605469 97.636719 119.648438 97.722656 C 119.664062 97.761719 119.6875 97.804688 119.703125 97.84375 C 119.722656 97.886719 119.742188 97.925781 119.761719 97.964844 C 120.058594 98.617188 120.316406 99.21875 120.535156 99.769531 C 120.984375 100.867188 121.273438 101.75 121.480469 102.351562 C 121.667969 102.953125 121.769531 103.277344 121.769531 103.277344 C 121.769531 103.277344 121.644531 102.960938 121.410156 102.375 C 121.351562 102.226562 121.28125 102.066406 121.207031 101.886719 C 121.167969 101.796875 121.128906 101.703125 121.089844 101.605469 C 121.046875 101.507812 121.003906 101.40625 120.957031 101.300781 C 120.863281 101.09375 120.765625 100.867188 120.65625 100.628906 C 120.550781 100.390625 120.429688 100.136719 120.304688 99.871094 C 119.796875 98.808594 119.148438 97.53125 118.308594 96.128906 C 117.890625 95.421875 117.421875 94.6875 116.90625 93.933594 C 116.386719 93.175781 115.820312 92.394531 115.195312 91.609375 C 113.949219 90.03125 112.480469 88.421875 110.78125 86.875 C 109.085938 85.324219 107.160156 83.839844 105.035156 82.519531 C 103.96875 81.859375 102.859375 81.234375 101.707031 80.667969 C 101.128906 80.382812 100.539062 80.113281 99.941406 79.859375 C 99.34375 79.605469 98.738281 79.371094 98.121094 79.15625 C 97.816406 79.050781 97.503906 78.949219 97.199219 78.859375 C 96.882812 78.773438 96.5625 78.695312 96.246094 78.609375 L 96.007812 78.550781 C 95.964844 78.539062 95.925781 78.527344 95.886719 78.519531 L 95.765625 78.492188 C 95.605469 78.457031 95.441406 78.421875 95.28125 78.386719 C 95.121094 78.351562 94.960938 78.316406 94.796875 78.28125 C 94.636719 78.246094 94.472656 78.21875 94.308594 78.191406 C 93.007812 77.949219 91.6875 77.789062 90.363281 77.734375 C 87.710938 77.617188 85.050781 77.894531 82.511719 78.519531 L 82.273438 78.578125 L 82.15625 78.605469 L 82.039062 78.640625 C 81.878906 78.683594 81.722656 78.726562 81.566406 78.769531 L 81.332031 78.835938 L 81.097656 78.90625 C 80.941406 78.957031 80.789062 79.003906 80.632812 79.050781 L 80.402344 79.125 C 80.324219 79.148438 80.246094 79.171875 80.171875 79.199219 C 80.019531 79.253906 79.867188 79.308594 79.714844 79.359375 L 79.484375 79.441406 C 79.410156 79.464844 79.332031 79.492188 79.257812 79.523438 C 79.109375 79.582031 78.960938 79.636719 78.808594 79.695312 C 77.613281 80.164062 76.460938 80.699219 75.351562 81.277344 C 73.140625 82.445312 71.125 83.808594 69.3125 85.226562 C 67.496094 86.644531 65.886719 88.121094 64.46875 89.554688 C 63.761719 90.273438 63.101562 90.980469 62.488281 91.664062 C 61.871094 92.347656 61.304688 93.011719 60.78125 93.644531 C 59.738281 94.910156 58.871094 96.054688 58.183594 97.011719 C 57.839844 97.488281 57.539062 97.921875 57.28125 98.300781 C 57.019531 98.679688 56.804688 99.007812 56.636719 99.273438 C 56.292969 99.804688 56.121094 100.09375 56.121094 100.09375 " fill-opacity="1" fill-rule="nonzero"/></g><g clip-path="url(#530e51c619)"><path fill="#100f0d" d="M 130.878906 99.894531 C 130.722656 100.1875 123.59375 113.328125 113.082031 102.328125 C 113.082031 102.328125 110.28125 98.125 105.316406 94.535156 C 105.96875 96.066406 106.328125 97.746094 106.328125 99.511719 C 106.328125 105.324219 102.417969 110.226562 97.066406 111.761719 C 97.335938 111.660156 97.613281 111.535156 97.898438 111.386719 C 98.433594 111.101562 98.984375 110.730469 99.515625 110.277344 C 100.046875 109.824219 100.554688 109.289062 101.015625 108.691406 C 101.480469 108.09375 101.898438 107.433594 102.257812 106.730469 C 102.621094 106.027344 102.921875 105.285156 103.164062 104.527344 C 103.222656 104.335938 103.28125 104.148438 103.332031 103.957031 C 103.386719 103.765625 103.433594 103.574219 103.480469 103.382812 C 103.523438 103.1875 103.5625 102.996094 103.605469 102.804688 C 103.625 102.707031 103.636719 102.609375 103.65625 102.515625 C 103.671875 102.417969 103.6875 102.320312 103.703125 102.226562 C 103.824219 101.453125 103.882812 100.695312 103.894531 99.953125 C 103.894531 99.765625 103.894531 99.578125 103.890625 99.394531 L 103.890625 99.324219 L 103.886719 99.261719 C 103.886719 99.21875 103.882812 99.175781 103.882812 99.132812 C 103.878906 99.046875 103.875 98.960938 103.867188 98.878906 C 103.863281 98.789062 103.859375 98.699219 103.855469 98.609375 C 103.847656 98.523438 103.839844 98.4375 103.832031 98.351562 C 103.820312 98.179688 103.800781 98.007812 103.78125 97.84375 C 103.699219 97.175781 103.578125 96.550781 103.4375 95.984375 C 103.296875 95.417969 103.132812 94.910156 102.964844 94.46875 C 102.800781 94.027344 102.628906 93.652344 102.476562 93.351562 C 102.441406 93.277344 102.402344 93.203125 102.371094 93.136719 C 102.335938 93.070312 102.300781 93.007812 102.269531 92.953125 C 102.203125 92.835938 102.152344 92.738281 102.101562 92.664062 C 102.054688 92.585938 102.019531 92.527344 101.996094 92.488281 C 101.972656 92.449219 101.957031 92.429688 101.957031 92.429688 C 101.957031 92.429688 101.964844 92.527344 101.988281 92.703125 C 102.011719 92.882812 102.039062 93.140625 102.074219 93.46875 C 102.109375 93.796875 102.148438 94.191406 102.175781 94.640625 C 102.207031 95.089844 102.230469 95.597656 102.238281 96.144531 C 102.246094 96.691406 102.238281 97.28125 102.207031 97.902344 C 102.199219 98.058594 102.191406 98.214844 102.179688 98.371094 C 102.175781 98.453125 102.167969 98.53125 102.164062 98.609375 L 102.164062 98.625 C 102.160156 98.640625 102.160156 98.621094 102.160156 98.621094 L 102.160156 98.660156 L 102.152344 98.722656 C 102.148438 98.761719 102.144531 98.804688 102.140625 98.847656 C 102.132812 98.933594 102.128906 99.015625 102.121094 99.101562 C 102.117188 99.144531 102.113281 99.1875 102.109375 99.230469 L 102.105469 99.292969 L 102.097656 99.355469 C 102.078125 99.515625 102.058594 99.675781 102.039062 99.839844 C 101.957031 100.5 101.84375 101.183594 101.703125 101.863281 C 101.660156 102.035156 101.628906 102.207031 101.589844 102.375 C 101.542969 102.546875 101.503906 102.71875 101.460938 102.886719 C 101.414062 103.058594 101.367188 103.226562 101.320312 103.394531 C 101.273438 103.566406 101.214844 103.734375 101.164062 103.902344 C 100.953125 104.570312 100.703125 105.226562 100.421875 105.855469 C 100.140625 106.484375 99.828125 107.082031 99.484375 107.640625 C 99.144531 108.195312 98.777344 108.710938 98.394531 109.171875 C 98.011719 109.632812 97.613281 110.039062 97.214844 110.386719 C 96.816406 110.734375 96.417969 111.015625 96.042969 111.25 C 95.949219 111.308594 95.859375 111.363281 95.769531 111.414062 C 95.726562 111.441406 95.679688 111.460938 95.636719 111.484375 C 95.589844 111.507812 95.546875 111.53125 95.507812 111.554688 C 95.421875 111.601562 95.339844 111.648438 95.257812 111.679688 C 95.175781 111.714844 95.097656 111.753906 95.023438 111.789062 C 94.988281 111.804688 94.953125 111.824219 94.917969 111.835938 C 94.878906 111.851562 94.847656 111.863281 94.8125 111.878906 C 94.746094 111.90625 94.679688 111.929688 94.621094 111.953125 C 94.503906 112.003906 94.398438 112.035156 94.3125 112.066406 C 94.09375 112.140625 93.871094 112.214844 93.640625 112.246094 C 93.402344 112.28125 93.160156 112.257812 92.917969 112.25 C 92.515625 112.230469 92.113281 112.195312 91.714844 112.140625 C 91.320312 112.085938 90.929688 112.011719 90.542969 111.921875 C 90.160156 111.832031 89.78125 111.726562 89.410156 111.601562 C 89.042969 111.476562 88.679688 111.339844 88.324219 111.183594 C 87.96875 111.027344 87.625 110.855469 87.289062 110.671875 C 86.953125 110.484375 86.625 110.285156 86.308594 110.074219 C 85.988281 109.859375 85.683594 109.632812 85.386719 109.390625 C 85.089844 109.152344 84.804688 108.898438 84.53125 108.632812 C 84.261719 108.367188 84 108.089844 83.75 107.804688 C 83.5 107.515625 83.265625 107.214844 83.042969 106.90625 C 82.820312 106.597656 82.613281 106.277344 82.417969 105.949219 C 82.222656 105.617188 82.042969 105.277344 81.878906 104.933594 C 81.714844 104.582031 81.566406 104.226562 81.433594 103.863281 C 81.300781 103.5 81.183594 103.128906 81.085938 102.753906 C 80.984375 102.371094 80.902344 101.984375 80.839844 101.597656 C 80.773438 101.203125 80.726562 100.804688 80.699219 100.40625 C 80.675781 100.109375 80.667969 99.8125 80.667969 99.511719 C 80.667969 95.980469 82.117188 92.78125 84.453125 90.472656 C 83.25 90.820312 82.015625 91.273438 80.75 91.847656 C 80.75 91.847656 78.632812 92.925781 75.667969 94.640625 C 75.609375 94.675781 75.546875 94.710938 75.484375 94.746094 C 73.183594 96.085938 71.308594 97.964844 69.394531 99.761719 C 67.496094 101.546875 65.402344 102.953125 64.058594 105.257812 C 63.652344 105.953125 63.324219 106.699219 62.855469 107.359375 C 61.878906 108.742188 59.664062 110.453125 57.972656 109.378906 C 55.867188 108.050781 58.75 105.699219 59.84375 104.824219 C 60.832031 104.03125 61.605469 103.152344 62.476562 102.253906 C 64.660156 99.996094 67.296875 98.25 69.785156 96.355469 C 71.496094 95.050781 73.214844 93.765625 74.953125 92.507812 C 74.953125 92.507812 75.207031 86.632812 71.054688 81.757812 C 71.132812 81.816406 75.972656 85.546875 77.34375 90.632812 C 77.34375 90.632812 83.144531 83.769531 78.742188 75.898438 C 78.820312 76.003906 83.894531 83.179688 83.273438 87.894531 C 83.273438 87.894531 87.296875 80.023438 83.964844 73.898438 C 84.058594 74.039062 87.472656 79.25 86.542969 86.769531 C 86.542969 86.769531 93.585938 76.648438 89.5 70.460938 C 89.59375 70.570312 93.589844 75.335938 90.773438 86.144531 C 90.773438 86.144531 97.800781 82.019531 93.835938 67.148438 C 93.886719 67.25 98.28125 76.574219 94.277344 86.082031 C 94.277344 86.082031 101.886719 81.144531 100.316406 67.710938 C 100.316406 67.710938 102.699219 76.019531 97.230469 86.519531 C 97.230469 86.519531 103.648438 84.894531 103.019531 68.273438 C 103.019531 68.273438 104.78125 77.332031 99.6875 87.394531 C 99.6875 87.394531 106.730469 79.394531 106.605469 68.460938 C 106.605469 68.460938 107.925781 76.082031 101.824219 87.957031 C 101.90625 87.910156 113.265625 81.378906 111.449219 70.085938 C 111.449219 70.085938 113.902344 79.769531 104.402344 89.519531 C 104.402344 89.519531 114.65625 88.207031 114.78125 73.148438 C 114.78125 73.148438 115.976562 85.519531 106.667969 91.203125 C 106.804688 91.164062 122.378906 86.28125 120.125 74.394531 C 120.125 74.394531 123.835938 84.457031 108.871094 93.078125 C 108.980469 93.039062 123.269531 87.933594 124.71875 80.902344 C 124.671875 81.175781 123.242188 89.230469 110.691406 94.640625 C 110.691406 94.640625 119.308594 96.453125 125.15625 85.832031 C 125.15625 85.832031 121.949219 95.140625 112.957031 96.640625 C 112.957031 96.640625 121.636719 99.015625 128.050781 89.082031 C 127.996094 89.214844 124.453125 97.589844 114.59375 99.015625 C 114.59375 99.015625 124.277344 104.015625 130.878906 95.207031 C 130.820312 95.320312 126.710938 102.824219 115.851562 102.203125 C 115.851562 102.203125 124.527344 109.761719 130.878906 99.894531 " fill-opacity="1" fill-rule="nonzero"/></g><path fill="#ffffff" d="M 97.726562 99.382812 C 97.726562 100.277344 97 101.003906 96.101562 101.003906 C 95.207031 101.003906 94.480469 100.277344 94.480469 99.382812 C 94.480469 98.484375 95.207031 97.757812 96.101562 97.757812 C 97 97.757812 97.726562 98.484375 97.726562 99.382812 " fill-opacity="1" fill-rule="nonzero"/><path fill="#ffffff" d="M 87.890625 92.820312 C 87.890625 92.820312 87.925781 92.785156 87.984375 92.714844 C 88.011719 92.679688 88.050781 92.636719 88.09375 92.585938 C 88.140625 92.535156 88.195312 92.484375 88.253906 92.421875 C 88.285156 92.390625 88.316406 92.355469 88.355469 92.324219 C 88.390625 92.292969 88.429688 92.261719 88.46875 92.226562 C 88.507812 92.191406 88.546875 92.15625 88.589844 92.121094 C 88.636719 92.085938 88.683594 92.050781 88.730469 92.015625 C 88.78125 91.976562 88.828125 91.9375 88.882812 91.902344 C 88.9375 91.867188 88.992188 91.828125 89.046875 91.792969 C 89.160156 91.714844 89.285156 91.644531 89.414062 91.570312 C 89.480469 91.527344 89.546875 91.496094 89.617188 91.460938 C 89.6875 91.425781 89.757812 91.390625 89.828125 91.351562 C 89.902344 91.320312 89.980469 91.285156 90.054688 91.253906 C 90.09375 91.234375 90.132812 91.21875 90.171875 91.203125 C 90.210938 91.1875 90.25 91.171875 90.289062 91.15625 C 90.371094 91.125 90.453125 91.09375 90.535156 91.0625 C 90.621094 91.035156 90.703125 91.007812 90.789062 90.980469 C 90.835938 90.964844 90.878906 90.949219 90.921875 90.9375 C 90.964844 90.921875 91.007812 90.914062 91.054688 90.898438 C 91.144531 90.875 91.234375 90.851562 91.324219 90.828125 C 91.414062 90.808594 91.507812 90.785156 91.601562 90.765625 C 91.648438 90.757812 91.695312 90.746094 91.742188 90.734375 C 91.789062 90.726562 91.835938 90.71875 91.886719 90.710938 C 91.980469 90.695312 92.078125 90.679688 92.171875 90.664062 C 92.269531 90.652344 92.367188 90.640625 92.46875 90.628906 C 92.515625 90.625 92.566406 90.617188 92.613281 90.613281 C 92.664062 90.609375 92.714844 90.605469 92.761719 90.601562 C 92.863281 90.59375 92.960938 90.585938 93.0625 90.582031 C 93.160156 90.578125 93.261719 90.574219 93.363281 90.574219 L 93.4375 90.570312 L 93.476562 90.566406 L 93.484375 90.5625 L 93.5 90.5625 L 93.519531 90.566406 L 93.664062 90.570312 L 93.957031 90.578125 C 94.058594 90.585938 94.160156 90.59375 94.261719 90.601562 L 94.414062 90.613281 C 94.464844 90.613281 94.511719 90.625 94.5625 90.628906 C 94.660156 90.640625 94.757812 90.652344 94.855469 90.664062 C 95.25 90.726562 95.628906 90.800781 95.992188 90.90625 C 96.355469 91.003906 96.695312 91.136719 97.015625 91.269531 C 97.328125 91.414062 97.621094 91.5625 97.871094 91.722656 C 97.933594 91.765625 97.996094 91.804688 98.058594 91.84375 C 98.117188 91.882812 98.171875 91.925781 98.230469 91.964844 C 98.285156 92.007812 98.339844 92.042969 98.386719 92.085938 C 98.4375 92.125 98.484375 92.164062 98.53125 92.203125 C 98.578125 92.246094 98.625 92.277344 98.664062 92.320312 C 98.707031 92.359375 98.746094 92.394531 98.785156 92.433594 C 98.820312 92.46875 98.855469 92.503906 98.890625 92.539062 C 98.921875 92.574219 98.953125 92.609375 98.984375 92.640625 C 99.039062 92.703125 99.09375 92.761719 99.132812 92.8125 C 99.171875 92.867188 99.207031 92.914062 99.234375 92.949219 C 99.289062 93.023438 99.316406 93.0625 99.316406 93.0625 C 99.316406 93.0625 99.28125 93.03125 99.207031 92.976562 C 99.171875 92.945312 99.128906 92.910156 99.078125 92.867188 C 99.027344 92.828125 98.964844 92.785156 98.898438 92.734375 C 98.863281 92.707031 98.828125 92.679688 98.792969 92.652344 C 98.753906 92.628906 98.710938 92.601562 98.667969 92.574219 C 98.625 92.546875 98.582031 92.515625 98.535156 92.488281 C 98.492188 92.457031 98.441406 92.429688 98.390625 92.402344 C 98.339844 92.371094 98.289062 92.339844 98.234375 92.308594 C 98.183594 92.277344 98.125 92.25 98.066406 92.222656 C 98.007812 92.191406 97.949219 92.160156 97.890625 92.128906 C 97.828125 92.101562 97.761719 92.070312 97.699219 92.042969 C 97.632812 92.015625 97.570312 91.980469 97.5 91.953125 C 97.429688 91.925781 97.359375 91.898438 97.289062 91.871094 C 97.253906 91.855469 97.21875 91.839844 97.183594 91.828125 C 97.144531 91.816406 97.109375 91.800781 97.070312 91.789062 C 96.996094 91.761719 96.921875 91.734375 96.84375 91.710938 C 96.53125 91.613281 96.203125 91.515625 95.855469 91.445312 C 95.8125 91.433594 95.769531 91.425781 95.726562 91.417969 L 95.660156 91.402344 L 95.59375 91.390625 C 95.503906 91.375 95.417969 91.359375 95.328125 91.34375 C 95.238281 91.324219 95.144531 91.316406 95.054688 91.304688 C 94.960938 91.292969 94.871094 91.277344 94.777344 91.265625 C 94.59375 91.25 94.40625 91.226562 94.222656 91.21875 C 94.128906 91.214844 94.035156 91.207031 93.941406 91.203125 L 93.652344 91.195312 L 93.503906 91.195312 L 93.488281 91.191406 C 93.480469 91.191406 93.492188 91.191406 93.488281 91.191406 L 93.476562 91.191406 L 93.371094 91.195312 C 93.273438 91.195312 93.179688 91.199219 93.085938 91.199219 C 92.992188 91.203125 92.898438 91.207031 92.804688 91.214844 C 92.757812 91.214844 92.710938 91.21875 92.664062 91.21875 C 92.617188 91.222656 92.570312 91.226562 92.523438 91.230469 C 92.152344 91.257812 91.789062 91.3125 91.441406 91.367188 C 91.355469 91.386719 91.265625 91.402344 91.183594 91.417969 C 91.140625 91.429688 91.097656 91.4375 91.054688 91.445312 C 91.011719 91.457031 90.96875 91.464844 90.929688 91.476562 C 90.84375 91.496094 90.761719 91.511719 90.683594 91.53125 C 90.601562 91.554688 90.523438 91.578125 90.445312 91.597656 C 90.402344 91.609375 90.363281 91.621094 90.324219 91.632812 C 90.289062 91.644531 90.25 91.65625 90.210938 91.667969 C 90.136719 91.691406 90.0625 91.714844 89.988281 91.738281 C 89.917969 91.765625 89.847656 91.789062 89.777344 91.816406 C 89.707031 91.839844 89.636719 91.863281 89.570312 91.894531 C 89.441406 91.949219 89.3125 91.996094 89.195312 92.054688 C 89.136719 92.082031 89.078125 92.109375 89.019531 92.132812 C 88.964844 92.160156 88.914062 92.191406 88.859375 92.21875 C 88.808594 92.242188 88.757812 92.269531 88.710938 92.292969 C 88.664062 92.320312 88.617188 92.347656 88.574219 92.375 C 88.53125 92.398438 88.488281 92.425781 88.445312 92.445312 C 88.40625 92.46875 88.371094 92.496094 88.335938 92.519531 C 88.261719 92.5625 88.199219 92.605469 88.144531 92.640625 C 88.089844 92.679688 88.042969 92.710938 88.007812 92.738281 C 87.933594 92.792969 87.890625 92.820312 87.890625 92.820312 " fill-opacity="1" fill-rule="nonzero"/><g clip-path="url(#1fa8de2738)"><path fill="#100f0d" d="M 123.605469 116.011719 C 123.605469 116.011719 123.394531 114.25 121.144531 112.261719 C 119.855469 111.125 117.894531 109.910156 114.914062 108.914062 C 114.746094 108.871094 114.570312 108.84375 114.398438 108.828125 C 114.042969 108.800781 113.6875 108.835938 113.359375 108.964844 C 112.824219 109.167969 112.414062 109.589844 111.984375 109.964844 C 111.308594 110.558594 110.554688 111.054688 109.757812 111.472656 C 106.132812 113.363281 101.871094 113.632812 97.859375 113.828125 C 93.472656 114.042969 89.082031 113.769531 84.785156 112.84375 C 81.363281 112.109375 78.121094 110.828125 74.625 110.429688 C 71.570312 110.082031 68.394531 110.226562 65.464844 111.214844 C 64.375 111.585938 63.484375 112.195312 62.46875 112.679688 C 63.359375 112.253906 64.289062 111.929688 65.246094 111.6875 C 68.988281 110.734375 72.992188 111.046875 76.722656 111.910156 C 80.378906 112.757812 83.691406 114.378906 87.457031 114.878906 C 93.140625 115.640625 99.015625 115.640625 104.734375 115.261719 C 106.75 115.011719 107.671875 118.425781 107.671875 118.425781 C 107.753906 116.34375 105.910156 114.84375 105.910156 114.84375 C 109.433594 114.59375 110.1875 119.09375 110.1875 119.09375 C 110.1875 115.175781 107.335938 114.21875 107.335938 114.21875 C 112.871094 113.261719 114.128906 118.925781 114.128906 118.925781 C 114.128906 116.199219 110.496094 112.898438 110.4375 112.84375 C 114.96875 114.179688 115.722656 118.34375 115.722656 118.34375 C 115.890625 114.925781 111.359375 112.179688 111.359375 112.179688 C 117.0625 112.511719 118.238281 119.511719 118.238281 119.511719 C 118.070312 114.925781 113.542969 111.179688 113.542969 111.179688 C 120.25 112.429688 121.171875 118.425781 121.171875 118.425781 C 120.667969 112.761719 114.882812 110.378906 114.882812 110.378906 C 114.882812 110.378906 114.886719 110.382812 114.894531 110.382812 C 115.179688 110.421875 121.3125 111.292969 123.605469 116.011719 " fill-opacity="1" fill-rule="nonzero"/></g></svg>