<svg xmlns="http://www.w3.org/2000/svg" xmlns:xlink="http://www.w3.org/1999/xlink" width="250" zoomAndPan="magnify" viewBox="0 0 187.5 187.499992" height="250" preserveAspectRatio="xMidYMid meet" version="1.0"><defs><clipPath id="805ba9bbfb"><path d="M 111 60.777344 L 115 60.777344 L 115 67 L 111 67 Z M 111 60.777344 " clip-rule="nonzero"/></clipPath><clipPath id="7eaeffde22"><path d="M 56.101562 68 L 130.902344 68 L 130.902344 126.601562 L 56.101562 126.601562 Z M 56.101562 68 " clip-rule="nonzero"/></clipPath></defs><g clip-path="url(#805ba9bbfb)"><path fill="#000000" d="M 113.71875 66.886719 C 114.1875 66.769531 114.539062 66.300781 114.421875 65.828125 L 113.71875 61.714844 C 113.601562 61.246094 113.136719 60.894531 112.667969 61.011719 C 112.199219 61.128906 111.851562 61.597656 111.96875 62.070312 L 112.667969 66.183594 C 112.785156 66.652344 113.253906 67.003906 113.71875 66.886719 Z M 113.71875 66.886719 " fill-opacity="1" fill-rule="nonzero"/></g><path fill="#000000" d="M 116.875 66.535156 C 117.34375 66.535156 117.695312 66.183594 117.695312 65.828125 L 118.277344 62.304688 C 118.394531 61.832031 118.042969 61.363281 117.578125 61.246094 C 117.109375 61.128906 116.640625 61.480469 116.523438 61.949219 L 115.941406 65.476562 C 115.941406 66.066406 116.292969 66.535156 116.875 66.535156 Z M 116.875 66.535156 " fill-opacity="1" fill-rule="nonzero"/><path fill="#000000" d="M 120.03125 67.710938 L 121.667969 67.003906 C 122.136719 66.769531 122.253906 66.300781 122.136719 65.828125 C 121.902344 65.359375 121.433594 65.242188 120.964844 65.359375 L 119.332031 66.066406 C 118.863281 66.300781 118.746094 66.769531 118.863281 67.242188 C 119.097656 67.710938 119.5625 67.945312 120.03125 67.710938 Z M 120.03125 67.710938 " fill-opacity="1" fill-rule="nonzero"/><g clip-path="url(#7eaeffde22)"><path fill="#000000" d="M 56.800781 99.566406 C 57.386719 100.859375 58.789062 101.914062 60.074219 101.5625 C 60.308594 103.914062 60.660156 106.382812 61.945312 108.378906 C 63.230469 110.378906 65.917969 111.789062 68.136719 110.847656 C 68.023438 111.90625 68.605469 112.964844 69.308594 113.671875 C 71.175781 115.316406 75.269531 115.550781 76.902344 113.316406 C 77.371094 112.730469 77.488281 112.023438 77.605469 111.203125 C 77.839844 110.496094 77.957031 109.792969 77.839844 109.203125 C 77.722656 105.441406 77.371094 101.679688 76.90625 98.035156 C 77.605469 97.566406 78.074219 97.917969 82.046875 97.332031 C 82.28125 101.445312 83.683594 104.738281 85.085938 108.5 C 86.722656 112.964844 87.304688 117.785156 87.890625 122.484375 C 88.007812 123.542969 88.125 124.71875 88.359375 125.777344 C 88.476562 126.246094 88.824219 126.480469 89.175781 126.480469 L 89.292969 126.480469 C 89.761719 126.363281 90.109375 126.011719 89.996094 125.542969 C 89.878906 124.484375 89.644531 123.425781 89.527344 122.25 C 88.941406 117.429688 88.242188 112.496094 86.605469 107.910156 C 85.320312 104.265625 83.800781 100.859375 83.683594 97.097656 C 84.851562 96.863281 86.019531 96.742188 87.1875 96.507812 C 88.824219 98.742188 92.332031 98.507812 93.5 95.921875 C 95.605469 96.625 98.058594 94.863281 98.175781 92.746094 C 99.695312 92.863281 100.980469 91.6875 101.449219 90.277344 C 101.683594 90.515625 101.800781 90.75 101.683594 91.21875 C 101.566406 91.453125 101.449219 91.570312 101.332031 91.6875 C 100.863281 91.925781 100.746094 92.394531 100.863281 92.863281 C 101.449219 94.039062 103.316406 92.980469 103.433594 91.21875 C 104.253906 91.335938 104.953125 91.21875 105.421875 90.984375 C 105.890625 90.75 106.007812 90.277344 105.773438 89.808594 C 105.539062 89.339844 105.070312 89.222656 104.605469 89.457031 C 104.253906 89.574219 103.433594 89.574219 103.085938 89.339844 C 102.96875 89.339844 102.96875 89.339844 102.851562 89.222656 C 102.382812 88.632812 102.03125 88.515625 101.683594 88.164062 C 101.097656 87.574219 100.746094 86.515625 100.980469 85.695312 C 101.097656 85.460938 101.332031 85.105469 101.683594 85.105469 C 102.148438 84.988281 102.617188 85.222656 103.203125 85.34375 C 104.371094 85.695312 105.539062 86.164062 106.707031 86.636719 C 109.277344 87.691406 108.460938 88.046875 107.875 93.570312 C 107.410156 96.507812 107.058594 98.273438 103.433594 100.269531 C 101.683594 101.210938 99.8125 102.152344 98.992188 104.148438 C 98.292969 105.792969 98.878906 107.558594 99.460938 109.085938 C 100.746094 112.613281 102.265625 116.019531 103.667969 119.429688 C 103.785156 119.78125 104.136719 119.898438 104.488281 119.898438 C 104.605469 119.898438 104.722656 119.898438 104.835938 119.78125 C 105.304688 119.546875 105.539062 119.078125 105.304688 118.605469 C 103.902344 115.316406 102.382812 111.90625 101.097656 108.378906 C 100.628906 107.207031 100.28125 105.792969 100.628906 104.621094 C 101.566406 102.152344 106.707031 101.679688 108.695312 97.449219 C 109.277344 96.273438 109.394531 94.980469 109.628906 93.804688 C 110.679688 93.6875 111.734375 93.570312 112.785156 93.335938 C 112.785156 93.335938 112.785156 93.335938 112.785156 93.21875 C 113.488281 96.273438 114.1875 99.449219 115.121094 102.738281 C 115.238281 103.5625 115.941406 104.972656 116.058594 105.089844 C 117.109375 106.96875 120.148438 107.441406 122.019531 106.734375 C 124.238281 105.792969 125.757812 103.207031 125.289062 100.859375 C 127.277344 100.152344 128.5625 98.035156 128.914062 95.921875 C 129.265625 93.804688 128.914062 91.6875 128.5625 89.574219 C 129.5 89.457031 130.433594 88.75 130.667969 87.808594 C 130.667969 87.691406 130.667969 87.574219 130.667969 87.457031 C 130.902344 86.988281 130.902344 86.515625 130.902344 86.046875 L 130.785156 83.226562 C 130.550781 81.816406 129.265625 80.757812 127.863281 80.992188 L 126.925781 81.109375 C 126.578125 79.113281 126.226562 76.996094 125.058594 75.234375 C 124.003906 73.707031 121.902344 72.292969 119.796875 72.765625 C 119.796875 72.53125 119.679688 72.414062 119.679688 72.175781 C 119.214844 69.828125 116.992188 68.179688 114.539062 68.535156 L 114.1875 68.535156 C 111.734375 69.121094 110.097656 71.472656 110.449219 73.824219 C 110.449219 77.230469 110.796875 80.757812 111.265625 84.519531 L 107.875 85.222656 C 107.292969 84.988281 106.238281 84.519531 105.65625 84.285156 C 105.773438 83.695312 105.773438 83.109375 105.539062 82.519531 C 105.070312 81.226562 103.085938 79.230469 101.097656 78.757812 C 99.8125 78.523438 98.175781 78.996094 97.472656 80.289062 C 95.605469 78.289062 92.214844 78.757812 91.164062 81.464844 C 89.410156 80.875 87.421875 81.582031 86.605469 83.460938 C 85.203125 82.992188 83.449219 83.578125 82.632812 84.871094 C 81.929688 86.164062 81.929688 87.808594 82.398438 89.457031 C 81.695312 89.574219 79.359375 90.042969 75.851562 90.632812 C 75.152344 86.988281 74.214844 83.460938 73.046875 80.050781 C 72.578125 77.703125 70.359375 76.054688 67.90625 76.410156 L 67.554688 76.410156 C 65.214844 76.761719 63.582031 79.113281 63.929688 81.464844 L 63.929688 82.519531 C 61.710938 82.636719 60.074219 84.636719 59.605469 86.398438 C 59.023438 88.515625 59.371094 90.632812 59.605469 92.746094 C 59.257812 92.863281 57.855469 92.511719 56.917969 93.921875 C 56.449219 94.511719 56.335938 95.097656 56.335938 95.804688 C 56.101562 97.097656 56.335938 98.507812 56.800781 99.566406 Z M 128.679688 82.992188 C 129.148438 83.34375 128.914062 83.695312 129.382812 86.398438 C 129.5 86.871094 129.148438 87.222656 128.796875 87.339844 L 128.097656 87.457031 C 127.863281 85.929688 127.511719 84.636719 127.160156 82.992188 C 127.863281 82.875 128.328125 82.636719 128.679688 82.992188 Z M 123.539062 76.292969 C 124.472656 77.703125 124.707031 79.464844 125.058594 80.992188 C 125.875 85.695312 127.277344 90.160156 126.925781 94.746094 C 126.808594 95.804688 126.695312 96.625 126.34375 97.214844 C 125.992188 97.800781 124.824219 98.507812 124.238281 98.625 C 123.421875 89.222656 122.136719 81.34375 120.148438 74.527344 C 121.433594 74.292969 122.835938 75.117188 123.539062 76.292969 Z M 114.421875 70.53125 L 114.773438 70.53125 C 116.175781 70.296875 117.578125 71.238281 117.925781 72.765625 C 118.160156 73.941406 121.316406 81.816406 122.835938 101.679688 C 123.070312 103.207031 122.136719 104.621094 120.617188 104.855469 C 120.382812 104.855469 119.332031 105.324219 118.160156 104.5 C 117.578125 104.03125 117.226562 103.445312 116.992188 102.621094 C 111.734375 84.167969 112.433594 74.761719 112.199219 73.707031 C 111.96875 72.175781 112.902344 70.765625 114.421875 70.53125 Z M 112.316406 90.75 L 110.097656 91.21875 C 110.332031 89.457031 110.796875 88.046875 109.863281 86.636719 L 111.617188 86.28125 C 111.734375 87.691406 112.082031 89.222656 112.316406 90.75 Z M 100.746094 80.523438 C 101.566406 80.640625 102.265625 81.226562 103.203125 82.167969 C 103.667969 82.636719 104.019531 83.109375 104.019531 83.695312 C 103.203125 83.460938 102.382812 83.226562 101.566406 83.34375 C 99.34375 83.695312 98.761719 86.164062 99.695312 88.164062 L 99.695312 88.515625 C 99.8125 88.984375 99.460938 90.042969 99.109375 90.277344 C 98.761719 90.632812 98.292969 90.75 97.824219 90.515625 L 97.707031 90.515625 C 97.472656 87.929688 96.65625 84.636719 98.292969 82.402344 C 98.410156 82.167969 98.761719 80.171875 100.746094 80.523438 Z M 93.96875 80.875 C 94.785156 80.640625 95.722656 80.875 96.304688 81.582031 C 96.421875 81.699219 96.539062 81.816406 96.65625 81.816406 C 93.96875 86.398438 97.707031 92.628906 95.253906 93.804688 C 95.019531 93.921875 94.085938 93.6875 93.96875 93.453125 C 93.96875 93.335938 93.851562 93.335938 93.734375 93.21875 C 93.382812 89.925781 91.980469 86.164062 92.566406 82.992188 C 92.566406 82.875 92.566406 82.757812 92.566406 82.757812 C 92.566406 81.933594 93.148438 81.109375 93.96875 80.875 Z M 88.007812 84.871094 C 87.890625 84.167969 88.359375 83.460938 88.941406 83.226562 C 89.527344 82.992188 90.226562 82.992188 90.695312 83.226562 C 89.996094 87.691406 92.683594 93.6875 91.746094 95.214844 C 91.398438 95.6875 90.578125 95.804688 89.996094 95.570312 C 89.410156 95.214844 88.941406 94.511719 88.824219 93.6875 C 88.824219 93.453125 88.707031 93.335938 88.59375 93.101562 C 88.707031 92.277344 88.59375 91.6875 88.359375 90.867188 C 87.773438 87.808594 87.890625 85.8125 87.890625 85.460938 C 88.007812 85.105469 88.007812 84.988281 88.007812 84.871094 Z M 83.917969 85.695312 C 84.382812 84.988281 85.554688 84.871094 86.136719 85.105469 L 86.136719 85.34375 C 86.019531 89.808594 86.957031 91.570312 86.839844 92.628906 C 86.839844 92.980469 86.605469 93.335938 86.371094 93.453125 C 86.136719 93.570312 85.785156 93.453125 85.554688 93.21875 C 85.203125 92.980469 85.085938 92.511719 84.851562 91.925781 C 83.332031 88.046875 83.566406 86.398438 83.917969 85.695312 Z M 82.75 91.101562 C 83.214844 92.628906 83.683594 94.15625 84.851562 94.863281 C 82.75 95.214844 79.828125 95.570312 76.671875 96.15625 C 76.4375 94.863281 76.320312 93.570312 75.96875 92.394531 C 79.59375 91.808594 81.929688 91.335938 82.75 91.101562 Z M 67.789062 78.289062 L 68.136719 78.289062 C 69.773438 78.054688 71.058594 79.230469 71.292969 80.523438 C 71.410156 81.34375 75.617188 92.042969 76.203125 109.4375 C 76.4375 110.964844 75.5 112.378906 73.980469 112.613281 L 73.398438 112.613281 C 71.878906 112.847656 70.59375 111.90625 70.242188 110.378906 C 70.125 109.554688 65.449219 96.980469 65.449219 81.582031 L 65.449219 81.464844 C 65.332031 79.933594 66.269531 78.523438 67.789062 78.289062 Z M 61.125 87.105469 C 61.476562 85.8125 62.527344 84.636719 63.8125 84.402344 C 64.046875 92.160156 65.449219 100.269531 67.90625 108.378906 C 67.789062 108.378906 67.671875 108.378906 67.4375 108.5 C 67.085938 108.734375 65.214844 108.378906 64.632812 107.910156 C 64.046875 107.441406 63.699219 106.617188 63.347656 105.675781 C 61.710938 101.445312 61.710938 96.742188 61.007812 92.042969 C 60.890625 90.515625 60.660156 88.75 61.125 87.105469 Z M 58.671875 94.746094 L 59.605469 94.628906 C 59.839844 96.273438 59.839844 97.566406 60.074219 99.09375 L 59.371094 99.210938 C 58.90625 99.328125 58.554688 98.976562 58.4375 98.507812 L 57.96875 95.6875 C 57.96875 95.214844 58.320312 94.863281 58.671875 94.746094 Z M 58.671875 94.746094 " fill-opacity="1" fill-rule="nonzero"/></g></svg>