<svg xmlns="http://www.w3.org/2000/svg" xmlns:xlink="http://www.w3.org/1999/xlink" width="250" zoomAndPan="magnify" viewBox="0 0 187.5 187.499992" height="250" preserveAspectRatio="xMidYMid meet" version="1.0"><defs><clipPath id="5999ba5301"><path d="M 125 36.230469 L 131 36.230469 L 131 47 L 125 47 Z M 125 36.230469 " clip-rule="nonzero"/></clipPath><clipPath id="652580099c"><path d="M 28.050781 49 L 158.949219 49 L 158.949219 150.675781 L 28.050781 150.675781 Z M 28.050781 49 " clip-rule="nonzero"/></clipPath></defs><g clip-path="url(#5999ba5301)"><path fill="#000000" d="M 128.886719 46.859375 C 129.703125 46.652344 130.316406 45.835938 130.113281 45.019531 L 128.886719 37.867188 C 128.679688 37.050781 127.863281 36.4375 127.042969 36.640625 C 126.226562 36.84375 125.613281 37.660156 125.816406 38.480469 L 127.042969 45.632812 C 127.25 46.449219 128.066406 47.0625 128.886719 46.859375 Z M 128.886719 46.859375 " fill-opacity="1" fill-rule="nonzero"/></g><path fill="#000000" d="M 134.40625 46.246094 C 135.226562 46.246094 135.839844 45.632812 135.839844 45.019531 L 136.863281 38.886719 C 137.066406 38.070312 136.453125 37.253906 135.632812 37.050781 C 134.816406 36.84375 134 37.457031 133.792969 38.273438 L 132.769531 44.40625 C 132.769531 45.429688 133.382812 46.246094 134.40625 46.246094 Z M 134.40625 46.246094 " fill-opacity="1" fill-rule="nonzero"/><path fill="#000000" d="M 139.929688 48.289062 L 142.792969 47.0625 C 143.609375 46.652344 143.816406 45.835938 143.609375 45.019531 C 143.203125 44.203125 142.382812 43.996094 141.566406 44.203125 L 138.703125 45.429688 C 137.882812 45.835938 137.679688 46.652344 137.882812 47.472656 C 138.292969 48.289062 139.113281 48.699219 139.929688 48.289062 Z M 139.929688 48.289062 " fill-opacity="1" fill-rule="nonzero"/><g clip-path="url(#652580099c)"><path fill="#000000" d="M 29.277344 103.671875 C 30.300781 105.921875 32.753906 107.757812 35.003906 107.144531 C 35.414062 111.234375 36.027344 115.527344 38.277344 119 C 40.527344 122.472656 45.230469 124.925781 49.117188 123.292969 C 48.914062 125.128906 49.933594 126.96875 51.164062 128.195312 C 54.433594 131.058594 61.59375 131.464844 64.457031 127.582031 C 65.273438 126.5625 65.480469 125.335938 65.683594 123.90625 C 66.09375 122.679688 66.296875 121.453125 66.09375 120.429688 C 65.890625 113.890625 65.273438 107.351562 64.457031 101.015625 C 65.683594 100.199219 66.503906 100.8125 73.457031 99.789062 C 73.867188 106.941406 76.320312 112.664062 78.773438 119.203125 C 81.636719 126.96875 82.660156 135.347656 83.683594 143.523438 C 83.886719 145.363281 84.09375 147.40625 84.5 149.246094 C 84.707031 150.0625 85.320312 150.472656 85.933594 150.472656 L 86.136719 150.472656 C 86.957031 150.269531 87.570312 149.65625 87.363281 148.835938 C 87.160156 146.996094 86.75 145.160156 86.546875 143.113281 C 85.523438 134.734375 84.296875 126.152344 81.433594 118.183594 C 79.183594 111.847656 76.523438 105.921875 76.320312 99.378906 C 78.367188 98.972656 80.410156 98.765625 82.457031 98.359375 C 85.320312 102.242188 91.457031 101.832031 93.5 97.335938 C 97.183594 98.5625 101.476562 95.496094 101.683594 91.820312 C 104.339844 92.023438 106.589844 89.980469 107.410156 87.527344 C 107.816406 87.9375 108.023438 88.34375 107.816406 89.164062 C 107.613281 89.570312 107.410156 89.773438 107.203125 89.980469 C 106.386719 90.386719 106.183594 91.207031 106.386719 92.023438 C 107.410156 94.066406 110.679688 92.226562 110.886719 89.164062 C 112.316406 89.367188 113.542969 89.164062 114.363281 88.753906 C 115.179688 88.34375 115.386719 87.527344 114.976562 86.710938 C 114.566406 85.890625 113.75 85.6875 112.929688 86.097656 C 112.316406 86.300781 110.886719 86.300781 110.273438 85.890625 C 110.066406 85.890625 110.066406 85.890625 109.863281 85.6875 C 109.046875 84.667969 108.429688 84.460938 107.816406 83.847656 C 106.796875 82.828125 106.183594 80.988281 106.589844 79.558594 C 106.796875 79.148438 107.203125 78.535156 107.816406 78.535156 C 108.636719 78.332031 109.453125 78.738281 110.476562 78.945312 C 112.523438 79.558594 114.566406 80.375 116.613281 81.191406 C 121.113281 83.03125 119.679688 83.644531 118.65625 93.25 C 117.839844 98.359375 117.226562 101.425781 110.886719 104.898438 C 107.816406 106.535156 104.546875 108.167969 103.113281 111.640625 C 101.886719 114.503906 102.910156 117.570312 103.933594 120.226562 C 106.183594 126.355469 108.839844 132.285156 111.296875 138.210938 C 111.5 138.824219 112.113281 139.027344 112.726562 139.027344 C 112.929688 139.027344 113.136719 139.027344 113.339844 138.824219 C 114.160156 138.414062 114.566406 137.597656 114.160156 136.78125 C 111.703125 131.058594 109.046875 125.128906 106.796875 119 C 105.976562 116.957031 105.363281 114.503906 105.976562 112.460938 C 107.613281 108.167969 116.613281 107.351562 120.089844 99.992188 C 121.113281 97.949219 121.316406 95.703125 121.726562 93.660156 C 123.566406 93.453125 125.40625 93.25 127.25 92.839844 C 127.25 92.839844 127.25 92.839844 127.25 92.636719 C 128.476562 97.949219 129.703125 103.46875 131.339844 109.191406 C 131.542969 110.621094 132.769531 113.074219 132.976562 113.277344 C 134.816406 116.546875 140.132812 117.363281 143.40625 116.136719 C 147.292969 114.503906 149.953125 110.007812 149.132812 105.921875 C 152.609375 104.695312 154.859375 101.015625 155.472656 97.335938 C 156.085938 93.660156 155.472656 89.980469 154.859375 86.300781 C 156.496094 86.097656 158.132812 84.871094 158.542969 83.234375 C 158.542969 83.03125 158.542969 82.828125 158.542969 82.621094 C 158.949219 81.804688 158.949219 80.988281 158.949219 80.171875 L 158.746094 75.265625 C 158.335938 72.8125 156.085938 70.972656 153.632812 71.382812 L 151.996094 71.585938 C 151.382812 68.113281 150.769531 64.433594 148.722656 61.367188 C 146.882812 58.710938 143.203125 56.257812 139.519531 57.078125 C 139.519531 56.667969 139.316406 56.464844 139.316406 56.054688 C 138.496094 51.96875 134.613281 49.105469 130.316406 49.71875 L 129.703125 49.71875 C 125.40625 50.742188 122.542969 54.828125 123.15625 58.917969 C 123.15625 64.84375 123.773438 70.972656 124.589844 77.511719 L 118.65625 78.738281 C 117.636719 78.332031 115.792969 77.511719 114.773438 77.105469 C 114.976562 76.082031 114.976562 75.0625 114.566406 74.039062 C 113.75 71.792969 110.273438 68.316406 106.796875 67.5 C 104.546875 67.089844 101.683594 67.910156 100.453125 70.15625 C 97.183594 66.683594 91.25 67.5 89.410156 72.199219 C 86.34375 71.179688 82.863281 72.402344 81.433594 75.675781 C 78.980469 74.855469 75.910156 75.878906 74.480469 78.125 C 73.25 80.375 73.25 83.234375 74.070312 86.097656 C 72.84375 86.300781 68.753906 87.117188 62.617188 88.140625 C 61.390625 81.804688 59.753906 75.675781 57.707031 69.746094 C 56.890625 65.660156 53.003906 62.800781 48.707031 63.414062 L 48.09375 63.414062 C 44.003906 64.023438 41.140625 68.113281 41.753906 72.199219 L 41.753906 74.039062 C 37.867188 74.242188 35.003906 77.71875 34.1875 80.785156 C 33.164062 84.460938 33.777344 88.140625 34.1875 91.820312 C 33.574219 92.023438 31.117188 91.410156 29.480469 93.863281 C 28.664062 94.882812 28.460938 95.90625 28.460938 97.132812 C 28.050781 99.378906 28.460938 101.832031 29.277344 103.671875 Z M 155.066406 74.855469 C 155.882812 75.46875 155.472656 76.082031 156.292969 80.785156 C 156.496094 81.601562 155.882812 82.214844 155.269531 82.417969 L 154.042969 82.621094 C 153.632812 79.964844 153.019531 77.71875 152.40625 74.855469 C 153.632812 74.652344 154.453125 74.242188 155.066406 74.855469 Z M 146.066406 63.207031 C 147.703125 65.660156 148.109375 68.726562 148.722656 71.382812 C 150.15625 79.558594 152.609375 87.324219 151.996094 95.292969 C 151.792969 97.132812 151.589844 98.5625 150.972656 99.585938 C 150.359375 100.605469 148.316406 101.832031 147.292969 102.039062 C 145.859375 85.6875 143.609375 71.996094 140.132812 60.140625 C 142.382812 59.734375 144.839844 61.164062 146.066406 63.207031 Z M 130.113281 53.195312 L 130.726562 53.195312 C 133.179688 52.785156 135.632812 54.421875 136.246094 57.078125 C 136.65625 59.121094 142.179688 72.8125 144.839844 107.351562 C 145.246094 110.007812 143.609375 112.460938 140.953125 112.867188 C 140.542969 112.867188 138.703125 113.6875 136.65625 112.253906 C 135.632812 111.4375 135.019531 110.417969 134.613281 108.984375 C 125.40625 76.898438 126.636719 60.550781 126.226562 58.710938 C 125.816406 56.054688 127.453125 53.601562 130.113281 53.195312 Z M 126.429688 88.34375 L 122.542969 89.164062 C 122.953125 86.097656 123.773438 83.644531 122.136719 81.191406 L 125.203125 80.578125 C 125.40625 83.03125 126.019531 85.6875 126.429688 88.34375 Z M 106.183594 70.566406 C 107.613281 70.769531 108.839844 71.792969 110.476562 73.425781 C 111.296875 74.242188 111.910156 75.0625 111.910156 76.082031 C 110.476562 75.675781 109.046875 75.265625 107.613281 75.46875 C 103.726562 76.082031 102.703125 80.375 104.339844 83.847656 L 104.339844 84.460938 C 104.546875 85.277344 103.933594 87.117188 103.316406 87.527344 C 102.703125 88.140625 101.886719 88.34375 101.070312 87.9375 L 100.863281 87.9375 C 100.453125 83.441406 99.023438 77.71875 101.886719 73.835938 C 102.089844 73.425781 102.703125 69.953125 106.183594 70.566406 Z M 94.320312 71.179688 C 95.75 70.769531 97.386719 71.179688 98.410156 72.402344 C 98.613281 72.609375 98.820312 72.8125 99.023438 72.8125 C 94.320312 80.785156 100.863281 91.613281 96.570312 93.660156 C 96.160156 93.863281 94.523438 93.453125 94.320312 93.046875 C 94.320312 92.839844 94.113281 92.839844 93.910156 92.636719 C 93.296875 86.914062 90.839844 80.375 91.863281 74.855469 C 91.863281 74.652344 91.863281 74.449219 91.863281 74.449219 C 91.863281 73.015625 92.886719 71.585938 94.320312 71.179688 Z M 83.886719 78.125 C 83.683594 76.898438 84.5 75.675781 85.523438 75.265625 C 86.546875 74.855469 87.773438 74.855469 88.59375 75.265625 C 87.363281 83.03125 92.070312 93.453125 90.433594 96.109375 C 89.820312 96.929688 88.386719 97.132812 87.363281 96.722656 C 86.34375 96.109375 85.523438 94.882812 85.320312 93.453125 C 85.320312 93.046875 85.113281 92.839844 84.910156 92.433594 C 85.113281 91 84.910156 89.980469 84.5 88.550781 C 83.480469 83.234375 83.683594 79.761719 83.683594 79.148438 C 83.886719 78.535156 83.886719 78.332031 83.886719 78.125 Z M 76.730469 79.558594 C 77.546875 78.332031 79.59375 78.125 80.613281 78.535156 L 80.613281 78.945312 C 80.410156 86.710938 82.046875 89.773438 81.84375 91.613281 C 81.84375 92.226562 81.433594 92.839844 81.023438 93.046875 C 80.613281 93.25 80 93.046875 79.59375 92.636719 C 78.980469 92.226562 78.773438 91.410156 78.367188 90.386719 C 75.707031 83.644531 76.117188 80.785156 76.730469 79.558594 Z M 74.683594 88.957031 C 75.5 91.613281 76.320312 94.269531 78.367188 95.496094 C 74.683594 96.109375 69.570312 96.722656 64.046875 97.746094 C 63.640625 95.496094 63.433594 93.25 62.820312 91.207031 C 69.160156 90.183594 73.25 89.367188 74.683594 88.957031 Z M 48.503906 66.683594 L 49.117188 66.683594 C 51.980469 66.273438 54.230469 68.316406 54.640625 70.566406 C 54.84375 71.996094 62.207031 90.59375 63.230469 120.839844 C 63.640625 123.496094 62.003906 125.949219 59.34375 126.355469 L 58.320312 126.355469 C 55.664062 126.765625 53.414062 125.128906 52.796875 122.472656 C 52.59375 121.042969 44.414062 99.175781 44.414062 72.402344 L 44.414062 72.199219 C 44.207031 69.542969 45.84375 67.089844 48.503906 66.683594 Z M 36.84375 82.007812 C 37.457031 79.761719 39.300781 77.71875 41.550781 77.308594 C 41.957031 90.796875 44.414062 104.898438 48.707031 119 C 48.503906 119 48.300781 119 47.890625 119.203125 C 47.277344 119.613281 44.003906 119 42.980469 118.183594 C 41.957031 117.363281 41.34375 115.933594 40.730469 114.300781 C 37.867188 106.941406 37.867188 98.765625 36.640625 90.59375 C 36.4375 87.9375 36.027344 84.871094 36.84375 82.007812 Z M 32.550781 95.292969 L 34.1875 95.089844 C 34.59375 97.949219 34.59375 100.199219 35.003906 102.855469 L 33.777344 103.058594 C 32.960938 103.261719 32.34375 102.648438 32.140625 101.832031 L 31.324219 96.929688 C 31.324219 96.109375 31.9375 95.496094 32.550781 95.292969 Z M 32.550781 95.292969 " fill-opacity="1" fill-rule="nonzero"/></g></svg>