<svg xmlns="http://www.w3.org/2000/svg" xmlns:xlink="http://www.w3.org/1999/xlink" width="125" zoomAndPan="magnify" viewBox="0 0 94.079994 101.04" height="125" preserveAspectRatio="xMidYMid meet" version="1.0"><defs><clipPath id="eb39ab4226"><path d="M 55 30.1875 L 57 30.1875 L 57 34 L 55 34 Z M 55 30.1875 " clip-rule="nonzero"/></clipPath><clipPath id="e998f0c72e"><path d="M 57 30.1875 L 59 30.1875 L 59 34 L 57 34 Z M 57 30.1875 " clip-rule="nonzero"/></clipPath><clipPath id="0c8046e76d"><path d="M 27.851562 34 L 64.988281 34 L 64.988281 62.867188 L 27.851562 62.867188 Z M 27.851562 34 " clip-rule="nonzero"/></clipPath></defs><g clip-path="url(#eb39ab4226)"><path fill="#000000" d="M 56.460938 33.222656 C 56.691406 33.164062 56.867188 32.929688 56.808594 32.695312 L 56.460938 30.65625 C 56.402344 30.421875 56.167969 30.246094 55.9375 30.304688 C 55.707031 30.363281 55.53125 30.597656 55.589844 30.828125 L 55.9375 32.871094 C 55.996094 33.105469 56.226562 33.28125 56.460938 33.222656 Z M 56.460938 33.222656 " fill-opacity="1" fill-rule="nonzero"/></g><g clip-path="url(#e998f0c72e)"><path fill="#000000" d="M 58.027344 33.046875 C 58.257812 33.046875 58.433594 32.871094 58.433594 32.695312 L 58.722656 30.945312 C 58.78125 30.710938 58.605469 30.480469 58.375 30.421875 C 58.140625 30.363281 57.910156 30.539062 57.851562 30.769531 L 57.5625 32.523438 C 57.5625 32.8125 57.734375 33.046875 58.027344 33.046875 Z M 58.027344 33.046875 " fill-opacity="1" fill-rule="nonzero"/></g><path fill="#000000" d="M 59.59375 33.628906 L 60.40625 33.28125 C 60.636719 33.164062 60.695312 32.929688 60.636719 32.695312 C 60.519531 32.464844 60.289062 32.40625 60.058594 32.464844 L 59.246094 32.8125 C 59.011719 32.929688 58.953125 33.164062 59.011719 33.398438 C 59.128906 33.628906 59.359375 33.746094 59.59375 33.628906 Z M 59.59375 33.628906 " fill-opacity="1" fill-rule="nonzero"/><g clip-path="url(#0c8046e76d)"><path fill="#000000" d="M 28.199219 49.445312 C 28.492188 50.085938 29.1875 50.613281 29.824219 50.4375 C 29.941406 51.605469 30.117188 52.832031 30.753906 53.824219 C 31.390625 54.816406 32.726562 55.515625 33.828125 55.046875 C 33.769531 55.574219 34.0625 56.097656 34.410156 56.449219 C 35.339844 57.265625 37.367188 57.382812 38.179688 56.273438 C 38.414062 55.980469 38.472656 55.632812 38.53125 55.222656 C 38.644531 54.871094 38.703125 54.523438 38.644531 54.230469 C 38.585938 52.363281 38.414062 50.496094 38.179688 48.6875 C 38.53125 48.453125 38.761719 48.628906 40.734375 48.335938 C 40.851562 50.378906 41.546875 52.011719 42.242188 53.882812 C 43.054688 56.097656 43.34375 58.492188 43.636719 60.824219 C 43.695312 61.351562 43.75 61.933594 43.867188 62.460938 C 43.925781 62.691406 44.101562 62.808594 44.273438 62.808594 L 44.332031 62.808594 C 44.5625 62.75 44.738281 62.578125 44.679688 62.34375 C 44.621094 61.816406 44.507812 61.292969 44.449219 60.707031 C 44.15625 58.316406 43.808594 55.863281 42.996094 53.589844 C 42.359375 51.78125 41.605469 50.085938 41.546875 48.21875 C 42.128906 48.101562 42.707031 48.046875 43.289062 47.929688 C 44.101562 49.039062 45.839844 48.921875 46.421875 47.636719 C 47.464844 47.988281 48.683594 47.113281 48.742188 46.0625 C 49.496094 46.121094 50.132812 45.535156 50.367188 44.835938 C 50.484375 44.953125 50.539062 45.070312 50.484375 45.300781 C 50.425781 45.417969 50.367188 45.476562 50.308594 45.535156 C 50.078125 45.652344 50.019531 45.886719 50.078125 46.121094 C 50.367188 46.703125 51.296875 46.175781 51.351562 45.300781 C 51.757812 45.359375 52.109375 45.300781 52.339844 45.1875 C 52.570312 45.070312 52.628906 44.835938 52.515625 44.601562 C 52.398438 44.367188 52.164062 44.308594 51.933594 44.425781 C 51.757812 44.484375 51.351562 44.484375 51.179688 44.367188 C 51.121094 44.367188 51.121094 44.367188 51.0625 44.308594 C 50.832031 44.019531 50.65625 43.960938 50.484375 43.785156 C 50.191406 43.492188 50.019531 42.96875 50.132812 42.558594 C 50.191406 42.441406 50.308594 42.269531 50.484375 42.269531 C 50.714844 42.210938 50.945312 42.324219 51.238281 42.382812 C 51.816406 42.558594 52.398438 42.792969 52.976562 43.027344 C 54.253906 43.550781 53.847656 43.726562 53.558594 46.46875 C 53.328125 47.929688 53.152344 48.804688 51.351562 49.796875 C 50.484375 50.261719 49.554688 50.730469 49.148438 51.722656 C 48.800781 52.539062 49.089844 53.414062 49.378906 54.171875 C 50.019531 55.921875 50.773438 57.617188 51.46875 59.308594 C 51.527344 59.484375 51.703125 59.542969 51.875 59.542969 C 51.933594 59.542969 51.992188 59.542969 52.050781 59.484375 C 52.28125 59.367188 52.398438 59.132812 52.28125 58.898438 C 51.585938 57.265625 50.832031 55.574219 50.191406 53.824219 C 49.960938 53.238281 49.785156 52.539062 49.960938 51.953125 C 50.425781 50.730469 52.976562 50.496094 53.964844 48.394531 C 54.253906 47.8125 54.3125 47.167969 54.429688 46.585938 C 54.949219 46.527344 55.472656 46.46875 55.996094 46.351562 C 55.996094 46.351562 55.996094 46.351562 55.996094 46.292969 C 56.34375 47.8125 56.691406 49.386719 57.15625 51.019531 C 57.214844 51.429688 57.5625 52.128906 57.621094 52.1875 C 58.140625 53.121094 59.652344 53.355469 60.578125 53.003906 C 61.683594 52.539062 62.4375 51.253906 62.203125 50.085938 C 63.191406 49.738281 63.828125 48.6875 64.003906 47.636719 C 64.175781 46.585938 64.003906 45.535156 63.828125 44.484375 C 64.292969 44.425781 64.757812 44.078125 64.875 43.609375 C 64.875 43.550781 64.875 43.492188 64.875 43.433594 C 64.988281 43.203125 64.988281 42.96875 64.988281 42.734375 L 64.929688 41.332031 C 64.816406 40.632812 64.175781 40.109375 63.480469 40.226562 L 63.015625 40.285156 C 62.84375 39.292969 62.667969 38.242188 62.089844 37.367188 C 61.566406 36.605469 60.519531 35.90625 59.476562 36.140625 C 59.476562 36.023438 59.417969 35.964844 59.417969 35.847656 C 59.1875 34.679688 58.085938 33.863281 56.867188 34.039062 L 56.691406 34.039062 C 55.472656 34.332031 54.660156 35.5 54.835938 36.664062 C 54.835938 38.359375 55.007812 40.109375 55.242188 41.976562 L 53.558594 42.324219 C 53.269531 42.210938 52.746094 41.976562 52.457031 41.859375 C 52.515625 41.566406 52.515625 41.277344 52.398438 40.984375 C 52.164062 40.34375 51.179688 39.351562 50.191406 39.117188 C 49.554688 39 48.742188 39.234375 48.394531 39.875 C 47.464844 38.882812 45.78125 39.117188 45.261719 40.457031 C 44.390625 40.167969 43.402344 40.515625 42.996094 41.449219 C 42.300781 41.21875 41.429688 41.507812 41.023438 42.152344 C 40.675781 42.792969 40.675781 43.609375 40.910156 44.425781 C 40.558594 44.484375 39.398438 44.71875 37.660156 45.011719 C 37.3125 43.203125 36.847656 41.449219 36.265625 39.757812 C 36.035156 38.589844 34.933594 37.773438 33.714844 37.949219 L 33.539062 37.949219 C 32.378906 38.125 31.566406 39.292969 31.742188 40.457031 L 31.742188 40.984375 C 30.636719 41.042969 29.824219 42.035156 29.59375 42.910156 C 29.304688 43.960938 29.476562 45.011719 29.59375 46.0625 C 29.417969 46.121094 28.722656 45.945312 28.257812 46.644531 C 28.027344 46.9375 27.96875 47.226562 27.96875 47.578125 C 27.851562 48.21875 27.96875 48.921875 28.199219 49.445312 Z M 63.886719 41.21875 C 64.117188 41.390625 64.003906 41.566406 64.234375 42.910156 C 64.292969 43.144531 64.117188 43.316406 63.945312 43.375 L 63.597656 43.433594 C 63.480469 42.675781 63.308594 42.035156 63.132812 41.21875 C 63.480469 41.160156 63.710938 41.042969 63.886719 41.21875 Z M 61.332031 37.890625 C 61.796875 38.589844 61.914062 39.464844 62.089844 40.226562 C 62.496094 42.558594 63.191406 44.777344 63.015625 47.054688 C 62.957031 47.578125 62.902344 47.988281 62.726562 48.277344 C 62.550781 48.570312 61.972656 48.921875 61.683594 48.980469 C 61.277344 44.308594 60.636719 40.398438 59.652344 37.015625 C 60.289062 36.898438 60.984375 37.308594 61.332031 37.890625 Z M 56.808594 35.03125 L 56.980469 35.03125 C 57.679688 34.914062 58.375 35.382812 58.546875 36.140625 C 58.664062 36.722656 60.230469 40.632812 60.984375 50.496094 C 61.101562 51.253906 60.636719 51.953125 59.882812 52.070312 C 59.765625 52.070312 59.246094 52.304688 58.664062 51.898438 C 58.375 51.664062 58.199219 51.371094 58.085938 50.964844 C 55.472656 41.800781 55.820312 37.132812 55.707031 36.605469 C 55.589844 35.847656 56.054688 35.148438 56.808594 35.03125 Z M 55.761719 45.070312 L 54.660156 45.300781 C 54.777344 44.425781 55.007812 43.726562 54.542969 43.027344 L 55.414062 42.851562 C 55.472656 43.550781 55.648438 44.308594 55.761719 45.070312 Z M 50.019531 39.992188 C 50.425781 40.050781 50.773438 40.34375 51.238281 40.808594 C 51.46875 41.042969 51.644531 41.277344 51.644531 41.566406 C 51.238281 41.449219 50.832031 41.332031 50.425781 41.390625 C 49.324219 41.566406 49.03125 42.792969 49.496094 43.785156 L 49.496094 43.960938 C 49.554688 44.195312 49.378906 44.71875 49.207031 44.835938 C 49.03125 45.011719 48.800781 45.070312 48.566406 44.953125 L 48.511719 44.953125 C 48.394531 43.667969 47.988281 42.035156 48.800781 40.925781 C 48.859375 40.808594 49.03125 39.816406 50.019531 39.992188 Z M 46.652344 40.167969 C 47.058594 40.050781 47.523438 40.167969 47.8125 40.515625 C 47.871094 40.574219 47.929688 40.632812 47.988281 40.632812 C 46.652344 42.910156 48.511719 46.003906 47.292969 46.585938 C 47.175781 46.644531 46.710938 46.527344 46.652344 46.410156 C 46.652344 46.351562 46.59375 46.351562 46.535156 46.292969 C 46.363281 44.660156 45.667969 42.792969 45.957031 41.21875 C 45.957031 41.160156 45.957031 41.101562 45.957031 41.101562 C 45.957031 40.691406 46.246094 40.285156 46.652344 40.167969 Z M 43.695312 42.152344 C 43.636719 41.800781 43.867188 41.449219 44.15625 41.332031 C 44.449219 41.21875 44.796875 41.21875 45.027344 41.332031 C 44.679688 43.550781 46.015625 46.527344 45.550781 47.285156 C 45.375 47.519531 44.96875 47.578125 44.679688 47.460938 C 44.390625 47.285156 44.15625 46.9375 44.101562 46.527344 C 44.101562 46.410156 44.042969 46.351562 43.984375 46.234375 C 44.042969 45.828125 43.984375 45.535156 43.867188 45.128906 C 43.578125 43.609375 43.636719 42.617188 43.636719 42.441406 C 43.695312 42.269531 43.695312 42.210938 43.695312 42.152344 Z M 41.664062 42.558594 C 41.894531 42.210938 42.476562 42.152344 42.765625 42.269531 L 42.765625 42.382812 C 42.707031 44.601562 43.171875 45.476562 43.113281 46.003906 C 43.113281 46.175781 42.996094 46.351562 42.882812 46.410156 C 42.765625 46.46875 42.589844 46.410156 42.476562 46.292969 C 42.300781 46.175781 42.242188 45.945312 42.128906 45.652344 C 41.371094 43.726562 41.488281 42.910156 41.664062 42.558594 Z M 41.082031 45.242188 C 41.316406 46.003906 41.546875 46.761719 42.128906 47.113281 C 41.082031 47.285156 39.632812 47.460938 38.066406 47.753906 C 37.949219 47.113281 37.890625 46.46875 37.71875 45.886719 C 39.515625 45.59375 40.675781 45.359375 41.082031 45.242188 Z M 33.65625 38.882812 L 33.828125 38.882812 C 34.640625 38.765625 35.28125 39.351562 35.394531 39.992188 C 35.453125 40.398438 37.542969 45.710938 37.832031 54.347656 C 37.949219 55.105469 37.484375 55.808594 36.730469 55.921875 L 36.441406 55.921875 C 35.6875 56.039062 35.046875 55.574219 34.875 54.816406 C 34.816406 54.40625 32.496094 48.160156 32.496094 40.515625 L 32.496094 40.457031 C 32.4375 39.699219 32.902344 39 33.65625 38.882812 Z M 30.347656 43.257812 C 30.523438 42.617188 31.042969 42.035156 31.683594 41.917969 C 31.796875 45.769531 32.496094 49.796875 33.714844 53.824219 C 33.65625 53.824219 33.597656 53.824219 33.480469 53.882812 C 33.308594 53.996094 32.378906 53.824219 32.089844 53.589844 C 31.796875 53.355469 31.625 52.945312 31.449219 52.480469 C 30.636719 50.378906 30.636719 48.046875 30.289062 45.710938 C 30.230469 44.953125 30.117188 44.078125 30.347656 43.257812 Z M 29.128906 47.054688 L 29.59375 46.996094 C 29.710938 47.8125 29.710938 48.453125 29.824219 49.210938 L 29.476562 49.269531 C 29.246094 49.328125 29.070312 49.152344 29.011719 48.921875 L 28.78125 47.519531 C 28.78125 47.285156 28.957031 47.113281 29.128906 47.054688 Z M 29.128906 47.054688 " fill-opacity="1" fill-rule="nonzero"/></g></svg>