<svg xmlns="http://www.w3.org/2000/svg" xmlns:xlink="http://www.w3.org/1999/xlink" width="250" zoomAndPan="magnify" viewBox="0 0 187.5 187.499992" height="250" preserveAspectRatio="xMidYMid meet" version="1.0"><defs><clipPath id="f48ab68676"><path d="M 56.101562 79.941406 L 130.902344 79.941406 L 130.902344 106.871094 L 56.101562 106.871094 Z M 56.101562 79.941406 " clip-rule="nonzero"/></clipPath></defs><g clip-path="url(#f48ab68676)"><path fill="#231f20" d="M 74.417969 105.324219 C 81.667969 105.324219 87 97.941406 87 91.773438 C 87 85.609375 81.402344 81.664062 74.417969 81.664062 C 68.054688 81.664062 62.070312 85.328125 62.070312 92.214844 C 62.070312 98.378906 67.246094 105.324219 74.417969 105.324219 M 112.585938 105.324219 C 119.753906 105.324219 124.933594 98.378906 124.933594 92.214844 C 124.933594 85.328125 118.949219 81.664062 112.585938 81.664062 C 105.601562 81.664062 100 85.609375 100 91.773438 C 100 97.941406 105.335938 105.324219 112.585938 105.324219 M 130.84375 85.238281 L 130.84375 87.800781 C 130.84375 87.800781 128.175781 88.242188 127.554688 90.183594 C 126.933594 92.128906 126.398438 106.871094 112.886719 106.871094 C 99.375 106.871094 97.066406 90.359375 97.066406 90.359375 C 97.066406 90.359375 98.132812 89.566406 98.132812 88.417969 C 98.132812 87.285156 96.472656 86.414062 93.5 86.390625 C 90.53125 86.414062 88.867188 87.285156 88.867188 88.417969 C 88.867188 89.566406 89.9375 90.359375 89.9375 90.359375 C 89.9375 90.359375 87.625 106.871094 74.113281 106.871094 C 60.601562 106.871094 60.066406 92.128906 59.445312 90.183594 C 58.824219 88.242188 56.160156 87.800781 56.160156 87.800781 L 56.160156 85.238281 C 56.160156 85.238281 59.046875 85.238281 59.914062 84.777344 C 60.78125 84.3125 66.644531 79.945312 73.980469 79.945312 C 81.3125 79.945312 86.648438 84.445312 88.046875 84.445312 C 89.449219 84.445312 89.378906 83.320312 89.378906 83.320312 L 97.621094 83.320312 C 97.621094 83.320312 97.554688 84.445312 98.957031 84.445312 C 100.355469 84.445312 105.6875 79.945312 113.023438 79.945312 C 120.355469 79.945312 126.222656 84.3125 127.085938 84.777344 C 127.957031 85.238281 130.84375 85.238281 130.84375 85.238281 " fill-opacity="1" fill-rule="nonzero"/></g></svg>