<svg xmlns="http://www.w3.org/2000/svg" xmlns:xlink="http://www.w3.org/1999/xlink" width="125" zoomAndPan="magnify" viewBox="0 0 94.079994 101.04" height="125" preserveAspectRatio="xMidYMid meet" version="1.0"><defs><clipPath id="55cd4088bf"><path d="M 27.851562 39.703125 L 64.988281 39.703125 L 64.988281 53.074219 L 27.851562 53.074219 Z M 27.851562 39.703125 " clip-rule="nonzero"/></clipPath></defs><g clip-path="url(#55cd4088bf)"><path fill="#231f20" d="M 36.945312 52.304688 C 40.546875 52.304688 43.195312 48.640625 43.195312 45.578125 C 43.195312 42.515625 40.414062 40.558594 36.945312 40.558594 C 33.789062 40.558594 30.816406 42.378906 30.816406 45.796875 C 30.816406 48.855469 33.386719 52.304688 36.945312 52.304688 M 55.894531 52.304688 C 59.457031 52.304688 62.027344 48.855469 62.027344 45.796875 C 62.027344 42.378906 59.054688 40.558594 55.894531 40.558594 C 52.429688 40.558594 49.648438 42.515625 49.648438 45.578125 C 49.648438 48.640625 52.296875 52.304688 55.894531 52.304688 M 64.960938 42.332031 L 64.960938 43.605469 C 64.960938 43.605469 63.636719 43.824219 63.328125 44.789062 C 63.019531 45.753906 62.753906 53.074219 56.046875 53.074219 C 49.339844 53.074219 48.191406 44.875 48.191406 44.875 C 48.191406 44.875 48.722656 44.480469 48.722656 43.914062 C 48.722656 43.351562 47.894531 42.917969 46.421875 42.902344 C 44.945312 42.917969 44.121094 43.351562 44.121094 43.914062 C 44.121094 44.480469 44.652344 44.875 44.652344 44.875 C 44.652344 44.875 43.503906 53.074219 36.796875 53.074219 C 30.085938 53.074219 29.824219 45.753906 29.511719 44.789062 C 29.203125 43.824219 27.882812 43.605469 27.882812 43.605469 L 27.882812 42.332031 C 27.882812 42.332031 29.316406 42.332031 29.746094 42.105469 C 30.175781 41.875 33.089844 39.703125 36.730469 39.703125 C 40.371094 39.703125 43.019531 41.9375 43.714844 41.9375 C 44.410156 41.9375 44.375 41.378906 44.375 41.378906 L 48.46875 41.378906 C 48.46875 41.378906 48.433594 41.9375 49.128906 41.9375 C 49.824219 41.9375 52.472656 39.703125 56.113281 39.703125 C 59.753906 39.703125 62.667969 41.875 63.097656 42.105469 C 63.527344 42.332031 64.960938 42.332031 64.960938 42.332031 " fill-opacity="1" fill-rule="nonzero"/></g></svg>