<svg xmlns="http://www.w3.org/2000/svg" xmlns:xlink="http://www.w3.org/1999/xlink" width="250" zoomAndPan="magnify" viewBox="0 0 187.5 187.499992" height="250" preserveAspectRatio="xMidYMid meet" version="1.0"><defs><clipPath id="118b600802"><path d="M 14.023438 64.691406 L 173.351562 64.691406 L 173.351562 122.289062 L 14.023438 122.289062 Z M 14.023438 64.691406 " clip-rule="nonzero"/></clipPath></defs><g clip-path="url(#118b600802)"><path fill="#231f20" d="M 53.042969 118.980469 C 68.488281 118.980469 79.84375 103.183594 79.84375 89.996094 C 79.84375 76.808594 67.917969 68.371094 53.042969 68.371094 C 39.488281 68.371094 26.738281 76.207031 26.738281 90.9375 C 26.738281 104.125 37.769531 118.980469 53.042969 118.980469 M 134.335938 118.980469 C 149.609375 118.980469 160.640625 104.125 160.640625 90.9375 C 160.640625 76.207031 147.890625 68.371094 134.335938 68.371094 C 119.457031 68.371094 107.53125 76.808594 107.53125 89.996094 C 107.53125 103.183594 118.894531 118.980469 134.335938 118.980469 M 173.226562 76.019531 L 173.226562 81.5 C 173.226562 81.5 167.546875 82.441406 166.226562 86.597656 C 164.902344 90.75 163.765625 122.289062 134.984375 122.289062 C 106.203125 122.289062 101.28125 86.972656 101.28125 86.972656 C 101.28125 86.972656 103.554688 85.269531 103.554688 82.820312 C 103.554688 80.398438 100.015625 78.535156 93.6875 78.476562 C 87.359375 78.535156 83.820312 80.398438 83.820312 82.820312 C 83.820312 85.269531 86.09375 86.972656 86.09375 86.972656 C 86.09375 86.972656 81.175781 122.289062 52.394531 122.289062 C 23.613281 122.289062 22.476562 90.75 21.152344 86.597656 C 19.828125 82.441406 14.148438 81.5 14.148438 81.5 L 14.148438 76.019531 C 14.148438 76.019531 20.300781 76.019531 22.148438 75.03125 C 23.992188 74.039062 36.488281 64.691406 52.109375 64.691406 C 67.730469 64.691406 79.089844 74.320312 82.070312 74.320312 C 85.054688 74.320312 84.914062 71.914062 84.914062 71.914062 L 102.464844 71.914062 C 102.464844 71.914062 102.324219 74.320312 105.304688 74.320312 C 108.285156 74.320312 119.644531 64.691406 135.269531 64.691406 C 150.886719 64.691406 163.386719 74.039062 165.226562 75.03125 C 167.078125 76.019531 173.226562 76.019531 173.226562 76.019531 " fill-opacity="1" fill-rule="nonzero"/></g></svg>