<svg xmlns="http://www.w3.org/2000/svg" xmlns:xlink="http://www.w3.org/1999/xlink" width="250" zoomAndPan="magnify" viewBox="0 0 187.5 187.499992" height="250" preserveAspectRatio="xMidYMid meet" version="1.0"><defs><clipPath id="5d741224b6"><path d="M 56.101562 56.4375 L 130.902344 56.4375 L 130.902344 130.46875 L 56.101562 130.46875 Z M 56.101562 56.4375 " clip-rule="nonzero"/></clipPath></defs><g clip-path="url(#5d741224b6)"><path fill="#2b2b2b" d="M 71.453125 71.804688 L 58.667969 65.308594 C 56.355469 64.132812 55.4375 61.308594 56.613281 59 C 57.789062 56.691406 60.617188 55.773438 62.925781 56.949219 L 79.960938 65.605469 C 79.988281 65.585938 80.019531 65.566406 80.054688 65.550781 C 80.570312 65.339844 81.355469 64.941406 82.09375 64.644531 C 82.429688 64.507812 82.757812 64.394531 83.046875 64.320312 C 83.546875 64.199219 84.050781 64.1875 84.550781 64.242188 C 85.589844 64.355469 86.617188 64.765625 87.578125 64.921875 C 87.792969 64.691406 88.023438 64.476562 88.269531 64.289062 C 88.402344 64.1875 89.355469 62.320312 89.789062 61.667969 C 90.292969 60.917969 90.972656 59.632812 91.664062 59.210938 C 92.441406 58.734375 93.394531 58.636719 94.652344 59.066406 C 95.65625 59.46875 96.558594 60.175781 97.035156 61.214844 C 97.417969 62.039062 97.554688 63.074219 97.222656 64.324219 C 97.132812 64.660156 97.027344 65.015625 96.910156 65.382812 C 96.992188 65.464844 97.050781 65.566406 97.082031 65.683594 C 97.152344 65.960938 97.210938 66.242188 97.261719 66.527344 C 97.308594 66.816406 97.347656 67.105469 97.371094 67.402344 C 97.417969 68.054688 97.417969 68.753906 97.378906 69.480469 C 98.773438 70.425781 101.117188 71.828125 103.007812 73.136719 C 103.980469 73.8125 104.835938 74.464844 105.390625 75.023438 C 106.238281 75.867188 106.339844 76.71875 106.117188 77.378906 C 105.957031 77.847656 105.625 78.222656 105.230469 78.453125 L 116.441406 84.148438 C 116.574219 83.886719 116.742188 83.683594 116.851562 83.625 C 116.960938 83.5625 117.09375 83.5625 117.207031 83.621094 L 127.789062 89 C 130.589844 90.421875 131.707031 93.847656 130.28125 96.644531 C 129.679688 97.828125 129.164062 100.074219 128.726562 102.757812 C 127.691406 109.109375 127.132812 117.882812 127.132812 121.023438 C 127.132812 123.257812 127.371094 125.488281 127.84375 127.667969 C 127.882812 127.828125 127.898438 127.992188 127.898438 128.160156 C 127.898438 129.421875 126.886719 130.449219 125.628906 130.46875 L 125.617188 130.46875 C 125.617188 130.46875 125.609375 130.46875 125.613281 130.46875 L 125.578125 130.46875 C 124.304688 130.464844 123.277344 129.433594 123.277344 128.160156 C 123.277344 127.996094 123.292969 127.835938 123.328125 127.679688 C 123.789062 125.515625 124.027344 124.707031 124.027344 122.496094 C 124.027344 119.808594 124.050781 114.191406 124.050781 109.011719 C 124.050781 105.792969 123.546875 103.421875 122.472656 101.503906 C 120.851562 98.613281 117.949219 96.757812 113.617188 94.558594 C 109.957031 92.695312 109.957031 92.695312 109.957031 92.695312 C 109.824219 92.628906 109.742188 92.488281 109.75 92.339844 C 109.753906 92.191406 109.792969 91.699219 109.957031 91.378906 L 103.355469 88.023438 C 103.261719 88.253906 103.117188 88.542969 102.933594 88.875 C 103.964844 89.710938 104.667969 91.382812 104.949219 93.167969 C 105.21875 94.867188 105.109375 96.65625 104.585938 97.875 C 104.460938 98.167969 104.238281 98.503906 103.941406 98.875 C 104.144531 99.242188 104.28125 99.542969 104.386719 99.832031 C 104.554688 100.304688 104.644531 100.757812 104.785156 101.460938 C 105.023438 102.65625 104.160156 104.394531 102.828125 106.019531 C 101.039062 108.195312 98.464844 110.1875 97.046875 110.492188 C 96.832031 110.535156 95.785156 111.410156 95.101562 111.230469 C 94.757812 111.140625 94.429688 110.9375 94.152344 110.6875 C 93.710938 110.289062 93.378906 109.796875 93.257812 109.523438 C 93.078125 109.058594 92.976562 108.554688 93.070312 108.085938 C 93.117188 107.847656 93.195312 107.621094 93.3125 107.414062 C 93.289062 107.402344 93.265625 107.390625 93.242188 107.375 C 92.988281 107.207031 92.757812 107.039062 92.558594 106.867188 C 92.34375 106.683594 90.464844 110.304688 89.75 111.410156 C 89.472656 111.839844 89.179688 112.210938 88.917969 112.488281 C 88.878906 112.898438 88.761719 113.363281 88.582031 113.859375 C 88.226562 114.851562 87.625 115.984375 87.179688 117.019531 C 85.78125 120.164062 84.035156 122.5 82.132812 124.203125 C 79.617188 126.457031 76.855469 127.609375 74.378906 128.132812 C 74.277344 128.160156 74.171875 128.09375 74.148438 127.992188 C 74.125 127.890625 74.1875 127.789062 74.289062 127.761719 C 76.644531 127.125 79.226562 125.863281 81.539062 123.574219 C 83.261719 121.867188 84.832031 119.585938 86.023438 116.539062 C 86.441406 115.511719 86.992188 114.386719 87.34375 113.410156 C 87.507812 112.957031 87.765625 112.015625 87.730469 111.894531 C 87.671875 111.679688 87.558594 111.40625 87.417969 111.097656 C 87.195312 110.597656 86.890625 110.027344 86.597656 109.464844 C 86.398438 109.085938 86.214844 108.707031 86.027344 108.367188 C 85.753906 107.855469 85.425781 107.34375 85.074219 106.886719 C 84.976562 106.757812 84.882812 106.628906 84.777344 106.515625 C 84.605469 106.332031 84.425781 106.179688 84.253906 106.035156 C 84.175781 105.96875 84.164062 105.847656 84.230469 105.765625 C 84.300781 105.6875 84.417969 105.675781 84.5 105.742188 C 84.679688 105.890625 84.855469 106.066406 85.050781 106.238281 C 85.316406 106.476562 85.601562 106.714844 85.875 106.984375 C 86.175781 107.28125 86.457031 107.597656 86.714844 107.917969 C 86.976562 108.257812 87.261719 108.628906 87.519531 109.023438 C 87.78125 109.417969 88.011719 109.828125 88.21875 110.210938 C 88.359375 110.476562 88.582031 110.972656 88.78125 110.722656 C 89.589844 109.695312 90.496094 108.40625 90.851562 107.894531 C 91.882812 106.417969 91.824219 106.101562 91.683594 105.859375 C 90.34375 103.570312 90.652344 101.402344 90.730469 100.789062 C 90.820312 100.121094 91.035156 99.472656 91.339844 98.832031 C 91.414062 98.675781 91.371094 98.257812 91.335938 97.988281 C 91.304688 97.734375 91.261719 97.46875 91.191406 97.214844 C 91.085938 96.859375 90.890625 96.398438 90.765625 96.378906 C 90.578125 96.351562 90.433594 96.191406 90.4375 95.992188 C 90.441406 95.828125 90.398438 95.570312 90.34375 95.308594 C 90.289062 95.046875 90.222656 94.785156 90.15625 94.617188 C 90.109375 94.46875 90.027344 94.3125 89.933594 94.15625 C 89.769531 93.882812 89.59375 93.613281 89.460938 93.417969 C 89.394531 93.339844 89.402344 93.21875 89.480469 93.152344 C 89.558594 93.082031 89.679688 93.089844 89.75 93.167969 C 89.933594 93.332031 90.199219 93.542969 90.425781 93.789062 C 90.492188 93.859375 90.554688 93.933594 90.609375 94.007812 C 90.636719 94.011719 90.660156 94.019531 90.6875 94.027344 C 90.890625 94.09375 91.125 94.113281 91.328125 94.066406 C 91.4375 94.042969 91.539062 94.003906 91.582031 93.910156 C 91.398438 93.363281 91.269531 92.785156 91.207031 92.214844 C 91.125 91.421875 91.171875 90.640625 91.382812 89.964844 C 91.476562 89.667969 91.652344 89.3125 91.882812 88.921875 C 91.664062 89.003906 91.421875 89.070312 91.167969 89.125 C 90.589844 89.246094 89.96875 89.316406 89.519531 89.355469 C 89.1875 89.398438 88.726562 89.453125 88.355469 89.414062 C 88.46875 89.605469 88.574219 89.804688 88.671875 90.003906 C 88.867188 90.417969 88.996094 90.824219 89.011719 91.148438 C 89.011719 91.320312 88.871094 91.460938 88.695312 91.460938 C 88.523438 91.460938 88.382812 91.320312 88.382812 91.148438 C 88.394531 90.886719 88.308594 90.554688 88.183594 90.210938 C 88.054688 89.859375 87.886719 89.503906 87.722656 89.199219 C 87.019531 90.054688 86.292969 90.925781 85.570312 91.773438 C 84.316406 93.246094 83.074219 94.648438 81.992188 95.785156 C 82.269531 95.757812 82.527344 95.953125 82.574219 96.230469 C 82.671875 96.628906 82.777344 97.015625 82.84375 97.40625 C 83.121094 99.078125 83.132812 100.683594 83.089844 102.226562 C 83.039062 104.28125 82.769531 106.242188 82.3125 108.199219 C 81.855469 110.109375 81.035156 112.46875 80.148438 114.679688 C 79.113281 117.257812 77.996094 119.632812 77.289062 120.859375 C 77.285156 120.863281 77.28125 120.871094 77.28125 120.875 C 77.277344 120.882812 77.269531 120.886719 77.265625 120.894531 C 74.765625 123.933594 70.460938 125.140625 66.363281 121.75 C 63.371094 119.277344 60.480469 114.3125 58.53125 105.726562 C 57.886719 102.886719 57.3125 100.308594 57.226562 97.5625 C 57.148438 95.074219 57.46875 92.449219 58.496094 89.375 C 59.835938 85.367188 61.472656 82.207031 63.585938 79.425781 C 65.675781 76.671875 68.238281 74.285156 71.453125 71.804688 Z M 125.601562 129.707031 C 125.601562 129.707031 125.609375 129.707031 125.605469 129.707031 L 125.617188 129.707031 C 126.457031 129.691406 127.136719 129.003906 127.136719 128.160156 C 127.136719 128.050781 127.125 127.9375 127.101562 127.832031 C 126.613281 125.59375 126.371094 123.3125 126.371094 121.023438 C 126.371094 117.863281 126.933594 109.03125 127.972656 102.632812 C 128.425781 99.851562 128.976562 97.527344 129.601562 96.300781 C 130.835938 93.878906 129.867188 90.910156 127.445312 89.675781 L 117.335938 84.539062 C 116.757812 87.550781 113.871094 90.898438 111.003906 92.375 L 113.964844 93.878906 C 118.464844 96.164062 121.457031 98.125 123.140625 101.132812 C 124.269531 103.144531 124.816406 105.628906 124.816406 109.011719 C 124.816406 114.191406 124.789062 119.808594 124.789062 122.496094 C 124.789062 124.773438 124.550781 125.609375 124.074219 127.835938 C 124.050781 127.941406 124.039062 128.050781 124.039062 128.160156 C 124.039062 129.011719 124.730469 129.703125 125.582031 129.707031 L 125.585938 129.707031 C 125.585938 129.707031 125.597656 129.707031 125.597656 129.707031 Z M 87.535156 66.171875 C 87.164062 66.683594 86.84375 67.230469 86.554688 67.730469 C 86.09375 68.539062 85.679688 69.367188 85.285156 70.210938 C 84.351562 72.199219 83.535156 74.242188 82.511719 76.1875 C 82.3125 76.566406 83.304688 77.328125 83.96875 77.816406 C 84.679688 78.335938 85.453125 78.769531 85.957031 78.914062 C 86.058594 78.9375 86.121094 79.039062 86.097656 79.144531 C 86.074219 79.246094 85.972656 79.308594 85.871094 79.285156 C 85.21875 79.171875 84.125 78.683594 83.207031 78.089844 C 82.792969 77.828125 82.421875 77.535156 82.132812 77.246094 C 81.59375 76.707031 81.5 77.066406 81.5 77.066406 C 81.179688 77.640625 80.503906 78.9375 79.457031 80.351562 C 79.234375 80.652344 77.546875 82.515625 76.851562 83.101562 C 76 83.8125 74.96875 84.589844 73.851562 85.242188 C 72.929688 85.777344 71.96875 86.246094 71.070312 86.589844 C 69.816406 87.070312 68.671875 87.296875 67.902344 87.214844 C 67.636719 87.1875 67.441406 86.945312 67.472656 86.675781 C 67.5 86.410156 67.742188 86.214844 68.011719 86.246094 C 68.914062 86.351562 70.390625 85.882812 71.960938 85.234375 C 72.824219 84.878906 73.722656 84.476562 74.554688 84.027344 C 74.898438 83.84375 75.125 83.5 75.15625 83.113281 C 75.191406 82.726562 75.03125 82.347656 74.726562 82.109375 C 73.703125 81.3125 72.390625 80.304688 71.28125 79.421875 C 70.402344 78.722656 69.644531 78.101562 69.246094 77.71875 C 69.171875 77.648438 69.164062 77.527344 69.234375 77.449219 C 69.308594 77.371094 69.429688 77.367188 69.507812 77.4375 C 69.914062 77.796875 70.6875 78.375 71.585938 79.019531 C 72.308594 79.542969 73.75 80.476562 73.691406 80.394531 C 72.871094 79.269531 72.191406 78.058594 71.972656 77.152344 C 71.941406 77.050781 72 76.945312 72.101562 76.917969 C 72.203125 76.886719 72.308594 76.945312 72.339844 77.046875 C 72.617188 77.886719 73.359375 78.976562 74.21875 79.972656 C 74.949219 80.824219 75.878906 81.675781 76.238281 81.691406 C 76.601562 81.707031 76.460938 80.847656 76.386719 80.058594 C 76.3125 79.324219 76.261719 78.53125 76.238281 77.777344 C 76.21875 77.046875 76.242188 76.351562 76.394531 75.777344 C 76.417969 75.675781 76.519531 75.613281 76.625 75.632812 C 76.726562 75.65625 76.789062 75.761719 76.769531 75.863281 C 76.695312 76.234375 76.675781 76.65625 76.703125 77.105469 C 76.753906 77.917969 76.972656 78.796875 77.117188 79.636719 C 77.246094 80.390625 77.300781 80.945312 77.585938 80.988281 C 77.875 81.03125 78.40625 80.488281 78.84375 79.898438 C 79.863281 78.519531 80.519531 77.253906 80.832031 76.695312 C 80.851562 76.664062 80.867188 76.632812 80.886719 76.601562 L 72.171875 72.171875 C 72.148438 72.203125 72.121094 72.234375 72.089844 72.257812 C 68.832031 74.726562 66.242188 77.09375 64.132812 79.84375 C 62.046875 82.558594 60.429688 85.652344 59.09375 89.574219 C 58.074219 92.566406 57.746094 95.121094 57.808594 97.546875 C 57.878906 100.253906 58.4375 102.800781 59.058594 105.609375 C 60.933594 114.054688 63.722656 118.960938 66.648438 121.410156 C 70.503906 124.636719 74.578125 123.515625 76.960938 120.664062 C 77.605469 119.414062 78.59375 117.023438 79.503906 114.441406 C 80.28125 112.234375 81 109.886719 81.371094 107.996094 C 81.753906 106.09375 81.945312 104.195312 81.941406 102.210938 C 81.9375 100.722656 81.753906 99.199219 81.59375 97.574219 C 81.554688 97.1875 81.546875 96.800781 81.511719 96.40625 C 81.507812 96.363281 81.503906 96.324219 81.507812 96.285156 C 80.917969 96.882812 80.390625 97.386719 79.945312 97.757812 C 79.863281 97.828125 79.742188 97.816406 79.675781 97.738281 C 79.605469 97.65625 79.617188 97.535156 79.695312 97.46875 C 81 96.328125 83.039062 93.96875 85.121094 91.398438 C 88.367188 87.386719 91.714844 82.867188 92.515625 81.65625 C 93.695312 79.875 94.695312 77.390625 95.351562 74.820312 C 95.988281 72.316406 96.296875 69.730469 96.113281 67.628906 C 95.847656 68.304688 95.570312 68.941406 95.308594 69.488281 C 94.5625 71.035156 93.980469 72.03125 93.496094 72.625 C 93.066406 73.148438 92.695312 73.375 92.355469 73.402344 C 91.882812 73.441406 89.902344 72.804688 88.96875 72.277344 C 88.058594 71.761719 86.617188 70.855469 86.460938 70.050781 C 86.289062 69.175781 86.75 68.230469 87.054688 67.394531 C 87.203125 66.988281 87.367188 66.578125 87.535156 66.171875 Z M 95.933594 110.226562 C 96.242188 109.921875 96.679688 109.59375 97.089844 109.230469 C 97.734375 108.65625 98.367188 108.066406 98.675781 107.75 C 98.9375 107.476562 99.203125 107.222656 99.40625 106.960938 C 99.539062 106.789062 99.644531 106.613281 99.691406 106.417969 C 99.773438 106.101562 99.714844 105.777344 99.605469 105.484375 C 99.472656 105.128906 99.261719 104.816406 99.082031 104.601562 C 98.96875 104.460938 98.863281 104.378906 98.753906 104.332031 C 98.617188 104.273438 98.480469 104.277344 98.339844 104.289062 C 98.265625 104.292969 98.195312 104.320312 98.128906 104.347656 C 97.996094 104.410156 97.871094 104.5 97.75 104.574219 C 97.53125 104.714844 96.691406 105.371094 95.855469 106.039062 C 95.101562 106.640625 94.351562 107.257812 94.0625 107.523438 C 93.949219 107.628906 93.824219 107.890625 93.824219 108.199219 C 93.824219 109.230469 95.207031 110.957031 95.933594 110.226562 Z M 103.40625 99.496094 C 103.253906 99.664062 103.089844 99.835938 102.914062 100.007812 C 101.636719 101.289062 99.894531 102.71875 98.632812 103.71875 C 98.75 103.730469 98.863281 103.753906 98.980469 103.804688 C 99.15625 103.882812 99.335938 104.011719 99.523438 104.234375 C 99.773438 104.539062 100.078125 105.003906 100.21875 105.523438 C 100.3125 105.855469 100.335938 106.207031 100.246094 106.558594 C 100.179688 106.828125 100.042969 107.074219 99.859375 107.3125 C 99.644531 107.589844 99.367188 107.855469 99.085938 108.144531 C 98.816406 108.425781 98.292969 108.917969 97.730469 109.421875 C 98.832031 108.863281 100.246094 107.710938 101.464844 106.410156 C 103.015625 104.757812 104.289062 102.875 104.035156 101.613281 C 103.929688 101.074219 103.855469 100.691406 103.746094 100.328125 C 103.664062 100.058594 103.5625 99.800781 103.40625 99.496094 Z M 93.824219 106.074219 C 94.652344 106.585938 99.269531 102.261719 99.789062 101.613281 C 100.09375 101.230469 100.070312 100.925781 100.085938 100.535156 C 100.09375 100.273438 100.066406 100.027344 100.019531 99.800781 C 99.964844 99.539062 99.882812 99.304688 99.789062 99.105469 C 99.605469 98.71875 99.203125 98.316406 98.738281 98.058594 C 98.300781 97.816406 97.804688 97.695312 97.371094 97.875 C 97.125 97.980469 96.859375 98.109375 96.585938 98.277344 C 96.355469 98.417969 96.117188 98.589844 95.871094 98.796875 C 95.871094 98.796875 93.359375 100.847656 92.738281 101.46875 C 91.914062 102.289062 91.921875 103.085938 92.066406 103.652344 C 92.207031 104.214844 92.417969 104.691406 92.761719 105.140625 C 93.011719 105.472656 93.351562 105.78125 93.824219 106.074219 Z M 92.804688 97.800781 C 92.273438 98.605469 91.847656 99.40625 91.621094 100.230469 C 91.441406 100.894531 91.394531 101.574219 91.527344 102.289062 C 91.621094 101.910156 91.699219 101.601562 92.238281 101.140625 C 94.625 99.109375 94.625 99.109375 94.625 99.109375 C 94.554688 99.105469 94.492188 99.09375 94.441406 99.070312 C 93.957031 98.84375 93.371094 98.460938 93.082031 98.132812 C 92.984375 98.023438 92.890625 97.910156 92.804688 97.800781 Z M 102.546875 89.546875 C 102.351562 89.878906 101.777344 91.136719 101.570312 91.480469 C 101.050781 92.332031 99.773438 94.054688 98.558594 95.542969 C 97.941406 96.300781 97.328125 96.988281 96.832031 97.492188 C 96.9375 97.441406 97.046875 97.394531 97.148438 97.347656 C 97.738281 97.101562 98.421875 97.230469 99.015625 97.558594 C 99.59375 97.875 100.078125 98.382812 100.304688 98.859375 C 100.417969 99.097656 100.515625 99.375 100.582031 99.683594 C 100.636719 99.953125 100.667969 100.246094 100.65625 100.550781 C 100.648438 100.757812 100.609375 100.960938 100.523438 101.171875 C 100.949219 100.804688 101.371094 100.429688 101.765625 100.058594 C 102.769531 99.117188 103.609375 98.21875 103.882812 97.578125 C 104.359375 96.464844 104.441406 94.832031 104.199219 93.289062 C 103.957031 91.761719 103.402344 90.3125 102.546875 89.546875 Z M 92.867188 95.785156 C 93.273438 96.757812 94.894531 98.523438 96.128906 97.34375 C 96.625 96.871094 97.339844 96.054688 98.078125 95.152344 C 99.273438 93.6875 100.539062 92 101.050781 91.164062 C 101.136719 91.023438 101.21875 90.859375 101.242188 90.8125 C 101.167969 90.265625 100.550781 89.730469 99.84375 89.355469 C 99.136719 88.976562 98.320312 88.765625 97.761719 88.960938 C 97.207031 89.160156 96.46875 89.746094 95.730469 90.414062 C 94.84375 91.21875 93.96875 92.152344 93.40625 92.757812 C 92.847656 93.363281 92.453125 94.789062 92.867188 95.785156 Z M 91.675781 96.746094 C 91.769531 96.902344 91.859375 97.074219 91.929688 97.253906 C 91.972656 97.359375 92 97.484375 92.011719 97.625 C 92.117188 97.457031 92.230469 97.289062 92.34375 97.121094 C 92.273438 96.996094 92.210938 96.871094 92.15625 96.75 C 92.003906 96.777344 91.84375 96.777344 91.675781 96.746094 Z M 123.742188 97.203125 C 124.976562 97.828125 126.394531 97.699219 127.46875 96.980469 C 127.644531 96.867188 127.691406 96.628906 127.578125 96.453125 C 127.460938 96.277344 127.222656 96.230469 127.046875 96.347656 C 126.195312 96.914062 125.066406 97.019531 124.089844 96.523438 C 123.902344 96.429688 123.671875 96.503906 123.574219 96.691406 C 123.480469 96.878906 123.554688 97.105469 123.742188 97.203125 Z M 91.851562 94.730469 C 91.804688 94.75 91.757812 94.769531 91.707031 94.789062 C 91.496094 94.859375 91.253906 94.886719 91.007812 94.867188 C 91.035156 94.957031 91.058594 95.050781 91.082031 95.140625 C 91.128906 95.332031 91.164062 95.523438 91.1875 95.695312 C 91.320312 95.816406 91.484375 95.90625 91.652344 95.960938 C 91.738281 95.988281 91.828125 96.007812 91.90625 96.011719 C 91.847656 95.75 91.820312 95.496094 91.820312 95.25 C 91.816406 95.070312 91.828125 94.898438 91.851562 94.730469 Z M 96.230469 84.402344 C 95.457031 85.453125 94.136719 86.996094 93.171875 88.347656 C 92.671875 89.054688 92.265625 89.703125 92.113281 90.195312 C 91.929688 90.777344 91.894531 91.449219 91.96875 92.132812 C 92.015625 92.574219 92.109375 93.023438 92.234375 93.449219 C 92.378906 92.757812 94.402344 90.839844 95.335938 89.984375 C 96.140625 89.25 96.957031 88.621094 97.5625 88.40625 C 98.246094 88.160156 99.257812 88.367188 100.125 88.828125 C 100.730469 89.144531 101.253906 89.585938 101.5625 90.050781 C 101.871094 89.570312 102.144531 89.117188 102.367188 88.722656 C 102.582031 88.335938 102.75 88.007812 102.84375 87.761719 Z M 96.464844 74.847656 C 96.441406 74.933594 96.417969 75.015625 96.394531 75.101562 C 95.65625 77.722656 94.566406 80.246094 93.316406 82.066406 L 111.414062 91.265625 C 113.640625 89.859375 115.75 87.375 116.441406 85.003906 L 96.507812 74.875 C 96.492188 74.867188 96.480469 74.855469 96.464844 74.847656 Z M 92.867188 82.691406 C 92.003906 83.855469 90.269531 86.082031 88.292969 88.503906 C 88.320312 88.519531 88.363281 88.519531 88.402344 88.523438 C 88.519531 88.535156 88.648438 88.53125 88.777344 88.511719 C 88.988281 88.484375 89.195312 88.425781 89.363281 88.386719 C 89.765625 88.292969 90.324219 88.144531 90.828125 87.957031 C 91.085938 87.863281 91.320312 87.753906 91.503906 87.632812 C 91.34375 87.371094 91.199219 87.082031 91.09375 86.78125 C 90.933594 86.324219 90.855469 85.847656 90.890625 85.40625 C 90.890625 85.300781 90.976562 85.214844 91.082031 85.214844 C 91.1875 85.210938 91.273438 85.296875 91.273438 85.402344 C 91.308594 85.707031 91.449219 86 91.5625 86.3125 C 91.699219 86.691406 92.21875 87.453125 92.597656 87.84375 C 93.527344 86.542969 94.773438 85.082031 95.542969 84.050781 Z M 87.15625 80.988281 C 86.894531 81.03125 85.808594 80.855469 84.6875 80.378906 C 83.914062 80.050781 83.132812 79.5625 82.585938 78.945312 C 82.484375 78.835938 82.308594 78.832031 82.199219 78.9375 C 82.089844 79.039062 82.085938 79.210938 82.1875 79.324219 C 82.816406 79.949219 83.695312 80.398438 84.542969 80.730469 C 85.769531 81.207031 86.9375 81.410156 87.21875 81.363281 C 87.324219 81.347656 87.394531 81.25 87.378906 81.144531 C 87.359375 81.042969 87.261719 80.972656 87.15625 80.988281 Z M 88.457031 80.195312 C 88.253906 79.71875 88.066406 79.335938 87.859375 78.96875 C 87.644531 78.589844 87.410156 78.234375 87.078125 77.828125 C 86.6875 77.300781 86.214844 76.734375 85.632812 76.347656 C 85.210938 76.066406 84.730469 75.898438 84.234375 75.84375 C 84.003906 75.824219 83.796875 75.992188 83.777344 76.226562 C 83.753906 76.457031 83.925781 76.660156 84.15625 76.683594 C 84.53125 76.714844 84.878906 76.859375 85.214844 77.039062 C 85.769531 77.339844 86.285156 77.738281 86.710938 78.148438 C 87.046875 78.507812 87.304688 78.824219 87.519531 79.167969 C 87.734375 79.515625 87.910156 79.886719 88.109375 80.347656 C 88.148438 80.445312 88.261719 80.488281 88.359375 80.445312 C 88.457031 80.40625 88.5 80.292969 88.457031 80.195312 Z M 97.308594 70.351562 C 97.191406 71.582031 96.960938 72.871094 96.644531 74.15625 C 96.714844 74.148438 96.789062 74.160156 96.855469 74.195312 L 104.140625 77.898438 C 104.152344 77.898438 104.167969 77.902344 104.183594 77.910156 C 104.632812 78.070312 105.207031 77.6875 105.394531 77.136719 C 105.542969 76.6875 105.421875 76.128906 104.851562 75.5625 C 104.320312 75.027344 103.5 74.410156 102.570312 73.765625 C 100.839844 72.5625 98.726562 71.285156 97.308594 70.351562 Z M 85.007812 69.027344 L 62.582031 57.625 C 60.644531 56.644531 58.277344 57.414062 57.292969 59.347656 C 56.308594 61.277344 57.078125 63.644531 59.011719 64.628906 L 81.398438 76.007812 C 81.558594 75.859375 81.722656 75.714844 81.875 75.558594 C 81.917969 75.511719 83.726562 71.734375 84.59375 69.886719 C 84.726562 69.597656 84.867188 69.3125 85.007812 69.027344 Z M 92.164062 72.8125 C 92.515625 72.921875 92.828125 72.703125 93.097656 72.320312 C 93.515625 71.71875 93.992188 70.714844 94.589844 69.175781 C 94.871094 68.449219 95.164062 67.554688 95.425781 66.640625 C 95.683594 65.746094 95.910156 64.839844 96.058594 64.058594 C 96.238281 63.144531 96.113281 62.40625 95.800781 61.828125 C 95.441406 61.15625 94.808594 60.730469 94.125 60.503906 C 93.394531 60.214844 92.515625 60.144531 91.820312 60.503906 C 91.527344 60.652344 90.890625 61.441406 89.4375 64.125 C 88.910156 65.101562 88.230469 66.386719 87.703125 67.648438 C 87.382812 68.414062 86.945312 69.226562 87.21875 69.886719 C 87.496094 70.546875 88.515625 71.144531 89.34375 71.613281 C 90.230469 72.117188 91.171875 72.5 92.164062 72.8125 Z M 87.019531 65.585938 C 86.199219 65.402344 85.335938 65.09375 84.46875 65 C 84.054688 64.953125 83.640625 64.960938 83.230469 65.0625 C 82.972656 65.125 82.679688 65.230469 82.378906 65.351562 C 81.84375 65.566406 81.285156 65.832031 80.824219 66.046875 L 85.351562 68.347656 C 85.527344 68.011719 85.707031 67.679688 85.894531 67.355469 C 86.21875 66.785156 86.589844 66.160156 87.019531 65.585938 " fill-opacity="1" fill-rule="evenodd"/></g></svg>