<svg xmlns="http://www.w3.org/2000/svg" xmlns:xlink="http://www.w3.org/1999/xlink" width="125" zoomAndPan="magnify" viewBox="0 0 94.079994 101.04" height="125" preserveAspectRatio="xMidYMid meet" version="1.0"><defs><clipPath id="ca4550e85a"><path d="M 27.851562 28.035156 L 64.988281 28.035156 L 64.988281 65.160156 L 27.851562 65.160156 Z M 27.851562 28.035156 " clip-rule="nonzero"/></clipPath></defs><g clip-path="url(#ca4550e85a)"><path fill="#2b2b2b" d="M 35.472656 35.742188 L 29.125 32.480469 C 27.980469 31.894531 27.523438 30.476562 28.105469 29.320312 C 28.691406 28.164062 30.09375 27.699219 31.242188 28.289062 L 39.699219 32.632812 C 39.714844 32.621094 39.730469 32.609375 39.746094 32.605469 C 40 32.496094 40.390625 32.296875 40.757812 32.148438 C 40.925781 32.082031 41.085938 32.023438 41.230469 31.988281 C 41.480469 31.925781 41.730469 31.921875 41.976562 31.949219 C 42.492188 32.003906 43.003906 32.210938 43.480469 32.289062 C 43.585938 32.171875 43.703125 32.066406 43.824219 31.972656 C 43.890625 31.917969 44.363281 30.984375 44.578125 30.65625 C 44.828125 30.28125 45.164062 29.636719 45.507812 29.425781 C 45.894531 29.1875 46.367188 29.136719 46.992188 29.351562 C 47.492188 29.554688 47.9375 29.910156 48.175781 30.429688 C 48.367188 30.84375 48.433594 31.363281 48.269531 31.988281 C 48.222656 32.15625 48.171875 32.335938 48.113281 32.519531 C 48.15625 32.558594 48.183594 32.613281 48.199219 32.671875 C 48.234375 32.8125 48.265625 32.953125 48.289062 33.09375 C 48.3125 33.238281 48.332031 33.382812 48.34375 33.53125 C 48.367188 33.859375 48.367188 34.210938 48.34375 34.574219 C 49.039062 35.050781 50.203125 35.75 51.140625 36.410156 C 51.625 36.746094 52.046875 37.074219 52.324219 37.355469 C 52.742188 37.777344 52.796875 38.203125 52.683594 38.535156 C 52.605469 38.773438 52.441406 38.960938 52.246094 39.074219 L 57.808594 41.929688 C 57.875 41.800781 57.960938 41.699219 58.015625 41.667969 C 58.070312 41.636719 58.136719 41.636719 58.191406 41.664062 L 63.445312 44.363281 C 64.835938 45.078125 65.390625 46.796875 64.683594 48.199219 C 64.382812 48.792969 64.128906 49.917969 63.910156 51.261719 C 63.398438 54.449219 63.117188 58.847656 63.117188 60.425781 C 63.117188 61.542969 63.238281 62.660156 63.472656 63.753906 C 63.488281 63.835938 63.5 63.917969 63.5 64.003906 C 63.5 64.636719 62.996094 65.148438 62.371094 65.160156 L 62.367188 65.160156 C 62.367188 65.160156 62.363281 65.160156 62.363281 65.160156 L 62.347656 65.160156 C 61.714844 65.15625 61.203125 64.640625 61.203125 64.003906 C 61.203125 63.921875 61.210938 63.839844 61.230469 63.761719 C 61.460938 62.675781 61.578125 62.269531 61.578125 61.160156 C 61.578125 59.8125 61.589844 56.996094 61.589844 54.398438 C 61.589844 52.785156 61.339844 51.597656 60.804688 50.632812 C 60 49.183594 58.558594 48.253906 56.410156 47.152344 C 54.589844 46.21875 54.589844 46.21875 54.589844 46.21875 C 54.523438 46.183594 54.484375 46.113281 54.488281 46.039062 C 54.492188 45.964844 54.511719 45.71875 54.589844 45.558594 L 51.3125 43.875 C 51.265625 43.988281 51.195312 44.132812 51.105469 44.300781 C 51.617188 44.71875 51.964844 45.558594 52.105469 46.453125 C 52.238281 47.304688 52.183594 48.203125 51.925781 48.816406 C 51.863281 48.960938 51.753906 49.132812 51.605469 49.316406 C 51.703125 49.5 51.773438 49.648438 51.824219 49.796875 C 51.910156 50.035156 51.953125 50.261719 52.023438 50.613281 C 52.144531 51.214844 51.710938 52.082031 51.050781 52.898438 C 50.164062 53.988281 48.886719 54.988281 48.179688 55.140625 C 48.074219 55.164062 47.554688 55.601562 47.214844 55.511719 C 47.042969 55.46875 46.882812 55.363281 46.746094 55.238281 C 46.527344 55.039062 46.359375 54.792969 46.300781 54.65625 C 46.210938 54.421875 46.160156 54.171875 46.207031 53.933594 C 46.230469 53.816406 46.269531 53.703125 46.328125 53.597656 C 46.316406 53.59375 46.304688 53.585938 46.292969 53.578125 C 46.167969 53.496094 46.054688 53.410156 45.953125 53.324219 C 45.847656 53.234375 44.914062 55.046875 44.558594 55.601562 C 44.421875 55.816406 44.277344 56.003906 44.144531 56.144531 C 44.125 56.347656 44.066406 56.582031 43.980469 56.832031 C 43.800781 57.328125 43.503906 57.894531 43.28125 58.417969 C 42.589844 59.992188 41.722656 61.164062 40.777344 62.019531 C 39.527344 63.148438 38.15625 63.726562 36.929688 63.988281 C 36.875 64 36.824219 63.96875 36.8125 63.917969 C 36.800781 63.867188 36.832031 63.816406 36.882812 63.804688 C 38.050781 63.484375 39.332031 62.851562 40.480469 61.703125 C 41.335938 60.847656 42.117188 59.703125 42.710938 58.175781 C 42.917969 57.660156 43.1875 57.09375 43.363281 56.605469 C 43.445312 56.378906 43.574219 55.90625 43.558594 55.84375 C 43.527344 55.738281 43.46875 55.601562 43.402344 55.445312 C 43.289062 55.195312 43.140625 54.910156 42.992188 54.628906 C 42.894531 54.4375 42.804688 54.246094 42.710938 54.078125 C 42.574219 53.820312 42.414062 53.5625 42.238281 53.332031 C 42.1875 53.269531 42.140625 53.207031 42.089844 53.148438 C 42.003906 53.054688 41.914062 52.976562 41.832031 52.90625 C 41.789062 52.871094 41.785156 52.8125 41.820312 52.773438 C 41.851562 52.730469 41.914062 52.726562 41.953125 52.761719 C 42.039062 52.835938 42.128906 52.921875 42.226562 53.007812 C 42.359375 53.128906 42.5 53.25 42.636719 53.382812 C 42.785156 53.53125 42.925781 53.691406 43.050781 53.851562 C 43.183594 54.023438 43.324219 54.207031 43.453125 54.40625 C 43.582031 54.601562 43.695312 54.808594 43.796875 55 C 43.867188 55.132812 43.980469 55.382812 44.078125 55.257812 C 44.480469 54.742188 44.929688 54.09375 45.105469 53.839844 C 45.617188 53.101562 45.589844 52.941406 45.519531 52.820312 C 44.851562 51.671875 45.007812 50.585938 45.046875 50.277344 C 45.089844 49.941406 45.195312 49.617188 45.347656 49.292969 C 45.382812 49.214844 45.363281 49.007812 45.347656 48.871094 C 45.332031 48.746094 45.308594 48.609375 45.273438 48.484375 C 45.222656 48.304688 45.125 48.074219 45.0625 48.066406 C 44.96875 48.050781 44.898438 47.96875 44.898438 47.871094 C 44.902344 47.789062 44.878906 47.65625 44.851562 47.527344 C 44.824219 47.398438 44.792969 47.265625 44.761719 47.179688 C 44.738281 47.105469 44.695312 47.027344 44.648438 46.949219 C 44.570312 46.8125 44.480469 46.679688 44.417969 46.582031 C 44.382812 46.539062 44.386719 46.480469 44.425781 46.445312 C 44.464844 46.410156 44.523438 46.414062 44.558594 46.453125 C 44.652344 46.535156 44.78125 46.640625 44.894531 46.765625 C 44.925781 46.800781 44.957031 46.839844 44.984375 46.875 C 45 46.878906 45.011719 46.878906 45.023438 46.886719 C 45.125 46.917969 45.242188 46.925781 45.34375 46.90625 C 45.398438 46.894531 45.449219 46.871094 45.46875 46.824219 C 45.378906 46.550781 45.3125 46.261719 45.28125 45.976562 C 45.242188 45.578125 45.265625 45.1875 45.371094 44.847656 C 45.417969 44.699219 45.503906 44.519531 45.617188 44.324219 C 45.507812 44.363281 45.390625 44.398438 45.261719 44.425781 C 44.976562 44.488281 44.667969 44.523438 44.445312 44.542969 C 44.277344 44.5625 44.050781 44.589844 43.867188 44.570312 C 43.921875 44.667969 43.976562 44.769531 44.023438 44.867188 C 44.121094 45.074219 44.183594 45.277344 44.191406 45.441406 C 44.191406 45.527344 44.121094 45.597656 44.035156 45.597656 C 43.949219 45.597656 43.878906 45.527344 43.878906 45.441406 C 43.886719 45.3125 43.84375 45.144531 43.78125 44.96875 C 43.714844 44.792969 43.632812 44.617188 43.554688 44.464844 C 43.203125 44.894531 42.84375 45.328125 42.484375 45.753906 C 41.859375 46.492188 41.246094 47.195312 40.707031 47.765625 C 40.847656 47.753906 40.972656 47.851562 40.996094 47.992188 C 41.042969 48.191406 41.097656 48.382812 41.128906 48.582031 C 41.269531 49.417969 41.273438 50.222656 41.253906 50.996094 C 41.226562 52.027344 41.09375 53.011719 40.867188 53.992188 C 40.640625 54.949219 40.234375 56.132812 39.792969 57.242188 C 39.277344 58.535156 38.722656 59.726562 38.371094 60.339844 C 38.371094 60.34375 38.371094 60.347656 38.367188 60.347656 C 38.367188 60.351562 38.363281 60.355469 38.359375 60.359375 C 37.121094 61.882812 34.980469 62.488281 32.949219 60.789062 C 31.460938 59.546875 30.027344 57.058594 29.058594 52.75 C 28.738281 51.328125 28.453125 50.035156 28.410156 48.660156 C 28.371094 47.410156 28.53125 46.09375 29.042969 44.550781 C 29.707031 42.542969 30.519531 40.957031 31.570312 39.5625 C 32.605469 38.179688 33.878906 36.984375 35.472656 35.742188 Z M 62.359375 64.777344 C 62.359375 64.777344 62.363281 64.777344 62.359375 64.777344 L 62.367188 64.777344 C 62.78125 64.769531 63.121094 64.425781 63.121094 64.003906 C 63.121094 63.945312 63.113281 63.890625 63.101562 63.835938 C 62.863281 62.714844 62.738281 61.570312 62.738281 60.425781 C 62.738281 58.839844 63.019531 54.410156 63.535156 51.203125 C 63.761719 49.804688 64.035156 48.640625 64.34375 48.023438 C 64.957031 46.808594 64.476562 45.320312 63.273438 44.703125 L 58.253906 42.125 C 57.96875 43.636719 56.535156 45.316406 55.113281 46.054688 L 56.582031 46.808594 C 58.816406 47.957031 60.300781 48.941406 61.136719 50.449219 C 61.695312 51.457031 61.96875 52.703125 61.96875 54.398438 C 61.96875 56.996094 61.957031 59.8125 61.957031 61.160156 C 61.957031 62.304688 61.835938 62.722656 61.597656 63.839844 C 61.589844 63.894531 61.582031 63.949219 61.582031 64.003906 C 61.582031 64.429688 61.925781 64.777344 62.347656 64.777344 L 62.351562 64.777344 C 62.351562 64.777344 62.355469 64.777344 62.355469 64.777344 Z M 43.460938 32.917969 C 43.273438 33.171875 43.113281 33.445312 42.972656 33.699219 C 42.742188 34.101562 42.539062 34.519531 42.339844 34.941406 C 41.878906 35.9375 41.472656 36.964844 40.964844 37.9375 C 40.867188 38.128906 41.359375 38.511719 41.6875 38.753906 C 42.042969 39.015625 42.425781 39.234375 42.675781 39.304688 C 42.726562 39.316406 42.757812 39.367188 42.746094 39.421875 C 42.734375 39.472656 42.683594 39.503906 42.632812 39.492188 C 42.308594 39.433594 41.765625 39.191406 41.308594 38.894531 C 41.105469 38.761719 40.921875 38.613281 40.777344 38.46875 C 40.507812 38.199219 40.464844 38.378906 40.464844 38.378906 C 40.304688 38.667969 39.96875 39.316406 39.449219 40.027344 C 39.339844 40.175781 38.5 41.113281 38.15625 41.40625 C 37.734375 41.761719 37.21875 42.152344 36.664062 42.480469 C 36.207031 42.746094 35.730469 42.980469 35.285156 43.15625 C 34.664062 43.394531 34.09375 43.507812 33.714844 43.46875 C 33.578125 43.453125 33.484375 43.332031 33.5 43.199219 C 33.511719 43.0625 33.632812 42.96875 33.765625 42.980469 C 34.214844 43.035156 34.945312 42.800781 35.726562 42.476562 C 36.15625 42.296875 36.601562 42.09375 37.015625 41.871094 C 37.183594 41.777344 37.296875 41.605469 37.3125 41.410156 C 37.332031 41.21875 37.25 41.027344 37.101562 40.90625 C 36.589844 40.507812 35.941406 40.003906 35.390625 39.5625 C 34.953125 39.210938 34.578125 38.898438 34.378906 38.707031 C 34.339844 38.671875 34.339844 38.609375 34.375 38.570312 C 34.410156 38.53125 34.46875 38.53125 34.507812 38.566406 C 34.710938 38.746094 35.09375 39.035156 35.542969 39.359375 C 35.902344 39.621094 36.617188 40.089844 36.585938 40.046875 C 36.179688 39.484375 35.84375 38.875 35.730469 38.421875 C 35.71875 38.371094 35.746094 38.320312 35.796875 38.304688 C 35.847656 38.289062 35.898438 38.320312 35.914062 38.371094 C 36.054688 38.789062 36.421875 39.335938 36.847656 39.835938 C 37.210938 40.261719 37.671875 40.691406 37.851562 40.699219 C 38.03125 40.707031 37.960938 40.277344 37.921875 39.878906 C 37.886719 39.511719 37.863281 39.113281 37.851562 38.734375 C 37.839844 38.367188 37.851562 38.019531 37.929688 37.734375 C 37.941406 37.683594 37.992188 37.648438 38.042969 37.660156 C 38.09375 37.671875 38.125 37.722656 38.113281 37.777344 C 38.078125 37.960938 38.066406 38.175781 38.082031 38.398438 C 38.105469 38.804688 38.214844 39.246094 38.285156 39.667969 C 38.351562 40.046875 38.378906 40.324219 38.519531 40.347656 C 38.664062 40.367188 38.925781 40.097656 39.144531 39.796875 C 39.648438 39.109375 39.976562 38.472656 40.132812 38.191406 C 40.140625 38.175781 40.148438 38.160156 40.160156 38.144531 L 35.832031 35.925781 C 35.820312 35.941406 35.808594 35.957031 35.789062 35.96875 C 34.171875 37.207031 32.886719 38.394531 31.839844 39.773438 C 30.804688 41.132812 30 42.683594 29.339844 44.652344 C 28.832031 46.152344 28.667969 47.433594 28.703125 48.648438 C 28.738281 50.007812 29.011719 51.285156 29.320312 52.691406 C 30.25 56.929688 31.636719 59.390625 33.089844 60.617188 C 35.003906 62.234375 37.027344 61.675781 38.210938 60.242188 C 38.527344 59.617188 39.019531 58.417969 39.472656 57.121094 C 39.859375 56.015625 40.214844 54.839844 40.398438 53.890625 C 40.589844 52.9375 40.683594 51.984375 40.683594 50.988281 C 40.679688 50.242188 40.589844 49.476562 40.507812 48.664062 C 40.492188 48.46875 40.484375 48.277344 40.46875 48.078125 C 40.464844 48.058594 40.464844 48.039062 40.464844 48.019531 C 40.175781 48.316406 39.910156 48.570312 39.691406 48.753906 C 39.652344 48.789062 39.589844 48.785156 39.558594 48.746094 C 39.523438 48.707031 39.527344 48.644531 39.566406 48.609375 C 40.214844 48.039062 41.226562 46.855469 42.261719 45.566406 C 43.875 43.554688 45.535156 41.289062 45.933594 40.679688 C 46.519531 39.789062 47.011719 38.542969 47.339844 37.253906 C 47.65625 36 47.808594 34.699219 47.71875 33.644531 C 47.585938 33.984375 47.449219 34.304688 47.320312 34.578125 C 46.949219 35.355469 46.660156 35.855469 46.417969 36.152344 C 46.207031 36.414062 46.019531 36.527344 45.851562 36.542969 C 45.617188 36.5625 44.632812 36.242188 44.171875 35.976562 C 43.71875 35.71875 43.003906 35.261719 42.925781 34.859375 C 42.839844 34.421875 43.070312 33.949219 43.21875 33.53125 C 43.292969 33.324219 43.375 33.117188 43.460938 32.917969 Z M 47.628906 55.007812 C 47.78125 54.855469 48 54.691406 48.203125 54.507812 C 48.523438 54.222656 48.835938 53.925781 48.988281 53.765625 C 49.121094 53.628906 49.25 53.503906 49.351562 53.371094 C 49.417969 53.285156 49.472656 53.195312 49.496094 53.101562 C 49.535156 52.941406 49.507812 52.777344 49.453125 52.628906 C 49.386719 52.453125 49.28125 52.296875 49.191406 52.1875 C 49.136719 52.117188 49.082031 52.074219 49.03125 52.050781 C 48.960938 52.023438 48.894531 52.023438 48.824219 52.03125 C 48.785156 52.035156 48.753906 52.046875 48.71875 52.0625 C 48.652344 52.09375 48.589844 52.136719 48.53125 52.175781 C 48.421875 52.246094 48.003906 52.574219 47.589844 52.910156 C 47.214844 53.210938 46.84375 53.519531 46.699219 53.652344 C 46.644531 53.707031 46.582031 53.835938 46.582031 53.992188 C 46.582031 54.507812 47.265625 55.375 47.628906 55.007812 Z M 51.339844 49.628906 C 51.261719 49.710938 51.179688 49.796875 51.09375 49.882812 C 50.460938 50.527344 49.59375 51.242188 48.96875 51.746094 C 49.027344 51.75 49.085938 51.765625 49.140625 51.789062 C 49.230469 51.828125 49.316406 51.890625 49.410156 52.003906 C 49.535156 52.15625 49.6875 52.390625 49.757812 52.648438 C 49.800781 52.816406 49.8125 52.992188 49.769531 53.167969 C 49.738281 53.304688 49.667969 53.425781 49.578125 53.546875 C 49.472656 53.6875 49.332031 53.820312 49.195312 53.964844 C 49.058594 54.105469 48.800781 54.351562 48.523438 54.605469 C 49.066406 54.324219 49.769531 53.746094 50.375 53.09375 C 51.144531 52.265625 51.777344 51.320312 51.652344 50.6875 C 51.597656 50.417969 51.5625 50.226562 51.507812 50.046875 C 51.46875 49.910156 51.414062 49.78125 51.339844 49.628906 Z M 46.582031 52.925781 C 46.992188 53.183594 49.285156 51.011719 49.542969 50.6875 C 49.695312 50.496094 49.683594 50.34375 49.691406 50.148438 C 49.695312 50.019531 49.679688 49.894531 49.65625 49.78125 C 49.632812 49.648438 49.589844 49.53125 49.542969 49.429688 C 49.453125 49.238281 49.253906 49.035156 49.019531 48.90625 C 48.804688 48.785156 48.558594 48.722656 48.34375 48.816406 C 48.21875 48.867188 48.089844 48.929688 47.953125 49.015625 C 47.839844 49.085938 47.71875 49.171875 47.597656 49.277344 C 47.597656 49.277344 46.351562 50.304688 46.042969 50.617188 C 45.632812 51.027344 45.636719 51.425781 45.707031 51.710938 C 45.78125 51.996094 45.882812 52.234375 46.054688 52.457031 C 46.179688 52.625 46.347656 52.777344 46.582031 52.925781 Z M 46.074219 48.777344 C 45.8125 49.179688 45.601562 49.582031 45.488281 49.996094 C 45.398438 50.328125 45.375 50.671875 45.441406 51.027344 C 45.488281 50.839844 45.527344 50.683594 45.792969 50.453125 C 46.980469 49.433594 46.980469 49.433594 46.980469 49.433594 C 46.945312 49.433594 46.914062 49.425781 46.886719 49.414062 C 46.648438 49.300781 46.359375 49.109375 46.214844 48.945312 C 46.164062 48.886719 46.117188 48.832031 46.074219 48.777344 Z M 50.914062 44.636719 C 50.8125 44.804688 50.53125 45.4375 50.425781 45.609375 C 50.167969 46.035156 49.535156 46.898438 48.933594 47.644531 C 48.625 48.027344 48.320312 48.371094 48.074219 48.621094 C 48.128906 48.597656 48.179688 48.574219 48.230469 48.550781 C 48.527344 48.425781 48.863281 48.492188 49.160156 48.65625 C 49.445312 48.816406 49.6875 49.070312 49.800781 49.308594 C 49.855469 49.425781 49.902344 49.566406 49.9375 49.722656 C 49.964844 49.855469 49.980469 50.003906 49.972656 50.15625 C 49.972656 50.261719 49.949219 50.363281 49.90625 50.46875 C 50.121094 50.285156 50.328125 50.09375 50.523438 49.910156 C 51.023438 49.4375 51.441406 48.988281 51.578125 48.664062 C 51.8125 48.109375 51.851562 47.289062 51.730469 46.515625 C 51.613281 45.75 51.339844 45.019531 50.914062 44.636719 Z M 46.105469 47.765625 C 46.308594 48.253906 47.113281 49.140625 47.726562 48.550781 C 47.972656 48.3125 48.328125 47.902344 48.695312 47.449219 C 49.289062 46.714844 49.914062 45.867188 50.167969 45.449219 C 50.214844 45.378906 50.253906 45.296875 50.265625 45.273438 C 50.226562 45 49.921875 44.730469 49.570312 44.542969 C 49.21875 44.351562 48.8125 44.246094 48.535156 44.34375 C 48.261719 44.445312 47.894531 44.738281 47.527344 45.074219 C 47.089844 45.476562 46.652344 45.945312 46.375 46.25 C 46.097656 46.550781 45.898438 47.265625 46.105469 47.765625 Z M 45.515625 48.25 C 45.5625 48.328125 45.605469 48.414062 45.640625 48.503906 C 45.664062 48.554688 45.675781 48.621094 45.679688 48.691406 C 45.734375 48.605469 45.789062 48.519531 45.847656 48.4375 C 45.8125 48.375 45.78125 48.3125 45.753906 48.25 C 45.679688 48.261719 45.597656 48.261719 45.515625 48.25 Z M 61.4375 48.476562 C 62.046875 48.792969 62.753906 48.726562 63.285156 48.367188 C 63.375 48.308594 63.398438 48.191406 63.339844 48.101562 C 63.28125 48.015625 63.164062 47.992188 63.074219 48.046875 C 62.652344 48.332031 62.09375 48.386719 61.609375 48.136719 C 61.515625 48.089844 61.398438 48.125 61.351562 48.21875 C 61.304688 48.3125 61.34375 48.429688 61.4375 48.476562 Z M 45.601562 47.238281 C 45.578125 47.246094 45.554688 47.257812 45.53125 47.265625 C 45.425781 47.300781 45.304688 47.316406 45.183594 47.304688 C 45.195312 47.351562 45.210938 47.398438 45.21875 47.445312 C 45.242188 47.539062 45.261719 47.636719 45.273438 47.722656 C 45.335938 47.78125 45.421875 47.828125 45.503906 47.855469 C 45.546875 47.867188 45.589844 47.878906 45.628906 47.878906 C 45.601562 47.75 45.585938 47.621094 45.585938 47.5 C 45.585938 47.410156 45.589844 47.320312 45.601562 47.238281 Z M 47.777344 42.058594 C 47.394531 42.585938 46.738281 43.359375 46.257812 44.039062 C 46.007812 44.390625 45.808594 44.71875 45.730469 44.960938 C 45.640625 45.253906 45.625 45.59375 45.660156 45.933594 C 45.683594 46.15625 45.730469 46.382812 45.792969 46.597656 C 45.863281 46.25 46.867188 45.285156 47.332031 44.859375 C 47.730469 44.488281 48.136719 44.175781 48.4375 44.066406 C 48.777344 43.941406 49.277344 44.046875 49.710938 44.277344 C 50.011719 44.4375 50.269531 44.65625 50.421875 44.890625 C 50.578125 44.648438 50.710938 44.421875 50.824219 44.226562 C 50.929688 44.03125 51.011719 43.867188 51.058594 43.742188 Z M 47.894531 37.265625 C 47.882812 37.308594 47.871094 37.351562 47.859375 37.394531 C 47.492188 38.707031 46.949219 39.972656 46.328125 40.886719 L 55.316406 45.5 C 56.417969 44.796875 57.46875 43.550781 57.808594 42.359375 L 47.914062 37.28125 C 47.90625 37.277344 47.898438 37.269531 47.894531 37.265625 Z M 46.105469 41.199219 C 45.679688 41.785156 44.816406 42.902344 43.835938 44.117188 C 43.851562 44.121094 43.871094 44.121094 43.890625 44.125 C 43.949219 44.132812 44.011719 44.128906 44.078125 44.121094 C 44.179688 44.105469 44.28125 44.074219 44.367188 44.058594 C 44.566406 44.007812 44.84375 43.933594 45.09375 43.839844 C 45.222656 43.792969 45.339844 43.738281 45.429688 43.679688 C 45.351562 43.546875 45.277344 43.402344 45.226562 43.25 C 45.148438 43.019531 45.105469 42.785156 45.125 42.5625 C 45.125 42.507812 45.167969 42.464844 45.21875 42.464844 C 45.273438 42.464844 45.316406 42.507812 45.316406 42.558594 C 45.332031 42.710938 45.402344 42.859375 45.460938 43.015625 C 45.527344 43.207031 45.785156 43.585938 45.972656 43.785156 C 46.433594 43.132812 47.054688 42.398438 47.433594 41.882812 Z M 43.273438 40.347656 C 43.140625 40.367188 42.601562 40.28125 42.046875 40.039062 C 41.660156 39.875 41.273438 39.632812 41.003906 39.324219 C 40.953125 39.265625 40.863281 39.265625 40.808594 39.316406 C 40.753906 39.367188 40.753906 39.457031 40.804688 39.511719 C 41.117188 39.824219 41.554688 40.050781 41.972656 40.214844 C 42.582031 40.457031 43.160156 40.558594 43.304688 40.535156 C 43.355469 40.527344 43.390625 40.476562 43.382812 40.425781 C 43.371094 40.371094 43.324219 40.335938 43.273438 40.347656 Z M 43.917969 39.949219 C 43.816406 39.710938 43.722656 39.515625 43.621094 39.332031 C 43.515625 39.144531 43.398438 38.964844 43.234375 38.761719 C 43.039062 38.496094 42.804688 38.214844 42.515625 38.019531 C 42.304688 37.878906 42.066406 37.792969 41.820312 37.765625 C 41.707031 37.757812 41.605469 37.839844 41.59375 37.957031 C 41.582031 38.074219 41.667969 38.175781 41.78125 38.1875 C 41.96875 38.203125 42.140625 38.277344 42.308594 38.367188 C 42.582031 38.515625 42.839844 38.714844 43.050781 38.921875 C 43.21875 39.101562 43.34375 39.261719 43.453125 39.433594 C 43.558594 39.605469 43.644531 39.792969 43.742188 40.023438 C 43.765625 40.074219 43.820312 40.09375 43.867188 40.074219 C 43.917969 40.054688 43.9375 39.996094 43.917969 39.949219 Z M 48.3125 35.011719 C 48.253906 35.628906 48.140625 36.273438 47.980469 36.917969 C 48.015625 36.914062 48.054688 36.921875 48.085938 36.9375 L 51.703125 38.796875 C 51.710938 38.796875 51.71875 38.800781 51.722656 38.800781 C 51.949219 38.882812 52.234375 38.691406 52.324219 38.414062 C 52.398438 38.191406 52.339844 37.910156 52.058594 37.625 C 51.792969 37.355469 51.386719 37.046875 50.925781 36.722656 C 50.0625 36.121094 49.015625 35.480469 48.3125 35.011719 Z M 42.203125 34.347656 L 31.070312 28.628906 C 30.109375 28.136719 28.933594 28.523438 28.445312 29.492188 C 27.957031 30.460938 28.339844 31.648438 29.296875 32.140625 L 40.414062 37.847656 C 40.492188 37.773438 40.574219 37.699219 40.648438 37.621094 C 40.671875 37.597656 41.566406 35.707031 42 34.777344 C 42.066406 34.632812 42.132812 34.492188 42.203125 34.347656 Z M 45.757812 36.246094 C 45.933594 36.300781 46.085938 36.191406 46.21875 36 C 46.429688 35.695312 46.664062 35.195312 46.960938 34.421875 C 47.101562 34.058594 47.246094 33.609375 47.378906 33.148438 C 47.503906 32.703125 47.617188 32.246094 47.691406 31.855469 C 47.78125 31.398438 47.71875 31.027344 47.5625 30.738281 C 47.382812 30.402344 47.070312 30.1875 46.730469 30.074219 C 46.367188 29.929688 45.933594 29.890625 45.585938 30.074219 C 45.441406 30.148438 45.125 30.542969 44.402344 31.890625 C 44.140625 32.378906 43.804688 33.023438 43.542969 33.65625 C 43.382812 34.039062 43.167969 34.445312 43.304688 34.777344 C 43.4375 35.109375 43.945312 35.410156 44.359375 35.644531 C 44.796875 35.898438 45.265625 36.089844 45.757812 36.246094 Z M 43.203125 32.621094 C 42.796875 32.527344 42.367188 32.375 41.9375 32.328125 C 41.730469 32.304688 41.527344 32.308594 41.324219 32.359375 C 41.195312 32.390625 41.046875 32.441406 40.898438 32.503906 C 40.632812 32.613281 40.355469 32.746094 40.128906 32.851562 L 42.375 34.007812 C 42.460938 33.839844 42.550781 33.671875 42.644531 33.507812 C 42.804688 33.222656 42.988281 32.910156 43.203125 32.621094 " fill-opacity="1" fill-rule="evenodd"/></g></svg>