<svg xmlns="http://www.w3.org/2000/svg" xmlns:xlink="http://www.w3.org/1999/xlink" width="125" zoomAndPan="magnify" viewBox="0 0 94.079994 101.04" height="125" preserveAspectRatio="xMidYMid meet" version="1.0"><defs><clipPath id="932ed0865d"><path d="M 40 48 L 43 48 L 43 54 L 40 54 Z M 40 48 " clip-rule="nonzero"/></clipPath><clipPath id="25a671cade"><path d="M 21.136719 48.210938 L 46.507812 21.089844 L 71.457031 44.429688 L 46.089844 71.550781 Z M 21.136719 48.210938 " clip-rule="nonzero"/></clipPath><clipPath id="7df9378a7c"><path d="M 46.507812 21.089844 L 21.136719 48.210938 L 46.089844 71.550781 L 71.457031 44.429688 Z M 46.507812 21.089844 " clip-rule="nonzero"/></clipPath><clipPath id="fc85e6c8cd"><path d="M 46.507812 21.089844 L 21.136719 48.210938 L 46.089844 71.550781 L 71.457031 44.429688 Z M 46.507812 21.089844 " clip-rule="nonzero"/></clipPath><clipPath id="52aca58af9"><path d="M 34 31 L 61 31 L 61 65 L 34 65 Z M 34 31 " clip-rule="nonzero"/></clipPath><clipPath id="3e79bd1425"><path d="M 21.136719 48.210938 L 46.507812 21.089844 L 71.457031 44.429688 L 46.089844 71.550781 Z M 21.136719 48.210938 " clip-rule="nonzero"/></clipPath><clipPath id="53889e2e4d"><path d="M 46.507812 21.089844 L 21.136719 48.210938 L 46.089844 71.550781 L 71.457031 44.429688 Z M 46.507812 21.089844 " clip-rule="nonzero"/></clipPath><clipPath id="e001d90c52"><path d="M 46.507812 21.089844 L 21.136719 48.210938 L 46.089844 71.550781 L 71.457031 44.429688 Z M 46.507812 21.089844 " clip-rule="nonzero"/></clipPath></defs><g clip-path="url(#932ed0865d)"><g clip-path="url(#25a671cade)"><g clip-path="url(#7df9378a7c)"><g clip-path="url(#fc85e6c8cd)"><path fill="#000000" d="M 42.460938 52.394531 C 42.46875 52.683594 42.355469 52.949219 42.171875 53.148438 C 41.988281 53.347656 41.726562 53.472656 41.4375 53.484375 C 41.160156 53.496094 40.890625 53.398438 40.6875 53.207031 C 40.484375 53.015625 40.367188 52.757812 40.359375 52.476562 L 40.292969 49.949219 C 40.277344 49.367188 40.734375 48.878906 41.3125 48.855469 C 41.59375 48.84375 41.859375 48.945312 42.066406 49.132812 C 42.269531 49.324219 42.386719 49.585938 42.390625 49.867188 Z M 41.089844 52.777344 C 41.179688 52.863281 41.296875 52.90625 41.421875 52.902344 C 41.679688 52.890625 41.882812 52.671875 41.875 52.414062 L 41.851562 51.445312 L 40.917969 51.480469 L 40.945312 52.453125 C 40.945312 52.578125 41 52.695312 41.089844 52.777344 Z M 41.332031 49.441406 C 41.203125 49.445312 41.085938 49.503906 41.003906 49.589844 C 40.921875 49.679688 40.871094 49.796875 40.875 49.925781 L 40.902344 50.898438 L 41.835938 50.859375 L 41.808594 49.886719 C 41.804688 49.761719 41.753906 49.648438 41.664062 49.5625 C 41.574219 49.480469 41.457031 49.433594 41.332031 49.441406 Z M 41.332031 49.441406 " fill-opacity="1" fill-rule="nonzero"/></g></g></g></g><g clip-path="url(#52aca58af9)"><g clip-path="url(#3e79bd1425)"><g clip-path="url(#53889e2e4d)"><g clip-path="url(#e001d90c52)"><path fill="#000000" d="M 36.097656 61.640625 C 34.9375 59.75 34.578125 57.292969 35.15625 55.230469 C 35.871094 52.6875 37.84375 51.210938 38.957031 50.554688 C 38.964844 50.550781 38.976562 50.542969 38.984375 50.539062 L 39.042969 50.515625 L 38.96875 47.722656 C 38.96875 47.691406 38.972656 47.660156 38.980469 47.628906 L 39.417969 46.1875 L 39.039062 45.148438 L 37.953125 45.273438 C 37.882812 45.28125 37.808594 45.261719 37.753906 45.222656 C 37.195312 44.828125 34.398438 42.675781 34.175781 38.8125 C 33.929688 34.550781 37.03125 31.898438 37.386719 31.609375 C 37.441406 31.5625 37.511719 31.539062 37.582031 31.542969 L 57.96875 32.246094 C 57.972656 32.246094 57.976562 32.246094 57.976562 32.246094 C 58.277344 32.246094 58.5625 32.367188 58.832031 32.617188 C 59.652344 33.382812 60.21875 35.304688 60.277344 37.507812 C 60.332031 39.503906 59.933594 41.613281 59.101562 42.503906 C 58.859375 42.761719 58.582031 42.914062 58.269531 42.9375 C 58.265625 42.9375 58.261719 42.941406 58.257812 42.941406 L 44.683594 44.5 L 45.480469 46.160156 L 46.300781 46.125 C 46.496094 46.117188 46.6875 46.195312 46.851562 46.347656 C 47.175781 46.652344 47.382812 47.230469 47.398438 47.894531 C 47.417969 48.578125 47.234375 49.15625 46.9375 49.476562 C 46.785156 49.640625 46.601562 49.734375 46.398438 49.742188 L 45.679688 49.773438 L 45.695312 50.355469 C 46.414062 50.507812 47.105469 50.730469 47.753906 51.035156 C 49.484375 51.839844 50.425781 52.9375 51.339844 54.003906 C 51.976562 54.746094 52.632812 55.511719 53.585938 56.195312 C 54.699219 57 56.035156 57.558594 57.5625 57.859375 C 57.71875 57.890625 57.820312 58.042969 57.789062 58.203125 C 57.777344 58.257812 57.75 58.304688 57.714844 58.34375 C 57.648438 58.417969 57.546875 58.453125 57.441406 58.433594 C 55.835938 58.117188 54.421875 57.523438 53.242188 56.671875 C 52.234375 55.945312 51.554688 55.152344 50.894531 54.382812 C 50.023438 53.367188 49.121094 52.316406 47.503906 51.5625 C 46.9375 51.300781 46.335938 51.097656 45.710938 50.957031 L 45.722656 51.402344 C 46.277344 51.535156 46.8125 51.71875 47.316406 51.953125 C 48.851562 52.667969 49.683594 53.636719 50.566406 54.667969 C 51.242188 55.453125 51.9375 56.265625 52.984375 57.019531 C 54.21875 57.90625 55.6875 58.523438 57.351562 58.851562 C 57.511719 58.882812 57.613281 59.039062 57.578125 59.195312 C 57.566406 59.25 57.542969 59.300781 57.503906 59.335938 C 57.4375 59.410156 57.335938 59.445312 57.234375 59.425781 C 55.484375 59.082031 53.941406 58.433594 52.640625 57.496094 C 51.539062 56.699219 50.820312 55.859375 50.121094 55.050781 C 49.28125 54.070312 48.488281 53.144531 47.066406 52.480469 C 46.644531 52.285156 46.199219 52.128906 45.738281 52.007812 L 45.886719 57.570312 C 45.890625 57.652344 45.859375 57.726562 45.808594 57.78125 C 45.773438 57.820312 45.726562 57.847656 45.675781 57.863281 L 45.363281 57.953125 C 45.320312 58.269531 45.195312 58.699219 44.832031 59.085938 C 44.710938 59.214844 44.300781 59.601562 43.667969 59.707031 L 43.6875 60.445312 C 43.691406 60.523438 43.660156 60.597656 43.609375 60.652344 C 43.558594 60.707031 43.488281 60.742188 43.410156 60.746094 C 43.335938 61.367188 43.113281 62.15625 42.511719 62.820312 C 42.503906 62.828125 42.492188 62.839844 42.484375 62.851562 C 41.839844 63.539062 40.882812 63.957031 39.855469 64 C 39.558594 64.011719 39.273438 63.992188 39.007812 63.9375 C 37.910156 63.726562 36.875 62.910156 36.097656 61.640625 Z M 41.589844 60.527344 L 41.570312 59.792969 C 40.933594 59.738281 40.503906 59.382812 40.375 59.261719 C 39.886719 58.804688 39.773438 58.210938 39.75 57.902344 L 39.476562 57.863281 C 39.339844 57.839844 39.234375 57.722656 39.230469 57.582031 L 39.09375 52.363281 C 38.164062 53.039062 37.125 54.101562 36.691406 55.648438 C 36.234375 57.269531 36.539062 59.289062 37.460938 60.796875 C 37.996094 61.671875 38.675781 62.246094 39.324219 62.371094 C 39.914062 62.484375 40.785156 62.34375 41.324219 61.769531 C 41.328125 61.765625 41.335938 61.757812 41.339844 61.753906 C 41.609375 61.457031 41.738281 61.101562 41.800781 60.792969 C 41.753906 60.78125 41.714844 60.761719 41.679688 60.730469 C 41.625 60.675781 41.589844 60.605469 41.589844 60.527344 Z M 40 46.070312 C 40.019531 46.132812 40.023438 46.195312 40.003906 46.257812 L 39.554688 47.75 L 39.808594 57.320312 L 43.285156 57.828125 L 43 47.117188 L 41.898438 44.820312 L 39.636719 45.078125 Z M 57.253906 42.46875 C 56.617188 41.78125 56.144531 40.386719 55.972656 38.71875 C 55.972656 38.703125 55.96875 38.6875 55.96875 38.671875 C 55.957031 38.585938 55.949219 38.496094 55.945312 38.410156 C 55.9375 38.347656 55.933594 38.285156 55.929688 38.222656 C 55.929688 38.214844 55.929688 38.203125 55.929688 38.191406 C 55.929688 38.1875 55.925781 38.1875 55.925781 38.1875 C 55.925781 38.1875 55.925781 38.183594 55.929688 38.183594 C 55.925781 38.140625 55.921875 38.101562 55.921875 38.058594 C 55.914062 37.933594 55.90625 37.808594 55.902344 37.679688 C 55.898438 37.53125 55.898438 37.382812 55.902344 37.234375 C 55.902344 37.171875 55.902344 37.109375 55.902344 37.046875 C 55.90625 36.96875 55.90625 36.890625 55.910156 36.8125 C 55.914062 36.714844 55.921875 36.613281 55.925781 36.515625 C 55.925781 36.492188 55.929688 36.472656 55.929688 36.453125 C 56.027344 34.949219 56.382812 33.539062 56.988281 32.796875 L 39.246094 32.183594 C 38.484375 33.082031 36.941406 35.296875 37.027344 38.4375 C 37.109375 41.578125 38.765625 43.664062 39.574219 44.5 Z M 58.429688 37.578125 C 58.425781 37.328125 58.410156 37.089844 58.390625 36.863281 L 57.730469 36.886719 L 57.757812 37.820312 L 58.433594 37.792969 C 58.433594 37.722656 58.433594 37.652344 58.429688 37.578125 Z M 56.488281 37.660156 C 56.488281 37.730469 56.496094 37.800781 56.5 37.871094 L 57.171875 37.84375 L 57.148438 36.910156 L 56.488281 36.9375 C 56.488281 36.960938 56.488281 36.988281 56.488281 37.011719 C 56.484375 37.097656 56.484375 37.179688 56.484375 37.269531 C 56.484375 37.398438 56.484375 37.527344 56.488281 37.660156 Z M 57.230469 39.945312 L 56.785156 39.960938 C 56.921875 40.492188 57.089844 40.890625 57.261719 41.128906 Z M 57.214844 39.363281 L 57.1875 38.429688 L 56.535156 38.453125 C 56.566406 38.789062 56.609375 39.097656 56.660156 39.382812 Z M 56.785156 34.824219 L 57.09375 34.808594 L 57.074219 34.125 C 56.976562 34.285156 56.875 34.519531 56.785156 34.824219 Z M 56.644531 35.414062 C 56.589844 35.691406 56.550781 36.003906 56.519531 36.351562 L 57.132812 36.328125 L 57.109375 35.394531 Z M 57.675781 34.785156 L 57.984375 34.773438 C 57.882812 34.488281 57.769531 34.265625 57.65625 34.109375 Z M 57.691406 35.371094 L 57.714844 36.304688 L 58.328125 36.28125 C 58.28125 35.9375 58.21875 35.632812 58.148438 35.351562 Z M 57.773438 38.40625 L 57.796875 39.339844 L 58.351562 39.316406 C 58.390625 39.03125 58.414062 38.71875 58.425781 38.378906 Z M 57.8125 39.921875 L 57.84375 41.113281 C 57.992188 40.871094 58.144531 40.464844 58.257812 39.902344 Z M 37.671875 32.128906 C 37.09375 32.625 34.542969 35.035156 34.757812 38.773438 C 34.957031 42.199219 37.328125 44.183594 38.003906 44.679688 L 38.851562 44.582031 C 37.9375 43.535156 36.523438 41.445312 36.445312 38.457031 C 36.363281 35.472656 37.664062 33.273438 38.519531 32.160156 Z M 59.695312 37.527344 C 59.640625 35.503906 59.132812 33.703125 58.429688 33.046875 C 58.269531 32.894531 58.113281 32.824219 57.964844 32.828125 C 57.808594 32.835938 57.652344 32.921875 57.5 33.085938 C 57.449219 33.140625 57.398438 33.207031 57.347656 33.28125 C 57.492188 33.277344 57.707031 33.316406 57.933594 33.527344 C 58.539062 34.09375 58.964844 35.675781 59.015625 37.558594 C 59.019531 37.726562 59.019531 37.890625 59.019531 38.058594 C 59.019531 38.058594 59.019531 38.0625 59.019531 38.0625 C 59.019531 38.0625 59.019531 38.066406 59.019531 38.066406 C 59 39.597656 58.710938 41.0625 58.144531 41.667969 C 57.980469 41.84375 57.792969 41.945312 57.585938 41.957031 C 57.640625 42.023438 57.695312 42.089844 57.753906 42.144531 C 57.914062 42.292969 58.070312 42.363281 58.21875 42.359375 C 58.976562 42.328125 59.769531 40.335938 59.695312 37.527344 Z M 45.480469 49.195312 L 45.597656 49.191406 C 45.421875 48.875 45.3125 48.449219 45.300781 47.976562 C 45.289062 47.492188 45.378906 47.066406 45.535156 46.742188 L 45.414062 46.746094 C 45.144531 46.757812 44.855469 47.292969 44.871094 47.996094 C 44.886719 48.457031 45.035156 48.886719 45.253906 49.09375 C 45.332031 49.164062 45.40625 49.199219 45.480469 49.195312 Z M 46.816406 47.914062 C 46.800781 47.351562 46.621094 46.9375 46.453125 46.777344 C 46.417969 46.746094 46.367188 46.707031 46.316406 46.710938 C 46.28125 46.710938 46.234375 46.738281 46.191406 46.785156 C 46.035156 46.949219 45.867188 47.367188 45.882812 47.953125 C 45.898438 48.519531 46.078125 48.933594 46.246094 49.09375 C 46.28125 49.125 46.332031 49.164062 46.382812 49.160156 C 46.546875 49.152344 46.835938 48.675781 46.816406 47.914062 Z M 45.296875 57.367188 L 45.09375 49.683594 C 45.007812 49.644531 44.929688 49.589844 44.851562 49.519531 C 44.515625 49.207031 44.304688 48.644531 44.289062 48.015625 C 44.269531 47.273438 44.527344 46.644531 44.917969 46.34375 L 44.066406 44.570312 L 42.515625 44.746094 L 43.554688 46.914062 C 43.570312 46.953125 43.582031 46.992188 43.582031 47.035156 L 43.871094 57.785156 Z M 43.078125 59.453125 C 43.078125 59.375 43.109375 59.292969 43.160156 59.242188 C 43.214844 59.1875 43.289062 59.152344 43.367188 59.152344 C 43.941406 59.144531 44.308594 58.796875 44.410156 58.6875 C 44.578125 58.511719 44.667969 58.316406 44.726562 58.140625 L 43.667969 58.449219 C 43.664062 58.449219 43.660156 58.449219 43.65625 58.449219 C 43.621094 58.460938 43.582031 58.464844 43.542969 58.457031 L 40.347656 57.988281 C 40.386719 58.226562 40.492188 58.570312 40.777344 58.835938 C 40.878906 58.933594 41.265625 59.25 41.835938 59.214844 C 41.917969 59.207031 41.992188 59.234375 42.050781 59.289062 C 42.109375 59.339844 42.144531 59.414062 42.144531 59.496094 L 42.164062 60.214844 L 43.097656 60.175781 Z M 39.121094 63.367188 C 39.347656 63.410156 39.585938 63.425781 39.839844 63.417969 C 40.726562 63.378906 41.550781 63.015625 42.082031 62.429688 C 42.570312 61.894531 42.75 61.242188 42.816406 60.769531 L 42.390625 60.789062 C 42.324219 61.203125 42.164062 61.710938 41.769531 62.144531 C 41.761719 62.152344 41.753906 62.15625 41.75 62.164062 C 41.058594 62.902344 39.953125 63.089844 39.210938 62.945312 C 38.402344 62.789062 37.582031 62.117188 36.960938 61.105469 C 35.957031 59.46875 35.632812 57.265625 36.128906 55.492188 C 36.660156 53.609375 37.992188 52.382812 39.074219 51.667969 L 39.058594 51.171875 C 38.003906 51.828125 36.339844 53.175781 35.71875 55.382812 C 35.179688 57.292969 35.519531 59.574219 36.59375 61.332031 C 37.289062 62.464844 38.1875 63.1875 39.121094 63.367188 Z M 39.121094 63.367188 " fill-opacity="1" fill-rule="nonzero"/></g></g></g></g></svg>