<svg xmlns="http://www.w3.org/2000/svg" xmlns:xlink="http://www.w3.org/1999/xlink" width="250" zoomAndPan="magnify" viewBox="0 0 187.5 187.499992" height="250" preserveAspectRatio="xMidYMid meet" version="1.0"><defs><clipPath id="777db47969"><path d="M 81 98 L 86 98 L 86 108 L 81 108 Z M 81 98 " clip-rule="nonzero"/></clipPath><clipPath id="3dc30bcbc9"><path d="M 42.574219 97.074219 L 93.675781 42.449219 L 144.476562 89.972656 L 93.378906 144.597656 Z M 42.574219 97.074219 " clip-rule="nonzero"/></clipPath><clipPath id="e0cdbcee18"><path d="M 93.675781 42.449219 L 42.574219 97.074219 L 93.378906 144.597656 L 144.476562 89.972656 Z M 93.675781 42.449219 " clip-rule="nonzero"/></clipPath><clipPath id="e975204b55"><path d="M 93.675781 42.449219 L 42.574219 97.074219 L 93.378906 144.597656 L 144.476562 89.972656 Z M 93.675781 42.449219 " clip-rule="nonzero"/></clipPath><clipPath id="fd1247742b"><path d="M 68 63 L 122 63 L 122 130 L 68 130 Z M 68 63 " clip-rule="nonzero"/></clipPath><clipPath id="40b0a915da"><path d="M 42.574219 97.074219 L 93.675781 42.449219 L 144.476562 89.972656 L 93.378906 144.597656 Z M 42.574219 97.074219 " clip-rule="nonzero"/></clipPath><clipPath id="e5db871ff1"><path d="M 93.675781 42.449219 L 42.574219 97.074219 L 93.378906 144.597656 L 144.476562 89.972656 Z M 93.675781 42.449219 " clip-rule="nonzero"/></clipPath><clipPath id="b4da04f649"><path d="M 93.675781 42.449219 L 42.574219 97.074219 L 93.378906 144.597656 L 144.476562 89.972656 Z M 93.675781 42.449219 " clip-rule="nonzero"/></clipPath></defs><g clip-path="url(#777db47969)"><g clip-path="url(#3dc30bcbc9)"><g clip-path="url(#e0cdbcee18)"><g clip-path="url(#e975204b55)"><path fill="#000000" d="M 85.816406 105.78125 C 85.835938 106.363281 85.613281 106.90625 85.242188 107.300781 C 84.871094 107.699219 84.347656 107.957031 83.761719 107.976562 C 83.191406 107.996094 82.652344 107.792969 82.234375 107.40625 C 81.820312 107.019531 81.582031 106.492188 81.5625 105.921875 L 81.398438 100.804688 C 81.363281 99.632812 82.285156 98.644531 83.457031 98.605469 C 84.023438 98.585938 84.566406 98.789062 84.980469 99.175781 C 85.394531 99.5625 85.632812 100.089844 85.652344 100.660156 Z M 83.042969 106.542969 C 83.226562 106.714844 83.46875 106.804688 83.71875 106.796875 C 84.242188 106.777344 84.652344 106.339844 84.632812 105.816406 L 84.570312 103.851562 L 82.683594 103.914062 L 82.746094 105.886719 C 82.753906 106.136719 82.859375 106.371094 83.042969 106.542969 Z M 83.496094 99.789062 C 83.238281 99.796875 83.003906 99.910156 82.835938 100.085938 C 82.671875 100.265625 82.574219 100.503906 82.582031 100.765625 L 82.644531 102.734375 L 84.535156 102.667969 L 84.46875 100.695312 C 84.460938 100.445312 84.355469 100.210938 84.171875 100.039062 C 83.988281 99.867188 83.75 99.777344 83.496094 99.789062 Z M 83.496094 99.789062 " fill-opacity="1" fill-rule="nonzero"/></g></g></g></g><g clip-path="url(#fd1247742b)"><g clip-path="url(#40b0a915da)"><g clip-path="url(#e5db871ff1)"><g clip-path="url(#b4da04f649)"><path fill="#000000" d="M 73.027344 124.429688 C 70.660156 120.585938 69.902344 115.609375 71.050781 111.441406 C 72.472656 106.300781 76.453125 103.328125 78.699219 102.015625 C 78.71875 102.003906 78.738281 101.996094 78.757812 101.984375 L 78.875 101.9375 L 78.691406 96.285156 C 78.691406 96.222656 78.699219 96.15625 78.714844 96.097656 L 79.585938 93.179688 L 78.804688 91.070312 L 76.605469 91.3125 C 76.464844 91.328125 76.320312 91.289062 76.203125 91.207031 C 75.066406 90.40625 69.378906 86.015625 68.886719 78.191406 C 68.34375 69.566406 74.597656 64.226562 75.316406 63.644531 C 75.425781 63.554688 75.566406 63.507812 75.710938 63.511719 L 117.015625 65.160156 C 117.023438 65.160156 117.027344 65.164062 117.035156 65.164062 C 117.640625 65.160156 118.222656 65.410156 118.765625 65.921875 C 120.4375 67.484375 121.609375 71.375 121.753906 75.835938 C 121.882812 79.878906 121.097656 84.148438 119.417969 85.941406 C 118.933594 86.460938 118.371094 86.765625 117.738281 86.808594 C 117.730469 86.808594 117.722656 86.8125 117.714844 86.816406 L 90.234375 89.820312 L 91.867188 93.1875 L 93.527344 93.132812 C 93.53125 93.132812 93.53125 93.132812 93.53125 93.132812 C 93.929688 93.117188 94.316406 93.277344 94.648438 93.589844 C 95.3125 94.207031 95.730469 95.378906 95.773438 96.722656 C 95.820312 98.105469 95.457031 99.277344 94.851562 99.921875 C 94.546875 100.25 94.175781 100.441406 93.769531 100.457031 L 92.308594 100.507812 L 92.347656 101.691406 C 93.804688 102.003906 95.210938 102.464844 96.527344 103.082031 C 100.039062 104.734375 101.960938 106.96875 103.828125 109.136719 C 105.121094 110.640625 106.460938 112.199219 108.394531 113.597656 C 110.660156 115.234375 113.378906 116.382812 116.46875 117.007812 C 116.789062 117.074219 116.996094 117.386719 116.929688 117.703125 C 116.910156 117.816406 116.855469 117.914062 116.785156 117.992188 C 116.648438 118.136719 116.445312 118.210938 116.234375 118.167969 C 112.976562 117.507812 110.105469 116.292969 107.703125 114.554688 C 105.65625 113.074219 104.269531 111.464844 102.925781 109.902344 C 101.148438 107.832031 99.308594 105.695312 96.027344 104.152344 C 94.875 103.613281 93.652344 103.199219 92.386719 102.910156 L 92.417969 103.804688 C 93.539062 104.082031 94.628906 104.457031 95.65625 104.9375 C 98.769531 106.402344 100.46875 108.375 102.269531 110.46875 C 103.640625 112.066406 105.0625 113.71875 107.191406 115.257812 C 109.695312 117.070312 112.679688 118.335938 116.058594 119.015625 C 116.378906 119.082031 116.585938 119.394531 116.519531 119.714844 C 116.5 119.824219 116.445312 119.921875 116.375 120 C 116.238281 120.144531 116.035156 120.21875 115.824219 120.175781 C 112.277344 119.460938 109.140625 118.128906 106.5 116.214844 C 104.253906 114.59375 102.789062 112.886719 101.371094 111.238281 C 99.65625 109.246094 98.039062 107.363281 95.152344 106.007812 C 94.292969 105.605469 93.386719 105.28125 92.453125 105.03125 L 92.816406 116.296875 C 92.820312 116.457031 92.761719 116.609375 92.65625 116.722656 C 92.585938 116.796875 92.492188 116.855469 92.386719 116.886719 L 91.761719 117.0625 C 91.679688 117.703125 91.425781 118.574219 90.699219 119.351562 C 90.699219 119.351562 90.695312 119.351562 90.695312 119.351562 C 90.453125 119.613281 89.628906 120.390625 88.34375 120.597656 L 88.394531 122.089844 C 88.398438 122.25 88.335938 122.402344 88.234375 122.511719 C 88.132812 122.621094 87.992188 122.6875 87.832031 122.695312 C 87.691406 123.953125 87.25 125.550781 86.035156 126.886719 C 86.015625 126.90625 85.996094 126.925781 85.976562 126.949219 C 84.679688 128.335938 82.75 129.171875 80.667969 129.246094 C 80.070312 129.265625 79.492188 129.222656 78.945312 129.113281 C 76.722656 128.675781 74.617188 127.011719 73.027344 124.429688 Z M 84.140625 122.234375 L 84.09375 120.746094 C 82.800781 120.628906 81.929688 119.90625 81.667969 119.664062 C 80.671875 118.730469 80.4375 117.523438 80.386719 116.898438 L 79.835938 116.816406 C 79.554688 116.773438 79.34375 116.535156 79.332031 116.25 L 78.992188 105.679688 C 77.121094 107.039062 75.027344 109.179688 74.167969 112.300781 C 73.261719 115.578125 73.894531 119.675781 75.777344 122.734375 C 76.875 124.515625 78.261719 125.683594 79.578125 125.945312 C 80.769531 126.179688 82.535156 125.902344 83.617188 124.746094 C 83.628906 124.734375 83.640625 124.722656 83.648438 124.710938 C 84.195312 124.113281 84.453125 123.398438 84.570312 122.777344 C 84.480469 122.75 84.398438 122.710938 84.328125 122.648438 C 84.214844 122.539062 84.144531 122.390625 84.140625 122.234375 Z M 80.761719 92.953125 C 80.808594 93.074219 80.8125 93.207031 80.773438 93.328125 L 79.878906 96.34375 L 80.5 115.71875 L 87.550781 116.792969 L 86.855469 95.101562 L 84.59375 90.4375 L 80.015625 90.9375 Z M 115.679688 85.847656 C 114.378906 84.449219 113.410156 81.621094 113.042969 78.242188 C 113.039062 78.210938 113.035156 78.175781 113.03125 78.144531 C 113.011719 77.96875 112.996094 77.796875 112.980469 77.617188 C 112.96875 77.492188 112.960938 77.367188 112.953125 77.242188 C 112.949219 77.21875 112.949219 77.195312 112.945312 77.171875 C 112.945312 77.171875 112.945312 77.167969 112.945312 77.164062 C 112.945312 77.164062 112.945312 77.160156 112.945312 77.160156 C 112.941406 77.074219 112.933594 76.988281 112.929688 76.902344 C 112.914062 76.652344 112.902344 76.398438 112.894531 76.140625 C 112.882812 75.839844 112.878906 75.539062 112.878906 75.238281 C 112.878906 75.109375 112.882812 74.984375 112.886719 74.859375 C 112.886719 74.699219 112.890625 74.542969 112.894531 74.382812 C 112.902344 74.179688 112.914062 73.980469 112.925781 73.777344 C 112.925781 73.738281 112.929688 73.695312 112.929688 73.65625 C 113.113281 70.613281 113.816406 67.765625 115.035156 66.261719 L 79.085938 64.828125 C 77.550781 66.640625 74.453125 71.105469 74.660156 77.464844 C 74.863281 83.824219 78.238281 88.0625 79.882812 89.765625 Z M 118.011719 75.960938 C 117.996094 75.457031 117.960938 74.976562 117.921875 74.507812 L 116.585938 74.554688 L 116.644531 76.445312 L 118.015625 76.398438 C 118.015625 76.253906 118.015625 76.113281 118.011719 75.960938 Z M 114.074219 76.101562 C 114.078125 76.25 114.09375 76.386719 114.097656 76.53125 L 115.464844 76.484375 L 115.402344 74.597656 L 114.066406 74.640625 C 114.066406 74.691406 114.066406 74.742188 114.066406 74.789062 C 114.0625 74.960938 114.058594 75.132812 114.058594 75.3125 C 114.0625 75.574219 114.066406 75.835938 114.074219 76.101562 Z M 115.601562 80.738281 L 114.703125 80.769531 C 114.988281 81.839844 115.332031 82.648438 115.679688 83.136719 Z M 115.5625 79.558594 L 115.503906 77.667969 L 114.183594 77.714844 C 114.246094 78.386719 114.335938 79.015625 114.445312 79.597656 Z M 114.648438 70.363281 L 115.269531 70.34375 L 115.222656 68.957031 C 115.027344 69.277344 114.824219 69.753906 114.648438 70.363281 Z M 114.367188 71.558594 C 114.261719 72.117188 114.179688 72.753906 114.128906 73.457031 L 115.367188 73.414062 L 115.304688 71.523438 Z M 116.449219 70.300781 L 117.070312 70.28125 C 116.863281 69.695312 116.632812 69.25 116.40625 68.929688 Z M 116.488281 71.484375 L 116.546875 73.371094 L 117.785156 73.328125 C 117.6875 72.636719 117.558594 72.015625 117.417969 71.449219 Z M 116.683594 77.625 L 116.746094 79.515625 L 117.871094 79.476562 C 117.941406 78.898438 117.992188 78.269531 118.011719 77.582031 Z M 116.785156 80.699219 L 116.859375 83.109375 C 117.15625 82.621094 117.460938 81.796875 117.683594 80.667969 Z M 75.890625 64.703125 C 74.730469 65.699219 69.589844 70.554688 70.066406 78.117188 C 70.503906 85.058594 75.332031 89.097656 76.703125 90.113281 L 78.425781 89.921875 C 76.5625 87.796875 73.671875 83.550781 73.476562 77.503906 C 73.28125 71.457031 75.894531 67.019531 77.613281 64.769531 Z M 120.570312 75.875 C 120.4375 71.773438 119.386719 68.121094 117.957031 66.78125 C 117.632812 66.480469 117.316406 66.328125 117.015625 66.339844 C 116.699219 66.351562 116.382812 66.527344 116.078125 66.851562 C 115.972656 66.964844 115.871094 67.101562 115.769531 67.25 C 116.058594 67.242188 116.5 67.324219 116.960938 67.753906 C 118.195312 68.910156 119.070312 72.117188 119.195312 75.925781 C 119.203125 76.265625 119.207031 76.601562 119.203125 76.941406 C 119.207031 76.941406 119.207031 76.945312 119.207031 76.949219 C 119.207031 76.949219 119.203125 76.953125 119.203125 76.957031 C 119.183594 80.054688 118.613281 83.019531 117.476562 84.234375 C 117.144531 84.589844 116.769531 84.792969 116.34375 84.8125 C 116.453125 84.953125 116.570312 85.082031 116.6875 85.191406 C 117.011719 85.496094 117.328125 85.644531 117.628906 85.636719 C 119.167969 85.582031 120.753906 81.558594 120.570312 75.875 Z M 91.898438 99.339844 L 92.140625 99.328125 C 91.777344 98.683594 91.554688 97.820312 91.523438 96.867188 C 91.492188 95.886719 91.667969 95.023438 91.988281 94.367188 L 91.742188 94.375 C 91.191406 94.394531 90.609375 95.480469 90.65625 96.898438 C 90.6875 97.835938 90.996094 98.707031 91.441406 99.125 C 91.597656 99.269531 91.75 99.34375 91.898438 99.339844 Z M 94.59375 96.757812 C 94.554688 95.617188 94.191406 94.777344 93.84375 94.453125 C 93.773438 94.386719 93.667969 94.308594 93.570312 94.3125 C 93.492188 94.316406 93.402344 94.371094 93.3125 94.46875 C 93.003906 94.796875 92.664062 95.644531 92.703125 96.828125 C 92.742188 97.972656 93.105469 98.8125 93.453125 99.136719 C 93.523438 99.203125 93.628906 99.277344 93.726562 99.277344 C 94.058594 99.265625 94.644531 98.300781 94.59375 96.757812 Z M 91.621094 115.878906 L 91.121094 100.324219 C 90.953125 100.238281 90.785156 100.132812 90.632812 99.988281 C 89.949219 99.347656 89.515625 98.207031 89.472656 96.9375 C 89.425781 95.433594 89.941406 94.160156 90.734375 93.558594 L 88.988281 89.957031 L 85.84375 90.300781 L 87.972656 94.699219 C 88.007812 94.777344 88.027344 94.855469 88.03125 94.941406 L 88.730469 116.707031 Z M 87.148438 120.078125 C 87.144531 119.921875 87.210938 119.753906 87.3125 119.652344 C 87.421875 119.535156 87.574219 119.472656 87.730469 119.46875 C 88.890625 119.457031 89.632812 118.757812 89.832031 118.542969 C 89.832031 118.542969 89.835938 118.542969 89.835938 118.542969 C 90.171875 118.183594 90.355469 117.792969 90.46875 117.4375 L 88.328125 118.050781 C 88.320312 118.054688 88.3125 118.050781 88.304688 118.054688 C 88.230469 118.070312 88.15625 118.082031 88.074219 118.066406 L 81.601562 117.085938 C 81.683594 117.5625 81.898438 118.261719 82.476562 118.800781 C 82.6875 119 83.472656 119.644531 84.628906 119.578125 C 84.789062 119.566406 84.945312 119.625 85.0625 119.730469 C 85.183594 119.839844 85.25 119.988281 85.257812 120.148438 L 85.304688 121.605469 L 87.195312 121.539062 Z M 79.175781 127.953125 C 79.628906 128.042969 80.117188 128.082031 80.625 128.0625 C 82.421875 128 84.09375 127.273438 85.164062 126.089844 C 86.140625 125.015625 86.5 123.695312 86.632812 122.742188 L 85.769531 122.769531 C 85.640625 123.613281 85.316406 124.640625 84.523438 125.507812 C 84.511719 125.523438 84.496094 125.539062 84.484375 125.554688 C 83.089844 127.039062 80.855469 127.402344 79.347656 127.105469 C 77.710938 126.78125 76.042969 125.414062 74.773438 123.351562 C 72.722656 120.027344 72.035156 115.566406 73.027344 111.984375 C 74.078125 108.171875 76.765625 105.710938 78.949219 104.273438 L 78.914062 103.269531 C 76.78125 104.589844 73.425781 107.292969 72.191406 111.757812 C 71.125 115.621094 71.832031 120.238281 74.035156 123.8125 C 75.449219 126.109375 77.277344 127.578125 79.175781 127.953125 Z M 79.175781 127.953125 " fill-opacity="1" fill-rule="nonzero"/></g></g></g></g></svg>