<svg xmlns="http://www.w3.org/2000/svg" xmlns:xlink="http://www.w3.org/1999/xlink" width="250" zoomAndPan="magnify" viewBox="0 0 187.5 187.499992" height="250" preserveAspectRatio="xMidYMid meet" version="1.0"><defs><clipPath id="de51fca1c5"><path d="M 28.050781 28.640625 L 158.949219 28.640625 L 158.949219 158.011719 L 28.050781 158.011719 Z M 28.050781 28.640625 " clip-rule="nonzero"/></clipPath></defs><g clip-path="url(#de51fca1c5)"><path fill="#2b2b2b" d="M 54.914062 55.496094 L 32.542969 44.140625 C 28.5 42.089844 26.886719 37.148438 28.945312 33.117188 C 31.003906 29.085938 35.953125 27.480469 39.996094 29.53125 L 69.808594 44.664062 C 69.855469 44.625 69.910156 44.589844 69.972656 44.566406 C 70.875 44.195312 72.246094 43.5 73.539062 42.980469 C 74.128906 42.742188 74.699219 42.542969 75.210938 42.417969 C 76.082031 42.199219 76.964844 42.183594 77.839844 42.277344 C 79.65625 42.476562 81.457031 43.195312 83.132812 43.464844 C 83.511719 43.058594 83.917969 42.6875 84.347656 42.359375 C 84.582031 42.179688 86.25 38.921875 87.007812 37.78125 C 87.886719 36.46875 89.074219 34.222656 90.285156 33.484375 C 91.648438 32.65625 93.3125 32.484375 95.519531 33.238281 C 97.273438 33.933594 98.851562 35.171875 99.6875 36.984375 C 100.355469 38.429688 100.59375 40.238281 100.015625 42.417969 C 99.855469 43.007812 99.671875 43.628906 99.46875 44.273438 C 99.609375 44.414062 99.714844 44.589844 99.769531 44.796875 C 99.890625 45.285156 99.996094 45.777344 100.082031 46.273438 C 100.167969 46.777344 100.234375 47.28125 100.269531 47.800781 C 100.355469 48.941406 100.355469 50.160156 100.285156 51.433594 C 102.730469 53.085938 106.828125 55.53125 110.136719 57.824219 C 111.839844 59 113.335938 60.140625 114.3125 61.117188 C 115.789062 62.589844 115.96875 64.082031 115.578125 65.234375 C 115.300781 66.058594 114.714844 66.710938 114.03125 67.109375 L 133.644531 77.066406 C 133.878906 76.605469 134.171875 76.253906 134.363281 76.148438 C 134.558594 76.042969 134.789062 76.039062 134.988281 76.140625 L 153.507812 85.539062 C 158.410156 88.027344 160.363281 94.015625 157.867188 98.902344 C 156.8125 100.96875 155.910156 104.894531 155.148438 109.582031 C 153.335938 120.683594 152.359375 136.015625 152.359375 141.503906 C 152.359375 145.410156 152.777344 149.300781 153.605469 153.113281 C 153.667969 153.390625 153.699219 153.679688 153.699219 153.976562 C 153.699219 156.179688 151.925781 157.972656 149.726562 158.007812 L 149.71875 158.007812 L 149.703125 158.011719 C 149.703125 158.011719 149.695312 158.011719 149.695312 158.011719 L 149.683594 158.011719 C 149.683594 158.011719 149.683594 158.011719 149.6875 158.011719 L 149.632812 158.011719 C 147.410156 158 145.605469 156.195312 145.605469 153.976562 C 145.605469 153.6875 145.636719 153.40625 145.695312 153.132812 C 146.507812 149.351562 146.921875 147.9375 146.921875 144.074219 C 146.921875 139.378906 146.964844 129.5625 146.964844 120.511719 C 146.964844 114.886719 146.082031 110.742188 144.203125 107.394531 C 141.367188 102.339844 136.285156 99.101562 128.703125 95.253906 C 122.300781 92.003906 122.300781 92.003906 122.300781 92.003906 C 122.066406 91.882812 121.921875 91.640625 121.933594 91.378906 C 121.945312 91.117188 122.011719 90.261719 122.300781 89.699219 L 110.746094 83.835938 C 110.582031 84.238281 110.332031 84.742188 110.011719 85.324219 C 111.808594 86.785156 113.046875 89.707031 113.539062 92.828125 C 114.007812 95.792969 113.8125 98.921875 112.898438 101.054688 C 112.683594 101.558594 112.292969 102.152344 111.773438 102.800781 C 112.125 103.441406 112.363281 103.960938 112.546875 104.472656 C 112.847656 105.296875 113 106.089844 113.246094 107.320312 C 113.667969 109.410156 112.152344 112.441406 109.820312 115.28125 C 106.695312 119.085938 102.191406 122.566406 99.703125 123.097656 C 99.328125 123.175781 97.5 124.703125 96.300781 124.390625 C 95.699219 124.234375 95.128906 123.875 94.640625 123.4375 C 93.867188 122.746094 93.289062 121.882812 93.074219 121.40625 C 92.757812 120.59375 92.582031 119.71875 92.746094 118.894531 C 92.828125 118.480469 92.964844 118.078125 93.175781 117.722656 C 93.132812 117.703125 93.089844 117.679688 93.046875 117.65625 C 92.601562 117.359375 92.203125 117.0625 91.851562 116.761719 C 91.476562 116.445312 88.1875 122.769531 86.933594 124.703125 C 86.449219 125.453125 85.941406 126.105469 85.480469 126.589844 C 85.414062 127.304688 85.207031 128.117188 84.894531 128.980469 C 84.269531 130.71875 83.214844 132.695312 82.4375 134.507812 C 79.992188 140.003906 76.933594 144.082031 73.605469 147.058594 C 69.203125 150.996094 64.371094 153.007812 60.039062 153.925781 C 59.859375 153.96875 59.679688 153.859375 59.636719 153.683594 C 59.59375 153.503906 59.703125 153.324219 59.882812 153.28125 C 64 152.164062 68.519531 149.957031 72.566406 145.957031 C 75.582031 142.972656 78.332031 138.988281 80.417969 133.667969 C 81.148438 131.875 82.109375 129.90625 82.726562 128.199219 C 83.015625 127.410156 83.464844 125.761719 83.40625 125.550781 C 83.304688 125.175781 83.097656 124.695312 82.859375 124.15625 C 82.464844 123.28125 81.933594 122.289062 81.417969 121.304688 C 81.070312 120.644531 80.75 119.984375 80.421875 119.386719 C 79.945312 118.488281 79.371094 117.597656 78.753906 116.796875 C 78.582031 116.570312 78.417969 116.351562 78.230469 116.148438 C 77.9375 115.832031 77.617188 115.558594 77.320312 115.308594 C 77.179688 115.191406 77.160156 114.980469 77.28125 114.839844 C 77.398438 114.699219 77.609375 114.679688 77.75 114.800781 C 78.0625 115.058594 78.371094 115.363281 78.710938 115.667969 C 79.175781 116.082031 79.679688 116.5 80.15625 116.972656 C 80.679688 117.488281 81.171875 118.039062 81.625 118.601562 C 82.082031 119.195312 82.582031 119.84375 83.035156 120.535156 C 83.488281 121.21875 83.898438 121.9375 84.257812 122.609375 C 84.503906 123.070312 84.894531 123.941406 85.242188 123.5 C 86.65625 121.703125 88.242188 119.453125 88.867188 118.558594 C 90.671875 115.984375 90.566406 115.425781 90.320312 115.003906 C 87.972656 111.003906 88.515625 107.21875 88.65625 106.144531 C 88.808594 104.980469 89.183594 103.84375 89.71875 102.722656 C 89.847656 102.449219 89.773438 101.722656 89.714844 101.246094 C 89.660156 100.808594 89.585938 100.339844 89.457031 99.902344 C 89.277344 99.273438 88.933594 98.472656 88.714844 98.441406 C 88.386719 98.390625 88.132812 98.105469 88.140625 97.765625 C 88.144531 97.472656 88.070312 97.019531 87.972656 96.570312 C 87.878906 96.109375 87.765625 95.652344 87.648438 95.359375 C 87.566406 95.101562 87.417969 94.828125 87.257812 94.554688 C 86.972656 94.074219 86.660156 93.605469 86.433594 93.265625 C 86.3125 93.128906 86.328125 92.917969 86.464844 92.796875 C 86.605469 92.675781 86.816406 92.6875 86.9375 92.828125 C 87.257812 93.109375 87.722656 93.480469 88.121094 93.910156 C 88.238281 94.035156 88.34375 94.164062 88.441406 94.296875 C 88.488281 94.300781 88.53125 94.3125 88.578125 94.328125 C 88.933594 94.441406 89.34375 94.472656 89.699219 94.398438 C 89.890625 94.359375 90.070312 94.285156 90.140625 94.121094 C 89.824219 93.167969 89.597656 92.160156 89.488281 91.15625 C 89.34375 89.777344 89.421875 88.414062 89.796875 87.230469 C 89.960938 86.707031 90.265625 86.085938 90.671875 85.40625 C 90.289062 85.546875 89.863281 85.667969 89.417969 85.761719 C 88.410156 85.972656 87.316406 86.097656 86.535156 86.164062 C 85.949219 86.234375 85.148438 86.332031 84.496094 86.265625 C 84.691406 86.601562 84.882812 86.949219 85.046875 87.296875 C 85.390625 88.015625 85.617188 88.730469 85.644531 89.296875 C 85.644531 89.597656 85.398438 89.84375 85.09375 89.84375 C 84.789062 89.84375 84.542969 89.597656 84.542969 89.296875 C 84.566406 88.84375 84.414062 88.257812 84.191406 87.65625 C 83.96875 87.042969 83.671875 86.421875 83.390625 85.890625 C 82.15625 87.386719 80.886719 88.910156 79.625 90.386719 C 77.425781 92.964844 75.253906 95.414062 73.359375 97.398438 C 73.847656 97.351562 74.296875 97.691406 74.375 98.179688 C 74.546875 98.875 74.734375 99.550781 74.847656 100.234375 C 75.335938 103.152344 75.355469 105.957031 75.285156 108.652344 C 75.191406 112.246094 74.722656 115.675781 73.921875 119.09375 C 73.121094 122.429688 71.6875 126.554688 70.132812 130.421875 C 68.324219 134.921875 66.363281 139.070312 65.132812 141.214844 C 65.125 141.226562 65.121094 141.234375 65.113281 141.246094 C 65.105469 141.253906 65.097656 141.265625 65.089844 141.273438 C 60.71875 146.585938 53.179688 148.699219 46.007812 142.773438 C 40.773438 138.449219 35.71875 129.773438 32.300781 114.769531 C 31.171875 109.808594 30.167969 105.304688 30.019531 100.507812 C 29.882812 96.15625 30.441406 91.570312 32.242188 86.195312 C 34.589844 79.191406 37.453125 73.671875 41.148438 68.8125 C 44.808594 63.996094 49.292969 59.824219 54.914062 55.496094 Z M 149.675781 156.679688 L 149.679688 156.679688 C 149.679688 156.679688 149.691406 156.679688 149.6875 156.679688 L 149.703125 156.675781 C 151.175781 156.652344 152.363281 155.449219 152.363281 153.976562 C 152.363281 153.78125 152.34375 153.585938 152.300781 153.398438 C 151.449219 149.492188 151.023438 145.503906 151.023438 141.503906 C 151.023438 135.976562 152.007812 120.542969 153.828125 109.367188 C 154.621094 104.507812 155.582031 100.441406 156.679688 98.300781 C 158.839844 94.066406 157.144531 88.878906 152.902344 86.726562 L 135.210938 77.746094 C 134.203125 83.007812 129.148438 88.855469 124.132812 91.4375 L 129.3125 94.066406 C 137.1875 98.0625 142.421875 101.492188 145.367188 106.742188 C 147.34375 110.261719 148.300781 114.605469 148.300781 120.511719 C 148.300781 129.5625 148.257812 139.378906 148.257812 144.074219 C 148.257812 148.054688 147.839844 149.515625 147.003906 153.410156 C 146.964844 153.59375 146.941406 153.78125 146.941406 153.976562 C 146.941406 155.464844 148.152344 156.671875 149.640625 156.679688 L 149.652344 156.679688 C 149.652344 156.679688 149.671875 156.679688 149.667969 156.679688 L 149.675781 156.679688 C 149.679688 156.679688 149.675781 156.679688 149.675781 156.679688 Z M 83.0625 45.652344 C 82.410156 46.546875 81.847656 47.503906 81.347656 48.375 C 80.539062 49.785156 79.8125 51.238281 79.121094 52.707031 C 77.492188 56.179688 76.0625 59.757812 74.269531 63.152344 C 73.921875 63.8125 75.65625 65.144531 76.820312 65.996094 C 78.0625 66.90625 79.414062 67.664062 80.296875 67.917969 C 80.476562 67.957031 80.589844 68.136719 80.546875 68.316406 C 80.503906 68.496094 80.328125 68.609375 80.148438 68.566406 C 79.007812 68.367188 77.09375 67.515625 75.484375 66.480469 C 74.761719 66.015625 74.113281 65.507812 73.605469 65.003906 C 72.664062 64.0625 72.5 64.6875 72.5 64.6875 C 71.9375 65.691406 70.753906 67.957031 68.925781 70.425781 C 68.535156 70.953125 65.578125 74.214844 64.363281 75.230469 C 62.875 76.476562 61.066406 77.832031 59.113281 78.972656 C 57.5 79.910156 55.820312 80.726562 54.246094 81.328125 C 52.054688 82.167969 50.050781 82.5625 48.707031 82.421875 C 48.238281 82.371094 47.898438 81.949219 47.949219 81.480469 C 48 81.015625 48.425781 80.675781 48.894531 80.726562 C 50.476562 80.914062 53.054688 80.097656 55.804688 78.960938 C 57.316406 78.335938 58.886719 77.636719 60.347656 76.851562 C 60.945312 76.527344 61.339844 75.929688 61.402344 75.253906 C 61.460938 74.578125 61.175781 73.917969 60.644531 73.496094 C 58.851562 72.109375 56.5625 70.351562 54.617188 68.808594 C 53.078125 67.585938 51.753906 66.5 51.058594 65.828125 C 50.921875 65.707031 50.914062 65.496094 51.039062 65.359375 C 51.164062 65.222656 51.375 65.214844 51.511719 65.339844 C 52.226562 65.964844 53.578125 66.972656 55.152344 68.105469 C 56.417969 69.015625 58.9375 70.648438 58.832031 70.503906 C 57.402344 68.539062 56.210938 66.421875 55.824219 64.839844 C 55.773438 64.664062 55.875 64.476562 56.054688 64.425781 C 56.230469 64.375 56.414062 64.476562 56.464844 64.65625 C 56.957031 66.121094 58.253906 68.027344 59.757812 69.769531 C 61.039062 71.253906 62.660156 72.746094 63.292969 72.773438 C 63.925781 72.796875 63.683594 71.300781 63.546875 69.917969 C 63.425781 68.632812 63.328125 67.246094 63.292969 65.929688 C 63.257812 64.652344 63.296875 63.441406 63.566406 62.4375 C 63.605469 62.257812 63.785156 62.148438 63.964844 62.1875 C 64.144531 62.226562 64.257812 62.40625 64.21875 62.585938 C 64.089844 63.238281 64.054688 63.972656 64.105469 64.757812 C 64.195312 66.175781 64.578125 67.710938 64.828125 69.179688 C 65.054688 70.496094 65.148438 71.464844 65.652344 71.542969 C 66.15625 71.617188 67.082031 70.671875 67.851562 69.636719 C 69.632812 67.226562 70.785156 65.015625 71.332031 64.039062 C 71.363281 63.984375 71.394531 63.929688 71.429688 63.878906 L 56.175781 56.136719 C 56.136719 56.191406 56.089844 56.242188 56.03125 56.285156 C 50.332031 60.597656 45.800781 64.734375 42.105469 69.539062 C 38.457031 74.289062 35.625 79.6875 33.285156 86.546875 C 31.503906 91.773438 30.929688 96.238281 31.042969 100.476562 C 31.164062 105.210938 32.136719 109.660156 33.226562 114.5625 C 36.503906 129.328125 41.386719 137.898438 46.507812 142.175781 C 53.253906 147.8125 60.386719 145.859375 64.558594 140.871094 C 65.679688 138.691406 67.414062 134.511719 69.007812 129.996094 C 70.367188 126.140625 71.625 122.042969 72.273438 118.734375 C 72.945312 115.417969 73.277344 112.09375 73.269531 108.628906 C 73.265625 106.03125 72.945312 103.363281 72.664062 100.523438 C 72.597656 99.851562 72.582031 99.175781 72.523438 98.480469 C 72.511719 98.410156 72.507812 98.34375 72.511719 98.273438 C 71.484375 99.320312 70.554688 100.199219 69.777344 100.847656 C 69.636719 100.964844 69.425781 100.949219 69.304688 100.808594 C 69.1875 100.667969 69.203125 100.460938 69.34375 100.339844 C 71.625 98.34375 75.195312 94.222656 78.835938 89.734375 C 84.519531 82.726562 90.375 74.824219 91.78125 72.707031 C 93.84375 69.597656 95.589844 65.257812 96.738281 60.765625 C 97.855469 56.390625 98.398438 51.871094 98.074219 48.195312 C 97.609375 49.375 97.125 50.492188 96.664062 51.445312 C 95.359375 54.148438 94.34375 55.890625 93.492188 56.925781 C 92.738281 57.839844 92.089844 58.234375 91.496094 58.285156 C 90.671875 58.351562 87.203125 57.246094 85.570312 56.320312 C 83.976562 55.421875 81.457031 53.832031 81.179688 52.429688 C 80.878906 50.898438 81.6875 49.246094 82.21875 47.789062 C 82.480469 47.078125 82.765625 46.359375 83.0625 45.652344 Z M 97.761719 122.636719 C 98.296875 122.097656 99.066406 121.53125 99.78125 120.894531 C 100.90625 119.894531 102.015625 118.863281 102.554688 118.304688 C 103.015625 117.828125 103.476562 117.386719 103.832031 116.929688 C 104.066406 116.628906 104.25 116.324219 104.335938 115.984375 C 104.476562 115.425781 104.378906 114.859375 104.1875 114.347656 C 103.953125 113.726562 103.582031 113.179688 103.269531 112.804688 C 103.066406 112.5625 102.882812 112.414062 102.695312 112.332031 C 102.457031 112.230469 102.21875 112.238281 101.96875 112.257812 C 101.839844 112.269531 101.71875 112.3125 101.597656 112.363281 C 101.363281 112.472656 101.144531 112.625 100.9375 112.761719 C 100.554688 113.007812 99.085938 114.148438 97.621094 115.316406 C 96.304688 116.371094 94.992188 117.445312 94.484375 117.914062 C 94.289062 118.097656 94.070312 118.554688 94.070312 119.09375 C 94.070312 120.894531 96.484375 123.910156 97.761719 122.636719 Z M 110.835938 103.882812 C 110.566406 104.175781 110.28125 104.476562 109.976562 104.777344 C 107.734375 107.019531 104.6875 109.511719 102.480469 111.261719 C 102.683594 111.28125 102.886719 111.328125 103.09375 111.417969 C 103.398438 111.546875 103.710938 111.773438 104.039062 112.164062 C 104.480469 112.695312 105.011719 113.507812 105.257812 114.414062 C 105.417969 114.996094 105.460938 115.613281 105.308594 116.226562 C 105.191406 116.695312 104.949219 117.125 104.625 117.542969 C 104.25 118.027344 103.765625 118.492188 103.277344 119 C 102.800781 119.492188 101.886719 120.347656 100.90625 121.230469 C 102.828125 120.253906 105.304688 118.238281 107.441406 115.964844 C 110.152344 113.078125 112.382812 109.789062 111.9375 107.582031 C 111.75 106.644531 111.621094 105.972656 111.429688 105.339844 C 111.285156 104.867188 111.105469 104.417969 110.835938 103.882812 Z M 94.070312 115.378906 C 95.519531 116.273438 103.59375 108.714844 104.503906 107.582031 C 105.042969 106.910156 105 106.378906 105.023438 105.699219 C 105.039062 105.246094 104.992188 104.8125 104.910156 104.417969 C 104.816406 103.960938 104.667969 103.546875 104.503906 103.199219 C 104.183594 102.523438 103.480469 101.820312 102.664062 101.367188 C 101.902344 100.949219 101.03125 100.738281 100.273438 101.054688 C 99.839844 101.234375 99.378906 101.457031 98.898438 101.753906 C 98.496094 102 98.078125 102.296875 97.652344 102.664062 C 97.652344 102.664062 93.253906 106.246094 92.167969 107.328125 C 90.726562 108.765625 90.738281 110.15625 90.988281 111.144531 C 91.238281 112.132812 91.605469 112.964844 92.203125 113.746094 C 92.648438 114.328125 93.238281 114.867188 94.070312 115.378906 Z M 92.28125 100.921875 C 91.351562 102.328125 90.609375 103.722656 90.214844 105.167969 C 89.898438 106.328125 89.8125 107.519531 90.050781 108.765625 C 90.214844 108.101562 90.347656 107.5625 91.292969 106.757812 C 95.46875 103.207031 95.46875 103.207031 95.46875 103.207031 C 95.34375 103.203125 95.234375 103.183594 95.144531 103.140625 C 94.296875 102.742188 93.277344 102.078125 92.769531 101.503906 C 92.597656 101.308594 92.433594 101.117188 92.28125 100.921875 Z M 109.335938 86.5 C 108.988281 87.078125 107.984375 89.277344 107.621094 89.878906 C 106.714844 91.367188 104.476562 94.371094 102.351562 96.976562 C 101.273438 98.300781 100.203125 99.503906 99.328125 100.382812 C 99.519531 100.292969 99.703125 100.207031 99.886719 100.132812 C 100.917969 99.699219 102.113281 99.921875 103.148438 100.496094 C 104.160156 101.054688 105.015625 101.9375 105.410156 102.773438 C 105.605469 103.183594 105.777344 103.671875 105.890625 104.214844 C 105.988281 104.683594 106.042969 105.195312 106.023438 105.730469 C 106.011719 106.09375 105.9375 106.445312 105.792969 106.8125 C 106.535156 106.171875 107.273438 105.515625 107.964844 104.863281 C 109.71875 103.226562 111.191406 101.65625 111.671875 100.53125 C 112.503906 98.585938 112.648438 95.738281 112.21875 93.035156 C 111.796875 90.371094 110.832031 87.832031 109.335938 86.5 Z M 92.390625 97.398438 C 93.101562 99.097656 95.941406 102.1875 98.101562 100.125 C 98.96875 99.296875 100.21875 97.871094 101.511719 96.292969 C 103.605469 93.738281 105.816406 90.785156 106.714844 89.328125 C 106.867188 89.078125 107.007812 88.792969 107.046875 88.707031 C 106.914062 87.757812 105.835938 86.816406 104.601562 86.160156 C 103.363281 85.503906 101.933594 85.128906 100.957031 85.476562 C 99.984375 85.820312 98.691406 86.84375 97.402344 88.015625 C 95.851562 89.421875 94.316406 91.050781 93.335938 92.109375 C 92.355469 93.164062 91.664062 95.65625 92.390625 97.398438 Z M 90.304688 99.082031 C 90.472656 99.355469 90.625 99.652344 90.753906 99.96875 C 90.828125 100.148438 90.871094 100.371094 90.894531 100.617188 C 91.082031 100.320312 91.277344 100.027344 91.476562 99.730469 C 91.355469 99.511719 91.246094 99.296875 91.148438 99.085938 C 90.882812 99.128906 90.597656 99.128906 90.304688 99.082031 Z M 146.425781 99.875 C 148.582031 100.972656 151.066406 100.742188 152.949219 99.492188 C 153.253906 99.289062 153.335938 98.875 153.132812 98.566406 C 152.929688 98.261719 152.515625 98.179688 152.207031 98.382812 C 150.714844 99.375 148.742188 99.558594 147.03125 98.6875 C 146.703125 98.523438 146.300781 98.652344 146.132812 98.980469 C 145.964844 99.308594 146.097656 99.710938 146.425781 99.875 Z M 90.613281 95.554688 C 90.53125 95.59375 90.449219 95.628906 90.359375 95.65625 C 89.996094 95.78125 89.566406 95.828125 89.140625 95.796875 C 89.183594 95.953125 89.230469 96.113281 89.269531 96.273438 C 89.351562 96.609375 89.414062 96.945312 89.449219 97.238281 C 89.683594 97.449219 89.972656 97.613281 90.265625 97.703125 C 90.417969 97.753906 90.570312 97.789062 90.714844 97.796875 C 90.609375 97.339844 90.5625 96.894531 90.558594 96.464844 C 90.554688 96.152344 90.574219 95.847656 90.613281 95.554688 Z M 98.28125 77.507812 C 96.925781 79.339844 94.613281 82.039062 92.929688 84.40625 C 92.050781 85.640625 91.339844 86.773438 91.070312 87.628906 C 90.75 88.648438 90.691406 89.824219 90.816406 91.015625 C 90.902344 91.789062 91.0625 92.570312 91.289062 93.320312 C 91.539062 92.109375 95.078125 88.753906 96.710938 87.261719 C 98.121094 85.976562 99.546875 84.882812 100.609375 84.503906 C 101.800781 84.078125 103.574219 84.4375 105.09375 85.238281 C 106.152344 85.796875 107.066406 86.566406 107.605469 87.378906 C 108.148438 86.535156 108.628906 85.746094 109.015625 85.058594 C 109.394531 84.382812 109.683594 83.804688 109.847656 83.378906 Z M 98.6875 60.808594 C 98.648438 60.957031 98.605469 61.105469 98.566406 61.253906 C 97.273438 65.835938 95.367188 70.246094 93.179688 73.425781 L 124.847656 89.5 C 128.746094 87.046875 132.433594 82.703125 133.644531 78.5625 L 98.765625 60.855469 C 98.738281 60.84375 98.710938 60.828125 98.6875 60.808594 Z M 92.390625 74.519531 C 90.882812 76.550781 87.84375 80.445312 84.386719 84.679688 C 84.4375 84.703125 84.507812 84.699219 84.582031 84.707031 C 84.785156 84.730469 85.011719 84.71875 85.238281 84.691406 C 85.605469 84.640625 85.964844 84.539062 86.261719 84.472656 C 86.964844 84.304688 87.9375 84.046875 88.828125 83.71875 C 89.273438 83.554688 89.683594 83.363281 90.007812 83.152344 C 89.730469 82.691406 89.472656 82.191406 89.289062 81.664062 C 89.007812 80.863281 88.871094 80.035156 88.933594 79.261719 C 88.933594 79.078125 89.082031 78.929688 89.265625 78.925781 C 89.449219 78.925781 89.601562 79.070312 89.601562 79.253906 C 89.664062 79.789062 89.910156 80.300781 90.109375 80.847656 C 90.351562 81.511719 91.257812 82.835938 91.921875 83.519531 C 93.550781 81.25 95.726562 78.695312 97.074219 76.894531 Z M 82.398438 71.542969 C 81.941406 71.617188 80.035156 71.3125 78.078125 70.476562 C 76.722656 69.902344 75.355469 69.050781 74.402344 67.976562 C 74.222656 67.78125 73.917969 67.773438 73.722656 67.953125 C 73.53125 68.136719 73.523438 68.4375 73.703125 68.632812 C 74.804688 69.726562 76.34375 70.515625 77.828125 71.089844 C 79.972656 71.925781 82.011719 72.28125 82.511719 72.199219 C 82.691406 72.167969 82.816406 71.996094 82.785156 71.816406 C 82.753906 71.636719 82.582031 71.511719 82.398438 71.542969 Z M 84.675781 70.15625 C 84.320312 69.324219 83.992188 68.652344 83.628906 68.011719 C 83.253906 67.351562 82.839844 66.726562 82.261719 66.019531 C 81.578125 65.097656 80.746094 64.109375 79.730469 63.433594 C 78.992188 62.941406 78.15625 62.648438 77.285156 62.554688 C 76.878906 62.515625 76.519531 62.8125 76.484375 63.21875 C 76.445312 63.621094 76.742188 63.980469 77.148438 64.019531 C 77.804688 64.070312 78.414062 64.328125 79 64.644531 C 79.96875 65.164062 80.875 65.859375 81.617188 66.582031 C 82.207031 67.210938 82.65625 67.757812 83.035156 68.363281 C 83.410156 68.964844 83.714844 69.621094 84.0625 70.421875 C 84.136719 70.589844 84.332031 70.667969 84.503906 70.597656 C 84.671875 70.523438 84.75 70.328125 84.675781 70.15625 Z M 100.167969 52.957031 C 99.957031 55.101562 99.558594 57.355469 99.003906 59.601562 C 99.125 59.589844 99.253906 59.609375 99.371094 59.667969 L 112.117188 66.140625 C 112.144531 66.144531 112.167969 66.152344 112.195312 66.160156 C 112.980469 66.441406 113.984375 65.777344 114.3125 64.808594 C 114.578125 64.03125 114.363281 63.050781 113.367188 62.058594 C 112.433594 61.128906 111 60.042969 109.375 58.917969 C 106.34375 56.816406 102.644531 54.585938 100.167969 52.957031 Z M 78.636719 50.640625 L 39.390625 30.71875 C 36.003906 29 31.859375 30.347656 30.136719 33.722656 C 28.414062 37.097656 29.761719 41.234375 33.148438 42.953125 L 72.324219 62.835938 C 72.601562 62.574219 72.890625 62.324219 73.152344 62.050781 C 73.230469 61.96875 76.394531 55.375 77.910156 52.140625 C 78.148438 51.640625 78.390625 51.136719 78.636719 50.640625 Z M 91.160156 57.25 C 91.78125 57.445312 92.324219 57.066406 92.792969 56.394531 C 93.527344 55.34375 94.363281 53.59375 95.410156 50.898438 C 95.902344 49.628906 96.410156 48.066406 96.871094 46.46875 C 97.320312 44.910156 97.714844 43.324219 97.980469 41.953125 C 98.289062 40.359375 98.070312 39.070312 97.527344 38.058594 C 96.894531 36.886719 95.785156 36.144531 94.59375 35.746094 C 93.3125 35.242188 91.78125 35.113281 90.558594 35.746094 C 90.050781 36.003906 88.933594 37.382812 86.390625 42.074219 C 85.46875 43.78125 84.273438 46.023438 83.351562 48.230469 C 82.792969 49.570312 82.03125 50.988281 82.511719 52.140625 C 82.988281 53.296875 84.773438 54.339844 86.230469 55.164062 C 87.78125 56.039062 89.421875 56.707031 91.160156 57.25 Z M 82.160156 44.628906 C 80.726562 44.304688 79.214844 43.769531 77.695312 43.601562 C 76.972656 43.523438 76.25 43.53125 75.53125 43.710938 C 75.074219 43.820312 74.5625 44.003906 74.039062 44.214844 C 73.105469 44.589844 72.125 45.058594 71.316406 45.429688 L 79.238281 49.449219 C 79.542969 48.867188 79.859375 48.289062 80.1875 47.714844 C 80.757812 46.722656 81.402344 45.632812 82.160156 44.628906 " fill-opacity="1" fill-rule="evenodd"/></g></svg>