<svg xmlns="http://www.w3.org/2000/svg" xmlns:xlink="http://www.w3.org/1999/xlink" width="250" zoomAndPan="magnify" viewBox="0 0 187.5 187.499992" height="250" preserveAspectRatio="xMidYMid meet" version="1.0"><defs><clipPath id="2d881e6b71"><path d="M 76 103 L 83 103 L 83 117 L 76 117 Z M 76 103 " clip-rule="nonzero"/></clipPath><clipPath id="727188d719"><path d="M 21.289062 100.976562 L 93.851562 23.410156 L 165.957031 90.859375 L 93.394531 168.429688 Z M 21.289062 100.976562 " clip-rule="nonzero"/></clipPath><clipPath id="0a1995f93e"><path d="M 93.746094 23.519531 L 21.1875 101.089844 L 93.292969 168.539062 L 165.851562 90.972656 Z M 93.746094 23.519531 " clip-rule="nonzero"/></clipPath><clipPath id="597be2d8bc"><path d="M 93.746094 23.519531 L 21.1875 101.089844 L 93.292969 168.539062 L 165.851562 90.972656 Z M 93.746094 23.519531 " clip-rule="nonzero"/></clipPath><clipPath id="0f142e026d"><path d="M 58 53 L 134 53 L 134 147 L 58 147 Z M 58 53 " clip-rule="nonzero"/></clipPath><clipPath id="6539a60635"><path d="M 21.289062 100.976562 L 93.851562 23.410156 L 165.957031 90.859375 L 93.394531 168.429688 Z M 21.289062 100.976562 " clip-rule="nonzero"/></clipPath><clipPath id="a42bb57995"><path d="M 93.746094 23.519531 L 21.1875 101.089844 L 93.292969 168.539062 L 165.851562 90.972656 Z M 93.746094 23.519531 " clip-rule="nonzero"/></clipPath><clipPath id="0c1995e4f0"><path d="M 93.746094 23.519531 L 21.1875 101.089844 L 93.292969 168.539062 L 165.851562 90.972656 Z M 93.746094 23.519531 " clip-rule="nonzero"/></clipPath></defs><g clip-path="url(#2d881e6b71)"><g clip-path="url(#727188d719)"><g clip-path="url(#0a1995f93e)"><g clip-path="url(#597be2d8bc)"><path fill="#000000" d="M 82.570312 113.433594 C 82.597656 114.261719 82.285156 115.03125 81.753906 115.59375 C 81.226562 116.160156 80.484375 116.523438 79.652344 116.554688 C 78.84375 116.582031 78.074219 116.292969 77.488281 115.742188 C 76.898438 115.191406 76.558594 114.445312 76.53125 113.636719 L 76.300781 106.367188 C 76.25 104.703125 77.558594 103.304688 79.222656 103.246094 C 80.027344 103.21875 80.796875 103.507812 81.386719 104.058594 C 81.976562 104.609375 82.3125 105.355469 82.339844 106.164062 Z M 78.632812 114.515625 C 78.894531 114.761719 79.234375 114.886719 79.59375 114.875 C 80.332031 114.847656 80.917969 114.226562 80.894531 113.484375 L 80.804688 110.691406 L 78.121094 110.785156 L 78.210938 113.582031 C 78.222656 113.941406 78.371094 114.273438 78.632812 114.515625 Z M 79.28125 104.925781 C 78.910156 104.9375 78.578125 105.101562 78.34375 105.351562 C 78.109375 105.605469 77.96875 105.945312 77.980469 106.316406 L 78.070312 109.109375 L 80.75 109.015625 L 80.660156 106.21875 C 80.648438 105.859375 80.5 105.527344 80.238281 105.285156 C 79.980469 105.039062 79.636719 104.910156 79.28125 104.925781 Z M 79.28125 104.925781 " fill-opacity="1" fill-rule="nonzero"/></g></g></g></g><g clip-path="url(#0f142e026d)"><g clip-path="url(#6539a60635)"><g clip-path="url(#a42bb57995)"><g clip-path="url(#0c1995e4f0)"><path fill="#000000" d="M 64.410156 139.914062 C 61.046875 134.460938 59.972656 127.394531 61.609375 121.476562 C 63.625 114.175781 69.277344 109.957031 72.464844 108.09375 C 72.492188 108.078125 72.523438 108.0625 72.554688 108.050781 L 72.714844 107.976562 L 72.460938 99.953125 C 72.457031 99.863281 72.46875 99.773438 72.492188 99.6875 L 73.726562 95.542969 L 72.621094 92.550781 L 69.5 92.894531 C 69.296875 92.914062 69.09375 92.863281 68.925781 92.746094 C 67.3125 91.609375 59.238281 85.378906 58.542969 74.269531 C 57.777344 62.023438 66.65625 54.441406 67.675781 53.613281 C 67.832031 53.484375 68.03125 53.417969 68.234375 53.425781 L 126.875 55.753906 C 126.886719 55.753906 126.894531 55.757812 126.902344 55.757812 C 127.761719 55.753906 128.585938 56.109375 129.359375 56.832031 C 131.730469 59.050781 133.394531 64.578125 133.597656 70.910156 C 133.78125 76.648438 132.664062 82.707031 130.28125 85.257812 C 129.59375 85.996094 128.792969 86.429688 127.894531 86.488281 C 127.882812 86.488281 127.875 86.496094 127.863281 86.496094 L 88.851562 90.773438 L 91.164062 95.554688 L 93.523438 95.472656 C 93.523438 95.472656 93.523438 95.472656 93.527344 95.472656 C 94.089844 95.453125 94.640625 95.679688 95.113281 96.125 C 96.054688 97 96.648438 98.664062 96.710938 100.570312 C 96.773438 102.535156 96.257812 104.199219 95.398438 105.113281 C 94.964844 105.578125 94.441406 105.851562 93.859375 105.871094 L 91.789062 105.945312 L 91.84375 107.625 C 93.910156 108.066406 95.90625 108.722656 97.78125 109.601562 C 102.761719 111.941406 105.492188 115.117188 108.136719 118.191406 C 109.976562 120.328125 111.878906 122.539062 114.625 124.523438 C 117.839844 126.851562 121.695312 128.480469 126.082031 129.363281 C 126.539062 129.457031 126.832031 129.898438 126.742188 130.355469 C 126.707031 130.511719 126.632812 130.652344 126.53125 130.761719 C 126.339844 130.964844 126.046875 131.070312 125.753906 131.007812 C 121.125 130.074219 117.050781 128.351562 113.640625 125.882812 C 110.734375 123.78125 108.769531 121.496094 106.859375 119.277344 C 104.335938 116.34375 101.726562 113.308594 97.066406 111.121094 C 95.433594 110.351562 93.695312 109.765625 91.898438 109.355469 L 91.941406 110.628906 C 93.535156 111.019531 95.082031 111.550781 96.539062 112.234375 C 100.960938 114.3125 103.371094 117.113281 105.925781 120.085938 C 107.875 122.351562 109.890625 124.695312 112.914062 126.882812 C 116.46875 129.453125 120.703125 131.25 125.5 132.21875 C 125.953125 132.308594 126.25 132.75 126.15625 133.207031 C 126.125 133.363281 126.050781 133.503906 125.949219 133.613281 C 125.753906 133.816406 125.464844 133.921875 125.167969 133.863281 C 120.132812 132.84375 115.679688 130.953125 111.929688 128.242188 C 108.746094 125.9375 106.664062 123.519531 104.648438 121.175781 C 102.21875 118.347656 99.917969 115.675781 95.824219 113.753906 C 94.605469 113.179688 93.320312 112.71875 91.992188 112.367188 L 92.503906 128.363281 C 92.511719 128.589844 92.425781 128.804688 92.277344 128.964844 C 92.175781 129.070312 92.046875 129.152344 91.898438 129.195312 L 91.011719 129.453125 C 90.890625 130.355469 90.527344 131.59375 89.496094 132.695312 C 89.496094 132.695312 89.496094 132.699219 89.496094 132.699219 C 89.148438 133.070312 87.980469 134.175781 86.15625 134.472656 L 86.222656 136.585938 C 86.230469 136.816406 86.144531 137.03125 86 137.1875 C 85.855469 137.339844 85.652344 137.4375 85.425781 137.449219 C 85.230469 139.230469 84.601562 141.5 82.875 143.394531 C 82.847656 143.425781 82.820312 143.457031 82.792969 143.488281 C 80.949219 145.457031 78.210938 146.644531 75.253906 146.746094 C 74.40625 146.777344 73.582031 146.714844 72.808594 146.5625 C 69.652344 145.9375 66.667969 143.578125 64.410156 139.914062 Z M 80.1875 136.792969 L 80.121094 134.683594 C 78.285156 134.511719 77.050781 133.492188 76.679688 133.144531 C 75.265625 131.820312 74.933594 130.105469 74.859375 129.21875 L 74.078125 129.101562 C 73.675781 129.042969 73.375 128.703125 73.363281 128.300781 L 72.882812 113.292969 C 70.222656 115.226562 67.253906 118.265625 66.03125 122.695312 C 64.742188 127.347656 65.640625 133.164062 68.316406 137.503906 C 69.875 140.03125 71.839844 141.691406 73.707031 142.0625 C 75.402344 142.398438 77.90625 142.003906 79.445312 140.359375 C 79.457031 140.34375 79.472656 140.328125 79.488281 140.3125 C 80.261719 139.460938 80.628906 138.445312 80.796875 137.5625 C 80.671875 137.527344 80.550781 137.472656 80.453125 137.378906 C 80.289062 137.226562 80.195312 137.015625 80.1875 136.792969 Z M 75.398438 95.226562 C 75.460938 95.394531 75.46875 95.582031 75.417969 95.757812 L 74.140625 100.035156 L 75.019531 127.546875 L 85.03125 129.066406 L 84.046875 98.273438 L 80.839844 91.648438 L 74.339844 92.363281 Z M 124.972656 85.125 C 123.125 83.144531 121.75 79.125 121.230469 74.328125 C 121.226562 74.28125 121.222656 74.234375 121.214844 74.191406 C 121.191406 73.941406 121.164062 73.695312 121.144531 73.441406 C 121.128906 73.265625 121.117188 73.085938 121.101562 72.90625 C 121.101562 72.875 121.097656 72.84375 121.09375 72.808594 C 121.09375 72.804688 121.09375 72.804688 121.09375 72.796875 C 121.09375 72.796875 121.09375 72.792969 121.09375 72.789062 C 121.085938 72.667969 121.078125 72.550781 121.070312 72.429688 C 121.046875 72.070312 121.03125 71.707031 121.019531 71.34375 C 121.003906 70.917969 121 70.488281 121 70.0625 C 121 69.882812 121.007812 69.703125 121.007812 69.523438 C 121.011719 69.300781 121.015625 69.074219 121.023438 68.851562 C 121.035156 68.5625 121.050781 68.277344 121.066406 67.992188 C 121.066406 67.933594 121.070312 67.875 121.074219 67.816406 C 121.335938 63.5 122.335938 59.453125 124.0625 57.320312 L 73.027344 55.296875 C 70.847656 57.867188 66.449219 64.207031 66.738281 73.238281 C 67.027344 82.265625 71.816406 88.28125 74.152344 90.695312 Z M 128.285156 71.089844 C 128.261719 70.375 128.21875 69.6875 128.15625 69.027344 L 126.261719 69.09375 L 126.347656 71.777344 L 128.292969 71.707031 C 128.292969 71.503906 128.292969 71.300781 128.285156 71.089844 Z M 122.695312 71.289062 C 122.703125 71.5 122.722656 71.695312 122.730469 71.902344 L 124.671875 71.832031 L 124.585938 69.152344 L 122.6875 69.21875 C 122.683594 69.285156 122.683594 69.359375 122.683594 69.429688 C 122.679688 69.671875 122.675781 69.917969 122.675781 70.171875 C 122.679688 70.539062 122.683594 70.910156 122.695312 71.289062 Z M 124.863281 77.871094 L 123.589844 77.917969 C 123.992188 79.4375 124.476562 80.585938 124.972656 81.277344 Z M 124.808594 76.195312 L 124.726562 73.511719 L 122.847656 73.578125 C 122.941406 74.535156 123.070312 75.425781 123.222656 76.25 Z M 123.511719 63.144531 L 124.394531 63.113281 L 124.328125 61.144531 C 124.050781 61.601562 123.765625 62.273438 123.511719 63.144531 Z M 123.113281 64.835938 C 122.964844 65.632812 122.847656 66.539062 122.773438 67.535156 L 124.53125 67.472656 L 124.445312 64.789062 Z M 126.070312 63.054688 L 126.953125 63.023438 C 126.65625 62.195312 126.332031 61.558594 126.007812 61.105469 Z M 126.125 64.730469 L 126.210938 67.414062 L 127.96875 67.351562 C 127.828125 66.371094 127.644531 65.488281 127.445312 64.683594 Z M 126.402344 73.453125 L 126.488281 76.136719 L 128.085938 76.082031 C 128.183594 75.261719 128.253906 74.367188 128.285156 73.386719 Z M 126.542969 77.8125 L 126.652344 81.238281 C 127.070312 80.546875 127.503906 79.375 127.820312 77.769531 Z M 68.492188 55.117188 C 66.84375 56.53125 59.546875 63.425781 60.21875 74.167969 C 60.835938 84.015625 67.6875 89.753906 69.636719 91.191406 L 72.082031 90.921875 C 69.4375 87.90625 65.335938 81.875 65.058594 73.289062 C 64.785156 64.707031 68.496094 58.410156 70.941406 55.214844 Z M 131.917969 70.964844 C 131.734375 65.144531 130.242188 59.957031 128.214844 58.058594 C 127.75 57.625 127.300781 57.414062 126.875 57.429688 C 126.425781 57.445312 125.976562 57.695312 125.546875 58.15625 C 125.394531 58.320312 125.25 58.511719 125.105469 58.722656 C 125.515625 58.710938 126.140625 58.828125 126.796875 59.4375 C 128.546875 61.078125 129.792969 65.628906 129.964844 71.035156 C 129.980469 71.519531 129.984375 72 129.980469 72.480469 C 129.980469 72.480469 129.980469 72.484375 129.984375 72.488281 C 129.984375 72.492188 129.980469 72.5 129.980469 72.503906 C 129.949219 76.898438 129.136719 81.109375 127.523438 82.835938 C 127.054688 83.335938 126.519531 83.625 125.914062 83.65625 C 126.074219 83.855469 126.234375 84.039062 126.402344 84.195312 C 126.863281 84.628906 127.316406 84.839844 127.742188 84.824219 C 129.925781 84.75 132.175781 79.039062 131.917969 70.964844 Z M 91.207031 104.285156 L 91.550781 104.273438 C 91.035156 103.359375 90.71875 102.132812 90.675781 100.773438 C 90.628906 99.386719 90.882812 98.160156 91.335938 97.230469 L 90.988281 97.242188 C 90.207031 97.269531 89.378906 98.808594 89.445312 100.824219 C 89.488281 102.152344 89.925781 103.390625 90.558594 103.984375 C 90.777344 104.191406 90.996094 104.292969 91.207031 104.285156 Z M 95.035156 100.625 C 94.980469 99 94.460938 97.808594 93.96875 97.347656 C 93.871094 97.257812 93.722656 97.144531 93.582031 97.152344 C 93.472656 97.15625 93.347656 97.230469 93.214844 97.371094 C 92.777344 97.839844 92.296875 99.039062 92.351562 100.722656 C 92.402344 102.34375 92.921875 103.535156 93.417969 103.996094 C 93.515625 104.089844 93.664062 104.199219 93.800781 104.195312 C 94.277344 104.179688 95.105469 102.8125 95.035156 100.625 Z M 90.808594 127.765625 L 90.101562 105.683594 C 89.863281 105.5625 89.628906 105.410156 89.410156 105.207031 C 88.4375 104.300781 87.824219 102.679688 87.765625 100.875 C 87.699219 98.742188 88.429688 96.933594 89.554688 96.082031 L 87.078125 90.964844 L 82.613281 91.457031 L 85.632812 97.703125 C 85.6875 97.808594 85.714844 97.925781 85.71875 98.042969 L 86.703125 128.941406 Z M 84.457031 133.734375 C 84.449219 133.507812 84.546875 133.273438 84.6875 133.125 C 84.84375 132.964844 85.058594 132.871094 85.285156 132.867188 C 86.929688 132.851562 87.984375 131.859375 88.269531 131.554688 C 88.269531 131.554688 88.269531 131.550781 88.269531 131.550781 C 88.75 131.039062 89.011719 130.488281 89.171875 129.980469 L 86.132812 130.855469 C 86.121094 130.859375 86.113281 130.855469 86.101562 130.855469 C 85.996094 130.882812 85.886719 130.894531 85.773438 130.878906 L 76.585938 129.484375 C 76.699219 130.160156 77.003906 131.152344 77.824219 131.917969 C 78.125 132.203125 79.242188 133.117188 80.882812 133.023438 C 81.109375 133.007812 81.332031 133.085938 81.5 133.238281 C 81.664062 133.390625 81.765625 133.605469 81.773438 133.832031 L 81.835938 135.898438 L 84.519531 135.804688 Z M 73.136719 144.917969 C 73.78125 145.042969 74.476562 145.097656 75.195312 145.070312 C 77.746094 144.980469 80.117188 143.949219 81.636719 142.265625 C 83.023438 140.742188 83.535156 138.871094 83.722656 137.511719 L 82.496094 137.554688 C 82.316406 138.75 81.855469 140.207031 80.730469 141.441406 C 80.710938 141.464844 80.691406 141.484375 80.671875 141.503906 C 78.695312 143.617188 75.519531 144.128906 73.382812 143.710938 C 71.054688 143.25 68.6875 141.308594 66.886719 138.386719 C 63.976562 133.664062 63.003906 127.328125 64.410156 122.246094 C 65.90625 116.832031 69.722656 113.335938 72.820312 111.296875 L 72.773438 109.867188 C 69.746094 111.742188 64.980469 115.585938 63.226562 121.925781 C 61.710938 127.40625 62.710938 133.964844 65.835938 139.035156 C 67.847656 142.296875 70.441406 144.382812 73.136719 144.917969 Z M 73.136719 144.917969 " fill-opacity="1" fill-rule="nonzero"/></g></g></g></g></svg>