<svg xmlns="http://www.w3.org/2000/svg" xmlns:xlink="http://www.w3.org/1999/xlink" width="125" zoomAndPan="magnify" viewBox="0 0 93.75 93.749996" height="125" preserveAspectRatio="xMidYMid meet" version="1.0"><defs><clipPath id="00e9027e2f"><path d="M 28.050781 28.050781 L 65.449219 28.050781 L 65.449219 65.449219 L 28.050781 65.449219 Z M 28.050781 28.050781 " clip-rule="nonzero"/></clipPath></defs><g clip-path="url(#00e9027e2f)"><path fill="#000000" d="M 49.28125 37.613281 L 55.53125 37.613281 L 60.757812 41.257812 C 60.847656 41.320312 60.957031 41.351562 61.0625 41.351562 C 61.164062 41.351562 61.269531 41.324219 61.359375 41.261719 C 61.539062 41.140625 61.628906 40.917969 61.578125 40.703125 L 60.859375 37.613281 L 61.140625 37.613281 C 62.035156 37.613281 62.761719 36.757812 62.761719 35.710938 L 62.761719 29.949219 C 62.761719 28.902344 62.035156 28.050781 61.140625 28.050781 L 49.28125 28.050781 C 48.386719 28.050781 47.660156 28.902344 47.660156 29.949219 L 47.660156 35.710938 C 47.660156 36.757812 48.386719 37.613281 49.28125 37.613281 Z M 48.71875 29.949219 C 48.71875 29.457031 49.015625 29.109375 49.28125 29.109375 L 61.140625 29.109375 C 61.40625 29.109375 61.703125 29.457031 61.703125 29.949219 L 61.703125 35.710938 C 61.703125 36.207031 61.40625 36.550781 61.140625 36.550781 L 60.191406 36.550781 C 60.03125 36.550781 59.878906 36.625 59.777344 36.75 C 59.675781 36.878906 59.640625 37.042969 59.675781 37.203125 L 60.234375 39.597656 L 56.003906 36.648438 C 55.914062 36.585938 55.808594 36.550781 55.699219 36.550781 L 49.28125 36.550781 C 49.015625 36.550781 48.71875 36.207031 48.71875 35.710938 Z M 50.496094 31.648438 C 50.496094 31.355469 50.734375 31.121094 51.027344 31.121094 L 59.394531 31.121094 C 59.6875 31.121094 59.925781 31.355469 59.925781 31.648438 C 59.925781 31.941406 59.6875 32.179688 59.394531 32.179688 L 51.027344 32.179688 C 50.734375 32.179688 50.496094 31.941406 50.496094 31.648438 Z M 50.496094 34.011719 C 50.496094 33.71875 50.734375 33.480469 51.027344 33.480469 L 59.394531 33.480469 C 59.6875 33.480469 59.925781 33.71875 59.925781 34.011719 C 59.925781 34.304688 59.6875 34.542969 59.394531 34.542969 L 51.027344 34.542969 C 50.734375 34.542969 50.496094 34.304688 50.496094 34.011719 Z M 32.359375 37.613281 L 32.640625 37.613281 L 31.921875 40.703125 C 31.875 40.917969 31.960938 41.140625 32.140625 41.261719 C 32.230469 41.324219 32.335938 41.351562 32.4375 41.351562 C 32.546875 41.351562 32.652344 41.320312 32.742188 41.257812 L 37.96875 37.613281 L 44.222656 37.613281 C 45.113281 37.613281 45.839844 36.757812 45.839844 35.710938 L 45.839844 29.949219 C 45.839844 28.902344 45.113281 28.050781 44.222656 28.050781 L 32.359375 28.050781 C 31.464844 28.050781 30.738281 28.902344 30.738281 29.949219 L 30.738281 35.710938 C 30.738281 36.757812 31.464844 37.613281 32.359375 37.613281 Z M 31.800781 29.949219 C 31.800781 29.457031 32.09375 29.109375 32.359375 29.109375 L 44.222656 29.109375 C 44.488281 29.109375 44.78125 29.457031 44.78125 29.949219 L 44.78125 35.710938 C 44.78125 36.207031 44.488281 36.550781 44.222656 36.550781 L 37.800781 36.550781 C 37.691406 36.550781 37.585938 36.585938 37.5 36.648438 L 33.265625 39.597656 L 33.824219 37.203125 C 33.859375 37.042969 33.824219 36.878906 33.722656 36.75 C 33.621094 36.625 33.46875 36.550781 33.308594 36.550781 L 32.359375 36.550781 C 32.09375 36.550781 31.800781 36.207031 31.800781 35.710938 Z M 34.382812 32.910156 C 34.382812 32.53125 34.6875 32.226562 35.066406 32.226562 C 35.441406 32.226562 35.746094 32.53125 35.746094 32.910156 C 35.746094 33.285156 35.441406 33.589844 35.066406 33.589844 C 34.6875 33.589844 34.382812 33.285156 34.382812 32.910156 Z M 37.609375 32.910156 C 37.609375 32.53125 37.914062 32.226562 38.289062 32.226562 C 38.667969 32.226562 38.972656 32.53125 38.972656 32.910156 C 38.972656 33.285156 38.667969 33.589844 38.289062 33.589844 C 37.914062 33.589844 37.609375 33.285156 37.609375 32.910156 Z M 40.832031 32.910156 C 40.832031 32.53125 41.136719 32.226562 41.515625 32.226562 C 41.890625 32.226562 42.195312 32.53125 42.195312 32.910156 C 42.195312 33.285156 41.890625 33.589844 41.515625 33.589844 C 41.136719 33.589844 40.832031 33.285156 40.832031 32.910156 Z M 65.277344 61.292969 L 62.957031 52.636719 C 62.667969 51.550781 61.96875 50.640625 60.984375 50.074219 C 60.003906 49.507812 58.867188 49.355469 57.78125 49.648438 C 55.929688 50.144531 55.191406 51.746094 54.542969 53.160156 L 52.300781 58.023438 L 47.203125 58.542969 C 47.050781 58.558594 46.898438 58.59375 46.753906 58.644531 C 46.605469 58.59375 46.453125 58.558594 46.296875 58.542969 L 41.199219 58.023438 L 38.671875 52.539062 C 38.199219 51.511719 37.375 50.09375 35.71875 49.648438 C 34.632812 49.355469 33.496094 49.507812 32.515625 50.074219 C 31.535156 50.640625 30.832031 51.550781 30.542969 52.636719 L 28.222656 61.292969 C 28.101562 61.738281 28.050781 62.144531 28.050781 62.605469 L 28.050781 64.921875 C 28.050781 65.214844 28.289062 65.449219 28.582031 65.449219 L 35.949219 65.449219 C 36.242188 65.449219 36.476562 65.214844 36.476562 64.921875 L 36.476562 63.15625 L 37.375 59.816406 L 37.867188 60.890625 C 38.199219 61.605469 38.894531 62.070312 39.683594 62.109375 L 45.863281 62.742188 C 46.171875 62.773438 46.472656 62.738281 46.75 62.644531 C 46.964844 62.714844 47.191406 62.753906 47.417969 62.753906 C 47.492188 62.753906 47.5625 62.75 47.636719 62.742188 L 50.863281 62.414062 C 50.644531 62.859375 50.582031 63.386719 50.722656 63.902344 C 50.980469 64.835938 51.832031 65.449219 52.757812 65.449219 C 52.945312 65.449219 53.132812 65.425781 53.320312 65.375 L 57.023438 64.355469 L 57.023438 64.921875 C 57.023438 65.214844 57.257812 65.449219 57.550781 65.449219 L 64.921875 65.449219 C 65.214844 65.449219 65.449219 65.214844 65.449219 64.921875 L 65.449219 62.605469 C 65.449219 62.144531 65.398438 61.738281 65.277344 61.292969 Z M 45.972656 61.6875 L 39.773438 61.054688 C 39.765625 61.054688 39.753906 61.054688 39.742188 61.050781 C 39.347656 61.035156 38.996094 60.800781 38.832031 60.445312 L 37.722656 58.039062 C 37.628906 57.835938 37.417969 57.714844 37.195312 57.734375 C 36.972656 57.753906 36.789062 57.910156 36.730469 58.125 L 35.4375 62.949219 C 35.425781 62.996094 35.417969 63.039062 35.417969 63.085938 L 35.417969 64.390625 L 29.109375 64.390625 L 29.109375 62.605469 C 29.109375 62.234375 29.152344 61.925781 29.246094 61.566406 L 31.566406 52.914062 C 31.785156 52.097656 32.308594 51.417969 33.042969 50.992188 C 33.78125 50.566406 34.632812 50.453125 35.445312 50.671875 C 36.378906 50.921875 37.097656 51.65625 37.710938 52.984375 L 40.363281 58.742188 C 40.441406 58.914062 40.605469 59.027344 40.792969 59.046875 L 46.1875 59.597656 C 46.765625 59.65625 47.183594 60.175781 47.125 60.75 C 47.066406 61.328125 46.546875 61.746094 45.972656 61.6875 Z M 64.390625 64.390625 L 58.082031 64.390625 L 58.082031 64.0625 L 59.3125 63.722656 C 60.082031 63.554688 60.6875 62.980469 60.898438 62.214844 L 61.996094 58.15625 C 62.074219 57.875 61.90625 57.585938 61.625 57.507812 C 61.34375 57.429688 61.050781 57.597656 60.972656 57.878906 L 59.875 61.9375 C 59.769531 62.320312 59.464844 62.609375 59.074219 62.691406 L 59.058594 62.695312 L 53.039062 64.351562 C 52.480469 64.507812 51.898438 64.179688 51.746094 63.621094 C 51.589844 63.0625 51.917969 62.480469 52.476562 62.328125 L 58 60.808594 L 59.753906 54.339844 C 59.832031 54.054688 59.664062 53.765625 59.382812 53.6875 C 59.097656 53.613281 58.808594 53.777344 58.730469 54.0625 L 57.199219 59.714844 L 56.773438 58.125 C 56.769531 58.125 56.769531 58.125 56.769531 58.121094 L 56.558594 57.324219 C 56.480469 57.042969 56.191406 56.875 55.90625 56.949219 C 55.625 57.027344 55.457031 57.316406 55.535156 57.601562 L 55.699219 58.214844 L 54.671875 60.441406 C 54.632812 60.523438 54.585938 60.59375 54.53125 60.664062 L 52.746094 61.15625 L 47.9375 61.644531 C 48.066406 61.410156 48.148438 61.144531 48.179688 60.859375 C 48.226562 60.390625 48.121094 59.933594 47.878906 59.539062 L 52.707031 59.046875 C 52.894531 59.027344 53.058594 58.914062 53.136719 58.742188 L 55.503906 53.601562 C 56.113281 52.285156 56.683594 51.039062 58.054688 50.671875 C 58.867188 50.453125 59.722656 50.566406 60.457031 50.992188 C 61.191406 51.417969 61.71875 52.097656 61.933594 52.910156 L 64.253906 61.566406 C 64.351562 61.925781 64.390625 62.234375 64.390625 62.605469 Z M 55.910156 60.285156 L 56.125 59.816406 L 56.230469 60.195312 Z M 33 45.222656 C 33 47.375 34.753906 49.128906 36.90625 49.128906 C 39.0625 49.128906 40.8125 47.375 40.8125 45.222656 C 40.8125 43.066406 39.0625 41.316406 36.90625 41.316406 C 34.753906 41.316406 33 43.066406 33 45.222656 Z M 39.753906 45.222656 C 39.753906 46.792969 38.476562 48.070312 36.90625 48.070312 C 35.335938 48.070312 34.058594 46.792969 34.058594 45.222656 C 34.058594 43.652344 35.335938 42.375 36.90625 42.375 C 38.476562 42.375 39.753906 43.652344 39.753906 45.222656 Z M 52.6875 45.222656 C 52.6875 47.375 54.441406 49.128906 56.59375 49.128906 C 58.75 49.128906 60.5 47.375 60.5 45.222656 C 60.5 43.066406 58.75 41.316406 56.59375 41.316406 C 54.441406 41.316406 52.6875 43.066406 52.6875 45.222656 Z M 59.441406 45.222656 C 59.441406 46.792969 58.164062 48.070312 56.59375 48.070312 C 55.023438 48.070312 53.746094 46.792969 53.746094 45.222656 C 53.746094 43.652344 55.023438 42.375 56.59375 42.375 C 58.164062 42.375 59.441406 43.652344 59.441406 45.222656 Z M 59.441406 45.222656 " fill-opacity="1" fill-rule="nonzero"/></g></svg>