<svg xmlns="http://www.w3.org/2000/svg" xmlns:xlink="http://www.w3.org/1999/xlink" width="250" zoomAndPan="magnify" viewBox="0 0 187.5 187.499992" height="250" preserveAspectRatio="xMidYMid meet" version="1.0"><defs><clipPath id="4b1ed85e2b"><path d="M 56.101562 56.101562 L 130.902344 56.101562 L 130.902344 130.902344 L 56.101562 130.902344 Z M 56.101562 56.101562 " clip-rule="nonzero"/></clipPath></defs><g clip-path="url(#4b1ed85e2b)"><path fill="#000000" d="M 98.558594 75.222656 L 111.066406 75.222656 L 121.515625 82.515625 C 121.699219 82.640625 121.910156 82.707031 122.125 82.707031 C 122.332031 82.707031 122.539062 82.644531 122.71875 82.523438 C 123.082031 82.277344 123.253906 81.832031 123.15625 81.40625 L 121.71875 75.222656 L 122.28125 75.222656 C 124.070312 75.222656 125.523438 73.519531 125.523438 71.421875 L 125.523438 59.902344 C 125.523438 57.804688 124.070312 56.101562 122.28125 56.101562 L 98.558594 56.101562 C 96.773438 56.101562 95.316406 57.804688 95.316406 59.902344 L 95.316406 71.421875 C 95.316406 73.519531 96.773438 75.222656 98.558594 75.222656 Z M 97.4375 59.902344 C 97.4375 58.910156 98.027344 58.21875 98.558594 58.21875 L 122.28125 58.21875 C 122.8125 58.21875 123.402344 58.910156 123.402344 59.902344 L 123.402344 71.421875 C 123.402344 72.414062 122.8125 73.101562 122.28125 73.101562 L 120.386719 73.101562 C 120.0625 73.101562 119.757812 73.25 119.554688 73.503906 C 119.355469 73.757812 119.28125 74.089844 119.355469 74.402344 L 120.46875 79.199219 L 112.003906 73.292969 C 111.828125 73.167969 111.617188 73.101562 111.398438 73.101562 L 98.558594 73.101562 C 98.027344 73.101562 97.4375 72.414062 97.4375 71.421875 Z M 100.992188 63.300781 C 100.992188 62.714844 101.464844 62.238281 102.050781 62.238281 L 118.789062 62.238281 C 119.375 62.238281 119.851562 62.714844 119.851562 63.300781 C 119.851562 63.886719 119.375 64.359375 118.789062 64.359375 L 102.050781 64.359375 C 101.464844 64.359375 100.992188 63.886719 100.992188 63.300781 Z M 100.992188 68.023438 C 100.992188 67.4375 101.464844 66.964844 102.050781 66.964844 L 118.789062 66.964844 C 119.375 66.964844 119.851562 67.4375 119.851562 68.023438 C 119.851562 68.609375 119.375 69.082031 118.789062 69.082031 L 102.050781 69.082031 C 101.464844 69.082031 100.992188 68.609375 100.992188 68.023438 Z M 64.71875 75.222656 L 65.28125 75.222656 L 63.847656 81.40625 C 63.746094 81.832031 63.921875 82.277344 64.285156 82.523438 C 64.464844 82.644531 64.671875 82.707031 64.878906 82.707031 C 65.089844 82.707031 65.300781 82.640625 65.484375 82.515625 L 75.9375 75.222656 L 88.441406 75.222656 C 90.230469 75.222656 91.683594 73.519531 91.683594 71.421875 L 91.683594 59.902344 C 91.683594 57.804688 90.230469 56.101562 88.441406 56.101562 L 64.71875 56.101562 C 62.929688 56.101562 61.476562 57.804688 61.476562 59.902344 L 61.476562 71.421875 C 61.476562 73.519531 62.929688 75.222656 64.71875 75.222656 Z M 63.597656 59.902344 C 63.597656 58.910156 64.1875 58.21875 64.71875 58.21875 L 88.441406 58.21875 C 88.972656 58.21875 89.5625 58.910156 89.5625 59.902344 L 89.5625 71.421875 C 89.5625 72.414062 88.972656 73.101562 88.441406 73.101562 L 75.601562 73.101562 C 75.386719 73.101562 75.175781 73.167969 74.996094 73.292969 L 66.535156 79.199219 L 67.648438 74.402344 C 67.71875 74.085938 67.644531 73.757812 67.445312 73.503906 C 67.242188 73.25 66.9375 73.101562 66.613281 73.101562 L 64.71875 73.101562 C 64.1875 73.101562 63.597656 72.414062 63.597656 71.421875 Z M 68.769531 65.816406 C 68.769531 65.066406 69.378906 64.457031 70.132812 64.457031 C 70.882812 64.457031 71.496094 65.066406 71.496094 65.816406 C 71.496094 66.570312 70.882812 67.179688 70.132812 67.179688 C 69.378906 67.179688 68.769531 66.570312 68.769531 65.816406 Z M 75.21875 65.816406 C 75.21875 65.066406 75.828125 64.457031 76.582031 64.457031 C 77.332031 64.457031 77.945312 65.066406 77.945312 65.816406 C 77.945312 66.570312 77.332031 67.179688 76.582031 67.179688 C 75.828125 67.179688 75.21875 66.570312 75.21875 65.816406 Z M 81.667969 65.816406 C 81.667969 65.066406 82.277344 64.457031 83.03125 64.457031 C 83.78125 64.457031 84.390625 65.066406 84.390625 65.816406 C 84.390625 66.570312 83.78125 67.179688 83.03125 67.179688 C 82.277344 67.179688 81.667969 66.570312 81.667969 65.816406 Z M 130.554688 122.585938 L 125.917969 105.277344 C 125.335938 103.101562 123.933594 101.28125 121.972656 100.148438 C 120.011719 99.015625 117.734375 98.714844 115.558594 99.296875 C 111.859375 100.289062 110.386719 103.492188 109.085938 106.316406 L 104.601562 116.046875 L 94.40625 117.089844 C 94.097656 117.121094 93.796875 117.1875 93.503906 117.285156 C 93.210938 117.1875 92.90625 117.121094 92.59375 117.089844 L 82.402344 116.046875 L 77.34375 105.078125 C 76.398438 103.019531 74.753906 100.183594 71.441406 99.296875 C 69.265625 98.714844 66.988281 99.015625 65.027344 100.148438 C 63.066406 101.28125 61.667969 103.101562 61.082031 105.277344 L 56.445312 122.585938 C 56.207031 123.476562 56.101562 124.289062 56.101562 125.210938 L 56.101562 129.839844 C 56.101562 130.425781 56.574219 130.902344 57.160156 130.902344 L 71.898438 130.902344 C 72.480469 130.902344 72.957031 130.425781 72.957031 129.839844 L 72.957031 126.3125 L 74.746094 119.628906 L 75.738281 121.777344 C 76.402344 123.210938 77.789062 124.144531 79.363281 124.222656 L 91.730469 125.484375 C 92.34375 125.546875 92.945312 125.472656 93.496094 125.285156 C 93.929688 125.429688 94.382812 125.507812 94.839844 125.507812 C 94.980469 125.507812 95.125 125.5 95.269531 125.484375 L 101.726562 124.824219 C 101.289062 125.71875 101.160156 126.769531 101.449219 127.804688 C 101.964844 129.671875 103.667969 130.902344 105.515625 130.902344 C 105.886719 130.902344 106.265625 130.851562 106.636719 130.746094 L 114.042969 128.707031 L 114.042969 129.839844 C 114.042969 130.425781 114.519531 130.902344 115.105469 130.902344 L 129.839844 130.902344 C 130.425781 130.902344 130.902344 130.425781 130.902344 129.839844 L 130.902344 125.210938 C 130.902344 124.285156 130.792969 123.476562 130.554688 122.585938 Z M 91.945312 123.375 L 79.550781 122.109375 C 79.527344 122.109375 79.507812 122.105469 79.484375 122.105469 C 78.695312 122.074219 77.992188 121.605469 77.660156 120.886719 L 75.445312 116.078125 C 75.257812 115.675781 74.835938 115.429688 74.394531 115.46875 C 73.949219 115.503906 73.574219 115.816406 73.457031 116.25 L 70.875 125.898438 C 70.847656 125.988281 70.835938 126.082031 70.835938 126.171875 L 70.835938 128.78125 L 58.21875 128.78125 L 58.21875 125.210938 C 58.21875 124.46875 58.300781 123.847656 58.492188 123.132812 L 63.132812 105.824219 C 63.566406 104.199219 64.617188 102.832031 66.089844 101.984375 C 67.558594 101.136719 69.265625 100.90625 70.894531 101.34375 C 72.757812 101.84375 74.199219 103.3125 75.421875 105.964844 L 80.730469 117.484375 C 80.886719 117.824219 81.210938 118.058594 81.582031 118.09375 L 92.375 119.195312 C 93.527344 119.316406 94.367188 120.347656 94.25 121.5 C 94.132812 122.652344 93.09375 123.496094 91.945312 123.375 Z M 128.78125 128.78125 L 116.164062 128.78125 L 116.164062 128.125 L 118.621094 127.449219 C 120.164062 127.109375 121.375 125.957031 121.792969 124.433594 L 123.996094 116.316406 C 124.148438 115.75 123.8125 115.167969 123.25 115.015625 C 122.683594 114.863281 122.101562 115.195312 121.949219 115.761719 L 119.75 123.875 C 119.539062 124.640625 118.925781 125.21875 118.148438 125.382812 L 118.117188 125.386719 L 106.074219 128.703125 C 104.960938 129.011719 103.800781 128.355469 103.492188 127.238281 C 103.183594 126.125 103.839844 124.964844 104.953125 124.65625 L 116 121.613281 L 119.507812 108.679688 C 119.660156 108.113281 119.328125 107.53125 118.761719 107.378906 C 118.195312 107.222656 117.613281 107.558594 117.460938 108.125 L 114.394531 119.429688 L 113.542969 116.253906 C 113.542969 116.25 113.542969 116.25 113.542969 116.246094 L 113.113281 114.652344 C 112.960938 114.085938 112.382812 113.75 111.816406 113.902344 C 111.25 114.054688 110.914062 114.632812 111.066406 115.199219 L 111.394531 116.425781 L 109.339844 120.886719 C 109.265625 121.042969 109.175781 121.191406 109.066406 121.324219 L 105.492188 122.308594 L 95.875 123.292969 C 96.128906 122.816406 96.300781 122.285156 96.359375 121.71875 C 96.457031 120.785156 96.242188 119.867188 95.757812 119.082031 L 105.417969 118.09375 C 105.789062 118.058594 106.117188 117.824219 106.273438 117.484375 L 111.011719 107.203125 C 112.222656 104.566406 113.367188 102.078125 116.109375 101.34375 C 117.734375 100.90625 119.441406 101.136719 120.914062 101.984375 C 122.382812 102.832031 123.433594 104.195312 123.871094 105.824219 L 128.507812 123.132812 C 128.699219 123.847656 128.78125 124.46875 128.78125 125.210938 Z M 111.820312 120.566406 L 112.253906 119.628906 L 112.457031 120.390625 Z M 66 90.445312 C 66 94.75 69.503906 98.257812 73.8125 98.257812 C 78.121094 98.257812 81.625 94.753906 81.625 90.445312 C 81.625 86.136719 78.121094 82.628906 73.8125 82.628906 C 69.503906 82.628906 66 86.136719 66 90.445312 Z M 79.507812 90.445312 C 79.507812 93.582031 76.953125 96.136719 73.8125 96.136719 C 70.671875 96.136719 68.121094 93.582031 68.121094 90.445312 C 68.121094 87.304688 70.671875 84.75 73.8125 84.75 C 76.953125 84.75 79.507812 87.304688 79.507812 90.445312 Z M 105.375 90.445312 C 105.375 94.75 108.878906 98.257812 113.1875 98.257812 C 117.496094 98.257812 121 94.75 121 90.445312 C 121 86.136719 117.496094 82.628906 113.1875 82.628906 C 108.878906 82.628906 105.375 86.136719 105.375 90.445312 Z M 118.882812 90.445312 C 118.882812 93.582031 116.328125 96.136719 113.1875 96.136719 C 110.050781 96.136719 107.496094 93.582031 107.496094 90.445312 C 107.496094 87.304688 110.046875 84.75 113.1875 84.75 C 116.328125 84.75 118.882812 87.304688 118.882812 90.445312 Z M 118.882812 90.445312 " fill-opacity="1" fill-rule="nonzero"/></g></svg>