<svg xmlns="http://www.w3.org/2000/svg" xmlns:xlink="http://www.w3.org/1999/xlink" width="250" zoomAndPan="magnify" viewBox="0 0 187.5 187.499992" height="250" preserveAspectRatio="xMidYMid meet" version="1.0"><defs><clipPath id="260bc88391"><path d="M 28.050781 28.050781 L 158.949219 28.050781 L 158.949219 158.949219 L 28.050781 158.949219 Z M 28.050781 28.050781 " clip-rule="nonzero"/></clipPath></defs><g clip-path="url(#260bc88391)"><path fill="#000000" d="M 102.351562 61.515625 L 124.238281 61.515625 L 142.527344 74.277344 C 142.847656 74.496094 143.21875 74.609375 143.589844 74.609375 C 143.953125 74.609375 144.316406 74.503906 144.628906 74.289062 C 145.265625 73.859375 145.570312 73.082031 145.398438 72.335938 L 142.886719 61.515625 L 143.871094 61.515625 C 146.996094 61.515625 149.539062 58.53125 149.539062 54.863281 L 149.539062 34.699219 C 149.539062 31.035156 146.996094 28.050781 143.871094 28.050781 L 102.351562 28.050781 C 99.226562 28.050781 96.679688 31.035156 96.679688 34.699219 L 96.679688 54.863281 C 96.679688 58.53125 99.226562 61.515625 102.351562 61.515625 Z M 100.390625 34.699219 C 100.390625 32.96875 101.425781 31.761719 102.351562 31.761719 L 143.871094 31.761719 C 144.796875 31.761719 145.832031 32.96875 145.832031 34.699219 L 145.832031 54.863281 C 145.832031 56.597656 144.796875 57.804688 143.871094 57.804688 L 140.550781 57.804688 C 139.984375 57.804688 139.449219 58.0625 139.097656 58.507812 C 138.746094 58.949219 138.617188 59.527344 138.742188 60.078125 L 140.691406 68.46875 L 125.882812 58.140625 C 125.574219 57.921875 125.203125 57.804688 124.824219 57.804688 L 102.351562 57.804688 C 101.425781 57.804688 100.390625 56.597656 100.390625 54.863281 Z M 106.609375 40.648438 C 106.609375 39.625 107.441406 38.792969 108.464844 38.792969 L 137.757812 38.792969 C 138.78125 38.792969 139.613281 39.625 139.613281 40.648438 C 139.613281 41.675781 138.78125 42.503906 137.757812 42.503906 L 108.464844 42.503906 C 107.441406 42.503906 106.609375 41.675781 106.609375 40.648438 Z M 106.609375 48.914062 C 106.609375 47.890625 107.441406 47.058594 108.464844 47.058594 L 137.757812 47.058594 C 138.78125 47.058594 139.613281 47.890625 139.613281 48.914062 C 139.613281 49.941406 138.78125 50.769531 137.757812 50.769531 L 108.464844 50.769531 C 107.441406 50.769531 106.609375 49.941406 106.609375 48.914062 Z M 43.132812 61.515625 L 44.117188 61.515625 L 41.605469 72.335938 C 41.429688 73.082031 41.734375 73.859375 42.371094 74.289062 C 42.6875 74.503906 43.050781 74.609375 43.410156 74.609375 C 43.78125 74.609375 44.152344 74.496094 44.472656 74.277344 L 62.761719 61.515625 L 84.648438 61.515625 C 87.777344 61.515625 90.320312 58.53125 90.320312 54.863281 L 90.320312 34.699219 C 90.320312 31.035156 87.777344 28.050781 84.648438 28.050781 L 43.132812 28.050781 C 40.003906 28.050781 37.460938 31.035156 37.460938 34.699219 L 37.460938 54.863281 C 37.460938 58.53125 40.003906 61.515625 43.132812 61.515625 Z M 41.171875 34.699219 C 41.171875 32.96875 42.203125 31.761719 43.132812 31.761719 L 84.648438 31.761719 C 85.578125 31.761719 86.609375 32.96875 86.609375 34.699219 L 86.609375 54.863281 C 86.609375 56.597656 85.578125 57.804688 84.648438 57.804688 L 62.179688 57.804688 C 61.800781 57.804688 61.429688 57.921875 61.117188 58.136719 L 46.308594 68.46875 L 48.257812 60.078125 C 48.386719 59.527344 48.253906 58.949219 47.902344 58.503906 C 47.550781 58.0625 47.015625 57.804688 46.449219 57.804688 L 43.132812 57.804688 C 42.203125 57.804688 41.171875 56.597656 41.171875 54.863281 Z M 50.21875 45.054688 C 50.21875 43.738281 51.289062 42.671875 52.605469 42.671875 C 53.921875 42.671875 54.988281 43.738281 54.988281 45.054688 C 54.988281 46.375 53.921875 47.441406 52.605469 47.441406 C 51.289062 47.441406 50.21875 46.375 50.21875 45.054688 Z M 61.503906 45.054688 C 61.503906 43.738281 62.574219 42.671875 63.890625 42.671875 C 65.207031 42.671875 66.273438 43.738281 66.273438 45.054688 C 66.273438 46.375 65.207031 47.441406 63.890625 47.441406 C 62.574219 47.441406 61.503906 46.375 61.503906 45.054688 Z M 72.792969 45.054688 C 72.792969 43.738281 73.859375 42.671875 75.175781 42.671875 C 76.492188 42.671875 77.5625 43.738281 77.5625 45.054688 C 77.5625 46.375 76.492188 47.441406 75.175781 47.441406 C 73.859375 47.441406 72.792969 46.375 72.792969 45.054688 Z M 158.347656 144.398438 L 150.230469 114.105469 C 149.210938 110.304688 146.757812 107.117188 143.328125 105.136719 C 139.894531 103.152344 135.910156 102.625 132.105469 103.644531 C 125.628906 105.378906 123.046875 110.984375 120.773438 115.929688 L 112.925781 132.957031 L 95.085938 134.777344 C 94.546875 134.835938 94.019531 134.953125 93.507812 135.125 C 92.996094 134.953125 92.460938 134.835938 91.914062 134.777344 L 74.078125 132.957031 L 65.226562 113.761719 C 63.570312 110.160156 60.695312 105.195312 54.894531 103.644531 C 51.09375 102.625 47.105469 103.152344 43.675781 105.136719 C 40.242188 107.117188 37.789062 110.304688 36.769531 114.105469 L 28.65625 144.398438 C 28.238281 145.960938 28.050781 147.378906 28.050781 148.992188 L 28.050781 157.097656 C 28.050781 158.121094 28.878906 158.949219 29.90625 158.949219 L 55.695312 158.949219 C 56.71875 158.949219 57.550781 158.121094 57.550781 157.097656 L 57.550781 150.921875 L 60.683594 139.226562 L 62.414062 142.984375 C 63.574219 145.492188 66.003906 147.125 68.761719 147.261719 L 90.398438 149.472656 C 91.480469 149.582031 92.527344 149.453125 93.496094 149.125 C 94.25 149.378906 95.042969 149.511719 95.839844 149.511719 C 96.09375 149.511719 96.347656 149.496094 96.597656 149.472656 L 107.898438 148.316406 C 107.128906 149.882812 106.90625 151.722656 107.40625 153.53125 C 108.3125 156.800781 111.289062 158.949219 114.527344 158.949219 C 115.175781 158.949219 115.835938 158.863281 116.492188 158.683594 L 129.453125 155.113281 L 129.453125 157.097656 C 129.453125 158.121094 130.28125 158.949219 131.308594 158.949219 L 157.097656 158.949219 C 158.121094 158.949219 158.949219 158.121094 158.949219 157.097656 L 158.949219 148.992188 C 158.949219 147.375 158.765625 145.960938 158.347656 144.398438 Z M 90.777344 145.78125 L 69.085938 143.566406 C 69.050781 143.5625 69.011719 143.558594 68.976562 143.558594 C 67.589844 143.5 66.363281 142.683594 65.78125 141.429688 L 61.902344 133.015625 C 61.578125 132.304688 60.839844 131.878906 60.0625 131.941406 C 59.28125 132.007812 58.628906 132.554688 58.425781 133.308594 L 53.902344 150.199219 C 53.859375 150.355469 53.839844 150.515625 53.839844 150.679688 L 53.839844 155.242188 L 31.761719 155.242188 L 31.761719 148.992188 C 31.761719 147.699219 31.902344 146.609375 32.238281 145.359375 L 40.355469 115.066406 C 41.117188 112.21875 42.957031 109.832031 45.53125 108.347656 C 48.105469 106.863281 51.089844 106.464844 53.9375 107.226562 C 57.203125 108.101562 59.71875 110.671875 61.859375 115.3125 L 71.148438 135.472656 C 71.425781 136.070312 71.992188 136.476562 72.644531 136.542969 L 91.535156 138.46875 C 93.550781 138.675781 95.019531 140.484375 94.8125 142.5 C 94.605469 144.515625 92.792969 145.988281 90.777344 145.78125 Z M 155.242188 155.242188 L 133.160156 155.242188 L 133.160156 154.09375 L 137.464844 152.910156 C 140.160156 152.316406 142.28125 150.300781 143.011719 147.632812 L 146.867188 133.429688 C 147.132812 132.441406 146.550781 131.421875 145.5625 131.152344 C 144.574219 130.882812 143.554688 131.46875 143.285156 132.457031 L 139.433594 146.65625 C 139.066406 147.996094 137.996094 149.003906 136.636719 149.292969 L 136.582031 149.304688 L 115.503906 155.105469 C 113.554688 155.648438 111.523438 154.496094 110.984375 152.542969 C 110.445312 150.589844 111.59375 148.5625 113.542969 148.023438 L 132.871094 142.699219 L 139.011719 120.0625 C 139.28125 119.074219 138.695312 118.054688 137.707031 117.785156 C 136.71875 117.515625 135.699219 118.101562 135.433594 119.089844 L 130.066406 138.875 L 128.574219 133.316406 C 128.574219 133.3125 128.574219 133.308594 128.574219 133.304688 L 127.824219 130.515625 C 127.558594 129.523438 126.542969 128.9375 125.554688 129.203125 C 124.5625 129.46875 123.976562 130.484375 124.242188 131.472656 L 124.816406 133.621094 L 121.222656 141.425781 C 121.09375 141.703125 120.929688 141.960938 120.738281 142.195312 L 114.484375 143.914062 L 97.652344 145.632812 C 98.101562 144.804688 98.402344 143.875 98.503906 142.882812 C 98.671875 141.246094 98.300781 139.640625 97.453125 138.265625 L 114.355469 136.539062 C 115.007812 136.472656 115.578125 136.066406 115.851562 135.472656 L 124.144531 117.480469 C 126.265625 112.867188 128.269531 108.511719 133.066406 107.226562 C 135.910156 106.460938 138.898438 106.859375 141.472656 108.347656 C 144.046875 109.832031 145.882812 112.21875 146.644531 115.066406 L 154.761719 145.359375 C 155.097656 146.609375 155.242188 147.695312 155.242188 148.992188 Z M 125.5625 140.867188 L 126.320312 139.226562 L 126.675781 140.558594 Z M 45.375 88.152344 C 45.375 95.691406 51.507812 101.824219 59.046875 101.824219 C 66.585938 101.824219 72.722656 95.691406 72.722656 88.152344 C 72.722656 80.613281 66.585938 74.476562 59.046875 74.476562 C 51.507812 74.476562 45.375 80.613281 45.375 88.152344 Z M 69.011719 88.152344 C 69.011719 93.644531 64.542969 98.113281 59.046875 98.113281 C 53.554688 98.113281 49.082031 93.644531 49.082031 88.152344 C 49.082031 82.65625 53.554688 78.1875 59.046875 78.1875 C 64.542969 78.1875 69.011719 82.65625 69.011719 88.152344 Z M 114.28125 88.152344 C 114.28125 95.691406 120.414062 101.824219 127.953125 101.824219 C 135.492188 101.824219 141.628906 95.691406 141.628906 88.152344 C 141.628906 80.613281 135.492188 74.476562 127.953125 74.476562 C 120.414062 74.476562 114.28125 80.613281 114.28125 88.152344 Z M 137.917969 88.152344 C 137.917969 93.644531 133.449219 98.113281 127.953125 98.113281 C 122.460938 98.113281 117.992188 93.644531 117.992188 88.152344 C 117.992188 82.65625 122.460938 78.1875 127.953125 78.1875 C 133.449219 78.1875 137.917969 82.65625 137.917969 88.152344 Z M 137.917969 88.152344 " fill-opacity="1" fill-rule="nonzero"/></g></svg>