<svg xmlns="http://www.w3.org/2000/svg" xmlns:xlink="http://www.w3.org/1999/xlink" width="250" zoomAndPan="magnify" viewBox="0 0 187.5 187.499992" height="250" preserveAspectRatio="xMidYMid meet" version="1.0"><defs><clipPath id="355a21a177"><path d="M 121 101 L 158.949219 101 L 158.949219 157.175781 L 121 157.175781 Z M 121 101 " clip-rule="nonzero"/></clipPath></defs><g clip-path="url(#355a21a177)"><path fill="#000000" d="M 155.074219 103.089844 L 128.839844 101.351562 C 126.695312 101.203125 124.839844 102.835938 124.699219 104.980469 L 121.839844 148.191406 C 121.75 149.554688 122.210938 151.558594 124.914062 153.375 C 128.539062 155.800781 135.105469 157.128906 141.226562 157.128906 C 145.429688 157.128906 149.421875 156.503906 152.109375 155.179688 C 155.03125 153.738281 155.75 151.8125 155.839844 150.445312 L 158.699219 107.238281 C 158.839844 105.09375 157.214844 103.234375 155.074219 103.089844 Z M 152.972656 150.257812 C 152.917969 151.140625 152.199219 151.929688 150.839844 152.597656 C 145.171875 155.386719 131.761719 154.5 126.515625 150.984375 C 125.257812 150.140625 124.648438 149.265625 124.707031 148.382812 L 127.566406 105.171875 C 127.601562 104.632812 128.050781 104.21875 128.582031 104.21875 C 128.605469 104.21875 128.625 104.222656 128.648438 104.222656 L 154.882812 105.960938 C 155.445312 106 155.871094 106.484375 155.832031 107.046875 Z M 152.972656 150.257812 " fill-opacity="1" fill-rule="nonzero"/></g><path fill="#000000" d="M 155.898438 32.960938 C 151.960938 30.054688 144.722656 35.574219 139.609375 42.535156 C 136.84375 46.296875 133.453125 52.332031 133.582031 56.976562 C 133.214844 57.59375 133.535156 56.226562 131.785156 81.554688 C 130.226562 81.882812 129.050781 82.992188 128.957031 84.4375 L 128.242188 95.207031 C 128.191406 96 128.789062 96.6875 129.582031 96.738281 C 130.351562 96.757812 131.054688 96.195312 131.109375 95.398438 L 131.773438 85.34375 C 131.894531 85.070312 131.394531 84.285156 132.863281 84.324219 L 153.324219 85.679688 C 154.796875 85.777344 154.164062 86.679688 154.253906 87.058594 L 153.605469 96.890625 C 153.554688 97.683594 154.152344 98.367188 154.945312 98.421875 C 155.769531 98.46875 156.421875 97.851562 156.472656 97.082031 L 157.183594 86.3125 C 157.265625 85.058594 156.503906 83.703125 154.757812 83.082031 C 157.886719 35.125 157.839844 38.035156 157.660156 37.515625 C 157.730469 35.546875 157.21875 33.933594 155.898438 32.960938 Z M 136.898438 53.898438 C 137.71875 50.960938 139.503906 47.53125 141.925781 44.238281 C 145.230469 39.742188 151.921875 33.613281 154.195312 35.277344 C 155.699219 36.386719 154.539062 42.546875 149.296875 49.675781 C 144.058594 56.800781 138.53125 59.734375 137.027344 58.636719 C 136.46875 58.222656 136.101562 56.738281 136.898438 53.898438 Z M 151.902344 82.703125 L 134.664062 81.558594 L 136.003906 61.347656 C 140.878906 63.621094 148.355469 55.808594 151.613281 51.378906 C 152.570312 50.078125 153.457031 48.714844 154.242188 47.347656 Z M 151.902344 82.703125 " fill-opacity="1" fill-rule="nonzero"/><path fill="#000000" d="M 148.839844 130.613281 C 148.085938 130.578125 147.367188 131.15625 147.3125 131.949219 L 146.683594 141.472656 C 146.558594 143.386719 144.894531 144.816406 142.988281 144.714844 L 140.925781 144.578125 C 140.148438 144.546875 139.453125 145.121094 139.398438 145.917969 C 139.34375 146.707031 139.941406 147.394531 140.734375 147.445312 C 142.792969 147.582031 142.886719 147.601562 143.21875 147.601562 C 146.53125 147.601562 149.328125 145.015625 149.550781 141.664062 L 150.179688 132.140625 C 150.234375 131.351562 149.632812 130.664062 148.839844 130.613281 Z M 148.839844 130.613281 " fill-opacity="1" fill-rule="nonzero"/><path fill="#000000" d="M 73.515625 107.324219 L 91.371094 101.59375 C 92.292969 101.300781 93.148438 101.582031 93.292969 102.035156 C 93.535156 102.789062 94.34375 103.207031 95.097656 102.964844 C 95.855469 102.722656 96.269531 101.910156 96.027344 101.15625 C 95.375 99.117188 92.894531 98.078125 90.496094 98.855469 L 72.640625 104.585938 C 70.144531 105.386719 68.835938 107.691406 69.472656 109.679688 C 69.667969 110.289062 70.230469 110.675781 70.839844 110.675781 C 71.808594 110.675781 72.503906 109.730469 72.207031 108.796875 C 72.019531 108.222656 72.828125 107.546875 73.515625 107.324219 Z M 73.515625 107.324219 " fill-opacity="1" fill-rule="nonzero"/><path fill="#000000" d="M 118.683594 105.453125 C 94.164062 102.097656 44.457031 122.765625 48.960938 136.855469 L 53.335938 150.527344 C 54.738281 154.90625 60.714844 156.734375 68.71875 156.734375 C 82.292969 156.734375 100.039062 151.757812 113.132812 145.367188 C 113.84375 145.019531 114.140625 144.160156 113.792969 143.445312 C 113.445312 142.730469 112.585938 142.433594 111.875 142.78125 C 107.214844 145.054688 102.117188 147.082031 96.722656 148.816406 C 74.855469 155.828125 57.75 154.886719 56.074219 149.652344 L 53.371094 141.203125 C 56.011719 142.390625 59.695312 143.027344 64.410156 143.039062 C 64.453125 143.039062 64.492188 143.039062 64.535156 143.039062 C 69.984375 143.039062 76.359375 142.199219 83.082031 140.660156 C 82.910156 142.769531 84.484375 144.445312 86.445312 144.445312 C 87.394531 144.445312 86.875 144.417969 101.394531 139.816406 C 103.742188 139.0625 104.386719 136.125 102.902344 134.320312 C 108.714844 131.902344 113.984375 129.160156 118.238281 126.300781 C 118.894531 125.859375 119.070312 124.964844 118.628906 124.304688 C 118.183594 123.644531 117.292969 123.464844 116.632812 123.914062 C 110.335938 128.152344 101.710938 132.136719 92.351562 135.144531 C 82.261719 138.378906 72.390625 140.160156 64.535156 140.160156 C 64.496094 140.160156 64.457031 140.160156 64.417969 140.160156 C 57.285156 140.144531 52.53125 138.578125 51.699219 135.976562 C 48.371094 125.582031 94.199219 105.015625 118.292969 108.300781 C 119.082031 108.414062 119.804688 107.859375 119.910156 107.070312 C 120.019531 106.285156 119.46875 105.558594 118.683594 105.453125 Z M 118.683594 105.453125 " fill-opacity="1" fill-rule="nonzero"/><path fill="#000000" d="M 117.976562 113.273438 C 117.257812 113.308594 116.6875 113.863281 116.613281 114.554688 C 115.878906 116.128906 107.875 123.292969 90.355469 128.914062 C 72.78125 134.550781 62.148438 133.347656 60.65625 132.484375 C 60.199219 131.953125 59.40625 131.828125 58.796875 132.222656 C 58.128906 132.648438 57.9375 133.539062 58.367188 134.207031 C 59.113281 135.375 62.082031 136.101562 66.621094 136.101562 C 72.601562 136.101562 81.300781 134.839844 91.234375 131.652344 C 108.683594 126.054688 119.617188 117.839844 119.476562 114.648438 C 119.441406 113.855469 118.769531 113.210938 117.976562 113.273438 Z M 117.976562 113.273438 " fill-opacity="1" fill-rule="nonzero"/><path fill="#000000" d="M 57.6875 116.710938 C 58.042969 116.003906 57.753906 115.136719 57.046875 114.78125 C 47.875 110.183594 41.097656 102.3125 37.96875 92.621094 C 31.503906 72.605469 42.785156 50.964844 63.113281 44.378906 C 83.4375 37.792969 105.238281 48.71875 111.703125 68.734375 C 114.765625 78.230469 113.96875 88.40625 109.453125 97.390625 C 109.097656 98.101562 109.382812 98.964844 110.089844 99.320312 C 110.800781 99.679688 111.664062 99.390625 112.019531 98.683594 C 116.875 89.019531 117.734375 78.070312 114.433594 67.851562 C 107.484375 46.328125 84.066406 34.574219 62.226562 41.640625 C 40.394531 48.714844 28.285156 71.980469 35.234375 93.503906 C 38.601562 103.9375 45.894531 112.40625 55.757812 117.355469 C 56.46875 117.707031 57.332031 117.421875 57.6875 116.710938 Z M 57.6875 116.710938 " fill-opacity="1" fill-rule="nonzero"/><path fill="#000000" d="M 102.613281 96.714844 C 103.304688 97.097656 104.179688 96.859375 104.570312 96.164062 C 109.105469 88.066406 110.0625 78.835938 107.265625 70.171875 C 101.664062 52.824219 82.558594 43.425781 64.675781 49.214844 C 56.035156 52.015625 48.957031 57.921875 44.742188 65.84375 C 40.519531 73.785156 39.691406 82.78125 42.402344 91.179688 C 45.117188 99.585938 51.054688 106.394531 59.125 110.355469 C 59.84375 110.703125 60.703125 110.40625 61.046875 109.695312 C 61.398438 108.980469 61.101562 108.121094 60.390625 107.769531 C 53.027344 104.15625 47.609375 97.953125 45.136719 90.296875 C 42.664062 82.644531 43.425781 74.441406 47.277344 67.199219 C 51.140625 59.9375 57.632812 54.523438 65.558594 51.953125 C 81.933594 46.648438 99.417969 55.21875 104.535156 71.058594 C 107.082031 78.949219 106.203125 87.367188 102.0625 94.757812 C 101.675781 95.449219 101.921875 96.328125 102.613281 96.714844 Z M 102.613281 96.714844 " fill-opacity="1" fill-rule="nonzero"/><path fill="#000000" d="M 64.945312 98.375 C 65.675781 98.621094 66.503906 98.230469 66.757812 97.460938 L 78.941406 60.585938 C 79.191406 59.832031 78.78125 59.019531 78.027344 58.769531 C 77.277344 58.515625 76.460938 58.929688 76.214844 59.683594 L 64.03125 96.558594 C 63.78125 97.308594 64.191406 98.125 64.945312 98.375 Z M 64.945312 98.375 " fill-opacity="1" fill-rule="nonzero"/><path fill="#000000" d="M 65.195312 65.964844 C 64.441406 65.710938 63.628906 66.125 63.378906 66.878906 L 57.003906 86.179688 C 56.753906 86.933594 57.164062 87.746094 57.917969 87.996094 C 58.648438 88.246094 59.476562 87.851562 59.730469 87.082031 L 66.105469 67.78125 C 66.355469 67.027344 65.949219 66.214844 65.195312 65.964844 Z M 65.195312 65.964844 " fill-opacity="1" fill-rule="nonzero"/></svg>