<svg xmlns="http://www.w3.org/2000/svg" xmlns:xlink="http://www.w3.org/1999/xlink" width="250" zoomAndPan="magnify" viewBox="0 0 187.5 187.499992" height="250" preserveAspectRatio="xMidYMid meet" version="1.0"><defs><clipPath id="03720d6524"><path d="M 109 97 L 130.902344 97 L 130.902344 129.777344 L 109 129.777344 Z M 109 97 " clip-rule="nonzero"/></clipPath><clipPath id="1717adf926"><path d="M 113 58 L 130.902344 58 L 130.902344 97 L 113 97 Z M 113 58 " clip-rule="nonzero"/></clipPath><clipPath id="c69f5653a1"><path d="M 67 100 L 109 100 L 109 129.777344 L 67 129.777344 Z M 67 100 " clip-rule="nonzero"/></clipPath></defs><g clip-path="url(#03720d6524)"><path fill="#000000" d="M 128.683594 98.917969 L 113.695312 97.925781 C 112.46875 97.839844 111.410156 98.773438 111.328125 100 L 109.695312 124.652344 C 109.644531 125.429688 109.90625 126.574219 111.453125 127.609375 C 113.523438 128.996094 117.273438 129.753906 120.773438 129.753906 C 123.171875 129.753906 125.457031 129.394531 126.992188 128.640625 C 128.660156 127.816406 129.070312 126.71875 129.125 125.941406 L 130.757812 101.285156 C 130.835938 100.0625 129.910156 99 128.683594 98.917969 Z M 127.484375 125.832031 C 127.453125 126.335938 127.042969 126.785156 126.265625 127.167969 C 123.027344 128.757812 115.363281 128.25 112.367188 126.246094 C 111.648438 125.765625 111.300781 125.265625 111.332031 124.761719 L 112.964844 100.105469 C 112.984375 99.800781 113.242188 99.5625 113.546875 99.5625 C 113.558594 99.5625 113.574219 99.5625 113.585938 99.5625 L 128.574219 100.558594 C 128.898438 100.578125 129.140625 100.855469 129.117188 101.175781 Z M 127.484375 125.832031 " fill-opacity="1" fill-rule="nonzero"/></g><g clip-path="url(#1717adf926)"><path fill="#000000" d="M 129.15625 58.90625 C 126.90625 57.246094 122.769531 60.394531 119.847656 64.367188 C 118.269531 66.511719 116.332031 69.957031 116.402344 72.609375 C 116.195312 72.957031 116.375 72.179688 115.378906 86.628906 C 114.488281 86.816406 113.816406 87.449219 113.761719 88.277344 L 113.351562 94.421875 C 113.324219 94.875 113.664062 95.265625 114.117188 95.292969 C 114.558594 95.304688 114.960938 94.984375 114.992188 94.53125 L 115.371094 88.792969 C 115.441406 88.636719 115.152344 88.191406 115.992188 88.210938 L 127.6875 88.984375 C 128.527344 89.042969 128.167969 89.554688 128.21875 89.773438 L 127.847656 95.382812 C 127.816406 95.835938 128.160156 96.222656 128.613281 96.253906 C 129.082031 96.28125 129.457031 95.929688 129.484375 95.492188 L 129.890625 89.34375 C 129.9375 88.632812 129.5 87.855469 128.503906 87.503906 C 130.292969 60.136719 130.265625 61.800781 130.164062 61.5 C 130.203125 60.378906 129.910156 59.460938 129.15625 58.90625 Z M 118.296875 70.851562 C 118.769531 69.175781 119.789062 67.21875 121.171875 65.339844 C 123.058594 62.773438 126.882812 59.277344 128.183594 60.226562 C 129.042969 60.859375 128.378906 64.375 125.386719 68.441406 C 122.390625 72.507812 119.230469 74.179688 118.375 73.554688 C 118.054688 73.320312 117.84375 72.46875 118.296875 70.851562 Z M 126.875 87.285156 L 117.023438 86.632812 L 117.789062 75.101562 C 120.574219 76.398438 124.847656 71.941406 126.707031 69.414062 C 127.253906 68.671875 127.761719 67.894531 128.210938 67.113281 Z M 126.875 87.285156 " fill-opacity="1" fill-rule="nonzero"/></g><path fill="#000000" d="M 125.125 114.621094 C 124.691406 114.601562 124.28125 114.933594 124.25 115.386719 L 123.890625 120.820312 C 123.820312 121.910156 122.867188 122.726562 121.78125 122.671875 L 120.601562 122.589844 C 120.15625 122.574219 119.757812 122.902344 119.726562 123.355469 C 119.695312 123.808594 120.039062 124.199219 120.492188 124.226562 C 121.667969 124.304688 121.722656 124.316406 121.910156 124.316406 C 123.804688 124.316406 125.402344 122.84375 125.53125 120.929688 L 125.890625 115.496094 C 125.917969 115.042969 125.578125 114.652344 125.125 114.621094 Z M 125.125 114.621094 " fill-opacity="1" fill-rule="nonzero"/><path fill="#000000" d="M 82.082031 101.335938 L 92.285156 98.066406 C 92.8125 97.898438 93.300781 98.058594 93.382812 98.316406 C 93.519531 98.746094 93.980469 98.984375 94.414062 98.847656 C 94.84375 98.710938 95.082031 98.246094 94.945312 97.816406 C 94.570312 96.652344 93.15625 96.058594 91.78125 96.503906 L 81.578125 99.773438 C 80.15625 100.226562 79.40625 101.542969 79.769531 102.679688 C 79.882812 103.027344 80.203125 103.25 80.550781 103.25 C 81.105469 103.25 81.503906 102.707031 81.332031 102.175781 C 81.226562 101.847656 81.6875 101.460938 82.082031 101.335938 Z M 82.082031 101.335938 " fill-opacity="1" fill-rule="nonzero"/><g clip-path="url(#c69f5653a1)"><path fill="#000000" d="M 107.890625 100.265625 C 93.878906 98.351562 65.476562 110.144531 68.050781 118.183594 L 70.550781 125.984375 C 71.351562 128.484375 74.765625 129.527344 79.339844 129.527344 C 87.09375 129.527344 97.238281 126.6875 104.71875 123.042969 C 105.125 122.84375 105.296875 122.351562 105.097656 121.945312 C 104.898438 121.539062 104.40625 121.367188 104 121.566406 C 101.335938 122.863281 98.425781 124.019531 95.34375 125.007812 C 82.847656 129.011719 73.070312 128.472656 72.113281 125.484375 L 70.570312 120.667969 C 72.078125 121.34375 74.183594 121.707031 76.878906 121.710938 C 76.902344 121.710938 76.925781 121.710938 76.949219 121.710938 C 80.0625 121.710938 83.707031 121.234375 87.546875 120.355469 C 87.449219 121.558594 88.347656 122.515625 89.46875 122.515625 C 90.011719 122.515625 89.714844 122.5 98.011719 119.875 C 99.351562 119.445312 99.722656 117.769531 98.871094 116.738281 C 102.195312 115.359375 105.207031 113.796875 107.636719 112.164062 C 108.011719 111.910156 108.113281 111.398438 107.859375 111.023438 C 107.605469 110.648438 107.097656 110.546875 106.71875 110.800781 C 103.121094 113.21875 98.191406 115.492188 92.84375 117.207031 C 87.078125 119.054688 81.4375 120.070312 76.949219 120.070312 C 76.925781 120.070312 76.902344 120.070312 76.882812 120.070312 C 72.808594 120.0625 70.089844 119.167969 69.613281 117.683594 C 67.710938 111.75 93.898438 100.019531 107.667969 101.894531 C 108.121094 101.957031 108.53125 101.640625 108.59375 101.191406 C 108.652344 100.742188 108.339844 100.328125 107.890625 100.265625 Z M 107.890625 100.265625 " fill-opacity="1" fill-rule="nonzero"/></g><path fill="#000000" d="M 107.488281 104.730469 C 107.078125 104.75 106.75 105.066406 106.707031 105.460938 C 106.289062 106.359375 101.714844 110.445312 91.703125 113.652344 C 81.660156 116.867188 75.585938 116.183594 74.734375 115.691406 C 74.46875 115.390625 74.015625 115.316406 73.671875 115.539062 C 73.289062 115.785156 73.179688 116.292969 73.421875 116.675781 C 73.851562 117.339844 75.546875 117.753906 78.140625 117.753906 C 81.558594 117.753906 86.53125 117.035156 92.203125 115.214844 C 102.175781 112.019531 108.425781 107.335938 108.34375 105.515625 C 108.324219 105.0625 107.9375 104.691406 107.488281 104.730469 Z M 107.488281 104.730469 " fill-opacity="1" fill-rule="nonzero"/><path fill="#000000" d="M 73.035156 106.691406 C 73.238281 106.285156 73.074219 105.792969 72.667969 105.589844 C 67.429688 102.964844 63.554688 98.472656 61.765625 92.945312 C 58.074219 81.523438 64.519531 69.175781 76.136719 65.417969 C 87.75 61.660156 100.207031 67.894531 103.902344 79.316406 C 105.652344 84.734375 105.195312 90.539062 102.617188 95.667969 C 102.414062 96.070312 102.574219 96.5625 102.980469 96.769531 C 103.386719 96.972656 103.878906 96.808594 104.082031 96.402344 C 106.859375 90.890625 107.347656 84.644531 105.464844 78.8125 C 101.492188 66.53125 88.109375 59.824219 75.628906 63.855469 C 63.152344 67.894531 56.234375 81.167969 60.207031 93.449219 C 62.128906 99.402344 66.296875 104.234375 71.933594 107.058594 C 72.339844 107.261719 72.832031 107.097656 73.035156 106.691406 Z M 73.035156 106.691406 " fill-opacity="1" fill-rule="nonzero"/><path fill="#000000" d="M 98.707031 95.28125 C 99.101562 95.5 99.601562 95.363281 99.824219 94.96875 C 102.417969 90.347656 102.964844 85.078125 101.367188 80.136719 C 98.164062 70.238281 87.25 64.875 77.027344 68.179688 C 72.089844 69.777344 68.046875 73.144531 65.640625 77.667969 C 63.226562 82.199219 62.753906 87.332031 64.300781 92.125 C 65.851562 96.917969 69.246094 100.804688 73.859375 103.0625 C 74.269531 103.265625 74.757812 103.09375 74.957031 102.6875 C 75.15625 102.28125 74.988281 101.789062 74.582031 101.589844 C 70.371094 99.527344 67.277344 95.988281 65.863281 91.621094 C 64.453125 87.253906 64.886719 82.574219 67.089844 78.4375 C 69.292969 74.296875 73.003906 71.207031 77.535156 69.742188 C 86.890625 66.714844 96.882812 71.605469 99.804688 80.640625 C 101.261719 85.144531 100.761719 89.945312 98.394531 94.164062 C 98.171875 94.558594 98.3125 95.058594 98.707031 95.28125 Z M 98.707031 95.28125 " fill-opacity="1" fill-rule="nonzero"/><path fill="#000000" d="M 77.183594 96.226562 C 77.601562 96.367188 78.074219 96.144531 78.21875 95.707031 L 85.179688 74.667969 C 85.324219 74.238281 85.089844 73.773438 84.660156 73.628906 C 84.230469 73.484375 83.765625 73.71875 83.621094 74.152344 L 76.660156 95.191406 C 76.519531 95.621094 76.753906 96.085938 77.183594 96.226562 Z M 77.183594 96.226562 " fill-opacity="1" fill-rule="nonzero"/><path fill="#000000" d="M 77.324219 77.734375 C 76.894531 77.589844 76.429688 77.828125 76.289062 78.257812 L 72.644531 89.269531 C 72.503906 89.699219 72.738281 90.164062 73.167969 90.308594 C 73.585938 90.449219 74.058594 90.222656 74.203125 89.785156 L 77.847656 78.773438 C 77.988281 78.34375 77.757812 77.878906 77.324219 77.734375 Z M 77.324219 77.734375 " fill-opacity="1" fill-rule="nonzero"/></svg>