<svg xmlns="http://www.w3.org/2000/svg" xmlns:xlink="http://www.w3.org/1999/xlink" width="125" zoomAndPan="magnify" viewBox="0 0 94.079994 101.04" height="125" preserveAspectRatio="xMidYMid meet" version="1.0"><defs><clipPath id="335bc48222"><path d="M 54 48 L 64.988281 48 L 64.988281 64.816406 L 54 64.816406 Z M 54 48 " clip-rule="nonzero"/></clipPath><clipPath id="041358ef7e"><path d="M 56 29 L 64.988281 29 L 64.988281 48 L 56 48 Z M 56 29 " clip-rule="nonzero"/></clipPath><clipPath id="f5f9a2a027"><path d="M 33 49 L 54 49 L 54 64.816406 L 33 64.816406 Z M 33 49 " clip-rule="nonzero"/></clipPath></defs><g clip-path="url(#335bc48222)"><path fill="#000000" d="M 63.890625 49.339844 L 56.445312 48.839844 C 55.839844 48.796875 55.3125 49.265625 55.273438 49.878906 L 54.460938 62.246094 C 54.433594 62.636719 54.566406 63.210938 55.332031 63.730469 C 56.359375 64.425781 58.222656 64.804688 59.960938 64.804688 C 61.152344 64.804688 62.285156 64.625 63.046875 64.246094 C 63.878906 63.835938 64.082031 63.28125 64.105469 62.890625 L 64.917969 50.527344 C 64.957031 49.910156 64.496094 49.378906 63.890625 49.339844 Z M 63.292969 62.835938 C 63.277344 63.089844 63.074219 63.316406 62.6875 63.507812 C 61.082031 64.304688 57.273438 64.050781 55.785156 63.046875 C 55.429688 62.804688 55.257812 62.554688 55.273438 62.300781 L 56.085938 49.933594 C 56.09375 49.78125 56.222656 49.660156 56.375 49.660156 C 56.378906 49.660156 56.386719 49.664062 56.394531 49.664062 L 63.835938 50.160156 C 63.996094 50.171875 64.113281 50.308594 64.105469 50.472656 Z M 63.292969 62.835938 " fill-opacity="1" fill-rule="nonzero"/></g><g clip-path="url(#041358ef7e)"><path fill="#000000" d="M 64.125 29.265625 C 63.007812 28.4375 60.953125 30.015625 59.503906 32.007812 C 58.71875 33.082031 57.757812 34.8125 57.792969 36.140625 C 57.6875 36.316406 57.777344 35.925781 57.28125 43.175781 C 56.839844 43.269531 56.507812 43.585938 56.480469 44 L 56.277344 47.082031 C 56.261719 47.308594 56.433594 47.503906 56.65625 47.519531 C 56.875 47.527344 57.074219 47.363281 57.089844 47.136719 L 57.277344 44.257812 C 57.3125 44.179688 57.171875 43.957031 57.589844 43.96875 L 63.394531 44.355469 C 63.8125 44.382812 63.632812 44.640625 63.65625 44.75 L 63.472656 47.5625 C 63.457031 47.792969 63.628906 47.988281 63.851562 48 C 64.085938 48.015625 64.273438 47.839844 64.285156 47.617188 L 64.488281 44.535156 C 64.511719 44.179688 64.292969 43.789062 63.800781 43.613281 C 64.6875 29.886719 64.675781 30.71875 64.621094 30.570312 C 64.644531 30.007812 64.496094 29.546875 64.125 29.265625 Z M 58.734375 35.257812 C 58.964844 34.417969 59.472656 33.4375 60.160156 32.496094 C 61.097656 31.207031 62.996094 29.453125 63.640625 29.929688 C 64.066406 30.246094 63.738281 32.011719 62.25 34.050781 C 60.765625 36.089844 59.195312 36.929688 58.769531 36.617188 C 58.613281 36.496094 58.507812 36.070312 58.734375 35.257812 Z M 62.988281 43.503906 L 58.097656 43.175781 L 58.480469 37.390625 C 59.863281 38.042969 61.984375 35.804688 62.90625 34.539062 C 63.179688 34.164062 63.429688 33.777344 63.652344 33.386719 Z M 62.988281 43.503906 " fill-opacity="1" fill-rule="nonzero"/></g><path fill="#000000" d="M 62.121094 57.214844 C 61.90625 57.207031 61.703125 57.371094 61.6875 57.597656 L 61.507812 60.324219 C 61.472656 60.871094 61 61.28125 60.460938 61.25 L 59.875 61.210938 C 59.65625 61.203125 59.457031 61.367188 59.441406 61.59375 C 59.425781 61.820312 59.597656 62.019531 59.820312 62.035156 C 60.40625 62.070312 60.433594 62.078125 60.527344 62.078125 C 61.464844 62.078125 62.257812 61.339844 62.324219 60.378906 L 62.5 57.652344 C 62.515625 57.425781 62.347656 57.230469 62.121094 57.214844 Z M 62.121094 57.214844 " fill-opacity="1" fill-rule="nonzero"/><path fill="#000000" d="M 40.75 50.550781 L 45.816406 48.910156 C 46.078125 48.828125 46.320312 48.90625 46.363281 49.035156 C 46.429688 49.253906 46.660156 49.371094 46.875 49.300781 C 47.089844 49.234375 47.207031 49 47.136719 48.785156 C 46.953125 48.203125 46.25 47.90625 45.566406 48.125 L 40.503906 49.765625 C 39.796875 49.996094 39.421875 50.65625 39.605469 51.222656 C 39.660156 51.398438 39.820312 51.511719 39.992188 51.511719 C 40.265625 51.511719 40.464844 51.238281 40.378906 50.972656 C 40.328125 50.808594 40.554688 50.613281 40.75 50.550781 Z M 40.75 50.550781 " fill-opacity="1" fill-rule="nonzero"/><g clip-path="url(#f5f9a2a027)"><path fill="#000000" d="M 53.566406 50.015625 C 46.609375 49.054688 32.507812 54.96875 33.785156 59.003906 L 35.027344 62.914062 C 35.425781 64.167969 37.121094 64.691406 39.390625 64.691406 C 43.242188 64.691406 48.277344 63.265625 51.992188 61.4375 C 52.191406 61.339844 52.277344 61.09375 52.179688 60.886719 C 52.078125 60.683594 51.835938 60.597656 51.632812 60.699219 C 50.3125 61.347656 48.867188 61.929688 47.335938 62.425781 C 41.132812 64.433594 36.277344 64.164062 35.800781 62.664062 L 35.035156 60.246094 C 35.785156 60.585938 36.832031 60.769531 38.167969 60.773438 C 38.179688 60.773438 38.191406 60.773438 38.203125 60.773438 C 39.75 60.773438 41.558594 60.53125 43.464844 60.089844 C 43.417969 60.695312 43.863281 61.175781 44.421875 61.175781 C 44.6875 61.175781 44.542969 61.167969 48.660156 59.847656 C 49.328125 59.632812 49.511719 58.792969 49.089844 58.277344 C 50.738281 57.585938 52.234375 56.800781 53.4375 55.980469 C 53.625 55.855469 53.675781 55.597656 53.550781 55.410156 C 53.425781 55.222656 53.171875 55.171875 52.984375 55.296875 C 51.199219 56.511719 48.75 57.652344 46.09375 58.511719 C 43.230469 59.4375 40.433594 59.949219 38.203125 59.949219 C 38.191406 59.949219 38.179688 59.949219 38.171875 59.949219 C 36.148438 59.941406 34.796875 59.496094 34.5625 58.75 C 33.617188 55.773438 46.621094 49.890625 53.453125 50.832031 C 53.679688 50.863281 53.882812 50.703125 53.914062 50.476562 C 53.945312 50.253906 53.789062 50.046875 53.566406 50.015625 Z M 53.566406 50.015625 " fill-opacity="1" fill-rule="nonzero"/></g><path fill="#000000" d="M 53.363281 52.253906 C 53.160156 52.261719 53 52.421875 52.976562 52.621094 C 52.769531 53.070312 50.5 55.121094 45.527344 56.730469 C 40.542969 58.34375 37.527344 58 37.101562 57.75 C 36.972656 57.601562 36.75 57.5625 36.574219 57.675781 C 36.386719 57.796875 36.332031 58.054688 36.453125 58.246094 C 36.664062 58.578125 37.507812 58.785156 38.796875 58.785156 C 40.492188 58.785156 42.960938 58.425781 45.777344 57.511719 C 50.730469 55.910156 53.832031 53.558594 53.789062 52.644531 C 53.78125 52.417969 53.589844 52.234375 53.363281 52.253906 Z M 53.363281 52.253906 " fill-opacity="1" fill-rule="nonzero"/><path fill="#000000" d="M 36.261719 53.238281 C 36.359375 53.035156 36.28125 52.785156 36.078125 52.683594 C 33.476562 51.367188 31.554688 49.117188 30.667969 46.339844 C 28.832031 40.613281 32.03125 34.421875 37.800781 32.535156 C 43.566406 30.648438 49.75 33.777344 51.585938 39.503906 C 52.453125 42.222656 52.226562 45.136719 50.945312 47.707031 C 50.847656 47.910156 50.925781 48.15625 51.128906 48.261719 C 51.328125 48.363281 51.574219 48.28125 51.675781 48.078125 C 53.054688 45.3125 53.296875 42.175781 52.359375 39.253906 C 50.386719 33.09375 43.742188 29.730469 37.550781 31.75 C 31.355469 33.777344 27.917969 40.433594 29.890625 46.59375 C 30.847656 49.582031 32.914062 52.003906 35.714844 53.421875 C 35.914062 53.523438 36.160156 53.441406 36.261719 53.238281 Z M 36.261719 53.238281 " fill-opacity="1" fill-rule="nonzero"/><path fill="#000000" d="M 49.007812 47.515625 C 49.203125 47.625 49.449219 47.554688 49.5625 47.355469 C 50.847656 45.039062 51.121094 42.398438 50.328125 39.917969 C 48.738281 34.953125 43.316406 32.261719 38.242188 33.917969 C 35.792969 34.71875 33.785156 36.410156 32.589844 38.679688 C 31.390625 40.949219 31.15625 43.527344 31.925781 45.929688 C 32.695312 48.335938 34.378906 50.285156 36.667969 51.417969 C 36.871094 51.519531 37.117188 51.433594 37.214844 51.230469 C 37.3125 51.023438 37.230469 50.777344 37.027344 50.679688 C 34.9375 49.644531 33.402344 47.867188 32.699219 45.675781 C 32 43.488281 32.214844 41.140625 33.308594 39.066406 C 34.402344 36.988281 36.246094 35.4375 38.492188 34.703125 C 43.140625 33.183594 48.101562 35.636719 49.550781 40.171875 C 50.273438 42.429688 50.023438 44.839844 48.851562 46.953125 C 48.738281 47.152344 48.808594 47.402344 49.007812 47.515625 Z M 49.007812 47.515625 " fill-opacity="1" fill-rule="nonzero"/><path fill="#000000" d="M 38.320312 47.988281 C 38.527344 48.058594 38.761719 47.945312 38.835938 47.726562 L 42.289062 37.171875 C 42.359375 36.957031 42.246094 36.726562 42.03125 36.652344 C 41.816406 36.582031 41.585938 36.699219 41.515625 36.914062 L 38.0625 47.46875 C 37.988281 47.683594 38.105469 47.917969 38.320312 47.988281 Z M 38.320312 47.988281 " fill-opacity="1" fill-rule="nonzero"/><path fill="#000000" d="M 38.390625 38.714844 C 38.175781 38.640625 37.945312 38.757812 37.875 38.972656 L 36.066406 44.5 C 35.996094 44.714844 36.113281 44.949219 36.324219 45.019531 C 36.535156 45.089844 36.769531 44.976562 36.839844 44.757812 L 38.648438 39.234375 C 38.71875 39.015625 38.605469 38.785156 38.390625 38.714844 Z M 38.390625 38.714844 " fill-opacity="1" fill-rule="nonzero"/></svg>