<svg xmlns="http://www.w3.org/2000/svg" xmlns:xlink="http://www.w3.org/1999/xlink" width="250" zoomAndPan="magnify" viewBox="0 0 187.5 187.499992" height="250" preserveAspectRatio="xMidYMid meet" version="1.0"><defs><clipPath id="df2efe218b"><path d="M 53 46.457031 L 105 46.457031 L 105 113 L 53 113 Z M 53 46.457031 " clip-rule="nonzero"/></clipPath><clipPath id="f36c0ef350"><path d="M 28.050781 107 L 149 107 L 149 129 L 28.050781 129 Z M 28.050781 107 " clip-rule="nonzero"/></clipPath><clipPath id="b04834bcfe"><path d="M 108 127 L 158.949219 127 L 158.949219 140.707031 L 108 140.707031 Z M 108 127 " clip-rule="nonzero"/></clipPath></defs><g clip-path="url(#df2efe218b)"><path fill="#000000" d="M 60.066406 109.277344 C 61.191406 108.683594 62.273438 108 63.296875 107.242188 C 63.804688 106.863281 64.3125 106.453125 64.789062 106.03125 C 65.265625 105.597656 65.71875 105.144531 66.148438 104.65625 C 66.582031 104.179688 66.980469 103.664062 67.335938 103.121094 C 67.695312 102.582031 68.039062 102.015625 68.320312 101.421875 C 68.894531 100.242188 69.292969 98.988281 69.5625 97.722656 C 69.832031 96.457031 69.972656 95.167969 70.050781 93.890625 C 70.136719 92.613281 70.167969 91.347656 70.199219 90.09375 C 70.242188 88.835938 70.296875 87.59375 70.417969 86.359375 C 70.535156 85.136719 70.730469 83.925781 71.042969 82.757812 C 71.367188 81.597656 71.820312 80.496094 72.425781 79.445312 C 73.019531 78.40625 73.742188 77.421875 74.542969 76.492188 C 76.128906 74.617188 77.976562 72.929688 79.769531 71.113281 C 80.214844 70.660156 80.65625 70.191406 81.101562 69.71875 C 81.554688 69.21875 81.976562 68.667969 82.332031 68.09375 C 83.066406 66.945312 83.574219 65.691406 83.953125 64.4375 C 84.328125 63.171875 84.566406 61.902344 84.792969 60.648438 C 85.019531 59.394531 85.226562 58.160156 85.484375 56.957031 C 85.753906 55.757812 86.078125 54.589844 86.554688 53.496094 C 86.609375 53.355469 86.671875 53.226562 86.738281 53.085938 L 86.835938 52.878906 L 86.933594 52.695312 C 86.996094 52.566406 87.074219 52.445312 87.136719 52.328125 C 87.203125 52.207031 87.289062 52.089844 87.363281 51.96875 C 87.6875 51.503906 88.066406 51.0625 88.476562 50.660156 C 90.152344 49.058594 92.453125 48.0625 94.773438 47.976562 C 95.941406 47.933594 97.109375 48.117188 98.1875 48.53125 C 98.457031 48.625 98.730469 48.757812 98.988281 48.875 C 99.246094 49.003906 99.484375 49.144531 99.734375 49.308594 C 100.207031 49.621094 100.652344 50 101.039062 50.433594 C 101.828125 51.289062 102.433594 52.328125 102.867188 53.453125 C 103.296875 54.566406 103.578125 55.769531 103.742188 56.980469 C 103.902344 58.191406 103.945312 59.425781 103.871094 60.660156 C 103.804688 61.894531 103.621094 63.117188 103.320312 64.316406 C 103.167969 64.914062 102.984375 65.507812 102.769531 66.070312 C 102.542969 66.644531 102.28125 67.183594 101.9375 67.691406 C 101.265625 68.710938 100.390625 69.597656 99.398438 70.34375 C 98.40625 71.082031 97.28125 71.652344 96.09375 72.03125 C 94.90625 72.410156 93.640625 72.574219 92.386719 72.421875 C 93.628906 72.648438 94.925781 72.574219 96.15625 72.269531 C 97.398438 71.96875 98.578125 71.425781 99.648438 70.722656 C 100.714844 70.019531 101.6875 69.132812 102.445312 68.070312 C 102.832031 67.542969 103.148438 66.957031 103.417969 66.375 C 103.6875 65.777344 103.902344 65.171875 104.085938 64.554688 C 104.464844 63.320312 104.691406 62.042969 104.8125 60.757812 C 104.929688 59.46875 104.941406 58.171875 104.820312 56.871094 C 104.703125 55.574219 104.441406 54.285156 103.988281 53.042969 C 103.546875 51.796875 102.898438 50.597656 102.003906 49.566406 C 101.558594 49.058594 101.050781 48.582031 100.488281 48.195312 C 100.207031 48 99.917969 47.816406 99.613281 47.652344 C 99.3125 47.492188 99.011719 47.351562 98.695312 47.21875 C 97.433594 46.710938 96.070312 46.472656 94.710938 46.503906 C 93.347656 46.539062 92.011719 46.832031 90.757812 47.339844 C 89.503906 47.847656 88.335938 48.574219 87.34375 49.503906 C 86.847656 49.96875 86.382812 50.488281 85.992188 51.050781 C 85.894531 51.191406 85.796875 51.332031 85.710938 51.484375 C 85.625 51.636719 85.527344 51.777344 85.453125 51.9375 L 85.335938 52.164062 L 85.226562 52.390625 C 85.152344 52.542969 85.085938 52.695312 85.019531 52.847656 C 84.480469 54.070312 84.125 55.347656 83.84375 56.601562 C 83.269531 59.125 82.988281 61.632812 82.296875 63.949219 C 81.953125 65.105469 81.511719 66.210938 80.882812 67.195312 C 80.570312 67.691406 80.226562 68.148438 79.835938 68.589844 C 79.425781 69.046875 79.003906 69.5 78.5625 69.945312 C 77.695312 70.84375 76.789062 71.71875 75.894531 72.617188 C 74.996094 73.527344 74.109375 74.457031 73.289062 75.453125 C 72.46875 76.457031 71.703125 77.519531 71.066406 78.675781 C 70.742188 79.25 70.460938 79.855469 70.210938 80.472656 C 69.972656 81.089844 69.757812 81.71875 69.59375 82.367188 C 69.269531 83.644531 69.078125 84.941406 68.992188 86.230469 C 68.894531 87.515625 68.871094 88.792969 68.871094 90.058594 C 68.859375 92.59375 68.871094 95.09375 68.460938 97.515625 C 68.257812 98.726562 67.921875 99.90625 67.433594 101.011719 C 66.9375 102.125 66.289062 103.164062 65.511719 104.117188 C 65.125 104.59375 64.710938 105.046875 64.269531 105.480469 C 63.828125 105.914062 63.363281 106.324219 62.886719 106.714844 C 61.925781 107.503906 60.890625 108.207031 59.832031 108.867188 C 58.761719 109.527344 57.660156 110.121094 56.535156 110.695312 C 55.414062 111.269531 54.277344 111.820312 53.132812 112.351562 C 54.308594 111.898438 55.476562 111.433594 56.644531 110.921875 C 57.808594 110.425781 58.945312 109.882812 60.066406 109.277344 Z M 60.066406 109.277344 " fill-opacity="1" fill-rule="nonzero"/></g><path fill="#000000" d="M 104.074219 98.199219 L 103.449219 97.222656 L 103.289062 96.984375 L 103.148438 96.738281 C 102.964844 96.402344 102.769531 96.066406 102.574219 95.71875 C 102.390625 95.375 102.21875 95.027344 102.046875 94.679688 C 101.957031 94.507812 101.863281 94.335938 101.785156 94.160156 L 101.546875 93.632812 C 101.386719 93.273438 101.214844 92.917969 101.074219 92.558594 C 99.839844 89.671875 98.816406 86.628906 97.550781 83.652344 C 96.914062 82.171875 96.203125 80.699219 95.378906 79.292969 C 94.9375 78.613281 94.527344 77.910156 94.019531 77.269531 C 93.554688 76.609375 92.992188 76.015625 92.453125 75.417969 C 92.648438 75.777344 92.851562 76.121094 93.058594 76.46875 C 93.273438 76.804688 93.445312 77.171875 93.621094 77.519531 C 93.996094 78.222656 94.3125 78.957031 94.636719 79.671875 C 95.25 81.132812 95.789062 82.625 96.296875 84.128906 C 97.3125 87.148438 98.222656 90.234375 99.507812 93.242188 C 100.164062 94.734375 100.878906 96.21875 101.785156 97.613281 L 101.949219 97.871094 L 102.132812 98.121094 L 102.488281 98.628906 L 102.855469 99.140625 C 102.972656 99.300781 103.113281 99.464844 103.246094 99.625 C 103.773438 100.265625 104.335938 100.882812 104.941406 101.445312 C 107.339844 103.714844 110.277344 105.394531 113.417969 106.152344 C 110.535156 104.722656 107.988281 102.808594 105.902344 100.503906 C 105.382812 99.929688 104.898438 99.324219 104.441406 98.695312 C 104.304688 98.511719 104.183594 98.359375 104.074219 98.199219 Z M 104.074219 98.199219 " fill-opacity="1" fill-rule="nonzero"/><path fill="#000000" d="M 98.242188 103.878906 C 100.683594 106.109375 103.65625 107.730469 106.796875 108.433594 C 103.890625 107.050781 101.300781 105.1875 99.183594 102.914062 C 98.652344 102.351562 98.15625 101.746094 97.691406 101.140625 C 97.574219 100.988281 97.453125 100.839844 97.347656 100.675781 L 97.023438 100.1875 L 96.699219 99.710938 L 96.535156 99.472656 L 96.386719 99.226562 C 96.191406 98.890625 95.984375 98.554688 95.789062 98.21875 C 95.597656 97.882812 95.421875 97.527344 95.238281 97.179688 C 95.152344 97.007812 95.054688 96.835938 94.96875 96.660156 L 94.722656 96.128906 C 94.558594 95.773438 94.375 95.425781 94.222656 95.058594 C 92.9375 92.191406 91.859375 89.171875 90.539062 86.207031 C 89.871094 84.734375 89.136719 83.277344 88.292969 81.890625 C 87.839844 81.207031 87.417969 80.527344 86.890625 79.886719 C 86.414062 79.226562 85.84375 78.65625 85.289062 78.070312 C 85.496094 78.417969 85.703125 78.761719 85.90625 79.109375 C 86.121094 79.445312 86.304688 79.800781 86.488281 80.160156 C 86.878906 80.851562 87.203125 81.585938 87.546875 82.289062 C 88.1875 83.742188 88.757812 85.222656 89.289062 86.714844 C 90.355469 89.714844 91.320312 92.777344 92.648438 95.761719 C 93.328125 97.246094 94.074219 98.71875 95.003906 100.089844 L 95.175781 100.351562 L 95.359375 100.601562 L 96.09375 101.59375 C 96.222656 101.757812 96.363281 101.921875 96.492188 102.070312 C 97.054688 102.722656 97.628906 103.316406 98.242188 103.878906 Z M 98.242188 103.878906 " fill-opacity="1" fill-rule="nonzero"/><path fill="#000000" d="M 84.070312 107.363281 C 84.046875 108.347656 84.027344 109.320312 83.953125 110.296875 L 83.929688 110.664062 L 83.886719 111.03125 C 83.863281 111.28125 83.820312 111.507812 83.789062 111.757812 C 83.769531 111.875 83.746094 111.996094 83.726562 112.113281 L 83.691406 112.296875 L 83.648438 112.46875 C 83.617188 112.589844 83.59375 112.71875 83.550781 112.828125 C 83.507812 112.945312 83.476562 113.066406 83.433594 113.183594 C 83.59375 112.988281 83.757812 112.796875 83.886719 112.566406 L 83.984375 112.40625 L 84.070312 112.234375 C 84.125 112.113281 84.1875 112.003906 84.242188 111.886719 C 84.351562 111.660156 84.449219 111.421875 84.535156 111.171875 L 84.664062 110.804688 L 84.785156 110.4375 C 85.074219 109.460938 85.269531 108.457031 85.410156 107.460938 C 85.703125 105.46875 85.832031 103.476562 85.917969 101.496094 C 85.929688 101.304688 85.9375 101.109375 85.9375 100.914062 C 86.078125 101.023438 86.210938 101.128906 86.347656 101.238281 C 88.003906 102.484375 89.761719 103.523438 91.511719 104.507812 C 92.386719 105.003906 93.261719 105.480469 94.105469 106 L 94.417969 106.195312 L 94.730469 106.398438 C 94.949219 106.53125 95.132812 106.679688 95.335938 106.820312 C 95.433594 106.898438 95.53125 106.972656 95.628906 107.050781 C 95.671875 107.09375 95.726562 107.125 95.769531 107.167969 L 95.910156 107.296875 C 95.996094 107.382812 96.105469 107.460938 96.179688 107.558594 C 96.265625 107.65625 96.351562 107.742188 96.4375 107.839844 C 96.351562 107.601562 96.246094 107.363281 96.113281 107.136719 L 96.015625 106.960938 C 95.984375 106.910156 95.941406 106.855469 95.910156 106.800781 C 95.832031 106.691406 95.757812 106.582031 95.683594 106.476562 C 95.359375 106.066406 95.003906 105.675781 94.625 105.316406 C 93.878906 104.605469 93.070312 103.964844 92.246094 103.359375 C 90.617188 102.148438 88.953125 101.042969 87.386719 99.851562 C 87.191406 99.710938 86.996094 99.5625 86.804688 99.410156 C 86.609375 99.257812 86.414062 99.105469 86.230469 98.957031 C 86.164062 98.902344 86.089844 98.847656 86.027344 98.792969 C 85.710938 98.53125 85.410156 98.273438 85.105469 98.015625 C 84.933594 97.851562 84.75 97.6875 84.566406 97.527344 C 84.546875 97.503906 84.535156 97.496094 84.511719 97.472656 C 84.363281 97.320312 84.199219 97.167969 84.046875 97.019531 L 83.550781 96.5 C 83.390625 96.324219 83.238281 96.140625 83.078125 95.957031 C 82.449219 95.222656 81.898438 94.433594 81.421875 93.578125 L 81.238281 93.253906 C 81.1875 93.144531 81.132812 93.035156 81.078125 92.917969 C 80.96875 92.691406 80.851562 92.472656 80.765625 92.246094 C 80.679688 92.019531 80.570312 91.78125 80.484375 91.542969 C 80.398438 91.304688 80.320312 91.066406 80.226562 90.816406 C 80.214844 91.078125 80.226562 91.328125 80.226562 91.585938 C 80.226562 91.714844 80.246094 91.847656 80.257812 91.976562 L 80.300781 92.363281 C 80.320312 92.625 80.386719 92.875 80.441406 93.132812 C 80.460938 93.261719 80.496094 93.394531 80.527344 93.511719 L 80.636719 93.890625 C 80.949219 94.898438 81.414062 95.859375 81.984375 96.746094 C 82.558594 97.636719 83.238281 98.445312 83.984375 99.191406 C 84.09375 99.300781 84.199219 99.410156 84.308594 99.519531 C 84.253906 100.15625 84.222656 100.785156 84.1875 101.421875 C 84.113281 103.414062 84.101562 105.394531 84.070312 107.363281 Z M 84.070312 107.363281 " fill-opacity="1" fill-rule="nonzero"/><g clip-path="url(#f36c0ef350)"><path fill="#000000" d="M 115.417969 113.335938 C 116.832031 113.824219 118.3125 114.277344 119.867188 114.472656 C 120.648438 114.570312 121.445312 114.589844 122.246094 114.503906 C 123.042969 114.429688 123.824219 114.246094 124.566406 113.996094 C 126.058594 113.488281 127.386719 112.71875 128.671875 111.972656 C 129.957031 111.214844 131.199219 110.457031 132.507812 109.894531 C 133.804688 109.320312 135.1875 109.03125 136.601562 108.964844 C 138.015625 108.910156 139.441406 109.105469 140.792969 109.539062 C 142.144531 109.980469 143.417969 110.675781 144.488281 111.605469 C 145.027344 112.070312 145.511719 112.589844 145.933594 113.164062 C 146.355469 113.738281 146.703125 114.363281 146.960938 115.023438 C 147.480469 116.355469 147.671875 117.816406 147.566406 119.265625 C 147.457031 120.714844 147.035156 122.144531 146.300781 123.410156 C 145.578125 124.675781 144.507812 125.769531 143.203125 126.472656 C 144.550781 125.855469 145.707031 124.804688 146.527344 123.550781 C 147.347656 122.285156 147.855469 120.824219 148.039062 119.320312 C 148.234375 117.816406 148.085938 116.257812 147.585938 114.796875 C 147.339844 114.070312 146.992188 113.367188 146.550781 112.730469 C 146.128906 112.089844 145.609375 111.496094 145.046875 110.976562 C 143.914062 109.917969 142.554688 109.136719 141.105469 108.609375 C 139.660156 108.089844 138.113281 107.828125 136.558594 107.839844 C 135.78125 107.851562 135.011719 107.925781 134.246094 108.078125 C 133.480469 108.230469 132.722656 108.464844 132.019531 108.75 C 130.585938 109.320312 129.277344 110.089844 127.992188 110.804688 C 126.707031 111.519531 125.433594 112.199219 124.101562 112.621094 C 123.445312 112.839844 122.773438 112.980469 122.09375 113.035156 C 121.414062 113.085938 120.722656 113.066406 120.042969 112.96875 C 118.660156 112.785156 117.285156 112.339844 115.914062 111.855469 C 114.542969 111.355469 113.148438 110.804688 111.671875 110.371094 C 110.191406 109.925781 108.644531 109.691406 107.113281 109.613281 C 105.578125 109.550781 104.03125 109.636719 102.53125 109.851562 C 101.019531 110.058594 99.539062 110.382812 98.082031 110.773438 C 97.355469 110.964844 96.632812 111.183594 95.910156 111.398438 C 95.554688 111.507812 95.195312 111.625 94.839844 111.746094 C 94.484375 111.863281 94.128906 111.996094 93.769531 112.125 C 90.941406 113.183594 88.273438 114.503906 85.5625 115.566406 C 84.199219 116.09375 82.839844 116.5625 81.445312 116.894531 C 80.753906 117.058594 80.050781 117.175781 79.339844 117.273438 C 78.984375 117.328125 78.625 117.363281 78.269531 117.40625 C 77.914062 117.4375 77.558594 117.460938 77.1875 117.492188 C 74.316406 117.652344 71.398438 117.363281 68.503906 116.894531 C 65.597656 116.441406 62.691406 115.859375 59.722656 115.46875 C 58.242188 115.273438 56.742188 115.121094 55.238281 115.066406 C 53.738281 115.011719 52.226562 115.066406 50.722656 115.242188 C 50.347656 115.273438 49.980469 115.339844 49.601562 115.390625 C 49.222656 115.445312 48.855469 115.523438 48.488281 115.585938 C 47.753906 115.738281 47.019531 115.910156 46.296875 116.117188 C 44.847656 116.527344 43.433594 117.015625 42.050781 117.609375 C 39.296875 118.789062 36.679688 120.285156 34.304688 122.078125 C 33.710938 122.523438 33.128906 123 32.566406 123.484375 C 32.003906 123.972656 31.453125 124.480469 30.921875 125 C 30.394531 125.53125 29.898438 126.082031 29.410156 126.644531 C 28.9375 127.21875 28.480469 127.804688 28.050781 128.410156 C 28.515625 127.824219 29 127.273438 29.507812 126.734375 C 30.015625 126.203125 30.546875 125.683594 31.097656 125.183594 C 32.199219 124.199219 33.355469 123.28125 34.574219 122.449219 C 37.003906 120.78125 39.621094 119.394531 42.363281 118.347656 C 45.097656 117.296875 47.949219 116.539062 50.84375 116.300781 C 52.289062 116.183594 53.75 116.183594 55.195312 116.257812 C 56.65625 116.34375 58.101562 116.519531 59.550781 116.746094 C 62.445312 117.1875 65.328125 117.859375 68.277344 118.347656 C 71.214844 118.855469 74.230469 119.203125 77.285156 119.082031 C 77.664062 119.058594 78.042969 119.039062 78.429688 119.007812 C 78.808594 118.964844 79.1875 118.941406 79.566406 118.886719 C 80.320312 118.789062 81.089844 118.660156 81.835938 118.488281 C 83.324219 118.140625 84.773438 117.652344 86.175781 117.113281 C 88.984375 116.03125 91.652344 114.722656 94.375 113.714844 C 94.722656 113.585938 95.054688 113.464844 95.402344 113.347656 C 95.746094 113.226562 96.09375 113.121094 96.4375 113 C 97.128906 112.785156 97.832031 112.566406 98.535156 112.382812 C 99.9375 112.003906 101.355469 111.691406 102.78125 111.484375 C 104.207031 111.28125 105.632812 111.195312 107.058594 111.246094 C 108.484375 111.300781 109.875 111.527344 111.25 111.90625 C 112.621094 112.320312 113.992188 112.847656 115.417969 113.335938 Z M 115.417969 113.335938 " fill-opacity="1" fill-rule="nonzero"/></g><path fill="#000000" d="M 146.464844 129.914062 C 146.105469 129.925781 145.730469 129.890625 145.363281 129.828125 C 145.179688 129.792969 144.996094 129.761719 144.820312 129.707031 C 144.734375 129.6875 144.648438 129.664062 144.550781 129.632812 L 144.269531 129.535156 L 143.71875 129.351562 C 143.535156 129.285156 143.351562 129.210938 143.167969 129.144531 C 142.800781 129.015625 142.457031 128.851562 142.101562 128.710938 C 141.925781 128.636719 141.753906 128.550781 141.582031 128.464844 L 141.320312 128.34375 L 141.0625 128.214844 C 140.371094 127.867188 139.722656 127.46875 139.0625 127.058594 C 137.757812 126.214844 136.417969 125.292969 134.980469 124.492188 C 134.625 124.285156 134.257812 124.101562 133.902344 123.917969 C 133.535156 123.746094 133.167969 123.5625 132.800781 123.390625 C 132.054688 123.054688 131.308594 122.738281 130.550781 122.449219 C 129.027344 121.875 127.472656 121.386719 125.894531 121.03125 C 124.308594 120.671875 122.699219 120.425781 121.078125 120.347656 C 120.269531 120.304688 119.457031 120.304688 118.648438 120.359375 C 118.25 120.378906 117.839844 120.414062 117.4375 120.46875 C 117.039062 120.519531 116.640625 120.574219 116.25 120.652344 C 119.457031 120.792969 122.546875 121.417969 125.539062 122.351562 C 127.03125 122.824219 128.511719 123.367188 129.945312 123.972656 C 130.671875 124.277344 131.382812 124.601562 132.085938 124.9375 C 132.441406 125.097656 132.789062 125.28125 133.132812 125.445312 C 133.480469 125.628906 133.824219 125.800781 134.160156 125.996094 C 134.839844 126.363281 135.511719 126.777344 136.191406 127.1875 L 137.207031 127.816406 C 137.550781 128.019531 137.898438 128.226562 138.253906 128.429688 C 139.667969 129.253906 141.214844 129.933594 142.800781 130.347656 C 142.996094 130.402344 143.203125 130.453125 143.394531 130.5 L 144 130.628906 L 144.304688 130.691406 C 144.410156 130.714844 144.519531 130.734375 144.617188 130.746094 C 144.832031 130.78125 145.039062 130.800781 145.253906 130.824219 C 145.6875 130.855469 146.105469 130.84375 146.550781 130.78125 C 146.980469 130.714844 147.414062 130.59375 147.8125 130.378906 C 148.214844 130.164062 148.570312 129.839844 148.796875 129.449219 C 149.035156 129.058594 149.144531 128.625 149.175781 128.203125 C 149.238281 127.359375 149.054688 126.558594 148.808594 125.792969 C 148.914062 126.582031 148.949219 127.394531 148.777344 128.140625 C 148.6875 128.507812 148.539062 128.851562 148.320312 129.125 C 148.105469 129.394531 147.8125 129.589844 147.5 129.71875 C 147.175781 129.847656 146.820312 129.902344 146.464844 129.914062 Z M 146.464844 129.914062 " fill-opacity="1" fill-rule="nonzero"/><g clip-path="url(#b04834bcfe)"><path fill="#000000" d="M 158.929688 136.289062 C 158.90625 135.917969 158.84375 135.5625 158.734375 135.214844 C 158.519531 134.535156 158.195312 133.917969 157.816406 133.34375 C 157.0625 132.195312 156.132812 131.203125 155.160156 130.269531 C 154.175781 129.339844 153.140625 128.484375 152.082031 127.675781 C 153.074219 128.570312 154.058594 129.492188 154.964844 130.476562 C 155.871094 131.449219 156.726562 132.488281 157.386719 133.625 C 157.707031 134.1875 157.988281 134.785156 158.140625 135.398438 C 158.304688 136.007812 158.3125 136.644531 158.121094 137.1875 C 158.023438 137.457031 157.871094 137.714844 157.6875 137.941406 C 157.492188 138.171875 157.265625 138.363281 157.015625 138.539062 C 156.511719 138.875 155.925781 139.113281 155.3125 139.285156 C 154.695312 139.445312 154.058594 139.542969 153.421875 139.585938 C 152.78125 139.632812 152.136719 139.621094 151.519531 139.535156 C 151.445312 139.523438 151.367188 139.511719 151.292969 139.5 C 151.214844 139.492188 151.128906 139.46875 151.054688 139.445312 L 150.570312 139.339844 L 150.082031 139.230469 C 149.921875 139.199219 149.757812 139.15625 149.597656 139.121094 L 148.636719 138.882812 C 148.3125 138.796875 147.996094 138.699219 147.683594 138.625 C 146.421875 138.257812 145.179688 137.835938 143.945312 137.359375 C 142.714844 136.882812 141.503906 136.339844 140.273438 135.8125 C 139.042969 135.28125 137.789062 134.761719 136.515625 134.296875 C 136.203125 134.175781 135.878906 134.070312 135.554688 133.949219 C 135.230469 133.84375 134.917969 133.722656 134.59375 133.625 L 133.621094 133.3125 L 132.648438 133.019531 C 132 132.824219 131.339844 132.652344 130.691406 132.476562 C 130.035156 132.304688 129.386719 132.144531 128.726562 131.992188 C 127.410156 131.675781 126.078125 131.40625 124.75 131.167969 C 122.082031 130.691406 119.394531 130.390625 116.691406 130.25 C 113.992188 130.121094 111.292969 130.183594 108.613281 130.519531 C 109.28125 130.5625 109.953125 130.5625 110.621094 130.617188 L 111.625 130.671875 C 111.960938 130.691406 112.296875 130.726562 112.632812 130.757812 C 113.300781 130.800781 113.960938 130.878906 114.628906 130.941406 C 114.964844 130.972656 115.289062 131.019531 115.625 131.0625 C 115.957031 131.105469 116.28125 131.136719 116.617188 131.179688 C 117.933594 131.363281 119.253906 131.570312 120.558594 131.808594 C 121.21875 131.914062 121.867188 132.054688 122.515625 132.1875 C 123.164062 132.316406 123.8125 132.457031 124.460938 132.609375 C 127.050781 133.191406 129.625 133.875 132.160156 134.652344 C 133.4375 135.03125 134.679688 135.464844 135.929688 135.910156 C 137.175781 136.351562 138.40625 136.851562 139.648438 137.359375 C 140.890625 137.867188 142.144531 138.363281 143.429688 138.820312 C 144.078125 139.035156 144.726562 139.253906 145.382812 139.4375 L 145.878906 139.578125 L 146.378906 139.707031 C 146.710938 139.792969 147.035156 139.878906 147.371094 139.945312 C 147.707031 140.019531 148.039062 140.097656 148.375 140.152344 L 149.378906 140.324219 C 149.714844 140.386719 150.050781 140.421875 150.386719 140.476562 C 150.730469 140.519531 151.042969 140.574219 151.410156 140.617188 C 152.125 140.691406 152.828125 140.671875 153.527344 140.59375 C 154.21875 140.519531 154.910156 140.386719 155.589844 140.171875 C 156.261719 139.957031 156.929688 139.664062 157.515625 139.230469 C 157.804688 139.015625 158.074219 138.753906 158.3125 138.453125 C 158.539062 138.148438 158.722656 137.800781 158.832031 137.445312 C 158.90625 137.042969 158.949219 136.667969 158.929688 136.289062 Z M 158.929688 136.289062 " fill-opacity="1" fill-rule="nonzero"/></g></svg>