<svg xmlns="http://www.w3.org/2000/svg" xmlns:xlink="http://www.w3.org/1999/xlink" width="250" zoomAndPan="magnify" viewBox="0 0 187.5 187.499992" height="250" preserveAspectRatio="xMidYMid meet" version="1.0"><defs><clipPath id="779f689145"><path d="M 70 66.621094 L 101 66.621094 L 101 105 L 70 105 Z M 70 66.621094 " clip-rule="nonzero"/></clipPath><clipPath id="9575e93fb9"><path d="M 56.101562 101 L 125 101 L 125 114 L 56.101562 114 Z M 56.101562 101 " clip-rule="nonzero"/></clipPath><clipPath id="81238a6226"><path d="M 102 113 L 130.902344 113 L 130.902344 120.476562 L 102 120.476562 Z M 102 113 " clip-rule="nonzero"/></clipPath></defs><g clip-path="url(#779f689145)"><path fill="#000000" d="M 74.394531 102.515625 C 75.039062 102.175781 75.65625 101.785156 76.242188 101.355469 C 76.53125 101.136719 76.820312 100.902344 77.09375 100.660156 C 77.367188 100.414062 77.625 100.15625 77.871094 99.875 C 78.117188 99.605469 78.347656 99.308594 78.550781 99 C 78.753906 98.6875 78.953125 98.367188 79.113281 98.027344 C 79.4375 97.351562 79.667969 96.636719 79.820312 95.914062 C 79.976562 95.1875 80.054688 94.453125 80.101562 93.722656 C 80.148438 92.992188 80.167969 92.269531 80.1875 91.554688 C 80.210938 90.835938 80.242188 90.125 80.308594 89.421875 C 80.378906 88.722656 80.488281 88.027344 80.667969 87.359375 C 80.851562 86.699219 81.113281 86.070312 81.457031 85.46875 C 81.796875 84.875 82.210938 84.3125 82.667969 83.78125 C 83.574219 82.710938 84.628906 81.746094 85.65625 80.707031 C 85.910156 80.449219 86.160156 80.183594 86.414062 79.910156 C 86.671875 79.625 86.914062 79.308594 87.117188 78.980469 C 87.539062 78.328125 87.828125 77.609375 88.042969 76.890625 C 88.261719 76.167969 88.394531 75.445312 88.527344 74.726562 C 88.65625 74.011719 88.773438 73.304688 88.921875 72.621094 C 89.074219 71.933594 89.261719 71.265625 89.53125 70.640625 C 89.5625 70.5625 89.597656 70.488281 89.636719 70.40625 L 89.691406 70.289062 L 89.746094 70.183594 C 89.785156 70.109375 89.828125 70.042969 89.863281 69.972656 C 89.902344 69.90625 89.953125 69.835938 89.996094 69.769531 C 90.179688 69.503906 90.394531 69.25 90.628906 69.019531 C 91.585938 68.105469 92.902344 67.535156 94.230469 67.488281 C 94.894531 67.460938 95.5625 67.566406 96.179688 67.804688 C 96.332031 67.859375 96.488281 67.933594 96.636719 68 C 96.785156 68.074219 96.921875 68.15625 97.0625 68.246094 C 97.332031 68.425781 97.585938 68.644531 97.808594 68.890625 C 98.261719 69.378906 98.605469 69.972656 98.851562 70.617188 C 99.097656 71.253906 99.261719 71.941406 99.351562 72.632812 C 99.445312 73.324219 99.46875 74.03125 99.425781 74.734375 C 99.390625 75.4375 99.285156 76.136719 99.113281 76.824219 C 99.023438 77.164062 98.921875 77.503906 98.796875 77.824219 C 98.667969 78.152344 98.519531 78.464844 98.320312 78.753906 C 97.9375 79.335938 97.4375 79.84375 96.871094 80.269531 C 96.304688 80.6875 95.660156 81.015625 94.980469 81.234375 C 94.304688 81.449219 93.582031 81.542969 92.863281 81.457031 C 93.574219 81.585938 94.316406 81.542969 95.019531 81.371094 C 95.730469 81.195312 96.402344 80.886719 97.011719 80.484375 C 97.625 80.082031 98.179688 79.574219 98.613281 78.96875 C 98.832031 78.667969 99.011719 78.332031 99.167969 78 C 99.320312 77.660156 99.445312 77.3125 99.550781 76.960938 C 99.765625 76.253906 99.894531 75.527344 99.964844 74.789062 C 100.03125 74.054688 100.039062 73.3125 99.96875 72.570312 C 99.902344 71.828125 99.753906 71.09375 99.496094 70.382812 C 99.242188 69.671875 98.871094 68.984375 98.359375 68.394531 C 98.105469 68.105469 97.816406 67.832031 97.496094 67.609375 C 97.332031 67.5 97.167969 67.394531 96.996094 67.300781 C 96.820312 67.210938 96.648438 67.128906 96.46875 67.054688 C 95.746094 66.765625 94.96875 66.628906 94.191406 66.644531 C 93.414062 66.664062 92.648438 66.832031 91.933594 67.121094 C 91.214844 67.414062 90.550781 67.828125 89.980469 68.359375 C 89.699219 68.625 89.433594 68.921875 89.210938 69.242188 C 89.15625 69.324219 89.097656 69.402344 89.050781 69.492188 C 89 69.578125 88.945312 69.65625 88.902344 69.75 L 88.835938 69.878906 L 88.773438 70.011719 C 88.730469 70.097656 88.691406 70.183594 88.65625 70.269531 C 88.347656 70.96875 88.144531 71.699219 87.980469 72.414062 C 87.65625 73.855469 87.496094 75.289062 87.097656 76.613281 C 86.902344 77.277344 86.648438 77.90625 86.289062 78.46875 C 86.113281 78.753906 85.914062 79.011719 85.691406 79.265625 C 85.457031 79.527344 85.21875 79.785156 84.964844 80.039062 C 84.46875 80.554688 83.953125 81.054688 83.4375 81.566406 C 82.925781 82.085938 82.421875 82.617188 81.953125 83.1875 C 81.484375 83.761719 81.042969 84.367188 80.679688 85.03125 C 80.496094 85.359375 80.335938 85.703125 80.191406 86.054688 C 80.054688 86.410156 79.933594 86.765625 79.839844 87.136719 C 79.65625 87.867188 79.542969 88.609375 79.496094 89.347656 C 79.4375 90.082031 79.425781 90.8125 79.425781 91.535156 C 79.421875 92.980469 79.425781 94.410156 79.191406 95.796875 C 79.074219 96.488281 78.882812 97.160156 78.605469 97.792969 C 78.320312 98.429688 77.953125 99.023438 77.507812 99.566406 C 77.285156 99.839844 77.050781 100.097656 76.796875 100.347656 C 76.542969 100.59375 76.277344 100.828125 76.007812 101.050781 C 75.457031 101.503906 74.867188 101.90625 74.261719 102.28125 C 73.648438 102.660156 73.019531 103 72.378906 103.328125 C 71.734375 103.652344 71.085938 103.96875 70.433594 104.273438 C 71.105469 104.011719 71.773438 103.746094 72.441406 103.457031 C 73.105469 103.171875 73.753906 102.863281 74.394531 102.515625 Z M 74.394531 102.515625 " fill-opacity="1" fill-rule="nonzero"/></g><path fill="#000000" d="M 99.542969 96.183594 L 99.363281 95.90625 L 99.1875 95.628906 L 99.09375 95.492188 L 99.011719 95.351562 C 98.90625 95.15625 98.796875 94.964844 98.6875 94.769531 C 98.582031 94.570312 98.480469 94.371094 98.382812 94.175781 C 98.332031 94.074219 98.277344 93.976562 98.234375 93.878906 L 98.097656 93.574219 C 98.007812 93.371094 97.90625 93.167969 97.828125 92.964844 C 97.125 91.3125 96.539062 89.574219 95.816406 87.875 C 95.453125 87.027344 95.042969 86.1875 94.574219 85.382812 C 94.320312 84.992188 94.085938 84.589844 93.796875 84.226562 C 93.53125 83.847656 93.210938 83.507812 92.902344 83.167969 C 93.011719 83.371094 93.128906 83.570312 93.246094 83.769531 C 93.371094 83.960938 93.46875 84.171875 93.570312 84.367188 C 93.785156 84.769531 93.964844 85.191406 94.148438 85.597656 C 94.5 86.433594 94.808594 87.285156 95.097656 88.144531 C 95.679688 89.871094 96.199219 91.632812 96.933594 93.351562 C 97.308594 94.207031 97.714844 95.054688 98.234375 95.851562 L 98.328125 96 L 98.433594 96.140625 L 98.636719 96.433594 L 98.847656 96.722656 C 98.914062 96.816406 98.996094 96.90625 99.070312 97 C 99.371094 97.367188 99.691406 97.71875 100.039062 98.039062 C 101.40625 99.339844 103.085938 100.296875 104.882812 100.730469 C 103.234375 99.914062 101.777344 98.820312 100.585938 97.5 C 100.289062 97.175781 100.011719 96.828125 99.753906 96.46875 C 99.671875 96.363281 99.605469 96.277344 99.542969 96.183594 Z M 99.542969 96.183594 " fill-opacity="1" fill-rule="nonzero"/><path fill="#000000" d="M 96.210938 99.429688 C 97.605469 100.703125 99.304688 101.632812 101.097656 102.035156 C 99.4375 101.242188 97.957031 100.179688 96.746094 98.878906 C 96.445312 98.558594 96.160156 98.210938 95.894531 97.867188 C 95.828125 97.78125 95.761719 97.695312 95.699219 97.601562 L 95.511719 97.324219 L 95.328125 97.050781 L 95.234375 96.914062 L 95.148438 96.773438 C 95.039062 96.582031 94.921875 96.390625 94.808594 96.195312 C 94.699219 96.003906 94.597656 95.800781 94.496094 95.601562 C 94.445312 95.503906 94.390625 95.40625 94.339844 95.304688 L 94.199219 95.003906 C 94.105469 94.800781 94 94.601562 93.914062 94.390625 C 93.179688 92.753906 92.5625 91.027344 91.808594 89.332031 C 91.425781 88.492188 91.007812 87.65625 90.527344 86.867188 C 90.265625 86.476562 90.027344 86.085938 89.722656 85.722656 C 89.453125 85.34375 89.125 85.015625 88.808594 84.683594 C 88.925781 84.882812 89.042969 85.078125 89.160156 85.277344 C 89.285156 85.46875 89.390625 85.671875 89.496094 85.875 C 89.71875 86.273438 89.902344 86.691406 90.097656 87.09375 C 90.464844 87.921875 90.789062 88.769531 91.09375 89.625 C 91.703125 91.335938 92.253906 93.085938 93.011719 94.792969 C 93.402344 95.640625 93.828125 96.480469 94.359375 97.265625 L 94.457031 97.414062 L 94.5625 97.558594 L 94.773438 97.839844 L 94.980469 98.125 C 95.054688 98.21875 95.136719 98.3125 95.210938 98.398438 C 95.53125 98.769531 95.859375 99.109375 96.210938 99.429688 Z M 96.210938 99.429688 " fill-opacity="1" fill-rule="nonzero"/><path fill="#000000" d="M 88.113281 101.421875 C 88.097656 101.984375 88.085938 102.542969 88.042969 103.097656 L 88.03125 103.308594 L 88.007812 103.519531 C 87.996094 103.660156 87.96875 103.789062 87.953125 103.933594 C 87.9375 104 87.925781 104.070312 87.914062 104.136719 L 87.894531 104.242188 L 87.871094 104.339844 C 87.851562 104.410156 87.839844 104.484375 87.816406 104.542969 C 87.789062 104.613281 87.773438 104.679688 87.746094 104.75 C 87.839844 104.636719 87.933594 104.527344 88.007812 104.394531 L 88.0625 104.304688 L 88.113281 104.203125 C 88.144531 104.136719 88.179688 104.074219 88.210938 104.007812 C 88.273438 103.875 88.328125 103.742188 88.378906 103.597656 L 88.453125 103.386719 L 88.519531 103.179688 C 88.6875 102.621094 88.796875 102.046875 88.878906 101.476562 C 89.042969 100.339844 89.117188 99.203125 89.167969 98.070312 C 89.171875 97.960938 89.179688 97.847656 89.179688 97.738281 C 89.261719 97.796875 89.335938 97.859375 89.414062 97.921875 C 90.359375 98.632812 91.363281 99.226562 92.363281 99.789062 C 92.863281 100.074219 93.363281 100.347656 93.847656 100.644531 L 94.023438 100.753906 L 94.203125 100.871094 C 94.328125 100.945312 94.433594 101.03125 94.550781 101.113281 C 94.605469 101.15625 94.660156 101.199219 94.714844 101.242188 C 94.742188 101.265625 94.773438 101.285156 94.796875 101.3125 L 94.878906 101.386719 C 94.925781 101.433594 94.988281 101.476562 95.03125 101.535156 C 95.082031 101.589844 95.128906 101.636719 95.179688 101.695312 C 95.128906 101.558594 95.070312 101.421875 94.996094 101.292969 L 94.9375 101.191406 C 94.921875 101.164062 94.894531 101.132812 94.878906 101.101562 C 94.832031 101.039062 94.789062 100.976562 94.746094 100.914062 C 94.5625 100.679688 94.359375 100.457031 94.144531 100.253906 C 93.714844 99.84375 93.253906 99.480469 92.785156 99.132812 C 91.851562 98.441406 90.902344 97.8125 90.007812 97.128906 C 89.894531 97.050781 89.785156 96.964844 89.671875 96.878906 C 89.5625 96.789062 89.453125 96.703125 89.347656 96.617188 C 89.308594 96.585938 89.265625 96.554688 89.230469 96.523438 C 89.050781 96.375 88.878906 96.226562 88.703125 96.078125 C 88.605469 95.988281 88.5 95.894531 88.394531 95.800781 C 88.382812 95.789062 88.378906 95.78125 88.363281 95.769531 C 88.277344 95.683594 88.1875 95.597656 88.097656 95.511719 L 87.816406 95.214844 C 87.722656 95.113281 87.636719 95.011719 87.542969 94.90625 C 87.1875 94.484375 86.871094 94.03125 86.601562 93.542969 L 86.496094 93.359375 C 86.464844 93.296875 86.433594 93.234375 86.402344 93.167969 C 86.339844 93.039062 86.273438 92.914062 86.222656 92.785156 C 86.171875 92.652344 86.113281 92.519531 86.0625 92.382812 C 86.011719 92.246094 85.96875 92.109375 85.914062 91.96875 C 85.910156 92.117188 85.914062 92.257812 85.914062 92.40625 C 85.914062 92.480469 85.925781 92.554688 85.933594 92.628906 L 85.957031 92.851562 C 85.96875 93 86.007812 93.140625 86.039062 93.289062 C 86.050781 93.363281 86.070312 93.4375 86.085938 93.507812 L 86.148438 93.722656 C 86.328125 94.296875 86.59375 94.847656 86.921875 95.355469 C 87.246094 95.863281 87.636719 96.328125 88.0625 96.753906 C 88.125 96.816406 88.1875 96.878906 88.246094 96.9375 C 88.21875 97.304688 88.199219 97.664062 88.179688 98.027344 C 88.136719 99.164062 88.128906 100.296875 88.113281 101.421875 Z M 88.113281 101.421875 " fill-opacity="1" fill-rule="nonzero"/><g clip-path="url(#9575e93fb9)"><path fill="#000000" d="M 106.023438 104.835938 C 106.832031 105.113281 107.679688 105.375 108.566406 105.484375 C 109.011719 105.539062 109.46875 105.550781 109.925781 105.503906 C 110.382812 105.460938 110.828125 105.355469 111.253906 105.210938 C 112.105469 104.921875 112.863281 104.484375 113.597656 104.054688 C 114.332031 103.625 115.042969 103.191406 115.789062 102.867188 C 116.53125 102.542969 117.320312 102.375 118.128906 102.335938 C 118.9375 102.304688 119.753906 102.417969 120.523438 102.664062 C 121.296875 102.917969 122.023438 103.3125 122.636719 103.847656 C 122.945312 104.113281 123.222656 104.410156 123.460938 104.734375 C 123.703125 105.0625 123.902344 105.421875 124.050781 105.800781 C 124.34375 106.558594 124.457031 107.394531 124.394531 108.222656 C 124.332031 109.050781 124.09375 109.867188 123.671875 110.59375 C 123.257812 111.316406 122.648438 111.941406 121.902344 112.34375 C 122.671875 111.988281 123.332031 111.390625 123.800781 110.671875 C 124.269531 109.949219 124.5625 109.113281 124.667969 108.253906 C 124.777344 107.394531 124.691406 106.503906 124.40625 105.671875 C 124.265625 105.253906 124.066406 104.855469 123.816406 104.488281 C 123.574219 104.125 123.277344 103.785156 122.957031 103.488281 C 122.308594 102.882812 121.53125 102.4375 120.703125 102.132812 C 119.875 101.835938 118.992188 101.6875 118.105469 101.695312 C 117.660156 101.699219 117.222656 101.742188 116.785156 101.832031 C 116.347656 101.917969 115.914062 102.050781 115.511719 102.214844 C 114.691406 102.542969 113.945312 102.980469 113.210938 103.386719 C 112.476562 103.796875 111.746094 104.1875 110.988281 104.425781 C 110.613281 104.550781 110.230469 104.632812 109.839844 104.664062 C 109.449219 104.691406 109.054688 104.679688 108.667969 104.625 C 107.875 104.519531 107.09375 104.265625 106.308594 103.988281 C 105.523438 103.703125 104.730469 103.386719 103.882812 103.140625 C 103.039062 102.886719 102.15625 102.75 101.277344 102.707031 C 100.402344 102.671875 99.519531 102.71875 98.660156 102.84375 C 97.796875 102.960938 96.953125 103.148438 96.117188 103.371094 C 95.703125 103.480469 95.289062 103.605469 94.878906 103.726562 C 94.671875 103.789062 94.46875 103.859375 94.265625 103.925781 C 94.0625 103.996094 93.859375 104.070312 93.65625 104.144531 C 92.039062 104.75 90.511719 105.503906 88.964844 106.109375 C 88.1875 106.410156 87.410156 106.679688 86.613281 106.871094 C 86.21875 106.960938 85.816406 107.03125 85.410156 107.085938 C 85.203125 107.117188 85 107.136719 84.796875 107.160156 C 84.59375 107.179688 84.390625 107.191406 84.179688 107.210938 C 82.539062 107.300781 80.871094 107.136719 79.21875 106.871094 C 77.558594 106.609375 75.894531 106.277344 74.199219 106.054688 C 73.351562 105.941406 72.496094 105.855469 71.636719 105.824219 C 70.777344 105.792969 69.914062 105.824219 69.058594 105.921875 C 68.839844 105.941406 68.632812 105.980469 68.414062 106.011719 C 68.199219 106.042969 67.988281 106.085938 67.777344 106.121094 C 67.359375 106.207031 66.941406 106.308594 66.527344 106.425781 C 65.699219 106.660156 64.890625 106.9375 64.101562 107.277344 C 62.527344 107.953125 61.03125 108.804688 59.675781 109.832031 C 59.335938 110.085938 59 110.355469 58.679688 110.636719 C 58.359375 110.914062 58.042969 111.203125 57.742188 111.5 C 57.441406 111.804688 57.15625 112.121094 56.878906 112.441406 C 56.605469 112.769531 56.347656 113.101562 56.101562 113.449219 C 56.367188 113.113281 56.644531 112.800781 56.933594 112.492188 C 57.222656 112.1875 57.527344 111.890625 57.839844 111.605469 C 58.472656 111.042969 59.132812 110.519531 59.828125 110.042969 C 61.21875 109.089844 62.710938 108.296875 64.277344 107.699219 C 65.839844 107.097656 67.46875 106.664062 69.125 106.53125 C 69.953125 106.460938 70.785156 106.460938 71.613281 106.503906 C 72.445312 106.554688 73.273438 106.652344 74.101562 106.78125 C 75.753906 107.035156 77.402344 107.421875 79.085938 107.699219 C 80.765625 107.988281 82.488281 108.1875 84.234375 108.117188 C 84.453125 108.105469 84.667969 108.09375 84.890625 108.074219 C 85.105469 108.050781 85.320312 108.039062 85.539062 108.007812 C 85.96875 107.953125 86.410156 107.878906 86.835938 107.777344 C 87.6875 107.582031 88.511719 107.300781 89.316406 106.992188 C 90.921875 106.375 92.445312 105.625 94 105.050781 C 94.199219 104.976562 94.390625 104.910156 94.585938 104.839844 C 94.785156 104.773438 94.980469 104.710938 95.179688 104.644531 C 95.574219 104.519531 95.976562 104.394531 96.378906 104.292969 C 97.179688 104.074219 97.988281 103.894531 98.804688 103.777344 C 99.617188 103.660156 100.433594 103.609375 101.246094 103.640625 C 102.0625 103.671875 102.859375 103.800781 103.640625 104.019531 C 104.425781 104.253906 105.210938 104.558594 106.023438 104.835938 Z M 106.023438 104.835938 " fill-opacity="1" fill-rule="nonzero"/></g><path fill="#000000" d="M 123.765625 114.308594 C 123.5625 114.3125 123.34375 114.296875 123.136719 114.257812 C 123.03125 114.238281 122.925781 114.222656 122.828125 114.191406 C 122.777344 114.179688 122.726562 114.164062 122.671875 114.148438 L 122.511719 114.09375 L 122.199219 113.988281 C 122.09375 113.949219 121.988281 113.90625 121.882812 113.871094 C 121.671875 113.796875 121.476562 113.703125 121.273438 113.621094 C 121.171875 113.578125 121.074219 113.527344 120.976562 113.480469 L 120.828125 113.410156 L 120.679688 113.335938 C 120.285156 113.140625 119.914062 112.910156 119.535156 112.675781 C 118.789062 112.195312 118.023438 111.667969 117.203125 111.210938 C 117 111.09375 116.789062 110.988281 116.585938 110.882812 C 116.375 110.785156 116.167969 110.679688 115.957031 110.578125 C 115.53125 110.386719 115.105469 110.207031 114.671875 110.042969 C 113.800781 109.714844 112.914062 109.4375 112.011719 109.230469 C 111.105469 109.027344 110.183594 108.886719 109.257812 108.84375 C 108.796875 108.816406 108.332031 108.816406 107.871094 108.847656 C 107.640625 108.859375 107.40625 108.878906 107.179688 108.910156 C 106.949219 108.941406 106.722656 108.972656 106.5 109.015625 C 108.332031 109.09375 110.097656 109.453125 111.808594 109.984375 C 112.660156 110.257812 113.507812 110.566406 114.328125 110.914062 C 114.742188 111.085938 115.148438 111.273438 115.550781 111.464844 C 115.753906 111.554688 115.949219 111.660156 116.148438 111.753906 C 116.347656 111.859375 116.542969 111.957031 116.734375 112.070312 C 117.125 112.28125 117.507812 112.515625 117.894531 112.75 L 118.476562 113.109375 C 118.671875 113.226562 118.871094 113.34375 119.074219 113.460938 C 119.882812 113.929688 120.765625 114.320312 121.671875 114.554688 C 121.785156 114.585938 121.902344 114.617188 122.011719 114.640625 L 122.359375 114.714844 L 122.53125 114.753906 C 122.59375 114.765625 122.652344 114.777344 122.710938 114.785156 C 122.832031 114.804688 122.949219 114.816406 123.074219 114.828125 C 123.320312 114.847656 123.5625 114.839844 123.816406 114.804688 C 124.0625 114.765625 124.308594 114.699219 124.535156 114.574219 C 124.765625 114.449219 124.96875 114.265625 125.097656 114.042969 C 125.234375 113.820312 125.296875 113.574219 125.316406 113.332031 C 125.351562 112.847656 125.246094 112.390625 125.105469 111.953125 C 125.167969 112.402344 125.183594 112.867188 125.085938 113.292969 C 125.035156 113.503906 124.949219 113.703125 124.828125 113.855469 C 124.703125 114.011719 124.535156 114.121094 124.359375 114.195312 C 124.171875 114.269531 123.96875 114.300781 123.765625 114.308594 Z M 123.765625 114.308594 " fill-opacity="1" fill-rule="nonzero"/><g clip-path="url(#81238a6226)"><path fill="#000000" d="M 130.886719 117.949219 C 130.875 117.738281 130.839844 117.535156 130.777344 117.339844 C 130.652344 116.949219 130.46875 116.597656 130.253906 116.269531 C 129.820312 115.613281 129.289062 115.042969 128.734375 114.511719 C 128.171875 113.980469 127.578125 113.492188 126.976562 113.027344 C 127.542969 113.542969 128.105469 114.066406 128.625 114.628906 C 129.140625 115.1875 129.628906 115.78125 130.007812 116.429688 C 130.191406 116.75 130.351562 117.089844 130.4375 117.441406 C 130.53125 117.789062 130.535156 118.15625 130.425781 118.464844 C 130.371094 118.617188 130.285156 118.765625 130.179688 118.894531 C 130.066406 119.027344 129.9375 119.136719 129.796875 119.238281 C 129.507812 119.429688 129.171875 119.5625 128.820312 119.664062 C 128.46875 119.753906 128.105469 119.8125 127.742188 119.835938 C 127.375 119.859375 127.007812 119.855469 126.652344 119.804688 C 126.609375 119.800781 126.566406 119.792969 126.523438 119.785156 C 126.480469 119.78125 126.433594 119.769531 126.390625 119.753906 L 126.109375 119.695312 L 125.832031 119.632812 C 125.742188 119.613281 125.648438 119.589844 125.554688 119.570312 L 125.007812 119.433594 C 124.820312 119.386719 124.640625 119.328125 124.460938 119.285156 C 123.742188 119.074219 123.03125 118.835938 122.328125 118.5625 C 121.625 118.289062 120.933594 117.980469 120.226562 117.679688 C 119.523438 117.375 118.808594 117.078125 118.082031 116.8125 C 117.902344 116.746094 117.714844 116.683594 117.53125 116.613281 C 117.347656 116.554688 117.167969 116.484375 116.980469 116.429688 L 116.425781 116.25 L 115.871094 116.082031 C 115.5 115.972656 115.125 115.871094 114.753906 115.773438 C 114.375 115.675781 114.007812 115.582031 113.628906 115.496094 C 112.875 115.316406 112.117188 115.160156 111.359375 115.027344 C 109.832031 114.753906 108.296875 114.582031 106.753906 114.5 C 105.210938 114.425781 103.667969 114.460938 102.136719 114.65625 C 102.519531 114.679688 102.902344 114.679688 103.285156 114.710938 L 103.859375 114.742188 C 104.050781 114.753906 104.242188 114.773438 104.433594 114.789062 C 104.816406 114.816406 105.191406 114.859375 105.574219 114.894531 C 105.765625 114.914062 105.949219 114.9375 106.140625 114.964844 C 106.332031 114.988281 106.519531 115.007812 106.710938 115.03125 C 107.464844 115.136719 108.214844 115.253906 108.964844 115.390625 C 109.339844 115.453125 109.710938 115.53125 110.082031 115.605469 C 110.449219 115.679688 110.820312 115.761719 111.191406 115.847656 C 112.671875 116.183594 114.140625 116.570312 115.59375 117.015625 C 116.320312 117.234375 117.03125 117.480469 117.746094 117.734375 C 118.457031 117.988281 119.160156 118.273438 119.871094 118.5625 C 120.582031 118.851562 121.296875 119.136719 122.03125 119.398438 C 122.402344 119.519531 122.773438 119.644531 123.148438 119.75 L 123.433594 119.828125 L 123.714844 119.902344 C 123.90625 119.953125 124.09375 120.003906 124.285156 120.039062 C 124.476562 120.082031 124.667969 120.125 124.859375 120.15625 L 125.433594 120.257812 C 125.625 120.292969 125.816406 120.3125 126.007812 120.34375 C 126.203125 120.367188 126.382812 120.398438 126.59375 120.421875 C 127 120.46875 127.402344 120.453125 127.800781 120.410156 C 128.199219 120.367188 128.59375 120.292969 128.980469 120.171875 C 129.363281 120.046875 129.746094 119.878906 130.078125 119.632812 C 130.246094 119.507812 130.402344 119.359375 130.535156 119.1875 C 130.667969 119.015625 130.769531 118.816406 130.832031 118.613281 C 130.875 118.382812 130.902344 118.167969 130.886719 117.949219 Z M 130.886719 117.949219 " fill-opacity="1" fill-rule="nonzero"/></g></svg>