<svg xmlns="http://www.w3.org/2000/svg" xmlns:xlink="http://www.w3.org/1999/xlink" width="125" zoomAndPan="magnify" viewBox="0 0 94.079994 101.04" height="125" preserveAspectRatio="xMidYMid meet" version="1.0"><defs><clipPath id="a8c3267feb"><path d="M 34 33.089844 L 50 33.089844 L 50 52 L 34 52 Z M 34 33.089844 " clip-rule="nonzero"/></clipPath><clipPath id="0cbc96b27e"><path d="M 27.851562 50 L 62 50 L 62 57 L 27.851562 57 Z M 27.851562 50 " clip-rule="nonzero"/></clipPath><clipPath id="df3f382ca2"><path d="M 50 56 L 64.988281 56 L 64.988281 59.828125 L 50 59.828125 Z M 50 56 " clip-rule="nonzero"/></clipPath></defs><g clip-path="url(#a8c3267feb)"><path fill="#000000" d="M 36.9375 50.910156 C 37.253906 50.742188 37.5625 50.550781 37.851562 50.332031 C 37.996094 50.226562 38.140625 50.109375 38.273438 49.988281 C 38.410156 49.867188 38.539062 49.738281 38.660156 49.601562 C 38.785156 49.464844 38.898438 49.316406 39 49.164062 C 39.101562 49.011719 39.199219 48.851562 39.277344 48.683594 C 39.441406 48.347656 39.554688 47.992188 39.628906 47.632812 C 39.707031 47.273438 39.746094 46.90625 39.769531 46.546875 C 39.792969 46.183594 39.800781 45.824219 39.8125 45.46875 C 39.824219 45.113281 39.839844 44.757812 39.871094 44.410156 C 39.90625 44.0625 39.960938 43.71875 40.050781 43.386719 C 40.140625 43.058594 40.269531 42.746094 40.441406 42.449219 C 40.609375 42.152344 40.816406 41.875 41.042969 41.609375 C 41.492188 41.078125 42.015625 40.597656 42.527344 40.082031 C 42.652344 39.953125 42.777344 39.824219 42.902344 39.6875 C 43.03125 39.546875 43.152344 39.390625 43.253906 39.226562 C 43.460938 38.902344 43.605469 38.546875 43.710938 38.1875 C 43.820312 37.832031 43.886719 37.472656 43.949219 37.113281 C 44.015625 36.757812 44.074219 36.410156 44.148438 36.066406 C 44.222656 35.726562 44.316406 35.394531 44.449219 35.085938 C 44.464844 35.046875 44.484375 35.007812 44.503906 34.96875 L 44.53125 34.910156 L 44.558594 34.859375 C 44.574219 34.820312 44.597656 34.789062 44.617188 34.753906 C 44.632812 34.71875 44.660156 34.6875 44.679688 34.652344 C 44.773438 34.519531 44.878906 34.394531 44.996094 34.28125 C 45.472656 33.828125 46.125 33.542969 46.78125 33.519531 C 47.113281 33.507812 47.445312 33.558594 47.75 33.675781 C 47.828125 33.703125 47.90625 33.742188 47.976562 33.773438 C 48.050781 33.8125 48.117188 33.851562 48.1875 33.898438 C 48.324219 33.988281 48.449219 34.09375 48.558594 34.21875 C 48.785156 34.460938 48.957031 34.753906 49.078125 35.074219 C 49.199219 35.390625 49.28125 35.730469 49.328125 36.074219 C 49.371094 36.417969 49.382812 36.769531 49.363281 37.117188 C 49.34375 37.46875 49.292969 37.816406 49.207031 38.15625 C 49.164062 38.324219 49.113281 38.492188 49.050781 38.652344 C 48.984375 38.816406 48.914062 38.96875 48.816406 39.113281 C 48.625 39.402344 48.375 39.652344 48.09375 39.867188 C 47.8125 40.074219 47.492188 40.238281 47.15625 40.34375 C 46.820312 40.453125 46.460938 40.496094 46.105469 40.453125 C 46.457031 40.519531 46.824219 40.496094 47.175781 40.410156 C 47.527344 40.324219 47.863281 40.171875 48.164062 39.972656 C 48.46875 39.773438 48.742188 39.523438 48.957031 39.222656 C 49.070312 39.070312 49.15625 38.90625 49.234375 38.738281 C 49.3125 38.570312 49.371094 38.398438 49.425781 38.222656 C 49.53125 37.875 49.597656 37.511719 49.628906 37.144531 C 49.664062 36.78125 49.667969 36.410156 49.632812 36.042969 C 49.597656 35.675781 49.527344 35.308594 49.398438 34.957031 C 49.269531 34.605469 49.085938 34.261719 48.832031 33.972656 C 48.707031 33.828125 48.5625 33.691406 48.402344 33.582031 C 48.324219 33.527344 48.242188 33.472656 48.15625 33.429688 C 48.070312 33.382812 47.984375 33.34375 47.894531 33.304688 C 47.535156 33.160156 47.152344 33.09375 46.765625 33.101562 C 46.378906 33.113281 46 33.195312 45.644531 33.339844 C 45.289062 33.484375 44.957031 33.6875 44.675781 33.953125 C 44.535156 34.085938 44.402344 34.230469 44.292969 34.390625 C 44.261719 34.433594 44.234375 34.472656 44.210938 34.515625 C 44.1875 34.558594 44.160156 34.597656 44.136719 34.644531 L 44.105469 34.707031 L 44.074219 34.773438 C 44.050781 34.816406 44.035156 34.859375 44.015625 34.902344 C 43.863281 35.25 43.761719 35.609375 43.679688 35.964844 C 43.519531 36.683594 43.4375 37.394531 43.242188 38.050781 C 43.144531 38.378906 43.019531 38.691406 42.839844 38.972656 C 42.753906 39.113281 42.65625 39.242188 42.542969 39.367188 C 42.429688 39.496094 42.308594 39.625 42.183594 39.75 C 41.9375 40.007812 41.679688 40.253906 41.425781 40.511719 C 41.171875 40.769531 40.921875 41.03125 40.6875 41.316406 C 40.453125 41.601562 40.238281 41.902344 40.054688 42.230469 C 39.964844 42.390625 39.882812 42.5625 39.8125 42.738281 C 39.746094 42.914062 39.683594 43.09375 39.640625 43.277344 C 39.546875 43.636719 39.492188 44.007812 39.46875 44.371094 C 39.441406 44.738281 39.433594 45.101562 39.433594 45.457031 C 39.429688 46.175781 39.433594 46.886719 39.316406 47.574219 C 39.257812 47.917969 39.164062 48.253906 39.027344 48.566406 C 38.886719 48.882812 38.703125 49.175781 38.480469 49.445312 C 38.371094 49.582031 38.253906 49.710938 38.128906 49.832031 C 38.003906 49.957031 37.871094 50.074219 37.734375 50.183594 C 37.464844 50.40625 37.167969 50.605469 36.867188 50.792969 C 36.566406 50.980469 36.253906 51.152344 35.933594 51.3125 C 35.617188 51.476562 35.292969 51.632812 34.96875 51.78125 C 35.300781 51.652344 35.632812 51.523438 35.964844 51.378906 C 36.296875 51.238281 36.617188 51.082031 36.9375 50.910156 Z M 36.9375 50.910156 " fill-opacity="1" fill-rule="nonzero"/></g><path fill="#000000" d="M 49.421875 47.765625 L 49.242188 47.492188 L 49.15625 47.351562 C 49.105469 47.257812 49.050781 47.164062 48.996094 47.066406 C 48.941406 46.964844 48.894531 46.867188 48.84375 46.769531 C 48.820312 46.71875 48.792969 46.671875 48.773438 46.621094 L 48.703125 46.472656 C 48.660156 46.371094 48.609375 46.269531 48.570312 46.167969 C 48.21875 45.347656 47.929688 44.484375 47.570312 43.640625 C 47.390625 43.222656 47.1875 42.804688 46.953125 42.40625 C 46.828125 42.210938 46.710938 42.011719 46.566406 41.832031 C 46.4375 41.644531 46.277344 41.472656 46.125 41.304688 C 46.179688 41.40625 46.238281 41.503906 46.296875 41.601562 C 46.355469 41.699219 46.40625 41.800781 46.453125 41.902344 C 46.5625 42.101562 46.652344 42.308594 46.742188 42.511719 C 46.917969 42.925781 47.070312 43.351562 47.214844 43.777344 C 47.503906 44.632812 47.761719 45.507812 48.125 46.363281 C 48.3125 46.785156 48.515625 47.207031 48.773438 47.601562 L 48.816406 47.675781 L 48.871094 47.746094 L 49.074219 48.035156 C 49.109375 48.082031 49.148438 48.125 49.183594 48.171875 C 49.335938 48.355469 49.496094 48.527344 49.667969 48.6875 C 50.347656 49.332031 51.179688 49.808594 52.070312 50.023438 C 51.253906 49.617188 50.53125 49.074219 49.9375 48.421875 C 49.792969 48.257812 49.652344 48.085938 49.527344 47.910156 C 49.484375 47.855469 49.453125 47.8125 49.421875 47.765625 Z M 49.421875 47.765625 " fill-opacity="1" fill-rule="nonzero"/><path fill="#000000" d="M 47.765625 49.378906 C 48.460938 50.011719 49.300781 50.472656 50.195312 50.671875 C 49.371094 50.277344 48.632812 49.75 48.03125 49.105469 C 47.882812 48.945312 47.742188 48.773438 47.609375 48.601562 C 47.578125 48.558594 47.542969 48.515625 47.511719 48.46875 L 47.421875 48.332031 L 47.328125 48.199219 L 47.28125 48.128906 L 47.238281 48.058594 C 47.183594 47.964844 47.125 47.867188 47.070312 47.773438 C 47.015625 47.679688 46.964844 47.578125 46.914062 47.480469 C 46.890625 47.429688 46.863281 47.378906 46.835938 47.332031 L 46.765625 47.179688 C 46.722656 47.078125 46.667969 46.980469 46.625 46.878906 C 46.261719 46.0625 45.957031 45.207031 45.582031 44.367188 C 45.390625 43.949219 45.183594 43.535156 44.945312 43.140625 C 44.816406 42.949219 44.695312 42.753906 44.546875 42.574219 C 44.410156 42.386719 44.25 42.222656 44.09375 42.058594 C 44.148438 42.15625 44.207031 42.253906 44.265625 42.351562 C 44.328125 42.449219 44.378906 42.546875 44.433594 42.648438 C 44.542969 42.847656 44.632812 43.054688 44.734375 43.253906 C 44.914062 43.667969 45.074219 44.085938 45.226562 44.511719 C 45.527344 45.359375 45.800781 46.230469 46.179688 47.078125 C 46.371094 47.496094 46.582031 47.914062 46.847656 48.304688 L 46.894531 48.378906 L 46.949219 48.449219 L 47.050781 48.589844 L 47.15625 48.730469 C 47.191406 48.777344 47.234375 48.824219 47.269531 48.867188 C 47.429688 49.050781 47.589844 49.21875 47.765625 49.378906 Z M 47.765625 49.378906 " fill-opacity="1" fill-rule="nonzero"/><path fill="#000000" d="M 43.746094 50.367188 C 43.738281 50.648438 43.734375 50.921875 43.710938 51.199219 L 43.707031 51.304688 L 43.695312 51.410156 C 43.6875 51.480469 43.675781 51.542969 43.664062 51.613281 C 43.660156 51.648438 43.652344 51.679688 43.648438 51.714844 L 43.636719 51.769531 L 43.625 51.816406 C 43.617188 51.851562 43.609375 51.886719 43.597656 51.917969 C 43.585938 51.953125 43.578125 51.984375 43.566406 52.019531 C 43.609375 51.964844 43.65625 51.910156 43.695312 51.84375 L 43.722656 51.796875 L 43.746094 51.75 C 43.761719 51.714844 43.78125 51.683594 43.792969 51.652344 C 43.824219 51.585938 43.851562 51.519531 43.878906 51.449219 L 43.949219 51.238281 C 44.03125 50.964844 44.085938 50.679688 44.125 50.394531 C 44.207031 49.832031 44.246094 49.265625 44.269531 48.703125 C 44.273438 48.648438 44.277344 48.59375 44.277344 48.539062 C 44.316406 48.570312 44.351562 48.597656 44.390625 48.628906 C 44.859375 48.984375 45.359375 49.277344 45.855469 49.558594 C 46.105469 49.699219 46.355469 49.832031 46.59375 49.980469 L 46.679688 50.035156 L 46.769531 50.09375 C 46.832031 50.132812 46.882812 50.175781 46.941406 50.214844 C 46.96875 50.234375 46.996094 50.257812 47.023438 50.277344 C 47.035156 50.289062 47.050781 50.300781 47.066406 50.3125 L 47.105469 50.347656 C 47.128906 50.375 47.160156 50.394531 47.179688 50.421875 C 47.207031 50.449219 47.230469 50.476562 47.253906 50.503906 C 47.230469 50.433594 47.199219 50.367188 47.164062 50.304688 L 47.136719 50.253906 C 47.125 50.238281 47.113281 50.222656 47.105469 50.207031 C 47.082031 50.175781 47.0625 50.148438 47.039062 50.117188 C 46.949219 50 46.847656 49.890625 46.738281 49.789062 C 46.527344 49.585938 46.296875 49.402344 46.066406 49.230469 C 45.601562 48.886719 45.128906 48.574219 44.6875 48.238281 C 44.632812 48.199219 44.574219 48.15625 44.519531 48.109375 C 44.464844 48.066406 44.410156 48.023438 44.359375 47.980469 C 44.339844 47.96875 44.320312 47.953125 44.300781 47.9375 C 44.210938 47.863281 44.125 47.789062 44.039062 47.714844 C 43.992188 47.667969 43.9375 47.625 43.886719 47.578125 C 43.878906 47.570312 43.878906 47.566406 43.871094 47.5625 C 43.828125 47.519531 43.78125 47.476562 43.738281 47.433594 L 43.597656 47.285156 C 43.550781 47.238281 43.507812 47.183594 43.464844 47.132812 C 43.285156 46.921875 43.128906 46.699219 42.996094 46.457031 L 42.941406 46.363281 C 42.925781 46.332031 42.910156 46.304688 42.898438 46.269531 C 42.867188 46.203125 42.832031 46.144531 42.808594 46.078125 C 42.785156 46.015625 42.753906 45.945312 42.726562 45.878906 C 42.703125 45.8125 42.683594 45.746094 42.65625 45.671875 C 42.652344 45.746094 42.65625 45.816406 42.65625 45.890625 C 42.65625 45.929688 42.660156 45.964844 42.664062 46.003906 L 42.675781 46.113281 C 42.683594 46.1875 42.699219 46.257812 42.714844 46.332031 C 42.722656 46.367188 42.730469 46.40625 42.742188 46.4375 L 42.769531 46.546875 C 42.859375 46.832031 42.992188 47.105469 43.152344 47.355469 C 43.316406 47.609375 43.507812 47.839844 43.722656 48.050781 C 43.75 48.082031 43.78125 48.109375 43.8125 48.140625 C 43.796875 48.324219 43.789062 48.5 43.78125 48.683594 C 43.757812 49.246094 43.753906 49.808594 43.746094 50.367188 Z M 43.746094 50.367188 " fill-opacity="1" fill-rule="nonzero"/><g clip-path="url(#0cbc96b27e)"><path fill="#000000" d="M 52.640625 52.0625 C 53.039062 52.199219 53.460938 52.328125 53.902344 52.382812 C 54.121094 52.414062 54.347656 52.417969 54.574219 52.394531 C 54.800781 52.371094 55.023438 52.320312 55.234375 52.25 C 55.65625 52.105469 56.035156 51.886719 56.398438 51.675781 C 56.765625 51.460938 57.117188 51.246094 57.488281 51.085938 C 57.855469 50.921875 58.246094 50.839844 58.648438 50.820312 C 59.050781 50.808594 59.453125 50.863281 59.835938 50.984375 C 60.222656 51.109375 60.582031 51.308594 60.886719 51.570312 C 61.039062 51.703125 61.175781 51.851562 61.296875 52.011719 C 61.417969 52.175781 61.515625 52.355469 61.585938 52.542969 C 61.734375 52.917969 61.789062 53.332031 61.757812 53.746094 C 61.730469 54.15625 61.609375 54.5625 61.402344 54.921875 C 61.195312 55.28125 60.890625 55.589844 60.519531 55.789062 C 60.90625 55.613281 61.230469 55.316406 61.464844 54.960938 C 61.699219 54.601562 61.84375 54.1875 61.894531 53.761719 C 61.949219 53.332031 61.90625 52.890625 61.765625 52.476562 C 61.695312 52.269531 61.597656 52.070312 61.472656 51.890625 C 61.351562 51.710938 61.203125 51.539062 61.046875 51.394531 C 60.722656 51.09375 60.335938 50.871094 59.925781 50.722656 C 59.515625 50.574219 59.078125 50.5 58.636719 50.503906 C 58.414062 50.507812 58.199219 50.527344 57.980469 50.570312 C 57.761719 50.613281 57.546875 50.679688 57.347656 50.761719 C 56.941406 50.921875 56.570312 51.140625 56.207031 51.34375 C 55.839844 51.546875 55.480469 51.738281 55.101562 51.859375 C 54.917969 51.921875 54.726562 51.960938 54.53125 51.976562 C 54.339844 51.992188 54.144531 51.984375 53.949219 51.957031 C 53.558594 51.90625 53.167969 51.78125 52.78125 51.640625 C 52.390625 51.5 51.996094 51.34375 51.574219 51.222656 C 51.15625 51.09375 50.71875 51.027344 50.28125 51.007812 C 49.847656 50.988281 49.410156 51.011719 48.984375 51.074219 C 48.554688 51.132812 48.132812 51.222656 47.71875 51.335938 C 47.515625 51.390625 47.308594 51.453125 47.105469 51.511719 C 47.003906 51.542969 46.902344 51.578125 46.800781 51.609375 C 46.699219 51.644531 46.597656 51.683594 46.496094 51.71875 C 45.695312 52.019531 44.9375 52.394531 44.167969 52.695312 C 43.78125 52.84375 43.394531 52.976562 43 53.074219 C 42.804688 53.117188 42.605469 53.152344 42.402344 53.179688 C 42.300781 53.195312 42.199219 53.203125 42.101562 53.214844 C 42 53.226562 41.898438 53.230469 41.792969 53.242188 C 40.976562 53.289062 40.152344 53.203125 39.328125 53.074219 C 38.503906 52.945312 37.679688 52.777344 36.839844 52.667969 C 36.417969 52.613281 35.992188 52.570312 35.566406 52.554688 C 35.140625 52.539062 34.710938 52.554688 34.285156 52.601562 C 34.179688 52.613281 34.074219 52.628906 33.964844 52.644531 C 33.859375 52.660156 33.753906 52.683594 33.652344 52.699219 C 33.441406 52.742188 33.234375 52.792969 33.027344 52.851562 C 32.617188 52.96875 32.214844 53.105469 31.824219 53.273438 C 31.042969 53.609375 30.300781 54.035156 29.628906 54.542969 C 29.457031 54.667969 29.292969 54.804688 29.132812 54.941406 C 28.972656 55.082031 28.816406 55.222656 28.667969 55.371094 C 28.519531 55.523438 28.375 55.679688 28.238281 55.839844 C 28.105469 56 27.976562 56.167969 27.851562 56.339844 C 27.984375 56.171875 28.121094 56.015625 28.265625 55.863281 C 28.410156 55.710938 28.5625 55.566406 28.71875 55.425781 C 29.03125 55.144531 29.355469 54.882812 29.703125 54.648438 C 30.394531 54.175781 31.136719 53.78125 31.914062 53.484375 C 32.6875 53.1875 33.496094 52.972656 34.320312 52.902344 C 34.730469 52.871094 35.144531 52.871094 35.554688 52.890625 C 35.96875 52.914062 36.378906 52.964844 36.789062 53.03125 C 37.609375 53.15625 38.429688 53.34375 39.265625 53.484375 C 40.097656 53.628906 40.953125 53.726562 41.820312 53.691406 C 41.929688 53.6875 42.035156 53.679688 42.144531 53.671875 C 42.253906 53.660156 42.359375 53.652344 42.46875 53.636719 C 42.683594 53.609375 42.898438 53.574219 43.109375 53.523438 C 43.535156 53.425781 43.945312 53.289062 44.34375 53.132812 C 45.140625 52.828125 45.898438 52.457031 46.667969 52.167969 C 46.765625 52.132812 46.863281 52.097656 46.960938 52.066406 C 47.058594 52.03125 47.15625 52 47.253906 51.96875 C 47.449219 51.90625 47.648438 51.84375 47.847656 51.792969 C 48.246094 51.683594 48.648438 51.597656 49.054688 51.539062 C 49.457031 51.480469 49.863281 51.453125 50.265625 51.46875 C 50.671875 51.484375 51.066406 51.550781 51.457031 51.65625 C 51.84375 51.773438 52.234375 51.925781 52.640625 52.0625 Z M 52.640625 52.0625 " fill-opacity="1" fill-rule="nonzero"/></g><path fill="#000000" d="M 61.445312 56.765625 C 61.34375 56.769531 61.238281 56.757812 61.132812 56.742188 C 61.082031 56.730469 61.03125 56.722656 60.980469 56.707031 C 60.957031 56.699219 60.933594 56.695312 60.90625 56.6875 L 60.824219 56.65625 L 60.667969 56.605469 C 60.617188 56.585938 60.5625 56.566406 60.511719 56.546875 C 60.40625 56.511719 60.308594 56.464844 60.207031 56.425781 C 60.160156 56.402344 60.109375 56.378906 60.0625 56.355469 L 59.914062 56.285156 C 59.71875 56.183594 59.535156 56.070312 59.347656 55.953125 C 58.976562 55.714844 58.597656 55.453125 58.1875 55.226562 C 58.089844 55.167969 57.984375 55.117188 57.882812 55.066406 C 57.777344 55.015625 57.675781 54.964844 57.570312 54.914062 C 57.359375 54.820312 57.148438 54.730469 56.933594 54.648438 C 56.5 54.484375 56.058594 54.347656 55.613281 54.246094 C 55.160156 54.144531 54.703125 54.074219 54.246094 54.050781 C 54.015625 54.039062 53.785156 54.039062 53.554688 54.054688 C 53.441406 54.0625 53.324219 54.070312 53.210938 54.085938 C 53.097656 54.101562 52.984375 54.117188 52.875 54.136719 C 53.785156 54.175781 54.660156 54.355469 55.511719 54.621094 C 55.933594 54.753906 56.351562 54.90625 56.761719 55.078125 C 56.964844 55.167969 57.167969 55.257812 57.367188 55.351562 C 57.46875 55.398438 57.566406 55.453125 57.664062 55.496094 C 57.761719 55.550781 57.859375 55.597656 57.957031 55.652344 C 58.148438 55.757812 58.339844 55.875 58.53125 55.992188 L 58.820312 56.167969 C 58.917969 56.226562 59.015625 56.285156 59.117188 56.34375 C 59.519531 56.578125 59.957031 56.773438 60.40625 56.886719 C 60.464844 56.902344 60.519531 56.917969 60.578125 56.929688 L 60.75 56.96875 L 60.832031 56.988281 C 60.863281 56.992188 60.894531 57 60.921875 57 C 60.984375 57.011719 61.042969 57.015625 61.105469 57.023438 C 61.226562 57.03125 61.34375 57.03125 61.472656 57.011719 C 61.59375 56.992188 61.714844 56.957031 61.828125 56.898438 C 61.941406 56.835938 62.042969 56.742188 62.109375 56.632812 C 62.175781 56.523438 62.207031 56.398438 62.214844 56.28125 C 62.234375 56.039062 62.183594 55.8125 62.113281 55.597656 C 62.140625 55.820312 62.152344 56.050781 62.101562 56.261719 C 62.078125 56.367188 62.035156 56.464844 61.972656 56.542969 C 61.914062 56.617188 61.828125 56.671875 61.742188 56.710938 C 61.648438 56.746094 61.546875 56.761719 61.445312 56.765625 Z M 61.445312 56.765625 " fill-opacity="1" fill-rule="nonzero"/><g clip-path="url(#df3f382ca2)"><path fill="#000000" d="M 64.984375 58.574219 C 64.976562 58.46875 64.957031 58.367188 64.929688 58.269531 C 64.867188 58.078125 64.773438 57.902344 64.667969 57.738281 C 64.453125 57.414062 64.191406 57.128906 63.914062 56.867188 C 63.636719 56.601562 63.339844 56.359375 63.039062 56.128906 C 63.324219 56.386719 63.601562 56.644531 63.859375 56.925781 C 64.117188 57.203125 64.359375 57.496094 64.546875 57.820312 C 64.636719 57.976562 64.714844 58.148438 64.757812 58.320312 C 64.804688 58.492188 64.808594 58.675781 64.753906 58.828125 C 64.726562 58.90625 64.683594 58.980469 64.632812 59.042969 C 64.574219 59.109375 64.511719 59.164062 64.441406 59.210938 C 64.296875 59.308594 64.132812 59.375 63.957031 59.425781 C 63.78125 59.46875 63.601562 59.496094 63.421875 59.511719 C 63.238281 59.523438 63.054688 59.519531 62.882812 59.496094 C 62.859375 59.492188 62.839844 59.488281 62.816406 59.484375 C 62.796875 59.480469 62.769531 59.476562 62.75 59.46875 L 62.613281 59.4375 L 62.472656 59.410156 C 62.425781 59.398438 62.382812 59.386719 62.335938 59.378906 L 62.0625 59.308594 C 61.972656 59.285156 61.882812 59.257812 61.792969 59.238281 C 61.433594 59.132812 61.082031 59.011719 60.734375 58.878906 C 60.382812 58.742188 60.039062 58.589844 59.691406 58.4375 C 59.339844 58.289062 58.984375 58.140625 58.625 58.007812 C 58.535156 57.976562 58.445312 57.945312 58.351562 57.910156 C 58.257812 57.878906 58.171875 57.847656 58.078125 57.820312 L 57.804688 57.730469 L 57.527344 57.648438 C 57.34375 57.589844 57.15625 57.542969 56.972656 57.492188 C 56.785156 57.445312 56.601562 57.398438 56.414062 57.355469 C 56.039062 57.265625 55.664062 57.1875 55.285156 57.121094 C 54.53125 56.988281 53.765625 56.902344 53 56.859375 C 52.234375 56.824219 51.46875 56.84375 50.707031 56.9375 C 50.898438 56.949219 51.089844 56.949219 51.277344 56.964844 L 51.5625 56.980469 C 51.660156 56.988281 51.753906 56.996094 51.847656 57.003906 C 52.039062 57.015625 52.226562 57.039062 52.414062 57.058594 C 52.511719 57.066406 52.601562 57.078125 52.699219 57.089844 C 52.792969 57.101562 52.882812 57.113281 52.980469 57.125 C 53.351562 57.175781 53.726562 57.234375 54.097656 57.300781 C 54.285156 57.332031 54.46875 57.375 54.652344 57.410156 C 54.835938 57.445312 55.019531 57.488281 55.203125 57.53125 C 55.941406 57.695312 56.667969 57.890625 57.390625 58.109375 C 57.75 58.21875 58.101562 58.339844 58.457031 58.464844 C 58.8125 58.59375 59.160156 58.734375 59.511719 58.878906 C 59.867188 59.023438 60.222656 59.164062 60.585938 59.292969 C 60.769531 59.351562 60.953125 59.414062 61.140625 59.46875 L 61.28125 59.507812 L 61.421875 59.542969 C 61.515625 59.566406 61.609375 59.59375 61.703125 59.609375 C 61.800781 59.632812 61.894531 59.652344 61.988281 59.667969 L 62.273438 59.71875 C 62.371094 59.738281 62.464844 59.746094 62.558594 59.761719 C 62.65625 59.773438 62.746094 59.789062 62.851562 59.800781 C 63.050781 59.824219 63.25 59.816406 63.449219 59.796875 C 63.648438 59.773438 63.84375 59.738281 64.035156 59.675781 C 64.226562 59.613281 64.417969 59.53125 64.582031 59.410156 C 64.664062 59.347656 64.742188 59.273438 64.808594 59.1875 C 64.871094 59.101562 64.925781 59.003906 64.957031 58.902344 C 64.976562 58.789062 64.988281 58.679688 64.984375 58.574219 Z M 64.984375 58.574219 " fill-opacity="1" fill-rule="nonzero"/></g></svg>