<svg xmlns="http://www.w3.org/2000/svg" xmlns:xlink="http://www.w3.org/1999/xlink" width="125" zoomAndPan="magnify" viewBox="0 0 94.079994 101.04" height="125" preserveAspectRatio="xMidYMid meet" version="1.0"><defs><clipPath id="6128032575"><path d="M 38.089844 27.867188 L 54.429688 27.867188 L 54.429688 65 L 38.089844 65 Z M 38.089844 27.867188 " clip-rule="nonzero"/></clipPath></defs><g clip-path="url(#6128032575)"><path fill="#000000" d="M 41.113281 64.726562 C 41.078125 64.375 41.003906 62.886719 40.945312 61.355469 C 40.921875 60.703125 40.871094 59.957031 40.835938 59.699219 C 40.742188 59.066406 40.441406 57.617188 40.195312 56.605469 C 39.945312 55.59375 39.890625 55.292969 39.691406 53.839844 C 39.433594 51.957031 39.417969 51.675781 39.460938 49.902344 C 39.523438 47.386719 39.515625 47.039062 39.367188 45.90625 C 39.199219 44.664062 39.179688 43.546875 39.3125 43.058594 C 39.527344 42.25 39.960938 41.796875 40.636719 41.683594 C 40.835938 41.652344 40.835938 41.648438 40.878906 41.003906 C 40.9375 40.0625 41.082031 39.679688 41.550781 39.1875 C 42.109375 38.597656 42.941406 38.371094 43.5 38.65625 L 43.691406 38.753906 L 43.710938 38.605469 C 43.832031 37.75 43.929688 37.480469 44.277344 37.015625 C 44.644531 36.523438 45.105469 36.300781 45.628906 36.363281 C 46.140625 36.421875 46.542969 36.695312 46.742188 37.113281 L 46.867188 37.371094 L 46.972656 37.167969 C 47.230469 36.648438 47.742188 36.261719 48.242188 36.207031 C 48.574219 36.171875 49.011719 36.296875 49.347656 36.523438 C 49.609375 36.703125 49.917969 37.050781 49.917969 37.171875 C 49.917969 37.203125 50.003906 37.164062 50.101562 37.085938 C 50.308594 36.914062 50.308594 36.984375 50.097656 36.21875 C 50.035156 36.019531 49.992188 35.816406 49.964844 35.609375 C 49.964844 35.332031 50.199219 35.171875 50.386719 35.324219 C 50.507812 35.421875 50.660156 35.710938 51.191406 36.828125 C 51.472656 37.414062 51.71875 38.011719 51.9375 38.625 C 52.152344 39.277344 52.179688 39.394531 52.1875 39.824219 C 52.199219 40.253906 52.21875 40.335938 52.359375 40.648438 C 52.523438 40.976562 52.703125 41.292969 52.902344 41.597656 C 53.324219 42.246094 53.476562 42.597656 53.601562 43.179688 C 53.667969 43.496094 53.675781 43.695312 53.652344 44.441406 C 53.636719 44.925781 53.589844 45.664062 53.550781 46.074219 C 53.464844 46.898438 53.484375 48.636719 53.582031 49.554688 C 53.644531 50.144531 53.609375 51.382812 53.515625 51.914062 C 53.445312 52.296875 53.324219 52.648438 52.902344 53.683594 C 52.449219 54.804688 52.113281 55.800781 51.9375 56.554688 C 51.328125 59.136719 51.359375 58.851562 51.371094 61.785156 C 51.375 63.199219 51.363281 64.308594 51.339844 64.34375 C 51.269531 64.453125 51.210938 64.027344 51.152344 63.066406 C 51.125 62.578125 51.082031 61.917969 51.058594 61.597656 C 50.992188 60.734375 51.003906 59.449219 51.082031 58.960938 C 51.226562 58.039062 51.777344 55.824219 52.019531 55.179688 C 52.117188 54.921875 52.273438 54.503906 52.363281 54.25 C 52.453125 54 52.640625 53.542969 52.777344 53.238281 C 53.375 51.890625 53.421875 51.417969 53.253906 48.382812 C 53.191406 47.21875 53.21875 46.507812 53.398438 44.757812 C 53.464844 44.078125 53.449219 43.5625 53.347656 43.160156 C 53.222656 42.648438 53.152344 42.496094 52.777344 41.917969 C 52.402344 41.339844 52.242188 41.039062 52.15625 40.742188 C 52.089844 40.519531 52.082031 40.515625 51.953125 40.613281 C 51.753906 40.769531 51.441406 40.628906 51.210938 40.285156 C 50.941406 39.882812 50.679688 39.042969 50.480469 37.960938 C 50.414062 37.585938 50.335938 37.277344 50.3125 37.277344 C 50.230469 37.277344 49.960938 37.625 49.847656 37.878906 C 49.664062 38.285156 49.636719 38.578125 49.6875 39.480469 C 49.78125 41.148438 50.015625 42.503906 50.335938 43.210938 C 50.515625 43.605469 50.535156 43.6875 50.53125 43.980469 C 50.53125 44.242188 50.496094 44.390625 50.351562 44.75 C 50.179688 45.191406 50.175781 45.199219 50.144531 46.058594 C 50.117188 46.765625 50.089844 46.992188 50 47.316406 C 49.84375 47.90625 49.730469 48.507812 49.664062 49.113281 C 49.640625 49.386719 49.628906 49.425781 49.578125 49.347656 C 49.546875 49.292969 49.527344 49.019531 49.527344 48.625 C 49.527344 48.058594 49.546875 47.941406 49.683594 47.4375 C 49.816406 46.957031 49.84375 46.746094 49.894531 45.941406 C 49.949219 45.050781 49.960938 44.988281 50.117188 44.574219 C 50.316406 44.054688 50.320312 43.867188 50.15625 43.503906 L 50.03125 43.230469 L 49.996094 43.511719 C 49.921875 44.054688 49.777344 44.585938 49.640625 44.808594 L 49.503906 45.035156 L 49.503906 45.816406 C 49.503906 46.667969 49.449219 47.121094 49.332031 47.210938 C 49.214844 47.300781 48.710938 47.285156 48.59375 47.1875 C 48.488281 47.101562 48.171875 46.308594 47.917969 45.488281 C 47.859375 45.277344 47.777344 45.074219 47.675781 44.882812 L 47.59375 44.777344 L 47.558594 45.078125 C 47.542969 45.234375 47.511719 45.390625 47.46875 45.542969 C 47.425781 45.667969 47.421875 45.96875 47.453125 46.824219 L 47.492188 47.9375 L 47.375 48.140625 C 47.332031 48.222656 47.28125 48.296875 47.222656 48.363281 C 47.152344 48.410156 46.582031 48.449219 46.460938 48.421875 C 46.371094 48.398438 46.3125 48.332031 46.246094 48.167969 C 46.195312 48.046875 46.035156 47.6875 45.890625 47.367188 C 45.742188 47.042969 45.601562 46.699219 45.566406 46.59375 C 45.472656 46.285156 45.328125 45.964844 45.285156 45.964844 C 45.265625 45.964844 45.246094 46.027344 45.246094 46.097656 C 45.238281 46.214844 45.214844 46.328125 45.175781 46.4375 C 45.113281 46.613281 45.113281 46.710938 45.160156 47.132812 C 45.1875 47.402344 45.214844 47.875 45.21875 48.183594 C 45.21875 48.679688 45.210938 48.765625 45.121094 48.941406 C 45.015625 49.140625 44.75 49.324219 44.566406 49.324219 C 44.476562 49.300781 44.40625 49.25 44.351562 49.175781 C 44.214844 49.011719 44.195312 48.96875 43.875 48.164062 C 43.6875 47.691406 43.644531 47.625 43.527344 47.585938 C 43.425781 47.542969 43.332031 47.484375 43.253906 47.40625 C 43.203125 47.351562 43.148438 47.308594 43.085938 47.273438 C 43.070312 47.273438 43.097656 47.394531 43.148438 47.539062 C 43.296875 47.980469 43.554688 49.027344 43.554688 49.195312 C 43.554688 49.429688 43.324219 49.71875 43.039062 49.84375 C 42.933594 49.890625 42.898438 49.886719 42.824219 49.816406 C 42.710938 49.714844 42.425781 49.230469 42.179688 48.71875 C 42.015625 48.382812 41.945312 48.292969 41.71875 48.121094 C 40.976562 47.558594 39.988281 45.609375 39.777344 44.28125 C 39.730469 43.980469 39.769531 44.054688 39.957031 44.625 C 40.140625 45.195312 40.773438 46.421875 41.269531 47.164062 C 41.691406 47.792969 41.757812 47.847656 41.566406 47.402344 C 41.136719 46.414062 41.164062 45.734375 41.636719 45.347656 C 41.839844 45.183594 42.132812 45.128906 42.226562 45.238281 C 42.347656 45.390625 42.355469 45.304688 42.253906 44.90625 C 41.925781 43.621094 41.738281 43.078125 41.457031 42.59375 C 41.121094 42.015625 40.941406 41.953125 40.292969 42.195312 C 39.835938 42.367188 39.585938 42.792969 39.472656 43.59375 C 39.414062 44.003906 39.441406 44.445312 39.644531 46.296875 C 39.765625 47.382812 39.765625 47.410156 39.714844 48.816406 C 39.617188 51.480469 39.792969 53.125 40.46875 55.796875 C 40.972656 57.796875 41.105469 58.496094 41.179688 59.601562 C 41.238281 60.441406 41.246094 64.921875 41.1875 64.980469 C 41.164062 65.003906 41.136719 64.910156 41.117188 64.746094 Z M 43.285156 48.855469 C 43.09375 47.972656 42.675781 46.609375 42.457031 46.175781 C 42.324219 45.898438 42.089844 45.625 41.992188 45.625 C 41.9375 45.625 41.949219 45.65625 42.039062 45.75 C 42.152344 45.898438 42.246094 46.058594 42.316406 46.230469 C 42.464844 46.5625 43.066406 48.359375 43.171875 48.785156 C 43.226562 49.003906 43.332031 49.066406 43.285156 48.855469 Z M 45.058594 48.246094 C 45.011719 47.609375 44.738281 46.113281 44.582031 45.648438 C 44.441406 45.226562 44.1875 44.855469 44.101562 44.941406 C 44.082031 44.960938 44.09375 44.992188 44.121094 45.007812 C 44.328125 45.140625 44.707031 46.527344 44.960938 48.109375 C 45.023438 48.476562 45.078125 48.558594 45.058594 48.246094 Z M 47.3125 47.457031 C 47.171875 46.027344 46.898438 44.816406 46.625 44.394531 C 46.488281 44.1875 46.429688 44.195312 46.539062 44.40625 C 46.613281 44.578125 46.675781 44.753906 46.722656 44.9375 C 46.832031 45.328125 47.171875 47.035156 47.226562 47.480469 C 47.269531 47.816406 47.347656 47.792969 47.316406 47.457031 Z M 43.355469 46.824219 C 43.0625 46.035156 42.996094 45.128906 43.199219 44.714844 C 43.351562 44.421875 43.59375 44.265625 43.917969 44.242188 L 44.179688 44.210938 L 44.402344 44.4375 C 44.660156 44.703125 44.777344 44.984375 44.933594 45.71875 C 45.011719 46.089844 45.042969 46.179688 45.070312 46.097656 C 45.125 45.921875 45.050781 45.445312 44.878906 44.898438 C 44.542969 43.84375 44.003906 41.621094 43.863281 40.757812 C 43.8125 40.433594 43.714844 39.9375 43.652344 39.652344 C 43.519531 39.078125 43.496094 39.042969 43.121094 38.941406 C 42.703125 38.828125 42.007812 39.097656 41.632812 39.523438 C 41.257812 39.953125 41.1875 40.195312 41.117188 41.164062 L 41.074219 41.773438 L 41.410156 42.066406 L 41.433594 41.21875 C 41.453125 40.472656 41.460938 40.410156 41.492188 40.699219 C 41.578125 41.449219 41.800781 42.703125 41.886719 42.933594 C 41.996094 43.21875 42.535156 45.023438 42.582031 45.257812 C 42.664062 45.671875 42.949219 46.566406 43.085938 46.84375 C 43.195312 47.074219 43.472656 47.386719 43.519531 47.339844 C 43.476562 47.164062 43.421875 46.992188 43.351562 46.824219 Z M 49.289062 46.289062 C 49.277344 46.167969 49.253906 45.847656 49.238281 45.578125 C 49.175781 44.464844 49.078125 43.203125 49.035156 42.976562 C 49 42.742188 48.917969 42.527344 48.789062 42.332031 C 48.6875 42.195312 48.648438 42.277344 48.734375 42.449219 C 48.863281 42.703125 48.933594 43.210938 49.101562 45.179688 C 49.207031 46.417969 49.21875 46.511719 49.269531 46.511719 C 49.292969 46.511719 49.300781 46.417969 49.289062 46.289062 Z M 47.253906 44.054688 C 47.183594 43.679688 47.136719 43.300781 47.117188 42.921875 C 47.050781 41.867188 46.984375 41.246094 46.910156 40.953125 C 46.800781 40.519531 46.753906 39.910156 46.738281 38.714844 L 46.71875 37.566406 L 46.542969 37.308594 C 46.371094 37.023438 46.125 36.839844 45.804688 36.761719 C 45.023438 36.53125 44.3125 36.988281 44.019531 37.914062 C 43.953125 38.128906 43.925781 38.382812 43.90625 38.898438 C 43.875 39.910156 43.988281 40.902344 44.242188 41.882812 C 44.550781 43.121094 44.84375 44.21875 44.996094 44.71875 L 45.140625 45.167969 L 45.140625 44.601562 C 45.140625 44.074219 45.148438 44.015625 45.265625 43.769531 C 45.410156 43.46875 45.582031 43.339844 45.921875 43.273438 C 46.515625 43.15625 46.914062 43.570312 47.140625 44.539062 C 47.308594 45.273438 47.316406 45.273438 47.332031 44.84375 C 47.339844 44.574219 47.3125 44.3125 47.25 44.054688 Z M 49.648438 44.183594 C 49.78125 43.648438 49.78125 42.53125 49.652344 41.796875 C 49.464844 40.730469 49.402344 40.105469 49.402344 39.207031 C 49.402344 38.484375 49.414062 38.277344 49.476562 38.082031 C 49.5625 37.835938 49.664062 37.59375 49.773438 37.359375 C 49.78125 37.34375 49.695312 37.210938 49.582031 37.066406 C 49.300781 36.71875 48.796875 36.453125 48.417969 36.457031 C 47.855469 36.457031 47.382812 36.777344 47.050781 37.375 L 46.90625 37.632812 L 46.90625 38.417969 C 46.898438 39.253906 46.964844 40.085938 47.105469 40.910156 C 47.167969 41.28125 47.230469 41.773438 47.246094 42.003906 C 47.339844 43.367188 47.414062 44.011719 47.496094 44.195312 L 47.582031 44.386719 L 47.550781 44.152344 C 47.527344 43.910156 47.519531 43.671875 47.523438 43.429688 C 47.523438 42.78125 47.652344 42.386719 47.960938 42.09375 C 48.3125 41.753906 48.644531 41.714844 48.953125 41.96875 C 49.234375 42.203125 49.359375 42.71875 49.402344 43.828125 C 49.414062 44.183594 49.433594 44.53125 49.449219 44.597656 C 49.46875 44.695312 49.476562 44.703125 49.515625 44.632812 C 49.570312 44.488281 49.617188 44.335938 49.648438 44.183594 Z M 51.804688 39.433594 C 51.734375 39.074219 51.410156 38.164062 51.058594 37.3125 C 50.945312 37.042969 50.757812 36.589844 50.636719 36.296875 C 50.515625 36.007812 50.410156 35.773438 50.394531 35.773438 C 50.359375 35.773438 50.554688 36.371094 50.761719 36.90625 C 51.019531 37.558594 51.636719 39.363281 51.703125 39.660156 C 51.839844 40.257812 51.839844 40.257812 51.859375 40.003906 C 51.859375 39.808594 51.839844 39.617188 51.800781 39.429688 Z M 53.355469 38.890625 C 53.34375 38.859375 53.296875 38.667969 53.242188 38.460938 C 53.128906 38.007812 52.984375 37.746094 52.71875 37.519531 C 52.484375 37.324219 52.445312 37.164062 52.613281 37.074219 C 52.929688 36.910156 53.058594 36.652344 53.152344 36.007812 C 53.230469 35.453125 53.332031 35.421875 53.496094 35.890625 C 53.691406 36.453125 53.730469 36.550781 53.832031 36.714844 C 53.910156 36.832031 54.007812 36.925781 54.128906 36.996094 C 54.414062 37.15625 54.414062 37.300781 54.125 37.515625 C 53.945312 37.648438 53.871094 37.753906 53.757812 38.003906 C 53.679688 38.179688 53.625 38.363281 53.585938 38.554688 C 53.550781 38.808594 53.492188 38.945312 53.425781 38.945312 C 53.390625 38.941406 53.367188 38.921875 53.359375 38.886719 Z M 53.871094 37.324219 C 53.972656 37.238281 53.984375 37.207031 53.929688 37.1875 C 53.765625 37.121094 53.558594 36.816406 53.464844 36.5 L 53.367188 36.171875 L 53.308594 36.441406 C 53.226562 36.789062 53.148438 36.945312 52.953125 37.117188 L 52.796875 37.261719 L 52.992188 37.460938 C 53.121094 37.59375 53.222656 37.746094 53.296875 37.914062 L 53.398438 38.171875 L 53.570312 37.804688 C 53.644531 37.628906 53.746094 37.46875 53.871094 37.324219 Z M 39.121094 37.605469 C 38.992188 37.273438 38.921875 37.199219 38.554688 36.992188 C 38.121094 36.75 38.097656 36.675781 38.351562 36.398438 C 38.632812 36.097656 38.734375 35.804688 38.765625 35.226562 C 38.800781 34.527344 38.890625 34.429688 39.082031 34.875 C 39.226562 35.214844 39.425781 35.519531 39.683594 35.78125 C 39.777344 35.875 39.855469 35.976562 39.921875 36.089844 C 39.894531 36.171875 39.851562 36.246094 39.800781 36.316406 C 39.609375 36.605469 39.519531 36.847656 39.445312 37.285156 C 39.421875 37.4375 39.390625 37.589844 39.347656 37.738281 C 39.292969 37.835938 39.179688 37.773438 39.121094 37.605469 Z M 39.257812 36.921875 C 39.292969 36.753906 39.347656 36.59375 39.425781 36.441406 C 39.585938 36.125 39.585938 36.097656 39.472656 35.988281 C 39.363281 35.867188 39.265625 35.734375 39.179688 35.59375 L 38.984375 35.285156 L 38.949219 35.550781 C 38.910156 35.894531 38.761719 36.238281 38.589844 36.410156 C 38.53125 36.457031 38.488281 36.515625 38.460938 36.589844 C 38.460938 36.617188 38.585938 36.699219 38.734375 36.769531 C 38.867188 36.828125 38.984375 36.910156 39.082031 37.015625 C 39.1875 37.175781 39.222656 37.15625 39.257812 36.921875 Z M 43.082031 35.113281 C 42.90625 34.8125 42.929688 34.46875 43.144531 34.289062 C 43.265625 34.1875 43.460938 34.246094 43.574219 34.417969 C 43.75 34.6875 43.695312 35.039062 43.449219 35.1875 C 43.261719 35.300781 43.183594 35.285156 43.082031 35.117188 Z M 43.359375 34.980469 C 43.464844 34.921875 43.472656 34.761719 43.375 34.621094 C 43.320312 34.535156 43.292969 34.523438 43.21875 34.566406 C 43.113281 34.621094 43.09375 34.882812 43.183594 34.972656 C 43.25 35.042969 43.25 35.042969 43.359375 34.980469 Z M 50.78125 31.375 C 50.613281 31.191406 50.679688 30.660156 50.886719 30.519531 C 51.132812 30.351562 51.414062 30.707031 51.34375 31.097656 C 51.28125 31.445312 50.984375 31.589844 50.78125 31.371094 Z M 51.089844 31.160156 C 51.199219 30.953125 51.078125 30.703125 50.933594 30.828125 C 50.847656 30.898438 50.839844 31.183594 50.921875 31.21875 C 51.019531 31.257812 51.042969 31.25 51.089844 31.160156 Z M 46.78125 30.445312 C 46.664062 30.222656 46.285156 29.902344 46.09375 29.859375 C 45.898438 29.816406 45.839844 29.722656 45.933594 29.621094 C 46.144531 29.382812 46.375 28.597656 46.378906 28.105469 C 46.378906 27.878906 46.386719 27.871094 46.453125 27.957031 C 46.488281 28.007812 46.613281 28.214844 46.726562 28.414062 C 46.867188 28.664062 46.972656 28.792969 47.054688 28.824219 C 47.21875 28.890625 47.386719 29.050781 47.386719 29.148438 C 47.371094 29.222656 47.339844 29.289062 47.292969 29.347656 C 47.132812 29.558594 47.050781 29.8125 47.023438 30.21875 C 47.007812 30.449219 46.972656 30.617188 46.941406 30.628906 C 46.90625 30.640625 46.839844 30.554688 46.78125 30.445312 Z M 47.007812 29.347656 L 47.105469 29.152344 L 46.964844 29.09375 C 46.851562 29.027344 46.761719 28.9375 46.691406 28.824219 C 46.613281 28.695312 46.554688 28.640625 46.542969 28.679688 C 46.53125 28.722656 46.5 28.847656 46.46875 28.96875 C 46.425781 29.121094 46.363281 29.261719 46.28125 29.398438 L 46.152344 29.605469 L 46.394531 29.769531 C 46.519531 29.851562 46.636719 29.949219 46.746094 30.054688 L 46.859375 30.175781 L 46.882812 29.855469 C 46.898438 29.679688 46.9375 29.507812 47.007812 29.34375 Z M 47.007812 29.347656 " fill-opacity="1" fill-rule="nonzero"/></g></svg>