<svg xmlns="http://www.w3.org/2000/svg" xmlns:xlink="http://www.w3.org/1999/xlink" width="250" zoomAndPan="magnify" viewBox="0 0 187.5 187.499992" height="250" preserveAspectRatio="xMidYMid meet" version="1.0"><defs><clipPath id="2a30fae76a"><path d="M 76.71875 56.101562 L 110.378906 56.101562 L 110.378906 130.902344 L 76.71875 130.902344 Z M 76.71875 56.101562 " clip-rule="nonzero"/></clipPath></defs><g clip-path="url(#2a30fae76a)"><path fill="#000000" d="M 82.949219 130.34375 C 82.878906 129.632812 82.722656 126.636719 82.605469 123.554688 C 82.554688 122.238281 82.449219 120.734375 82.371094 120.214844 C 82.1875 118.941406 81.566406 116.019531 81.054688 113.984375 C 80.542969 111.953125 80.429688 111.34375 80.019531 108.414062 C 79.488281 104.625 79.453125 104.058594 79.542969 100.484375 C 79.671875 95.417969 79.652344 94.71875 79.347656 92.4375 C 79.003906 89.9375 78.964844 87.6875 79.234375 86.703125 C 79.683594 85.070312 80.578125 84.164062 81.964844 83.929688 C 82.375 83.863281 82.378906 83.859375 82.464844 82.5625 C 82.585938 80.667969 82.882812 79.890625 83.847656 78.90625 C 85.003906 77.71875 86.710938 77.261719 87.863281 77.832031 L 88.261719 78.027344 L 88.300781 77.734375 C 88.550781 76.011719 88.75 75.464844 89.464844 74.527344 C 90.226562 73.535156 91.175781 73.085938 92.253906 73.210938 C 93.300781 73.332031 94.128906 73.878906 94.546875 74.730469 L 94.804688 75.246094 L 95.015625 74.832031 C 95.546875 73.785156 96.605469 73.007812 97.636719 72.902344 C 98.316406 72.832031 99.222656 73.085938 99.910156 73.539062 C 100.453125 73.894531 101.089844 74.601562 101.089844 74.84375 C 101.089844 74.90625 101.261719 74.824219 101.464844 74.671875 C 101.890625 74.324219 101.894531 74.460938 101.453125 72.921875 C 101.328125 72.519531 101.238281 72.109375 101.183594 71.695312 C 101.183594 71.136719 101.664062 70.816406 102.046875 71.117188 C 102.300781 71.316406 102.617188 71.902344 103.707031 74.152344 C 104.285156 75.332031 104.796875 76.535156 105.242188 77.773438 C 105.6875 79.082031 105.742188 79.324219 105.761719 80.183594 C 105.785156 81.046875 105.828125 81.21875 106.117188 81.84375 C 106.453125 82.503906 106.824219 83.144531 107.238281 83.761719 C 108.101562 85.066406 108.414062 85.773438 108.671875 86.945312 C 108.8125 87.578125 108.828125 87.980469 108.777344 89.480469 C 108.746094 90.464844 108.648438 91.949219 108.566406 92.773438 C 108.394531 94.433594 108.429688 97.933594 108.632812 99.785156 C 108.761719 100.96875 108.691406 103.464844 108.492188 104.539062 C 108.355469 105.304688 108.101562 106.011719 107.234375 108.101562 C 106.296875 110.355469 105.605469 112.367188 105.242188 113.882812 C 103.992188 119.085938 104.054688 118.507812 104.082031 124.414062 C 104.089844 127.269531 104.0625 129.503906 104.011719 129.574219 C 103.871094 129.792969 103.746094 128.933594 103.632812 127 C 103.570312 126.019531 103.484375 124.6875 103.433594 124.039062 C 103.296875 122.304688 103.320312 119.714844 103.480469 118.726562 C 103.78125 116.871094 104.914062 112.410156 105.417969 111.109375 C 105.617188 110.59375 105.9375 109.753906 106.125 109.246094 C 106.308594 108.738281 106.695312 107.820312 106.972656 107.207031 C 108.207031 104.488281 108.300781 103.539062 107.960938 97.425781 C 107.832031 95.082031 107.890625 93.648438 108.25 90.125 C 108.390625 88.757812 108.359375 87.710938 108.152344 86.90625 C 107.890625 85.871094 107.746094 85.570312 106.972656 84.40625 C 106.199219 83.238281 105.875 82.632812 105.695312 82.03125 C 105.5625 81.589844 105.542969 81.578125 105.28125 81.773438 C 104.867188 82.089844 104.21875 81.808594 103.746094 81.113281 C 103.195312 80.300781 102.652344 78.613281 102.246094 76.4375 C 102.105469 75.671875 101.945312 75.054688 101.902344 75.054688 C 101.730469 75.054688 101.175781 75.757812 100.945312 76.261719 C 100.566406 77.082031 100.503906 77.675781 100.609375 79.492188 C 100.804688 82.851562 101.289062 85.585938 101.945312 87.003906 C 102.3125 87.800781 102.355469 87.96875 102.351562 88.554688 C 102.351562 89.085938 102.273438 89.382812 101.980469 90.105469 C 101.621094 90.992188 101.617188 91.007812 101.550781 92.738281 C 101.496094 94.167969 101.441406 94.621094 101.253906 95.277344 C 100.933594 96.46875 100.703125 97.675781 100.5625 98.898438 C 100.511719 99.449219 100.488281 99.523438 100.386719 99.367188 C 100.320312 99.253906 100.28125 98.710938 100.285156 97.914062 C 100.285156 96.773438 100.320312 96.535156 100.605469 95.519531 C 100.875 94.546875 100.9375 94.125 101.039062 92.507812 C 101.152344 90.714844 101.175781 90.589844 101.496094 89.75 C 101.902344 88.707031 101.917969 88.328125 101.578125 87.601562 L 101.320312 87.046875 L 101.242188 87.613281 C 101.09375 88.707031 100.796875 89.773438 100.515625 90.230469 L 100.230469 90.679688 L 100.230469 92.257812 C 100.230469 93.96875 100.117188 94.882812 99.878906 95.0625 C 99.636719 95.246094 98.597656 95.214844 98.355469 95.019531 C 98.144531 94.84375 97.492188 93.246094 96.964844 91.59375 C 96.84375 91.167969 96.675781 90.761719 96.46875 90.375 L 96.296875 90.160156 L 96.226562 90.765625 C 96.1875 91.082031 96.128906 91.394531 96.039062 91.699219 C 95.949219 91.953125 95.941406 92.5625 96.003906 94.285156 L 96.085938 96.527344 L 95.847656 96.933594 C 95.761719 97.097656 95.65625 97.25 95.53125 97.386719 C 95.386719 97.480469 94.214844 97.558594 93.964844 97.5 C 93.777344 97.453125 93.660156 97.320312 93.519531 96.992188 C 93.417969 96.75 93.085938 96.019531 92.785156 95.375 C 92.484375 94.726562 92.191406 94.03125 92.125 93.824219 C 91.925781 93.199219 91.632812 92.554688 91.546875 92.554688 C 91.5 92.554688 91.460938 92.675781 91.460938 92.824219 C 91.445312 93.058594 91.394531 93.285156 91.316406 93.503906 C 91.1875 93.859375 91.1875 94.054688 91.28125 94.90625 C 91.34375 95.449219 91.398438 96.398438 91.40625 97.019531 C 91.40625 98.023438 91.390625 98.191406 91.203125 98.546875 C 90.984375 98.953125 90.4375 99.324219 90.0625 99.324219 C 89.878906 99.273438 89.730469 99.171875 89.617188 99.019531 C 89.339844 98.691406 89.296875 98.601562 88.636719 96.980469 C 88.253906 96.035156 88.164062 95.894531 87.921875 95.816406 C 87.710938 95.734375 87.523438 95.613281 87.355469 95.457031 C 87.257812 95.347656 87.140625 95.257812 87.011719 95.1875 C 86.976562 95.1875 87.035156 95.429688 87.140625 95.726562 C 87.445312 96.617188 87.976562 98.722656 87.976562 99.0625 C 87.976562 99.53125 87.5 100.117188 86.914062 100.367188 C 86.695312 100.460938 86.625 100.453125 86.472656 100.3125 C 86.238281 100.105469 85.652344 99.132812 85.144531 98.101562 C 84.808594 97.421875 84.664062 97.238281 84.195312 96.894531 C 82.664062 95.769531 80.632812 91.839844 80.199219 89.164062 C 80.101562 88.554688 80.183594 88.707031 80.5625 89.855469 C 80.941406 91 82.253906 93.476562 83.273438 94.96875 C 84.136719 96.238281 84.28125 96.347656 83.882812 95.449219 C 83 93.460938 83.050781 92.089844 84.027344 91.3125 C 84.449219 90.980469 85.050781 90.871094 85.238281 91.09375 C 85.492188 91.394531 85.503906 91.226562 85.296875 90.421875 C 84.621094 87.835938 84.234375 86.738281 83.65625 85.765625 C 82.964844 84.597656 82.59375 84.472656 81.257812 84.960938 C 80.320312 85.308594 79.800781 86.167969 79.566406 87.78125 C 79.445312 88.605469 79.5 89.492188 79.921875 93.222656 C 80.171875 95.410156 80.171875 95.464844 80.066406 98.300781 C 79.867188 103.664062 80.230469 106.976562 81.621094 112.359375 C 82.660156 116.390625 82.929688 117.792969 83.085938 120.019531 C 83.207031 121.710938 83.21875 130.738281 83.101562 130.855469 C 83.050781 130.90625 82.992188 130.710938 82.957031 130.382812 Z M 87.421875 98.378906 C 87.03125 96.601562 86.164062 93.847656 85.71875 92.976562 C 85.441406 92.421875 84.960938 91.867188 84.761719 91.867188 C 84.648438 91.867188 84.675781 91.933594 84.859375 92.125 C 85.089844 92.421875 85.28125 92.742188 85.429688 93.089844 C 85.734375 93.757812 86.976562 97.378906 87.191406 98.238281 C 87.304688 98.671875 87.515625 98.804688 87.421875 98.378906 Z M 91.074219 97.152344 C 90.980469 95.871094 90.414062 92.851562 90.089844 91.914062 C 89.800781 91.066406 89.277344 90.320312 89.101562 90.496094 C 89.066406 90.53125 89.085938 90.59375 89.148438 90.628906 C 89.570312 90.890625 90.347656 93.691406 90.875 96.871094 C 91 97.613281 91.117188 97.78125 91.074219 97.152344 Z M 95.71875 95.558594 C 95.429688 92.683594 94.867188 90.246094 94.300781 89.390625 C 94.023438 88.96875 93.898438 88.988281 94.128906 89.417969 C 94.277344 89.761719 94.402344 90.117188 94.503906 90.480469 C 94.730469 91.269531 95.433594 94.710938 95.542969 95.605469 C 95.628906 96.28125 95.792969 96.238281 95.722656 95.558594 Z M 87.566406 94.28125 C 86.964844 92.691406 86.828125 90.871094 87.242188 90.035156 C 87.390625 89.761719 87.597656 89.539062 87.863281 89.371094 C 88.125 89.199219 88.414062 89.105469 88.726562 89.082031 L 89.269531 89.019531 L 89.726562 89.480469 C 90.257812 90.015625 90.496094 90.578125 90.816406 92.054688 C 90.980469 92.808594 91.042969 92.992188 91.097656 92.824219 C 91.214844 92.464844 91.058594 91.507812 90.707031 90.410156 C 90.015625 88.28125 88.898438 83.808594 88.613281 82.0625 C 88.507812 81.417969 88.3125 80.414062 88.175781 79.839844 C 87.90625 78.679688 87.851562 78.613281 87.082031 78.40625 C 86.21875 78.179688 84.796875 78.726562 84.019531 79.582031 C 83.246094 80.441406 83.097656 80.929688 82.957031 82.886719 L 82.867188 84.109375 L 83.558594 84.703125 L 83.605469 82.996094 C 83.648438 81.488281 83.664062 81.367188 83.730469 81.945312 C 83.90625 83.457031 84.367188 85.988281 84.542969 86.449219 C 84.765625 87.023438 85.875 90.660156 85.972656 91.132812 C 86.144531 91.964844 86.730469 93.761719 87.007812 94.324219 C 87.242188 94.785156 87.808594 95.414062 87.910156 95.320312 C 87.820312 94.964844 87.703125 94.621094 87.5625 94.285156 Z M 99.789062 93.207031 C 99.761719 92.960938 99.714844 92.316406 99.683594 91.773438 C 99.558594 89.53125 99.355469 86.992188 99.269531 86.535156 C 99.195312 86.066406 99.027344 85.632812 98.761719 85.238281 C 98.546875 84.960938 98.46875 85.125 98.648438 85.46875 C 98.917969 85.988281 99.054688 87.003906 99.402344 90.972656 C 99.621094 93.46875 99.644531 93.652344 99.75 93.652344 C 99.800781 93.652344 99.816406 93.460938 99.792969 93.207031 Z M 95.597656 88.703125 C 95.453125 87.949219 95.355469 87.191406 95.3125 86.425781 C 95.175781 84.296875 95.042969 83.050781 94.890625 82.460938 C 94.667969 81.582031 94.570312 80.355469 94.53125 77.953125 L 94.496094 75.640625 L 94.132812 75.121094 C 93.78125 74.542969 93.273438 74.175781 92.617188 74.015625 C 91.003906 73.550781 89.535156 74.476562 88.9375 76.335938 C 88.796875 76.773438 88.738281 77.277344 88.703125 78.320312 C 88.640625 80.355469 88.871094 82.359375 89.394531 84.332031 C 90.027344 86.828125 90.632812 89.035156 90.949219 90.039062 L 91.242188 90.949219 L 91.242188 89.808594 C 91.242188 88.746094 91.261719 88.628906 91.503906 88.132812 C 91.804688 87.523438 92.152344 87.261719 92.855469 87.128906 C 94.078125 86.898438 94.894531 87.726562 95.367188 89.683594 C 95.710938 91.15625 95.726562 91.164062 95.753906 90.292969 C 95.777344 89.757812 95.722656 89.230469 95.59375 88.707031 Z M 100.53125 88.96875 C 100.804688 87.886719 100.804688 85.636719 100.542969 84.164062 C 100.15625 82.011719 100.023438 80.75 100.023438 78.945312 C 100.023438 77.484375 100.042969 77.066406 100.175781 76.675781 C 100.355469 76.179688 100.558594 75.691406 100.789062 75.21875 C 100.808594 75.1875 100.628906 74.921875 100.394531 74.632812 C 99.816406 73.929688 98.78125 73.394531 97.996094 73.402344 C 96.835938 73.402344 95.859375 74.046875 95.179688 75.253906 L 94.882812 75.769531 L 94.882812 77.351562 C 94.867188 79.039062 95.003906 80.710938 95.296875 82.371094 C 95.417969 83.117188 95.546875 84.113281 95.582031 84.578125 C 95.773438 87.320312 95.925781 88.617188 96.097656 88.988281 L 96.273438 89.375 L 96.207031 88.902344 C 96.164062 88.417969 96.144531 87.933594 96.148438 87.445312 C 96.148438 86.136719 96.421875 85.347656 97.054688 84.753906 C 97.777344 84.074219 98.457031 83.992188 99.097656 84.507812 C 99.675781 84.972656 99.933594 86.015625 100.019531 88.246094 C 100.046875 88.96875 100.089844 89.667969 100.117188 89.796875 C 100.160156 90 100.179688 90.007812 100.253906 89.871094 C 100.371094 89.574219 100.460938 89.273438 100.53125 88.964844 Z M 104.972656 79.398438 C 104.824219 78.671875 104.160156 76.839844 103.433594 75.128906 C 103.203125 74.585938 102.816406 73.667969 102.566406 73.085938 C 102.320312 72.5 102.101562 72.027344 102.066406 72.027344 C 101.992188 72.027344 102.394531 73.234375 102.828125 74.304688 C 103.355469 75.625 104.625 79.257812 104.765625 79.855469 C 105.046875 81.0625 105.046875 81.0625 105.082031 80.542969 C 105.085938 80.15625 105.046875 79.769531 104.96875 79.390625 Z M 108.171875 78.304688 C 108.144531 78.242188 108.042969 77.851562 107.9375 77.441406 C 107.703125 76.523438 107.402344 76 106.851562 75.546875 C 106.371094 75.152344 106.296875 74.828125 106.640625 74.648438 C 107.289062 74.316406 107.554688 73.800781 107.746094 72.496094 C 107.910156 71.382812 108.117188 71.316406 108.457031 72.261719 C 108.859375 73.394531 108.941406 73.59375 109.148438 73.925781 C 109.308594 74.15625 109.515625 74.347656 109.757812 74.492188 C 110.347656 74.8125 110.347656 75.101562 109.75 75.539062 C 109.382812 75.804688 109.230469 76.011719 109 76.519531 C 108.839844 76.875 108.71875 77.242188 108.640625 77.625 C 108.566406 78.140625 108.449219 78.417969 108.3125 78.417969 C 108.242188 78.40625 108.195312 78.367188 108.171875 78.300781 Z M 109.226562 75.144531 C 109.4375 74.972656 109.460938 74.914062 109.351562 74.871094 C 109.015625 74.746094 108.585938 74.128906 108.394531 73.492188 L 108.191406 72.832031 L 108.066406 73.375 C 107.90625 74.074219 107.738281 74.382812 107.335938 74.734375 L 107.011719 75.019531 L 107.421875 75.421875 C 107.683594 75.691406 107.890625 75.996094 108.042969 76.339844 L 108.253906 76.855469 L 108.609375 76.113281 C 108.765625 75.761719 108.972656 75.441406 109.226562 75.152344 Z M 78.839844 75.71875 C 78.574219 75.042969 78.429688 74.894531 77.675781 74.480469 C 76.78125 73.992188 76.730469 73.847656 77.261719 73.289062 C 77.835938 72.675781 78.050781 72.089844 78.113281 70.929688 C 78.1875 69.515625 78.371094 69.316406 78.765625 70.21875 C 79.058594 70.90625 79.472656 71.515625 80 72.042969 C 80.191406 72.230469 80.359375 72.4375 80.496094 72.664062 C 80.4375 72.828125 80.351562 72.980469 80.246094 73.121094 C 79.851562 73.699219 79.667969 74.1875 79.511719 75.074219 C 79.464844 75.382812 79.402344 75.6875 79.316406 75.984375 C 79.195312 76.175781 78.96875 76.050781 78.839844 75.71875 Z M 79.125 74.339844 C 79.199219 74.003906 79.3125 73.679688 79.472656 73.375 C 79.800781 72.730469 79.804688 72.675781 79.566406 72.460938 C 79.34375 72.210938 79.144531 71.949219 78.964844 71.667969 L 78.5625 71.046875 L 78.492188 71.582031 C 78.410156 72.269531 78.105469 72.960938 77.753906 73.304688 C 77.632812 73.402344 77.542969 73.523438 77.484375 73.667969 C 77.484375 73.722656 77.738281 73.890625 78.050781 74.035156 C 78.320312 74.152344 78.558594 74.316406 78.765625 74.527344 C 78.976562 74.851562 79.050781 74.8125 79.121094 74.335938 Z M 87.007812 70.699219 C 86.636719 70.09375 86.691406 69.402344 87.132812 69.035156 C 87.382812 68.828125 87.78125 68.949219 88.015625 69.296875 C 88.382812 69.839844 88.265625 70.542969 87.757812 70.847656 C 87.375 71.074219 87.214844 71.046875 87.007812 70.707031 Z M 87.578125 70.429688 C 87.796875 70.3125 87.8125 69.988281 87.609375 69.703125 C 87.492188 69.53125 87.4375 69.511719 87.28125 69.589844 C 87.070312 69.703125 87.027344 70.230469 87.210938 70.414062 C 87.347656 70.550781 87.347656 70.550781 87.578125 70.429688 Z M 102.863281 63.164062 C 102.515625 62.796875 102.652344 61.726562 103.078125 61.441406 C 103.585938 61.109375 104.171875 61.824219 104.023438 62.605469 C 103.894531 63.308594 103.28125 63.601562 102.863281 63.15625 Z M 103.503906 62.730469 C 103.722656 62.316406 103.480469 61.816406 103.175781 62.066406 C 103.003906 62.207031 102.988281 62.785156 103.152344 62.847656 C 103.355469 62.933594 103.402344 62.917969 103.496094 62.730469 Z M 94.628906 61.292969 C 94.378906 60.84375 93.601562 60.199219 93.207031 60.117188 C 92.808594 60.03125 92.6875 59.839844 92.878906 59.632812 C 93.3125 59.15625 93.789062 57.574219 93.796875 56.582031 C 93.796875 56.125 93.808594 56.105469 93.945312 56.28125 C 94.023438 56.386719 94.277344 56.800781 94.511719 57.203125 C 94.800781 57.707031 95.015625 57.96875 95.191406 58.03125 C 95.527344 58.160156 95.867188 58.488281 95.867188 58.683594 C 95.839844 58.835938 95.777344 58.96875 95.675781 59.085938 C 95.34375 59.507812 95.183594 60.019531 95.125 60.835938 C 95.089844 61.300781 95.023438 61.644531 94.949219 61.664062 C 94.878906 61.683594 94.742188 61.519531 94.621094 61.296875 Z M 95.09375 59.085938 L 95.296875 58.691406 L 95.003906 58.574219 C 94.769531 58.441406 94.582031 58.261719 94.441406 58.03125 C 94.277344 57.773438 94.160156 57.660156 94.136719 57.742188 C 94.109375 57.824219 94.042969 58.074219 93.976562 58.324219 C 93.886719 58.625 93.761719 58.914062 93.597656 59.183594 L 93.328125 59.601562 L 93.824219 59.929688 C 94.082031 60.101562 94.324219 60.292969 94.550781 60.507812 L 94.785156 60.753906 L 94.835938 60.109375 C 94.863281 59.75 94.949219 59.40625 95.09375 59.074219 Z M 95.09375 59.085938 " fill-opacity="1" fill-rule="nonzero"/></g></svg>