<svg xmlns="http://www.w3.org/2000/svg" xmlns:xlink="http://www.w3.org/1999/xlink" width="250" zoomAndPan="magnify" viewBox="0 0 187.5 187.499992" height="250" preserveAspectRatio="xMidYMid meet" version="1.0"><defs><clipPath id="c388018db2"><path d="M 64.128906 28.050781 L 123 28.050781 L 123 158.949219 L 64.128906 158.949219 Z M 64.128906 28.050781 " clip-rule="nonzero"/></clipPath></defs><g clip-path="url(#c388018db2)"><path fill="#000000" d="M 75.074219 157.972656 C 74.945312 156.730469 74.675781 151.492188 74.464844 146.097656 C 74.375 143.789062 74.191406 141.15625 74.058594 140.253906 C 73.730469 138.023438 72.644531 132.910156 71.746094 129.351562 C 70.847656 125.789062 70.648438 124.726562 69.925781 119.601562 C 68.992188 112.964844 68.933594 111.976562 69.09375 105.726562 C 69.316406 96.859375 69.285156 95.632812 68.746094 91.640625 C 68.140625 87.261719 68.078125 83.324219 68.550781 81.601562 C 69.335938 78.746094 70.90625 77.160156 73.34375 76.753906 C 74.066406 76.636719 74.066406 76.628906 74.214844 74.363281 C 74.433594 71.042969 74.949219 69.6875 76.644531 67.960938 C 78.679688 65.882812 81.671875 65.082031 83.699219 66.078125 L 84.394531 66.421875 L 84.46875 65.910156 C 84.90625 62.890625 85.253906 61.933594 86.511719 60.300781 C 87.84375 58.5625 89.507812 57.777344 91.40625 57.996094 C 93.246094 58.203125 94.699219 59.164062 95.429688 60.648438 L 95.882812 61.554688 L 96.253906 60.832031 C 97.1875 59 99.042969 57.640625 100.851562 57.453125 C 102.050781 57.332031 103.640625 57.773438 104.84375 58.566406 C 105.796875 59.191406 106.914062 60.425781 106.914062 60.847656 C 106.914062 60.960938 107.21875 60.820312 107.574219 60.546875 C 108.324219 59.945312 108.328125 60.183594 107.554688 57.484375 C 107.335938 56.785156 107.179688 56.070312 107.082031 55.339844 C 107.082031 54.367188 107.925781 53.804688 108.597656 54.332031 C 109.042969 54.679688 109.601562 55.703125 111.507812 59.640625 C 112.523438 61.703125 113.425781 63.8125 114.210938 65.976562 C 114.988281 68.269531 115.082031 68.691406 115.121094 70.199219 C 115.15625 71.707031 115.234375 72.007812 115.742188 73.101562 C 116.332031 74.257812 116.988281 75.375 117.707031 76.457031 C 119.226562 78.742188 119.777344 79.976562 120.226562 82.027344 C 120.472656 83.136719 120.503906 83.835938 120.417969 86.46875 C 120.359375 88.1875 120.1875 90.78125 120.042969 92.226562 C 119.738281 95.132812 119.804688 101.261719 120.160156 104.5 C 120.390625 106.574219 120.261719 110.933594 119.914062 112.816406 C 119.667969 114.160156 119.230469 115.398438 117.707031 119.050781 C 116.0625 123 114.84375 126.515625 114.207031 129.171875 C 112.015625 138.277344 112.125 137.261719 112.167969 147.601562 C 112.183594 152.597656 112.136719 156.503906 112.050781 156.632812 C 111.800781 157.015625 111.578125 155.507812 111.378906 152.128906 C 111.273438 150.40625 111.121094 148.074219 111.03125 146.945312 C 110.792969 143.910156 110.832031 139.375 111.113281 137.644531 C 111.640625 134.398438 113.632812 126.59375 114.515625 124.316406 C 114.867188 123.414062 115.425781 121.945312 115.753906 121.054688 C 116.082031 120.164062 116.757812 118.558594 117.246094 117.484375 C 119.410156 112.730469 119.578125 111.066406 118.980469 100.371094 C 118.753906 96.265625 118.851562 93.757812 119.492188 87.59375 C 119.734375 85.199219 119.679688 83.371094 119.316406 81.960938 C 118.855469 80.152344 118.601562 79.625 117.246094 77.582031 C 115.886719 75.542969 115.320312 74.484375 115 73.429688 C 114.769531 72.652344 114.738281 72.632812 114.277344 72.980469 C 113.546875 73.527344 112.414062 73.039062 111.582031 71.820312 C 110.613281 70.402344 109.664062 67.445312 108.949219 63.636719 C 108.699219 62.304688 108.421875 61.222656 108.34375 61.222656 C 108.039062 61.222656 107.070312 62.449219 106.660156 63.335938 C 105.996094 64.769531 105.886719 65.808594 106.074219 68.984375 C 106.414062 74.867188 107.265625 79.648438 108.417969 82.128906 C 109.066406 83.527344 109.140625 83.816406 109.128906 84.84375 C 109.128906 85.777344 108.996094 86.292969 108.480469 87.558594 C 107.851562 89.113281 107.84375 89.140625 107.726562 92.167969 C 107.628906 94.664062 107.535156 95.464844 107.203125 96.609375 C 106.640625 98.691406 106.234375 100.804688 105.988281 102.945312 C 105.902344 103.910156 105.859375 104.039062 105.683594 103.769531 C 105.566406 103.566406 105.5 102.617188 105.503906 101.226562 C 105.503906 99.226562 105.5625 98.8125 106.0625 97.03125 C 106.539062 95.335938 106.648438 94.597656 106.824219 91.765625 C 107.027344 88.625 107.066406 88.40625 107.628906 86.9375 C 108.347656 85.109375 108.371094 84.449219 107.777344 83.175781 L 107.324219 82.207031 L 107.1875 83.195312 C 106.925781 85.109375 106.402344 86.980469 105.90625 87.773438 L 105.410156 88.566406 L 105.410156 91.324219 C 105.410156 94.320312 105.210938 95.917969 104.789062 96.238281 C 104.367188 96.558594 102.539062 96.503906 102.117188 96.15625 C 101.746094 95.855469 100.601562 93.058594 99.675781 90.160156 C 99.460938 89.417969 99.171875 88.707031 98.804688 88.027344 L 98.5 87.652344 L 98.375 88.714844 C 98.3125 89.269531 98.203125 89.8125 98.050781 90.351562 C 97.894531 90.792969 97.878906 91.859375 97.992188 94.875 L 98.132812 98.796875 L 97.714844 99.511719 C 97.5625 99.796875 97.375 100.0625 97.160156 100.304688 C 96.902344 100.464844 94.84375 100.605469 94.40625 100.5 C 94.082031 100.417969 93.875 100.183594 93.628906 99.613281 C 93.449219 99.1875 92.867188 97.910156 92.339844 96.78125 C 91.8125 95.648438 91.292969 94.429688 91.179688 94.066406 C 90.832031 92.976562 90.316406 91.84375 90.160156 91.84375 C 90.082031 91.84375 90.015625 92.058594 90.015625 92.316406 C 89.984375 92.726562 89.898438 93.125 89.761719 93.507812 C 89.535156 94.132812 89.53125 94.46875 89.699219 95.960938 C 89.804688 96.910156 89.90625 98.574219 89.914062 99.660156 C 89.914062 101.417969 89.890625 101.710938 89.5625 102.332031 C 89.179688 103.039062 88.21875 103.691406 87.554688 103.691406 C 87.234375 103.601562 86.976562 103.421875 86.777344 103.15625 C 86.289062 102.582031 86.214844 102.429688 85.058594 99.589844 C 84.378906 97.933594 84.226562 97.691406 83.800781 97.554688 C 83.429688 97.40625 83.097656 97.195312 82.808594 96.925781 C 82.632812 96.734375 82.429688 96.578125 82.203125 96.449219 C 82.144531 96.449219 82.242188 96.875 82.425781 97.398438 C 82.964844 98.953125 83.898438 102.640625 83.898438 103.234375 C 83.898438 104.054688 83.058594 105.082031 82.03125 105.515625 C 81.644531 105.679688 81.519531 105.664062 81.253906 105.421875 C 80.847656 105.058594 79.820312 103.355469 78.921875 101.550781 C 78.332031 100.363281 78.078125 100.042969 77.257812 99.441406 C 74.570312 97.46875 71.003906 90.59375 70.242188 85.914062 C 70.066406 84.84375 70.214844 85.113281 70.882812 87.121094 C 71.550781 89.125 73.847656 93.457031 75.640625 96.066406 C 77.15625 98.292969 77.40625 98.480469 76.707031 96.910156 C 75.160156 93.429688 75.246094 91.03125 76.964844 89.667969 C 77.699219 89.089844 78.757812 88.898438 79.089844 89.285156 C 79.535156 89.816406 79.558594 89.519531 79.191406 88.109375 C 78.003906 83.585938 77.328125 81.664062 76.3125 79.964844 C 75.101562 77.921875 74.445312 77.703125 72.101562 78.558594 C 70.453125 79.160156 69.542969 80.671875 69.128906 83.492188 C 68.917969 84.9375 69.019531 86.488281 69.757812 93.015625 C 70.191406 96.839844 70.195312 96.9375 70.011719 101.898438 C 69.65625 111.285156 70.296875 117.082031 72.742188 126.5 C 74.5625 133.554688 75.035156 136.011719 75.3125 139.910156 C 75.519531 142.867188 75.542969 158.667969 75.335938 158.871094 C 75.25 158.957031 75.148438 158.621094 75.085938 158.042969 Z M 82.921875 102.039062 C 82.234375 98.925781 80.714844 94.109375 79.933594 92.582031 C 79.445312 91.613281 78.597656 90.640625 78.25 90.640625 C 78.050781 90.640625 78.097656 90.753906 78.421875 91.09375 C 78.828125 91.613281 79.160156 92.175781 79.425781 92.78125 C 79.957031 93.949219 82.136719 100.289062 82.519531 101.789062 C 82.714844 102.550781 83.085938 102.78125 82.921875 102.039062 Z M 89.335938 99.890625 C 89.171875 97.644531 88.175781 92.367188 87.609375 90.726562 C 87.097656 89.242188 86.183594 87.933594 85.875 88.242188 C 85.808594 88.300781 85.847656 88.410156 85.953125 88.472656 C 86.695312 88.933594 88.058594 93.832031 88.988281 99.402344 C 89.207031 100.695312 89.410156 100.988281 89.332031 99.890625 Z M 97.492188 97.101562 C 96.976562 92.066406 95.996094 87.800781 95 86.308594 C 94.511719 85.574219 94.292969 85.601562 94.695312 86.355469 C 94.960938 86.960938 95.179688 87.582031 95.355469 88.21875 C 95.753906 89.597656 96.984375 95.617188 97.179688 97.179688 C 97.328125 98.363281 97.617188 98.289062 97.496094 97.101562 Z M 83.179688 94.867188 C 82.121094 92.085938 81.878906 88.898438 82.609375 87.4375 C 82.871094 86.957031 83.234375 86.566406 83.695312 86.273438 C 84.15625 85.976562 84.664062 85.808594 85.210938 85.769531 L 86.164062 85.660156 L 86.964844 86.464844 C 87.902344 87.402344 88.320312 88.386719 88.882812 90.96875 C 89.167969 92.289062 89.28125 92.609375 89.378906 92.316406 C 89.582031 91.6875 89.308594 90.011719 88.6875 88.089844 C 87.472656 84.367188 85.515625 76.535156 85.015625 73.484375 C 84.828125 72.351562 84.484375 70.601562 84.246094 69.59375 C 83.769531 67.566406 83.679688 67.445312 82.328125 67.089844 C 80.8125 66.6875 78.308594 67.644531 76.949219 69.144531 C 75.589844 70.648438 75.332031 71.503906 75.085938 74.925781 L 74.925781 77.066406 L 76.140625 78.101562 L 76.222656 75.117188 C 76.296875 72.480469 76.324219 72.265625 76.445312 73.28125 C 76.746094 75.925781 77.558594 80.351562 77.867188 81.160156 C 78.257812 82.164062 80.203125 88.527344 80.378906 89.355469 C 80.679688 90.816406 81.707031 93.960938 82.199219 94.941406 C 82.605469 95.75 83.601562 96.851562 83.777344 96.683594 C 83.621094 96.066406 83.417969 95.460938 83.167969 94.875 Z M 104.632812 92.988281 C 104.585938 92.554688 104.503906 91.429688 104.449219 90.476562 C 104.226562 86.554688 103.875 82.113281 103.722656 81.3125 C 103.589844 80.492188 103.292969 79.734375 102.828125 79.039062 C 102.457031 78.558594 102.316406 78.84375 102.632812 79.449219 C 103.101562 80.351562 103.34375 82.128906 103.953125 89.078125 C 104.335938 93.445312 104.378906 93.769531 104.5625 93.769531 C 104.652344 93.769531 104.683594 93.433594 104.636719 92.988281 Z M 97.277344 85.109375 C 97.019531 83.789062 96.851562 82.457031 96.773438 81.117188 C 96.535156 77.398438 96.300781 75.214844 96.035156 74.179688 C 95.640625 72.644531 95.472656 70.496094 95.40625 66.292969 L 95.34375 62.242188 L 94.703125 61.339844 C 94.085938 60.324219 93.199219 59.679688 92.039062 59.402344 C 89.210938 58.585938 86.636719 60.207031 85.585938 63.464844 C 85.339844 64.226562 85.234375 65.113281 85.167969 66.933594 C 85.0625 70.5 85.46875 74.003906 86.382812 77.453125 C 87.496094 81.824219 88.558594 85.683594 89.113281 87.445312 L 89.628906 89.035156 L 89.628906 87.039062 C 89.628906 85.175781 89.660156 84.972656 90.085938 84.109375 C 90.613281 83.042969 91.230469 82.585938 92.460938 82.351562 C 94.609375 81.949219 96.042969 83.398438 96.867188 86.816406 C 97.476562 89.402344 97.5 89.414062 97.550781 87.886719 C 97.589844 86.949219 97.492188 86.023438 97.265625 85.113281 Z M 105.9375 85.570312 C 106.414062 83.675781 106.417969 79.742188 105.953125 77.160156 C 105.273438 73.394531 105.042969 71.1875 105.042969 68.027344 C 105.042969 65.472656 105.082031 64.742188 105.316406 64.058594 C 105.625 63.1875 105.984375 62.335938 106.390625 61.507812 C 106.421875 61.453125 106.109375 60.992188 105.695312 60.484375 C 104.683594 59.253906 102.863281 58.316406 101.484375 58.328125 C 99.449219 58.328125 97.738281 59.457031 96.539062 61.566406 L 96.019531 62.472656 L 96.019531 65.242188 C 95.992188 68.191406 96.234375 71.117188 96.746094 74.019531 C 96.960938 75.332031 97.1875 77.070312 97.246094 77.886719 C 97.582031 82.6875 97.851562 84.957031 98.15625 85.601562 L 98.457031 86.277344 L 98.347656 85.453125 C 98.269531 84.605469 98.234375 83.757812 98.242188 82.90625 C 98.242188 80.617188 98.71875 79.234375 99.832031 78.191406 C 101.101562 77.003906 102.296875 76.859375 103.421875 77.761719 C 104.4375 78.578125 104.886719 80.402344 105.039062 84.304688 C 105.085938 85.570312 105.164062 86.792969 105.210938 87.019531 C 105.285156 87.375 105.316406 87.390625 105.453125 87.148438 C 105.65625 86.632812 105.816406 86.101562 105.9375 85.558594 Z M 113.738281 68.824219 C 113.472656 67.550781 112.308594 64.347656 111.027344 61.351562 C 110.625 60.398438 109.945312 58.792969 109.511719 57.773438 C 109.078125 56.753906 108.695312 55.917969 108.632812 55.917969 C 108.5 55.917969 109.207031 58.03125 109.96875 59.910156 C 110.894531 62.21875 113.125 68.574219 113.367188 69.621094 C 113.863281 71.730469 113.863281 71.730469 113.925781 70.824219 C 113.929688 70.144531 113.863281 69.472656 113.722656 68.808594 Z M 119.347656 66.90625 C 119.304688 66.796875 119.125 66.117188 118.9375 65.398438 C 118.527344 63.792969 118 62.875 117.035156 62.082031 C 116.1875 61.390625 116.054688 60.820312 116.660156 60.511719 C 117.800781 59.929688 118.265625 59.023438 118.605469 56.742188 C 118.890625 54.796875 119.257812 54.675781 119.847656 56.332031 C 120.558594 58.316406 120.703125 58.664062 121.0625 59.242188 C 121.347656 59.648438 121.707031 59.980469 122.136719 60.234375 C 123.171875 60.796875 123.167969 61.300781 122.117188 62.066406 C 121.476562 62.53125 121.207031 62.894531 120.800781 63.78125 C 120.519531 64.402344 120.3125 65.050781 120.175781 65.71875 C 120.046875 66.625 119.839844 67.105469 119.59375 67.105469 C 119.46875 67.085938 119.390625 67.019531 119.351562 66.902344 Z M 121.203125 61.378906 C 121.570312 61.078125 121.613281 60.972656 121.421875 60.902344 C 120.828125 60.675781 120.078125 59.597656 119.738281 58.488281 L 119.386719 57.332031 L 119.164062 58.277344 C 118.878906 59.507812 118.589844 60.046875 117.886719 60.664062 L 117.3125 61.160156 L 118.035156 61.863281 C 118.496094 62.332031 118.859375 62.867188 119.125 63.46875 L 119.492188 64.371094 L 120.117188 63.074219 C 120.390625 62.457031 120.753906 61.894531 121.203125 61.390625 Z M 67.859375 62.382812 C 67.390625 61.203125 67.140625 60.941406 65.8125 60.210938 C 64.242188 59.359375 64.15625 59.105469 65.085938 58.128906 C 66.09375 57.058594 66.46875 56.035156 66.578125 54 C 66.710938 51.527344 67.03125 51.179688 67.726562 52.753906 C 68.242188 53.957031 68.964844 55.023438 69.890625 55.953125 C 70.230469 56.277344 70.523438 56.640625 70.765625 57.039062 C 70.660156 57.328125 70.511719 57.589844 70.324219 57.835938 C 69.628906 58.847656 69.308594 59.703125 69.035156 61.253906 C 68.957031 61.792969 68.839844 62.324219 68.691406 62.847656 C 68.480469 63.183594 68.082031 62.964844 67.859375 62.382812 Z M 68.359375 59.96875 C 68.484375 59.378906 68.6875 58.816406 68.964844 58.28125 C 69.539062 57.152344 69.550781 57.058594 69.128906 56.679688 C 68.738281 56.246094 68.390625 55.785156 68.078125 55.292969 L 67.367188 54.207031 L 67.25 55.140625 C 67.101562 56.347656 66.570312 57.554688 65.949219 58.160156 C 65.738281 58.332031 65.578125 58.542969 65.472656 58.792969 C 65.472656 58.890625 65.925781 59.179688 66.472656 59.4375 C 66.945312 59.644531 67.363281 59.929688 67.726562 60.300781 C 68.097656 60.867188 68.226562 60.796875 68.351562 59.960938 Z M 82.195312 53.601562 C 81.546875 52.539062 81.636719 51.328125 82.417969 50.6875 C 82.851562 50.328125 83.550781 50.535156 83.964844 51.144531 C 84.609375 52.097656 84.40625 53.324219 83.515625 53.859375 C 82.839844 54.253906 82.554688 54.203125 82.195312 53.613281 Z M 83.195312 53.128906 C 83.578125 52.925781 83.605469 52.355469 83.253906 51.851562 C 83.046875 51.550781 82.949219 51.519531 82.675781 51.660156 C 82.308594 51.855469 82.226562 52.777344 82.554688 53.101562 C 82.792969 53.339844 82.792969 53.339844 83.195312 53.128906 Z M 110.027344 40.414062 C 109.421875 39.769531 109.65625 37.898438 110.40625 37.394531 C 111.300781 36.8125 112.324219 38.070312 112.070312 39.4375 C 111.84375 40.667969 110.761719 41.175781 110.027344 40.402344 Z M 111.152344 39.652344 C 111.542969 38.925781 111.109375 38.050781 110.582031 38.488281 C 110.277344 38.734375 110.25 39.746094 110.539062 39.859375 C 110.894531 40.007812 110.976562 39.980469 111.144531 39.652344 Z M 95.574219 37.132812 C 95.140625 36.351562 93.769531 35.222656 93.074219 35.078125 C 92.378906 34.929688 92.164062 34.59375 92.503906 34.230469 C 93.265625 33.394531 94.101562 30.625 94.117188 28.894531 C 94.117188 28.09375 94.136719 28.0625 94.375 28.371094 C 94.511719 28.550781 94.960938 29.273438 95.371094 29.980469 C 95.875 30.859375 96.253906 31.316406 96.558594 31.433594 C 97.152344 31.65625 97.75 32.230469 97.75 32.574219 C 97.699219 32.835938 97.589844 33.070312 97.414062 33.273438 C 96.832031 34.011719 96.546875 34.910156 96.445312 36.335938 C 96.382812 37.152344 96.265625 37.75 96.140625 37.785156 C 96.015625 37.820312 95.777344 37.53125 95.5625 37.144531 Z M 96.390625 33.273438 L 96.746094 32.585938 L 96.230469 32.378906 C 95.820312 32.148438 95.492188 31.832031 95.246094 31.429688 C 94.960938 30.976562 94.75 30.78125 94.707031 30.921875 C 94.664062 31.0625 94.542969 31.507812 94.433594 31.9375 C 94.273438 32.46875 94.050781 32.972656 93.761719 33.449219 L 93.292969 34.179688 L 94.160156 34.753906 C 94.617188 35.050781 95.042969 35.386719 95.4375 35.761719 L 95.847656 36.191406 L 95.941406 35.066406 C 95.984375 34.4375 96.136719 33.835938 96.390625 33.257812 Z M 96.390625 33.273438 " fill-opacity="1" fill-rule="nonzero"/></g></svg>