<svg xmlns="http://www.w3.org/2000/svg" xmlns:xlink="http://www.w3.org/1999/xlink" width="250" zoomAndPan="magnify" viewBox="0 0 187.5 187.499992" height="250" preserveAspectRatio="xMidYMid meet" version="1.0"><defs><clipPath id="3752daa93f"><path d="M 28.050781 28.050781 L 158.949219 28.050781 L 158.949219 158.949219 L 28.050781 158.949219 Z M 28.050781 28.050781 " clip-rule="nonzero"/></clipPath></defs><g clip-path="url(#3752daa93f)"><path fill="#000000" d="M 93.5 28.078125 C 57.367188 28.078125 28.078125 57.367188 28.078125 93.5 C 28.078125 129.632812 57.367188 158.925781 93.5 158.925781 C 129.632812 158.925781 158.925781 129.632812 158.925781 93.5 C 158.925781 57.367188 129.632812 28.078125 93.5 28.078125 Z M 93.5 151.371094 C 61.539062 151.371094 35.628906 125.460938 35.628906 93.5 C 35.628906 61.539062 61.539062 35.628906 93.5 35.628906 C 125.460938 35.628906 151.371094 61.539062 151.371094 93.5 C 151.371094 125.460938 125.460938 151.371094 93.5 151.371094 Z M 93.5 151.371094 " fill-opacity="1" fill-rule="nonzero"/></g><path fill="#000000" d="M 103.898438 93.5 C 103.898438 94.183594 103.832031 94.859375 103.699219 95.53125 C 103.566406 96.199219 103.371094 96.847656 103.109375 97.480469 C 102.847656 98.109375 102.527344 98.710938 102.148438 99.277344 C 101.769531 99.84375 101.335938 100.371094 100.855469 100.855469 C 100.371094 101.335938 99.84375 101.769531 99.277344 102.148438 C 98.710938 102.527344 98.109375 102.847656 97.480469 103.109375 C 96.847656 103.371094 96.199219 103.566406 95.53125 103.699219 C 94.859375 103.832031 94.183594 103.898438 93.5 103.898438 C 92.816406 103.898438 92.140625 103.832031 91.472656 103.699219 C 90.800781 103.566406 90.152344 103.371094 89.519531 103.109375 C 88.890625 102.847656 88.292969 102.527344 87.722656 102.148438 C 87.15625 101.769531 86.628906 101.335938 86.148438 100.855469 C 85.664062 100.371094 85.234375 99.84375 84.855469 99.277344 C 84.476562 98.710938 84.15625 98.109375 83.894531 97.480469 C 83.632812 96.847656 83.433594 96.199219 83.300781 95.53125 C 83.167969 94.859375 83.101562 94.183594 83.101562 93.5 C 83.101562 92.816406 83.167969 92.140625 83.300781 91.472656 C 83.433594 90.800781 83.632812 90.152344 83.894531 89.519531 C 84.15625 88.890625 84.476562 88.292969 84.855469 87.722656 C 85.234375 87.15625 85.664062 86.628906 86.148438 86.148438 C 86.628906 85.664062 87.15625 85.234375 87.722656 84.855469 C 88.292969 84.476562 88.890625 84.15625 89.519531 83.894531 C 90.152344 83.632812 90.800781 83.433594 91.472656 83.300781 C 92.140625 83.167969 92.816406 83.101562 93.5 83.101562 C 94.183594 83.101562 94.859375 83.167969 95.53125 83.300781 C 96.199219 83.433594 96.847656 83.632812 97.480469 83.894531 C 98.109375 84.15625 98.710938 84.476562 99.277344 84.855469 C 99.84375 85.234375 100.371094 85.664062 100.855469 86.148438 C 101.335938 86.628906 101.769531 87.15625 102.148438 87.722656 C 102.527344 88.292969 102.847656 88.890625 103.109375 89.519531 C 103.371094 90.152344 103.566406 90.800781 103.699219 91.472656 C 103.832031 92.140625 103.898438 92.816406 103.898438 93.5 Z M 103.898438 93.5 " fill-opacity="1" fill-rule="nonzero"/><path fill="#000000" d="M 68.554688 93.5 C 68.554688 94.183594 68.488281 94.859375 68.355469 95.53125 C 68.222656 96.199219 68.027344 96.847656 67.765625 97.480469 C 67.503906 98.109375 67.183594 98.710938 66.804688 99.277344 C 66.425781 99.84375 65.992188 100.371094 65.511719 100.855469 C 65.027344 101.335938 64.503906 101.769531 63.933594 102.148438 C 63.367188 102.527344 62.769531 102.847656 62.136719 103.109375 C 61.507812 103.371094 60.855469 103.566406 60.1875 103.699219 C 59.515625 103.832031 58.839844 103.898438 58.15625 103.898438 C 57.476562 103.898438 56.796875 103.832031 56.128906 103.699219 C 55.460938 103.566406 54.808594 103.371094 54.179688 103.109375 C 53.546875 102.847656 52.949219 102.527344 52.378906 102.148438 C 51.8125 101.769531 51.289062 101.335938 50.804688 100.855469 C 50.320312 100.371094 49.890625 99.84375 49.511719 99.277344 C 49.132812 98.710938 48.8125 98.109375 48.550781 97.480469 C 48.289062 96.847656 48.089844 96.199219 47.957031 95.53125 C 47.824219 94.859375 47.757812 94.183594 47.757812 93.5 C 47.757812 92.816406 47.824219 92.140625 47.957031 91.472656 C 48.089844 90.800781 48.289062 90.152344 48.550781 89.519531 C 48.8125 88.890625 49.132812 88.292969 49.511719 87.722656 C 49.890625 87.15625 50.320312 86.628906 50.804688 86.148438 C 51.289062 85.664062 51.8125 85.234375 52.378906 84.855469 C 52.949219 84.476562 53.546875 84.15625 54.179688 83.894531 C 54.808594 83.632812 55.460938 83.433594 56.128906 83.300781 C 56.796875 83.167969 57.476562 83.101562 58.15625 83.101562 C 58.839844 83.101562 59.515625 83.167969 60.1875 83.300781 C 60.855469 83.433594 61.507812 83.632812 62.136719 83.894531 C 62.769531 84.15625 63.367188 84.476562 63.933594 84.855469 C 64.503906 85.234375 65.027344 85.664062 65.511719 86.148438 C 65.992188 86.628906 66.425781 87.15625 66.804688 87.722656 C 67.183594 88.292969 67.503906 88.890625 67.765625 89.519531 C 68.027344 90.152344 68.222656 90.800781 68.355469 91.472656 C 68.488281 92.140625 68.554688 92.816406 68.554688 93.5 Z M 68.554688 93.5 " fill-opacity="1" fill-rule="nonzero"/><path fill="#000000" d="M 139.242188 93.5 C 139.242188 94.183594 139.175781 94.859375 139.042969 95.53125 C 138.910156 96.199219 138.710938 96.847656 138.449219 97.480469 C 138.191406 98.109375 137.871094 98.710938 137.488281 99.277344 C 137.109375 99.84375 136.679688 100.371094 136.195312 100.855469 C 135.714844 101.335938 135.1875 101.769531 134.621094 102.148438 C 134.054688 102.527344 133.453125 102.847656 132.824219 103.109375 C 132.191406 103.371094 131.542969 103.566406 130.871094 103.699219 C 130.203125 103.832031 129.527344 103.898438 128.84375 103.898438 C 128.160156 103.898438 127.484375 103.832031 126.816406 103.699219 C 126.144531 103.566406 125.496094 103.371094 124.863281 103.109375 C 124.234375 102.847656 123.632812 102.527344 123.066406 102.148438 C 122.5 101.769531 121.972656 101.335938 121.492188 100.855469 C 121.007812 100.371094 120.578125 99.84375 120.199219 99.277344 C 119.816406 98.710938 119.496094 98.109375 119.238281 97.480469 C 118.976562 96.847656 118.777344 96.199219 118.644531 95.53125 C 118.511719 94.859375 118.445312 94.183594 118.445312 93.5 C 118.445312 92.816406 118.511719 92.140625 118.644531 91.472656 C 118.777344 90.800781 118.976562 90.152344 119.238281 89.519531 C 119.496094 88.890625 119.816406 88.292969 120.199219 87.722656 C 120.578125 87.15625 121.007812 86.628906 121.492188 86.148438 C 121.972656 85.664062 122.5 85.234375 123.066406 84.855469 C 123.632812 84.476562 124.234375 84.15625 124.863281 83.894531 C 125.496094 83.632812 126.144531 83.433594 126.816406 83.300781 C 127.484375 83.167969 128.160156 83.101562 128.84375 83.101562 C 129.527344 83.101562 130.203125 83.167969 130.871094 83.300781 C 131.542969 83.433594 132.191406 83.632812 132.824219 83.894531 C 133.453125 84.15625 134.054688 84.476562 134.621094 84.855469 C 135.1875 85.234375 135.714844 85.664062 136.195312 86.148438 C 136.679688 86.628906 137.109375 87.15625 137.488281 87.722656 C 137.871094 88.292969 138.191406 88.890625 138.449219 89.519531 C 138.710938 90.152344 138.910156 90.800781 139.042969 91.472656 C 139.175781 92.140625 139.242188 92.816406 139.242188 93.5 Z M 139.242188 93.5 " fill-opacity="1" fill-rule="nonzero"/></svg>