<svg xmlns="http://www.w3.org/2000/svg" xmlns:xlink="http://www.w3.org/1999/xlink" width="250" zoomAndPan="magnify" viewBox="0 0 187.5 187.499992" height="250" preserveAspectRatio="xMidYMid meet" version="1.0"><defs><clipPath id="7f8d1658d6"><path d="M 119 56.382812 L 130.902344 56.382812 L 130.902344 93 L 119 93 Z M 119 56.382812 " clip-rule="nonzero"/></clipPath><clipPath id="7ebfea3528"><path d="M 56.101562 62 L 74 62 L 74 119 L 56.101562 119 Z M 56.101562 62 " clip-rule="nonzero"/></clipPath><clipPath id="552adc3c00"><path d="M 67 56.382812 L 130.902344 56.382812 L 130.902344 130.433594 L 67 130.433594 Z M 67 56.382812 " clip-rule="nonzero"/></clipPath><clipPath id="d7561d413d"><path d="M 110 99 L 130.902344 99 L 130.902344 106 L 110 106 Z M 110 99 " clip-rule="nonzero"/></clipPath><clipPath id="acb9a87683"><path d="M 94 119 L 100 119 L 100 130.433594 L 94 130.433594 Z M 94 119 " clip-rule="nonzero"/></clipPath></defs><g clip-path="url(#7f8d1658d6)"><path fill="#333333" d="M 127.078125 82.734375 C 128.65625 84.753906 129.527344 85.863281 129.246094 87.464844 C 128.96875 89.035156 127.679688 90.480469 125.414062 91.75 C 125.132812 91.910156 125.03125 92.269531 125.191406 92.550781 C 125.300781 92.742188 125.5 92.851562 125.703125 92.851562 C 125.804688 92.851562 125.902344 92.824219 125.992188 92.773438 C 128.578125 91.324219 130.0625 89.605469 130.40625 87.667969 C 130.777344 85.554688 129.675781 84.144531 128.003906 82.011719 C 127.164062 80.9375 126.113281 79.597656 125.027344 77.859375 C 123.679688 75.699219 119.574219 69.136719 120.402344 61.792969 C 120.574219 60.25 120.957031 58.722656 121.542969 57.242188 C 121.660156 56.941406 121.511719 56.601562 121.210938 56.480469 C 120.910156 56.363281 120.566406 56.511719 120.445312 56.8125 C 119.824219 58.386719 119.417969 60.019531 119.234375 61.660156 C 118.359375 69.410156 122.625 76.238281 124.027344 78.480469 C 125.148438 80.273438 126.21875 81.636719 127.078125 82.734375 Z M 127.078125 82.734375 " fill-opacity="1" fill-rule="nonzero"/></g><path fill="#333333" d="M 117.792969 92.203125 C 117.875 92.242188 117.964844 92.261719 118.050781 92.261719 C 118.269531 92.261719 118.476562 92.140625 118.578125 91.933594 C 118.640625 91.808594 119.222656 90.691406 120.496094 90.492188 C 121.460938 90.34375 122.207031 90.824219 122.410156 90.972656 C 122.675781 91.164062 123.042969 91.109375 123.234375 90.847656 C 123.425781 90.585938 123.371094 90.21875 123.109375 90.027344 C 122.726562 89.746094 121.6875 89.117188 120.3125 89.332031 C 118.453125 89.621094 117.609375 91.234375 117.523438 91.414062 C 117.378906 91.707031 117.5 92.058594 117.792969 92.203125 Z M 117.792969 92.203125 " fill-opacity="1" fill-rule="nonzero"/><path fill="#333333" d="M 60.804688 82.261719 C 60.851562 82.273438 60.898438 82.28125 60.945312 82.28125 C 61.207031 82.28125 61.449219 82.097656 61.515625 81.832031 C 61.828125 80.542969 62.507812 79.453125 63.375 78.695312 C 63.328125 78.90625 63.296875 79.121094 63.296875 79.34375 C 63.296875 80.960938 64.617188 82.28125 66.242188 82.28125 C 67.867188 82.28125 69.1875 80.960938 69.1875 79.34375 C 69.1875 79.207031 69.164062 79.078125 69.144531 78.949219 C 69.21875 79.023438 69.285156 79.089844 69.335938 79.148438 C 69.554688 79.390625 69.925781 79.410156 70.167969 79.191406 C 70.410156 78.976562 70.429688 78.605469 70.210938 78.363281 C 69.695312 77.789062 68.277344 76.453125 66.253906 76.40625 C 66.253906 76.40625 66.25 76.40625 66.246094 76.40625 C 66.246094 76.40625 66.242188 76.40625 66.242188 76.40625 C 66.238281 76.40625 66.234375 76.40625 66.234375 76.40625 C 63.589844 76.351562 61.109375 78.515625 60.371094 81.554688 C 60.292969 81.867188 60.488281 82.1875 60.804688 82.261719 Z M 68.007812 79.34375 C 68.007812 80.3125 67.214844 81.105469 66.242188 81.105469 C 65.269531 81.105469 64.476562 80.3125 64.476562 79.34375 C 64.476562 78.375 65.265625 77.585938 66.238281 77.582031 C 66.367188 77.585938 66.488281 77.605469 66.609375 77.621094 C 67.40625 77.789062 68.007812 78.496094 68.007812 79.34375 Z M 68.007812 79.34375 " fill-opacity="1" fill-rule="nonzero"/><path fill="#333333" d="M 69.1875 88.738281 L 68.007812 88.738281 L 68.007812 87.566406 C 68.007812 87.242188 67.746094 86.976562 67.417969 86.976562 C 67.09375 86.976562 66.832031 87.242188 66.832031 87.566406 L 66.832031 88.738281 L 65.652344 88.738281 C 65.328125 88.738281 65.066406 89.003906 65.066406 89.328125 C 65.066406 89.652344 65.328125 89.914062 65.652344 89.914062 L 66.832031 89.914062 L 66.832031 91.089844 C 66.832031 91.414062 67.09375 91.675781 67.417969 91.675781 C 67.746094 91.675781 68.007812 91.414062 68.007812 91.089844 L 68.007812 89.914062 L 69.1875 89.914062 C 69.511719 89.914062 69.773438 89.652344 69.773438 89.328125 C 69.773438 89.003906 69.511719 88.738281 69.1875 88.738281 Z M 69.1875 88.738281 " fill-opacity="1" fill-rule="nonzero"/><path fill="#333333" d="M 62.121094 86.976562 C 62.121094 87.300781 62.382812 87.566406 62.710938 87.566406 C 63.035156 87.566406 63.296875 87.300781 63.296875 86.976562 L 63.296875 85.804688 L 64.476562 85.804688 C 64.800781 85.804688 65.066406 85.539062 65.066406 85.214844 C 65.066406 84.890625 64.800781 84.628906 64.476562 84.628906 L 63.296875 84.628906 L 63.296875 83.453125 C 63.296875 83.128906 63.035156 82.867188 62.710938 82.867188 C 62.382812 82.867188 62.121094 83.128906 62.121094 83.453125 L 62.121094 84.628906 L 60.945312 84.628906 C 60.617188 84.628906 60.355469 84.890625 60.355469 85.214844 C 60.355469 85.539062 60.617188 85.804688 60.945312 85.804688 L 62.121094 85.804688 Z M 62.121094 86.976562 " fill-opacity="1" fill-rule="nonzero"/><g clip-path="url(#7ebfea3528)"><path fill="#333333" d="M 69.1875 117.515625 L 69.1875 108.898438 C 70.71875 106.917969 71.609375 104.554688 71.746094 102.046875 L 73.894531 62.933594 C 73.902344 62.769531 73.847656 62.613281 73.734375 62.496094 C 73.625 62.378906 73.46875 62.3125 73.308594 62.3125 L 56.824219 62.3125 C 56.660156 62.3125 56.507812 62.378906 56.394531 62.496094 C 56.285156 62.613281 56.226562 62.769531 56.234375 62.933594 L 58.382812 102.046875 C 58.519531 104.554688 59.410156 106.917969 60.945312 108.898438 L 60.945312 117.515625 C 60.945312 117.839844 61.207031 118.101562 61.53125 118.101562 L 68.597656 118.101562 C 68.921875 118.101562 69.1875 117.839844 69.1875 117.515625 Z M 62.121094 109.292969 L 68.007812 109.292969 L 68.007812 110.46875 L 62.121094 110.46875 Z M 72.683594 63.488281 L 72.554688 65.835938 L 57.574219 65.835938 L 57.445312 63.488281 Z M 57.636719 67.011719 L 72.492188 67.011719 L 70.570312 101.984375 C 70.445312 104.222656 69.667969 106.339844 68.308594 108.117188 L 61.820312 108.117188 C 60.460938 106.339844 59.683594 104.222656 59.558594 101.984375 Z M 62.121094 116.925781 L 62.121094 111.640625 L 68.007812 111.640625 L 68.007812 116.925781 Z M 62.121094 116.925781 " fill-opacity="1" fill-rule="nonzero"/></g><g clip-path="url(#552adc3c00)"><path fill="#333333" d="M 129.457031 124.105469 C 128.929688 124.527344 128.367188 124.902344 127.777344 125.21875 C 120.175781 129.34375 109.789062 123.605469 104.207031 120.523438 L 103.058594 119.890625 C 102.96875 119.433594 102.859375 118.972656 102.714844 118.511719 C 102.28125 117.117188 101.375 114.207031 98.976562 113.445312 C 98.792969 113.386719 98.613281 113.347656 98.433594 113.320312 C 97.046875 109.195312 94.386719 106.472656 91.582031 106.355469 C 90.832031 106.328125 90.152344 106.492188 89.519531 106.753906 L 90.023438 91.671875 C 91.050781 91.957031 92.089844 92.1875 93.125 92.347656 C 94.570312 92.574219 95.960938 92.671875 97.277344 92.671875 C 100.96875 92.671875 104.078125 91.914062 106.25 91.164062 C 107.851562 90.613281 109.007812 89.226562 109.273438 87.542969 C 109.507812 86.046875 109.015625 84.59375 107.925781 83.546875 C 106.828125 82.5 105.277344 82.050781 103.773438 82.347656 C 100.789062 82.941406 97.636719 83.007812 94.664062 82.542969 C 93.136719 82.308594 91.613281 81.917969 90.121094 81.394531 C 89.96875 80.988281 89.734375 80.613281 89.421875 80.292969 C 88.820312 79.679688 88.011719 79.34375 87.152344 79.34375 C 86.851562 79.34375 86.5625 79.394531 86.285156 79.472656 C 86.257812 79.480469 86.230469 79.484375 86.203125 79.492188 C 86.148438 79.511719 86.089844 79.527344 86.03125 79.546875 L 86.0625 79.117188 C 86.195312 77.304688 84.882812 75.726562 83.074219 75.519531 C 82.9375 75.503906 82.800781 75.507812 82.667969 75.511719 C 82.617188 75.503906 82.570312 75.5 82.523438 75.507812 C 81.039062 75.582031 79.746094 76.613281 79.390625 78.109375 L 77.390625 87.902344 C 77.042969 81.820312 78.171875 76.242188 78.59375 74.175781 C 79.023438 72.066406 79.585938 69.953125 80.265625 67.898438 C 81.441406 64.34375 81.683594 60.574219 80.96875 57.003906 L 80.949219 56.914062 C 80.886719 56.59375 80.574219 56.386719 80.257812 56.453125 C 79.9375 56.515625 79.730469 56.824219 79.792969 57.140625 L 79.8125 57.234375 C 80.488281 60.605469 80.257812 64.167969 79.144531 67.53125 C 78.453125 69.628906 77.878906 71.785156 77.4375 73.945312 C 76.925781 76.464844 75.371094 84.109375 76.617188 91.699219 L 75.203125 98.625 L 67.144531 129.699219 C 67.0625 130.011719 67.25 130.332031 67.566406 130.414062 C 67.617188 130.425781 67.664062 130.433594 67.714844 130.433594 C 67.976562 130.433594 68.214844 130.257812 68.285156 129.992188 L 76.351562 98.890625 L 77.789062 91.847656 L 79.46875 83.597656 L 80.910156 83.792969 C 81.011719 83.804688 81.109375 83.8125 81.207031 83.8125 C 81.6875 83.8125 82.152344 83.65625 82.539062 83.359375 C 83.007812 83.003906 83.308594 82.488281 83.386719 81.90625 L 83.769531 79.042969 C 83.871094 78.304688 83.808594 77.570312 83.59375 76.875 C 84.417969 77.246094 84.957031 78.085938 84.886719 79.03125 L 84.789062 80.394531 C 84.433594 80.796875 84.171875 81.289062 84.046875 81.855469 C 83.226562 87.09375 82.316406 92.40625 81.332031 97.652344 C 80.320312 103.054688 79.210938 108.507812 78.03125 113.863281 C 77.960938 114.179688 78.160156 114.496094 78.480469 114.5625 C 78.519531 114.574219 78.5625 114.578125 78.605469 114.578125 C 78.875 114.578125 79.121094 114.390625 79.179688 114.117188 C 80.363281 108.746094 81.476562 103.28125 82.492188 97.867188 C 83.085938 94.695312 83.652344 91.496094 84.1875 88.3125 L 85.21875 88.453125 C 85.316406 88.464844 85.414062 88.472656 85.511719 88.472656 C 86.597656 88.472656 87.546875 87.667969 87.695312 86.566406 L 88.078125 83.703125 C 88.226562 82.609375 88.011719 81.503906 87.484375 80.550781 C 87.898438 80.621094 88.277344 80.8125 88.578125 81.113281 C 88.957031 81.5 89.160156 82.011719 89.148438 82.542969 L 88.320312 107.378906 C 87.890625 107.652344 87.480469 107.945312 87.089844 108.230469 C 84.367188 110.21875 82.257812 113.160156 80.992188 116.730469 C 80.886719 117.035156 81.046875 117.371094 81.351562 117.480469 C 81.417969 117.503906 81.484375 117.515625 81.546875 117.515625 C 81.792969 117.515625 82.019531 117.363281 82.105469 117.121094 C 83.289062 113.773438 85.253906 111.027344 87.785156 109.179688 C 88.933594 108.339844 90.132812 107.472656 91.53125 107.53125 C 93.765625 107.621094 95.9375 109.867188 97.1875 113.316406 C 96.125 113.476562 95.011719 113.996094 93.660156 114.632812 C 91.898438 115.464844 90.265625 116.550781 88.808594 117.859375 C 88.566406 118.074219 88.546875 118.445312 88.765625 118.6875 C 88.980469 118.929688 89.351562 118.949219 89.59375 118.730469 C 90.96875 117.5 92.503906 116.476562 94.164062 115.695312 C 96.109375 114.777344 97.394531 114.171875 98.617188 114.5625 C 100.429688 115.140625 101.183594 117.5625 101.589844 118.863281 C 102.875 122.980469 101.675781 126.972656 100.445312 129.597656 C 100.304688 129.890625 100.433594 130.238281 100.726562 130.378906 C 100.808594 130.414062 100.890625 130.433594 100.976562 130.433594 C 101.195312 130.433594 101.410156 130.308594 101.507812 130.09375 C 102.546875 127.886719 103.554688 124.757812 103.265625 121.34375 L 103.632812 121.550781 C 107.941406 123.929688 115.015625 127.835938 121.71875 127.835938 C 124.011719 127.835938 126.257812 127.378906 128.339844 126.25 C 128.988281 125.898438 129.613281 125.484375 130.191406 125.019531 C 130.445312 124.816406 130.484375 124.445312 130.28125 124.191406 C 130.082031 123.941406 129.710938 123.898438 129.457031 124.105469 Z M 82.605469 78.886719 L 82.21875 81.75 C 82.183594 82.019531 82.042969 82.261719 81.824219 82.425781 C 81.609375 82.59375 81.339844 82.664062 81.066406 82.628906 L 79.707031 82.445312 L 80.539062 78.363281 C 80.742188 77.503906 81.4375 76.878906 82.265625 76.71875 C 82.582031 77.394531 82.707031 78.136719 82.605469 78.886719 Z M 86.910156 83.546875 L 86.527344 86.410156 C 86.453125 86.96875 85.9375 87.367188 85.375 87.289062 L 84.382812 87.15625 C 84.664062 85.453125 84.941406 83.757812 85.203125 82.074219 C 85.289062 81.6875 85.484375 81.355469 85.75 81.097656 C 85.75 81.09375 85.753906 81.09375 85.753906 81.09375 C 85.894531 80.953125 86.050781 80.839844 86.222656 80.746094 C 86.796875 81.558594 87.046875 82.558594 86.910156 83.546875 Z M 104.003906 83.5 C 105.144531 83.273438 106.277344 83.597656 107.109375 84.394531 C 107.917969 85.167969 108.28125 86.25 108.109375 87.359375 C 107.910156 88.613281 107.050781 89.644531 105.863281 90.054688 C 103.046875 91.027344 98.582031 92.011719 93.304688 91.1875 C 92.222656 91.019531 91.132812 90.773438 90.0625 90.457031 L 90.136719 88.242188 C 91.089844 88.652344 92.078125 88.976562 93.09375 89.207031 C 93.136719 89.214844 93.179688 89.21875 93.222656 89.21875 C 93.492188 89.21875 93.734375 89.035156 93.796875 88.761719 C 93.871094 88.445312 93.671875 88.132812 93.351562 88.0625 C 92.257812 87.8125 91.195312 87.441406 90.179688 86.96875 L 90.242188 85.066406 C 91.21875 85.535156 92.234375 85.914062 93.28125 86.183594 C 94.648438 86.539062 96.054688 86.71875 97.464844 86.71875 C 97.65625 86.71875 97.84375 86.714844 98.035156 86.707031 C 98.359375 86.699219 98.613281 86.425781 98.601562 86.101562 C 98.589844 85.777344 98.3125 85.527344 97.996094 85.535156 C 96.503906 85.585938 95.019531 85.421875 93.578125 85.046875 C 92.4375 84.75 91.332031 84.316406 90.285156 83.765625 L 90.320312 82.703125 C 91.691406 83.148438 93.085938 83.488281 94.480469 83.707031 C 97.585938 84.1875 100.882812 84.117188 104.003906 83.5 Z M 104.003906 83.5 " fill-opacity="1" fill-rule="nonzero"/></g><g clip-path="url(#d7561d413d)"><path fill="#333333" d="M 110.984375 105.183594 C 111.023438 105.183594 111.0625 105.179688 111.101562 105.171875 C 113 104.792969 114.941406 104.601562 116.875 104.59375 C 118.414062 104.589844 119.644531 104.710938 120.703125 104.816406 C 122.382812 104.984375 123.710938 105.117188 125.308594 104.5625 C 127.238281 103.894531 128.925781 102.429688 130.324219 100.210938 C 130.496094 99.933594 130.414062 99.570312 130.140625 99.398438 C 129.863281 99.226562 129.5 99.308594 129.328125 99.582031 C 128.074219 101.570312 126.59375 102.875 124.921875 103.453125 C 123.570312 103.921875 122.476562 103.8125 120.820312 103.648438 C 119.789062 103.542969 118.527344 103.414062 116.871094 103.417969 C 114.863281 103.425781 112.84375 103.625 110.871094 104.019531 C 110.554688 104.082031 110.34375 104.390625 110.410156 104.707031 C 110.464844 104.988281 110.710938 105.183594 110.984375 105.183594 Z M 110.984375 105.183594 " fill-opacity="1" fill-rule="nonzero"/></g><path fill="#333333" d="M 127.101562 108.246094 C 126.132812 109.019531 124.988281 109.589844 123.792969 109.898438 C 121.976562 110.367188 120.386719 110.15625 119.375 109.898438 C 119.058594 109.816406 118.738281 110.007812 118.65625 110.320312 C 118.578125 110.636719 118.769531 110.957031 119.082031 111.035156 C 119.734375 111.203125 120.597656 111.347656 121.597656 111.347656 C 122.359375 111.347656 123.199219 111.265625 124.085938 111.035156 C 125.441406 110.6875 126.738281 110.039062 127.839844 109.164062 C 128.09375 108.960938 128.132812 108.589844 127.929688 108.339844 C 127.726562 108.085938 127.355469 108.042969 127.101562 108.246094 Z M 127.101562 108.246094 " fill-opacity="1" fill-rule="nonzero"/><path fill="#333333" d="M 91.382812 76.644531 C 91.253906 76.910156 91.097656 77.15625 90.90625 77.371094 C 90.613281 77.699219 90.25 77.964844 89.847656 78.144531 C 89.550781 78.277344 89.417969 78.625 89.546875 78.921875 C 89.644531 79.140625 89.859375 79.269531 90.085938 79.269531 C 90.167969 79.269531 90.246094 79.253906 90.324219 79.21875 C 90.878906 78.972656 91.382812 78.601562 91.785156 78.152344 C 92.097656 77.800781 92.347656 77.394531 92.53125 76.960938 C 92.554688 76.964844 92.578125 76.972656 92.601562 76.980469 C 92.988281 77.066406 93.371094 77.136719 93.746094 77.195312 C 93.707031 77.324219 93.667969 77.453125 93.617188 77.582031 C 93.441406 78.011719 93.199219 78.410156 92.890625 78.765625 C 92.679688 79.011719 92.710938 79.382812 92.957031 79.59375 C 93.066406 79.691406 93.203125 79.738281 93.339844 79.738281 C 93.503906 79.738281 93.671875 79.667969 93.785156 79.53125 C 94.175781 79.078125 94.484375 78.570312 94.707031 78.019531 C 94.796875 77.796875 94.871094 77.566406 94.929688 77.335938 C 95.402344 77.375 95.867188 77.398438 96.316406 77.398438 C 96.507812 77.398438 96.695312 77.390625 96.882812 77.386719 C 96.8125 77.730469 96.722656 78.070312 96.601562 78.398438 C 96.484375 78.699219 96.34375 78.992188 96.1875 79.273438 C 96.027344 79.554688 96.125 79.914062 96.410156 80.074219 C 96.5 80.125 96.601562 80.148438 96.699219 80.148438 C 96.902344 80.148438 97.101562 80.042969 97.210938 79.851562 C 97.398438 79.519531 97.5625 79.171875 97.699219 78.816406 C 97.886719 78.328125 98.019531 77.820312 98.101562 77.300781 C 98.613281 77.25 99.113281 77.171875 99.589844 77.082031 C 99.621094 77.3125 99.675781 77.535156 99.746094 77.757812 C 99.933594 78.320312 100.253906 78.84375 100.679688 79.265625 C 100.792969 79.378906 100.945312 79.4375 101.097656 79.4375 C 101.246094 79.4375 101.398438 79.378906 101.511719 79.265625 C 101.742188 79.035156 101.742188 78.664062 101.511719 78.433594 C 101.21875 78.140625 100.992188 77.78125 100.867188 77.390625 C 100.804688 77.203125 100.769531 77.011719 100.75 76.8125 C 101.273438 76.675781 101.769531 76.527344 102.234375 76.363281 C 102.511719 76.765625 102.84375 77.117188 103.234375 77.417969 C 103.832031 77.882812 104.542969 78.199219 105.289062 78.339844 C 105.328125 78.347656 105.363281 78.347656 105.398438 78.347656 C 105.679688 78.347656 105.925781 78.152344 105.976562 77.871094 C 106.039062 77.550781 105.828125 77.246094 105.507812 77.183594 C 104.941406 77.078125 104.40625 76.839844 103.957031 76.492188 C 103.738281 76.324219 103.546875 76.128906 103.375 75.917969 C 104.304688 75.523438 105.066406 75.113281 105.636719 74.773438 C 106.046875 75.113281 106.480469 75.421875 106.953125 75.660156 C 107.617188 75.996094 108.328125 76.222656 109.066406 76.335938 C 109.097656 76.339844 109.128906 76.34375 109.15625 76.34375 C 109.441406 76.34375 109.691406 76.136719 109.738281 75.84375 C 109.785156 75.523438 109.566406 75.226562 109.246094 75.175781 C 108.628906 75.082031 108.039062 74.890625 107.484375 74.613281 C 107.03125 74.382812 106.617188 74.085938 106.234375 73.75 C 106.148438 73.183594 105.839844 72.675781 105.347656 72.359375 C 104.769531 71.988281 104.050781 71.933594 103.421875 72.21875 C 100.957031 73.335938 98.339844 73.953125 95.65625 74.054688 C 91.152344 74.230469 87.566406 72.910156 85.351562 71.773438 C 85.089844 71.636719 84.769531 71.714844 84.597656 71.957031 C 84.429688 72.195312 84.464844 72.523438 84.679688 72.722656 C 86.074219 74.03125 88.316406 75.691406 91.382812 76.644531 Z M 95.703125 75.230469 C 98.542969 75.121094 101.304688 74.46875 103.910156 73.289062 C 104.175781 73.171875 104.46875 73.191406 104.710938 73.347656 C 104.871094 73.449219 104.984375 73.59375 105.046875 73.761719 C 103.039062 74.957031 98.433594 77.109375 92.867188 75.835938 C 91.511719 75.523438 90.308594 75.058594 89.257812 74.519531 C 91.113281 75.011719 93.28125 75.328125 95.703125 75.230469 Z M 95.703125 75.230469 " fill-opacity="1" fill-rule="nonzero"/><g clip-path="url(#acb9a87683)"><path fill="#333333" d="M 98.769531 119.476562 C 98.238281 120.082031 97.660156 120.65625 97.058594 121.183594 C 96.34375 121.808594 95.574219 122.382812 94.773438 122.890625 C 94.5 123.066406 94.417969 123.429688 94.59375 123.703125 C 94.707031 123.878906 94.894531 123.972656 95.089844 123.972656 C 95.199219 123.972656 95.308594 123.945312 95.40625 123.882812 C 95.859375 123.597656 96.296875 123.289062 96.726562 122.964844 L 96.269531 129.808594 C 96.246094 130.132812 96.492188 130.410156 96.816406 130.433594 C 96.828125 130.433594 96.84375 130.433594 96.855469 130.433594 C 97.164062 130.433594 97.421875 130.195312 97.445312 129.886719 L 97.972656 121.933594 C 98.5625 121.40625 99.128906 120.84375 99.652344 120.25 C 99.867188 120.007812 99.84375 119.636719 99.597656 119.421875 C 99.355469 119.207031 98.984375 119.230469 98.769531 119.476562 Z M 98.769531 119.476562 " fill-opacity="1" fill-rule="nonzero"/></g><path fill="#333333" d="M 86.839844 65.523438 C 86.949219 65.523438 87.0625 65.492188 87.160156 65.429688 C 89.796875 63.738281 92.699219 62.578125 95.78125 61.988281 C 98.832031 61.40625 101.929688 61.40625 104.980469 61.988281 C 105.203125 62.03125 105.425781 61.945312 105.558594 61.769531 C 105.695312 61.589844 105.71875 61.351562 105.617188 61.152344 C 104.703125 59.328125 102.875 58.121094 100.847656 58 C 98.367188 57.851562 95.964844 58.226562 93.691406 59.105469 C 90.050781 60.511719 87.703125 62.859375 86.375 64.578125 C 86.199219 64.804688 86.214844 65.125 86.40625 65.335938 C 86.523438 65.457031 86.679688 65.523438 86.839844 65.523438 Z M 94.117188 60.199219 C 95.929688 59.496094 97.839844 59.144531 99.800781 59.144531 C 100.125 59.144531 100.449219 59.152344 100.777344 59.171875 C 101.949219 59.242188 103.039062 59.769531 103.824219 60.609375 C 101.074219 60.238281 98.300781 60.3125 95.5625 60.835938 C 93.625 61.207031 91.757812 61.789062 89.976562 62.578125 C 91.089844 61.691406 92.460938 60.839844 94.117188 60.199219 Z M 94.117188 60.199219 " fill-opacity="1" fill-rule="nonzero"/></svg>