<svg xmlns="http://www.w3.org/2000/svg" xmlns:xlink="http://www.w3.org/1999/xlink" width="125" zoomAndPan="magnify" viewBox="0 0 94.079994 101.04" height="125" preserveAspectRatio="xMidYMid meet" version="1.0"><defs><clipPath id="704da6be26"><path d="M 59 28.003906 L 64.988281 28.003906 L 64.988281 47 L 59 47 Z M 59 28.003906 " clip-rule="nonzero"/></clipPath><clipPath id="764b59c1e2"><path d="M 27.851562 30 L 37 30 L 37 59 L 27.851562 59 Z M 27.851562 30 " clip-rule="nonzero"/></clipPath><clipPath id="f017c3c1f4"><path d="M 33 28.003906 L 64.988281 28.003906 L 64.988281 65.144531 L 33 65.144531 Z M 33 28.003906 " clip-rule="nonzero"/></clipPath><clipPath id="aa9354b7f3"><path d="M 54 49 L 64.988281 49 L 64.988281 53 L 54 53 Z M 54 49 " clip-rule="nonzero"/></clipPath><clipPath id="b7076ea664"><path d="M 46 59 L 50 59 L 50 65.144531 L 46 65.144531 Z M 46 59 " clip-rule="nonzero"/></clipPath><clipPath id="5a268526df"><path d="M 42 28.003906 L 53 28.003906 L 53 33 L 42 33 Z M 42 28.003906 " clip-rule="nonzero"/></clipPath></defs><g clip-path="url(#704da6be26)"><path fill="#333333" d="M 63.089844 41.222656 C 63.875 42.234375 64.308594 42.792969 64.167969 43.59375 C 64.03125 44.382812 63.390625 45.105469 62.265625 45.742188 C 62.125 45.824219 62.074219 46.003906 62.15625 46.144531 C 62.207031 46.242188 62.308594 46.292969 62.410156 46.292969 C 62.457031 46.292969 62.507812 46.28125 62.554688 46.257812 C 63.835938 45.527344 64.574219 44.667969 64.742188 43.695312 C 64.929688 42.636719 64.382812 41.929688 63.550781 40.859375 C 63.132812 40.320312 62.613281 39.648438 62.074219 38.777344 C 61.402344 37.695312 59.367188 34.402344 59.777344 30.71875 C 59.863281 29.945312 60.054688 29.179688 60.34375 28.4375 C 60.402344 28.285156 60.328125 28.117188 60.179688 28.054688 C 60.027344 27.996094 59.859375 28.070312 59.800781 28.222656 C 59.492188 29.011719 59.289062 29.828125 59.195312 30.652344 C 58.761719 34.539062 60.882812 37.964844 61.578125 39.089844 C 62.132812 39.988281 62.664062 40.671875 63.089844 41.222656 Z M 63.089844 41.222656 " fill-opacity="1" fill-rule="nonzero"/></g><path fill="#333333" d="M 58.480469 45.96875 C 58.523438 45.992188 58.566406 46 58.609375 46 C 58.71875 46 58.820312 45.941406 58.871094 45.835938 C 58.902344 45.773438 59.191406 45.210938 59.824219 45.113281 C 60.304688 45.039062 60.671875 45.277344 60.773438 45.355469 C 60.90625 45.449219 61.085938 45.421875 61.183594 45.289062 C 61.277344 45.160156 61.25 44.976562 61.121094 44.878906 C 60.929688 44.738281 60.414062 44.421875 59.734375 44.53125 C 58.808594 44.675781 58.390625 45.484375 58.347656 45.574219 C 58.277344 45.722656 58.335938 45.898438 58.480469 45.96875 Z M 58.480469 45.96875 " fill-opacity="1" fill-rule="nonzero"/><path fill="#333333" d="M 30.1875 40.984375 C 30.210938 40.992188 30.234375 40.992188 30.257812 40.992188 C 30.390625 40.992188 30.507812 40.902344 30.539062 40.769531 C 30.695312 40.125 31.035156 39.574219 31.464844 39.195312 C 31.441406 39.300781 31.425781 39.410156 31.425781 39.519531 C 31.425781 40.332031 32.082031 40.992188 32.886719 40.992188 C 33.695312 40.992188 34.347656 40.332031 34.347656 39.519531 C 34.347656 39.453125 34.339844 39.386719 34.328125 39.324219 C 34.367188 39.359375 34.398438 39.394531 34.425781 39.425781 C 34.53125 39.546875 34.71875 39.554688 34.835938 39.445312 C 34.957031 39.335938 34.964844 39.152344 34.859375 39.03125 C 34.601562 38.742188 33.898438 38.074219 32.894531 38.050781 C 32.894531 38.050781 32.890625 38.050781 32.890625 38.050781 C 32.890625 38.050781 32.886719 38.046875 32.886719 38.046875 C 32.886719 38.046875 32.882812 38.050781 32.882812 38.050781 C 31.570312 38.019531 30.339844 39.105469 29.972656 40.628906 C 29.933594 40.789062 30.03125 40.945312 30.1875 40.984375 Z M 33.765625 39.519531 C 33.765625 40.007812 33.371094 40.40625 32.886719 40.40625 C 32.40625 40.40625 32.011719 40.007812 32.011719 39.519531 C 32.011719 39.035156 32.402344 38.640625 32.886719 38.636719 C 32.949219 38.640625 33.007812 38.648438 33.070312 38.65625 C 33.464844 38.742188 33.765625 39.097656 33.765625 39.519531 Z M 33.765625 39.519531 " fill-opacity="1" fill-rule="nonzero"/><path fill="#333333" d="M 34.347656 44.234375 L 33.765625 44.234375 L 33.765625 43.644531 C 33.765625 43.480469 33.632812 43.351562 33.472656 43.351562 C 33.3125 43.351562 33.179688 43.480469 33.179688 43.644531 L 33.179688 44.234375 L 32.59375 44.234375 C 32.433594 44.234375 32.304688 44.363281 32.304688 44.527344 C 32.304688 44.691406 32.433594 44.820312 32.59375 44.820312 L 33.179688 44.820312 L 33.179688 45.410156 C 33.179688 45.574219 33.3125 45.707031 33.472656 45.707031 C 33.632812 45.707031 33.765625 45.574219 33.765625 45.410156 L 33.765625 44.820312 L 34.347656 44.820312 C 34.511719 44.820312 34.640625 44.691406 34.640625 44.527344 C 34.640625 44.363281 34.511719 44.234375 34.347656 44.234375 Z M 34.347656 44.234375 " fill-opacity="1" fill-rule="nonzero"/><path fill="#333333" d="M 30.839844 43.351562 C 30.839844 43.511719 30.972656 43.644531 31.132812 43.644531 C 31.296875 43.644531 31.425781 43.511719 31.425781 43.351562 L 31.425781 42.761719 L 32.011719 42.761719 C 32.171875 42.761719 32.304688 42.628906 32.304688 42.464844 C 32.304688 42.304688 32.171875 42.171875 32.011719 42.171875 L 31.425781 42.171875 L 31.425781 41.582031 C 31.425781 41.421875 31.296875 41.289062 31.132812 41.289062 C 30.972656 41.289062 30.839844 41.421875 30.839844 41.582031 L 30.839844 42.171875 L 30.257812 42.171875 C 30.09375 42.171875 29.964844 42.304688 29.964844 42.464844 C 29.964844 42.628906 30.09375 42.761719 30.257812 42.761719 L 30.839844 42.761719 Z M 30.839844 43.351562 " fill-opacity="1" fill-rule="nonzero"/><g clip-path="url(#764b59c1e2)"><path fill="#333333" d="M 34.347656 58.664062 L 34.347656 54.34375 C 35.109375 53.347656 35.550781 52.164062 35.621094 50.90625 L 36.6875 31.292969 C 36.691406 31.210938 36.664062 31.132812 36.609375 31.074219 C 36.550781 31.015625 36.476562 30.980469 36.394531 30.980469 L 28.210938 30.980469 C 28.132812 30.980469 28.054688 31.015625 28 31.074219 C 27.945312 31.132812 27.914062 31.210938 27.917969 31.292969 L 28.984375 50.90625 C 29.054688 52.164062 29.496094 53.347656 30.257812 54.34375 L 30.257812 58.664062 C 30.257812 58.828125 30.386719 58.957031 30.550781 58.957031 L 34.058594 58.957031 C 34.21875 58.957031 34.347656 58.828125 34.347656 58.664062 Z M 30.839844 54.539062 L 33.765625 54.539062 L 33.765625 55.128906 L 30.839844 55.128906 Z M 36.085938 31.570312 L 36.023438 32.746094 L 28.582031 32.746094 L 28.519531 31.570312 Z M 28.617188 33.335938 L 35.988281 33.335938 L 35.035156 50.875 C 34.976562 52 34.585938 53.058594 33.914062 53.953125 L 30.691406 53.953125 C 30.019531 53.058594 29.628906 52 29.570312 50.875 Z M 30.839844 58.371094 L 30.839844 55.71875 L 33.765625 55.71875 L 33.765625 58.371094 Z M 30.839844 58.371094 " fill-opacity="1" fill-rule="nonzero"/></g><g clip-path="url(#f017c3c1f4)"><path fill="#333333" d="M 64.273438 61.96875 C 64.011719 62.179688 63.730469 62.367188 63.4375 62.527344 C 59.664062 64.597656 54.507812 61.71875 51.734375 60.171875 L 51.167969 59.855469 C 51.121094 59.625 51.066406 59.394531 50.996094 59.164062 C 50.78125 58.464844 50.332031 57.007812 49.140625 56.621094 C 49.050781 56.59375 48.960938 56.574219 48.871094 56.558594 C 48.179688 54.492188 46.859375 53.125 45.46875 53.070312 C 45.097656 53.054688 44.757812 53.136719 44.445312 53.265625 L 44.695312 45.703125 C 45.203125 45.847656 45.71875 45.960938 46.234375 46.042969 C 46.953125 46.15625 47.640625 46.207031 48.296875 46.207031 C 50.128906 46.207031 51.671875 45.824219 52.75 45.449219 C 53.546875 45.171875 54.121094 44.476562 54.25 43.632812 C 54.367188 42.882812 54.125 42.152344 53.582031 41.628906 C 53.039062 41.105469 52.269531 40.878906 51.523438 41.027344 C 50.039062 41.324219 48.472656 41.359375 46.996094 41.125 C 46.242188 41.007812 45.484375 40.8125 44.742188 40.550781 C 44.667969 40.347656 44.550781 40.160156 44.394531 40 C 44.097656 39.691406 43.695312 39.519531 43.269531 39.519531 C 43.117188 39.519531 42.976562 39.546875 42.835938 39.585938 C 42.824219 39.589844 42.8125 39.589844 42.796875 39.597656 C 42.769531 39.605469 42.742188 39.613281 42.714844 39.625 L 42.730469 39.40625 C 42.792969 38.5 42.140625 37.707031 41.246094 37.601562 C 41.175781 37.59375 41.109375 37.597656 41.042969 37.597656 C 41.019531 37.597656 40.996094 37.59375 40.96875 37.597656 C 40.234375 37.632812 39.59375 38.152344 39.414062 38.902344 L 38.421875 43.8125 C 38.25 40.761719 38.8125 37.964844 39.019531 36.929688 C 39.234375 35.871094 39.511719 34.8125 39.847656 33.78125 C 40.433594 32 40.554688 30.109375 40.199219 28.316406 L 40.191406 28.273438 C 40.160156 28.113281 40.003906 28.007812 39.847656 28.042969 C 39.6875 28.074219 39.585938 28.226562 39.617188 28.386719 L 39.625 28.433594 C 39.960938 30.125 39.847656 31.910156 39.292969 33.597656 C 38.949219 34.648438 38.664062 35.730469 38.445312 36.8125 C 38.191406 38.078125 37.421875 41.910156 38.039062 45.71875 L 37.335938 49.191406 L 33.335938 64.773438 C 33.296875 64.933594 33.390625 65.09375 33.546875 65.132812 C 33.570312 65.140625 33.59375 65.144531 33.617188 65.144531 C 33.75 65.144531 33.867188 65.054688 33.902344 64.921875 L 37.90625 49.324219 L 38.621094 45.792969 L 39.457031 41.65625 L 40.171875 41.753906 C 40.21875 41.757812 40.269531 41.761719 40.316406 41.761719 C 40.554688 41.761719 40.785156 41.683594 40.980469 41.535156 C 41.210938 41.355469 41.359375 41.097656 41.398438 40.804688 L 41.589844 39.371094 C 41.640625 39 41.609375 38.632812 41.503906 38.285156 C 41.910156 38.46875 42.179688 38.890625 42.144531 39.367188 L 42.097656 40.050781 C 41.917969 40.25 41.789062 40.496094 41.726562 40.78125 C 41.320312 43.40625 40.867188 46.074219 40.378906 48.703125 C 39.878906 51.410156 39.324219 54.148438 38.742188 56.832031 C 38.707031 56.992188 38.804688 57.148438 38.964844 57.183594 C 38.984375 57.1875 39.003906 57.191406 39.027344 57.191406 C 39.160156 57.191406 39.28125 57.097656 39.3125 56.960938 C 39.898438 54.265625 40.453125 51.527344 40.957031 48.8125 C 41.25 47.21875 41.53125 45.617188 41.796875 44.019531 L 42.308594 44.089844 C 42.359375 44.09375 42.40625 44.097656 42.457031 44.097656 C 42.996094 44.097656 43.464844 43.695312 43.539062 43.144531 L 43.730469 41.707031 C 43.800781 41.160156 43.695312 40.605469 43.433594 40.125 C 43.640625 40.160156 43.828125 40.257812 43.976562 40.410156 C 44.164062 40.601562 44.265625 40.859375 44.261719 41.125 L 43.847656 53.582031 C 43.636719 53.71875 43.433594 53.863281 43.238281 54.007812 C 41.886719 55.003906 40.839844 56.480469 40.210938 58.269531 C 40.15625 58.425781 40.238281 58.59375 40.390625 58.644531 C 40.421875 58.65625 40.453125 58.664062 40.488281 58.664062 C 40.609375 58.664062 40.71875 58.585938 40.761719 58.46875 C 41.351562 56.789062 42.324219 55.410156 43.582031 54.484375 C 44.152344 54.0625 44.75 53.628906 45.445312 53.65625 C 46.550781 53.703125 47.628906 54.828125 48.253906 56.558594 C 47.726562 56.636719 47.171875 56.898438 46.5 57.21875 C 45.625 57.636719 44.816406 58.179688 44.089844 58.835938 C 43.972656 58.945312 43.960938 59.132812 44.070312 59.253906 C 44.175781 59.371094 44.363281 59.382812 44.480469 59.273438 C 45.164062 58.65625 45.925781 58.144531 46.75 57.75 C 47.714844 57.292969 48.355469 56.988281 48.960938 57.183594 C 49.863281 57.472656 50.238281 58.6875 50.4375 59.339844 C 51.074219 61.40625 50.480469 63.40625 49.867188 64.722656 C 49.800781 64.871094 49.863281 65.046875 50.007812 65.113281 C 50.046875 65.132812 50.089844 65.144531 50.132812 65.144531 C 50.242188 65.144531 50.347656 65.078125 50.398438 64.972656 C 50.914062 63.863281 51.414062 62.296875 51.269531 60.585938 L 51.453125 60.6875 C 53.589844 61.882812 57.101562 63.839844 60.429688 63.839844 C 61.570312 63.839844 62.683594 63.609375 63.71875 63.046875 C 64.039062 62.867188 64.351562 62.660156 64.636719 62.425781 C 64.765625 62.324219 64.785156 62.140625 64.683594 62.011719 C 64.582031 61.886719 64.398438 61.867188 64.273438 61.96875 Z M 41.011719 39.292969 L 40.820312 40.726562 C 40.800781 40.863281 40.730469 40.984375 40.625 41.066406 C 40.515625 41.152344 40.382812 41.1875 40.246094 41.167969 L 39.570312 41.078125 L 39.984375 39.03125 C 40.085938 38.601562 40.429688 38.285156 40.84375 38.207031 C 41 38.542969 41.0625 38.914062 41.011719 39.292969 Z M 43.148438 41.628906 L 42.957031 43.066406 C 42.921875 43.347656 42.667969 43.542969 42.386719 43.503906 L 41.894531 43.4375 C 42.035156 42.585938 42.171875 41.734375 42.300781 40.890625 C 42.34375 40.699219 42.441406 40.53125 42.574219 40.402344 C 42.574219 40.398438 42.574219 40.398438 42.574219 40.398438 C 42.644531 40.328125 42.722656 40.269531 42.808594 40.226562 C 43.09375 40.632812 43.214844 41.132812 43.148438 41.628906 Z M 51.636719 41.605469 C 52.203125 41.492188 52.765625 41.65625 53.175781 42.054688 C 53.578125 42.441406 53.757812 42.984375 53.671875 43.542969 C 53.574219 44.167969 53.148438 44.6875 52.558594 44.894531 C 51.160156 45.378906 48.945312 45.875 46.324219 45.460938 C 45.785156 45.378906 45.246094 45.253906 44.714844 45.09375 L 44.75 43.984375 C 45.222656 44.1875 45.714844 44.351562 46.21875 44.46875 C 46.242188 44.472656 46.261719 44.476562 46.285156 44.476562 C 46.417969 44.476562 46.539062 44.382812 46.570312 44.246094 C 46.605469 44.085938 46.503906 43.929688 46.347656 43.894531 C 45.804688 43.769531 45.277344 43.582031 44.773438 43.34375 L 44.804688 42.390625 C 45.289062 42.625 45.792969 42.816406 46.3125 42.953125 C 46.992188 43.128906 47.6875 43.21875 48.390625 43.21875 C 48.484375 43.21875 48.578125 43.21875 48.671875 43.214844 C 48.832031 43.210938 48.960938 43.074219 48.953125 42.910156 C 48.949219 42.746094 48.8125 42.621094 48.652344 42.625 C 47.910156 42.652344 47.175781 42.570312 46.460938 42.382812 C 45.894531 42.234375 45.34375 42.015625 44.824219 41.738281 L 44.84375 41.207031 C 45.523438 41.429688 46.214844 41.601562 46.90625 41.707031 C 48.449219 41.953125 50.085938 41.917969 51.636719 41.605469 Z M 51.636719 41.605469 " fill-opacity="1" fill-rule="nonzero"/></g><g clip-path="url(#aa9354b7f3)"><path fill="#333333" d="M 55.101562 52.480469 C 55.121094 52.480469 55.140625 52.476562 55.160156 52.472656 C 56.101562 52.285156 57.066406 52.1875 58.027344 52.183594 C 58.789062 52.183594 59.398438 52.242188 59.925781 52.296875 C 60.761719 52.378906 61.421875 52.445312 62.214844 52.167969 C 63.171875 51.832031 64.007812 51.097656 64.703125 49.984375 C 64.789062 49.847656 64.746094 49.664062 64.613281 49.578125 C 64.476562 49.492188 64.292969 49.535156 64.207031 49.671875 C 63.585938 50.667969 62.851562 51.320312 62.023438 51.613281 C 61.351562 51.847656 60.808594 51.792969 59.984375 51.710938 C 59.472656 51.65625 58.84375 51.59375 58.023438 51.59375 C 57.027344 51.597656 56.023438 51.699219 55.046875 51.894531 C 54.886719 51.925781 54.785156 52.082031 54.816406 52.242188 C 54.84375 52.382812 54.964844 52.480469 55.101562 52.480469 Z M 55.101562 52.480469 " fill-opacity="1" fill-rule="nonzero"/></g><path fill="#333333" d="M 63.105469 54.015625 C 62.621094 54.402344 62.054688 54.691406 61.460938 54.84375 C 60.558594 55.078125 59.769531 54.972656 59.265625 54.84375 C 59.109375 54.804688 58.949219 54.898438 58.910156 55.058594 C 58.871094 55.214844 58.964844 55.375 59.121094 55.414062 C 59.445312 55.496094 59.875 55.570312 60.371094 55.570312 C 60.746094 55.570312 61.164062 55.527344 61.605469 55.414062 C 62.277344 55.238281 62.921875 54.914062 63.46875 54.476562 C 63.59375 54.375 63.617188 54.1875 63.515625 54.0625 C 63.414062 53.933594 63.230469 53.914062 63.105469 54.015625 Z M 63.105469 54.015625 " fill-opacity="1" fill-rule="nonzero"/><path fill="#333333" d="M 45.367188 38.167969 C 45.304688 38.300781 45.226562 38.425781 45.132812 38.53125 C 44.988281 38.695312 44.804688 38.832031 44.605469 38.921875 C 44.460938 38.988281 44.394531 39.160156 44.457031 39.308594 C 44.507812 39.417969 44.613281 39.484375 44.726562 39.484375 C 44.765625 39.484375 44.804688 39.476562 44.84375 39.457031 C 45.121094 39.335938 45.371094 39.148438 45.570312 38.925781 C 45.722656 38.75 45.847656 38.542969 45.9375 38.324219 C 45.953125 38.328125 45.964844 38.332031 45.976562 38.335938 C 46.167969 38.378906 46.355469 38.414062 46.542969 38.445312 C 46.523438 38.507812 46.503906 38.574219 46.480469 38.636719 C 46.390625 38.851562 46.269531 39.054688 46.117188 39.234375 C 46.015625 39.355469 46.027344 39.542969 46.152344 39.648438 C 46.207031 39.695312 46.273438 39.71875 46.339844 39.71875 C 46.421875 39.71875 46.503906 39.683594 46.5625 39.617188 C 46.757812 39.386719 46.910156 39.132812 47.019531 38.859375 C 47.066406 38.746094 47.101562 38.632812 47.128906 38.515625 C 47.363281 38.535156 47.59375 38.546875 47.820312 38.546875 C 47.914062 38.546875 48.007812 38.542969 48.101562 38.539062 C 48.066406 38.710938 48.023438 38.882812 47.960938 39.046875 C 47.902344 39.199219 47.832031 39.34375 47.753906 39.484375 C 47.675781 39.628906 47.722656 39.808594 47.863281 39.886719 C 47.910156 39.914062 47.960938 39.925781 48.007812 39.925781 C 48.109375 39.925781 48.210938 39.871094 48.261719 39.777344 C 48.355469 39.609375 48.4375 39.433594 48.507812 39.257812 C 48.597656 39.011719 48.664062 38.757812 48.707031 38.496094 C 48.960938 38.46875 49.207031 38.433594 49.445312 38.386719 C 49.460938 38.5 49.484375 38.617188 49.523438 38.726562 C 49.613281 39.007812 49.773438 39.269531 49.984375 39.480469 C 50.042969 39.539062 50.117188 39.566406 50.191406 39.566406 C 50.265625 39.566406 50.339844 39.539062 50.398438 39.480469 C 50.511719 39.367188 50.511719 39.179688 50.398438 39.066406 C 50.253906 38.917969 50.140625 38.738281 50.078125 38.542969 C 50.046875 38.449219 50.03125 38.351562 50.019531 38.253906 C 50.28125 38.183594 50.527344 38.109375 50.757812 38.027344 C 50.894531 38.226562 51.0625 38.40625 51.253906 38.558594 C 51.550781 38.789062 51.902344 38.949219 52.273438 39.019531 C 52.292969 39.019531 52.3125 39.023438 52.328125 39.023438 C 52.46875 39.023438 52.589844 38.925781 52.617188 38.78125 C 52.644531 38.621094 52.539062 38.46875 52.382812 38.4375 C 52.101562 38.386719 51.835938 38.265625 51.613281 38.089844 C 51.503906 38.007812 51.410156 37.910156 51.324219 37.804688 C 51.785156 37.605469 52.164062 37.402344 52.445312 37.230469 C 52.648438 37.402344 52.863281 37.554688 53.101562 37.675781 C 53.429688 37.84375 53.78125 37.957031 54.148438 38.011719 C 54.164062 38.015625 54.179688 38.015625 54.195312 38.015625 C 54.335938 38.015625 54.460938 37.914062 54.480469 37.765625 C 54.507812 37.605469 54.398438 37.457031 54.238281 37.429688 C 53.933594 37.382812 53.640625 37.289062 53.363281 37.148438 C 53.140625 37.035156 52.933594 36.886719 52.742188 36.714844 C 52.699219 36.433594 52.546875 36.175781 52.304688 36.019531 C 52.015625 35.832031 51.660156 35.804688 51.347656 35.949219 C 50.121094 36.507812 48.824219 36.816406 47.492188 36.871094 C 45.253906 36.957031 43.476562 36.296875 42.375 35.722656 C 42.246094 35.65625 42.085938 35.695312 42 35.816406 C 41.917969 35.9375 41.933594 36.101562 42.039062 36.203125 C 42.734375 36.855469 43.847656 37.691406 45.367188 38.167969 Z M 47.515625 37.460938 C 48.921875 37.402344 50.292969 37.078125 51.589844 36.484375 C 51.722656 36.425781 51.867188 36.4375 51.988281 36.515625 C 52.066406 36.566406 52.121094 36.636719 52.152344 36.722656 C 51.15625 37.324219 48.871094 38.402344 46.105469 37.761719 C 45.433594 37.605469 44.835938 37.371094 44.3125 37.101562 C 45.234375 37.347656 46.3125 37.507812 47.515625 37.460938 Z M 47.515625 37.460938 " fill-opacity="1" fill-rule="nonzero"/><g clip-path="url(#b7076ea664)"><path fill="#333333" d="M 49.035156 59.648438 C 48.773438 59.949219 48.484375 60.238281 48.1875 60.503906 C 47.832031 60.816406 47.449219 61.105469 47.054688 61.359375 C 46.917969 61.449219 46.875 61.628906 46.964844 61.765625 C 47.019531 61.855469 47.113281 61.902344 47.210938 61.902344 C 47.265625 61.902344 47.320312 61.886719 47.367188 61.859375 C 47.589844 61.714844 47.808594 61.558594 48.023438 61.394531 L 47.796875 64.828125 C 47.785156 64.992188 47.90625 65.132812 48.066406 65.140625 C 48.074219 65.144531 48.082031 65.144531 48.085938 65.144531 C 48.238281 65.144531 48.367188 65.023438 48.378906 64.867188 L 48.640625 60.878906 C 48.933594 60.617188 49.214844 60.332031 49.476562 60.035156 C 49.582031 59.914062 49.570312 59.726562 49.449219 59.621094 C 49.328125 59.511719 49.144531 59.523438 49.035156 59.648438 Z M 49.035156 59.648438 " fill-opacity="1" fill-rule="nonzero"/></g><g clip-path="url(#5a268526df)"><path fill="#333333" d="M 43.113281 32.589844 C 43.167969 32.589844 43.222656 32.574219 43.273438 32.542969 C 44.582031 31.695312 46.023438 31.113281 47.554688 30.820312 C 49.066406 30.527344 50.605469 30.527344 52.121094 30.820312 C 52.230469 30.839844 52.339844 30.796875 52.410156 30.707031 C 52.476562 30.617188 52.488281 30.5 52.4375 30.398438 C 51.984375 29.484375 51.074219 28.878906 50.066406 28.816406 C 48.835938 28.742188 47.644531 28.929688 46.515625 29.371094 C 44.707031 30.078125 43.542969 31.253906 42.882812 32.117188 C 42.796875 32.230469 42.804688 32.390625 42.898438 32.496094 C 42.957031 32.558594 43.035156 32.589844 43.113281 32.589844 Z M 46.726562 29.921875 C 47.628906 29.570312 48.574219 29.390625 49.546875 29.390625 C 49.710938 29.390625 49.871094 29.394531 50.035156 29.40625 C 50.617188 29.441406 51.15625 29.707031 51.546875 30.128906 C 50.179688 29.941406 48.804688 29.976562 47.445312 30.238281 C 46.484375 30.425781 45.554688 30.71875 44.671875 31.113281 C 45.222656 30.667969 45.902344 30.242188 46.726562 29.921875 Z M 46.726562 29.921875 " fill-opacity="1" fill-rule="nonzero"/></g></svg>