<svg xmlns="http://www.w3.org/2000/svg" xmlns:xlink="http://www.w3.org/1999/xlink" width="250" zoomAndPan="magnify" viewBox="0 0 187.5 187.499992" height="250" preserveAspectRatio="xMidYMid meet" version="1.0"><defs><clipPath id="a4b4c00217"><path d="M 138 28.542969 L 158.949219 28.542969 L 158.949219 93 L 138 93 Z M 138 28.542969 " clip-rule="nonzero"/></clipPath><clipPath id="baf112ccbe"><path d="M 28.050781 38 L 60 38 L 60 138 L 28.050781 138 Z M 28.050781 38 " clip-rule="nonzero"/></clipPath><clipPath id="8194c24272"><path d="M 47 28.542969 L 158.949219 28.542969 L 158.949219 158.695312 L 47 158.695312 Z M 47 28.542969 " clip-rule="nonzero"/></clipPath><clipPath id="e3ab69ff5d"><path d="M 123 103 L 158.949219 103 L 158.949219 115 L 123 115 Z M 123 103 " clip-rule="nonzero"/></clipPath><clipPath id="1b8df24751"><path d="M 95 139 L 105 139 L 105 158.695312 L 95 158.695312 Z M 95 139 " clip-rule="nonzero"/></clipPath></defs><g clip-path="url(#a4b4c00217)"><path fill="#333333" d="M 152.261719 74.859375 C 155.027344 78.40625 156.550781 80.359375 156.054688 83.171875 C 155.566406 85.9375 153.3125 88.472656 149.351562 90.707031 C 148.855469 90.988281 148.679688 91.617188 148.960938 92.113281 C 149.148438 92.449219 149.496094 92.636719 149.859375 92.636719 C 150.03125 92.636719 150.203125 92.59375 150.363281 92.507812 C 154.886719 89.953125 157.484375 86.933594 158.082031 83.527344 C 158.738281 79.8125 156.804688 77.335938 153.882812 73.589844 C 152.410156 71.699219 150.574219 69.347656 148.671875 66.289062 C 146.3125 62.496094 139.132812 50.960938 140.578125 38.050781 C 140.882812 35.34375 141.550781 32.652344 142.574219 30.054688 C 142.78125 29.527344 142.523438 28.925781 141.992188 28.71875 C 141.464844 28.507812 140.867188 28.769531 140.65625 29.300781 C 139.570312 32.066406 138.855469 34.933594 138.53125 37.820312 C 137.003906 51.445312 144.472656 63.4375 146.925781 67.382812 C 148.882812 70.53125 150.753906 72.929688 152.261719 74.859375 Z M 152.261719 74.859375 " fill-opacity="1" fill-rule="nonzero"/></g><path fill="#333333" d="M 136.007812 91.5 C 136.15625 91.570312 136.308594 91.605469 136.460938 91.605469 C 136.84375 91.605469 137.210938 91.394531 137.386719 91.027344 C 137.496094 90.804688 138.515625 88.847656 140.742188 88.496094 C 142.433594 88.234375 143.734375 89.074219 144.09375 89.339844 C 144.554688 89.679688 145.199219 89.578125 145.535156 89.121094 C 145.871094 88.660156 145.773438 88.015625 145.3125 87.675781 C 144.644531 87.183594 142.828125 86.074219 140.425781 86.457031 C 137.167969 86.964844 135.695312 89.796875 135.539062 90.117188 C 135.289062 90.632812 135.5 91.25 136.007812 91.5 Z M 136.007812 91.5 " fill-opacity="1" fill-rule="nonzero"/><path fill="#333333" d="M 36.28125 74.03125 C 36.363281 74.050781 36.445312 74.058594 36.527344 74.058594 C 36.988281 74.058594 37.410156 73.742188 37.527344 73.269531 C 38.074219 71.007812 39.261719 69.089844 40.78125 67.761719 C 40.699219 68.128906 40.648438 68.507812 40.648438 68.898438 C 40.648438 71.746094 42.957031 74.058594 45.796875 74.058594 C 48.640625 74.058594 50.949219 71.746094 50.949219 68.898438 C 50.949219 68.660156 50.910156 68.433594 50.878906 68.207031 C 51.011719 68.335938 51.121094 68.457031 51.214844 68.558594 C 51.59375 68.980469 52.246094 69.015625 52.667969 68.632812 C 53.09375 68.253906 53.125 67.601562 52.746094 67.175781 C 51.839844 66.171875 49.355469 63.824219 45.820312 63.738281 C 45.816406 63.738281 45.8125 63.738281 45.804688 63.738281 C 45.804688 63.738281 45.800781 63.738281 45.796875 63.738281 C 45.792969 63.738281 45.785156 63.738281 45.78125 63.738281 C 41.15625 63.640625 36.8125 67.449219 35.523438 72.785156 C 35.390625 73.339844 35.730469 73.894531 36.28125 74.03125 Z M 48.890625 68.898438 C 48.890625 70.605469 47.503906 71.996094 45.796875 71.996094 C 44.09375 71.996094 42.707031 70.605469 42.707031 68.898438 C 42.707031 67.195312 44.089844 65.808594 45.789062 65.804688 C 46.015625 65.808594 46.226562 65.84375 46.441406 65.871094 C 47.839844 66.167969 48.890625 67.414062 48.890625 68.898438 Z M 48.890625 68.898438 " fill-opacity="1" fill-rule="nonzero"/><path fill="#333333" d="M 50.949219 85.414062 L 48.890625 85.414062 L 48.890625 83.347656 C 48.890625 82.777344 48.429688 82.316406 47.859375 82.316406 C 47.289062 82.316406 46.828125 82.777344 46.828125 83.347656 L 46.828125 85.414062 L 44.769531 85.414062 C 44.199219 85.414062 43.738281 85.875 43.738281 86.445312 C 43.738281 87.015625 44.199219 87.476562 44.769531 87.476562 L 46.828125 87.476562 L 46.828125 89.542969 C 46.828125 90.113281 47.289062 90.574219 47.859375 90.574219 C 48.429688 90.574219 48.890625 90.113281 48.890625 89.542969 L 48.890625 87.476562 L 50.949219 87.476562 C 51.519531 87.476562 51.980469 87.015625 51.980469 86.445312 C 51.980469 85.875 51.519531 85.414062 50.949219 85.414062 Z M 50.949219 85.414062 " fill-opacity="1" fill-rule="nonzero"/><path fill="#333333" d="M 38.585938 82.316406 C 38.585938 82.886719 39.046875 83.347656 39.617188 83.347656 C 40.1875 83.347656 40.648438 82.886719 40.648438 82.316406 L 40.648438 80.253906 L 42.707031 80.253906 C 43.277344 80.253906 43.738281 79.789062 43.738281 79.21875 C 43.738281 78.652344 43.277344 78.1875 42.707031 78.1875 L 40.648438 78.1875 L 40.648438 76.125 C 40.648438 75.554688 40.1875 75.089844 39.617188 75.089844 C 39.046875 75.089844 38.585938 75.554688 38.585938 76.125 L 38.585938 78.1875 L 36.527344 78.1875 C 35.957031 78.1875 35.496094 78.652344 35.496094 79.21875 C 35.496094 79.789062 35.957031 80.253906 36.527344 80.253906 L 38.585938 80.253906 Z M 38.585938 82.316406 " fill-opacity="1" fill-rule="nonzero"/><g clip-path="url(#baf112ccbe)"><path fill="#333333" d="M 50.949219 135.988281 L 50.949219 120.84375 C 53.632812 117.359375 55.1875 113.207031 55.429688 108.800781 L 59.191406 40.054688 C 59.207031 39.773438 59.105469 39.496094 58.910156 39.289062 C 58.714844 39.082031 58.445312 38.964844 58.160156 38.964844 L 29.3125 38.964844 C 29.03125 38.964844 28.761719 39.082031 28.566406 39.289062 C 28.371094 39.496094 28.269531 39.773438 28.285156 40.054688 L 32.046875 108.800781 C 32.285156 113.210938 33.839844 117.359375 36.527344 120.84375 L 36.527344 135.988281 C 36.527344 136.558594 36.988281 137.019531 37.554688 137.019531 L 49.917969 137.019531 C 50.488281 137.019531 50.949219 136.558594 50.949219 135.988281 Z M 38.585938 121.539062 L 48.890625 121.539062 L 48.890625 123.601562 L 38.585938 123.601562 Z M 57.074219 41.03125 L 56.847656 45.160156 L 30.628906 45.160156 L 30.402344 41.03125 Z M 30.742188 47.222656 L 56.734375 47.222656 L 53.375 108.691406 C 53.15625 112.628906 51.789062 116.34375 49.414062 119.472656 L 38.058594 119.472656 C 35.683594 116.34375 34.316406 112.628906 34.101562 108.691406 Z M 38.585938 134.957031 L 38.585938 125.667969 L 48.890625 125.667969 L 48.890625 134.957031 Z M 38.585938 134.957031 " fill-opacity="1" fill-rule="nonzero"/></g><g clip-path="url(#8194c24272)"><path fill="#333333" d="M 156.421875 147.570312 C 155.503906 148.3125 154.515625 148.96875 153.484375 149.53125 C 140.183594 156.777344 122.003906 146.695312 112.234375 141.277344 L 110.226562 140.160156 C 110.070312 139.359375 109.878906 138.554688 109.628906 137.742188 C 108.867188 135.289062 107.28125 130.179688 103.085938 128.835938 C 102.765625 128.734375 102.449219 128.667969 102.132812 128.617188 C 99.703125 121.363281 95.050781 116.578125 90.144531 116.378906 C 88.828125 116.324219 87.640625 116.613281 86.535156 117.074219 L 87.414062 90.566406 C 89.210938 91.070312 91.03125 91.476562 92.839844 91.757812 C 95.375 92.15625 97.804688 92.324219 100.105469 92.324219 C 106.574219 92.324219 112.011719 90.992188 115.808594 89.679688 C 118.613281 88.707031 120.640625 86.265625 121.101562 83.308594 C 121.511719 80.683594 120.652344 78.125 118.742188 76.289062 C 116.824219 74.445312 114.113281 73.65625 111.480469 74.179688 C 106.253906 75.222656 100.738281 75.339844 95.535156 74.527344 C 92.863281 74.109375 90.195312 73.421875 87.585938 72.507812 C 87.316406 71.792969 86.910156 71.132812 86.359375 70.570312 C 85.308594 69.492188 83.894531 68.898438 82.390625 68.898438 C 81.863281 68.898438 81.355469 68.988281 80.871094 69.125 C 80.824219 69.136719 80.777344 69.144531 80.730469 69.164062 C 80.632812 69.195312 80.53125 69.222656 80.429688 69.257812 L 80.484375 68.503906 C 80.71875 65.320312 78.417969 62.539062 75.253906 62.175781 C 75.011719 62.148438 74.777344 62.160156 74.542969 62.160156 C 74.457031 62.152344 74.375 62.144531 74.289062 62.15625 C 71.691406 62.285156 69.433594 64.101562 68.808594 66.734375 L 65.3125 83.941406 C 64.699219 73.25 66.675781 63.449219 67.414062 59.816406 C 68.164062 56.105469 69.148438 52.394531 70.335938 48.785156 C 72.394531 42.535156 72.820312 35.910156 71.566406 29.636719 L 71.535156 29.476562 C 71.425781 28.917969 70.882812 28.550781 70.324219 28.664062 C 69.765625 28.773438 69.402344 29.316406 69.511719 29.878906 L 69.546875 30.039062 C 70.730469 35.96875 70.328125 42.226562 68.378906 48.140625 C 67.164062 51.824219 66.160156 55.617188 65.390625 59.410156 C 64.496094 63.839844 61.777344 77.277344 63.957031 90.613281 L 61.484375 102.789062 L 47.375 157.402344 C 47.234375 157.957031 47.566406 158.519531 48.117188 158.660156 C 48.203125 158.683594 48.289062 158.695312 48.375 158.695312 C 48.832031 158.695312 49.25 158.386719 49.371094 157.921875 L 63.488281 103.253906 L 66.003906 90.878906 L 68.949219 76.378906 L 71.46875 76.71875 C 71.640625 76.738281 71.816406 76.753906 71.988281 76.753906 C 72.828125 76.753906 73.640625 76.480469 74.320312 75.960938 C 75.140625 75.332031 75.664062 74.425781 75.800781 73.402344 L 76.472656 68.371094 C 76.648438 67.070312 76.539062 65.785156 76.167969 64.5625 C 77.605469 65.214844 78.550781 66.691406 78.429688 68.355469 L 78.253906 70.75 C 77.632812 71.453125 77.175781 72.320312 76.957031 73.3125 C 75.523438 82.519531 73.929688 91.859375 72.207031 101.078125 C 70.4375 110.570312 68.492188 120.15625 66.429688 129.574219 C 66.304688 130.128906 66.65625 130.679688 67.214844 130.800781 C 67.285156 130.820312 67.363281 130.828125 67.433594 130.828125 C 67.910156 130.828125 68.335938 130.496094 68.441406 130.015625 C 70.511719 120.578125 72.460938 110.96875 74.234375 101.457031 C 75.277344 95.878906 76.265625 90.261719 77.203125 84.664062 L 79.007812 84.910156 C 79.179688 84.929688 79.351562 84.941406 79.523438 84.941406 C 81.421875 84.941406 83.082031 83.53125 83.339844 81.59375 L 84.011719 76.5625 C 84.269531 74.636719 83.898438 72.695312 82.976562 71.019531 C 83.699219 71.140625 84.363281 71.476562 84.886719 72.011719 C 85.550781 72.691406 85.902344 73.585938 85.882812 74.523438 L 84.4375 118.175781 C 83.683594 118.652344 82.964844 119.167969 82.28125 119.671875 C 77.515625 123.167969 73.824219 128.332031 71.613281 134.609375 C 71.421875 135.148438 71.707031 135.738281 72.242188 135.925781 C 72.355469 135.96875 72.472656 135.988281 72.585938 135.988281 C 73.007812 135.988281 73.40625 135.722656 73.554688 135.296875 C 75.628906 129.414062 79.066406 124.585938 83.496094 121.335938 C 85.507812 119.863281 87.609375 118.335938 90.054688 118.441406 C 93.960938 118.601562 97.765625 122.546875 99.957031 128.609375 C 98.097656 128.886719 96.148438 129.804688 93.777344 130.925781 C 90.695312 132.386719 87.839844 134.292969 85.289062 136.589844 C 84.867188 136.972656 84.832031 137.625 85.210938 138.050781 C 85.59375 138.472656 86.242188 138.507812 86.667969 138.125 C 89.070312 135.960938 91.757812 134.167969 94.660156 132.789062 C 98.0625 131.179688 100.3125 130.113281 102.453125 130.800781 C 105.628906 131.816406 106.949219 136.070312 107.660156 138.355469 C 109.90625 145.597656 107.808594 152.613281 105.652344 157.222656 C 105.410156 157.738281 105.628906 158.351562 106.144531 158.597656 C 106.289062 158.660156 106.4375 158.695312 106.582031 158.695312 C 106.96875 158.695312 107.339844 158.472656 107.515625 158.097656 C 109.332031 154.214844 111.097656 148.71875 110.585938 142.722656 L 111.234375 143.082031 C 118.773438 147.261719 131.148438 154.128906 142.886719 154.128906 C 146.894531 154.128906 150.828125 153.328125 154.46875 151.34375 C 155.605469 150.722656 156.699219 149.996094 157.710938 149.175781 C 158.15625 148.820312 158.226562 148.171875 157.867188 147.726562 C 157.515625 147.28125 156.867188 147.210938 156.421875 147.570312 Z M 74.433594 68.097656 L 73.757812 73.128906 C 73.695312 73.605469 73.449219 74.027344 73.070312 74.320312 C 72.6875 74.613281 72.21875 74.734375 71.742188 74.671875 L 69.359375 74.351562 L 70.816406 67.179688 C 71.175781 65.667969 72.386719 64.570312 73.839844 64.289062 C 74.390625 65.476562 74.609375 66.777344 74.433594 68.097656 Z M 81.96875 76.289062 L 81.296875 81.320312 C 81.164062 82.304688 80.269531 83 79.28125 82.863281 L 77.542969 82.628906 C 78.035156 79.640625 78.519531 76.65625 78.980469 73.699219 C 79.132812 73.019531 79.472656 72.4375 79.933594 71.980469 C 79.9375 71.976562 79.941406 71.972656 79.945312 71.972656 C 80.1875 71.730469 80.460938 71.527344 80.765625 71.367188 C 81.765625 72.789062 82.203125 74.546875 81.96875 76.289062 Z M 111.882812 76.203125 C 113.875 75.804688 115.859375 76.378906 117.3125 77.777344 C 118.730469 79.140625 119.367188 81.039062 119.0625 82.988281 C 118.71875 85.191406 117.214844 87.007812 115.132812 87.726562 C 110.207031 89.433594 102.394531 91.167969 93.15625 89.71875 C 91.265625 89.421875 89.359375 88.984375 87.484375 88.433594 L 87.613281 84.539062 C 89.28125 85.257812 91.011719 85.832031 92.789062 86.234375 C 92.863281 86.25 92.941406 86.257812 93.015625 86.257812 C 93.488281 86.257812 93.910156 85.933594 94.019531 85.457031 C 94.148438 84.898438 93.796875 84.347656 93.242188 84.222656 C 91.328125 83.785156 89.464844 83.132812 87.6875 82.300781 L 87.796875 78.957031 C 89.503906 79.78125 91.285156 80.445312 93.117188 80.921875 C 95.507812 81.546875 97.96875 81.863281 100.441406 81.863281 C 100.769531 81.863281 101.101562 81.855469 101.433594 81.84375 C 102.003906 81.824219 102.449219 81.347656 102.429688 80.777344 C 102.410156 80.207031 101.921875 79.769531 101.363281 79.78125 C 98.753906 79.871094 96.15625 79.582031 93.636719 78.925781 C 91.636719 78.402344 89.707031 77.640625 87.875 76.675781 L 87.933594 74.804688 C 90.332031 75.585938 92.773438 76.183594 95.214844 76.566406 C 100.652344 77.417969 106.417969 77.292969 111.882812 76.203125 Z M 111.882812 76.203125 " fill-opacity="1" fill-rule="nonzero"/></g><g clip-path="url(#e3ab69ff5d)"><path fill="#333333" d="M 124.097656 114.3125 C 124.164062 114.3125 124.234375 114.308594 124.300781 114.292969 C 127.625 113.628906 131.023438 113.289062 134.40625 113.28125 C 137.101562 113.273438 139.25 113.484375 141.101562 113.667969 C 144.046875 113.964844 146.371094 114.195312 149.164062 113.222656 C 152.542969 112.046875 155.496094 109.472656 157.941406 105.574219 C 158.246094 105.089844 158.101562 104.453125 157.617188 104.148438 C 157.136719 103.847656 156.5 103.992188 156.199219 104.472656 C 154.007812 107.96875 151.410156 110.253906 148.488281 111.273438 C 146.125 112.097656 144.210938 111.902344 141.308594 111.613281 C 139.503906 111.433594 137.296875 111.207031 134.402344 111.214844 C 130.886719 111.226562 127.351562 111.578125 123.898438 112.265625 C 123.34375 112.378906 122.980469 112.921875 123.089844 113.480469 C 123.1875 113.972656 123.617188 114.3125 124.097656 114.3125 Z M 124.097656 114.3125 " fill-opacity="1" fill-rule="nonzero"/></g><path fill="#333333" d="M 152.304688 119.699219 C 150.605469 121.058594 148.601562 122.0625 146.507812 122.601562 C 143.335938 123.421875 140.554688 123.054688 138.777344 122.601562 C 138.226562 122.460938 137.664062 122.792969 137.527344 123.347656 C 137.382812 123.898438 137.71875 124.460938 138.269531 124.601562 C 139.410156 124.890625 140.917969 125.152344 142.667969 125.152344 C 144 125.152344 145.46875 125 147.023438 124.601562 C 149.394531 123.988281 151.667969 122.851562 153.59375 121.3125 C 154.039062 120.953125 154.109375 120.304688 153.753906 119.859375 C 153.398438 119.414062 152.75 119.34375 152.304688 119.699219 Z M 152.304688 119.699219 " fill-opacity="1" fill-rule="nonzero"/><path fill="#333333" d="M 89.792969 64.15625 C 89.570312 64.621094 89.296875 65.054688 88.960938 65.433594 C 88.449219 66.007812 87.808594 66.476562 87.105469 66.792969 C 86.585938 67.023438 86.351562 67.632812 86.585938 68.15625 C 86.753906 68.539062 87.132812 68.769531 87.527344 68.769531 C 87.667969 68.769531 87.808594 68.738281 87.945312 68.679688 C 88.914062 68.246094 89.796875 67.597656 90.5 66.808594 C 91.046875 66.1875 91.484375 65.472656 91.804688 64.710938 C 91.847656 64.71875 91.886719 64.734375 91.929688 64.746094 C 92.605469 64.898438 93.273438 65.019531 93.929688 65.125 C 93.863281 65.351562 93.792969 65.582031 93.703125 65.800781 C 93.398438 66.558594 92.972656 67.261719 92.4375 67.886719 C 92.066406 68.320312 92.117188 68.972656 92.546875 69.34375 C 92.742188 69.511719 92.980469 69.589844 93.21875 69.589844 C 93.507812 69.589844 93.796875 69.46875 94 69.230469 C 94.683594 68.433594 95.226562 67.539062 95.613281 66.574219 C 95.773438 66.183594 95.894531 65.777344 96 65.371094 C 96.824219 65.4375 97.640625 65.480469 98.429688 65.480469 C 98.765625 65.480469 99.089844 65.46875 99.417969 65.457031 C 99.296875 66.0625 99.140625 66.660156 98.925781 67.234375 C 98.722656 67.765625 98.480469 68.285156 98.203125 68.773438 C 97.921875 69.269531 98.09375 69.902344 98.589844 70.183594 C 98.75 70.273438 98.925781 70.316406 99.097656 70.316406 C 99.457031 70.316406 99.804688 70.128906 99.996094 69.792969 C 100.324219 69.210938 100.613281 68.597656 100.851562 67.972656 C 101.175781 67.117188 101.410156 66.222656 101.550781 65.3125 C 102.449219 65.21875 103.324219 65.085938 104.160156 64.921875 C 104.214844 65.328125 104.304688 65.722656 104.433594 66.113281 C 104.757812 67.101562 105.320312 68.019531 106.0625 68.761719 C 106.265625 68.960938 106.527344 69.0625 106.792969 69.0625 C 107.054688 69.0625 107.320312 68.960938 107.519531 68.761719 C 107.921875 68.355469 107.921875 67.703125 107.519531 67.300781 C 107.003906 66.785156 106.613281 66.152344 106.390625 65.46875 C 106.28125 65.136719 106.222656 64.796875 106.191406 64.453125 C 107.101562 64.214844 107.96875 63.945312 108.78125 63.660156 C 109.269531 64.367188 109.855469 64.988281 110.535156 65.519531 C 111.578125 66.332031 112.824219 66.890625 114.132812 67.136719 C 114.199219 67.148438 114.261719 67.152344 114.324219 67.152344 C 114.8125 67.152344 115.242188 66.804688 115.335938 66.308594 C 115.441406 65.75 115.070312 65.210938 114.511719 65.105469 C 113.523438 64.921875 112.585938 64.5 111.796875 63.886719 C 111.417969 63.589844 111.085938 63.25 110.785156 62.878906 C 112.40625 62.183594 113.742188 61.464844 114.738281 60.871094 C 115.453125 61.46875 116.214844 62.007812 117.042969 62.429688 C 118.207031 63.019531 119.449219 63.417969 120.742188 63.613281 C 120.796875 63.621094 120.847656 63.625 120.898438 63.625 C 121.398438 63.625 121.835938 63.261719 121.914062 62.75 C 122 62.1875 121.613281 61.660156 121.050781 61.574219 C 119.976562 61.410156 118.941406 61.078125 117.976562 60.585938 C 117.179688 60.183594 116.453125 59.664062 115.789062 59.066406 C 115.636719 58.074219 115.09375 57.179688 114.234375 56.625 C 113.222656 55.972656 111.960938 55.878906 110.863281 56.378906 C 106.546875 58.339844 101.972656 59.425781 97.269531 59.609375 C 89.394531 59.910156 83.117188 57.59375 79.238281 55.59375 C 78.78125 55.355469 78.21875 55.496094 77.921875 55.914062 C 77.628906 56.335938 77.6875 56.910156 78.0625 57.261719 C 80.5 59.5625 84.429688 62.484375 89.792969 64.15625 Z M 97.351562 61.671875 C 102.320312 61.480469 107.15625 60.332031 111.71875 58.261719 C 112.183594 58.050781 112.691406 58.085938 113.121094 58.363281 C 113.398438 58.542969 113.597656 58.792969 113.707031 59.089844 C 110.195312 61.191406 102.132812 64.972656 92.390625 62.734375 C 90.019531 62.1875 87.914062 61.367188 86.074219 60.421875 C 89.320312 61.285156 93.117188 61.839844 97.351562 61.671875 Z M 97.351562 61.671875 " fill-opacity="1" fill-rule="nonzero"/><g clip-path="url(#1b8df24751)"><path fill="#333333" d="M 102.71875 139.433594 C 101.789062 140.5 100.78125 141.507812 99.726562 142.4375 C 98.476562 143.535156 97.132812 144.542969 95.730469 145.4375 C 95.25 145.742188 95.105469 146.382812 95.414062 146.863281 C 95.609375 147.171875 95.941406 147.339844 96.285156 147.339844 C 96.472656 147.339844 96.664062 147.289062 96.835938 147.179688 C 97.625 146.675781 98.394531 146.132812 99.144531 145.5625 L 98.34375 157.59375 C 98.308594 158.164062 98.738281 158.652344 99.304688 158.691406 C 99.328125 158.695312 99.351562 158.695312 99.375 158.695312 C 99.910156 158.695312 100.363281 158.277344 100.402344 157.730469 L 101.328125 143.753906 C 102.359375 142.832031 103.351562 141.839844 104.269531 140.796875 C 104.644531 140.367188 104.601562 139.714844 104.171875 139.339844 C 103.746094 138.964844 103.097656 139.007812 102.71875 139.433594 Z M 102.71875 139.433594 " fill-opacity="1" fill-rule="nonzero"/></g><path fill="#333333" d="M 81.847656 44.609375 C 82.039062 44.609375 82.230469 44.558594 82.402344 44.445312 C 87.019531 41.46875 92.097656 39.433594 97.492188 38.398438 C 102.832031 37.375 108.25 37.375 113.589844 38.398438 C 113.980469 38.472656 114.371094 38.320312 114.605469 38.007812 C 114.84375 37.695312 114.882812 37.277344 114.707031 36.925781 C 113.105469 33.71875 109.90625 31.597656 106.355469 31.386719 C 102.015625 31.128906 97.8125 31.78125 93.835938 33.328125 C 87.460938 35.804688 83.351562 39.925781 81.03125 42.949219 C 80.722656 43.347656 80.75 43.90625 81.085938 44.277344 C 81.289062 44.496094 81.566406 44.609375 81.847656 44.609375 Z M 94.582031 35.25 C 97.753906 34.019531 101.09375 33.394531 104.523438 33.394531 C 105.089844 33.394531 105.660156 33.414062 106.234375 33.445312 C 108.285156 33.570312 110.191406 34.496094 111.566406 35.976562 C 106.75 35.316406 101.902344 35.453125 97.105469 36.371094 C 93.71875 37.023438 90.449219 38.046875 87.335938 39.4375 C 89.28125 37.875 91.679688 36.378906 94.582031 35.25 Z M 94.582031 35.25 " fill-opacity="1" fill-rule="nonzero"/></svg>