<svg xmlns="http://www.w3.org/2000/svg" xmlns:xlink="http://www.w3.org/1999/xlink" width="250" zoomAndPan="magnify" viewBox="0 0 187.5 187.499992" height="250" preserveAspectRatio="xMidYMid meet" version="1.0"><defs><clipPath id="17c2bb0063"><path d="M 44.917969 28.050781 L 142.132812 28.050781 L 142.132812 158.949219 L 44.917969 158.949219 Z M 44.917969 28.050781 " clip-rule="nonzero"/></clipPath></defs><g clip-path="url(#17c2bb0063)"><path fill="#000000" d="M 140.222656 103.777344 C 139.980469 103.917969 139.832031 103.496094 139.765625 103.410156 C 138.039062 101.1875 135.742188 99.390625 132.183594 98.753906 C 131.058594 98.554688 128.695312 98.257812 128.714844 99.300781 C 128.726562 99.957031 129.40625 99.863281 130.449219 99.941406 C 132.890625 100.121094 135.324219 100.992188 136.75 102.132812 C 137.769531 102.945312 139.378906 104.609375 139.402344 105.691406 C 139.425781 106.777344 138.523438 107.234375 138.03125 108.15625 C 136.082031 104.4375 132.820312 101.601562 126.703125 102.039062 C 121.316406 102.425781 116.25 103.765625 111.175781 105.144531 C 106.261719 106.476562 101.359375 107.722656 96.46875 109.070312 C 91.484375 110.445312 86.445312 111.710938 81.214844 112.449219 C 75.675781 113.230469 69.933594 113.332031 63.769531 113.546875 C 58.503906 113.726562 54.011719 112.910156 50.980469 110.074219 C 50.996094 109.972656 51.070312 110.023438 51.070312 110.074219 C 53.671875 111.011719 56.730469 110.988281 60.390625 110.988281 C 61.246094 110.988281 64.175781 111.265625 64.226562 110.257812 C 64.28125 109.164062 62.265625 109.578125 61.300781 109.617188 C 57.160156 109.800781 52.34375 109.464844 49.609375 107.976562 C 49.351562 107.503906 49.226562 106.898438 49.152344 106.242188 C 50.152344 106.496094 50.964844 106.742188 52.257812 106.972656 C 53.054688 107.113281 55.015625 107.695312 55.183594 106.699219 C 55.378906 105.515625 53.167969 105.777344 52.257812 105.601562 C 51.042969 105.367188 50.183594 104.953125 49.152344 104.78125 C 49.21875 104.023438 49.46875 103.449219 49.609375 102.769531 C 52.4375 103.453125 56.132812 103.832031 59.75 103.5 C 60.695312 103.414062 62.433594 103.382812 62.488281 102.589844 C 62.570312 101.441406 60.089844 101.890625 59.199219 101.949219 C 55.46875 102.191406 52.371094 101.734375 49.425781 101.128906 C 49.019531 100.105469 48.246094 99.449219 47.964844 98.296875 C 48.785156 98.46875 51.011719 99.453125 51.070312 98.207031 C 51.128906 97.035156 48.328125 97.269531 47.328125 96.652344 C 47.167969 95.957031 46.910156 95.367188 46.777344 94.644531 C 47.910156 94.902344 48.730469 95.515625 49.882812 95.925781 C 52.023438 96.679688 54.640625 97.1875 57.648438 97.292969 C 58.835938 97.335938 61.433594 97.496094 61.574219 96.652344 C 61.773438 95.472656 60.292969 95.890625 59.566406 95.925781 C 57.664062 96.007812 55.800781 95.960938 53.996094 95.558594 C 51.675781 95.042969 49.117188 94.324219 47.785156 93.277344 C 46.957031 92.628906 46.230469 91.773438 46.59375 90.265625 C 47.304688 90.617188 47.738281 91.652344 48.421875 92.179688 C 51.597656 94.625 58.421875 94.324219 63.859375 94.097656 C 73.628906 93.691406 83.289062 92.394531 92.265625 90.71875 C 98.226562 89.605469 104.160156 88.410156 109.804688 86.886719 C 112.582031 86.136719 115.574219 85.515625 118.664062 85.058594 C 123.882812 84.289062 129.710938 83.964844 134.195312 85.332031 C 135.726562 85.800781 137.375 86.394531 138.214844 87.796875 C 137.414062 87.679688 134.71875 86.289062 134.652344 87.707031 C 134.597656 88.878906 138.746094 89.011719 139.308594 89.898438 C 139.472656 90.15625 139.363281 90.613281 139.492188 90.992188 C 137.328125 89.929688 134.675781 89.421875 131.089844 89.441406 C 130.160156 89.445312 128.5625 89.277344 128.53125 90.171875 C 128.5 91.09375 130.121094 90.925781 131.269531 90.902344 C 134.5 90.839844 137.71875 91.34375 139.675781 92.726562 C 139.710938 93.496094 139.644531 94.160156 139.585938 94.828125 C 139.277344 94.988281 138.96875 94.601562 138.671875 94.460938 C 136.964844 93.675781 134.574219 93.023438 132.09375 92.910156 C 131.089844 92.867188 129.589844 92.773438 129.535156 93.550781 C 129.457031 94.644531 131.621094 94.277344 132.914062 94.371094 C 135.914062 94.585938 139.492188 95.667969 139.949219 98.480469 C 139.167969 97.878906 138.433594 97.539062 137.300781 97.019531 C 136.820312 96.800781 134.652344 95.601562 134.46875 96.835938 C 134.363281 97.5625 135.710938 97.824219 136.203125 98.023438 C 138.019531 98.757812 139.539062 99.652344 140.496094 101.128906 C 140.5 102.105469 140.535156 103.117188 140.222656 103.777344 Z M 131.636719 107.882812 C 131.6875 106.898438 132.496094 105.882812 132.734375 104.78125 C 133.257812 105.015625 133.6875 105.347656 134.101562 105.691406 C 133.625 106.769531 132.476562 107.171875 131.636719 107.882812 Z M 128.714844 113.363281 C 128.945312 112.375 129.960938 111.382812 130.359375 110.257812 C 132.160156 109.382812 133.925781 108.46875 135.109375 106.972656 C 135.386719 107.085938 135.375 107.492188 135.65625 107.609375 C 135.21875 108.019531 134.738281 108.699219 134.195312 109.164062 C 133.859375 109.449219 132.492188 110.519531 133.828125 110.804688 C 134.914062 111.039062 135.609375 109.253906 136.386719 109.070312 C 135.050781 111.722656 131.652344 112.3125 128.714844 113.363281 Z M 123.871094 118.019531 C 115.511719 130.921875 105.019531 141.851562 95.554688 153.808594 C 85.214844 141.136719 74.085938 129.25 65.320312 115.003906 C 86.089844 115.109375 100.578125 109.273438 117.203125 105.054688 C 118.363281 104.761719 119.691406 104.636719 120.949219 104.414062 C 122.769531 104.09375 124.394531 103.800781 126.429688 103.683594 C 126.507812 103.667969 126.515625 103.71875 126.523438 103.777344 C 121.53125 114.429688 114.402344 123.195312 107.339844 132.078125 C 105.683594 134.160156 103.855469 136.332031 101.949219 138.5625 C 101.371094 139.242188 99.6875 140.808594 100.945312 141.300781 C 101.691406 141.59375 102.546875 140.253906 103.136719 139.566406 C 107.53125 134.425781 111.710938 129.105469 115.742188 123.679688 C 120.574219 117.175781 124.914062 110.96875 128.257812 103.683594 C 129.523438 103.605469 130.484375 103.832031 131.363281 104.140625 C 129.707031 109.335938 126.660156 113.714844 123.871094 118.019531 Z M 71.378906 150.695312 C 68.527344 153.8125 65.175781 156.1875 61.066406 157.429688 C 60.679688 153.957031 61.097656 149.542969 62.277344 145.28125 C 63.207031 145.714844 63.695312 146.441406 64.753906 146.789062 C 64.792969 148.046875 64.285156 149.761719 65.273438 150.222656 C 66.507812 150.792969 68.085938 149.574219 69.167969 149.238281 C 69.941406 149.699219 70.484375 150.3125 71.378906 150.695312 Z M 68.011719 148.082031 C 67.363281 148.269531 66.960938 148.824219 66.125 148.726562 C 66.082031 148.035156 66.300781 147.171875 65.980469 146.664062 C 68.960938 141.480469 71.945312 136.3125 74.933594 131.144531 C 75.464844 131.828125 76 132.507812 76.535156 133.1875 C 73.675781 138.128906 70.824219 143.078125 68.011719 148.082031 Z M 54.90625 92.546875 C 54.753906 92.546875 54.605469 92.546875 54.449219 92.546875 C 54.28125 92.347656 54.800781 91.828125 55 91.996094 C 55.066406 92.277344 54.90625 92.332031 54.90625 92.546875 Z M 47.875 86.792969 C 48.921875 84.296875 52.683594 83.175781 55.183594 82.136719 C 55.625 82.402344 55.078125 83.164062 55.183594 83.691406 C 54.457031 83.980469 52.9375 84.585938 53.8125 85.605469 C 54.386719 85.695312 54.53125 85.355469 54.90625 85.242188 C 54.855469 86.984375 54.777344 88.703125 54.816406 90.539062 C 53.621094 90.621094 53.175781 91.453125 52.714844 92.273438 C 52.253906 92.1875 51.875 92.015625 51.4375 91.90625 C 51.535156 90.957031 53.671875 90.136719 53.71875 89.167969 C 53.738281 88.789062 53.472656 88.308594 53.082031 88.253906 C 52.015625 88.105469 50.667969 90.53125 50.066406 91.265625 C 49.601562 91.09375 49.222656 90.832031 48.972656 90.445312 C 49.382812 89.445312 49.867188 88.726562 50.707031 87.890625 C 51.191406 87.40625 53.101562 86.664062 52.808594 85.699219 C 52.34375 84.171875 49.554688 86.785156 49.152344 87.25 C 48.683594 87.792969 48.292969 88.496094 47.964844 88.984375 C 47.515625 88.367188 47.652344 87.324219 47.875 86.792969 Z M 62.125 71.363281 C 64.4375 68.859375 68.511719 66.003906 72.8125 65.703125 C 77.175781 65.398438 81.726562 66.710938 84.777344 68.078125 C 88.09375 69.5625 91.015625 71.867188 93.273438 73.921875 C 93.992188 74.578125 94.3125 75.617188 95.464844 75.835938 C 96.550781 75.726562 97.070312 74.636719 97.75 74.011719 C 101.082031 70.9375 105.160156 67.898438 110.589844 66.496094 C 108.578125 69.753906 106.675781 72.8125 101.25 81.96875 C 100.484375 82.308594 97.390625 82.015625 97.535156 83.453125 C 97.613281 84.214844 99.519531 84.148438 100.71875 84.175781 C 103 84.230469 105.4375 84.214844 107.515625 83.953125 C 108.492188 83.832031 110.34375 83.851562 110.324219 82.847656 C 110.308594 81.9375 108.726562 81.921875 107.546875 81.925781 C 113.753906 71.085938 114.863281 69.609375 117.300781 65.691406 C 117.511719 65.695312 117.722656 65.695312 117.933594 65.703125 C 118.582031 65.722656 119.289062 65.824219 119.945312 65.976562 C 123.953125 66.921875 127.375 69.40625 129.71875 72.367188 C 132.148438 75.433594 133.902344 79.199219 134.375 83.78125 C 124.300781 81.226562 114.085938 84.453125 105.421875 86.335938 C 102.34375 87.007812 99.296875 87.714844 96.285156 88.347656 C 83.917969 90.945312 70.984375 92.554688 56.460938 92.726562 C 55.515625 83.675781 57.730469 76.121094 62.125 71.363281 Z M 119.890625 54.375 C 122.90625 49.285156 122.15625 50.214844 124.726562 45.027344 C 125.371094 43.71875 126.320312 42.265625 127.121094 40.878906 C 127.945312 39.457031 128.949219 37.589844 129.910156 36.625 C 130.667969 36.890625 131.246094 37.277344 131.832031 37.65625 C 118.804688 60.550781 118.578125 59.847656 105.46875 82.621094 C 104.542969 82.625 103.660156 82.6875 102.691406 82.625 C 111.390625 67.835938 110.976562 69.40625 119.890625 54.375 Z M 127.105469 30.707031 C 127.304688 31.28125 127.585938 32.453125 127.769531 33.429688 C 127.9375 34.328125 128.253906 35.542969 128.144531 36.183594 C 127.972656 37.230469 126.890625 38.453125 126.285156 39.511719 C 125.617188 40.671875 124.953125 41.738281 124.417969 42.839844 C 124.34375 42.140625 123.171875 41 122.710938 42.132812 C 122.414062 42.859375 123.320312 43.9375 123.210938 44.726562 C 123.113281 45.460938 122.359375 46.285156 122.058594 46.808594 C 121.609375 47.597656 121.386719 48.261719 120.851562 48.695312 C 120.878906 46.464844 120.578125 44.457031 120.34375 42.402344 C 122.453125 38.285156 124.742188 34.441406 127.105469 30.707031 Z M 132.933594 38.613281 C 134.652344 37.984375 136.1875 37.089844 137.824219 36.347656 C 136 40.308594 133.867188 44.8125 131.828125 48.839844 C 129.8125 49.9375 127.714844 50.921875 125.589844 51.855469 C 126.039062 50.335938 127.390625 49.164062 127.875 47.316406 C 128.855469 46.890625 130.679688 47.128906 130.703125 45.660156 C 130.464844 45.023438 129.429688 45.289062 129.066406 45.519531 C 130.105469 43.300781 131.71875 40.949219 132.933594 38.613281 Z M 142.050781 99.667969 C 141.894531 98.488281 140.832031 97.300781 140.773438 96.378906 C 140.714844 95.5 141.183594 94.613281 141.226562 93.914062 C 141.527344 89.085938 139.515625 85.347656 135.929688 84.238281 C 135.429688 79.121094 133.625 74.980469 130.996094 71.636719 C 128.464844 68.414062 124.878906 65.691406 120.402344 64.609375 C 119.683594 64.433594 118.933594 64.335938 118.167969 64.289062 C 119.503906 62.101562 121.300781 59.0625 124.257812 53.902344 C 125.714844 53.289062 127.214844 52.789062 128.683594 52.097656 C 129.839844 51.558594 132.03125 50.691406 132.84375 49.78125 C 133.640625 48.890625 134.160156 47.515625 134.742188 46.277344 C 135.957031 43.691406 137.175781 41.230469 138.34375 38.855469 C 138.953125 37.613281 139.8125 36.378906 139.761719 34.976562 C 138.453125 34.125 137.195312 35.019531 136.242188 35.480469 C 135.15625 36.003906 134.121094 36.578125 133.074219 36.976562 C 132.386719 36.042969 130.855469 35.285156 129.480469 35.0625 C 129.355469 34.15625 129.085938 32.828125 128.816406 31.417969 C 128.625 30.414062 128.535156 28.621094 127.621094 28.128906 C 126.855469 27.71875 126.398438 29.003906 126.019531 29.660156 C 124.28125 32.6875 122.53125 35.191406 121.015625 38.097656 C 120.507812 39.070312 119.359375 40.636719 119.097656 41.691406 C 118.707031 43.261719 119.179688 45.027344 119.320312 46.632812 C 119.46875 48.359375 119.386719 50.121094 119.539062 51.578125 C 115.347656 58.695312 113.265625 62.140625 111.605469 64.847656 C 105.535156 65.980469 101.644531 68.664062 97.75 72.003906 C 97.429688 72.277344 95.738281 74.207031 95.464844 74.195312 C 95.171875 74.183594 93.972656 72.632812 93.457031 72.1875 C 91.183594 70.210938 88.863281 68.453125 86.238281 67.164062 C 82.742188 65.445312 78.316406 64.046875 72.902344 64.242188 C 72.164062 64.269531 71.183594 64.417969 70.4375 64.609375 C 62.828125 66.566406 57.765625 73 55.730469 80.3125 C 52.789062 81.476562 49.445312 82.285156 47.507812 84.421875 C 46.925781 85.0625 45.96875 86.597656 45.683594 87.339844 C 43.664062 92.59375 46.03125 98.558594 48.238281 102.222656 C 46.449219 106.105469 48.496094 110.328125 50.980469 112.175781 C 54.097656 114.492188 59 115.125 63.496094 115.1875 C 66.777344 120.296875 70.320312 125.160156 73.976562 129.910156 C 70.996094 135.097656 68.003906 140.269531 64.945312 145.347656 C 63.898438 144.628906 62.789062 143.417969 61.261719 143.878906 C 59.898438 147.035156 59.589844 151.957031 59.5 155.085938 C 59.46875 156.050781 59.332031 157.617188 59.859375 158.390625 C 60.757812 159.714844 63.160156 158.34375 64.324219 157.796875 C 66.839844 156.617188 68.417969 155.425781 70.402344 153.734375 C 71.019531 153.210938 72.902344 151.933594 73.066406 151.027344 C 73.363281 149.417969 70.621094 148.972656 69.808594 147.886719 C 72.382812 143.40625 74.949219 138.921875 77.519531 134.4375 C 77.960938 134.992188 78.398438 135.542969 78.839844 136.09375 C 82.875 141.148438 87.214844 145.972656 91.261719 150.886719 C 92.628906 152.542969 93.824219 154.425781 95.554688 155.726562 C 97.121094 154.351562 98.382812 152.617188 99.757812 150.976562 C 103.882812 146.050781 107.984375 141.296875 112.089844 136.277344 C 116.742188 130.59375 121.273438 124.402344 125.515625 118.199219 C 126.1875 117.222656 126.683594 115.945312 127.34375 115.460938 C 128.53125 114.59375 130.550781 114.628906 131.730469 114.277344 C 133.769531 113.660156 135.335938 112.566406 137.027344 111.355469 C 139.085938 109.875 139.933594 108.515625 140.863281 106.242188 C 141.601562 104.429688 142.390625 102.246094 142.050781 99.667969 " fill-opacity="1" fill-rule="nonzero"/></g><path fill="#000000" d="M 76.832031 70.175781 C 76.664062 69.140625 74.714844 69.546875 74.089844 70.085938 C 74.089844 70.328125 74.089844 70.574219 74.089844 70.816406 C 74.941406 71.5 77.015625 71.328125 76.832031 70.175781 " fill-opacity="1" fill-rule="nonzero"/><path fill="#000000" d="M 61.574219 86.335938 C 62.121094 85.664062 62.183594 84.792969 62.398438 84.054688 C 63.8125 79.230469 66.4375 75.464844 70.164062 72.824219 C 70.824219 72.355469 71.964844 71.996094 71.988281 71.457031 C 72.027344 70.683594 71.175781 70.617188 70.800781 70.816406 C 66.0625 73.324219 62.222656 78.394531 60.753906 84.328125 C 60.578125 85.039062 60.097656 86.453125 61.574219 86.335938 " fill-opacity="1" fill-rule="nonzero"/><path fill="#000000" d="M 127.070312 86.429688 C 127.207031 85.484375 126.121094 85.675781 125.515625 85.699219 C 123.648438 85.769531 122.234375 86.003906 119.945312 86.335938 C 119.046875 86.46875 115.148438 86.582031 115.105469 87.523438 C 115.058594 88.507812 116.609375 88.222656 117.753906 88.070312 C 120.191406 87.753906 121.773438 87.398438 124.148438 87.160156 C 125.167969 87.058594 126.960938 87.171875 127.070312 86.429688 " fill-opacity="1" fill-rule="nonzero"/><path fill="#000000" d="M 132.914062 86.886719 C 132.835938 86.234375 131.515625 86.140625 131.179688 86.246094 C 128.90625 86.96875 133.144531 88.789062 132.914062 86.886719 " fill-opacity="1" fill-rule="nonzero"/><path fill="#000000" d="M 110.628906 88.070312 C 110.523438 89.550781 112.796875 89.109375 112.910156 88.347656 C 113.089844 87.152344 111.101562 87.4375 110.628906 88.070312 " fill-opacity="1" fill-rule="nonzero"/><path fill="#000000" d="M 125.152344 90.265625 C 125.328125 91.238281 127.171875 90.804688 126.613281 89.53125 C 125.859375 89.03125 125.035156 89.613281 125.152344 90.265625 " fill-opacity="1" fill-rule="nonzero"/><path fill="#000000" d="M 126.886719 96.105469 C 127.011719 96.902344 128.496094 96.683594 129.71875 96.746094 C 131.152344 96.820312 133.472656 97.480469 132.640625 95.832031 C 132.019531 95.574219 126.644531 94.546875 126.886719 96.105469 " fill-opacity="1" fill-rule="nonzero"/><path fill="#000000" d="M 63.675781 95.832031 C 61.585938 96.605469 65.296875 98.140625 65.414062 96.472656 C 65.46875 95.667969 64.445312 95.546875 63.675781 95.832031 " fill-opacity="1" fill-rule="nonzero"/><path fill="#000000" d="M 53.171875 98.296875 C 53.074219 98.304688 53.125 98.367188 53.082031 98.390625 C 52.765625 98.542969 52.480469 98.855469 52.714844 99.300781 C 53.070312 99.976562 55.058594 99.792969 56.460938 99.847656 C 57.347656 99.886719 58.34375 100.042969 58.195312 99.117188 C 58.058594 98.253906 54.152344 98.226562 53.171875 98.296875 " fill-opacity="1" fill-rule="nonzero"/><path fill="#000000" d="M 125.515625 99.300781 C 123.117188 99.882812 126.929688 101.710938 126.613281 99.757812 C 126.546875 99.363281 126.320312 99.105469 125.515625 99.300781 " fill-opacity="1" fill-rule="nonzero"/><path fill="#000000" d="M 59.839844 107.0625 C 60.332031 107.472656 61.546875 107.429688 62.125 107.246094 C 62.273438 106.980469 62.398438 106.585938 62.214844 106.242188 C 61.601562 105.757812 59.144531 105.683594 59.839844 107.0625 " fill-opacity="1" fill-rule="nonzero"/><path fill="#000000" d="M 78.476562 110.714844 C 78.542969 111.792969 81.480469 111.539062 80.851562 109.984375 C 80.019531 109.609375 78.414062 109.785156 78.476562 110.714844 " fill-opacity="1" fill-rule="nonzero"/><path fill="#000000" d="M 76.007812 110.074219 C 73.785156 110.027344 71.449219 110.644531 69.25 110.714844 C 68.328125 110.742188 67.828125 110.546875 67.789062 111.261719 C 67.710938 112.628906 71.113281 111.941406 72.445312 111.808594 C 73.859375 111.671875 77.105469 111.78125 77.105469 110.714844 C 77.105469 110.023438 76.46875 110.085938 76.007812 110.074219 " fill-opacity="1" fill-rule="nonzero"/><path fill="#000000" d="M 131.730469 111.535156 C 132.683594 111.609375 132.976562 111.136719 132.917969 110.714844 C 132.714844 109.269531 130.316406 110.90625 131.730469 111.535156 " fill-opacity="1" fill-rule="nonzero"/><path fill="#000000" d="M 97.929688 143.765625 C 98.074219 144.796875 99.980469 144.425781 99.390625 143.035156 C 98.625 142.507812 97.847656 143.15625 97.929688 143.765625 " fill-opacity="1" fill-rule="nonzero"/></svg>