<svg xmlns="http://www.w3.org/2000/svg" xmlns:xlink="http://www.w3.org/1999/xlink" width="250" zoomAndPan="magnify" viewBox="0 0 187.5 187.499992" height="250" preserveAspectRatio="xMidYMid meet" version="1.0"><defs><clipPath id="3757bc7cd6"><path d="M 65.738281 56.101562 L 121.074219 56.101562 L 121.074219 130.898438 L 65.738281 130.898438 Z M 65.738281 56.101562 " clip-rule="nonzero"/></clipPath></defs><g clip-path="url(#3757bc7cd6)"><path fill="#000000" d="M 119.988281 99.371094 C 119.851562 99.453125 119.769531 99.210938 119.730469 99.164062 C 118.746094 97.894531 117.4375 96.867188 115.414062 96.503906 C 114.773438 96.386719 113.425781 96.21875 113.4375 96.816406 C 113.445312 97.191406 113.832031 97.136719 114.425781 97.179688 C 115.816406 97.28125 117.199219 97.78125 118.015625 98.433594 C 118.59375 98.898438 119.507812 99.847656 119.523438 100.46875 C 119.535156 101.085938 119.019531 101.347656 118.742188 101.875 C 117.632812 99.75 115.777344 98.128906 112.292969 98.378906 C 109.226562 98.601562 106.34375 99.367188 103.457031 100.15625 C 100.660156 100.917969 97.867188 101.628906 95.082031 102.398438 C 92.246094 103.183594 89.375 103.90625 86.402344 104.328125 C 83.246094 104.773438 79.976562 104.832031 76.46875 104.953125 C 73.472656 105.058594 70.914062 104.59375 69.191406 102.972656 C 69.199219 102.914062 69.242188 102.941406 69.242188 102.972656 C 70.722656 103.507812 72.464844 103.492188 74.546875 103.492188 C 75.03125 103.492188 76.699219 103.652344 76.730469 103.078125 C 76.761719 102.449219 75.613281 102.6875 75.066406 102.710938 C 72.707031 102.816406 69.964844 102.621094 68.410156 101.773438 C 68.261719 101.503906 68.191406 101.15625 68.148438 100.78125 C 68.71875 100.925781 69.179688 101.066406 69.917969 101.199219 C 70.371094 101.277344 71.488281 101.613281 71.582031 101.042969 C 71.695312 100.367188 70.4375 100.515625 69.917969 100.414062 C 69.226562 100.28125 68.738281 100.046875 68.148438 99.945312 C 68.1875 99.511719 68.328125 99.1875 68.410156 98.796875 C 70.019531 99.1875 72.121094 99.40625 74.179688 99.214844 C 74.71875 99.164062 75.707031 99.148438 75.742188 98.695312 C 75.789062 98.039062 74.375 98.296875 73.871094 98.328125 C 71.746094 98.464844 69.980469 98.207031 68.304688 97.859375 C 68.074219 97.273438 67.632812 96.898438 67.472656 96.242188 C 67.941406 96.339844 69.207031 96.902344 69.242188 96.191406 C 69.273438 95.519531 67.679688 95.65625 67.109375 95.300781 C 67.019531 94.90625 66.871094 94.566406 66.796875 94.15625 C 67.441406 94.300781 67.910156 94.652344 68.566406 94.886719 C 69.78125 95.316406 71.273438 95.609375 72.984375 95.667969 C 73.660156 95.691406 75.140625 95.785156 75.222656 95.300781 C 75.332031 94.625 74.492188 94.867188 74.078125 94.886719 C 72.996094 94.933594 71.933594 94.90625 70.90625 94.675781 C 69.585938 94.382812 68.128906 93.972656 67.371094 93.371094 C 66.898438 93 66.484375 92.511719 66.695312 91.652344 C 67.097656 91.851562 67.34375 92.445312 67.734375 92.746094 C 69.542969 94.144531 73.425781 93.972656 76.519531 93.839844 C 82.082031 93.609375 87.582031 92.871094 92.691406 91.910156 C 96.085938 91.277344 99.460938 90.589844 102.675781 89.71875 C 104.253906 89.292969 105.960938 88.9375 107.71875 88.675781 C 110.6875 88.238281 114.007812 88.050781 116.558594 88.832031 C 117.429688 89.101562 118.367188 89.4375 118.847656 90.242188 C 118.390625 90.175781 116.855469 89.378906 116.816406 90.191406 C 116.785156 90.859375 119.148438 90.9375 119.46875 91.441406 C 119.5625 91.589844 119.5 91.851562 119.574219 92.066406 C 118.34375 91.460938 116.832031 91.167969 114.789062 91.179688 C 114.261719 91.183594 113.351562 91.089844 113.335938 91.597656 C 113.316406 92.125 114.238281 92.027344 114.894531 92.015625 C 116.730469 91.980469 118.566406 92.269531 119.675781 93.058594 C 119.699219 93.496094 119.660156 93.875 119.625 94.257812 C 119.453125 94.351562 119.273438 94.128906 119.105469 94.050781 C 118.136719 93.601562 116.773438 93.226562 115.363281 93.164062 C 114.789062 93.136719 113.9375 93.085938 113.90625 93.527344 C 113.863281 94.152344 115.09375 93.945312 115.828125 94 C 117.539062 94.121094 119.574219 94.738281 119.835938 96.347656 C 119.390625 96 118.972656 95.808594 118.324219 95.511719 C 118.050781 95.386719 116.816406 94.703125 116.714844 95.40625 C 116.652344 95.820312 117.421875 95.972656 117.703125 96.085938 C 118.734375 96.503906 119.601562 97.015625 120.144531 97.859375 C 120.148438 98.417969 120.167969 98.996094 119.988281 99.371094 Z M 115.101562 101.71875 C 115.128906 101.15625 115.589844 100.574219 115.726562 99.945312 C 116.023438 100.082031 116.269531 100.269531 116.503906 100.46875 C 116.234375 101.082031 115.582031 101.3125 115.101562 101.71875 Z M 113.4375 104.851562 C 113.570312 104.285156 114.148438 103.71875 114.375 103.078125 C 115.402344 102.578125 116.40625 102.054688 117.078125 101.199219 C 117.238281 101.265625 117.230469 101.496094 117.390625 101.5625 C 117.140625 101.796875 116.867188 102.183594 116.558594 102.449219 C 116.367188 102.613281 115.589844 103.226562 116.351562 103.390625 C 116.96875 103.523438 117.363281 102.503906 117.804688 102.398438 C 117.046875 103.914062 115.113281 104.25 113.4375 104.851562 Z M 110.683594 107.511719 C 105.921875 114.882812 99.949219 121.128906 94.5625 127.960938 C 88.675781 120.722656 82.34375 113.929688 77.351562 105.789062 C 89.175781 105.847656 97.421875 102.515625 106.886719 100.101562 C 107.546875 99.933594 108.304688 99.863281 109.019531 99.738281 C 110.054688 99.554688 110.980469 99.386719 112.136719 99.320312 C 112.183594 99.308594 112.1875 99.339844 112.191406 99.371094 C 109.347656 105.460938 105.292969 110.46875 101.269531 115.546875 C 100.328125 116.734375 99.289062 117.976562 98.203125 119.25 C 97.875 119.636719 96.914062 120.535156 97.632812 120.8125 C 98.058594 120.980469 98.542969 120.21875 98.878906 119.824219 C 101.378906 116.886719 103.761719 113.847656 106.054688 110.746094 C 108.804688 107.03125 111.273438 103.484375 113.179688 99.320312 C 113.898438 99.273438 114.445312 99.40625 114.945312 99.582031 C 114.003906 102.546875 112.269531 105.050781 110.683594 107.511719 Z M 80.800781 126.183594 C 79.175781 127.964844 77.269531 129.324219 74.933594 130.03125 C 74.710938 128.046875 74.949219 125.527344 75.621094 123.089844 C 76.148438 123.339844 76.429688 123.753906 77.03125 123.953125 C 77.050781 124.667969 76.765625 125.648438 77.328125 125.914062 C 78.027344 126.238281 78.925781 125.542969 79.542969 125.351562 C 79.984375 125.613281 80.292969 125.964844 80.800781 126.183594 Z M 78.882812 124.691406 C 78.515625 124.796875 78.289062 125.113281 77.8125 125.058594 C 77.785156 124.664062 77.910156 124.167969 77.730469 123.878906 C 79.425781 120.917969 81.125 117.964844 82.824219 115.011719 C 83.128906 115.402344 83.429688 115.792969 83.734375 116.179688 C 82.109375 119 80.484375 121.832031 78.882812 124.691406 Z M 71.425781 92.957031 C 71.339844 92.957031 71.253906 92.957031 71.164062 92.957031 C 71.070312 92.84375 71.363281 92.546875 71.476562 92.640625 C 71.515625 92.800781 71.425781 92.832031 71.425781 92.957031 Z M 67.421875 89.667969 C 68.019531 88.242188 70.160156 87.601562 71.582031 87.007812 C 71.832031 87.15625 71.523438 87.59375 71.582031 87.894531 C 71.167969 88.0625 70.304688 88.40625 70.800781 88.988281 C 71.128906 89.039062 71.210938 88.84375 71.425781 88.78125 C 71.394531 89.777344 71.351562 90.757812 71.375 91.808594 C 70.691406 91.855469 70.4375 92.332031 70.179688 92.796875 C 69.914062 92.75 69.699219 92.652344 69.449219 92.589844 C 69.503906 92.046875 70.722656 91.578125 70.75 91.023438 C 70.761719 90.808594 70.609375 90.535156 70.386719 90.503906 C 69.78125 90.417969 69.011719 91.804688 68.671875 92.222656 C 68.402344 92.125 68.191406 91.976562 68.046875 91.753906 C 68.28125 91.183594 68.554688 90.773438 69.035156 90.292969 C 69.308594 90.015625 70.398438 89.59375 70.230469 89.042969 C 69.964844 88.167969 68.378906 89.664062 68.148438 89.929688 C 67.882812 90.238281 67.660156 90.640625 67.472656 90.921875 C 67.21875 90.566406 67.296875 89.972656 67.421875 89.667969 Z M 75.535156 80.851562 C 76.851562 79.421875 79.167969 77.789062 81.617188 77.617188 C 84.101562 77.441406 86.691406 78.191406 88.429688 78.972656 C 90.316406 79.820312 91.980469 81.136719 93.265625 82.3125 C 93.675781 82.6875 93.855469 83.28125 94.511719 83.40625 C 95.128906 83.34375 95.425781 82.722656 95.8125 82.363281 C 97.707031 80.609375 100.03125 78.871094 103.121094 78.070312 C 101.976562 79.929688 100.894531 81.679688 97.804688 86.910156 C 97.371094 87.105469 95.609375 86.9375 95.691406 87.757812 C 95.734375 88.195312 96.820312 88.15625 97.503906 88.171875 C 98.800781 88.203125 100.1875 88.195312 101.371094 88.046875 C 101.925781 87.976562 102.980469 87.988281 102.972656 87.414062 C 102.960938 86.894531 102.0625 86.882812 101.390625 86.886719 C 104.921875 80.691406 105.554688 79.847656 106.941406 77.609375 C 107.0625 77.613281 107.179688 77.613281 107.300781 77.617188 C 107.671875 77.628906 108.074219 77.683594 108.445312 77.773438 C 110.730469 78.3125 112.675781 79.734375 114.011719 81.425781 C 115.394531 83.175781 116.390625 85.328125 116.660156 87.945312 C 110.925781 86.488281 105.113281 88.332031 100.179688 89.40625 C 98.425781 89.789062 96.691406 90.195312 94.980469 90.554688 C 87.9375 92.039062 80.578125 92.960938 72.308594 93.058594 C 71.773438 87.886719 73.03125 83.570312 75.535156 80.851562 Z M 108.417969 71.144531 C 110.132812 68.234375 109.707031 68.765625 111.167969 65.800781 C 111.535156 65.054688 112.074219 64.222656 112.53125 63.429688 C 113 62.621094 113.574219 61.550781 114.117188 61 C 114.550781 61.152344 114.878906 61.371094 115.210938 61.589844 C 107.796875 74.671875 107.667969 74.269531 100.207031 87.285156 C 99.679688 87.285156 99.175781 87.324219 98.625 87.285156 C 103.578125 78.835938 103.34375 79.734375 108.417969 71.144531 Z M 112.523438 57.621094 C 112.636719 57.949219 112.796875 58.617188 112.902344 59.171875 C 112.996094 59.6875 113.175781 60.382812 113.113281 60.75 C 113.015625 61.347656 112.398438 62.042969 112.054688 62.648438 C 111.675781 63.3125 111.296875 63.921875 110.992188 64.550781 C 110.949219 64.152344 110.28125 63.5 110.019531 64.148438 C 109.851562 64.5625 110.367188 65.179688 110.308594 65.628906 C 110.25 66.046875 109.820312 66.519531 109.648438 66.820312 C 109.394531 67.269531 109.269531 67.648438 108.960938 67.898438 C 108.980469 66.625 108.808594 65.476562 108.675781 64.300781 C 109.875 61.949219 111.179688 59.753906 112.523438 57.621094 Z M 115.839844 62.136719 C 116.816406 61.777344 117.691406 61.265625 118.625 60.84375 C 117.585938 63.105469 116.371094 65.679688 115.210938 67.980469 C 114.0625 68.609375 112.871094 69.167969 111.660156 69.703125 C 111.914062 68.835938 112.683594 68.164062 112.960938 67.109375 C 113.519531 66.867188 114.558594 67.003906 114.570312 66.164062 C 114.433594 65.800781 113.84375 65.949219 113.640625 66.082031 C 114.230469 64.816406 115.148438 63.472656 115.839844 62.136719 Z M 121.03125 97.023438 C 120.941406 96.351562 120.335938 95.671875 120.300781 95.144531 C 120.269531 94.644531 120.535156 94.136719 120.5625 93.738281 C 120.730469 90.980469 119.585938 88.839844 117.546875 88.207031 C 117.261719 85.285156 116.234375 82.917969 114.738281 81.007812 C 113.296875 79.164062 111.253906 77.609375 108.707031 76.992188 C 108.296875 76.890625 107.871094 76.835938 107.433594 76.808594 C 108.195312 75.558594 109.21875 73.820312 110.902344 70.871094 C 111.730469 70.523438 112.585938 70.238281 113.421875 69.84375 C 114.078125 69.53125 115.328125 69.039062 115.789062 68.519531 C 116.242188 68.007812 116.539062 67.222656 116.871094 66.515625 C 117.5625 65.039062 118.253906 63.632812 118.921875 62.273438 C 119.265625 61.566406 119.757812 60.859375 119.726562 60.058594 C 118.980469 59.574219 118.265625 60.082031 117.722656 60.34375 C 117.105469 60.644531 116.515625 60.972656 115.921875 61.203125 C 115.53125 60.667969 114.65625 60.234375 113.875 60.105469 C 113.804688 59.589844 113.652344 58.832031 113.496094 58.023438 C 113.386719 57.453125 113.335938 56.425781 112.816406 56.144531 C 112.378906 55.910156 112.121094 56.644531 111.90625 57.019531 C 110.914062 58.75 109.917969 60.179688 109.054688 61.839844 C 108.765625 62.398438 108.113281 63.292969 107.964844 63.894531 C 107.742188 64.792969 108.011719 65.800781 108.089844 66.71875 C 108.175781 67.707031 108.128906 68.710938 108.214844 69.542969 C 105.828125 73.609375 104.644531 75.582031 103.699219 77.125 C 100.242188 77.773438 98.027344 79.308594 95.8125 81.214844 C 95.628906 81.371094 94.667969 82.476562 94.511719 82.46875 C 94.347656 82.460938 93.660156 81.578125 93.367188 81.320312 C 92.074219 80.191406 90.753906 79.1875 89.261719 78.453125 C 87.269531 77.46875 84.75 76.667969 81.667969 76.78125 C 81.25 76.796875 80.691406 76.882812 80.265625 76.992188 C 75.933594 78.109375 73.050781 81.785156 71.894531 85.964844 C 70.21875 86.628906 68.316406 87.09375 67.214844 88.3125 C 66.882812 88.679688 66.335938 89.554688 66.175781 89.980469 C 65.027344 92.984375 66.371094 96.390625 67.628906 98.484375 C 66.609375 100.703125 67.777344 103.117188 69.191406 104.171875 C 70.964844 105.496094 73.753906 105.859375 76.3125 105.894531 C 78.183594 108.8125 80.199219 111.59375 82.28125 114.304688 C 80.582031 117.269531 78.878906 120.226562 77.140625 123.128906 C 76.542969 122.71875 75.914062 122.023438 75.042969 122.289062 C 74.265625 124.089844 74.089844 126.90625 74.039062 128.691406 C 74.023438 129.242188 73.945312 130.136719 74.242188 130.582031 C 74.757812 131.335938 76.121094 130.554688 76.785156 130.242188 C 78.21875 129.566406 79.117188 128.886719 80.246094 127.921875 C 80.597656 127.621094 81.667969 126.890625 81.761719 126.375 C 81.929688 125.453125 80.371094 125.199219 79.90625 124.578125 C 81.371094 122.019531 82.835938 119.457031 84.296875 116.894531 C 84.546875 117.210938 84.796875 117.527344 85.046875 117.839844 C 87.34375 120.726562 89.816406 123.484375 92.121094 126.292969 C 92.898438 127.238281 93.578125 128.316406 94.5625 129.058594 C 95.453125 128.273438 96.175781 127.28125 96.957031 126.34375 C 99.304688 123.527344 101.636719 120.8125 103.976562 117.945312 C 106.625 114.695312 109.203125 111.160156 111.617188 107.613281 C 112 107.054688 112.28125 106.328125 112.65625 106.050781 C 113.335938 105.554688 114.484375 105.574219 115.15625 105.371094 C 116.316406 105.019531 117.207031 104.394531 118.167969 103.703125 C 119.34375 102.855469 119.824219 102.082031 120.355469 100.78125 C 120.773438 99.746094 121.222656 98.5 121.03125 97.023438 " fill-opacity="1" fill-rule="nonzero"/></g><path fill="#000000" d="M 83.90625 80.171875 C 83.8125 79.582031 82.699219 79.8125 82.34375 80.121094 C 82.34375 80.261719 82.34375 80.398438 82.34375 80.539062 C 82.828125 80.929688 84.007812 80.832031 83.90625 80.171875 " fill-opacity="1" fill-rule="nonzero"/><path fill="#000000" d="M 75.222656 89.40625 C 75.53125 89.023438 75.566406 88.523438 75.6875 88.101562 C 76.496094 85.34375 77.988281 83.195312 80.109375 81.6875 C 80.484375 81.417969 81.132812 81.210938 81.148438 80.902344 C 81.167969 80.460938 80.6875 80.425781 80.472656 80.539062 C 77.773438 81.96875 75.589844 84.867188 74.753906 88.257812 C 74.652344 88.664062 74.378906 89.472656 75.222656 89.40625 " fill-opacity="1" fill-rule="nonzero"/><path fill="#000000" d="M 112.503906 89.460938 C 112.582031 88.917969 111.964844 89.027344 111.617188 89.042969 C 110.554688 89.082031 109.75 89.21875 108.445312 89.40625 C 107.9375 89.480469 105.714844 89.546875 105.691406 90.085938 C 105.664062 90.648438 106.546875 90.484375 107.199219 90.398438 C 108.585938 90.21875 109.488281 90.011719 110.839844 89.878906 C 111.417969 89.820312 112.441406 89.882812 112.503906 89.460938 " fill-opacity="1" fill-rule="nonzero"/><path fill="#000000" d="M 115.828125 89.71875 C 115.785156 89.347656 115.03125 89.292969 114.84375 89.355469 C 113.546875 89.769531 115.960938 90.808594 115.828125 89.71875 " fill-opacity="1" fill-rule="nonzero"/><path fill="#000000" d="M 103.144531 90.398438 C 103.082031 91.242188 104.378906 90.992188 104.441406 90.554688 C 104.542969 89.871094 103.414062 90.035156 103.144531 90.398438 " fill-opacity="1" fill-rule="nonzero"/><path fill="#000000" d="M 111.410156 91.652344 C 111.511719 92.207031 112.558594 91.960938 112.242188 91.234375 C 111.8125 90.945312 111.34375 91.28125 111.410156 91.652344 " fill-opacity="1" fill-rule="nonzero"/><path fill="#000000" d="M 112.398438 94.988281 C 112.46875 95.445312 113.316406 95.320312 114.011719 95.355469 C 114.824219 95.398438 116.148438 95.777344 115.675781 94.832031 C 115.320312 94.6875 112.257812 94.097656 112.398438 94.988281 " fill-opacity="1" fill-rule="nonzero"/><path fill="#000000" d="M 76.417969 94.832031 C 75.226562 95.277344 77.339844 96.152344 77.40625 95.199219 C 77.4375 94.738281 76.855469 94.671875 76.417969 94.832031 " fill-opacity="1" fill-rule="nonzero"/><path fill="#000000" d="M 70.4375 96.242188 C 70.382812 96.246094 70.410156 96.28125 70.386719 96.292969 C 70.207031 96.382812 70.042969 96.5625 70.179688 96.816406 C 70.378906 97.199219 71.511719 97.097656 72.308594 97.128906 C 72.8125 97.148438 73.382812 97.238281 73.296875 96.710938 C 73.21875 96.21875 70.996094 96.203125 70.4375 96.242188 " fill-opacity="1" fill-rule="nonzero"/><path fill="#000000" d="M 111.617188 96.816406 C 110.253906 97.148438 112.421875 98.191406 112.242188 97.078125 C 112.207031 96.851562 112.078125 96.703125 111.617188 96.816406 " fill-opacity="1" fill-rule="nonzero"/><path fill="#000000" d="M 74.234375 101.25 C 74.511719 101.484375 75.207031 101.460938 75.535156 101.355469 C 75.617188 101.203125 75.6875 100.976562 75.585938 100.78125 C 75.238281 100.503906 73.835938 100.460938 74.234375 101.25 " fill-opacity="1" fill-rule="nonzero"/><path fill="#000000" d="M 84.839844 103.335938 C 84.878906 103.953125 86.550781 103.808594 86.191406 102.917969 C 85.71875 102.707031 84.804688 102.808594 84.839844 103.335938 " fill-opacity="1" fill-rule="nonzero"/><path fill="#000000" d="M 83.4375 102.972656 C 82.171875 102.945312 80.84375 103.296875 79.589844 103.335938 C 79.066406 103.351562 78.78125 103.242188 78.757812 103.648438 C 78.714844 104.429688 80.652344 104.039062 81.410156 103.964844 C 82.214844 103.882812 84.0625 103.945312 84.0625 103.335938 C 84.0625 102.941406 83.699219 102.976562 83.4375 102.972656 " fill-opacity="1" fill-rule="nonzero"/><path fill="#000000" d="M 115.15625 103.808594 C 115.699219 103.847656 115.863281 103.578125 115.832031 103.335938 C 115.714844 102.511719 114.351562 103.445312 115.15625 103.808594 " fill-opacity="1" fill-rule="nonzero"/><path fill="#000000" d="M 95.914062 122.222656 C 95.996094 122.8125 97.082031 122.601562 96.746094 121.804688 C 96.3125 121.503906 95.867188 121.875 95.914062 122.222656 " fill-opacity="1" fill-rule="nonzero"/></svg>