<svg xmlns="http://www.w3.org/2000/svg" xmlns:xlink="http://www.w3.org/1999/xlink" width="125" zoomAndPan="magnify" viewBox="0 0 94.079994 101.04" height="125" preserveAspectRatio="xMidYMid meet" version="1.0"><defs><clipPath id="0b4950932a"><path d="M 32.636719 27.867188 L 60.113281 27.867188 L 60.113281 65.003906 L 32.636719 65.003906 Z M 32.636719 27.867188 " clip-rule="nonzero"/></clipPath></defs><g clip-path="url(#0b4950932a)"><path fill="#000000" d="M 59.574219 49.351562 C 59.503906 49.390625 59.460938 49.269531 59.441406 49.246094 C 58.953125 48.617188 58.304688 48.105469 57.300781 47.925781 C 56.980469 47.867188 56.3125 47.785156 56.320312 48.082031 C 56.324219 48.265625 56.515625 48.242188 56.808594 48.261719 C 57.5 48.3125 58.1875 48.5625 58.589844 48.882812 C 58.878906 49.113281 59.332031 49.585938 59.339844 49.894531 C 59.347656 50.203125 59.089844 50.332031 58.953125 50.59375 C 58.402344 49.539062 57.480469 48.734375 55.75 48.859375 C 54.230469 48.96875 52.796875 49.347656 51.363281 49.738281 C 49.976562 50.117188 48.589844 50.46875 47.207031 50.851562 C 45.796875 51.242188 44.375 51.601562 42.894531 51.8125 C 41.332031 52.03125 39.707031 52.0625 37.964844 52.121094 C 36.476562 52.171875 35.207031 51.941406 34.351562 51.136719 C 34.355469 51.109375 34.378906 51.121094 34.378906 51.136719 C 35.113281 51.402344 35.976562 51.394531 37.011719 51.394531 C 37.253906 51.394531 38.082031 51.476562 38.09375 51.1875 C 38.109375 50.878906 37.539062 50.996094 37.269531 51.007812 C 36.097656 51.058594 34.738281 50.964844 33.964844 50.542969 C 33.890625 50.40625 33.855469 50.234375 33.835938 50.050781 C 34.117188 50.121094 34.347656 50.191406 34.710938 50.257812 C 34.9375 50.296875 35.492188 50.460938 35.539062 50.179688 C 35.59375 49.84375 34.96875 49.917969 34.710938 49.867188 C 34.371094 49.800781 34.125 49.683594 33.835938 49.636719 C 33.851562 49.421875 33.921875 49.257812 33.964844 49.066406 C 34.761719 49.257812 35.808594 49.367188 36.828125 49.273438 C 37.097656 49.246094 37.585938 49.238281 37.605469 49.011719 C 37.628906 48.6875 36.925781 48.816406 36.675781 48.832031 C 35.621094 48.898438 34.746094 48.769531 33.914062 48.597656 C 33.796875 48.308594 33.578125 48.121094 33.5 47.796875 C 33.730469 47.84375 34.359375 48.125 34.378906 47.769531 C 34.394531 47.4375 33.601562 47.503906 33.320312 47.328125 C 33.273438 47.132812 33.199219 46.964844 33.164062 46.761719 C 33.484375 46.832031 33.714844 47.007812 34.042969 47.121094 C 34.644531 47.335938 35.386719 47.480469 36.234375 47.511719 C 36.570312 47.523438 37.304688 47.570312 37.347656 47.328125 C 37.402344 46.992188 36.984375 47.113281 36.777344 47.121094 C 36.238281 47.144531 35.714844 47.132812 35.203125 47.019531 C 34.546875 46.871094 33.824219 46.667969 33.449219 46.371094 C 33.214844 46.1875 33.007812 45.945312 33.113281 45.515625 C 33.3125 45.617188 33.433594 45.910156 33.628906 46.058594 C 34.527344 46.753906 36.453125 46.667969 37.992188 46.605469 C 40.753906 46.488281 43.484375 46.121094 46.019531 45.644531 C 47.703125 45.332031 49.378906 44.992188 50.976562 44.558594 C 51.761719 44.34375 52.605469 44.167969 53.480469 44.039062 C 54.953125 43.820312 56.601562 43.730469 57.867188 44.117188 C 58.300781 44.25 58.769531 44.417969 59.003906 44.816406 C 58.777344 44.785156 58.015625 44.390625 57.996094 44.792969 C 57.980469 45.125 59.15625 45.160156 59.3125 45.414062 C 59.359375 45.484375 59.328125 45.617188 59.367188 45.722656 C 58.753906 45.421875 58.003906 45.277344 56.992188 45.285156 C 56.730469 45.285156 56.277344 45.238281 56.269531 45.492188 C 56.257812 45.753906 56.71875 45.703125 57.042969 45.699219 C 57.953125 45.679688 58.863281 45.824219 59.417969 46.214844 C 59.429688 46.433594 59.410156 46.621094 59.390625 46.8125 C 59.304688 46.855469 59.21875 46.746094 59.132812 46.707031 C 58.652344 46.484375 57.976562 46.300781 57.273438 46.265625 C 56.992188 46.253906 56.566406 46.226562 56.550781 46.449219 C 56.53125 46.757812 57.140625 46.65625 57.507812 46.683594 C 58.355469 46.742188 59.367188 47.050781 59.496094 47.847656 C 59.273438 47.675781 59.066406 47.582031 58.746094 47.433594 C 58.609375 47.371094 57.996094 47.03125 57.945312 47.382812 C 57.914062 47.585938 58.296875 47.660156 58.4375 47.71875 C 58.949219 47.925781 59.378906 48.179688 59.648438 48.597656 C 59.652344 48.875 59.660156 49.164062 59.574219 49.351562 Z M 57.144531 50.515625 C 57.160156 50.234375 57.386719 49.949219 57.457031 49.636719 C 57.605469 49.703125 57.726562 49.796875 57.84375 49.894531 C 57.707031 50.199219 57.382812 50.3125 57.144531 50.515625 Z M 56.320312 52.070312 C 56.386719 51.789062 56.671875 51.507812 56.785156 51.1875 C 57.292969 50.941406 57.792969 50.679688 58.125 50.257812 C 58.207031 50.289062 58.203125 50.40625 58.28125 50.4375 C 58.15625 50.554688 58.023438 50.746094 57.867188 50.878906 C 57.773438 50.960938 57.386719 51.261719 57.765625 51.34375 C 58.074219 51.410156 58.269531 50.902344 58.488281 50.851562 C 58.109375 51.605469 57.148438 51.773438 56.320312 52.070312 Z M 54.953125 53.390625 C 52.589844 57.050781 49.625 60.152344 46.949219 63.542969 C 44.027344 59.949219 40.882812 56.578125 38.402344 52.535156 C 44.273438 52.566406 48.367188 50.910156 53.066406 49.710938 C 53.394531 49.628906 53.769531 49.59375 54.125 49.53125 C 54.640625 49.441406 55.097656 49.355469 55.675781 49.324219 C 55.695312 49.320312 55.699219 49.335938 55.699219 49.351562 C 54.289062 52.371094 52.273438 54.859375 50.277344 57.378906 C 49.8125 57.96875 49.292969 58.585938 48.757812 59.21875 C 48.59375 59.410156 48.117188 59.855469 48.472656 59.996094 C 48.683594 60.078125 48.925781 59.699219 49.089844 59.503906 C 50.332031 58.046875 51.515625 56.535156 52.652344 54.996094 C 54.019531 53.152344 55.246094 51.390625 56.191406 49.324219 C 56.546875 49.300781 56.820312 49.367188 57.070312 49.453125 C 56.601562 50.925781 55.738281 52.171875 54.953125 53.390625 Z M 40.117188 62.660156 C 39.308594 63.546875 38.363281 64.21875 37.203125 64.570312 C 37.09375 63.585938 37.210938 62.335938 37.542969 61.125 C 37.804688 61.25 37.945312 61.453125 38.242188 61.554688 C 38.253906 61.910156 38.113281 62.398438 38.390625 62.527344 C 38.738281 62.6875 39.1875 62.34375 39.492188 62.246094 C 39.710938 62.378906 39.863281 62.550781 40.117188 62.660156 Z M 39.164062 61.921875 C 38.980469 61.972656 38.867188 62.128906 38.632812 62.101562 C 38.621094 61.90625 38.679688 61.660156 38.589844 61.515625 C 39.433594 60.046875 40.277344 58.582031 41.121094 57.113281 C 41.269531 57.308594 41.421875 57.5 41.574219 57.695312 C 40.765625 59.09375 39.960938 60.5 39.164062 61.921875 Z M 35.460938 46.164062 C 35.417969 46.164062 35.375 46.164062 35.332031 46.164062 C 35.285156 46.109375 35.429688 45.960938 35.488281 46.007812 C 35.503906 46.085938 35.460938 46.101562 35.460938 46.164062 Z M 33.472656 44.53125 C 33.769531 43.824219 34.832031 43.503906 35.539062 43.210938 C 35.664062 43.285156 35.507812 43.503906 35.539062 43.652344 C 35.332031 43.734375 34.90625 43.90625 35.152344 44.195312 C 35.3125 44.21875 35.355469 44.125 35.460938 44.09375 C 35.445312 44.585938 35.425781 45.074219 35.433594 45.59375 C 35.097656 45.617188 34.972656 45.855469 34.839844 46.085938 C 34.710938 46.0625 34.605469 46.011719 34.480469 45.984375 C 34.507812 45.714844 35.113281 45.480469 35.125 45.207031 C 35.132812 45.097656 35.054688 44.960938 34.945312 44.945312 C 34.644531 44.90625 34.261719 45.59375 34.09375 45.800781 C 33.960938 45.753906 33.855469 45.679688 33.785156 45.566406 C 33.898438 45.285156 34.035156 45.082031 34.273438 44.84375 C 34.410156 44.707031 34.949219 44.496094 34.867188 44.222656 C 34.738281 43.789062 33.949219 44.53125 33.835938 44.660156 C 33.703125 44.816406 33.589844 45.015625 33.5 45.152344 C 33.371094 44.980469 33.410156 44.683594 33.472656 44.53125 Z M 37.5 40.15625 C 38.152344 39.445312 39.304688 38.632812 40.519531 38.546875 C 41.753906 38.460938 43.039062 38.835938 43.902344 39.222656 C 44.839844 39.644531 45.664062 40.296875 46.304688 40.878906 C 46.507812 41.066406 46.597656 41.363281 46.921875 41.425781 C 47.230469 41.390625 47.375 41.082031 47.570312 40.90625 C 48.511719 40.035156 49.664062 39.171875 51.195312 38.773438 C 50.628906 39.699219 50.089844 40.566406 48.558594 43.164062 C 48.34375 43.261719 47.46875 43.175781 47.507812 43.585938 C 47.53125 43.800781 48.070312 43.78125 48.410156 43.789062 C 49.050781 43.804688 49.742188 43.800781 50.328125 43.726562 C 50.605469 43.691406 51.128906 43.699219 51.121094 43.414062 C 51.117188 43.15625 50.671875 43.148438 50.339844 43.152344 C 52.09375 40.078125 52.40625 39.65625 53.09375 38.546875 C 53.152344 38.546875 53.214844 38.546875 53.273438 38.546875 C 53.457031 38.554688 53.65625 38.582031 53.839844 38.625 C 54.972656 38.894531 55.941406 39.601562 56.605469 40.441406 C 57.289062 41.308594 57.785156 42.378906 57.921875 43.675781 C 55.074219 42.953125 52.1875 43.867188 49.738281 44.402344 C 48.867188 44.59375 48.007812 44.792969 47.15625 44.972656 C 43.660156 45.710938 40.003906 46.167969 35.898438 46.214844 C 35.632812 43.648438 36.257812 41.503906 37.5 40.15625 Z M 53.828125 35.335938 C 54.679688 33.890625 54.464844 34.15625 55.191406 32.683594 C 55.375 32.3125 55.644531 31.898438 55.871094 31.507812 C 56.101562 31.101562 56.386719 30.574219 56.65625 30.300781 C 56.871094 30.375 57.035156 30.484375 57.199219 30.589844 C 53.519531 37.085938 53.457031 36.886719 49.75 43.347656 C 49.488281 43.351562 49.238281 43.367188 48.964844 43.351562 C 51.425781 39.152344 51.308594 39.597656 53.828125 35.335938 Z M 55.867188 28.621094 C 55.921875 28.785156 56 29.113281 56.050781 29.390625 C 56.101562 29.648438 56.191406 29.992188 56.160156 30.175781 C 56.109375 30.472656 55.804688 30.816406 55.632812 31.117188 C 55.445312 31.449219 55.257812 31.75 55.105469 32.0625 C 55.085938 31.863281 54.753906 31.539062 54.625 31.859375 C 54.539062 32.066406 54.796875 32.375 54.765625 32.597656 C 54.738281 32.804688 54.523438 33.039062 54.4375 33.1875 C 54.3125 33.410156 54.25 33.601562 54.097656 33.722656 C 54.105469 33.089844 54.019531 32.519531 53.953125 31.9375 C 54.550781 30.769531 55.199219 29.679688 55.867188 28.621094 Z M 57.511719 30.863281 C 57.996094 30.683594 58.429688 30.429688 58.894531 30.21875 C 58.378906 31.34375 57.777344 32.621094 57.199219 33.765625 C 56.628906 34.078125 56.039062 34.355469 55.4375 34.621094 C 55.5625 34.1875 55.945312 33.855469 56.082031 33.332031 C 56.359375 33.210938 56.875 33.28125 56.882812 32.863281 C 56.8125 32.683594 56.523438 32.757812 56.417969 32.820312 C 56.710938 32.191406 57.167969 31.527344 57.511719 30.863281 Z M 60.089844 48.183594 C 60.042969 47.851562 59.742188 47.511719 59.726562 47.25 C 59.710938 47.003906 59.84375 46.75 59.855469 46.550781 C 59.941406 45.183594 59.371094 44.121094 58.359375 43.808594 C 58.21875 42.355469 57.707031 41.179688 56.964844 40.234375 C 56.25 39.316406 55.234375 38.546875 53.96875 38.238281 C 53.769531 38.1875 53.554688 38.160156 53.339844 38.148438 C 53.714844 37.527344 54.226562 36.664062 55.058594 35.199219 C 55.472656 35.027344 55.894531 34.886719 56.3125 34.6875 C 56.636719 34.535156 57.257812 34.289062 57.488281 34.03125 C 57.710938 33.777344 57.859375 33.390625 58.023438 33.035156 C 58.367188 32.304688 58.710938 31.605469 59.042969 30.933594 C 59.214844 30.578125 59.457031 30.230469 59.441406 29.832031 C 59.070312 29.589844 58.714844 29.84375 58.445312 29.972656 C 58.140625 30.121094 57.847656 30.285156 57.550781 30.398438 C 57.359375 30.132812 56.925781 29.917969 56.535156 29.855469 C 56.5 29.597656 56.425781 29.222656 56.347656 28.820312 C 56.292969 28.539062 56.269531 28.027344 56.011719 27.890625 C 55.792969 27.773438 55.664062 28.136719 55.558594 28.324219 C 55.066406 29.183594 54.574219 29.890625 54.144531 30.714844 C 54 30.992188 53.675781 31.4375 53.601562 31.738281 C 53.492188 32.183594 53.625 32.683594 53.664062 33.140625 C 53.707031 33.628906 53.683594 34.128906 53.726562 34.542969 C 52.542969 36.558594 51.953125 37.539062 51.484375 38.304688 C 49.769531 38.628906 48.667969 39.390625 47.570312 40.335938 C 47.476562 40.414062 47 40.960938 46.921875 40.957031 C 46.839844 40.953125 46.5 40.515625 46.355469 40.386719 C 45.714844 39.828125 45.058594 39.328125 44.316406 38.964844 C 43.328125 38.476562 42.078125 38.078125 40.546875 38.132812 C 40.339844 38.140625 40.0625 38.183594 39.851562 38.238281 C 37.699219 38.792969 36.269531 40.617188 35.695312 42.691406 C 34.863281 43.023438 33.917969 43.253906 33.371094 43.859375 C 33.207031 44.042969 32.933594 44.476562 32.855469 44.6875 C 32.285156 46.179688 32.953125 47.871094 33.578125 48.910156 C 33.070312 50.011719 33.648438 51.210938 34.351562 51.734375 C 35.234375 52.390625 36.617188 52.570312 37.886719 52.585938 C 38.816406 54.039062 39.816406 55.417969 40.851562 56.765625 C 40.007812 58.234375 39.160156 59.703125 38.296875 61.144531 C 38.003906 60.941406 37.6875 60.597656 37.257812 60.726562 C 36.871094 61.621094 36.785156 63.019531 36.757812 63.90625 C 36.75 64.179688 36.710938 64.625 36.859375 64.84375 C 37.113281 65.21875 37.792969 64.832031 38.121094 64.675781 C 38.832031 64.339844 39.277344 64.003906 39.839844 63.523438 C 40.015625 63.375 40.546875 63.011719 40.59375 62.753906 C 40.675781 62.296875 39.902344 62.171875 39.671875 61.863281 C 40.398438 60.59375 41.125 59.320312 41.851562 58.050781 C 41.976562 58.207031 42.101562 58.363281 42.226562 58.519531 C 43.363281 59.953125 44.59375 61.320312 45.734375 62.714844 C 46.121094 63.183594 46.457031 63.71875 46.949219 64.089844 C 47.390625 63.699219 47.75 63.207031 48.136719 62.742188 C 49.300781 61.34375 50.460938 59.996094 51.621094 58.570312 C 52.9375 56.957031 54.21875 55.203125 55.417969 53.441406 C 55.605469 53.164062 55.746094 52.800781 55.933594 52.664062 C 56.269531 52.417969 56.839844 52.429688 57.171875 52.328125 C 57.75 52.152344 58.191406 51.84375 58.667969 51.5 C 59.25 51.082031 59.492188 50.695312 59.753906 50.050781 C 59.960938 49.535156 60.183594 48.917969 60.089844 48.183594 " fill-opacity="1" fill-rule="nonzero"/></g><path fill="#000000" d="M 41.65625 39.816406 C 41.609375 39.523438 41.058594 39.640625 40.882812 39.792969 C 40.882812 39.859375 40.882812 39.929688 40.882812 40 C 41.121094 40.195312 41.707031 40.144531 41.65625 39.816406 " fill-opacity="1" fill-rule="nonzero"/><path fill="#000000" d="M 37.347656 44.402344 C 37.5 44.210938 37.515625 43.964844 37.578125 43.753906 C 37.976562 42.386719 38.71875 41.316406 39.773438 40.570312 C 39.960938 40.4375 40.28125 40.335938 40.289062 40.179688 C 40.300781 39.960938 40.058594 39.941406 39.953125 40 C 38.613281 40.710938 37.527344 42.148438 37.113281 43.832031 C 37.0625 44.035156 36.925781 44.4375 37.347656 44.402344 " fill-opacity="1" fill-rule="nonzero"/><path fill="#000000" d="M 55.855469 44.429688 C 55.894531 44.160156 55.585938 44.214844 55.417969 44.222656 C 54.886719 44.242188 54.488281 44.308594 53.839844 44.402344 C 53.589844 44.441406 52.484375 44.472656 52.472656 44.738281 C 52.460938 45.019531 52.898438 44.9375 53.222656 44.894531 C 53.910156 44.804688 54.359375 44.703125 55.027344 44.636719 C 55.316406 44.605469 55.824219 44.640625 55.855469 44.429688 " fill-opacity="1" fill-rule="nonzero"/><path fill="#000000" d="M 57.507812 44.558594 C 57.484375 44.375 57.109375 44.347656 57.015625 44.375 C 56.375 44.582031 57.570312 45.097656 57.507812 44.558594 " fill-opacity="1" fill-rule="nonzero"/><path fill="#000000" d="M 51.207031 44.894531 C 51.179688 45.3125 51.820312 45.1875 51.855469 44.972656 C 51.902344 44.632812 51.34375 44.714844 51.207031 44.894531 " fill-opacity="1" fill-rule="nonzero"/><path fill="#000000" d="M 55.3125 45.515625 C 55.363281 45.792969 55.882812 45.671875 55.726562 45.308594 C 55.511719 45.167969 55.28125 45.332031 55.3125 45.515625 " fill-opacity="1" fill-rule="nonzero"/><path fill="#000000" d="M 55.804688 47.175781 C 55.839844 47.398438 56.257812 47.335938 56.605469 47.355469 C 57.007812 47.375 57.664062 47.566406 57.429688 47.097656 C 57.253906 47.023438 55.734375 46.730469 55.804688 47.175781 " fill-opacity="1" fill-rule="nonzero"/><path fill="#000000" d="M 37.941406 47.097656 C 37.347656 47.316406 38.398438 47.75 38.429688 47.277344 C 38.445312 47.050781 38.15625 47.015625 37.941406 47.097656 " fill-opacity="1" fill-rule="nonzero"/><path fill="#000000" d="M 34.972656 47.796875 C 34.941406 47.796875 34.957031 47.816406 34.945312 47.820312 C 34.855469 47.863281 34.777344 47.953125 34.839844 48.082031 C 34.941406 48.273438 35.503906 48.21875 35.898438 48.234375 C 36.152344 48.246094 36.433594 48.289062 36.390625 48.027344 C 36.351562 47.785156 35.246094 47.777344 34.972656 47.796875 " fill-opacity="1" fill-rule="nonzero"/><path fill="#000000" d="M 55.417969 48.082031 C 54.738281 48.246094 55.816406 48.765625 55.726562 48.210938 C 55.707031 48.097656 55.644531 48.027344 55.417969 48.082031 " fill-opacity="1" fill-rule="nonzero"/><path fill="#000000" d="M 36.855469 50.28125 C 36.996094 50.398438 37.339844 50.386719 37.5 50.335938 C 37.542969 50.257812 37.578125 50.148438 37.527344 50.050781 C 37.351562 49.914062 36.660156 49.890625 36.855469 50.28125 " fill-opacity="1" fill-rule="nonzero"/><path fill="#000000" d="M 42.121094 51.320312 C 42.140625 51.625 42.96875 51.550781 42.792969 51.113281 C 42.558594 51.003906 42.105469 51.054688 42.121094 51.320312 " fill-opacity="1" fill-rule="nonzero"/><path fill="#000000" d="M 41.425781 51.136719 C 40.796875 51.125 40.136719 51.300781 39.515625 51.320312 C 39.253906 51.328125 39.113281 51.269531 39.101562 51.472656 C 39.078125 51.863281 40.042969 51.667969 40.417969 51.628906 C 40.816406 51.589844 41.734375 51.621094 41.734375 51.320312 C 41.734375 51.121094 41.554688 51.140625 41.425781 51.136719 " fill-opacity="1" fill-rule="nonzero"/><path fill="#000000" d="M 57.171875 51.550781 C 57.441406 51.570312 57.523438 51.4375 57.507812 51.320312 C 57.449219 50.910156 56.773438 51.371094 57.171875 51.550781 " fill-opacity="1" fill-rule="nonzero"/><path fill="#000000" d="M 47.621094 60.695312 C 47.660156 60.988281 48.199219 60.882812 48.03125 60.488281 C 47.816406 60.339844 47.597656 60.523438 47.621094 60.695312 " fill-opacity="1" fill-rule="nonzero"/></svg>